ISO-10303-21;
HEADER;
FILE_DESCRIPTION (( 'STEP AP203' ),
    '1' );
FILE_NAME ('Rectangle - 100.0 X 25.0 X 3.00.step',
    '2026-04-16T14:15:28',
    ( '' ),
    ( '' ),
    'SwSTEP 2.0',
    'SolidWorks 2023',
    '' );
FILE_SCHEMA (( 'CONFIG_CONTROL_DESIGN' ));
ENDSEC;

DATA;
#1 = ORIENTED_EDGE ( 'NONE', *, *, #297, .T. ) ;
#2 = CARTESIAN_POINT ( 'NONE',  ( 44.00000000000000711, -12.50000000000000000, 1000.000000000000000 ) ) ;
#3 = CARTESIAN_POINT ( 'NONE',  ( -47.00000000000000000, 6.500000000000000000, 1000.000000000000000 ) ) ;
#4 = DIRECTION ( 'NONE',  ( 1.000000000000000000, 0.000000000000000000, 0.000000000000000000 ) ) ;
#5 = DIRECTION ( 'NONE',  ( -0.000000000000000000, -1.000000000000000000, -0.000000000000000000 ) ) ;
#6 = CARTESIAN_POINT ( 'NONE',  ( 47.00000000000000000, 6.500000000000000888, 0.000000000000000000 ) ) ;
#7 = VECTOR ( 'NONE', #75, 1000.000000000000000 ) ;
#8 = ORIENTED_EDGE ( 'NONE', *, *, #372, .T. ) ;
#9 = CARTESIAN_POINT ( 'NONE',  ( -44.00000000000000711, 6.500000000000000888, 1000.000000000000000 ) ) ;
#10 = DIRECTION ( 'NONE',  ( 1.000000000000000000, 0.000000000000000000, 0.000000000000000000 ) ) ;
#11 = ADVANCED_FACE ( 'NONE', ( #252 ), #616, .T. ) ;
#12 = CARTESIAN_POINT ( 'NONE',  ( -50.00000000000000000, -6.500000000000000888, 0.000000000000000000 ) ) ;
#13 = CYLINDRICAL_SURFACE ( 'NONE', #622, 2.999999999999995559 ) ;
#14 = CC_DESIGN_PERSON_AND_ORGANIZATION_ASSIGNMENT ( #282, #378, ( #202 ) ) ;
#15 = LINE ( 'NONE', #467, #501 ) ;
#16 = VECTOR ( 'NONE', #237, 1000.000000000000000 ) ;
#17 = ORIENTED_EDGE ( 'NONE', *, *, #188, .F. ) ;
#18 = CIRCLE ( 'NONE', #471, 2.999999999999995559 ) ;
#19 = ADVANCED_FACE ( 'NONE', ( #63 ), #13, .F. ) ;
#20 = EDGE_LOOP ( 'NONE', ( #623, #239, #515, #175 ) ) ;
#21 = DIRECTION ( 'NONE',  ( -0.000000000000000000, -0.000000000000000000, -1.000000000000000000 ) ) ;
#22 = CARTESIAN_POINT ( 'NONE',  ( -44.00000000000000711, -12.50000000000000000, 0.000000000000000000 ) ) ;
#23 = VERTEX_POINT ( 'NONE', #314 ) ;
#24 = CARTESIAN_POINT ( 'NONE',  ( 44.00000000000000711, 6.500000000000000888, 1000.000000000000000 ) ) ;
#25 = CARTESIAN_POINT ( 'NONE',  ( -44.00000000000000711, 6.500000000000000888, 0.000000000000000000 ) ) ;
#26 = PERSON_AND_ORGANIZATION_ROLE ( 'design_supplier' ) ;
#27 = ORIENTED_EDGE ( 'NONE', *, *, #284, .F. ) ;
#28 = PLANE ( 'NONE',  #39 ) ;
#29 = CARTESIAN_POINT ( 'NONE',  ( -44.00000000000000711, 12.50000000000000000, 0.000000000000000000 ) ) ;
#30 = CARTESIAN_POINT ( 'NONE',  ( 44.00000000000000711, 9.500000000000001776, 1000.000000000000000 ) ) ;
#31 = APPROVAL_DATE_TIME ( #80, #503 ) ;
#32 = CARTESIAN_POINT ( 'NONE',  ( -44.00000000000000711, -12.50000000000000000, 1000.000000000000000 ) ) ;
#33 = PRODUCT_DEFINITION ( 'UNKNOWN', '', #425, #315 ) ;
#34 = CC_DESIGN_APPROVAL ( #516, ( #425 ) ) ;
#35 = DIRECTION ( 'NONE',  ( -1.000000000000000000, 0.000000000000000000, 0.000000000000000000 ) ) ;
#36 = ORIENTED_EDGE ( 'NONE', *, *, #226, .T. ) ;
#37 = LINE ( 'NONE', #540, #521 ) ;
#38 = CALENDAR_DATE ( 2026, 16, 4 ) ;
#39 = AXIS2_PLACEMENT_3D ( 'NONE', #120, #259, #473 ) ;
#40 = CIRCLE ( 'NONE', #220, 2.999999999999995559 ) ;
#41 = EDGE_CURVE ( 'NONE', #422, #246, #107, .T. ) ;
#42 = APPROVAL_ROLE ( '' ) ;
#43 = ORIENTED_EDGE ( 'NONE', *, *, #265, .T. ) ;
#44 = CARTESIAN_POINT ( 'NONE',  ( 44.00000000000000711, 9.500000000000001776, 0.000000000000000000 ) ) ;
#45 = FACE_OUTER_BOUND ( 'NONE', #619, .T. ) ;
#46 = ORIENTED_EDGE ( 'NONE', *, *, #345, .F. ) ;
#47 = CARTESIAN_POINT ( 'NONE',  ( -47.00000000000000000, -6.500000000000000888, 0.000000000000000000 ) ) ;
#48 = EDGE_CURVE ( 'NONE', #457, #564, #60, .T. ) ;
#49 = ORIENTED_EDGE ( 'NONE', *, *, #154, .T. ) ;
#50 = DIRECTION ( 'NONE',  ( 0.000000000000000000, -0.000000000000000000, 1.000000000000000000 ) ) ;
#51 = VECTOR ( 'NONE', #424, 1000.000000000000000 ) ;
#52 = VECTOR ( 'NONE', #289, 1000.000000000000000 ) ;
#53 = VERTEX_POINT ( 'NONE', #455 ) ;
#54 = CYLINDRICAL_SURFACE ( 'NONE', #420, 5.999999999999998224 ) ;
#55 = EDGE_CURVE ( 'NONE', #422, #350, #309, .T. ) ;
#56 = CARTESIAN_POINT ( 'NONE',  ( -47.00000000000000000, -6.500000000000000888, 1000.000000000000000 ) ) ;
#57 = CARTESIAN_POINT ( 'NONE',  ( 44.00000000000000711, -6.500000000000000888, 0.000000000000000000 ) ) ;
#58 = AXIS2_PLACEMENT_3D ( 'NONE', #216, #611, #258 ) ;
#59 = APPROVAL_PERSON_ORGANIZATION ( #390, #516, #194 ) ;
#60 = LINE ( 'NONE', #12, #448 ) ;
#61 = CARTESIAN_POINT ( 'NONE',  ( 44.00000000000000711, -6.500000000000000888, 1000.000000000000000 ) ) ;
#62 = DIRECTION ( 'NONE',  ( 0.000000000000000000, 1.000000000000000000, 0.000000000000000000 ) ) ;
#63 = FACE_OUTER_BOUND ( 'NONE', #65, .T. ) ;
#64 = ADVANCED_FACE ( 'NONE', ( #409 ), #360, .T. ) ;
#65 = EDGE_LOOP ( 'NONE', ( #577, #200, #581, #49 ) ) ;
#66 = CARTESIAN_POINT ( 'NONE',  ( -44.00000000000000711, 9.500000000000001776, 1000.000000000000000 ) ) ;
#67 = EDGE_LOOP ( 'NONE', ( #363, #591, #148, #568, #322, #307, #304, #603 ) ) ;
#68 = ADVANCED_FACE ( 'NONE', ( #161 ), #557, .F. ) ;
#69 = VERTEX_POINT ( 'NONE', #463 ) ;
#70 = CYLINDRICAL_SURFACE ( 'NONE', #213, 5.999999999999998224 ) ;
#71 = AXIS2_PLACEMENT_3D ( 'NONE', #404, #604, #201 ) ;
#72 = VERTEX_POINT ( 'NONE', #163 ) ;
#73 = CARTESIAN_POINT ( 'NONE',  ( -44.00000000000000711, -9.500000000000001776, 1000.000000000000000 ) ) ;
#74 = APPROVAL ( #492, 'UNSPECIFIED' ) ;
#75 = DIRECTION ( 'NONE',  ( -0.000000000000000000, -0.000000000000000000, -1.000000000000000000 ) ) ;
#76 = FACE_OUTER_BOUND ( 'NONE', #191, .T. ) ;
#77 = CLOSED_SHELL ( 'NONE', ( #617, #196, #580, #432, #570, #650, #319, #206, #437, #280, #462, #11, #19, #646, #68, #64, #459, #511 ) ) ;
#78 = CARTESIAN_POINT ( 'NONE',  ( -44.00000000000000711, -12.50000000000000000, 1000.000000000000000 ) ) ;
#79 = DIRECTION ( 'NONE',  ( -1.000000000000000000, 0.000000000000000000, 0.000000000000000000 ) ) ;
#80 = DATE_AND_TIME ( #38, #355 ) ;
#81 = ORIENTED_EDGE ( 'NONE', *, *, #234, .T. ) ;
#82 = CARTESIAN_POINT ( 'NONE',  ( -44.00000000000000711, -9.500000000000001776, 1000.000000000000000 ) ) ;
#83 = CIRCLE ( 'NONE', #266, 5.999999999999998224 ) ;
#84 = ADVANCED_BREP_SHAPE_REPRESENTATION ( 'Rectangle - 100.0 X 25.0 X 3.00', ( #405, #606 ), #594 ) ;
#85 = LINE ( 'NONE', #379, #333 ) ;
#86 = SHAPE_DEFINITION_REPRESENTATION ( #428, #84 ) ;
#87 = PLANE ( 'NONE',  #517 ) ;
#88 = DIRECTION ( 'NONE',  ( 0.000000000000000000, 0.000000000000000000, 1.000000000000000000 ) ) ;
#89 = DIRECTION ( 'NONE',  ( -1.000000000000000000, 0.000000000000000000, 0.000000000000000000 ) ) ;
#90 = ORIENTED_EDGE ( 'NONE', *, *, #421, .T. ) ;
#91 = CARTESIAN_POINT ( 'NONE',  ( 44.00000000000000711, -6.500000000000000888, 0.000000000000000000 ) ) ;
#92 =( LENGTH_UNIT ( ) NAMED_UNIT ( * ) SI_UNIT ( .MILLI., .METRE. ) );
#93 = ORIENTED_EDGE ( 'NONE', *, *, #352, .F. ) ;
#94 = CARTESIAN_POINT ( 'NONE',  ( -47.00000000000000000, 6.500000000000000000, 0.000000000000000000 ) ) ;
#95 = EDGE_CURVE ( 'NONE', #275, #23, #362, .T. ) ;
#96 = AXIS2_PLACEMENT_3D ( 'NONE', #24, #223, #526 ) ;
#97 = CARTESIAN_POINT ( 'NONE',  ( -44.00000000000000711, 6.500000000000000888, 1000.000000000000000 ) ) ;
#98 = EDGE_LOOP ( 'NONE', ( #635, #221, #17, #347 ) ) ;
#99 = CARTESIAN_POINT ( 'NONE',  ( 44.00000000000000711, -9.499999999999998224, 1000.000000000000000 ) ) ;
#100 = ORIENTED_EDGE ( 'NONE', *, *, #365, .T. ) ;
#101 = DIRECTION ( 'NONE',  ( 0.000000000000000000, 1.000000000000000000, 0.000000000000000000 ) ) ;
#102 = ORGANIZATION ( 'UNSPECIFIED', 'UNSPECIFIED', '' ) ;
#103 = ORIENTED_EDGE ( 'NONE', *, *, #352, .T. ) ;
#104 = DIRECTION ( 'NONE',  ( 0.000000000000000000, 0.000000000000000000, 1.000000000000000000 ) ) ;
#105 = CIRCLE ( 'NONE', #582, 5.999999999999998224 ) ;
#106 = AXIS2_PLACEMENT_3D ( 'NONE', #497, #542, #354 ) ;
#107 = LINE ( 'NONE', #262, #394 ) ;
#108 = LINE ( 'NONE', #361, #261 ) ;
#109 = CARTESIAN_POINT ( 'NONE',  ( 44.00000000000000711, -6.500000000000000888, 1000.000000000000000 ) ) ;
#110 = DIRECTION ( 'NONE',  ( 1.000000000000000000, 0.000000000000000000, 0.000000000000000000 ) ) ;
#111 = VECTOR ( 'NONE', #287, 1000.000000000000000 ) ;
#112 = DIRECTION ( 'NONE',  ( -1.000000000000000000, 0.000000000000000000, 0.000000000000000000 ) ) ;
#113 = DIRECTION ( 'NONE',  ( 0.000000000000000000, 0.000000000000000000, -1.000000000000000000 ) ) ;
#114 = LINE ( 'NONE', #260, #470 ) ;
#115 = EDGE_CURVE ( 'NONE', #264, #53, #114, .T. ) ;
#116 = ORIENTED_EDGE ( 'NONE', *, *, #514, .T. ) ;
#117 = DIRECTION ( 'NONE',  ( -0.000000000000000000, -0.000000000000000000, -1.000000000000000000 ) ) ;
#118 = CC_DESIGN_APPROVAL ( #74, ( #33 ) ) ;
#119 = ORIENTED_EDGE ( 'NONE', *, *, #563, .T. ) ;
#120 = CARTESIAN_POINT ( 'NONE',  ( -44.00000000000000711, 9.500000000000001776, 1000.000000000000000 ) ) ;
#121 = AXIS2_PLACEMENT_3D ( 'NONE', #9, #522, #479 ) ;
#122 = DIRECTION ( 'NONE',  ( -1.000000000000000000, -0.000000000000000000, -0.000000000000000000 ) ) ;
#123 = CALENDAR_DATE ( 2026, 16, 4 ) ;
#124 = VERTEX_POINT ( 'NONE', #66 ) ;
#125 = CARTESIAN_POINT ( 'NONE',  ( 44.00000000000000711, 9.500000000000000000, 1000.000000000000000 ) ) ;
#126 = CARTESIAN_POINT ( 'NONE',  ( -44.00000000000000711, -6.500000000000000888, 0.000000000000000000 ) ) ;
#127 = EDGE_CURVE ( 'NONE', #541, #169, #15, .T. ) ;
#128 = DATE_AND_TIME ( #576, #369 ) ;
#129 = CARTESIAN_POINT ( 'NONE',  ( 0.000000000000000000, 0.000000000000000000, 0.000000000000000000 ) ) ;
#130 = CARTESIAN_POINT ( 'NONE',  ( -50.00000000000000000, -6.500000000000000888, 1000.000000000000000 ) ) ;
#131 = PERSON_AND_ORGANIZATION_ROLE ( 'creator' ) ;
#132 = EDGE_CURVE ( 'NONE', #368, #312, #615, .T. ) ;
#133 = ORIENTED_EDGE ( 'NONE', *, *, #41, .F. ) ;
#134 = PERSON_AND_ORGANIZATION ( #464, #102 ) ;
#135 = CIRCLE ( 'NONE', #653, 5.999999999999998224 ) ;
#136 = DIRECTION ( 'NONE',  ( 0.000000000000000000, 0.000000000000000000, 1.000000000000000000 ) ) ;
#137 = PERSON_AND_ORGANIZATION ( #464, #102 ) ;
#138 = CARTESIAN_POINT ( 'NONE',  ( 44.00000000000000711, 6.500000000000000888, 0.000000000000000000 ) ) ;
#139 = EDGE_CURVE ( 'NONE', #433, #368, #434, .T. ) ;
#140 = VERTEX_POINT ( 'NONE', #484 ) ;
#141 = DIRECTION ( 'NONE',  ( -0.000000000000000000, 0.000000000000000000, -1.000000000000000000 ) ) ;
#142 = AXIS2_PLACEMENT_3D ( 'NONE', #56, #562, #113 ) ;
#143 = CARTESIAN_POINT ( 'NONE',  ( 50.00000000000000000, -6.500000000000000888, 0.000000000000000000 ) ) ;
#144 = EDGE_CURVE ( 'NONE', #647, #564, #179, .T. ) ;
#145 = VERTEX_POINT ( 'NONE', #227 ) ;
#146 = DIRECTION ( 'NONE',  ( 0.000000000000000000, 0.000000000000000000, 1.000000000000000000 ) ) ;
#147 = DIRECTION ( 'NONE',  ( 5.337610695313252371E-16, -1.000000000000000000, 0.000000000000000000 ) ) ;
#148 = ORIENTED_EDGE ( 'NONE', *, *, #391, .T. ) ;
#149 = LINE ( 'NONE', #2, #160 ) ;
#150 = VECTOR ( 'NONE', #21, 1000.000000000000000 ) ;
#151 = CALENDAR_DATE ( 2026, 16, 4 ) ;
#152 = ORIENTED_EDGE ( 'NONE', *, *, #547, .T. ) ;
#153 = DIRECTION ( 'NONE',  ( -1.000000000000000000, 0.000000000000000000, 0.000000000000000000 ) ) ;
#154 = EDGE_CURVE ( 'NONE', #551, #264, #383, .T. ) ;
#155 = ORIENTED_EDGE ( 'NONE', *, *, #605, .F. ) ;
#156 = PLANE ( 'NONE',  #419 ) ;
#157 = AXIS2_PLACEMENT_3D ( 'NONE', #97, #341, #488 ) ;
#158 = ORIENTED_EDGE ( 'NONE', *, *, #95, .T. ) ;
#159 = DIRECTION ( 'NONE',  ( 1.000000000000000000, 0.000000000000000000, 0.000000000000000000 ) ) ;
#160 = VECTOR ( 'NONE', #253, 1000.000000000000000 ) ;
#161 = FACE_OUTER_BOUND ( 'NONE', #366, .T. ) ;
#162 = FACE_OUTER_BOUND ( 'NONE', #204, .T. ) ;
#163 = CARTESIAN_POINT ( 'NONE',  ( -44.00000000000000711, -12.50000000000000000, 0.000000000000000000 ) ) ;
#164 = DIRECTION ( 'NONE',  ( -1.000000000000000000, 0.000000000000000000, 0.000000000000000000 ) ) ;
#165 = LINE ( 'NONE', #560, #229 ) ;
#166 = ORIENTED_EDGE ( 'NONE', *, *, #132, .F. ) ;
#167 = VECTOR ( 'NONE', #377, 1000.000000000000000 ) ;
#168 = EDGE_CURVE ( 'NONE', #453, #450, #583, .T. ) ;
#169 = VERTEX_POINT ( 'NONE', #230 ) ;
#170 = EDGE_CURVE ( 'NONE', #169, #255, #105, .T. ) ;
#171 = ORIENTED_EDGE ( 'NONE', *, *, #530, .T. ) ;
#172 = CARTESIAN_POINT ( 'NONE',  ( 44.00000000000000711, -6.500000000000000888, 1000.000000000000000 ) ) ;
#173 = CARTESIAN_POINT ( 'NONE',  ( 47.00000000000000000, -6.500000000000000888, 1000.000000000000000 ) ) ;
#174 = APPLICATION_CONTEXT ( 'configuration controlled 3d designs of mechanical parts and assemblies' ) ;
#175 = ORIENTED_EDGE ( 'NONE', *, *, #55, .T. ) ;
#176 = DIRECTION ( 'NONE',  ( -1.000000000000000000, 0.000000000000000000, 0.000000000000000000 ) ) ;
#177 = AXIS2_PLACEMENT_3D ( 'NONE', #172, #117, #176 ) ;
#178 = EDGE_CURVE ( 'NONE', #353, #264, #452, .T. ) ;
#179 = LINE ( 'NONE', #130, #300 ) ;
#180 = DIRECTION ( 'NONE',  ( 0.000000000000000000, 1.000000000000000000, 0.000000000000000000 ) ) ;
#181 = CARTESIAN_POINT ( 'NONE',  ( -44.00000000000000711, 12.50000000000000000, 0.000000000000000000 ) ) ;
#182 = CC_DESIGN_DATE_AND_TIME_ASSIGNMENT ( #349, #290, ( #33 ) ) ;
#183 = EDGE_LOOP ( 'NONE', ( #36, #343, #93, #222 ) ) ;
#184 = DIRECTION ( 'NONE',  ( 0.000000000000000000, 0.000000000000000000, 1.000000000000000000 ) ) ;
#185 = CC_DESIGN_APPROVAL ( #503, ( #202 ) ) ;
#186 = ORIENTED_EDGE ( 'NONE', *, *, #144, .F. ) ;
#187 = CARTESIAN_POINT ( 'NONE',  ( 49.99999999999999289, 6.500000000000000888, 1000.000000000000000 ) ) ;
#188 = EDGE_CURVE ( 'NONE', #295, #140, #632, .T. ) ;
#189 = PERSON_AND_ORGANIZATION_ROLE ( 'design_owner' ) ;
#190 = AXIS2_PLACEMENT_3D ( 'NONE', #126, #528, #79 ) ;
#191 = EDGE_LOOP ( 'NONE', ( #197, #268, #242, #620 ) ) ;
#192 = CIRCLE ( 'NONE', #71, 2.999999999999995559 ) ;
#193 = CARTESIAN_POINT ( 'NONE',  ( -44.00000000000000711, -9.500000000000001776, 0.000000000000000000 ) ) ;
#194 = APPROVAL_ROLE ( '' ) ;
#195 =( NAMED_UNIT ( * ) PLANE_ANGLE_UNIT ( ) SI_UNIT ( $, .RADIAN. ) );
#196 = ADVANCED_FACE ( 'NONE', ( #277, #285 ), #533, .T. ) ;
#197 = ORIENTED_EDGE ( 'NONE', *, *, #254, .T. ) ;
#198 = CARTESIAN_POINT ( 'NONE',  ( -47.00000000000000000, -6.500000000000000888, 0.000000000000000000 ) ) ;
#199 = DIRECTION ( 'NONE',  ( 0.000000000000000000, -0.000000000000000000, 1.000000000000000000 ) ) ;
#200 = ORIENTED_EDGE ( 'NONE', *, *, #575, .F. ) ;
#201 = DIRECTION ( 'NONE',  ( 1.000000000000000000, 0.000000000000000000, 0.000000000000000000 ) ) ;
#202 = SECURITY_CLASSIFICATION ( '', '', #584 ) ;
#203 = PERSON_AND_ORGANIZATION ( #464, #102 ) ;
#204 = EDGE_LOOP ( 'NONE', ( #370, #566, #465, #472 ) ) ;
#205 = FACE_OUTER_BOUND ( 'NONE', #98, .T. ) ;
#206 = ADVANCED_FACE ( 'NONE', ( #76 ), #636, .F. ) ;
#207 = ORIENTED_EDGE ( 'NONE', *, *, #575, .T. ) ;
#208 = DIRECTION ( 'NONE',  ( 0.000000000000000000, 0.000000000000000000, 1.000000000000000000 ) ) ;
#209 = ORIENTED_EDGE ( 'NONE', *, *, #170, .F. ) ;
#210 = FACE_OUTER_BOUND ( 'NONE', #214, .T. ) ;
#211 = DIRECTION ( 'NONE',  ( -0.000000000000000000, -0.000000000000000000, -1.000000000000000000 ) ) ;
#212 = LINE ( 'NONE', #612, #238 ) ;
#213 = AXIS2_PLACEMENT_3D ( 'NONE', #569, #330, #645 ) ;
#214 = EDGE_LOOP ( 'NONE', ( #1, #508, #46, #376 ) ) ;
#215 = DIRECTION ( 'NONE',  ( -1.000000000000000000, 0.000000000000000000, 0.000000000000000000 ) ) ;
#216 = CARTESIAN_POINT ( 'NONE',  ( 47.00000000000000000, -6.500000000000000888, 1000.000000000000000 ) ) ;
#217 = ORIENTED_EDGE ( 'NONE', *, *, #550, .T. ) ;
#218 = CC_DESIGN_PERSON_AND_ORGANIZATION_ASSIGNMENT ( #286, #26, ( #425 ) ) ;
#219 = VECTOR ( 'NONE', #328, 1000.000000000000000 ) ;
#220 = AXIS2_PLACEMENT_3D ( 'NONE', #247, #104, #153 ) ;
#221 = ORIENTED_EDGE ( 'NONE', *, *, #356, .F. ) ;
#222 = ORIENTED_EDGE ( 'NONE', *, *, #144, .T. ) ;
#223 = DIRECTION ( 'NONE',  ( -0.000000000000000000, -0.000000000000000000, -1.000000000000000000 ) ) ;
#224 = DIRECTION ( 'NONE',  ( 1.000000000000000000, 0.000000000000000000, 0.000000000000000000 ) ) ;
#225 = CYLINDRICAL_SURFACE ( 'NONE', #96, 2.999999999999995559 ) ;
#226 = EDGE_CURVE ( 'NONE', #564, #72, #83, .T. ) ;
#227 = CARTESIAN_POINT ( 'NONE',  ( 50.00000000000000000, -6.500000000000000888, 0.000000000000000000 ) ) ;
#228 = DIRECTION ( 'NONE',  ( 0.000000000000000000, 0.000000000000000000, 1.000000000000000000 ) ) ;
#229 = VECTOR ( 'NONE', #410, 1000.000000000000000 ) ;
#230 = CARTESIAN_POINT ( 'NONE',  ( -44.00000000000000711, 12.50000000000000000, 1000.000000000000000 ) ) ;
#231 = PERSON_AND_ORGANIZATION ( #464, #102 ) ;
#232 = LINE ( 'NONE', #143, #292 ) ;
#233 = DIRECTION ( 'NONE',  ( 0.000000000000000000, -0.000000000000000000, -1.000000000000000000 ) ) ;
#234 = EDGE_CURVE ( 'NONE', #263, #457, #135, .T. ) ;
#235 = PLANE ( 'NONE',  #382 ) ;
#236 = VERTEX_POINT ( 'NONE', #537 ) ;
#237 = DIRECTION ( 'NONE',  ( -0.000000000000000000, -0.000000000000000000, -1.000000000000000000 ) ) ;
#238 = VECTOR ( 'NONE', #631, 1000.000000000000000 ) ;
#239 = ORIENTED_EDGE ( 'NONE', *, *, #372, .F. ) ;
#240 = CARTESIAN_POINT ( 'NONE',  ( -50.00000000000000000, -6.500000000000000888, 1000.000000000000000 ) ) ;
#241 = COORDINATED_UNIVERSAL_TIME_OFFSET ( 2, 0, .AHEAD. ) ;
#242 = ORIENTED_EDGE ( 'NONE', *, *, #127, .F. ) ;
#243 = CARTESIAN_POINT ( 'NONE',  ( 44.00000000000000711, -9.499999999999998224, 1000.000000000000000 ) ) ;
#244 = DIRECTION ( 'NONE',  ( -0.000000000000000000, 0.000000000000000000, -1.000000000000000000 ) ) ;
#245 = EDGE_CURVE ( 'NONE', #312, #350, #278, .T. ) ;
#246 = VERTEX_POINT ( 'NONE', #271 ) ;
#247 = CARTESIAN_POINT ( 'NONE',  ( -44.00000000000000711, -6.500000000000000888, 1000.000000000000000 ) ) ;
#248 = AXIS2_PLACEMENT_3D ( 'NONE', #25, #88, #429 ) ;
#249 = EDGE_CURVE ( 'NONE', #72, #600, #574, .T. ) ;
#250 = EDGE_LOOP ( 'NONE', ( #525, #494, #158, #116 ) ) ;
#251 = DIRECTION ( 'NONE',  ( -1.000000000000000000, 0.000000000000000000, 0.000000000000000000 ) ) ;
#252 = FACE_OUTER_BOUND ( 'NONE', #327, .T. ) ;
#253 = DIRECTION ( 'NONE',  ( -0.000000000000000000, -0.000000000000000000, -1.000000000000000000 ) ) ;
#254 = EDGE_CURVE ( 'NONE', #69, #263, #441, .T. ) ;
#255 = VERTEX_POINT ( 'NONE', #640 ) ;
#256 = DIRECTION ( 'NONE',  ( 0.000000000000000000, 0.000000000000000000, 1.000000000000000000 ) ) ;
#257 = LOCAL_TIME ( 16, 15, 28.00000000000000000, #399 ) ;
#258 = DIRECTION ( 'NONE',  ( 0.000000000000000000, 0.000000000000000000, 1.000000000000000000 ) ) ;
#259 = DIRECTION ( 'NONE',  ( 0.000000000000000000, -1.000000000000000000, 0.000000000000000000 ) ) ;
#260 = CARTESIAN_POINT ( 'NONE',  ( -44.00000000000000711, -9.500000000000001776, 0.000000000000000000 ) ) ;
#261 = VECTOR ( 'NONE', #318, 1000.000000000000000 ) ;
#262 = CARTESIAN_POINT ( 'NONE',  ( -47.00000000000000000, -6.500000000000000888, 1000.000000000000000 ) ) ;
#263 = VERTEX_POINT ( 'NONE', #181 ) ;
#264 = VERTEX_POINT ( 'NONE', #193 ) ;
#265 = EDGE_CURVE ( 'NONE', #236, #453, #85, .T. ) ;
#266 = AXIS2_PLACEMENT_3D ( 'NONE', #273, #436, #474 ) ;
#267 = CIRCLE ( 'NONE', #106, 5.999999999999998224 ) ;
#268 = ORIENTED_EDGE ( 'NONE', *, *, #466, .F. ) ;
#269 = CYLINDRICAL_SURFACE ( 'NONE', #121, 2.999999999999995559 ) ;
#270 = ORIENTED_EDGE ( 'NONE', *, *, #402, .F. ) ;
#271 = CARTESIAN_POINT ( 'NONE',  ( -47.00000000000000000, -6.500000000000000888, 1000.000000000000000 ) ) ;
#272 = FACE_OUTER_BOUND ( 'NONE', #460, .T. ) ;
#273 = CARTESIAN_POINT ( 'NONE',  ( -44.00000000000000711, -6.500000000000000888, 0.000000000000000000 ) ) ;
#274 = EDGE_CURVE ( 'NONE', #435, #555, #389, .T. ) ;
#275 = VERTEX_POINT ( 'NONE', #173 ) ;
#276 = LINE ( 'NONE', #614, #150 ) ;
#277 = FACE_OUTER_BOUND ( 'NONE', #545, .T. ) ;
#278 = CIRCLE ( 'NONE', #248, 2.999999999999995559 ) ;
#279 = DIRECTION ( 'NONE',  ( -1.000000000000000000, -5.337610695313252371E-16, 0.000000000000000000 ) ) ;
#280 = ADVANCED_FACE ( 'NONE', ( #456 ), #156, .F. ) ;
#281 = DIRECTION ( 'NONE',  ( 0.000000000000000000, 0.000000000000000000, 1.000000000000000000 ) ) ;
#282 = PERSON_AND_ORGANIZATION ( #464, #102 ) ;
#283 = CARTESIAN_POINT ( 'NONE',  ( 50.00000000000000000, -6.500000000000000888, 1000.000000000000000 ) ) ;
#284 = EDGE_CURVE ( 'NONE', #551, #397, #444, .T. ) ;
#285 = FACE_BOUND ( 'NONE', #67, .T. ) ;
#286 = PERSON_AND_ORGANIZATION ( #464, #102 ) ;
#287 = DIRECTION ( 'NONE',  ( -0.000000000000000000, -0.000000000000000000, -1.000000000000000000 ) ) ;
#288 = ORIENTED_EDGE ( 'NONE', *, *, #139, .T. ) ;
#289 = DIRECTION ( 'NONE',  ( -0.000000000000000000, -0.000000000000000000, -1.000000000000000000 ) ) ;
#290 = DATE_TIME_ROLE ( 'creation_date' ) ;
#291 = FACE_OUTER_BOUND ( 'NONE', #430, .T. ) ;
#292 = VECTOR ( 'NONE', #536, 1000.000000000000000 ) ;
#293 = ORIENTED_EDGE ( 'NONE', *, *, #514, .F. ) ;
#294 = DIRECTION ( 'NONE',  ( 0.000000000000000000, 0.000000000000000000, 1.000000000000000000 ) ) ;
#295 = VERTEX_POINT ( 'NONE', #505 ) ;
#296 = DIRECTION ( 'NONE',  ( -0.000000000000000000, -0.000000000000000000, -1.000000000000000000 ) ) ;
#297 = EDGE_CURVE ( 'NONE', #450, #69, #267, .T. ) ;
#298 = ORIENTED_EDGE ( 'NONE', *, *, #365, .F. ) ;
#299 = CARTESIAN_POINT ( 'NONE',  ( 44.00000000000000711, 6.500000000000000888, 1000.000000000000000 ) ) ;
#300 = VECTOR ( 'NONE', #486, 1000.000000000000000 ) ;
#301 = ORIENTED_EDGE ( 'NONE', *, *, #297, .F. ) ;
#302 = LINE ( 'NONE', #407, #52 ) ;
#303 = AXIS2_PLACEMENT_3D ( 'NONE', #601, #294, #608 ) ;
#304 = ORIENTED_EDGE ( 'NONE', *, *, #274, .T. ) ;
#305 = DIRECTION ( 'NONE',  ( -0.000000000000000000, -0.000000000000000000, -1.000000000000000000 ) ) ;
#306 = CC_DESIGN_PERSON_AND_ORGANIZATION_ASSIGNMENT ( #134, #189, ( #524 ) ) ;
#307 = ORIENTED_EDGE ( 'NONE', *, *, #480, .T. ) ;
#308 = CARTESIAN_POINT ( 'NONE',  ( -44.00000000000000711, 6.500000000000000888, 1000.000000000000000 ) ) ;
#309 = LINE ( 'NONE', #3, #340 ) ;
#310 = EDGE_CURVE ( 'NONE', #600, #145, #359, .T. ) ;
#311 = ORIENTED_EDGE ( 'NONE', *, *, #55, .F. ) ;
#312 = VERTEX_POINT ( 'NONE', #454 ) ;
#313 = PRODUCT_RELATED_PRODUCT_CATEGORY ( 'detail', '', ( #524 ) ) ;
#314 = CARTESIAN_POINT ( 'NONE',  ( 47.00000000000000000, 6.500000000000000888, 1000.000000000000000 ) ) ;
#315 = DESIGN_CONTEXT ( 'detailed design', #174, 'design' ) ;
#316 = LOCAL_TIME ( 16, 15, 28.00000000000000000, #241 ) ;
#317 = ORIENTED_EDGE ( 'NONE', *, *, #168, .F. ) ;
#318 = DIRECTION ( 'NONE',  ( -0.000000000000000000, -0.000000000000000000, -1.000000000000000000 ) ) ;
#319 = ADVANCED_FACE ( 'NONE', ( #210 ), #54, .T. ) ;
#320 = AXIS2_PLACEMENT_3D ( 'NONE', #61, #228, #427 ) ;
#321 = VECTOR ( 'NONE', #393, 1000.000000000000000 ) ;
#322 = ORIENTED_EDGE ( 'NONE', *, *, #115, .T. ) ;
#323 = LINE ( 'NONE', #78, #7 ) ;
#324 = DIRECTION ( 'NONE',  ( 0.000000000000000000, -1.000000000000000000, 0.000000000000000000 ) ) ;
#325 = EDGE_LOOP ( 'NONE', ( #559, #186, #298, #217 ) ) ;
#326 = CYLINDRICAL_SURFACE ( 'NONE', #513, 5.999999999999998224 ) ;
#327 = EDGE_LOOP ( 'NONE', ( #651, #311, #504, #207 ) ) ;
#328 = DIRECTION ( 'NONE',  ( -0.000000000000000000, -0.000000000000000000, -1.000000000000000000 ) ) ;
#329 = APPROVAL_STATUS ( 'not_yet_approved' ) ;
#330 = DIRECTION ( 'NONE',  ( -0.000000000000000000, -0.000000000000000000, -1.000000000000000000 ) ) ;
#331 = DIRECTION ( 'NONE',  ( 1.000000000000000000, 0.000000000000000000, 0.000000000000000000 ) ) ;
#332 = COORDINATED_UNIVERSAL_TIME_OFFSET ( 2, 0, .AHEAD. ) ;
#333 = VECTOR ( 'NONE', #629, 1000.000000000000000 ) ;
#334 = CARTESIAN_POINT ( 'NONE',  ( 44.00000000000000711, -12.50000000000000000, 0.000000000000000000 ) ) ;
#335 = EDGE_CURVE ( 'NONE', #246, #551, #40, .T. ) ;
#336 = DIRECTION ( 'NONE',  ( -1.000000000000000000, 0.000000000000000000, 0.000000000000000000 ) ) ;
#337 = APPROVAL_STATUS ( 'not_yet_approved' ) ;
#338 = ORIENTED_EDGE ( 'NONE', *, *, #480, .F. ) ;
#339 = CARTESIAN_POINT ( 'NONE',  ( -44.00000000000000711, 6.500000000000000888, 0.000000000000000000 ) ) ;
#340 = VECTOR ( 'NONE', #211, 1000.000000000000000 ) ;
#341 = DIRECTION ( 'NONE',  ( 0.000000000000000000, 0.000000000000000000, 1.000000000000000000 ) ) ;
#342 = APPROVAL_PERSON_ORGANIZATION ( #538, #74, #42 ) ;
#343 = ORIENTED_EDGE ( 'NONE', *, *, #498, .F. ) ;
#344 = CARTESIAN_POINT ( 'NONE',  ( 44.00000000000000711, 6.500000000000000888, 1000.000000000000000 ) ) ;
#345 = EDGE_CURVE ( 'NONE', #453, #541, #502, .T. ) ;
#346 = CIRCLE ( 'NONE', #320, 5.999999999999998224 ) ;
#347 = ORIENTED_EDGE ( 'NONE', *, *, #498, .T. ) ;
#348 = DIRECTION ( 'NONE',  ( -1.000000000000000000, 0.000000000000000000, 0.000000000000000000 ) ) ;
#349 = DATE_AND_TIME ( #151, #257 ) ;
#350 = VERTEX_POINT ( 'NONE', #94 ) ;
#351 = CARTESIAN_POINT ( 'NONE',  ( -44.00000000000000711, -12.50000000000000000, 1000.000000000000000 ) ) ;
#352 = EDGE_CURVE ( 'NONE', #647, #295, #585, .T. ) ;
#353 = VERTEX_POINT ( 'NONE', #47 ) ;
#354 = DIRECTION ( 'NONE',  ( -1.000000000000000000, 0.000000000000000000, 0.000000000000000000 ) ) ;
#355 = LOCAL_TIME ( 16, 15, 28.00000000000000000, #535 ) ;
#356 = EDGE_CURVE ( 'NONE', #140, #600, #149, .T. ) ;
#357 = DIRECTION ( 'NONE',  ( -0.000000000000000000, -0.000000000000000000, -1.000000000000000000 ) ) ;
#358 = DIRECTION ( 'NONE',  ( -0.000000000000000000, -0.000000000000000000, -1.000000000000000000 ) ) ;
#359 = CIRCLE ( 'NONE', #387, 5.999999999999998224 ) ;
#360 = PLANE ( 'NONE',  #58 ) ;
#361 = CARTESIAN_POINT ( 'NONE',  ( -47.00000000000000000, -6.500000000000000888, 1000.000000000000000 ) ) ;
#362 = LINE ( 'NONE', #510, #487 ) ;
#363 = ORIENTED_EDGE ( 'NONE', *, *, #132, .T. ) ;
#364 = CARTESIAN_POINT ( 'NONE',  ( -50.00000000000000000, 6.500000000000000888, 1000.000000000000000 ) ) ;
#365 = EDGE_CURVE ( 'NONE', #255, #647, #37, .T. ) ;
#366 = EDGE_LOOP ( 'NONE', ( #338, #400, #633, #607 ) ) ;
#367 = VECTOR ( 'NONE', #625, 1000.000000000000000 ) ;
#368 = VERTEX_POINT ( 'NONE', #44 ) ;
#369 = LOCAL_TIME ( 16, 15, 28.00000000000000000, #332 ) ;
#370 = ORIENTED_EDGE ( 'NONE', *, *, #310, .T. ) ;
#371 = CARTESIAN_POINT ( 'NONE',  ( 49.99999999999999289, 6.500000000000000888, 1000.000000000000000 ) ) ;
#372 = EDGE_CURVE ( 'NONE', #124, #312, #302, .T. ) ;
#373 = CARTESIAN_POINT ( 'NONE',  ( -44.00000000000000711, 9.500000000000001776, 0.000000000000000000 ) ) ;
#374 = CIRCLE ( 'NONE', #157, 2.999999999999995559 ) ;
#375 = CARTESIAN_POINT ( 'NONE',  ( -50.00000000000000000, 6.500000000000000888, 0.000000000000000000 ) ) ;
#376 = ORIENTED_EDGE ( 'NONE', *, *, #168, .T. ) ;
#377 = DIRECTION ( 'NONE',  ( -0.000000000000000000, -0.000000000000000000, -1.000000000000000000 ) ) ;
#378 = PERSON_AND_ORGANIZATION_ROLE ( 'classification_officer' ) ;
#379 = CARTESIAN_POINT ( 'NONE',  ( 50.00000000000000000, -6.500000000000000888, 1000.000000000000000 ) ) ;
#380 = ORIENTED_EDGE ( 'NONE', *, *, #115, .F. ) ;
#381 = FACE_OUTER_BOUND ( 'NONE', #565, .T. ) ;
#382 = AXIS2_PLACEMENT_3D ( 'NONE', #82, #180, #199 ) ;
#383 = LINE ( 'NONE', #73, #16 ) ;
#384 = DATE_AND_TIME ( #123, #477 ) ;
#385 = VECTOR ( 'NONE', #122, 1000.000000000000000 ) ;
#386 = CARTESIAN_POINT ( 'NONE',  ( 44.00000000000000711, 12.49999999999999645, 1000.000000000000000 ) ) ;
#387 = AXIS2_PLACEMENT_3D ( 'NONE', #91, #549, #159 ) ;
#388 = ORIENTED_EDGE ( 'NONE', *, *, #139, .F. ) ;
#389 = LINE ( 'NONE', #589, #367 ) ;
#390 = PERSON_AND_ORGANIZATION ( #464, #102 ) ;
#391 = EDGE_CURVE ( 'NONE', #350, #353, #490, .T. ) ;
#392 = ORIENTED_EDGE ( 'NONE', *, *, #170, .T. ) ;
#393 = DIRECTION ( 'NONE',  ( -0.000000000000000000, -1.000000000000000000, -0.000000000000000000 ) ) ;
#394 = VECTOR ( 'NONE', #506, 1000.000000000000000 ) ;
#395 = DATE_AND_TIME ( #445, #316 ) ;
#396 = CC_DESIGN_DATE_AND_TIME_ASSIGNMENT ( #128, #529, ( #202 ) ) ;
#397 = VERTEX_POINT ( 'NONE', #243 ) ;
#398 = DIRECTION ( 'NONE',  ( -0.000000000000000000, -0.000000000000000000, -1.000000000000000000 ) ) ;
#399 = COORDINATED_UNIVERSAL_TIME_OFFSET ( 2, 0, .AHEAD. ) ;
#400 = ORIENTED_EDGE ( 'NONE', *, *, #421, .F. ) ;
#401 = PLANE ( 'NONE',  #554 ) ;
#402 = EDGE_CURVE ( 'NONE', #23, #433, #18, .T. ) ;
#403 = ORIENTED_EDGE ( 'NONE', *, *, #154, .F. ) ;
#404 = CARTESIAN_POINT ( 'NONE',  ( 44.00000000000000711, -6.500000000000000888, 1000.000000000000000 ) ) ;
#405 = MANIFOLD_SOLID_BREP ( 'Boss-Extrude1', #77 ) ;
#406 = EDGE_LOOP ( 'NONE', ( #166, #388, #171, #8 ) ) ;
#407 = CARTESIAN_POINT ( 'NONE',  ( -44.00000000000000711, 9.500000000000001776, 1000.000000000000000 ) ) ;
#408 = APPROVAL_PERSON_ORGANIZATION ( #137, #503, #491 ) ;
#409 = FACE_OUTER_BOUND ( 'NONE', #250, .T. ) ;
#410 = DIRECTION ( 'NONE',  ( -1.000000000000000000, -0.000000000000000000, -0.000000000000000000 ) ) ;
#411 = VECTOR ( 'NONE', #296, 1000.000000000000000 ) ;
#412 = EDGE_CURVE ( 'NONE', #275, #435, #447, .T. ) ;
#413 = CARTESIAN_POINT ( 'NONE',  ( -44.00000000000000711, -6.500000000000000888, 1000.000000000000000 ) ) ;
#414 = CYLINDRICAL_SURFACE ( 'NONE', #177, 5.999999999999998224 ) ;
#415 = DIRECTION ( 'NONE',  ( -1.000000000000000000, -0.000000000000000000, -0.000000000000000000 ) ) ;
#416 = ORIENTED_EDGE ( 'NONE', *, *, #234, .F. ) ;
#417 = EDGE_CURVE ( 'NONE', #397, #275, #192, .T. ) ;
#418 = ORIENTED_EDGE ( 'NONE', *, *, #310, .F. ) ;
#419 = AXIS2_PLACEMENT_3D ( 'NONE', #240, #4, #500 ) ;
#420 = AXIS2_PLACEMENT_3D ( 'NONE', #299, #398, #644 ) ;
#421 = EDGE_CURVE ( 'NONE', #397, #53, #596, .T. ) ;
#422 = VERTEX_POINT ( 'NONE', #652 ) ;
#423 = FACE_OUTER_BOUND ( 'NONE', #20, .T. ) ;
#424 = DIRECTION ( 'NONE',  ( -1.000000000000000000, -0.000000000000000000, -0.000000000000000000 ) ) ;
#425 = PRODUCT_DEFINITION_FORMATION_WITH_SPECIFIED_SOURCE ( 'ANY', '', #524, .NOT_KNOWN. ) ;
#426 = ORIENTED_EDGE ( 'NONE', *, *, #466, .T. ) ;
#427 = DIRECTION ( 'NONE',  ( 1.000000000000000000, 0.000000000000000000, 0.000000000000000000 ) ) ;
#428 = PRODUCT_DEFINITION_SHAPE ( 'NONE', 'NONE',  #33 ) ;
#429 = DIRECTION ( 'NONE',  ( -1.000000000000000000, 0.000000000000000000, 0.000000000000000000 ) ) ;
#430 = EDGE_LOOP ( 'NONE', ( #527, #317, #626, #119 ) ) ;
#431 = CARTESIAN_POINT ( 'NONE',  ( 44.00000000000000711, 12.49999999999999645, 1000.000000000000000 ) ) ;
#432 = ADVANCED_FACE ( 'NONE', ( #205 ), #401, .F. ) ;
#433 = VERTEX_POINT ( 'NONE', #125 ) ;
#434 = LINE ( 'NONE', #30, #219 ) ;
#435 = VERTEX_POINT ( 'NONE', #558 ) ;
#436 = DIRECTION ( 'NONE',  ( 0.000000000000000000, 0.000000000000000000, 1.000000000000000000 ) ) ;
#437 = ADVANCED_FACE ( 'NONE', ( #573 ), #326, .T. ) ;
#438 = AXIS2_PLACEMENT_3D ( 'NONE', #109, #613, #164 ) ;
#439 = MECHANICAL_CONTEXT ( 'NONE', #534, 'mechanical' ) ;
#440 = ORIENTED_EDGE ( 'NONE', *, *, #417, .F. ) ;
#441 = LINE ( 'NONE', #29, #51 ) ;
#442 = AXIS2_PLACEMENT_3D ( 'NONE', #344, #146, #251 ) ;
#443 = ORIENTED_EDGE ( 'NONE', *, *, #226, .F. ) ;
#444 = LINE ( 'NONE', #546, #610 ) ;
#445 = CALENDAR_DATE ( 2026, 16, 4 ) ;
#446 = ORIENTED_EDGE ( 'NONE', *, *, #530, .F. ) ;
#447 = LINE ( 'NONE', #648, #641 ) ;
#448 = VECTOR ( 'NONE', #5, 1000.000000000000000 ) ;
#449 = CARTESIAN_POINT ( 'NONE',  ( -50.00000000000000000, -6.500000000000000888, 1000.000000000000000 ) ) ;
#450 = VERTEX_POINT ( 'NONE', #507 ) ;
#451 = DIRECTION ( 'NONE',  ( -0.000000000000000000, -0.000000000000000000, -1.000000000000000000 ) ) ;
#452 = CIRCLE ( 'NONE', #190, 2.999999999999995559 ) ;
#453 = VERTEX_POINT ( 'NONE', #371 ) ;
#454 = CARTESIAN_POINT ( 'NONE',  ( -44.00000000000000711, 9.500000000000000000, 0.000000000000000000 ) ) ;
#455 = CARTESIAN_POINT ( 'NONE',  ( 44.00000000000000711, -9.499999999999998224, 0.000000000000000000 ) ) ;
#456 = FACE_OUTER_BOUND ( 'NONE', #325, .T. ) ;
#457 = VERTEX_POINT ( 'NONE', #375 ) ;
#458 = LINE ( 'NONE', #475, #630 ) ;
#459 = ADVANCED_FACE ( 'NONE', ( #272 ), #225, .F. ) ;
#460 = EDGE_LOOP ( 'NONE', ( #518, #293, #478, #288 ) ) ;
#461 = DIRECTION ( 'NONE',  ( -0.000000000000000000, -0.000000000000000000, -1.000000000000000000 ) ) ;
#462 = ADVANCED_FACE ( 'NONE', ( #423 ), #269, .F. ) ;
#463 = CARTESIAN_POINT ( 'NONE',  ( 44.00000000000000711, 12.49999999999999645, 0.000000000000000000 ) ) ;
#464 = PERSON ( 'UNSPECIFIED', 'UNSPECIFIED', 'UNSPECIFIED', ('UNSPECIFIED'), ('UNSPECIFIED'), ('UNSPECIFIED') ) ;
#465 = ORIENTED_EDGE ( 'NONE', *, *, #547, .F. ) ;
#466 = EDGE_CURVE ( 'NONE', #169, #263, #276, .T. ) ;
#467 = CARTESIAN_POINT ( 'NONE',  ( -44.00000000000000711, 12.50000000000000000, 1000.000000000000000 ) ) ;
#468 = AXIS2_PLACEMENT_3D ( 'NONE', #283, #279, #147 ) ;
#469 = ORIENTED_EDGE ( 'NONE', *, *, #254, .F. ) ;
#470 = VECTOR ( 'NONE', #10, 1000.000000000000000 ) ;
#471 = AXIS2_PLACEMENT_3D ( 'NONE', #592, #208, #348 ) ;
#472 = ORIENTED_EDGE ( 'NONE', *, *, #356, .T. ) ;
#473 = DIRECTION ( 'NONE',  ( 0.000000000000000000, -0.000000000000000000, -1.000000000000000000 ) ) ;
#474 = DIRECTION ( 'NONE',  ( -1.000000000000000000, 0.000000000000000000, 0.000000000000000000 ) ) ;
#475 = CARTESIAN_POINT ( 'NONE',  ( 47.00000000000000000, 6.500000000000000888, 1000.000000000000000 ) ) ;
#476 = CARTESIAN_POINT ( 'NONE',  ( -44.00000000000000711, -6.500000000000000888, 0.000000000000000000 ) ) ;
#477 = LOCAL_TIME ( 16, 15, 28.00000000000000000, #579 ) ;
#478 = ORIENTED_EDGE ( 'NONE', *, *, #402, .T. ) ;
#479 = DIRECTION ( 'NONE',  ( -1.000000000000000000, 0.000000000000000000, 0.000000000000000000 ) ) ;
#480 = EDGE_CURVE ( 'NONE', #53, #435, #609, .T. ) ;
#481 = DIRECTION ( 'NONE',  ( -1.000000000000000000, 0.000000000000000000, 0.000000000000000000 ) ) ;
#482 = CARTESIAN_POINT ( 'NONE',  ( -44.00000000000000711, -6.500000000000000888, 1000.000000000000000 ) ) ;
#483 = UNCERTAINTY_MEASURE_WITH_UNIT (LENGTH_MEASURE( 1.000000000000000082E-05 ), #92, 'distance_accuracy_value', 'NONE');
#484 = CARTESIAN_POINT ( 'NONE',  ( 44.00000000000000711, -12.50000000000000000, 1000.000000000000000 ) ) ;
#485 = APPROVAL_DATE_TIME ( #384, #516 ) ;
#486 = DIRECTION ( 'NONE',  ( -0.000000000000000000, -0.000000000000000000, -1.000000000000000000 ) ) ;
#487 = VECTOR ( 'NONE', #62, 1000.000000000000000 ) ;
#488 = DIRECTION ( 'NONE',  ( -1.000000000000000000, 0.000000000000000000, 0.000000000000000000 ) ) ;
#489 = ORIENTED_EDGE ( 'NONE', *, *, #95, .F. ) ;
#490 = LINE ( 'NONE', #198, #321 ) ;
#491 = APPROVAL_ROLE ( '' ) ;
#492 = APPROVAL_STATUS ( 'not_yet_approved' ) ;
#493 = CIRCLE ( 'NONE', #572, 2.999999999999995559 ) ;
#494 = ORIENTED_EDGE ( 'NONE', *, *, #412, .F. ) ;
#495 = DIRECTION ( 'NONE',  ( -0.000000000000000000, -1.000000000000000000, -0.000000000000000000 ) ) ;
#496 = ORIENTED_EDGE ( 'NONE', *, *, #188, .T. ) ;
#497 = CARTESIAN_POINT ( 'NONE',  ( 44.00000000000000711, 6.500000000000000888, 0.000000000000000000 ) ) ;
#498 = EDGE_CURVE ( 'NONE', #295, #72, #323, .T. ) ;
#499 = ORIENTED_EDGE ( 'NONE', *, *, #335, .F. ) ;
#500 = DIRECTION ( 'NONE',  ( 0.000000000000000000, 0.000000000000000000, -1.000000000000000000 ) ) ;
#501 = VECTOR ( 'NONE', #415, 1000.000000000000000 ) ;
#502 = CIRCLE ( 'NONE', #442, 5.999999999999998224 ) ;
#503 = APPROVAL ( #329, 'UNSPECIFIED' ) ;
#504 = ORIENTED_EDGE ( 'NONE', *, *, #41, .T. ) ;
#505 = CARTESIAN_POINT ( 'NONE',  ( -44.00000000000000711, -12.50000000000000000, 1000.000000000000000 ) ) ;
#506 = DIRECTION ( 'NONE',  ( -0.000000000000000000, -1.000000000000000000, -0.000000000000000000 ) ) ;
#507 = CARTESIAN_POINT ( 'NONE',  ( 49.99999999999999289, 6.500000000000000888, 0.000000000000000000 ) ) ;
#508 = ORIENTED_EDGE ( 'NONE', *, *, #628, .F. ) ;
#509 = FACE_OUTER_BOUND ( 'NONE', #406, .T. ) ;
#510 = CARTESIAN_POINT ( 'NONE',  ( 47.00000000000000000, -6.500000000000000888, 1000.000000000000000 ) ) ;
#511 = ADVANCED_FACE ( 'NONE', ( #509 ), #28, .T. ) ;
#512 = EDGE_LOOP ( 'NONE', ( #155, #446, #270, #489, #440, #27, #499, #133 ) ) ;
#513 = AXIS2_PLACEMENT_3D ( 'NONE', #308, #358, #215 ) ;
#514 = EDGE_CURVE ( 'NONE', #23, #555, #458, .T. ) ;
#515 = ORIENTED_EDGE ( 'NONE', *, *, #605, .T. ) ;
#516 = APPROVAL ( #337, 'UNSPECIFIED' ) ;
#517 = AXIS2_PLACEMENT_3D ( 'NONE', #482, #244, #89 ) ;
#518 = ORIENTED_EDGE ( 'NONE', *, *, #587, .F. ) ;
#519 = FACE_OUTER_BOUND ( 'NONE', #183, .T. ) ;
#520 = ORIENTED_EDGE ( 'NONE', *, *, #345, .T. ) ;
#521 = VECTOR ( 'NONE', #495, 1000.000000000000000 ) ;
#522 = DIRECTION ( 'NONE',  ( -0.000000000000000000, -0.000000000000000000, -1.000000000000000000 ) ) ;
#523 = CARTESIAN_POINT ( 'NONE',  ( -44.00000000000000711, 12.50000000000000000, 1000.000000000000000 ) ) ;
#524 = PRODUCT ( 'Rectangle - 100.0 X 25.0 X 3.00', 'Rectangle - 100.0 X 25.0 X 3.00', '', ( #439 ) ) ;
#525 = ORIENTED_EDGE ( 'NONE', *, *, #274, .F. ) ;
#526 = DIRECTION ( 'NONE',  ( -1.000000000000000000, 0.000000000000000000, 0.000000000000000000 ) ) ;
#527 = ORIENTED_EDGE ( 'NONE', *, *, #597, .T. ) ;
#528 = DIRECTION ( 'NONE',  ( 0.000000000000000000, 0.000000000000000000, 1.000000000000000000 ) ) ;
#529 = DATE_TIME_ROLE ( 'classification_date' ) ;
#530 = EDGE_CURVE ( 'NONE', #433, #124, #165, .T. ) ;
#531 = DIRECTION ( 'NONE',  ( 0.000000000000000000, 0.000000000000000000, 1.000000000000000000 ) ) ;
#532 = VECTOR ( 'NONE', #331, 1000.000000000000000 ) ;
#533 = PLANE ( 'NONE',  #618 ) ;
#534 = APPLICATION_CONTEXT ( 'configuration controlled 3d designs of mechanical parts and assemblies' ) ;
#535 = COORDINATED_UNIVERSAL_TIME_OFFSET ( 2, 0, .AHEAD. ) ;
#536 = DIRECTION ( 'NONE',  ( -5.337610695313252371E-16, 1.000000000000000000, 0.000000000000000000 ) ) ;
#537 = CARTESIAN_POINT ( 'NONE',  ( 50.00000000000000000, -6.500000000000000888, 1000.000000000000000 ) ) ;
#538 = PERSON_AND_ORGANIZATION ( #464, #102 ) ;
#539 = ORIENTED_EDGE ( 'NONE', *, *, #127, .T. ) ;
#540 = CARTESIAN_POINT ( 'NONE',  ( -50.00000000000000000, -6.500000000000000888, 1000.000000000000000 ) ) ;
#541 = VERTEX_POINT ( 'NONE', #431 ) ;
#542 = DIRECTION ( 'NONE',  ( 0.000000000000000000, 0.000000000000000000, 1.000000000000000000 ) ) ;
#543 = LINE ( 'NONE', #386, #111 ) ;
#544 = AXIS2_PLACEMENT_3D ( 'NONE', #57, #256, #110 ) ;
#545 = EDGE_LOOP ( 'NONE', ( #443, #621, #416, #469, #301, #639, #418, #588 ) ) ;
#546 = CARTESIAN_POINT ( 'NONE',  ( -44.00000000000000711, -9.500000000000001776, 1000.000000000000000 ) ) ;
#547 = EDGE_CURVE ( 'NONE', #140, #236, #346, .T. ) ;
#548 = ORIENTED_EDGE ( 'NONE', *, *, #550, .F. ) ;
#549 = DIRECTION ( 'NONE',  ( 0.000000000000000000, 0.000000000000000000, 1.000000000000000000 ) ) ;
#550 = EDGE_CURVE ( 'NONE', #255, #457, #624, .T. ) ;
#551 = VERTEX_POINT ( 'NONE', #627 ) ;
#552 = DIRECTION ( 'NONE',  ( 1.000000000000000000, 0.000000000000000000, 0.000000000000000000 ) ) ;
#553 = AXIS2_PLACEMENT_3D ( 'NONE', #523, #324, #233 ) ;
#554 = AXIS2_PLACEMENT_3D ( 'NONE', #351, #101, #50 ) ;
#555 = VERTEX_POINT ( 'NONE', #6 ) ;
#556 = CARTESIAN_POINT ( 'NONE',  ( -50.00000000000000000, -6.500000000000000888, 0.000000000000000000 ) ) ;
#557 = CYLINDRICAL_SURFACE ( 'NONE', #438, 2.999999999999995559 ) ;
#558 = CARTESIAN_POINT ( 'NONE',  ( 47.00000000000000000, -6.500000000000000888, 0.000000000000000000 ) ) ;
#559 = ORIENTED_EDGE ( 'NONE', *, *, #48, .T. ) ;
#560 = CARTESIAN_POINT ( 'NONE',  ( -44.00000000000000711, 9.500000000000001776, 1000.000000000000000 ) ) ;
#561 = VECTOR ( 'NONE', #224, 1000.000000000000000 ) ;
#562 = DIRECTION ( 'NONE',  ( 1.000000000000000000, 0.000000000000000000, 0.000000000000000000 ) ) ;
#563 = EDGE_CURVE ( 'NONE', #236, #145, #212, .T. ) ;
#564 = VERTEX_POINT ( 'NONE', #556 ) ;
#565 = EDGE_LOOP ( 'NONE', ( #380, #403, #643, #90 ) ) ;
#566 = ORIENTED_EDGE ( 'NONE', *, *, #563, .F. ) ;
#567 = CC_DESIGN_SECURITY_CLASSIFICATION ( #202, ( #425 ) ) ;
#568 = ORIENTED_EDGE ( 'NONE', *, *, #178, .T. ) ;
#569 = CARTESIAN_POINT ( 'NONE',  ( -44.00000000000000711, -6.500000000000000888, 1000.000000000000000 ) ) ;
#570 = ADVANCED_FACE ( 'NONE', ( #162 ), #414, .T. ) ;
#571 = DIRECTION ( 'NONE',  ( -1.000000000000000000, 0.000000000000000000, 0.000000000000000000 ) ) ;
#572 = AXIS2_PLACEMENT_3D ( 'NONE', #138, #531, #35 ) ;
#573 = FACE_OUTER_BOUND ( 'NONE', #595, .T. ) ;
#574 = LINE ( 'NONE', #22, #561 ) ;
#575 = EDGE_CURVE ( 'NONE', #246, #353, #108, .T. ) ;
#576 = CALENDAR_DATE ( 2026, 16, 4 ) ;
#577 = ORIENTED_EDGE ( 'NONE', *, *, #178, .F. ) ;
#578 = CARTESIAN_POINT ( 'NONE',  ( -44.00000000000000711, 6.500000000000000888, 1000.000000000000000 ) ) ;
#579 = COORDINATED_UNIVERSAL_TIME_OFFSET ( 2, 0, .AHEAD. ) ;
#580 = ADVANCED_FACE ( 'NONE', ( #519 ), #70, .T. ) ;
#581 = ORIENTED_EDGE ( 'NONE', *, *, #335, .T. ) ;
#582 = AXIS2_PLACEMENT_3D ( 'NONE', #578, #281, #571 ) ;
#583 = LINE ( 'NONE', #187, #167 ) ;
#584 = SECURITY_CLASSIFICATION_LEVEL ( 'unclassified' ) ;
#585 = CIRCLE ( 'NONE', #303, 5.999999999999998224 ) ;
#586 =( NAMED_UNIT ( * ) SI_UNIT ( $, .STERADIAN. ) SOLID_ANGLE_UNIT ( ) );
#587 = EDGE_CURVE ( 'NONE', #555, #368, #493, .T. ) ;
#588 = ORIENTED_EDGE ( 'NONE', *, *, #249, .F. ) ;
#589 = CARTESIAN_POINT ( 'NONE',  ( 47.00000000000000000, -6.500000000000000888, 0.000000000000000000 ) ) ;
#590 = APPLICATION_PROTOCOL_DEFINITION ( 'international standard', 'config_control_design', 1994, #174 ) ;
#591 = ORIENTED_EDGE ( 'NONE', *, *, #245, .T. ) ;
#592 = CARTESIAN_POINT ( 'NONE',  ( 44.00000000000000711, 6.500000000000000888, 1000.000000000000000 ) ) ;
#593 = PLANE ( 'NONE',  #468 ) ;
#594 =( GEOMETRIC_REPRESENTATION_CONTEXT ( 3 ) GLOBAL_UNCERTAINTY_ASSIGNED_CONTEXT ( ( #483 ) ) GLOBAL_UNIT_ASSIGNED_CONTEXT ( ( #92, #195, #586 ) ) REPRESENTATION_CONTEXT ( 'NONE', 'WORKASPACE' ) );
#595 = EDGE_LOOP ( 'NONE', ( #81, #548, #209, #426 ) ) ;
#596 = LINE ( 'NONE', #99, #411 ) ;
#597 = EDGE_CURVE ( 'NONE', #145, #450, #232, .T. ) ;
#598 = PERSON_AND_ORGANIZATION_ROLE ( 'creator' ) ;
#599 = VECTOR ( 'NONE', #461, 1000.000000000000000 ) ;
#600 = VERTEX_POINT ( 'NONE', #334 ) ;
#601 = CARTESIAN_POINT ( 'NONE',  ( -44.00000000000000711, -6.500000000000000888, 1000.000000000000000 ) ) ;
#602 = CC_DESIGN_PERSON_AND_ORGANIZATION_ASSIGNMENT ( #231, #131, ( #425 ) ) ;
#603 = ORIENTED_EDGE ( 'NONE', *, *, #587, .T. ) ;
#604 = DIRECTION ( 'NONE',  ( 0.000000000000000000, 0.000000000000000000, 1.000000000000000000 ) ) ;
#605 = EDGE_CURVE ( 'NONE', #124, #422, #374, .T. ) ;
#606 = AXIS2_PLACEMENT_3D ( 'NONE', #129, #184, #638 ) ;
#607 = ORIENTED_EDGE ( 'NONE', *, *, #412, .T. ) ;
#608 = DIRECTION ( 'NONE',  ( -1.000000000000000000, 0.000000000000000000, 0.000000000000000000 ) ) ;
#609 = CIRCLE ( 'NONE', #544, 2.999999999999995559 ) ;
#610 = VECTOR ( 'NONE', #552, 1000.000000000000000 ) ;
#611 = DIRECTION ( 'NONE',  ( -1.000000000000000000, 0.000000000000000000, 0.000000000000000000 ) ) ;
#612 = CARTESIAN_POINT ( 'NONE',  ( 50.00000000000000000, -6.500000000000000888, 1000.000000000000000 ) ) ;
#613 = DIRECTION ( 'NONE',  ( -0.000000000000000000, -0.000000000000000000, -1.000000000000000000 ) ) ;
#614 = CARTESIAN_POINT ( 'NONE',  ( -44.00000000000000711, 12.50000000000000000, 1000.000000000000000 ) ) ;
#615 = LINE ( 'NONE', #373, #385 ) ;
#616 = PLANE ( 'NONE',  #142 ) ;
#617 = ADVANCED_FACE ( 'NONE', ( #45, #642 ), #87, .F. ) ;
#618 = AXIS2_PLACEMENT_3D ( 'NONE', #476, #141, #481 ) ;
#619 = EDGE_LOOP ( 'NONE', ( #103, #496, #152, #43, #520, #539, #392, #100 ) ) ;
#620 = ORIENTED_EDGE ( 'NONE', *, *, #628, .T. ) ;
#621 = ORIENTED_EDGE ( 'NONE', *, *, #48, .F. ) ;
#622 = AXIS2_PLACEMENT_3D ( 'NONE', #413, #357, #112 ) ;
#623 = ORIENTED_EDGE ( 'NONE', *, *, #245, .F. ) ;
#624 = LINE ( 'NONE', #364, #599 ) ;
#625 = DIRECTION ( 'NONE',  ( 0.000000000000000000, 1.000000000000000000, 0.000000000000000000 ) ) ;
#626 = ORIENTED_EDGE ( 'NONE', *, *, #265, .F. ) ;
#627 = CARTESIAN_POINT ( 'NONE',  ( -44.00000000000000711, -9.500000000000001776, 1000.000000000000000 ) ) ;
#628 = EDGE_CURVE ( 'NONE', #541, #69, #543, .T. ) ;
#629 = DIRECTION ( 'NONE',  ( -5.337610695313252371E-16, 1.000000000000000000, 0.000000000000000000 ) ) ;
#630 = VECTOR ( 'NONE', #305, 1000.000000000000000 ) ;
#631 = DIRECTION ( 'NONE',  ( -0.000000000000000000, -0.000000000000000000, -1.000000000000000000 ) ) ;
#632 = LINE ( 'NONE', #32, #532 ) ;
#633 = ORIENTED_EDGE ( 'NONE', *, *, #417, .T. ) ;
#634 = APPLICATION_PROTOCOL_DEFINITION ( 'international standard', 'config_control_design', 1994, #534 ) ;
#635 = ORIENTED_EDGE ( 'NONE', *, *, #249, .T. ) ;
#636 = PLANE ( 'NONE',  #553 ) ;
#637 = CC_DESIGN_PERSON_AND_ORGANIZATION_ASSIGNMENT ( #203, #598, ( #33 ) ) ;
#638 = DIRECTION ( 'NONE',  ( 1.000000000000000000, 0.000000000000000000, 0.000000000000000000 ) ) ;
#639 = ORIENTED_EDGE ( 'NONE', *, *, #597, .F. ) ;
#640 = CARTESIAN_POINT ( 'NONE',  ( -50.00000000000000000, 6.500000000000000888, 1000.000000000000000 ) ) ;
#641 = VECTOR ( 'NONE', #451, 1000.000000000000000 ) ;
#642 = FACE_BOUND ( 'NONE', #512, .T. ) ;
#643 = ORIENTED_EDGE ( 'NONE', *, *, #284, .T. ) ;
#644 = DIRECTION ( 'NONE',  ( -1.000000000000000000, 0.000000000000000000, 0.000000000000000000 ) ) ;
#645 = DIRECTION ( 'NONE',  ( -1.000000000000000000, 0.000000000000000000, 0.000000000000000000 ) ) ;
#646 = ADVANCED_FACE ( 'NONE', ( #381 ), #235, .T. ) ;
#647 = VERTEX_POINT ( 'NONE', #449 ) ;
#648 = CARTESIAN_POINT ( 'NONE',  ( 47.00000000000000000, -6.500000000000000888, 1000.000000000000000 ) ) ;
#649 = APPROVAL_DATE_TIME ( #395, #74 ) ;
#650 = ADVANCED_FACE ( 'NONE', ( #291 ), #593, .F. ) ;
#651 = ORIENTED_EDGE ( 'NONE', *, *, #391, .F. ) ;
#652 = CARTESIAN_POINT ( 'NONE',  ( -47.00000000000000000, 6.500000000000000000, 1000.000000000000000 ) ) ;
#653 = AXIS2_PLACEMENT_3D ( 'NONE', #339, #136, #336 ) ;
ENDSEC;
END-ISO-10303-21;
