ISO-10303-21;
HEADER;
FILE_DESCRIPTION (( 'STEP AP203' ),
    '1' );
FILE_NAME ('Rectangle - 80.0 X 60.0 X 1.60.step',
    '2026-04-16T15:17:41',
    ( '' ),
    ( '' ),
    'SwSTEP 2.0',
    'SolidWorks 2023',
    '' );
FILE_SCHEMA (( 'CONFIG_CONTROL_DESIGN' ));
ENDSEC;

DATA;
#1 = CARTESIAN_POINT ( 'NONE',  ( 36.79999999999998295, 28.40000000000000213, 1000.000000000000000 ) ) ;
#2 = DIRECTION ( 'NONE',  ( -0.000000000000000000, -0.000000000000000000, -1.000000000000000000 ) ) ;
#3 = VECTOR ( 'NONE', #441, 1000.000000000000000 ) ;
#4 = DIRECTION ( 'NONE',  ( -0.000000000000000000, -0.000000000000000000, -1.000000000000000000 ) ) ;
#5 = DIRECTION ( 'NONE',  ( 1.000000000000000000, 0.000000000000000000, 0.000000000000000000 ) ) ;
#6 = DIRECTION ( 'NONE',  ( -1.000000000000000000, 0.000000000000000000, 0.000000000000000000 ) ) ;
#7 = DIRECTION ( 'NONE',  ( 1.000000000000000000, 0.000000000000000000, 0.000000000000000000 ) ) ;
#8 = CARTESIAN_POINT ( 'NONE',  ( 39.99999999999998579, 26.79999999999999716, 1000.000000000000000 ) ) ;
#9 = CARTESIAN_POINT ( 'NONE',  ( -40.00000000000001421, -26.79999999999999716, 1000.000000000000000 ) ) ;
#10 = LOCAL_TIME ( 17, 17, 41.00000000000000000, #274 ) ;
#11 = DIRECTION ( 'NONE',  ( -0.000000000000000000, -0.000000000000000000, -1.000000000000000000 ) ) ;
#12 = EDGE_CURVE ( 'NONE', #363, #18, #371, .T. ) ;
#13 = CARTESIAN_POINT ( 'NONE',  ( -36.80000000000001137, 30.00000000000000000, 0.000000000000000000 ) ) ;
#14 = EDGE_CURVE ( 'NONE', #251, #146, #101, .T. ) ;
#15 = DIRECTION ( 'NONE',  ( -0.000000000000000000, -1.000000000000000000, -0.000000000000000000 ) ) ;
#16 = APPROVAL ( #429, 'UNSPECIFIED' ) ;
#17 = PERSON_AND_ORGANIZATION_ROLE ( 'creator' ) ;
#18 = VERTEX_POINT ( 'NONE', #1 ) ;
#19 = CIRCLE ( 'NONE', #490, 3.200000000000001510 ) ;
#20 = CARTESIAN_POINT ( 'NONE',  ( -38.40000000000001279, -26.79999999999999716, 0.000000000000000000 ) ) ;
#21 = ORIENTED_EDGE ( 'NONE', *, *, #163, .T. ) ;
#22 = AXIS2_PLACEMENT_3D ( 'NONE', #355, #5, #305 ) ;
#23 = AXIS2_PLACEMENT_3D ( 'NONE', #381, #588, #314 ) ;
#24 = FACE_OUTER_BOUND ( 'NONE', #378, .T. ) ;
#25 = ORIENTED_EDGE ( 'NONE', *, *, #151, .T. ) ;
#26 = DIRECTION ( 'NONE',  ( -0.000000000000000000, -0.000000000000000000, -1.000000000000000000 ) ) ;
#27 = PERSON_AND_ORGANIZATION_ROLE ( 'creator' ) ;
#28 = LINE ( 'NONE', #244, #3 ) ;
#29 = ORIENTED_EDGE ( 'NONE', *, *, #580, .T. ) ;
#30 = EDGE_CURVE ( 'NONE', #31, #133, #144, .T. ) ;
#31 = VERTEX_POINT ( 'NONE', #250 ) ;
#32 = DIRECTION ( 'NONE',  ( -0.000000000000000000, -0.000000000000000000, -1.000000000000000000 ) ) ;
#33 = APPROVAL_DATE_TIME ( #522, #526 ) ;
#34 = EDGE_CURVE ( 'NONE', #251, #350, #104, .T. ) ;
#35 = ORIENTED_EDGE ( 'NONE', *, *, #266, .T. ) ;
#36 = AXIS2_PLACEMENT_3D ( 'NONE', #199, #464, #349 ) ;
#37 = FACE_OUTER_BOUND ( 'NONE', #547, .T. ) ;
#38 = ADVANCED_FACE ( 'NONE', ( #91 ), #504, .F. ) ;
#39 = ORIENTED_EDGE ( 'NONE', *, *, #457, .T. ) ;
#40 = ORIENTED_EDGE ( 'NONE', *, *, #34, .T. ) ;
#41 = FACE_OUTER_BOUND ( 'NONE', #134, .T. ) ;
#42 = ORIENTED_EDGE ( 'NONE', *, *, #279, .T. ) ;
#43 = DIRECTION ( 'NONE',  ( -1.000000000000000000, 0.000000000000000000, 0.000000000000000000 ) ) ;
#44 = DIRECTION ( 'NONE',  ( 0.000000000000000000, 1.000000000000000000, 0.000000000000000000 ) ) ;
#45 = LINE ( 'NONE', #289, #500 ) ;
#46 = CARTESIAN_POINT ( 'NONE',  ( 39.99999999999998579, -26.79999999999999716, 1000.000000000000000 ) ) ;
#47 = DIRECTION ( 'NONE',  ( 0.000000000000000000, 0.000000000000000000, 1.000000000000000000 ) ) ;
#48 = EDGE_LOOP ( 'NONE', ( #333, #148, #359, #291, #358, #609, #239, #635 ) ) ;
#49 = ORIENTED_EDGE ( 'NONE', *, *, #319, .T. ) ;
#50 = CARTESIAN_POINT ( 'NONE',  ( -38.40000000000001279, -26.79999999999999716, 1000.000000000000000 ) ) ;
#51 = LINE ( 'NONE', #408, #459 ) ;
#52 = CARTESIAN_POINT ( 'NONE',  ( -36.80000000000001137, -28.39999999999999858, 1000.000000000000000 ) ) ;
#53 = EDGE_CURVE ( 'NONE', #453, #492, #45, .T. ) ;
#54 = VECTOR ( 'NONE', #15, 1000.000000000000000 ) ;
#55 = ORIENTED_EDGE ( 'NONE', *, *, #201, .F. ) ;
#56 = AXIS2_PLACEMENT_3D ( 'NONE', #615, #610, #412 ) ;
#57 = DIRECTION ( 'NONE',  ( 0.000000000000000000, 0.000000000000000000, 1.000000000000000000 ) ) ;
#58 = AXIS2_PLACEMENT_3D ( 'NONE', #174, #431, #623 ) ;
#59 = FACE_OUTER_BOUND ( 'NONE', #160, .T. ) ;
#60 = VERTEX_POINT ( 'NONE', #198 ) ;
#61 = CARTESIAN_POINT ( 'NONE',  ( -36.80000000000001137, -26.79999999999999716, 1000.000000000000000 ) ) ;
#62 = CARTESIAN_POINT ( 'NONE',  ( 36.79999999999998295, -30.00000000000000000, 0.000000000000000000 ) ) ;
#63 = LINE ( 'NONE', #215, #254 ) ;
#64 = DIRECTION ( 'NONE',  ( 1.000000000000000000, 0.000000000000000000, 0.000000000000000000 ) ) ;
#65 = CARTESIAN_POINT ( 'NONE',  ( -40.00000000000001421, -26.79999999999999716, 0.000000000000000000 ) ) ;
#66 = EDGE_CURVE ( 'NONE', #326, #225, #449, .T. ) ;
#67 = LOCAL_TIME ( 17, 17, 41.00000000000000000, #124 ) ;
#68 = AXIS2_PLACEMENT_3D ( 'NONE', #116, #467, #561 ) ;
#69 = DIRECTION ( 'NONE',  ( 0.000000000000000000, 1.000000000000000000, 0.000000000000000000 ) ) ;
#70 = AXIS2_PLACEMENT_3D ( 'NONE', #278, #484, #84 ) ;
#71 = SECURITY_CLASSIFICATION_LEVEL ( 'unclassified' ) ;
#72 = EDGE_CURVE ( 'NONE', #363, #73, #63, .T. ) ;
#73 = VERTEX_POINT ( 'NONE', #357 ) ;
#74 = APPLICATION_CONTEXT ( 'configuration controlled 3d designs of mechanical parts and assemblies' ) ;
#75 = MECHANICAL_CONTEXT ( 'NONE', #74, 'mechanical' ) ;
#76 =( GEOMETRIC_REPRESENTATION_CONTEXT ( 3 ) GLOBAL_UNCERTAINTY_ASSIGNED_CONTEXT ( ( #145 ) ) GLOBAL_UNIT_ASSIGNED_CONTEXT ( ( #417, #318, #503 ) ) REPRESENTATION_CONTEXT ( 'NONE', 'WORKASPACE' ) );
#77 = CARTESIAN_POINT ( 'NONE',  ( 36.79999999999998295, 28.39999999999999858, 0.000000000000000000 ) ) ;
#78 = CIRCLE ( 'NONE', #58, 1.599999999999997202 ) ;
#79 = PLANE ( 'NONE',  #70 ) ;
#80 = DIRECTION ( 'NONE',  ( 0.000000000000000000, 0.000000000000000000, 1.000000000000000000 ) ) ;
#81 = ADVANCED_FACE ( 'NONE', ( #463, #366 ), #263, .F. ) ;
#82 = CARTESIAN_POINT ( 'NONE',  ( -36.80000000000001137, -30.00000000000000000, 0.000000000000000000 ) ) ;
#83 = ORIENTED_EDGE ( 'NONE', *, *, #299, .F. ) ;
#84 = DIRECTION ( 'NONE',  ( 0.000000000000000000, -0.000000000000000000, -1.000000000000000000 ) ) ;
#85 = APPLICATION_PROTOCOL_DEFINITION ( 'international standard', 'config_control_design', 1994, #74 ) ;
#86 = DIRECTION ( 'NONE',  ( 0.000000000000000000, 0.000000000000000000, 1.000000000000000000 ) ) ;
#87 = ORIENTED_EDGE ( 'NONE', *, *, #227, .T. ) ;
#88 = EDGE_CURVE ( 'NONE', #192, #251, #597, .T. ) ;
#89 = VERTEX_POINT ( 'NONE', #8 ) ;
#90 = VECTOR ( 'NONE', #190, 1000.000000000000000 ) ;
#91 = FACE_OUTER_BOUND ( 'NONE', #540, .T. ) ;
#92 = FACE_OUTER_BOUND ( 'NONE', #229, .T. ) ;
#93 = DIRECTION ( 'NONE',  ( -1.000000000000000000, 0.000000000000000000, 0.000000000000000000 ) ) ;
#94 = DIRECTION ( 'NONE',  ( 1.000000000000000000, 0.000000000000000000, 0.000000000000000000 ) ) ;
#95 = EDGE_CURVE ( 'NONE', #543, #625, #209, .T. ) ;
#96 = DIRECTION ( 'NONE',  ( 0.000000000000000000, 0.000000000000000000, 1.000000000000000000 ) ) ;
#97 = VERTEX_POINT ( 'NONE', #211 ) ;
#98 = DIRECTION ( 'NONE',  ( -1.000000000000000000, 0.000000000000000000, 0.000000000000000000 ) ) ;
#99 = ORIENTED_EDGE ( 'NONE', *, *, #14, .T. ) ;
#100 = CARTESIAN_POINT ( 'NONE',  ( -36.80000000000001137, -30.00000000000000000, 1000.000000000000000 ) ) ;
#101 = LINE ( 'NONE', #456, #185 ) ;
#102 = ORIENTED_EDGE ( 'NONE', *, *, #66, .F. ) ;
#103 = CYLINDRICAL_SURFACE ( 'NONE', #606, 3.200000000000001510 ) ;
#104 = LINE ( 'NONE', #52, #265 ) ;
#105 = CARTESIAN_POINT ( 'NONE',  ( -36.80000000000001137, -26.79999999999999716, 1000.000000000000000 ) ) ;
#106 = LINE ( 'NONE', #568, #531 ) ;
#107 = ADVANCED_FACE ( 'NONE', ( #361 ), #612, .T. ) ;
#108 = CARTESIAN_POINT ( 'NONE',  ( -36.80000000000001137, 28.39999999999999858, 1000.000000000000000 ) ) ;
#109 = ORIENTED_EDGE ( 'NONE', *, *, #415, .T. ) ;
#110 = EDGE_CURVE ( 'NONE', #207, #491, #264, .T. ) ;
#111 = CIRCLE ( 'NONE', #330, 3.200000000000001510 ) ;
#112 = CIRCLE ( 'NONE', #222, 1.600000000000004086 ) ;
#113 = DIRECTION ( 'NONE',  ( -0.000000000000000000, -0.000000000000000000, -1.000000000000000000 ) ) ;
#114 = AXIS2_PLACEMENT_3D ( 'NONE', #241, #443, #433 ) ;
#115 = CARTESIAN_POINT ( 'NONE',  ( -36.80000000000001137, 30.00000000000000000, 0.000000000000000000 ) ) ;
#116 = CARTESIAN_POINT ( 'NONE',  ( -36.80000000000001137, -26.79999999999999716, 1000.000000000000000 ) ) ;
#117 = CARTESIAN_POINT ( 'NONE',  ( -38.40000000000001990, 26.79999999999999716, 1000.000000000000000 ) ) ;
#118 = EDGE_CURVE ( 'NONE', #434, #73, #106, .T. ) ;
#119 = CC_DESIGN_PERSON_AND_ORGANIZATION_ASSIGNMENT ( #475, #321, ( #341 ) ) ;
#120 = VECTOR ( 'NONE', #172, 1000.000000000000000 ) ;
#121 = ORIENTED_EDGE ( 'NONE', *, *, #308, .F. ) ;
#122 = CIRCLE ( 'NONE', #311, 3.200000000000001510 ) ;
#123 = DIRECTION ( 'NONE',  ( -0.000000000000000000, -0.000000000000000000, -1.000000000000000000 ) ) ;
#124 = COORDINATED_UNIVERSAL_TIME_OFFSET ( 2, 0, .AHEAD. ) ;
#125 = FACE_OUTER_BOUND ( 'NONE', #539, .T. ) ;
#126 = ADVANCED_FACE ( 'NONE', ( #306, #409 ), #517, .T. ) ;
#127 = CARTESIAN_POINT ( 'NONE',  ( 38.39999999999999147, -26.79999999999999716, 1000.000000000000000 ) ) ;
#128 = SECURITY_CLASSIFICATION ( '', '', #71 ) ;
#129 = CARTESIAN_POINT ( 'NONE',  ( -36.80000000000001137, 26.79999999999999716, 0.000000000000000000 ) ) ;
#130 = EDGE_CURVE ( 'NONE', #89, #242, #513, .T. ) ;
#131 = LINE ( 'NONE', #479, #169 ) ;
#132 = COORDINATED_UNIVERSAL_TIME_OFFSET ( 2, 0, .AHEAD. ) ;
#133 = VERTEX_POINT ( 'NONE', #313 ) ;
#134 = EDGE_LOOP ( 'NONE', ( #570, #483, #385, #599 ) ) ;
#135 = EDGE_CURVE ( 'NONE', #391, #543, #19, .T. ) ;
#136 = ORIENTED_EDGE ( 'NONE', *, *, #646, .F. ) ;
#137 = ORIENTED_EDGE ( 'NONE', *, *, #53, .F. ) ;
#138 = PLANE ( 'NONE',  #114 ) ;
#139 = ORIENTED_EDGE ( 'NONE', *, *, #554, .T. ) ;
#140 = AXIS2_PLACEMENT_3D ( 'NONE', #187, #80, #223 ) ;
#141 = LINE ( 'NONE', #307, #402 ) ;
#142 = AXIS2_PLACEMENT_3D ( 'NONE', #445, #397, #650 ) ;
#143 = CARTESIAN_POINT ( 'NONE',  ( 36.79999999999998295, 26.79999999999999716, 1000.000000000000000 ) ) ;
#144 = LINE ( 'NONE', #342, #167 ) ;
#145 = UNCERTAINTY_MEASURE_WITH_UNIT (LENGTH_MEASURE( 1.000000000000000082E-05 ), #417, 'distance_accuracy_value', 'NONE');
#146 = VERTEX_POINT ( 'NONE', #156 ) ;
#147 = DIRECTION ( 'NONE',  ( -0.000000000000000000, -0.000000000000000000, -1.000000000000000000 ) ) ;
#148 = ORIENTED_EDGE ( 'NONE', *, *, #157, .F. ) ;
#149 = PLANE ( 'NONE',  #508 ) ;
#150 = ORIENTED_EDGE ( 'NONE', *, *, #465, .F. ) ;
#151 = EDGE_CURVE ( 'NONE', #350, #97, #495, .T. ) ;
#152 = CARTESIAN_POINT ( 'NONE',  ( -36.80000000000001137, -26.79999999999999716, 1000.000000000000000 ) ) ;
#153 = LINE ( 'NONE', #455, #645 ) ;
#154 = CARTESIAN_POINT ( 'NONE',  ( 36.79999999999998295, 26.79999999999999716, 1000.000000000000000 ) ) ;
#155 = EDGE_LOOP ( 'NONE', ( #446, #150, #581, #240 ) ) ;
#156 = CARTESIAN_POINT ( 'NONE',  ( 36.79999999999998295, -28.40000000000000213, 1000.000000000000000 ) ) ;
#157 = EDGE_CURVE ( 'NONE', #300, #207, #345, .T. ) ;
#158 = DIRECTION ( 'NONE',  ( 0.000000000000000000, 0.000000000000000000, 1.000000000000000000 ) ) ;
#159 = ORIENTED_EDGE ( 'NONE', *, *, #406, .T. ) ;
#160 = EDGE_LOOP ( 'NONE', ( #304, #102, #379, #493 ) ) ;
#161 = CARTESIAN_POINT ( 'NONE',  ( -36.80000000000001137, 26.79999999999999716, 0.000000000000000000 ) ) ;
#162 = DIRECTION ( 'NONE',  ( 1.000000000000000000, 0.000000000000000000, 0.000000000000000000 ) ) ;
#163 = EDGE_CURVE ( 'NONE', #73, #453, #78, .T. ) ;
#164 = CARTESIAN_POINT ( 'NONE',  ( -36.80000000000001137, 26.79999999999999716, 1000.000000000000000 ) ) ;
#165 = LOCAL_TIME ( 17, 17, 41.00000000000000000, #232 ) ;
#166 = ORIENTED_EDGE ( 'NONE', *, *, #465, .T. ) ;
#167 = VECTOR ( 'NONE', #298, 1000.000000000000000 ) ;
#168 = CARTESIAN_POINT ( 'NONE',  ( -36.80000000000001137, -26.79999999999999716, 0.000000000000000000 ) ) ;
#169 = VECTOR ( 'NONE', #486, 1000.000000000000000 ) ;
#170 = CARTESIAN_POINT ( 'NONE',  ( -40.00000000000001421, 26.79999999999999716, 0.000000000000000000 ) ) ;
#171 = EDGE_CURVE ( 'NONE', #31, #302, #629, .T. ) ;
#172 = DIRECTION ( 'NONE',  ( -0.000000000000000000, -0.000000000000000000, -1.000000000000000000 ) ) ;
#173 = PERSON ( 'UNSPECIFIED', 'UNSPECIFIED', 'UNSPECIFIED', ('UNSPECIFIED'), ('UNSPECIFIED'), ('UNSPECIFIED') ) ;
#174 = CARTESIAN_POINT ( 'NONE',  ( 36.79999999999998295, 26.79999999999999716, 0.000000000000000000 ) ) ;
#175 = AXIS2_PLACEMENT_3D ( 'NONE', #252, #294, #206 ) ;
#176 = LINE ( 'NONE', #13, #576 ) ;
#177 = CIRCLE ( 'NONE', #461, 3.200000000000001510 ) ;
#178 = EDGE_CURVE ( 'NONE', #18, #453, #131, .T. ) ;
#179 = CARTESIAN_POINT ( 'NONE',  ( -36.80000000000001137, 26.79999999999999716, 1000.000000000000000 ) ) ;
#180 = CC_DESIGN_DATE_AND_TIME_ASSIGNMENT ( #377, #220, ( #128 ) ) ;
#181 = DIRECTION ( 'NONE',  ( -1.000000000000000000, 0.000000000000000000, 0.000000000000000000 ) ) ;
#182 = CALENDAR_DATE ( 2026, 16, 4 ) ;
#183 = PERSON_AND_ORGANIZATION ( #173, #422 ) ;
#184 = ORIENTED_EDGE ( 'NONE', *, *, #299, .T. ) ;
#185 = VECTOR ( 'NONE', #94, 1000.000000000000000 ) ;
#186 = EDGE_LOOP ( 'NONE', ( #529, #488, #337, #626 ) ) ;
#187 = CARTESIAN_POINT ( 'NONE',  ( 0.000000000000000000, 0.000000000000000000, 0.000000000000000000 ) ) ;
#188 = ORIENTED_EDGE ( 'NONE', *, *, #639, .T. ) ;
#189 = APPLICATION_CONTEXT ( 'configuration controlled 3d designs of mechanical parts and assemblies' ) ;
#190 = DIRECTION ( 'NONE',  ( -1.000000000000000000, -0.000000000000000000, -0.000000000000000000 ) ) ;
#191 = ADVANCED_FACE ( 'NONE', ( #24 ), #428, .T. ) ;
#192 = VERTEX_POINT ( 'NONE', #331 ) ;
#193 = APPROVAL_PERSON_ORGANIZATION ( #525, #16, #586 ) ;
#194 = CARTESIAN_POINT ( 'NONE',  ( -36.80000000000001137, -30.00000000000000000, 0.000000000000000000 ) ) ;
#195 = ORIENTED_EDGE ( 'NONE', *, *, #523, .T. ) ;
#196 = CIRCLE ( 'NONE', #23, 3.200000000000001510 ) ;
#197 = CARTESIAN_POINT ( 'NONE',  ( -36.80000000000001137, -28.39999999999999858, 0.000000000000000000 ) ) ;
#198 = CARTESIAN_POINT ( 'NONE',  ( -38.40000000000001279, -26.79999999999999716, 0.000000000000000000 ) ) ;
#199 = CARTESIAN_POINT ( 'NONE',  ( -36.80000000000001137, 26.79999999999999716, 1000.000000000000000 ) ) ;
#200 = ORIENTED_EDGE ( 'NONE', *, *, #151, .F. ) ;
#201 = EDGE_CURVE ( 'NONE', #555, #434, #376, .T. ) ;
#202 = ORIENTED_EDGE ( 'NONE', *, *, #395, .T. ) ;
#203 = ORIENTED_EDGE ( 'NONE', *, *, #639, .F. ) ;
#204 = ADVANCED_FACE ( 'NONE', ( #637 ), #79, .T. ) ;
#205 = VECTOR ( 'NONE', #563, 1000.000000000000000 ) ;
#206 = DIRECTION ( 'NONE',  ( 0.000000000000000000, 0.000000000000000000, 1.000000000000000000 ) ) ;
#207 = VERTEX_POINT ( 'NONE', #386 ) ;
#208 = DIRECTION ( 'NONE',  ( -1.000000000000000000, 0.000000000000000000, 0.000000000000000000 ) ) ;
#209 = LINE ( 'NONE', #405, #552 ) ;
#210 = DIRECTION ( 'NONE',  ( -1.000000000000000000, 0.000000000000000000, 0.000000000000000000 ) ) ;
#211 = CARTESIAN_POINT ( 'NONE',  ( 36.79999999999998295, -28.40000000000000213, 0.000000000000000000 ) ) ;
#212 = CYLINDRICAL_SURFACE ( 'NONE', #277, 1.600000000000004086 ) ;
#213 = PRODUCT_DEFINITION_SHAPE ( 'NONE', 'NONE',  #558 ) ;
#214 = AXIS2_PLACEMENT_3D ( 'NONE', #61, #158, #261 ) ;
#215 = CARTESIAN_POINT ( 'NONE',  ( 38.39999999999998437, 26.79999999999999716, 1000.000000000000000 ) ) ;
#216 = FACE_OUTER_BOUND ( 'NONE', #399, .T. ) ;
#217 = PRODUCT_RELATED_PRODUCT_CATEGORY ( 'detail', '', ( #341 ) ) ;
#218 = LINE ( 'NONE', #466, #478 ) ;
#219 = EDGE_CURVE ( 'NONE', #146, #555, #532, .T. ) ;
#220 = DATE_TIME_ROLE ( 'classification_date' ) ;
#221 = ORIENTED_EDGE ( 'NONE', *, *, #30, .T. ) ;
#222 = AXIS2_PLACEMENT_3D ( 'NONE', #161, #471, #208 ) ;
#223 = DIRECTION ( 'NONE',  ( 1.000000000000000000, 0.000000000000000000, 0.000000000000000000 ) ) ;
#224 = DIRECTION ( 'NONE',  ( 0.000000000000000000, 0.000000000000000000, 1.000000000000000000 ) ) ;
#225 = VERTEX_POINT ( 'NONE', #436 ) ;
#226 = CIRCLE ( 'NONE', #273, 3.200000000000001510 ) ;
#227 = EDGE_CURVE ( 'NONE', #89, #31, #196, .T. ) ;
#228 = DIRECTION ( 'NONE',  ( 1.294569758191647155E-16, -1.000000000000000000, -0.000000000000000000 ) ) ;
#229 = EDGE_LOOP ( 'NONE', ( #400, #136, #633, #40 ) ) ;
#230 = ORIENTED_EDGE ( 'NONE', *, *, #554, .F. ) ;
#231 = CARTESIAN_POINT ( 'NONE',  ( 36.79999999999998295, -26.79999999999999716, 1000.000000000000000 ) ) ;
#232 = COORDINATED_UNIVERSAL_TIME_OFFSET ( 2, 0, .AHEAD. ) ;
#233 = EDGE_CURVE ( 'NONE', #354, #326, #256, .T. ) ;
#234 = ORIENTED_EDGE ( 'NONE', *, *, #515, .F. ) ;
#235 = DIRECTION ( 'NONE',  ( 1.000000000000000000, 0.000000000000000000, 0.000000000000000000 ) ) ;
#236 = APPROVAL_ROLE ( '' ) ;
#237 = VECTOR ( 'NONE', #147, 1000.000000000000000 ) ;
#238 = EDGE_LOOP ( 'NONE', ( #590, #549, #288, #533 ) ) ;
#239 = ORIENTED_EDGE ( 'NONE', *, *, #380, .F. ) ;
#240 = ORIENTED_EDGE ( 'NONE', *, *, #66, .T. ) ;
#241 = CARTESIAN_POINT ( 'NONE',  ( -36.80000000000001137, 30.00000000000000000, 1000.000000000000000 ) ) ;
#242 = VERTEX_POINT ( 'NONE', #413 ) ;
#243 = DIRECTION ( 'NONE',  ( -0.000000000000000000, -1.000000000000000000, -0.000000000000000000 ) ) ;
#244 = CARTESIAN_POINT ( 'NONE',  ( -36.80000000000001137, 28.39999999999999858, 1000.000000000000000 ) ) ;
#245 = ADVANCED_FACE ( 'NONE', ( #644 ), #548, .F. ) ;
#246 = DIRECTION ( 'NONE',  ( -1.000000000000000000, -0.000000000000000000, -0.000000000000000000 ) ) ;
#247 = VECTOR ( 'NONE', #348, 1000.000000000000000 ) ;
#248 = DIRECTION ( 'NONE',  ( 0.000000000000000000, 1.000000000000000000, 0.000000000000000000 ) ) ;
#249 = VECTOR ( 'NONE', #248, 1000.000000000000000 ) ;
#250 = CARTESIAN_POINT ( 'NONE',  ( 36.79999999999998295, 30.00000000000000000, 1000.000000000000000 ) ) ;
#251 = VERTEX_POINT ( 'NONE', #340 ) ;
#252 = CARTESIAN_POINT ( 'NONE',  ( 39.99999999999998579, -26.79999999999999716, 1000.000000000000000 ) ) ;
#253 = CC_DESIGN_SECURITY_CLASSIFICATION ( #128, ( #541 ) ) ;
#254 = VECTOR ( 'NONE', #11, 1000.000000000000000 ) ;
#255 = ORIENTED_EDGE ( 'NONE', *, *, #319, .F. ) ;
#256 = CIRCLE ( 'NONE', #36, 1.600000000000004086 ) ;
#257 = DIRECTION ( 'NONE',  ( -1.000000000000000000, 0.000000000000000000, 0.000000000000000000 ) ) ;
#258 = DIRECTION ( 'NONE',  ( -0.000000000000000000, 0.000000000000000000, -1.000000000000000000 ) ) ;
#259 = DIRECTION ( 'NONE',  ( -0.000000000000000000, -0.000000000000000000, -1.000000000000000000 ) ) ;
#260 = CARTESIAN_POINT ( 'NONE',  ( -38.40000000000001279, -26.79999999999999716, 1000.000000000000000 ) ) ;
#261 = DIRECTION ( 'NONE',  ( -1.000000000000000000, 0.000000000000000000, 0.000000000000000000 ) ) ;
#262 = CARTESIAN_POINT ( 'NONE',  ( 36.79999999999998295, -26.79999999999999716, 0.000000000000000000 ) ) ;
#263 = PLANE ( 'NONE',  #68 ) ;
#264 = CIRCLE ( 'NONE', #310, 3.200000000000001510 ) ;
#265 = VECTOR ( 'NONE', #303, 1000.000000000000000 ) ;
#266 = EDGE_CURVE ( 'NONE', #491, #375, #451, .T. ) ;
#267 = CARTESIAN_POINT ( 'NONE',  ( -36.80000000000001137, 26.79999999999999716, 1000.000000000000000 ) ) ;
#268 = PERSON_AND_ORGANIZATION ( #173, #422 ) ;
#269 = CALENDAR_DATE ( 2026, 16, 4 ) ;
#270 = LINE ( 'NONE', #20, #372 ) ;
#271 = VERTEX_POINT ( 'NONE', #410 ) ;
#272 = ADVANCED_FACE ( 'NONE', ( #442 ), #212, .F. ) ;
#273 = AXIS2_PLACEMENT_3D ( 'NONE', #498, #511, #514 ) ;
#274 = COORDINATED_UNIVERSAL_TIME_OFFSET ( 2, 0, .AHEAD. ) ;
#275 = AXIS2_PLACEMENT_3D ( 'NONE', #154, #47, #553 ) ;
#276 = CARTESIAN_POINT ( 'NONE',  ( 39.99999999999998579, -26.79999999999999716, 1000.000000000000000 ) ) ;
#277 = AXIS2_PLACEMENT_3D ( 'NONE', #164, #551, #210 ) ;
#278 = CARTESIAN_POINT ( 'NONE',  ( -36.80000000000001137, 28.39999999999999858, 1000.000000000000000 ) ) ;
#279 = EDGE_CURVE ( 'NONE', #133, #284, #141, .T. ) ;
#280 = DIRECTION ( 'NONE',  ( -0.000000000000000000, -0.000000000000000000, -1.000000000000000000 ) ) ;
#281 = DIRECTION ( 'NONE',  ( 1.000000000000000000, 0.000000000000000000, 0.000000000000000000 ) ) ;
#282 = DIRECTION ( 'NONE',  ( 0.000000000000000000, 0.000000000000000000, 1.000000000000000000 ) ) ;
#283 = PERSON_AND_ORGANIZATION ( #173, #422 ) ;
#284 = VERTEX_POINT ( 'NONE', #115 ) ;
#285 = ORIENTED_EDGE ( 'NONE', *, *, #12, .F. ) ;
#286 = ORIENTED_EDGE ( 'NONE', *, *, #219, .T. ) ;
#287 = VECTOR ( 'NONE', #454, 1000.000000000000000 ) ;
#288 = ORIENTED_EDGE ( 'NONE', *, *, #227, .F. ) ;
#289 = CARTESIAN_POINT ( 'NONE',  ( -36.80000000000001137, 28.39999999999999858, 0.000000000000000000 ) ) ;
#290 = CARTESIAN_POINT ( 'NONE',  ( -36.80000000000001137, 28.39999999999999858, 1000.000000000000000 ) ) ;
#291 = ORIENTED_EDGE ( 'NONE', *, *, #403, .F. ) ;
#292 = CC_DESIGN_PERSON_AND_ORGANIZATION_ASSIGNMENT ( #268, #620, ( #128 ) ) ;
#293 = PLANE ( 'NONE',  #562 ) ;
#294 = DIRECTION ( 'NONE',  ( -1.000000000000000000, 0.000000000000000000, 0.000000000000000000 ) ) ;
#295 = ORIENTED_EDGE ( 'NONE', *, *, #130, .F. ) ;
#296 = LINE ( 'NONE', #46, #249 ) ;
#297 = LINE ( 'NONE', #50, #634 ) ;
#298 = DIRECTION ( 'NONE',  ( -1.000000000000000000, -0.000000000000000000, -0.000000000000000000 ) ) ;
#299 = EDGE_CURVE ( 'NONE', #391, #207, #613, .T. ) ;
#300 = VERTEX_POINT ( 'NONE', #170 ) ;
#301 = ORIENTED_EDGE ( 'NONE', *, *, #157, .T. ) ;
#302 = VERTEX_POINT ( 'NONE', #367 ) ;
#303 = DIRECTION ( 'NONE',  ( -0.000000000000000000, -0.000000000000000000, -1.000000000000000000 ) ) ;
#304 = ORIENTED_EDGE ( 'NONE', *, *, #406, .F. ) ;
#305 = DIRECTION ( 'NONE',  ( 0.000000000000000000, 0.000000000000000000, -1.000000000000000000 ) ) ;
#306 = FACE_OUTER_BOUND ( 'NONE', #48, .T. ) ;
#307 = CARTESIAN_POINT ( 'NONE',  ( -36.80000000000001137, 30.00000000000000000, 1000.000000000000000 ) ) ;
#308 = EDGE_CURVE ( 'NONE', #625, #458, #177, .T. ) ;
#309 = CIRCLE ( 'NONE', #477, 1.599999999999997202 ) ;
#310 = AXIS2_PLACEMENT_3D ( 'NONE', #168, #57, #469 ) ;
#311 = AXIS2_PLACEMENT_3D ( 'NONE', #262, #468, #64 ) ;
#312 = FACE_OUTER_BOUND ( 'NONE', #186, .T. ) ;
#313 = CARTESIAN_POINT ( 'NONE',  ( -36.80000000000001137, 30.00000000000000000, 1000.000000000000000 ) ) ;
#314 = DIRECTION ( 'NONE',  ( -1.000000000000000000, 0.000000000000000000, 0.000000000000000000 ) ) ;
#315 = DIRECTION ( 'NONE',  ( -1.294569758191647155E-16, 1.000000000000000000, 0.000000000000000000 ) ) ;
#316 = CARTESIAN_POINT ( 'NONE',  ( -38.40000000000001279, -26.79999999999999716, 1000.000000000000000 ) ) ;
#317 = EDGE_CURVE ( 'NONE', #242, #302, #226, .T. ) ;
#318 =( NAMED_UNIT ( * ) PLANE_ANGLE_UNIT ( ) SI_UNIT ( $, .RADIAN. ) );
#319 = EDGE_CURVE ( 'NONE', #458, #89, #296, .T. ) ;
#320 = AXIS2_PLACEMENT_3D ( 'NONE', #509, #258, #6 ) ;
#321 = PERSON_AND_ORGANIZATION_ROLE ( 'design_owner' ) ;
#322 = LINE ( 'NONE', #472, #542 ) ;
#323 = PLANE ( 'NONE',  #392 ) ;
#324 = DATE_AND_TIME ( #269, #165 ) ;
#325 = DIRECTION ( 'NONE',  ( 0.000000000000000000, -0.000000000000000000, 1.000000000000000000 ) ) ;
#326 = VERTEX_POINT ( 'NONE', #117 ) ;
#327 = DIRECTION ( 'NONE',  ( -0.000000000000000000, -0.000000000000000000, -1.000000000000000000 ) ) ;
#328 = LOCAL_TIME ( 17, 17, 41.00000000000000000, #425 ) ;
#329 = DATE_AND_TIME ( #482, #10 ) ;
#330 = AXIS2_PLACEMENT_3D ( 'NONE', #129, #224, #524 ) ;
#331 = CARTESIAN_POINT ( 'NONE',  ( -38.40000000000001279, -26.79999999999999716, 1000.000000000000000 ) ) ;
#332 = APPROVAL_STATUS ( 'not_yet_approved' ) ;
#333 = ORIENTED_EDGE ( 'NONE', *, *, #110, .F. ) ;
#334 = CARTESIAN_POINT ( 'NONE',  ( 36.79999999999998295, -26.79999999999999716, 1000.000000000000000 ) ) ;
#335 = ORIENTED_EDGE ( 'NONE', *, *, #619, .T. ) ;
#336 = MANIFOLD_SOLID_BREP ( 'Boss-Extrude1', #575 ) ;
#337 = ORIENTED_EDGE ( 'NONE', *, *, #12, .T. ) ;
#338 = VECTOR ( 'NONE', #243, 1000.000000000000000 ) ;
#339 = ADVANCED_FACE ( 'NONE', ( #92 ), #518, .F. ) ;
#340 = CARTESIAN_POINT ( 'NONE',  ( -36.80000000000001137, -28.39999999999999858, 1000.000000000000000 ) ) ;
#341 = PRODUCT ( 'Rectangle - 80.0 X 60.0 X 1.60', 'Rectangle - 80.0 X 60.0 X 1.60', '', ( #75 ) ) ;
#342 = CARTESIAN_POINT ( 'NONE',  ( -36.80000000000001137, 30.00000000000000000, 1000.000000000000000 ) ) ;
#343 = ORIENTED_EDGE ( 'NONE', *, *, #201, .T. ) ;
#344 = CARTESIAN_POINT ( 'NONE',  ( 36.79999999999998295, -26.79999999999999716, 1000.000000000000000 ) ) ;
#345 = LINE ( 'NONE', #65, #54 ) ;
#346 = ORIENTED_EDGE ( 'NONE', *, *, #636, .F. ) ;
#347 = DIRECTION ( 'NONE',  ( 0.000000000000000000, 0.000000000000000000, 1.000000000000000000 ) ) ;
#348 = DIRECTION ( 'NONE',  ( -0.000000000000000000, -0.000000000000000000, -1.000000000000000000 ) ) ;
#349 = DIRECTION ( 'NONE',  ( -1.000000000000000000, 0.000000000000000000, 0.000000000000000000 ) ) ;
#350 = VERTEX_POINT ( 'NONE', #602 ) ;
#351 = AXIS2_PLACEMENT_3D ( 'NONE', #550, #353, #98 ) ;
#352 = ORIENTED_EDGE ( 'NONE', *, *, #501, .T. ) ;
#353 = DIRECTION ( 'NONE',  ( -0.000000000000000000, -0.000000000000000000, -1.000000000000000000 ) ) ;
#354 = VERTEX_POINT ( 'NONE', #108 ) ;
#355 = CARTESIAN_POINT ( 'NONE',  ( -40.00000000000001421, -26.79999999999999716, 1000.000000000000000 ) ) ;
#356 = CYLINDRICAL_SURFACE ( 'NONE', #351, 1.599999999999997202 ) ;
#357 = CARTESIAN_POINT ( 'NONE',  ( 38.39999999999998437, 26.79999999999999716, 0.000000000000000000 ) ) ;
#358 = ORIENTED_EDGE ( 'NONE', *, *, #317, .F. ) ;
#359 = ORIENTED_EDGE ( 'NONE', *, *, #423, .F. ) ;
#360 = DIRECTION ( 'NONE',  ( -0.000000000000000000, -0.000000000000000000, -1.000000000000000000 ) ) ;
#361 = FACE_OUTER_BOUND ( 'NONE', #489, .T. ) ;
#362 = DIRECTION ( 'NONE',  ( 1.000000000000000000, 1.294569758191647155E-16, -0.000000000000000000 ) ) ;
#363 = VERTEX_POINT ( 'NONE', #546 ) ;
#364 = VECTOR ( 'NONE', #113, 1000.000000000000000 ) ;
#365 = DIRECTION ( 'NONE',  ( -0.000000000000000000, -0.000000000000000000, -1.000000000000000000 ) ) ;
#366 = FACE_BOUND ( 'NONE', #420, .T. ) ;
#367 = CARTESIAN_POINT ( 'NONE',  ( 36.79999999999998295, 30.00000000000000000, 0.000000000000000000 ) ) ;
#368 = CARTESIAN_POINT ( 'NONE',  ( 36.79999999999998295, -28.40000000000000213, 1000.000000000000000 ) ) ;
#369 = CARTESIAN_POINT ( 'NONE',  ( 36.79999999999998295, -30.00000000000000000, 1000.000000000000000 ) ) ;
#370 = DIRECTION ( 'NONE',  ( -1.000000000000000000, -0.000000000000000000, -0.000000000000000000 ) ) ;
#371 = CIRCLE ( 'NONE', #275, 1.599999999999997202 ) ;
#372 = VECTOR ( 'NONE', #228, 1000.000000000000000 ) ;
#373 = CALENDAR_DATE ( 2026, 16, 4 ) ;
#374 = ADVANCED_FACE ( 'NONE', ( #59 ), #149, .T. ) ;
#375 = VERTEX_POINT ( 'NONE', #62 ) ;
#376 = LINE ( 'NONE', #127, #450 ) ;
#377 = DATE_AND_TIME ( #182, #67 ) ;
#378 = EDGE_LOOP ( 'NONE', ( #591, #203, #121, #545 ) ) ;
#379 = ORIENTED_EDGE ( 'NONE', *, *, #537, .T. ) ;
#380 = EDGE_CURVE ( 'NONE', #375, #404, #122, .T. ) ;
#381 = CARTESIAN_POINT ( 'NONE',  ( 36.79999999999998295, 26.79999999999999716, 1000.000000000000000 ) ) ;
#382 = DIRECTION ( 'NONE',  ( -1.000000000000000000, 0.000000000000000000, 0.000000000000000000 ) ) ;
#383 = APPLICATION_PROTOCOL_DEFINITION ( 'international standard', 'config_control_design', 1994, #189 ) ;
#384 = DESIGN_CONTEXT ( 'detailed design', #189, 'design' ) ;
#385 = ORIENTED_EDGE ( 'NONE', *, *, #30, .F. ) ;
#386 = CARTESIAN_POINT ( 'NONE',  ( -40.00000000000001421, -26.79999999999999716, 0.000000000000000000 ) ) ;
#387 = EDGE_CURVE ( 'NONE', #18, #354, #638, .T. ) ;
#388 = CARTESIAN_POINT ( 'NONE',  ( -40.00000000000001421, -26.79999999999999716, 1000.000000000000000 ) ) ;
#389 = ORIENTED_EDGE ( 'NONE', *, *, #423, .T. ) ;
#390 = CIRCLE ( 'NONE', #438, 3.200000000000001510 ) ;
#391 = VERTEX_POINT ( 'NONE', #388 ) ;
#392 = AXIS2_PLACEMENT_3D ( 'NONE', #618, #69, #325 ) ;
#393 = CARTESIAN_POINT ( 'NONE',  ( 36.79999999999998295, -26.79999999999999716, 1000.000000000000000 ) ) ;
#394 = CARTESIAN_POINT ( 'NONE',  ( -38.40000000000001990, 26.79999999999999716, 1000.000000000000000 ) ) ;
#395 = EDGE_CURVE ( 'NONE', #271, #391, #593, .T. ) ;
#396 = ORIENTED_EDGE ( 'NONE', *, *, #460, .T. ) ;
#397 = DIRECTION ( 'NONE',  ( -0.000000000000000000, -0.000000000000000000, -1.000000000000000000 ) ) ;
#398 = EDGE_LOOP ( 'NONE', ( #476, #335, #159, #352, #25, #485, #452, #21 ) ) ;
#399 = EDGE_LOOP ( 'NONE', ( #389, #480, #499, #42 ) ) ;
#400 = ORIENTED_EDGE ( 'NONE', *, *, #501, .F. ) ;
#401 = AXIS2_PLACEMENT_3D ( 'NONE', #143, #280, #382 ) ;
#402 = VECTOR ( 'NONE', #616, 1000.000000000000000 ) ;
#403 = EDGE_CURVE ( 'NONE', #302, #284, #176, .T. ) ;
#404 = VERTEX_POINT ( 'NONE', #583 ) ;
#405 = CARTESIAN_POINT ( 'NONE',  ( -36.80000000000001137, -30.00000000000000000, 1000.000000000000000 ) ) ;
#406 = EDGE_CURVE ( 'NONE', #225, #60, #270, .T. ) ;
#407 = EDGE_LOOP ( 'NONE', ( #234, #596, #286, #343 ) ) ;
#408 = CARTESIAN_POINT ( 'NONE',  ( 36.79999999999998295, -30.00000000000000000, 1000.000000000000000 ) ) ;
#409 = FACE_BOUND ( 'NONE', #398, .T. ) ;
#410 = CARTESIAN_POINT ( 'NONE',  ( -40.00000000000001421, 26.79999999999999716, 1000.000000000000000 ) ) ;
#411 = CC_DESIGN_PERSON_AND_ORGANIZATION_ASSIGNMENT ( #630, #17, ( #541 ) ) ;
#412 = DIRECTION ( 'NONE',  ( 1.294569758191647155E-16, -1.000000000000000000, 0.000000000000000000 ) ) ;
#413 = CARTESIAN_POINT ( 'NONE',  ( 39.99999999999998579, 26.79999999999999716, 0.000000000000000000 ) ) ;
#414 = CYLINDRICAL_SURFACE ( 'NONE', #617, 3.200000000000001510 ) ;
#415 = EDGE_CURVE ( 'NONE', #271, #300, #322, .T. ) ;
#416 = ORIENTED_EDGE ( 'NONE', *, *, #34, .F. ) ;
#417 =( LENGTH_UNIT ( ) NAMED_UNIT ( * ) SI_UNIT ( .MILLI., .METRE. ) );
#418 = APPROVAL_ROLE ( '' ) ;
#419 = DIRECTION ( 'NONE',  ( 0.000000000000000000, 0.000000000000000000, 1.000000000000000000 ) ) ;
#420 = EDGE_LOOP ( 'NONE', ( #605, #642, #285, #592, #559, #585, #557, #651 ) ) ;
#421 = AXIS2_PLACEMENT_3D ( 'NONE', #393, #259, #43 ) ;
#422 = ORGANIZATION ( 'UNSPECIFIED', 'UNSPECIFIED', '' ) ;
#423 = EDGE_CURVE ( 'NONE', #284, #300, #111, .T. ) ;
#424 = AXIS2_PLACEMENT_3D ( 'NONE', #231, #282, #235 ) ;
#425 = COORDINATED_UNIVERSAL_TIME_OFFSET ( 2, 0, .AHEAD. ) ;
#426 = CARTESIAN_POINT ( 'NONE',  ( 38.39999999999999147, -26.79999999999999716, 0.000000000000000000 ) ) ;
#427 = ORIENTED_EDGE ( 'NONE', *, *, #135, .F. ) ;
#428 = CYLINDRICAL_SURFACE ( 'NONE', #622, 3.200000000000001510 ) ;
#429 = APPROVAL_STATUS ( 'not_yet_approved' ) ;
#430 = ORIENTED_EDGE ( 'NONE', *, *, #308, .T. ) ;
#431 = DIRECTION ( 'NONE',  ( 0.000000000000000000, 0.000000000000000000, 1.000000000000000000 ) ) ;
#432 = APPROVAL_STATUS ( 'not_yet_approved' ) ;
#433 = DIRECTION ( 'NONE',  ( 0.000000000000000000, -0.000000000000000000, -1.000000000000000000 ) ) ;
#434 = VERTEX_POINT ( 'NONE', #426 ) ;
#435 = ADVANCED_FACE ( 'NONE', ( #216 ), #414, .T. ) ;
#436 = CARTESIAN_POINT ( 'NONE',  ( -38.40000000000001990, 26.79999999999999716, 0.000000000000000000 ) ) ;
#437 = SHAPE_DEFINITION_REPRESENTATION ( #213, #502 ) ;
#438 = AXIS2_PLACEMENT_3D ( 'NONE', #267, #419, #621 ) ;
#439 = ORIENTED_EDGE ( 'NONE', *, *, #72, .T. ) ;
#440 = APPROVAL ( #332, 'UNSPECIFIED' ) ;
#441 = DIRECTION ( 'NONE',  ( -0.000000000000000000, -0.000000000000000000, -1.000000000000000000 ) ) ;
#442 = FACE_OUTER_BOUND ( 'NONE', #155, .T. ) ;
#443 = DIRECTION ( 'NONE',  ( 0.000000000000000000, -1.000000000000000000, 0.000000000000000000 ) ) ;
#444 = ORIENTED_EDGE ( 'NONE', *, *, #118, .F. ) ;
#445 = CARTESIAN_POINT ( 'NONE',  ( -36.80000000000001137, -26.79999999999999716, 1000.000000000000000 ) ) ;
#446 = ORIENTED_EDGE ( 'NONE', *, *, #619, .F. ) ;
#447 = ADVANCED_FACE ( 'NONE', ( #125 ), #323, .F. ) ;
#448 = DIRECTION ( 'NONE',  ( 0.000000000000000000, -0.000000000000000000, 1.000000000000000000 ) ) ;
#449 = LINE ( 'NONE', #394, #247 ) ;
#450 = VECTOR ( 'NONE', #327, 1000.000000000000000 ) ;
#451 = LINE ( 'NONE', #194, #647 ) ;
#452 = ORIENTED_EDGE ( 'NONE', *, *, #118, .T. ) ;
#453 = VERTEX_POINT ( 'NONE', #77 ) ;
#454 = DIRECTION ( 'NONE',  ( 1.000000000000000000, 0.000000000000000000, 0.000000000000000000 ) ) ;
#455 = CARTESIAN_POINT ( 'NONE',  ( 38.39999999999999147, -26.79999999999999716, 1000.000000000000000 ) ) ;
#456 = CARTESIAN_POINT ( 'NONE',  ( -36.80000000000001137, -28.39999999999999858, 1000.000000000000000 ) ) ;
#457 = EDGE_CURVE ( 'NONE', #404, #242, #473, .T. ) ;
#458 = VERTEX_POINT ( 'NONE', #276 ) ;
#459 = VECTOR ( 'NONE', #365, 1000.000000000000000 ) ;
#460 = EDGE_CURVE ( 'NONE', #133, #271, #390, .T. ) ;
#461 = AXIS2_PLACEMENT_3D ( 'NONE', #344, #96, #569 ) ;
#462 = CARTESIAN_POINT ( 'NONE',  ( -36.80000000000001137, -30.00000000000000000, 1000.000000000000000 ) ) ;
#463 = FACE_OUTER_BOUND ( 'NONE', #649, .T. ) ;
#464 = DIRECTION ( 'NONE',  ( 0.000000000000000000, 0.000000000000000000, 1.000000000000000000 ) ) ;
#465 = EDGE_CURVE ( 'NONE', #354, #492, #28, .T. ) ;
#466 = CARTESIAN_POINT ( 'NONE',  ( 39.99999999999998579, -26.79999999999999716, 1000.000000000000000 ) ) ;
#467 = DIRECTION ( 'NONE',  ( -0.000000000000000000, 0.000000000000000000, -1.000000000000000000 ) ) ;
#468 = DIRECTION ( 'NONE',  ( 0.000000000000000000, 0.000000000000000000, 1.000000000000000000 ) ) ;
#469 = DIRECTION ( 'NONE',  ( -1.000000000000000000, 0.000000000000000000, 0.000000000000000000 ) ) ;
#470 = LINE ( 'NONE', #368, #120 ) ;
#471 = DIRECTION ( 'NONE',  ( 0.000000000000000000, 0.000000000000000000, 1.000000000000000000 ) ) ;
#472 = CARTESIAN_POINT ( 'NONE',  ( -40.00000000000001421, 26.79999999999999716, 1000.000000000000000 ) ) ;
#473 = LINE ( 'NONE', #571, #594 ) ;
#474 = ADVANCED_FACE ( 'NONE', ( #41 ), #138, .F. ) ;
#475 = PERSON_AND_ORGANIZATION ( #173, #422 ) ;
#476 = ORIENTED_EDGE ( 'NONE', *, *, #53, .T. ) ;
#477 = AXIS2_PLACEMENT_3D ( 'NONE', #536, #86, #640 ) ;
#478 = VECTOR ( 'NONE', #360, 1000.000000000000000 ) ;
#479 = CARTESIAN_POINT ( 'NONE',  ( 36.79999999999998295, 28.39999999999999858, 1000.000000000000000 ) ) ;
#480 = ORIENTED_EDGE ( 'NONE', *, *, #415, .F. ) ;
#481 = CIRCLE ( 'NONE', #567, 1.600000000000004086 ) ;
#482 = CALENDAR_DATE ( 2026, 16, 4 ) ;
#483 = ORIENTED_EDGE ( 'NONE', *, *, #279, .F. ) ;
#484 = DIRECTION ( 'NONE',  ( 0.000000000000000000, -1.000000000000000000, 0.000000000000000000 ) ) ;
#485 = ORIENTED_EDGE ( 'NONE', *, *, #515, .T. ) ;
#486 = DIRECTION ( 'NONE',  ( -0.000000000000000000, -0.000000000000000000, -1.000000000000000000 ) ) ;
#487 = PERSON_AND_ORGANIZATION ( #173, #422 ) ;
#488 = ORIENTED_EDGE ( 'NONE', *, *, #72, .F. ) ;
#489 = EDGE_LOOP ( 'NONE', ( #444, #55, #195, #439 ) ) ;
#490 = AXIS2_PLACEMENT_3D ( 'NONE', #152, #607, #93 ) ;
#491 = VERTEX_POINT ( 'NONE', #82 ) ;
#492 = VERTEX_POINT ( 'NONE', #631 ) ;
#493 = ORIENTED_EDGE ( 'NONE', *, *, #646, .T. ) ;
#494 = CARTESIAN_POINT ( 'NONE',  ( -40.00000000000001421, -26.79999999999999716, 1000.000000000000000 ) ) ;
#495 = LINE ( 'NONE', #197, #287 ) ;
#496 = CARTESIAN_POINT ( 'NONE',  ( -36.80000000000001137, -28.39999999999999858, 1000.000000000000000 ) ) ;
#497 = ORIENTED_EDGE ( 'NONE', *, *, #135, .T. ) ;
#498 = CARTESIAN_POINT ( 'NONE',  ( 36.79999999999998295, 26.79999999999999716, 0.000000000000000000 ) ) ;
#499 = ORIENTED_EDGE ( 'NONE', *, *, #460, .F. ) ;
#500 = VECTOR ( 'NONE', #246, 1000.000000000000000 ) ;
#501 = EDGE_CURVE ( 'NONE', #60, #350, #309, .T. ) ;
#502 = ADVANCED_BREP_SHAPE_REPRESENTATION ( 'Rectangle - 80.0 X 60.0 X 1.60', ( #336, #140 ), #76 ) ;
#503 =( NAMED_UNIT ( * ) SI_UNIT ( $, .STERADIAN. ) SOLID_ANGLE_UNIT ( ) );
#504 = PLANE ( 'NONE',  #175 ) ;
#505 = ADVANCED_FACE ( 'NONE', ( #598 ), #293, .T. ) ;
#506 = CC_DESIGN_PERSON_AND_ORGANIZATION_ASSIGNMENT ( #183, #578, ( #541 ) ) ;
#507 = ORIENTED_EDGE ( 'NONE', *, *, #395, .F. ) ;
#508 = AXIS2_PLACEMENT_3D ( 'NONE', #316, #362, #566 ) ;
#509 = CARTESIAN_POINT ( 'NONE',  ( -36.80000000000001137, -26.79999999999999716, 0.000000000000000000 ) ) ;
#510 = CC_DESIGN_APPROVAL ( #440, ( #128 ) ) ;
#511 = DIRECTION ( 'NONE',  ( 0.000000000000000000, 0.000000000000000000, 1.000000000000000000 ) ) ;
#512 = VECTOR ( 'NONE', #32, 1000.000000000000000 ) ;
#513 = LINE ( 'NONE', #564, #364 ) ;
#514 = DIRECTION ( 'NONE',  ( -1.000000000000000000, 0.000000000000000000, 0.000000000000000000 ) ) ;
#515 = EDGE_CURVE ( 'NONE', #97, #434, #481, .T. ) ;
#516 = CARTESIAN_POINT ( 'NONE',  ( 38.39999999999999147, -26.79999999999999716, 1000.000000000000000 ) ) ;
#517 = PLANE ( 'NONE',  #320 ) ;
#518 = CYLINDRICAL_SURFACE ( 'NONE', #142, 1.599999999999997202 ) ;
#519 = DIRECTION ( 'NONE',  ( 0.000000000000000000, 1.000000000000000000, 0.000000000000000000 ) ) ;
#520 = VECTOR ( 'NONE', #4, 1000.000000000000000 ) ;
#521 = CYLINDRICAL_SURFACE ( 'NONE', #401, 3.200000000000001510 ) ;
#522 = DATE_AND_TIME ( #373, #328 ) ;
#523 = EDGE_CURVE ( 'NONE', #555, #363, #153, .T. ) ;
#524 = DIRECTION ( 'NONE',  ( -1.000000000000000000, 0.000000000000000000, 0.000000000000000000 ) ) ;
#525 = PERSON_AND_ORGANIZATION ( #173, #422 ) ;
#526 = APPROVAL ( #432, 'UNSPECIFIED' ) ;
#527 = DATE_AND_TIME ( #589, #614 ) ;
#528 = DIRECTION ( 'NONE',  ( -0.000000000000000000, -0.000000000000000000, -1.000000000000000000 ) ) ;
#529 = ORIENTED_EDGE ( 'NONE', *, *, #163, .F. ) ;
#530 = CC_DESIGN_APPROVAL ( #526, ( #541 ) ) ;
#531 = VECTOR ( 'NONE', #315, 1000.000000000000000 ) ;
#532 = CIRCLE ( 'NONE', #424, 1.600000000000004086 ) ;
#533 = ORIENTED_EDGE ( 'NONE', *, *, #130, .T. ) ;
#534 = ADVANCED_FACE ( 'NONE', ( #312 ), #356, .F. ) ;
#535 = DATE_TIME_ROLE ( 'creation_date' ) ;
#536 = CARTESIAN_POINT ( 'NONE',  ( -36.80000000000001137, -26.79999999999999716, 0.000000000000000000 ) ) ;
#537 = EDGE_CURVE ( 'NONE', #326, #192, #297, .T. ) ;
#538 = ORIENTED_EDGE ( 'NONE', *, *, #110, .T. ) ;
#539 = EDGE_LOOP ( 'NONE', ( #35, #346, #603, #139 ) ) ;
#540 = EDGE_LOOP ( 'NONE', ( #39, #295, #255, #188 ) ) ;
#541 = PRODUCT_DEFINITION_FORMATION_WITH_SPECIFIED_SOURCE ( 'ANY', '', #341, .NOT_KNOWN. ) ;
#542 = VECTOR ( 'NONE', #528, 1000.000000000000000 ) ;
#543 = VERTEX_POINT ( 'NONE', #100 ) ;
#544 = ADVANCED_FACE ( 'NONE', ( #560 ), #103, .T. ) ;
#545 = ORIENTED_EDGE ( 'NONE', *, *, #636, .T. ) ;
#546 = CARTESIAN_POINT ( 'NONE',  ( 38.39999999999998437, 26.79999999999999716, 1000.000000000000000 ) ) ;
#547 = EDGE_LOOP ( 'NONE', ( #301, #83, #507, #109 ) ) ;
#548 = CYLINDRICAL_SURFACE ( 'NONE', #421, 1.600000000000004086 ) ;
#549 = ORIENTED_EDGE ( 'NONE', *, *, #171, .F. ) ;
#550 = CARTESIAN_POINT ( 'NONE',  ( 36.79999999999998295, 26.79999999999999716, 1000.000000000000000 ) ) ;
#551 = DIRECTION ( 'NONE',  ( -0.000000000000000000, -0.000000000000000000, -1.000000000000000000 ) ) ;
#552 = VECTOR ( 'NONE', #162, 1000.000000000000000 ) ;
#553 = DIRECTION ( 'NONE',  ( -1.000000000000000000, 0.000000000000000000, 0.000000000000000000 ) ) ;
#554 = EDGE_CURVE ( 'NONE', #543, #491, #604, .T. ) ;
#555 = VERTEX_POINT ( 'NONE', #516 ) ;
#556 = DIRECTION ( 'NONE',  ( 1.294569758191647155E-16, -1.000000000000000000, -0.000000000000000000 ) ) ;
#557 = ORIENTED_EDGE ( 'NONE', *, *, #88, .F. ) ;
#558 = PRODUCT_DEFINITION ( 'UNKNOWN', '', #541, #384 ) ;
#559 = ORIENTED_EDGE ( 'NONE', *, *, #219, .F. ) ;
#560 = FACE_OUTER_BOUND ( 'NONE', #643, .T. ) ;
#561 = DIRECTION ( 'NONE',  ( -1.000000000000000000, 0.000000000000000000, 0.000000000000000000 ) ) ;
#562 = AXIS2_PLACEMENT_3D ( 'NONE', #496, #44, #448 ) ;
#563 = DIRECTION ( 'NONE',  ( -0.000000000000000000, -0.000000000000000000, -1.000000000000000000 ) ) ;
#564 = CARTESIAN_POINT ( 'NONE',  ( 39.99999999999998579, 26.79999999999999716, 1000.000000000000000 ) ) ;
#565 = APPROVAL_PERSON_ORGANIZATION ( #283, #440, #236 ) ;
#566 = DIRECTION ( 'NONE',  ( -1.294569758191647155E-16, 1.000000000000000000, 0.000000000000000000 ) ) ;
#567 = AXIS2_PLACEMENT_3D ( 'NONE', #648, #347, #281 ) ;
#568 = CARTESIAN_POINT ( 'NONE',  ( 38.39999999999999147, -26.79999999999999716, 0.000000000000000000 ) ) ;
#569 = DIRECTION ( 'NONE',  ( 1.000000000000000000, 0.000000000000000000, 0.000000000000000000 ) ) ;
#570 = ORIENTED_EDGE ( 'NONE', *, *, #403, .T. ) ;
#571 = CARTESIAN_POINT ( 'NONE',  ( 39.99999999999998579, -26.79999999999999716, 0.000000000000000000 ) ) ;
#572 = LINE ( 'NONE', #260, #205 ) ;
#573 = EDGE_LOOP ( 'NONE', ( #200, #416, #99, #29 ) ) ;
#574 = CC_DESIGN_APPROVAL ( #16, ( #558 ) ) ;
#575 = CLOSED_SHELL ( 'NONE', ( #81, #126, #544, #447, #191, #38, #584, #474, #435, #611, #272, #374, #339, #505, #245, #107, #534, #204 ) ) ;
#576 = VECTOR ( 'NONE', #370, 1000.000000000000000 ) ;
#577 = FACE_OUTER_BOUND ( 'NONE', #238, .T. ) ;
#578 = PERSON_AND_ORGANIZATION_ROLE ( 'design_supplier' ) ;
#579 = DIRECTION ( 'NONE',  ( -1.000000000000000000, 0.000000000000000000, 0.000000000000000000 ) ) ;
#580 = EDGE_CURVE ( 'NONE', #146, #97, #470, .T. ) ;
#581 = ORIENTED_EDGE ( 'NONE', *, *, #233, .T. ) ;
#582 = APPROVAL_DATE_TIME ( #527, #16 ) ;
#583 = CARTESIAN_POINT ( 'NONE',  ( 39.99999999999998579, -26.79999999999999716, 0.000000000000000000 ) ) ;
#584 = ADVANCED_FACE ( 'NONE', ( #577 ), #521, .T. ) ;
#585 = ORIENTED_EDGE ( 'NONE', *, *, #14, .F. ) ;
#586 = APPROVAL_ROLE ( '' ) ;
#587 = ORIENTED_EDGE ( 'NONE', *, *, #95, .T. ) ;
#588 = DIRECTION ( 'NONE',  ( 0.000000000000000000, 0.000000000000000000, 1.000000000000000000 ) ) ;
#589 = CALENDAR_DATE ( 2026, 16, 4 ) ;
#590 = ORIENTED_EDGE ( 'NONE', *, *, #317, .T. ) ;
#591 = ORIENTED_EDGE ( 'NONE', *, *, #380, .T. ) ;
#592 = ORIENTED_EDGE ( 'NONE', *, *, #523, .F. ) ;
#593 = LINE ( 'NONE', #494, #338 ) ;
#594 = VECTOR ( 'NONE', #519, 1000.000000000000000 ) ;
#595 = APPROVAL_PERSON_ORGANIZATION ( #487, #526, #418 ) ;
#596 = ORIENTED_EDGE ( 'NONE', *, *, #580, .F. ) ;
#597 = CIRCLE ( 'NONE', #214, 1.599999999999997202 ) ;
#598 = FACE_OUTER_BOUND ( 'NONE', #573, .T. ) ;
#599 = ORIENTED_EDGE ( 'NONE', *, *, #171, .T. ) ;
#600 = EDGE_LOOP ( 'NONE', ( #137, #632, #601, #166 ) ) ;
#601 = ORIENTED_EDGE ( 'NONE', *, *, #387, .T. ) ;
#602 = CARTESIAN_POINT ( 'NONE',  ( -36.80000000000001137, -28.39999999999999858, 0.000000000000000000 ) ) ;
#603 = ORIENTED_EDGE ( 'NONE', *, *, #95, .F. ) ;
#604 = LINE ( 'NONE', #462, #520 ) ;
#605 = ORIENTED_EDGE ( 'NONE', *, *, #233, .F. ) ;
#606 = AXIS2_PLACEMENT_3D ( 'NONE', #105, #2, #257 ) ;
#607 = DIRECTION ( 'NONE',  ( 0.000000000000000000, 0.000000000000000000, 1.000000000000000000 ) ) ;
#608 = PLANE ( 'NONE',  #22 ) ;
#609 = ORIENTED_EDGE ( 'NONE', *, *, #457, .F. ) ;
#610 = DIRECTION ( 'NONE',  ( -1.000000000000000000, -1.294569758191647155E-16, 0.000000000000000000 ) ) ;
#611 = ADVANCED_FACE ( 'NONE', ( #37 ), #608, .F. ) ;
#612 = PLANE ( 'NONE',  #56 ) ;
#613 = LINE ( 'NONE', #9, #237 ) ;
#614 = LOCAL_TIME ( 17, 17, 41.00000000000000000, #132 ) ;
#615 = CARTESIAN_POINT ( 'NONE',  ( 38.39999999999999147, -26.79999999999999716, 1000.000000000000000 ) ) ;
#616 = DIRECTION ( 'NONE',  ( -0.000000000000000000, -0.000000000000000000, -1.000000000000000000 ) ) ;
#617 = AXIS2_PLACEMENT_3D ( 'NONE', #179, #123, #579 ) ;
#618 = CARTESIAN_POINT ( 'NONE',  ( -36.80000000000001137, -30.00000000000000000, 1000.000000000000000 ) ) ;
#619 = EDGE_CURVE ( 'NONE', #492, #225, #112, .T. ) ;
#620 = PERSON_AND_ORGANIZATION_ROLE ( 'classification_officer' ) ;
#621 = DIRECTION ( 'NONE',  ( -1.000000000000000000, 0.000000000000000000, 0.000000000000000000 ) ) ;
#622 = AXIS2_PLACEMENT_3D ( 'NONE', #334, #26, #181 ) ;
#623 = DIRECTION ( 'NONE',  ( -1.000000000000000000, 0.000000000000000000, 0.000000000000000000 ) ) ;
#624 = PERSON_AND_ORGANIZATION ( #173, #422 ) ;
#625 = VERTEX_POINT ( 'NONE', #369 ) ;
#626 = ORIENTED_EDGE ( 'NONE', *, *, #178, .T. ) ;
#627 = CARTESIAN_POINT ( 'NONE',  ( 36.79999999999998295, 30.00000000000000000, 1000.000000000000000 ) ) ;
#628 = APPROVAL_DATE_TIME ( #329, #440 ) ;
#629 = LINE ( 'NONE', #627, #512 ) ;
#630 = PERSON_AND_ORGANIZATION ( #173, #422 ) ;
#631 = CARTESIAN_POINT ( 'NONE',  ( -36.80000000000001137, 28.40000000000000213, 0.000000000000000000 ) ) ;
#632 = ORIENTED_EDGE ( 'NONE', *, *, #178, .F. ) ;
#633 = ORIENTED_EDGE ( 'NONE', *, *, #88, .T. ) ;
#634 = VECTOR ( 'NONE', #556, 1000.000000000000000 ) ;
#635 = ORIENTED_EDGE ( 'NONE', *, *, #266, .F. ) ;
#636 = EDGE_CURVE ( 'NONE', #625, #375, #51, .T. ) ;
#637 = FACE_OUTER_BOUND ( 'NONE', #600, .T. ) ;
#638 = LINE ( 'NONE', #290, #90 ) ;
#639 = EDGE_CURVE ( 'NONE', #458, #404, #218, .T. ) ;
#640 = DIRECTION ( 'NONE',  ( -1.000000000000000000, 0.000000000000000000, 0.000000000000000000 ) ) ;
#641 = CC_DESIGN_DATE_AND_TIME_ASSIGNMENT ( #324, #535, ( #558 ) ) ;
#642 = ORIENTED_EDGE ( 'NONE', *, *, #387, .F. ) ;
#643 = EDGE_LOOP ( 'NONE', ( #538, #230, #427, #184 ) ) ;
#644 = FACE_OUTER_BOUND ( 'NONE', #407, .T. ) ;
#645 = VECTOR ( 'NONE', #653, 1000.000000000000000 ) ;
#646 = EDGE_CURVE ( 'NONE', #192, #60, #572, .T. ) ;
#647 = VECTOR ( 'NONE', #7, 1000.000000000000000 ) ;
#648 = CARTESIAN_POINT ( 'NONE',  ( 36.79999999999998295, -26.79999999999999716, 0.000000000000000000 ) ) ;
#649 = EDGE_LOOP ( 'NONE', ( #497, #587, #430, #49, #87, #221, #396, #202 ) ) ;
#650 = DIRECTION ( 'NONE',  ( -1.000000000000000000, 0.000000000000000000, 0.000000000000000000 ) ) ;
#651 = ORIENTED_EDGE ( 'NONE', *, *, #537, .F. ) ;
#652 = CC_DESIGN_PERSON_AND_ORGANIZATION_ASSIGNMENT ( #624, #27, ( #558 ) ) ;
#653 = DIRECTION ( 'NONE',  ( -1.294569758191647155E-16, 1.000000000000000000, 0.000000000000000000 ) ) ;
ENDSEC;
END-ISO-10303-21;
