ISO-10303-21;
HEADER;
FILE_DESCRIPTION (( 'STEP AP203' ),
    '1' );
FILE_NAME ('Rectangle - 100.0 X 25.0 X 1.60.step',
    '2026-04-16T14:15:23',
    ( '' ),
    ( '' ),
    'SwSTEP 2.0',
    'SolidWorks 2023',
    '' );
FILE_SCHEMA (( 'CONFIG_CONTROL_DESIGN' ));
ENDSEC;

DATA;
#1 = DIRECTION ( 'NONE',  ( 0.000000000000000000, 1.000000000000000000, 0.000000000000000000 ) ) ;
#2 = PLANE ( 'NONE',  #216 ) ;
#3 = APPROVAL_ROLE ( '' ) ;
#4 = ORIENTED_EDGE ( 'NONE', *, *, #600, .T. ) ;
#5 = DIRECTION ( 'NONE',  ( -1.000000000000000000, 0.000000000000000000, 0.000000000000000000 ) ) ;
#6 = DIRECTION ( 'NONE',  ( 0.000000000000000000, -1.000000000000000000, 0.000000000000000000 ) ) ;
#7 = ORIENTED_EDGE ( 'NONE', *, *, #232, .F. ) ;
#8 = FACE_OUTER_BOUND ( 'NONE', #271, .T. ) ;
#9 = CARTESIAN_POINT ( 'NONE',  ( -46.79999999999999005, -12.50000000000000000, 0.000000000000000000 ) ) ;
#10 = CC_DESIGN_DATE_AND_TIME_ASSIGNMENT ( #599, #502, ( #385 ) ) ;
#11 = ORIENTED_EDGE ( 'NONE', *, *, #147, .F. ) ;
#12 = EDGE_CURVE ( 'NONE', #261, #17, #227, .T. ) ;
#13 = DIRECTION ( 'NONE',  ( 3.730588120380229462E-16, -1.000000000000000000, -0.000000000000000000 ) ) ;
#14 = CARTESIAN_POINT ( 'NONE',  ( 46.80000000000001847, -12.50000000000000000, 0.000000000000000000 ) ) ;
#15 = ORIENTED_EDGE ( 'NONE', *, *, #646, .T. ) ;
#16 = CARTESIAN_POINT ( 'NONE',  ( -48.39999999999999147, 9.300000000000002487, 1000.000000000000000 ) ) ;
#17 = VERTEX_POINT ( 'NONE', #478 ) ;
#18 = ORIENTED_EDGE ( 'NONE', *, *, #638, .F. ) ;
#19 = AXIS2_PLACEMENT_3D ( 'NONE', #113, #323, #521 ) ;
#20 = AXIS2_PLACEMENT_3D ( 'NONE', #387, #191, #395 ) ;
#21 = EDGE_LOOP ( 'NONE', ( #32, #621, #165, #30 ) ) ;
#22 = DIRECTION ( 'NONE',  ( -0.000000000000000000, -0.000000000000000000, -1.000000000000000000 ) ) ;
#23 = LOCAL_TIME ( 16, 15, 23.00000000000000000, #441 ) ;
#24 = DIRECTION ( 'NONE',  ( -0.000000000000000000, 0.000000000000000000, -1.000000000000000000 ) ) ;
#25 = EDGE_CURVE ( 'NONE', #622, #209, #379, .T. ) ;
#26 = VECTOR ( 'NONE', #315, 1000.000000000000000 ) ;
#27 = VECTOR ( 'NONE', #500, 1000.000000000000000 ) ;
#28 = ORIENTED_EDGE ( 'NONE', *, *, #616, .T. ) ;
#29 = ORIENTED_EDGE ( 'NONE', *, *, #284, .F. ) ;
#30 = ORIENTED_EDGE ( 'NONE', *, *, #121, .T. ) ;
#31 = LINE ( 'NONE', #420, #128 ) ;
#32 = ORIENTED_EDGE ( 'NONE', *, *, #316, .T. ) ;
#33 = DIRECTION ( 'NONE',  ( 0.000000000000000000, -0.000000000000000000, -1.000000000000000000 ) ) ;
#34 = ORIENTED_EDGE ( 'NONE', *, *, #646, .F. ) ;
#35 = EDGE_CURVE ( 'NONE', #224, #362, #468, .T. ) ;
#36 = MANIFOLD_SOLID_BREP ( 'Boss-Extrude1', #523 ) ;
#37 = CARTESIAN_POINT ( 'NONE',  ( -46.79999999999999005, -12.50000000000000000, 1000.000000000000000 ) ) ;
#38 = COORDINATED_UNIVERSAL_TIME_OFFSET ( 2, 0, .AHEAD. ) ;
#39 = LINE ( 'NONE', #445, #332 ) ;
#40 = ADVANCED_FACE ( 'NONE', ( #173, #269 ), #568, .F. ) ;
#41 = CALENDAR_DATE ( 2026, 16, 4 ) ;
#42 = DIRECTION ( 'NONE',  ( -0.000000000000000000, -0.000000000000000000, -1.000000000000000000 ) ) ;
#43 = AXIS2_PLACEMENT_3D ( 'NONE', #547, #406, #109 ) ;
#44 = DIRECTION ( 'NONE',  ( -0.000000000000000000, -0.000000000000000000, -1.000000000000000000 ) ) ;
#45 = EDGE_CURVE ( 'NONE', #17, #224, #31, .T. ) ;
#46 = DIRECTION ( 'NONE',  ( -0.000000000000000000, -0.000000000000000000, -1.000000000000000000 ) ) ;
#47 = CIRCLE ( 'NONE', #190, 3.200000000000001510 ) ;
#48 = COORDINATED_UNIVERSAL_TIME_OFFSET ( 2, 0, .AHEAD. ) ;
#49 = PRODUCT_DEFINITION_FORMATION_WITH_SPECIFIED_SOURCE ( 'ANY', '', #388, .NOT_KNOWN. ) ;
#50 = DIRECTION ( 'NONE',  ( 0.000000000000000000, 1.000000000000000000, 0.000000000000000000 ) ) ;
#51 = CIRCLE ( 'NONE', #238, 1.600000000000004086 ) ;
#52 = DIRECTION ( 'NONE',  ( -0.000000000000000000, -0.000000000000000000, -1.000000000000000000 ) ) ;
#53 = EDGE_LOOP ( 'NONE', ( #215, #255, #126, #170, #520, #532, #613, #107 ) ) ;
#54 = CARTESIAN_POINT ( 'NONE',  ( -46.79999999999999005, -9.300000000000002487, 0.000000000000000000 ) ) ;
#55 = CARTESIAN_POINT ( 'NONE',  ( 48.40000000000001990, -9.299999999999998934, 1000.000000000000000 ) ) ;
#56 = EDGE_LOOP ( 'NONE', ( #380, #509, #526, #4 ) ) ;
#57 = CARTESIAN_POINT ( 'NONE',  ( 50.00000000000001421, 9.300000000000000711, 0.000000000000000000 ) ) ;
#58 = CARTESIAN_POINT ( 'NONE',  ( 48.40000000000001279, 9.300000000000000711, 0.000000000000000000 ) ) ;
#59 = ADVANCED_FACE ( 'NONE', ( #169 ), #372, .T. ) ;
#60 = ORIENTED_EDGE ( 'NONE', *, *, #564, .T. ) ;
#61 = DIRECTION ( 'NONE',  ( -1.000000000000000000, 0.000000000000000000, 0.000000000000000000 ) ) ;
#62 = CARTESIAN_POINT ( 'NONE',  ( -46.79999999999999005, -9.300000000000002487, 0.000000000000000000 ) ) ;
#63 = ORIENTED_EDGE ( 'NONE', *, *, #361, .F. ) ;
#64 = CYLINDRICAL_SURFACE ( 'NONE', #338, 3.200000000000001510 ) ;
#65 = CARTESIAN_POINT ( 'NONE',  ( -49.99999999999998579, -9.300000000000002487, 0.000000000000000000 ) ) ;
#66 = ORIENTED_EDGE ( 'NONE', *, *, #45, .F. ) ;
#67 = DIRECTION ( 'NONE',  ( -1.000000000000000000, 0.000000000000000000, 0.000000000000000000 ) ) ;
#68 = EDGE_CURVE ( 'NONE', #622, #463, #298, .T. ) ;
#69 = ORIENTED_EDGE ( 'NONE', *, *, #531, .F. ) ;
#70 = ADVANCED_FACE ( 'NONE', ( #428 ), #628, .F. ) ;
#71 = VERTEX_POINT ( 'NONE', #320 ) ;
#72 = LOCAL_TIME ( 16, 15, 23.00000000000000000, #38 ) ;
#73 = ORIENTED_EDGE ( 'NONE', *, *, #638, .T. ) ;
#74 = CIRCLE ( 'NONE', #444, 1.599999999999997202 ) ;
#75 = ORIENTED_EDGE ( 'NONE', *, *, #603, .T. ) ;
#76 = LINE ( 'NONE', #221, #97 ) ;
#77 = DIRECTION ( 'NONE',  ( -0.000000000000000000, -0.000000000000000000, -1.000000000000000000 ) ) ;
#78 = VERTEX_POINT ( 'NONE', #598 ) ;
#79 = CARTESIAN_POINT ( 'NONE',  ( 46.80000000000001847, -10.90000000000000391, 1000.000000000000000 ) ) ;
#80 = VERTEX_POINT ( 'NONE', #501 ) ;
#81 = VECTOR ( 'NONE', #44, 1000.000000000000000 ) ;
#82 = PLANE ( 'NONE',  #527 ) ;
#83 = APPROVAL_ROLE ( '' ) ;
#84 = PERSON_AND_ORGANIZATION ( #511, #585 ) ;
#85 = CARTESIAN_POINT ( 'NONE',  ( 46.80000000000000426, 10.90000000000000036, 1000.000000000000000 ) ) ;
#86 = EDGE_CURVE ( 'NONE', #461, #465, #96, .T. ) ;
#87 = PERSON_AND_ORGANIZATION ( #511, #585 ) ;
#88 = EDGE_CURVE ( 'NONE', #415, #71, #142, .T. ) ;
#89 = CYLINDRICAL_SURFACE ( 'NONE', #20, 3.200000000000001510 ) ;
#90 = CARTESIAN_POINT ( 'NONE',  ( 46.80000000000001847, -9.300000000000000711, 1000.000000000000000 ) ) ;
#91 = CARTESIAN_POINT ( 'NONE',  ( -46.79999999999999005, 12.50000000000000000, 1000.000000000000000 ) ) ;
#92 = CARTESIAN_POINT ( 'NONE',  ( -46.79999999999999005, -9.300000000000002487, 1000.000000000000000 ) ) ;
#93 = AXIS2_PLACEMENT_3D ( 'NONE', #183, #318, #306 ) ;
#94 = CARTESIAN_POINT ( 'NONE',  ( -46.79999999999999005, 10.90000000000000036, 1000.000000000000000 ) ) ;
#95 = CARTESIAN_POINT ( 'NONE',  ( -46.79999999999999005, 12.50000000000000000, 0.000000000000000000 ) ) ;
#96 = CIRCLE ( 'NONE', #274, 3.200000000000001510 ) ;
#97 = VECTOR ( 'NONE', #583, 1000.000000000000000 ) ;
#98 = CARTESIAN_POINT ( 'NONE',  ( 46.80000000000001137, 10.90000000000000036, 1000.000000000000000 ) ) ;
#99 = ORIENTED_EDGE ( 'NONE', *, *, #487, .T. ) ;
#100 = CARTESIAN_POINT ( 'NONE',  ( -48.39999999999998437, -9.300000000000002487, 0.000000000000000000 ) ) ;
#101 = DIRECTION ( 'NONE',  ( -0.000000000000000000, -0.000000000000000000, -1.000000000000000000 ) ) ;
#102 = EDGE_CURVE ( 'NONE', #335, #362, #254, .T. ) ;
#103 = VERTEX_POINT ( 'NONE', #451 ) ;
#104 = PLANE ( 'NONE',  #617 ) ;
#105 = LINE ( 'NONE', #651, #530 ) ;
#106 = VECTOR ( 'NONE', #619, 1000.000000000000000 ) ;
#107 = ORIENTED_EDGE ( 'NONE', *, *, #140, .F. ) ;
#108 = DIRECTION ( 'NONE',  ( 0.000000000000000000, -0.000000000000000000, 1.000000000000000000 ) ) ;
#109 = DIRECTION ( 'NONE',  ( -1.000000000000000000, 0.000000000000000000, 0.000000000000000000 ) ) ;
#110 = ORIENTED_EDGE ( 'NONE', *, *, #181, .T. ) ;
#111 = EDGE_CURVE ( 'NONE', #261, #470, #604, .T. ) ;
#112 = CARTESIAN_POINT ( 'NONE',  ( -46.79999999999999005, -9.300000000000002487, 1000.000000000000000 ) ) ;
#113 = CARTESIAN_POINT ( 'NONE',  ( -46.79999999999999005, 9.300000000000000711, 1000.000000000000000 ) ) ;
#114 = ORIENTED_EDGE ( 'NONE', *, *, #250, .F. ) ;
#115 = CARTESIAN_POINT ( 'NONE',  ( -46.79999999999999005, -9.300000000000002487, 1000.000000000000000 ) ) ;
#116 = ORIENTED_EDGE ( 'NONE', *, *, #12, .F. ) ;
#117 = ORIENTED_EDGE ( 'NONE', *, *, #398, .T. ) ;
#118 = DIRECTION ( 'NONE',  ( -0.000000000000000000, -0.000000000000000000, -1.000000000000000000 ) ) ;
#119 = CARTESIAN_POINT ( 'NONE',  ( -46.79999999999999005, 9.300000000000000711, 1000.000000000000000 ) ) ;
#120 = VERTEX_POINT ( 'NONE', #458 ) ;
#121 = EDGE_CURVE ( 'NONE', #463, #120, #519, .T. ) ;
#122 = CARTESIAN_POINT ( 'NONE',  ( 46.80000000000001847, -9.300000000000000711, 1000.000000000000000 ) ) ;
#123 = CIRCLE ( 'NONE', #43, 3.200000000000001510 ) ;
#124 = CARTESIAN_POINT ( 'NONE',  ( 46.80000000000001847, -12.50000000000000000, 1000.000000000000000 ) ) ;
#125 = ADVANCED_FACE ( 'NONE', ( #158 ), #515, .F. ) ;
#126 = ORIENTED_EDGE ( 'NONE', *, *, #442, .F. ) ;
#127 = DIRECTION ( 'NONE',  ( 1.000000000000000000, 0.000000000000000000, 0.000000000000000000 ) ) ;
#128 = VECTOR ( 'NONE', #624, 1000.000000000000000 ) ;
#129 = CIRCLE ( 'NONE', #213, 3.200000000000001510 ) ;
#130 = PERSON_AND_ORGANIZATION_ROLE ( 'creator' ) ;
#131 = LOCAL_TIME ( 16, 15, 23.00000000000000000, #486 ) ;
#132 = AXIS2_PLACEMENT_3D ( 'NONE', #367, #1, #464 ) ;
#133 = DATE_AND_TIME ( #289, #161 ) ;
#134 = DIRECTION ( 'NONE',  ( -0.000000000000000000, -0.000000000000000000, -1.000000000000000000 ) ) ;
#135 = DATE_AND_TIME ( #182, #23 ) ;
#136 = FACE_OUTER_BOUND ( 'NONE', #56, .T. ) ;
#137 = DIRECTION ( 'NONE',  ( -0.000000000000000000, -0.000000000000000000, -1.000000000000000000 ) ) ;
#138 = CC_DESIGN_PERSON_AND_ORGANIZATION_ASSIGNMENT ( #491, #130, ( #49 ) ) ;
#139 = CARTESIAN_POINT ( 'NONE',  ( 48.40000000000001279, 9.300000000000000711, 1000.000000000000000 ) ) ;
#140 = EDGE_CURVE ( 'NONE', #282, #209, #454, .T. ) ;
#141 = CARTESIAN_POINT ( 'NONE',  ( 46.80000000000001137, 10.90000000000000036, 0.000000000000000000 ) ) ;
#142 = LINE ( 'NONE', #551, #184 ) ;
#143 = CARTESIAN_POINT ( 'NONE',  ( 48.40000000000001279, 9.300000000000000711, 1000.000000000000000 ) ) ;
#144 = CARTESIAN_POINT ( 'NONE',  ( -46.79999999999999005, 10.90000000000000036, 1000.000000000000000 ) ) ;
#145 = LOCAL_TIME ( 16, 15, 23.00000000000000000, #48 ) ;
#146 = VERTEX_POINT ( 'NONE', #201 ) ;
#147 = EDGE_CURVE ( 'NONE', #78, #452, #557, .T. ) ;
#148 = DIRECTION ( 'NONE',  ( -1.000000000000000000, 0.000000000000000000, 0.000000000000000000 ) ) ;
#149 = AXIS2_PLACEMENT_3D ( 'NONE', #510, #355, #61 ) ;
#150 = LINE ( 'NONE', #352, #579 ) ;
#151 = VECTOR ( 'NONE', #539, 1000.000000000000000 ) ;
#152 = EDGE_LOOP ( 'NONE', ( #565, #114, #606, #484 ) ) ;
#153 = CARTESIAN_POINT ( 'NONE',  ( -46.79999999999999005, -10.90000000000000036, 1000.000000000000000 ) ) ;
#154 = CARTESIAN_POINT ( 'NONE',  ( -49.99999999999998579, -9.300000000000002487, 1000.000000000000000 ) ) ;
#155 = ORIENTED_EDGE ( 'NONE', *, *, #652, .F. ) ;
#156 = LINE ( 'NONE', #364, #504 ) ;
#157 = EDGE_LOOP ( 'NONE', ( #407, #403, #471, #220 ) ) ;
#158 = FACE_OUTER_BOUND ( 'NONE', #429, .T. ) ;
#159 = AXIS2_PLACEMENT_3D ( 'NONE', #566, #50, #108 ) ;
#160 = EDGE_CURVE ( 'NONE', #264, #282, #473, .T. ) ;
#161 = LOCAL_TIME ( 16, 15, 23.00000000000000000, #489 ) ;
#162 = ORIENTED_EDGE ( 'NONE', *, *, #12, .T. ) ;
#163 = CC_DESIGN_DATE_AND_TIME_ASSIGNMENT ( #133, #236, ( #635 ) ) ;
#164 = DIRECTION ( 'NONE',  ( 0.000000000000000000, 0.000000000000000000, 1.000000000000000000 ) ) ;
#165 = ORIENTED_EDGE ( 'NONE', *, *, #544, .F. ) ;
#166 = ORIENTED_EDGE ( 'NONE', *, *, #300, .T. ) ;
#167 = CARTESIAN_POINT ( 'NONE',  ( -46.79999999999999005, 9.300000000000000711, 0.000000000000000000 ) ) ;
#168 = ORIENTED_EDGE ( 'NONE', *, *, #481, .T. ) ;
#169 = FACE_OUTER_BOUND ( 'NONE', #505, .T. ) ;
#170 = ORIENTED_EDGE ( 'NONE', *, *, #422, .F. ) ;
#171 = DIRECTION ( 'NONE',  ( -1.000000000000000000, 0.000000000000000000, 0.000000000000000000 ) ) ;
#172 = ORIENTED_EDGE ( 'NONE', *, *, #487, .F. ) ;
#173 = FACE_OUTER_BOUND ( 'NONE', #625, .T. ) ;
#174 = EDGE_LOOP ( 'NONE', ( #34, #63, #99, #73 ) ) ;
#175 = ADVANCED_FACE ( 'NONE', ( #563 ), #2, .F. ) ;
#176 = ORIENTED_EDGE ( 'NONE', *, *, #645, .T. ) ;
#177 = VERTEX_POINT ( 'NONE', #144 ) ;
#178 = DIRECTION ( 'NONE',  ( 0.000000000000000000, -1.000000000000000000, 0.000000000000000000 ) ) ;
#179 = EDGE_LOOP ( 'NONE', ( #279, #202, #419, #632 ) ) ;
#180 = PLANE ( 'NONE',  #185 ) ;
#181 = EDGE_CURVE ( 'NONE', #80, #434, #123, .T. ) ;
#182 = CALENDAR_DATE ( 2026, 16, 4 ) ;
#183 = CARTESIAN_POINT ( 'NONE',  ( 46.80000000000001847, -9.300000000000000711, 1000.000000000000000 ) ) ;
#184 = VECTOR ( 'NONE', #52, 1000.000000000000000 ) ;
#185 = AXIS2_PLACEMENT_3D ( 'NONE', #283, #178, #33 ) ;
#186 = PERSON_AND_ORGANIZATION ( #511, #585 ) ;
#187 = CARTESIAN_POINT ( 'NONE',  ( -49.99999999999998579, 9.300000000000000711, 1000.000000000000000 ) ) ;
#188 = APPROVAL_STATUS ( 'not_yet_approved' ) ;
#189 = DIRECTION ( 'NONE',  ( -0.000000000000000000, -0.000000000000000000, -1.000000000000000000 ) ) ;
#190 = AXIS2_PLACEMENT_3D ( 'NONE', #290, #596, #639 ) ;
#191 = DIRECTION ( 'NONE',  ( -0.000000000000000000, -0.000000000000000000, -1.000000000000000000 ) ) ;
#192 = EDGE_CURVE ( 'NONE', #199, #264, #197, .T. ) ;
#193 = LINE ( 'NONE', #234, #384 ) ;
#194 = DIRECTION ( 'NONE',  ( -0.000000000000000000, -0.000000000000000000, -1.000000000000000000 ) ) ;
#195 = APPROVAL_DATE_TIME ( #291, #653 ) ;
#196 = CARTESIAN_POINT ( 'NONE',  ( -46.79999999999999005, -12.50000000000000000, 1000.000000000000000 ) ) ;
#197 = LINE ( 'NONE', #65, #241 ) ;
#198 = EDGE_CURVE ( 'NONE', #434, #432, #150, .T. ) ;
#199 = VERTEX_POINT ( 'NONE', #356 ) ;
#200 = CARTESIAN_POINT ( 'NONE',  ( 46.80000000000001137, 12.50000000000000355, 0.000000000000000000 ) ) ;
#201 = CARTESIAN_POINT ( 'NONE',  ( 46.80000000000001847, -10.90000000000000391, 0.000000000000000000 ) ) ;
#202 = ORIENTED_EDGE ( 'NONE', *, *, #392, .F. ) ;
#203 = CARTESIAN_POINT ( 'NONE',  ( -49.99999999999998579, -9.300000000000002487, 1000.000000000000000 ) ) ;
#204 = DIRECTION ( 'NONE',  ( -0.000000000000000000, -1.000000000000000000, -0.000000000000000000 ) ) ;
#205 = CIRCLE ( 'NONE', #396, 1.599999999999997202 ) ;
#206 = EDGE_LOOP ( 'NONE', ( #634, #18, #60, #573 ) ) ;
#207 = FACE_OUTER_BOUND ( 'NONE', #425, .T. ) ;
#208 = DIRECTION ( 'NONE',  ( 1.000000000000000000, 0.000000000000000000, 0.000000000000000000 ) ) ;
#209 = VERTEX_POINT ( 'NONE', #14 ) ;
#210 = DIRECTION ( 'NONE',  ( 1.000000000000000000, 0.000000000000000000, 0.000000000000000000 ) ) ;
#211 = ORIENTED_EDGE ( 'NONE', *, *, #35, .T. ) ;
#212 = DIRECTION ( 'NONE',  ( -1.000000000000000000, 0.000000000000000000, 0.000000000000000000 ) ) ;
#213 = AXIS2_PLACEMENT_3D ( 'NONE', #497, #490, #393 ) ;
#214 = APPROVAL_PERSON_ORGANIZATION ( #436, #553, #83 ) ;
#215 = ORIENTED_EDGE ( 'NONE', *, *, #160, .F. ) ;
#216 = AXIS2_PLACEMENT_3D ( 'NONE', #307, #6, #507 ) ;
#217 = DIRECTION ( 'NONE',  ( -0.000000000000000000, -0.000000000000000000, -1.000000000000000000 ) ) ;
#218 = VECTOR ( 'NONE', #612, 1000.000000000000000 ) ;
#219 = CIRCLE ( 'NONE', #149, 1.600000000000004086 ) ;
#220 = ORIENTED_EDGE ( 'NONE', *, *, #102, .T. ) ;
#221 = CARTESIAN_POINT ( 'NONE',  ( -46.79999999999999005, 10.90000000000000036, 0.000000000000000000 ) ) ;
#222 = DIRECTION ( 'NONE',  ( 1.000000000000000000, 0.000000000000000000, 0.000000000000000000 ) ) ;
#223 = ORIENTED_EDGE ( 'NONE', *, *, #344, .T. ) ;
#224 = VERTEX_POINT ( 'NONE', #58 ) ;
#225 = ADVANCED_FACE ( 'NONE', ( #360 ), #257, .F. ) ;
#226 = CARTESIAN_POINT ( 'NONE',  ( -48.39999999999999147, 9.300000000000002487, 0.000000000000000000 ) ) ;
#227 = LINE ( 'NONE', #368, #235 ) ;
#228 = ORIENTED_EDGE ( 'NONE', *, *, #140, .T. ) ;
#229 = CARTESIAN_POINT ( 'NONE',  ( 46.80000000000001847, -12.50000000000000000, 1000.000000000000000 ) ) ;
#230 = ORIENTED_EDGE ( 'NONE', *, *, #111, .T. ) ;
#231 = LINE ( 'NONE', #630, #330 ) ;
#232 = EDGE_CURVE ( 'NONE', #452, #264, #105, .T. ) ;
#233 = PERSON_AND_ORGANIZATION ( #511, #585 ) ;
#234 = CARTESIAN_POINT ( 'NONE',  ( -46.79999999999999005, -10.90000000000000036, 0.000000000000000000 ) ) ;
#235 = VECTOR ( 'NONE', #217, 1000.000000000000000 ) ;
#236 = DATE_TIME_ROLE ( 'creation_date' ) ;
#237 = DIRECTION ( 'NONE',  ( 1.000000000000000000, 0.000000000000000000, 0.000000000000000000 ) ) ;
#238 = AXIS2_PLACEMENT_3D ( 'NONE', #248, #256, #611 ) ;
#239 = APPROVAL_DATE_TIME ( #135, #252 ) ;
#240 = CARTESIAN_POINT ( 'NONE',  ( 46.80000000000001137, 12.50000000000000355, 1000.000000000000000 ) ) ;
#241 = VECTOR ( 'NONE', #204, 1000.000000000000000 ) ;
#242 = CC_DESIGN_PERSON_AND_ORGANIZATION_ASSIGNMENT ( #84, #590, ( #385 ) ) ;
#243 = EDGE_CURVE ( 'NONE', #335, #177, #631, .T. ) ;
#244 = CARTESIAN_POINT ( 'NONE',  ( -48.39999999999998437, -9.300000000000002487, 1000.000000000000000 ) ) ;
#245 = AXIS2_PLACEMENT_3D ( 'NONE', #602, #607, #148 ) ;
#246 = DIRECTION ( 'NONE',  ( -1.000000000000000000, 0.000000000000000000, 0.000000000000000000 ) ) ;
#247 = CC_DESIGN_APPROVAL ( #252, ( #49 ) ) ;
#248 = CARTESIAN_POINT ( 'NONE',  ( 46.80000000000001137, 9.300000000000000711, 1000.000000000000000 ) ) ;
#249 = DIRECTION ( 'NONE',  ( 0.000000000000000000, 0.000000000000000000, 1.000000000000000000 ) ) ;
#250 = EDGE_CURVE ( 'NONE', #432, #569, #303, .T. ) ;
#251 = ORIENTED_EDGE ( 'NONE', *, *, #25, .T. ) ;
#252 = APPROVAL ( #538, 'UNSPECIFIED' ) ;
#253 = CARTESIAN_POINT ( 'NONE',  ( 46.80000000000001137, 12.50000000000000355, 1000.000000000000000 ) ) ;
#254 = LINE ( 'NONE', #98, #26 ) ;
#255 = ORIENTED_EDGE ( 'NONE', *, *, #192, .F. ) ;
#256 = DIRECTION ( 'NONE',  ( 0.000000000000000000, 0.000000000000000000, 1.000000000000000000 ) ) ;
#257 = CYLINDRICAL_SURFACE ( 'NONE', #493, 1.599999999999997202 ) ;
#258 = VERTEX_POINT ( 'NONE', #244 ) ;
#259 = FACE_OUTER_BOUND ( 'NONE', #179, .T. ) ;
#260 = DIRECTION ( 'NONE',  ( -1.000000000000000000, 0.000000000000000000, 0.000000000000000000 ) ) ;
#261 = VERTEX_POINT ( 'NONE', #443 ) ;
#262 = EDGE_CURVE ( 'NONE', #470, #224, #644, .T. ) ;
#263 = PLANE ( 'NONE',  #132 ) ;
#264 = VERTEX_POINT ( 'NONE', #399 ) ;
#265 = CARTESIAN_POINT ( 'NONE',  ( -46.79999999999999005, -9.300000000000002487, 1000.000000000000000 ) ) ;
#266 = ORIENTED_EDGE ( 'NONE', *, *, #276, .F. ) ;
#267 = DIRECTION ( 'NONE',  ( 1.000000000000000000, 3.730588120380229462E-16, -0.000000000000000000 ) ) ;
#268 = ORIENTED_EDGE ( 'NONE', *, *, #508, .F. ) ;
#269 = FACE_BOUND ( 'NONE', #529, .T. ) ;
#270 = AXIS2_PLACEMENT_3D ( 'NONE', #167, #375, #533 ) ;
#271 = EDGE_LOOP ( 'NONE', ( #228, #277, #518, #578 ) ) ;
#272 = CARTESIAN_POINT ( 'NONE',  ( 50.00000000000001421, 9.300000000000000711, 1000.000000000000000 ) ) ;
#273 = ORIENTED_EDGE ( 'NONE', *, *, #45, .T. ) ;
#274 = AXIS2_PLACEMENT_3D ( 'NONE', #615, #402, #414 ) ;
#275 = AXIS2_PLACEMENT_3D ( 'NONE', #485, #267, #383 ) ;
#276 = EDGE_CURVE ( 'NONE', #415, #376, #39, .T. ) ;
#277 = ORIENTED_EDGE ( 'NONE', *, *, #25, .F. ) ;
#278 = DIRECTION ( 'NONE',  ( -1.000000000000000000, 0.000000000000000000, 0.000000000000000000 ) ) ;
#279 = ORIENTED_EDGE ( 'NONE', *, *, #160, .T. ) ;
#280 = VECTOR ( 'NONE', #189, 1000.000000000000000 ) ;
#281 = ORIENTED_EDGE ( 'NONE', *, *, #361, .T. ) ;
#282 = VERTEX_POINT ( 'NONE', #446 ) ;
#283 = CARTESIAN_POINT ( 'NONE',  ( -46.79999999999999005, 10.90000000000000036, 1000.000000000000000 ) ) ;
#284 = EDGE_CURVE ( 'NONE', #258, #415, #205, .T. ) ;
#285 = APPROVAL_DATE_TIME ( #342, #553 ) ;
#286 = PRODUCT_DEFINITION_SHAPE ( 'NONE', 'NONE',  #635 ) ;
#287 = PLANE ( 'NONE',  #584 ) ;
#288 = EDGE_CURVE ( 'NONE', #78, #199, #597, .T. ) ;
#289 = CALENDAR_DATE ( 2026, 16, 4 ) ;
#290 = CARTESIAN_POINT ( 'NONE',  ( 46.80000000000001847, -9.300000000000000711, 0.000000000000000000 ) ) ;
#291 = DATE_AND_TIME ( #394, #145 ) ;
#292 = ADVANCED_FACE ( 'NONE', ( #136 ), #89, .T. ) ;
#293 = DIRECTION ( 'NONE',  ( -0.000000000000000000, -0.000000000000000000, -1.000000000000000000 ) ) ;
#294 = VECTOR ( 'NONE', #400, 1000.000000000000000 ) ;
#295 = UNCERTAINTY_MEASURE_WITH_UNIT (LENGTH_MEASURE( 1.000000000000000082E-05 ), #378, 'distance_accuracy_value', 'NONE');
#296 = CYLINDRICAL_SURFACE ( 'NONE', #299, 1.600000000000004086 ) ;
#297 = SHAPE_DEFINITION_REPRESENTATION ( #286, #479 ) ;
#298 = CIRCLE ( 'NONE', #440, 3.200000000000001510 ) ;
#299 = AXIS2_PLACEMENT_3D ( 'NONE', #90, #46, #246 ) ;
#300 = EDGE_CURVE ( 'NONE', #432, #78, #129, .T. ) ;
#301 = CARTESIAN_POINT ( 'NONE',  ( 46.80000000000001137, 9.300000000000000711, 1000.000000000000000 ) ) ;
#302 = APPROVAL_PERSON_ORGANIZATION ( #186, #252, #637 ) ;
#303 = LINE ( 'NONE', #91, #411 ) ;
#304 = AXIS2_PLACEMENT_3D ( 'NONE', #154, #310, #608 ) ;
#305 = CIRCLE ( 'NONE', #474, 1.600000000000004086 ) ;
#306 = DIRECTION ( 'NONE',  ( 1.000000000000000000, 0.000000000000000000, 0.000000000000000000 ) ) ;
#307 = CARTESIAN_POINT ( 'NONE',  ( -46.79999999999999005, 12.50000000000000000, 1000.000000000000000 ) ) ;
#308 = ORIENTED_EDGE ( 'NONE', *, *, #544, .T. ) ;
#309 = CARTESIAN_POINT ( 'NONE',  ( 46.80000000000001847, -9.300000000000000711, 0.000000000000000000 ) ) ;
#310 = DIRECTION ( 'NONE',  ( 1.000000000000000000, 0.000000000000000000, 0.000000000000000000 ) ) ;
#311 = ORIENTED_EDGE ( 'NONE', *, *, #147, .T. ) ;
#312 = CC_DESIGN_PERSON_AND_ORGANIZATION_ASSIGNMENT ( #87, #339, ( #635 ) ) ;
#313 = LINE ( 'NONE', #453, #106 ) ;
#314 = ORIENTED_EDGE ( 'NONE', *, *, #652, .T. ) ;
#315 = DIRECTION ( 'NONE',  ( -0.000000000000000000, -0.000000000000000000, -1.000000000000000000 ) ) ;
#316 = EDGE_CURVE ( 'NONE', #120, #461, #591, .T. ) ;
#317 = ORIENTED_EDGE ( 'NONE', *, *, #408, .F. ) ;
#318 = DIRECTION ( 'NONE',  ( 0.000000000000000000, 0.000000000000000000, 1.000000000000000000 ) ) ;
#319 = ORIENTED_EDGE ( 'NONE', *, *, #88, .F. ) ;
#320 = CARTESIAN_POINT ( 'NONE',  ( -46.79999999999999005, -10.90000000000000036, 0.000000000000000000 ) ) ;
#321 = ORIENTED_EDGE ( 'NONE', *, *, #68, .F. ) ;
#322 = FACE_OUTER_BOUND ( 'NONE', #21, .T. ) ;
#323 = DIRECTION ( 'NONE',  ( -0.000000000000000000, -0.000000000000000000, -1.000000000000000000 ) ) ;
#324 = ORIENTED_EDGE ( 'NONE', *, *, #88, .T. ) ;
#325 = DIRECTION ( 'NONE',  ( 1.000000000000000000, 0.000000000000000000, 0.000000000000000000 ) ) ;
#326 = DIRECTION ( 'NONE',  ( -0.000000000000000000, -0.000000000000000000, -1.000000000000000000 ) ) ;
#327 = ORIENTED_EDGE ( 'NONE', *, *, #564, .F. ) ;
#328 = CARTESIAN_POINT ( 'NONE',  ( -46.79999999999999005, -12.50000000000000000, 1000.000000000000000 ) ) ;
#329 = CARTESIAN_POINT ( 'NONE',  ( 46.80000000000001847, -9.300000000000000711, 1000.000000000000000 ) ) ;
#330 = VECTOR ( 'NONE', #118, 1000.000000000000000 ) ;
#331 = EDGE_LOOP ( 'NONE', ( #223, #480, #321, #251 ) ) ;
#332 = VECTOR ( 'NONE', #237, 1000.000000000000000 ) ;
#333 = LINE ( 'NONE', #272, #390 ) ;
#334 = DIRECTION ( 'NONE',  ( -1.000000000000000000, 0.000000000000000000, 0.000000000000000000 ) ) ;
#335 = VERTEX_POINT ( 'NONE', #85 ) ;
#336 = APPLICATION_PROTOCOL_DEFINITION ( 'international standard', 'config_control_design', 1994, #373 ) ;
#337 = SECURITY_CLASSIFICATION_LEVEL ( 'unclassified' ) ;
#338 = AXIS2_PLACEMENT_3D ( 'NONE', #112, #460, #556 ) ;
#339 = PERSON_AND_ORGANIZATION_ROLE ( 'creator' ) ;
#340 = DIRECTION ( 'NONE',  ( -1.000000000000000000, 0.000000000000000000, 0.000000000000000000 ) ) ;
#341 = ADVANCED_FACE ( 'NONE', ( #343 ), #287, .T. ) ;
#342 = DATE_AND_TIME ( #41, #72 ) ;
#343 = FACE_OUTER_BOUND ( 'NONE', #534, .T. ) ;
#344 = EDGE_CURVE ( 'NONE', #209, #120, #47, .T. ) ;
#345 = LINE ( 'NONE', #543, #81 ) ;
#346 = CARTESIAN_POINT ( 'NONE',  ( 48.40000000000001990, -9.299999999999998934, 1000.000000000000000 ) ) ;
#347 = EDGE_CURVE ( 'NONE', #434, #465, #492, .T. ) ;
#348 = CARTESIAN_POINT ( 'NONE',  ( 46.80000000000001847, -10.90000000000000391, 1000.000000000000000 ) ) ;
#349 = CARTESIAN_POINT ( 'NONE',  ( 50.00000000000001421, -9.300000000000000711, 1000.000000000000000 ) ) ;
#350 = LINE ( 'NONE', #418, #27 ) ;
#351 = VECTOR ( 'NONE', #325, 1000.000000000000000 ) ;
#352 = CARTESIAN_POINT ( 'NONE',  ( -46.79999999999999005, 12.50000000000000000, 1000.000000000000000 ) ) ;
#353 = VERTEX_POINT ( 'NONE', #593 ) ;
#354 = AXIS2_PLACEMENT_3D ( 'NONE', #122, #636, #171 ) ;
#355 = DIRECTION ( 'NONE',  ( 0.000000000000000000, 0.000000000000000000, 1.000000000000000000 ) ) ;
#356 = CARTESIAN_POINT ( 'NONE',  ( -49.99999999999998579, 9.300000000000000711, 0.000000000000000000 ) ) ;
#357 = CC_DESIGN_PERSON_AND_ORGANIZATION_ASSIGNMENT ( #233, #540, ( #388 ) ) ;
#358 = ORIENTED_EDGE ( 'NONE', *, *, #288, .F. ) ;
#359 = CARTESIAN_POINT ( 'NONE',  ( 50.00000000000001421, -9.300000000000000711, 1000.000000000000000 ) ) ;
#360 = FACE_OUTER_BOUND ( 'NONE', #472, .T. ) ;
#361 = EDGE_CURVE ( 'NONE', #177, #103, #345, .T. ) ;
#362 = VERTEX_POINT ( 'NONE', #141 ) ;
#363 = VECTOR ( 'NONE', #293, 1000.000000000000000 ) ;
#364 = CARTESIAN_POINT ( 'NONE',  ( -48.39999999999998437, -9.300000000000002487, 1000.000000000000000 ) ) ;
#365 = CARTESIAN_POINT ( 'NONE',  ( -49.99999999999998579, -9.300000000000002487, 1000.000000000000000 ) ) ;
#366 = ORIENTED_EDGE ( 'NONE', *, *, #508, .T. ) ;
#367 = CARTESIAN_POINT ( 'NONE',  ( -46.79999999999999005, -10.90000000000000036, 1000.000000000000000 ) ) ;
#368 = CARTESIAN_POINT ( 'NONE',  ( 48.40000000000001990, -9.299999999999998934, 1000.000000000000000 ) ) ;
#369 = ORIENTED_EDGE ( 'NONE', *, *, #111, .F. ) ;
#370 = ADVANCED_FACE ( 'NONE', ( #545 ), #296, .F. ) ;
#371 = LINE ( 'NONE', #79, #536 ) ;
#372 = CYLINDRICAL_SURFACE ( 'NONE', #19, 3.200000000000001510 ) ;
#373 = APPLICATION_CONTEXT ( 'configuration controlled 3d designs of mechanical parts and assemblies' ) ;
#374 = ORIENTED_EDGE ( 'NONE', *, *, #102, .F. ) ;
#375 = DIRECTION ( 'NONE',  ( 0.000000000000000000, 0.000000000000000000, 1.000000000000000000 ) ) ;
#376 = VERTEX_POINT ( 'NONE', #348 ) ;
#377 = ORIENTED_EDGE ( 'NONE', *, *, #276, .T. ) ;
#378 =( LENGTH_UNIT ( ) NAMED_UNIT ( * ) SI_UNIT ( .MILLI., .METRE. ) );
#379 = LINE ( 'NONE', #124, #416 ) ;
#380 = ORIENTED_EDGE ( 'NONE', *, *, #86, .T. ) ;
#381 = CARTESIAN_POINT ( 'NONE',  ( 0.000000000000000000, 0.000000000000000000, 0.000000000000000000 ) ) ;
#382 = ADVANCED_FACE ( 'NONE', ( #449 ), #546, .F. ) ;
#383 = DIRECTION ( 'NONE',  ( -3.730588120380229462E-16, 1.000000000000000000, 0.000000000000000000 ) ) ;
#384 = VECTOR ( 'NONE', #437, 1000.000000000000000 ) ;
#385 = SECURITY_CLASSIFICATION ( '', '', #337 ) ;
#386 = CALENDAR_DATE ( 2026, 16, 4 ) ;
#387 = CARTESIAN_POINT ( 'NONE',  ( 46.80000000000001137, 9.300000000000000711, 1000.000000000000000 ) ) ;
#388 = PRODUCT ( 'Rectangle - 100.0 X 25.0 X 1.60', 'Rectangle - 100.0 X 25.0 X 1.60', '', ( #435 ) ) ;
#389 = AXIS2_PLACEMENT_3D ( 'NONE', #119, #77, #278 ) ;
#390 = VECTOR ( 'NONE', #22, 1000.000000000000000 ) ;
#391 = PERSON_AND_ORGANIZATION_ROLE ( 'design_supplier' ) ;
#392 = EDGE_CURVE ( 'NONE', #555, #282, #650, .T. ) ;
#393 = DIRECTION ( 'NONE',  ( -1.000000000000000000, 0.000000000000000000, 0.000000000000000000 ) ) ;
#394 = CALENDAR_DATE ( 2026, 16, 4 ) ;
#395 = DIRECTION ( 'NONE',  ( -1.000000000000000000, 0.000000000000000000, 0.000000000000000000 ) ) ;
#396 = AXIS2_PLACEMENT_3D ( 'NONE', #92, #494, #541 ) ;
#397 = DIRECTION ( 'NONE',  ( 3.730588120380230448E-16, -1.000000000000000000, 0.000000000000000000 ) ) ;
#398 = EDGE_CURVE ( 'NONE', #71, #146, #193, .T. ) ;
#399 = CARTESIAN_POINT ( 'NONE',  ( -49.99999999999998579, -9.300000000000002487, 0.000000000000000000 ) ) ;
#400 = DIRECTION ( 'NONE',  ( -1.000000000000000000, -0.000000000000000000, -0.000000000000000000 ) ) ;
#401 = CARTESIAN_POINT ( 'NONE',  ( -48.39999999999998437, -9.300000000000002487, 1000.000000000000000 ) ) ;
#402 = DIRECTION ( 'NONE',  ( 0.000000000000000000, 0.000000000000000000, 1.000000000000000000 ) ) ;
#403 = ORIENTED_EDGE ( 'NONE', *, *, #262, .F. ) ;
#404 = AXIS2_PLACEMENT_3D ( 'NONE', #476, #576, #334 ) ;
#405 = DIRECTION ( 'NONE',  ( -1.000000000000000000, 0.000000000000000000, 0.000000000000000000 ) ) ;
#406 = DIRECTION ( 'NONE',  ( 0.000000000000000000, 0.000000000000000000, 1.000000000000000000 ) ) ;
#407 = ORIENTED_EDGE ( 'NONE', *, *, #35, .F. ) ;
#408 = EDGE_CURVE ( 'NONE', #376, #261, #447, .T. ) ;
#409 = DIRECTION ( 'NONE',  ( -0.000000000000000000, -0.000000000000000000, -1.000000000000000000 ) ) ;
#410 = DIRECTION ( 'NONE',  ( -0.000000000000000000, -0.000000000000000000, -1.000000000000000000 ) ) ;
#411 = VECTOR ( 'NONE', #42, 1000.000000000000000 ) ;
#412 = ORIENTED_EDGE ( 'NONE', *, *, #442, .T. ) ;
#413 = DIRECTION ( 'NONE',  ( 0.000000000000000000, 0.000000000000000000, 1.000000000000000000 ) ) ;
#414 = DIRECTION ( 'NONE',  ( -1.000000000000000000, 0.000000000000000000, 0.000000000000000000 ) ) ;
#415 = VERTEX_POINT ( 'NONE', #153 ) ;
#416 = VECTOR ( 'NONE', #326, 1000.000000000000000 ) ;
#417 = VECTOR ( 'NONE', #137, 1000.000000000000000 ) ;
#418 = CARTESIAN_POINT ( 'NONE',  ( 50.00000000000001421, -9.299999999999998934, 1000.000000000000000 ) ) ;
#419 = ORIENTED_EDGE ( 'NONE', *, *, #616, .F. ) ;
#420 = CARTESIAN_POINT ( 'NONE',  ( 48.40000000000001990, -9.299999999999998934, 0.000000000000000000 ) ) ;
#421 = APPROVAL_PERSON_ORGANIZATION ( #595, #653, #3 ) ;
#422 = EDGE_CURVE ( 'NONE', #465, #569, #313, .T. ) ;
#423 = ORIENTED_EDGE ( 'NONE', *, *, #288, .T. ) ;
#424 = FACE_OUTER_BOUND ( 'NONE', #206, .T. ) ;
#425 = EDGE_LOOP ( 'NONE', ( #618, #319, #377, #314 ) ) ;
#426 = ORIENTED_EDGE ( 'NONE', *, *, #262, .T. ) ;
#427 = DIRECTION ( 'NONE',  ( 0.000000000000000000, 0.000000000000000000, 1.000000000000000000 ) ) ;
#428 = FACE_OUTER_BOUND ( 'NONE', #174, .T. ) ;
#429 = EDGE_LOOP ( 'NONE', ( #627, #7, #11, #423 ) ) ;
#430 = DIRECTION ( 'NONE',  ( -1.000000000000000000, 0.000000000000000000, 0.000000000000000000 ) ) ;
#431 = ORIENTED_EDGE ( 'NONE', *, *, #250, .T. ) ;
#432 = VERTEX_POINT ( 'NONE', #517 ) ;
#433 = LINE ( 'NONE', #328, #351 ) ;
#434 = VERTEX_POINT ( 'NONE', #253 ) ;
#435 = MECHANICAL_CONTEXT ( 'NONE', #373, 'mechanical' ) ;
#436 = PERSON_AND_ORGANIZATION ( #511, #585 ) ;
#437 = DIRECTION ( 'NONE',  ( 1.000000000000000000, 0.000000000000000000, 0.000000000000000000 ) ) ;
#438 = ADVANCED_FACE ( 'NONE', ( #8 ), #614, .F. ) ;
#439 = CC_DESIGN_APPROVAL ( #553, ( #635 ) ) ;
#440 = AXIS2_PLACEMENT_3D ( 'NONE', #329, #571, #222 ) ;
#441 = COORDINATED_UNIVERSAL_TIME_OFFSET ( 2, 0, .AHEAD. ) ;
#442 = EDGE_CURVE ( 'NONE', #569, #199, #535, .T. ) ;
#443 = CARTESIAN_POINT ( 'NONE',  ( 48.40000000000001990, -9.299999999999998934, 1000.000000000000000 ) ) ;
#444 = AXIS2_PLACEMENT_3D ( 'NONE', #562, #164, #405 ) ;
#445 = CARTESIAN_POINT ( 'NONE',  ( -46.79999999999999005, -10.90000000000000036, 1000.000000000000000 ) ) ;
#446 = CARTESIAN_POINT ( 'NONE',  ( -46.79999999999999005, -12.50000000000000000, 0.000000000000000000 ) ) ;
#447 = CIRCLE ( 'NONE', #93, 1.600000000000004086 ) ;
#448 = CC_DESIGN_SECURITY_CLASSIFICATION ( #385, ( #49 ) ) ;
#449 = FACE_OUTER_BOUND ( 'NONE', #157, .T. ) ;
#450 = LINE ( 'NONE', #100, #588 ) ;
#451 = CARTESIAN_POINT ( 'NONE',  ( -46.79999999999999005, 10.90000000000000036, 0.000000000000000000 ) ) ;
#452 = VERTEX_POINT ( 'NONE', #203 ) ;
#453 = CARTESIAN_POINT ( 'NONE',  ( -46.79999999999999005, 12.50000000000000000, 0.000000000000000000 ) ) ;
#454 = LINE ( 'NONE', #9, #552 ) ;
#455 = ADVANCED_FACE ( 'NONE', ( #506, #514 ), #104, .T. ) ;
#456 = ORIENTED_EDGE ( 'NONE', *, *, #300, .F. ) ;
#457 = DIRECTION ( 'NONE',  ( -0.000000000000000000, 0.000000000000000000, -1.000000000000000000 ) ) ;
#458 = CARTESIAN_POINT ( 'NONE',  ( 50.00000000000001421, -9.300000000000000711, 0.000000000000000000 ) ) ;
#459 = EDGE_LOOP ( 'NONE', ( #75, #15, #522, #168, #117, #366, #273, #211 ) ) ;
#460 = DIRECTION ( 'NONE',  ( -0.000000000000000000, -0.000000000000000000, -1.000000000000000000 ) ) ;
#461 = VERTEX_POINT ( 'NONE', #57 ) ;
#462 = DIRECTION ( 'NONE',  ( -1.000000000000000000, -0.000000000000000000, -0.000000000000000000 ) ) ;
#463 = VERTEX_POINT ( 'NONE', #359 ) ;
#464 = DIRECTION ( 'NONE',  ( 0.000000000000000000, -0.000000000000000000, 1.000000000000000000 ) ) ;
#465 = VERTEX_POINT ( 'NONE', #200 ) ;
#466 = CARTESIAN_POINT ( 'NONE',  ( -46.79999999999999005, -9.300000000000002487, 1000.000000000000000 ) ) ;
#467 = VERTEX_POINT ( 'NONE', #16 ) ;
#468 = CIRCLE ( 'NONE', #404, 1.600000000000004086 ) ;
#469 = FACE_OUTER_BOUND ( 'NONE', #525, .T. ) ;
#470 = VERTEX_POINT ( 'NONE', #143 ) ;
#471 = ORIENTED_EDGE ( 'NONE', *, *, #549, .T. ) ;
#472 = EDGE_LOOP ( 'NONE', ( #577, #69, #601, #324 ) ) ;
#473 = CIRCLE ( 'NONE', #503, 3.200000000000001510 ) ;
#474 = AXIS2_PLACEMENT_3D ( 'NONE', #309, #413, #210 ) ;
#475 =( NAMED_UNIT ( * ) PLANE_ANGLE_UNIT ( ) SI_UNIT ( $, .RADIAN. ) );
#476 = CARTESIAN_POINT ( 'NONE',  ( 46.80000000000001137, 9.300000000000000711, 0.000000000000000000 ) ) ;
#477 = ORIENTED_EDGE ( 'NONE', *, *, #68, .T. ) ;
#478 = CARTESIAN_POINT ( 'NONE',  ( 48.40000000000001990, -9.299999999999998934, 0.000000000000000000 ) ) ;
#479 = ADVANCED_BREP_SHAPE_REPRESENTATION ( 'Rectangle - 100.0 X 25.0 X 1.60', ( #36, #640 ), #620 ) ;
#480 = ORIENTED_EDGE ( 'NONE', *, *, #121, .F. ) ;
#481 = EDGE_CURVE ( 'NONE', #353, #71, #74, .T. ) ;
#482 = FACE_OUTER_BOUND ( 'NONE', #331, .T. ) ;
#483 = VECTOR ( 'NONE', #647, 1000.000000000000000 ) ;
#484 = ORIENTED_EDGE ( 'NONE', *, *, #347, .T. ) ;
#485 = CARTESIAN_POINT ( 'NONE',  ( -48.39999999999998437, -9.300000000000002487, 1000.000000000000000 ) ) ;
#486 = COORDINATED_UNIVERSAL_TIME_OFFSET ( 2, 0, .AHEAD. ) ;
#487 = EDGE_CURVE ( 'NONE', #177, #467, #219, .T. ) ;
#488 = ADVANCED_FACE ( 'NONE', ( #259 ), #64, .T. ) ;
#489 = COORDINATED_UNIVERSAL_TIME_OFFSET ( 2, 0, .AHEAD. ) ;
#490 = DIRECTION ( 'NONE',  ( 0.000000000000000000, 0.000000000000000000, 1.000000000000000000 ) ) ;
#491 = PERSON_AND_ORGANIZATION ( #511, #585 ) ;
#492 = LINE ( 'NONE', #240, #280 ) ;
#493 = AXIS2_PLACEMENT_3D ( 'NONE', #265, #410, #560 ) ;
#494 = DIRECTION ( 'NONE',  ( 0.000000000000000000, 0.000000000000000000, 1.000000000000000000 ) ) ;
#495 = EDGE_CURVE ( 'NONE', #629, #353, #450, .T. ) ;
#496 = ADVANCED_FACE ( 'NONE', ( #207 ), #263, .T. ) ;
#497 = CARTESIAN_POINT ( 'NONE',  ( -46.79999999999999005, 9.300000000000000711, 1000.000000000000000 ) ) ;
#498 = AXIS2_PLACEMENT_3D ( 'NONE', #301, #134, #340 ) ;
#499 = CC_DESIGN_APPROVAL ( #653, ( #385 ) ) ;
#500 = DIRECTION ( 'NONE',  ( 0.000000000000000000, 1.000000000000000000, 0.000000000000000000 ) ) ;
#501 = CARTESIAN_POINT ( 'NONE',  ( 50.00000000000001421, 9.300000000000000711, 1000.000000000000000 ) ) ;
#502 = DATE_TIME_ROLE ( 'classification_date' ) ;
#503 = AXIS2_PLACEMENT_3D ( 'NONE', #62, #249, #260 ) ;
#504 = VECTOR ( 'NONE', #409, 1000.000000000000000 ) ;
#505 = EDGE_LOOP ( 'NONE', ( #412, #358, #456, #431 ) ) ;
#506 = FACE_OUTER_BOUND ( 'NONE', #53, .T. ) ;
#507 = DIRECTION ( 'NONE',  ( 0.000000000000000000, -0.000000000000000000, -1.000000000000000000 ) ) ;
#508 = EDGE_CURVE ( 'NONE', #146, #17, #305, .T. ) ;
#509 = ORIENTED_EDGE ( 'NONE', *, *, #347, .F. ) ;
#510 = CARTESIAN_POINT ( 'NONE',  ( -46.79999999999999005, 9.300000000000000711, 1000.000000000000000 ) ) ;
#511 = PERSON ( 'UNSPECIFIED', 'UNSPECIFIED', 'UNSPECIFIED', ('UNSPECIFIED'), ('UNSPECIFIED'), ('UNSPECIFIED') ) ;
#512 = DIRECTION ( 'NONE',  ( -0.000000000000000000, -1.000000000000000000, -0.000000000000000000 ) ) ;
#513 = ORIENTED_EDGE ( 'NONE', *, *, #603, .F. ) ;
#514 = FACE_BOUND ( 'NONE', #459, .T. ) ;
#515 = PLANE ( 'NONE',  #304 ) ;
#516 = EDGE_LOOP ( 'NONE', ( #268, #155, #610, #162 ) ) ;
#517 = CARTESIAN_POINT ( 'NONE',  ( -46.79999999999999005, 12.50000000000000000, 1000.000000000000000 ) ) ;
#518 = ORIENTED_EDGE ( 'NONE', *, *, #645, .F. ) ;
#519 = LINE ( 'NONE', #349, #642 ) ;
#520 = ORIENTED_EDGE ( 'NONE', *, *, #86, .F. ) ;
#521 = DIRECTION ( 'NONE',  ( -1.000000000000000000, 0.000000000000000000, 0.000000000000000000 ) ) ;
#522 = ORIENTED_EDGE ( 'NONE', *, *, #495, .T. ) ;
#523 = CLOSED_SHELL ( 'NONE', ( #40, #455, #488, #438, #582, #626, #292, #175, #59, #125, #70, #575, #225, #496, #370, #341, #382, #594 ) ) ;
#524 = DIRECTION ( 'NONE',  ( -0.000000000000000000, -0.000000000000000000, -1.000000000000000000 ) ) ;
#525 = EDGE_LOOP ( 'NONE', ( #513, #374, #561, #281 ) ) ;
#526 = ORIENTED_EDGE ( 'NONE', *, *, #181, .F. ) ;
#527 = AXIS2_PLACEMENT_3D ( 'NONE', #570, #430, #623 ) ;
#528 = CYLINDRICAL_SURFACE ( 'NONE', #354, 3.200000000000001510 ) ;
#529 = EDGE_LOOP ( 'NONE', ( #172, #580, #567, #369, #317, #266, #29, #327 ) ) ;
#530 = VECTOR ( 'NONE', #194, 1000.000000000000000 ) ;
#531 = EDGE_CURVE ( 'NONE', #258, #353, #156, .T. ) ;
#532 = ORIENTED_EDGE ( 'NONE', *, *, #316, .F. ) ;
#533 = DIRECTION ( 'NONE',  ( -1.000000000000000000, 0.000000000000000000, 0.000000000000000000 ) ) ;
#534 = EDGE_LOOP ( 'NONE', ( #66, #116, #230, #426 ) ) ;
#535 = CIRCLE ( 'NONE', #245, 3.200000000000001510 ) ;
#536 = VECTOR ( 'NONE', #524, 1000.000000000000000 ) ;
#537 = APPROVAL_STATUS ( 'not_yet_approved' ) ;
#538 = APPROVAL_STATUS ( 'not_yet_approved' ) ;
#539 = DIRECTION ( 'NONE',  ( -0.000000000000000000, -0.000000000000000000, -1.000000000000000000 ) ) ;
#540 = PERSON_AND_ORGANIZATION_ROLE ( 'design_owner' ) ;
#541 = DIRECTION ( 'NONE',  ( -1.000000000000000000, 0.000000000000000000, 0.000000000000000000 ) ) ;
#542 = PRODUCT_RELATED_PRODUCT_CATEGORY ( 'detail', '', ( #388 ) ) ;
#543 = CARTESIAN_POINT ( 'NONE',  ( -46.79999999999999005, 10.90000000000000036, 1000.000000000000000 ) ) ;
#544 = EDGE_CURVE ( 'NONE', #463, #80, #350, .T. ) ;
#545 = FACE_OUTER_BOUND ( 'NONE', #516, .T. ) ;
#546 = CYLINDRICAL_SURFACE ( 'NONE', #498, 1.600000000000004086 ) ;
#547 = CARTESIAN_POINT ( 'NONE',  ( 46.80000000000001137, 9.300000000000000711, 1000.000000000000000 ) ) ;
#548 = CIRCLE ( 'NONE', #270, 1.600000000000004086 ) ;
#549 = EDGE_CURVE ( 'NONE', #470, #335, #51, .T. ) ;
#550 = DIRECTION ( 'NONE',  ( 3.730588120380229462E-16, -1.000000000000000000, -0.000000000000000000 ) ) ;
#551 = CARTESIAN_POINT ( 'NONE',  ( -46.79999999999999005, -10.90000000000000036, 1000.000000000000000 ) ) ;
#552 = VECTOR ( 'NONE', #208, 1000.000000000000000 ) ;
#553 = APPROVAL ( #537, 'UNSPECIFIED' ) ;
#554 = CIRCLE ( 'NONE', #643, 3.200000000000001510 ) ;
#555 = VERTEX_POINT ( 'NONE', #196 ) ;
#556 = DIRECTION ( 'NONE',  ( -1.000000000000000000, 0.000000000000000000, 0.000000000000000000 ) ) ;
#557 = LINE ( 'NONE', #365, #587 ) ;
#558 = ORIENTED_EDGE ( 'NONE', *, *, #198, .T. ) ;
#559 = LINE ( 'NONE', #401, #609 ) ;
#560 = DIRECTION ( 'NONE',  ( -1.000000000000000000, 0.000000000000000000, 0.000000000000000000 ) ) ;
#561 = ORIENTED_EDGE ( 'NONE', *, *, #243, .T. ) ;
#562 = CARTESIAN_POINT ( 'NONE',  ( -46.79999999999999005, -9.300000000000002487, 0.000000000000000000 ) ) ;
#563 = FACE_OUTER_BOUND ( 'NONE', #152, .T. ) ;
#564 = EDGE_CURVE ( 'NONE', #467, #258, #559, .T. ) ;
#565 = ORIENTED_EDGE ( 'NONE', *, *, #422, .T. ) ;
#566 = CARTESIAN_POINT ( 'NONE',  ( -46.79999999999999005, -12.50000000000000000, 1000.000000000000000 ) ) ;
#567 = ORIENTED_EDGE ( 'NONE', *, *, #549, .F. ) ;
#568 = PLANE ( 'NONE',  #605 ) ;
#569 = VERTEX_POINT ( 'NONE', #95 ) ;
#570 = CARTESIAN_POINT ( 'NONE',  ( 50.00000000000001421, -9.299999999999998934, 1000.000000000000000 ) ) ;
#571 = DIRECTION ( 'NONE',  ( 0.000000000000000000, 0.000000000000000000, 1.000000000000000000 ) ) ;
#572 = CC_DESIGN_PERSON_AND_ORGANIZATION_ASSIGNMENT ( #641, #391, ( #49 ) ) ;
#573 = ORIENTED_EDGE ( 'NONE', *, *, #531, .T. ) ;
#574 =( NAMED_UNIT ( * ) SI_UNIT ( $, .STERADIAN. ) SOLID_ANGLE_UNIT ( ) );
#575 = ADVANCED_FACE ( 'NONE', ( #424 ), #633, .T. ) ;
#576 = DIRECTION ( 'NONE',  ( 0.000000000000000000, 0.000000000000000000, 1.000000000000000000 ) ) ;
#577 = ORIENTED_EDGE ( 'NONE', *, *, #481, .F. ) ;
#578 = ORIENTED_EDGE ( 'NONE', *, *, #392, .T. ) ;
#579 = VECTOR ( 'NONE', #462, 1000.000000000000000 ) ;
#580 = ORIENTED_EDGE ( 'NONE', *, *, #243, .F. ) ;
#581 = DIRECTION ( 'NONE',  ( 0.000000000000000000, 0.000000000000000000, 1.000000000000000000 ) ) ;
#582 = ADVANCED_FACE ( 'NONE', ( #482 ), #528, .T. ) ;
#583 = DIRECTION ( 'NONE',  ( -1.000000000000000000, -0.000000000000000000, -0.000000000000000000 ) ) ;
#584 = AXIS2_PLACEMENT_3D ( 'NONE', #346, #649, #397 ) ;
#585 = ORGANIZATION ( 'UNSPECIFIED', 'UNSPECIFIED', '' ) ;
#586 = APPLICATION_PROTOCOL_DEFINITION ( 'international standard', 'config_control_design', 1994, #592 ) ;
#587 = VECTOR ( 'NONE', #512, 1000.000000000000000 ) ;
#588 = VECTOR ( 'NONE', #13, 1000.000000000000000 ) ;
#589 = CARTESIAN_POINT ( 'NONE',  ( 50.00000000000001421, -9.299999999999998934, 0.000000000000000000 ) ) ;
#590 = PERSON_AND_ORGANIZATION_ROLE ( 'classification_officer' ) ;
#591 = LINE ( 'NONE', #589, #483 ) ;
#592 = APPLICATION_CONTEXT ( 'configuration controlled 3d designs of mechanical parts and assemblies' ) ;
#593 = CARTESIAN_POINT ( 'NONE',  ( -48.39999999999998437, -9.300000000000002487, 0.000000000000000000 ) ) ;
#594 = ADVANCED_FACE ( 'NONE', ( #469 ), #180, .T. ) ;
#595 = PERSON_AND_ORGANIZATION ( #511, #585 ) ;
#596 = DIRECTION ( 'NONE',  ( 0.000000000000000000, 0.000000000000000000, 1.000000000000000000 ) ) ;
#597 = LINE ( 'NONE', #187, #417 ) ;
#598 = CARTESIAN_POINT ( 'NONE',  ( -49.99999999999998579, 9.300000000000000711, 1000.000000000000000 ) ) ;
#599 = DATE_AND_TIME ( #386, #131 ) ;
#600 = EDGE_CURVE ( 'NONE', #80, #461, #333, .T. ) ;
#601 = ORIENTED_EDGE ( 'NONE', *, *, #284, .T. ) ;
#602 = CARTESIAN_POINT ( 'NONE',  ( -46.79999999999999005, 9.300000000000000711, 0.000000000000000000 ) ) ;
#603 = EDGE_CURVE ( 'NONE', #362, #103, #76, .T. ) ;
#604 = LINE ( 'NONE', #55, #218 ) ;
#605 = AXIS2_PLACEMENT_3D ( 'NONE', #466, #24, #212 ) ;
#606 = ORIENTED_EDGE ( 'NONE', *, *, #198, .F. ) ;
#607 = DIRECTION ( 'NONE',  ( 0.000000000000000000, 0.000000000000000000, 1.000000000000000000 ) ) ;
#608 = DIRECTION ( 'NONE',  ( 0.000000000000000000, 0.000000000000000000, -1.000000000000000000 ) ) ;
#609 = VECTOR ( 'NONE', #550, 1000.000000000000000 ) ;
#610 = ORIENTED_EDGE ( 'NONE', *, *, #408, .T. ) ;
#611 = DIRECTION ( 'NONE',  ( -1.000000000000000000, 0.000000000000000000, 0.000000000000000000 ) ) ;
#612 = DIRECTION ( 'NONE',  ( -3.730588120380230448E-16, 1.000000000000000000, 0.000000000000000000 ) ) ;
#613 = ORIENTED_EDGE ( 'NONE', *, *, #344, .F. ) ;
#614 = PLANE ( 'NONE',  #159 ) ;
#615 = CARTESIAN_POINT ( 'NONE',  ( 46.80000000000001137, 9.300000000000000711, 0.000000000000000000 ) ) ;
#616 = EDGE_CURVE ( 'NONE', #452, #555, #554, .T. ) ;
#617 = AXIS2_PLACEMENT_3D ( 'NONE', #54, #457, #5 ) ;
#618 = ORIENTED_EDGE ( 'NONE', *, *, #398, .F. ) ;
#619 = DIRECTION ( 'NONE',  ( -1.000000000000000000, -0.000000000000000000, -0.000000000000000000 ) ) ;
#620 =( GEOMETRIC_REPRESENTATION_CONTEXT ( 3 ) GLOBAL_UNCERTAINTY_ASSIGNED_CONTEXT ( ( #295 ) ) GLOBAL_UNIT_ASSIGNED_CONTEXT ( ( #378, #475, #574 ) ) REPRESENTATION_CONTEXT ( 'NONE', 'WORKASPACE' ) );
#621 = ORIENTED_EDGE ( 'NONE', *, *, #600, .F. ) ;
#622 = VERTEX_POINT ( 'NONE', #229 ) ;
#623 = DIRECTION ( 'NONE',  ( 0.000000000000000000, 0.000000000000000000, 1.000000000000000000 ) ) ;
#624 = DIRECTION ( 'NONE',  ( -3.730588120380230448E-16, 1.000000000000000000, 0.000000000000000000 ) ) ;
#625 = EDGE_LOOP ( 'NONE', ( #28, #176, #477, #308, #110, #558, #166, #311 ) ) ;
#626 = ADVANCED_FACE ( 'NONE', ( #322 ), #82, .F. ) ;
#627 = ORIENTED_EDGE ( 'NONE', *, *, #192, .T. ) ;
#628 = CYLINDRICAL_SURFACE ( 'NONE', #389, 1.600000000000004086 ) ;
#629 = VERTEX_POINT ( 'NONE', #226 ) ;
#630 = CARTESIAN_POINT ( 'NONE',  ( -48.39999999999999147, 9.300000000000002487, 1000.000000000000000 ) ) ;
#631 = LINE ( 'NONE', #94, #294 ) ;
#632 = ORIENTED_EDGE ( 'NONE', *, *, #232, .T. ) ;
#633 = PLANE ( 'NONE',  #275 ) ;
#634 = ORIENTED_EDGE ( 'NONE', *, *, #495, .F. ) ;
#635 = PRODUCT_DEFINITION ( 'UNKNOWN', '', #49, #648 ) ;
#636 = DIRECTION ( 'NONE',  ( -0.000000000000000000, -0.000000000000000000, -1.000000000000000000 ) ) ;
#637 = APPROVAL_ROLE ( '' ) ;
#638 = EDGE_CURVE ( 'NONE', #467, #629, #231, .T. ) ;
#639 = DIRECTION ( 'NONE',  ( 1.000000000000000000, 0.000000000000000000, 0.000000000000000000 ) ) ;
#640 = AXIS2_PLACEMENT_3D ( 'NONE', #381, #581, #127 ) ;
#641 = PERSON_AND_ORGANIZATION ( #511, #585 ) ;
#642 = VECTOR ( 'NONE', #101, 1000.000000000000000 ) ;
#643 = AXIS2_PLACEMENT_3D ( 'NONE', #115, #427, #67 ) ;
#644 = LINE ( 'NONE', #139, #151 ) ;
#645 = EDGE_CURVE ( 'NONE', #555, #622, #433, .T. ) ;
#646 = EDGE_CURVE ( 'NONE', #103, #629, #548, .T. ) ;
#647 = DIRECTION ( 'NONE',  ( 0.000000000000000000, 1.000000000000000000, 0.000000000000000000 ) ) ;
#648 = DESIGN_CONTEXT ( 'detailed design', #592, 'design' ) ;
#649 = DIRECTION ( 'NONE',  ( -1.000000000000000000, -3.730588120380230448E-16, 0.000000000000000000 ) ) ;
#650 = LINE ( 'NONE', #37, #363 ) ;
#651 = CARTESIAN_POINT ( 'NONE',  ( -49.99999999999998579, -9.300000000000002487, 1000.000000000000000 ) ) ;
#652 = EDGE_CURVE ( 'NONE', #376, #146, #371, .T. ) ;
#653 = APPROVAL ( #188, 'UNSPECIFIED' ) ;
ENDSEC;
END-ISO-10303-21;
