ISO-10303-21;
HEADER;
FILE_DESCRIPTION (( 'STEP AP203' ),
    '1' );
FILE_NAME ('Rectangle - 80.0 X 40.0 X 4.50.step',
    '2026-04-16T15:16:30',
    ( '' ),
    ( '' ),
    'SwSTEP 2.0',
    'SolidWorks 2023',
    '' );
FILE_SCHEMA (( 'CONFIG_CONTROL_DESIGN' ));
ENDSEC;

DATA;
#1 = LINE ( 'NONE', #255, #319 ) ;
#2 = ORIENTED_EDGE ( 'NONE', *, *, #116, .T. ) ;
#3 = LINE ( 'NONE', #159, #456 ) ;
#4 = FACE_OUTER_BOUND ( 'NONE', #621, .T. ) ;
#5 = EDGE_CURVE ( 'NONE', #379, #246, #315, .T. ) ;
#6 = FACE_OUTER_BOUND ( 'NONE', #223, .T. ) ;
#7 = ADVANCED_FACE ( 'NONE', ( #537, #364 ), #271, .F. ) ;
#8 = AXIS2_PLACEMENT_3D ( 'NONE', #212, #409, #614 ) ;
#9 = APPROVAL_PERSON_ORGANIZATION ( #70, #311, #128 ) ;
#10 = ADVANCED_FACE ( 'NONE', ( #576 ), #381, .F. ) ;
#11 = DIRECTION ( 'NONE',  ( -1.000000000000000000, 0.000000000000000000, 0.000000000000000000 ) ) ;
#12 = DIRECTION ( 'NONE',  ( 0.000000000000000000, 0.000000000000000000, 1.000000000000000000 ) ) ;
#13 = UNCERTAINTY_MEASURE_WITH_UNIT (LENGTH_MEASURE( 1.000000000000000082E-05 ), #375, 'distance_accuracy_value', 'NONE');
#14 = DIRECTION ( 'NONE',  ( 0.000000000000000000, 0.000000000000000000, 1.000000000000000000 ) ) ;
#15 = LOCAL_TIME ( 17, 16, 30.00000000000000000, #163 ) ;
#16 = DIRECTION ( 'NONE',  ( 1.000000000000000000, 0.000000000000000000, 0.000000000000000000 ) ) ;
#17 = EDGE_LOOP ( 'NONE', ( #98, #167, #534, #147 ) ) ;
#18 = PERSON_AND_ORGANIZATION_ROLE ( 'creator' ) ;
#19 = DIRECTION ( 'NONE',  ( -1.000000000000000000, 0.000000000000000000, 0.000000000000000000 ) ) ;
#20 = ORIENTED_EDGE ( 'NONE', *, *, #531, .T. ) ;
#21 = ORIENTED_EDGE ( 'NONE', *, *, #74, .F. ) ;
#22 = CARTESIAN_POINT ( 'NONE',  ( -40.00000000000000000, -11.00000000000000178, 1000.000000000000000 ) ) ;
#23 = DIRECTION ( 'NONE',  ( -1.000000000000000000, -0.000000000000000000, -0.000000000000000000 ) ) ;
#24 = DESIGN_CONTEXT ( 'detailed design', #277, 'design' ) ;
#25 = VERTEX_POINT ( 'NONE', #224 ) ;
#26 = DIRECTION ( 'NONE',  ( -1.000000000000000000, 0.000000000000000000, 0.000000000000000000 ) ) ;
#27 = VECTOR ( 'NONE', #594, 1000.000000000000000 ) ;
#28 = AXIS2_PLACEMENT_3D ( 'NONE', #68, #486, #470 ) ;
#29 = CARTESIAN_POINT ( 'NONE',  ( -40.00000000000000000, -11.00000000000000178, 0.000000000000000000 ) ) ;
#30 = AXIS2_PLACEMENT_3D ( 'NONE', #166, #363, #325 ) ;
#31 = EDGE_CURVE ( 'NONE', #37, #506, #189, .T. ) ;
#32 = ORIENTED_EDGE ( 'NONE', *, *, #539, .T. ) ;
#33 = CARTESIAN_POINT ( 'NONE',  ( -31.00000000000000000, -11.00000000000000178, 1000.000000000000000 ) ) ;
#34 = CALENDAR_DATE ( 2026, 16, 4 ) ;
#35 = EDGE_LOOP ( 'NONE', ( #497, #296, #419, #490 ) ) ;
#36 = CARTESIAN_POINT ( 'NONE',  ( -31.00000000000000000, -11.00000000000000178, 1000.000000000000000 ) ) ;
#37 = VERTEX_POINT ( 'NONE', #83 ) ;
#38 = VECTOR ( 'NONE', #307, 1000.000000000000000 ) ;
#39 = LINE ( 'NONE', #599, #637 ) ;
#40 = CIRCLE ( 'NONE', #266, 9.000000000000001776 ) ;
#41 = ORIENTED_EDGE ( 'NONE', *, *, #105, .T. ) ;
#42 = CARTESIAN_POINT ( 'NONE',  ( 31.00000000000000000, 20.00000000000000355, 1000.000000000000000 ) ) ;
#43 = VERTEX_POINT ( 'NONE', #503 ) ;
#44 = DIRECTION ( 'NONE',  ( -0.000000000000000000, -0.000000000000000000, -1.000000000000000000 ) ) ;
#45 = FACE_OUTER_BOUND ( 'NONE', #131, .T. ) ;
#46 = ORIENTED_EDGE ( 'NONE', *, *, #334, .T. ) ;
#47 = LINE ( 'NONE', #42, #382 ) ;
#48 = AXIS2_PLACEMENT_3D ( 'NONE', #643, #297, #299 ) ;
#49 = CC_DESIGN_APPROVAL ( #311, ( #148 ) ) ;
#50 = CARTESIAN_POINT ( 'NONE',  ( -31.00000000000000000, -11.00000000000000178, 1000.000000000000000 ) ) ;
#51 = ORIENTED_EDGE ( 'NONE', *, *, #213, .F. ) ;
#52 = DIRECTION ( 'NONE',  ( -1.000000000000000000, 0.000000000000000000, 0.000000000000000000 ) ) ;
#53 = EDGE_CURVE ( 'NONE', #137, #290, #39, .T. ) ;
#54 = CARTESIAN_POINT ( 'NONE',  ( 40.00000000000000000, -11.00000000000000178, 1000.000000000000000 ) ) ;
#55 = CARTESIAN_POINT ( 'NONE',  ( -31.00000000000000000, -15.50000000000000000, 0.000000000000000000 ) ) ;
#56 = DIRECTION ( 'NONE',  ( -0.000000000000000000, -0.000000000000000000, -1.000000000000000000 ) ) ;
#57 = CARTESIAN_POINT ( 'NONE',  ( -31.00000000000000000, 20.00000000000000355, 0.000000000000000000 ) ) ;
#58 = VECTOR ( 'NONE', #16, 1000.000000000000000 ) ;
#59 = DIRECTION ( 'NONE',  ( 0.000000000000000000, 0.000000000000000000, 1.000000000000000000 ) ) ;
#60 = CARTESIAN_POINT ( 'NONE',  ( -31.00000000000000000, -11.00000000000000178, 0.000000000000000000 ) ) ;
#61 = DIRECTION ( 'NONE',  ( 0.000000000000000000, 1.000000000000000000, 0.000000000000000000 ) ) ;
#62 = PERSON_AND_ORGANIZATION ( #386, #383 ) ;
#63 = CARTESIAN_POINT ( 'NONE',  ( -31.00000000000000000, 15.50000000000000000, 0.000000000000000000 ) ) ;
#64 = EDGE_LOOP ( 'NONE', ( #651, #115, #194, #41 ) ) ;
#65 = CIRCLE ( 'NONE', #8, 4.500000000000000888 ) ;
#66 = VECTOR ( 'NONE', #366, 1000.000000000000000 ) ;
#67 = APPROVAL_DATE_TIME ( #272, #311 ) ;
#68 = CARTESIAN_POINT ( 'NONE',  ( 31.00000000000000000, -11.00000000000000178, 1000.000000000000000 ) ) ;
#69 = ORIENTED_EDGE ( 'NONE', *, *, #370, .T. ) ;
#70 = PERSON_AND_ORGANIZATION ( #386, #383 ) ;
#71 = DIRECTION ( 'NONE',  ( 0.000000000000000000, 0.000000000000000000, 1.000000000000000000 ) ) ;
#72 = VERTEX_POINT ( 'NONE', #333 ) ;
#73 = DATE_TIME_ROLE ( 'creation_date' ) ;
#74 = EDGE_CURVE ( 'NONE', #235, #521, #94, .T. ) ;
#75 = DIRECTION ( 'NONE',  ( 0.000000000000000000, 0.000000000000000000, 1.000000000000000000 ) ) ;
#76 = ORIENTED_EDGE ( 'NONE', *, *, #168, .T. ) ;
#77 = AXIS2_PLACEMENT_3D ( 'NONE', #501, #44, #442 ) ;
#78 = VECTOR ( 'NONE', #619, 1000.000000000000000 ) ;
#79 = FACE_OUTER_BOUND ( 'NONE', #17, .T. ) ;
#80 = ORIENTED_EDGE ( 'NONE', *, *, #527, .F. ) ;
#81 = EDGE_LOOP ( 'NONE', ( #636, #190, #487, #69 ) ) ;
#82 = VERTEX_POINT ( 'NONE', #247 ) ;
#83 = CARTESIAN_POINT ( 'NONE',  ( -31.00000000000000000, 15.50000000000000000, 1000.000000000000000 ) ) ;
#84 = VERTEX_POINT ( 'NONE', #342 ) ;
#85 = DIRECTION ( 'NONE',  ( -1.000000000000000000, 0.000000000000000000, 0.000000000000000000 ) ) ;
#86 = APPROVAL ( #245, 'UNSPECIFIED' ) ;
#87 = DATE_TIME_ROLE ( 'classification_date' ) ;
#88 = ORIENTED_EDGE ( 'NONE', *, *, #74, .T. ) ;
#89 = AXIS2_PLACEMENT_3D ( 'NONE', #353, #454, #11 ) ;
#90 = CYLINDRICAL_SURFACE ( 'NONE', #77, 4.500000000000003553 ) ;
#91 = CC_DESIGN_APPROVAL ( #434, ( #580 ) ) ;
#92 = PERSON_AND_ORGANIZATION_ROLE ( 'design_supplier' ) ;
#93 = EDGE_LOOP ( 'NONE', ( #450, #180, #447, #298, #332, #252, #229, #416 ) ) ;
#94 = LINE ( 'NONE', #491, #504 ) ;
#95 = ORIENTED_EDGE ( 'NONE', *, *, #129, .F. ) ;
#96 = DIRECTION ( 'NONE',  ( -0.000000000000000000, 0.000000000000000000, -1.000000000000000000 ) ) ;
#97 = CYLINDRICAL_SURFACE ( 'NONE', #175, 4.500000000000003553 ) ;
#98 = ORIENTED_EDGE ( 'NONE', *, *, #146, .F. ) ;
#99 = CARTESIAN_POINT ( 'NONE',  ( 31.00000000000000000, 15.50000000000000000, 0.000000000000000000 ) ) ;
#100 = CIRCLE ( 'NONE', #89, 9.000000000000001776 ) ;
#101 = ADVANCED_FACE ( 'NONE', ( #389 ), #548, .T. ) ;
#102 = CARTESIAN_POINT ( 'NONE',  ( -35.50000000000000711, -11.00000000000000000, 1000.000000000000000 ) ) ;
#103 = PLANE ( 'NONE',  #248 ) ;
#104 = EDGE_CURVE ( 'NONE', #25, #240, #347, .T. ) ;
#105 = EDGE_CURVE ( 'NONE', #476, #240, #47, .T. ) ;
#106 = DIRECTION ( 'NONE',  ( 1.000000000000000000, 0.000000000000000000, 0.000000000000000000 ) ) ;
#107 = CARTESIAN_POINT ( 'NONE',  ( 31.00000000000000000, -15.50000000000000355, 0.000000000000000000 ) ) ;
#108 = PLANE ( 'NONE',  #640 ) ;
#109 = DIRECTION ( 'NONE',  ( -1.000000000000000000, 0.000000000000000000, 0.000000000000000000 ) ) ;
#110 = CIRCLE ( 'NONE', #481, 4.500000000000003553 ) ;
#111 = LINE ( 'NONE', #606, #395 ) ;
#112 = DIRECTION ( 'NONE',  ( 0.000000000000000000, 0.000000000000000000, 1.000000000000000000 ) ) ;
#113 = CALENDAR_DATE ( 2026, 16, 4 ) ;
#114 = LINE ( 'NONE', #273, #560 ) ;
#115 = ORIENTED_EDGE ( 'NONE', *, *, #370, .F. ) ;
#116 = EDGE_CURVE ( 'NONE', #521, #595, #648, .T. ) ;
#117 = APPROVAL_ROLE ( '' ) ;
#118 = CARTESIAN_POINT ( 'NONE',  ( 31.00000000000000000, -11.00000000000000178, 1000.000000000000000 ) ) ;
#119 = ORIENTED_EDGE ( 'NONE', *, *, #306, .F. ) ;
#120 = DIRECTION ( 'NONE',  ( -0.000000000000000000, -0.000000000000000000, -1.000000000000000000 ) ) ;
#121 = CIRCLE ( 'NONE', #465, 4.500000000000003553 ) ;
#122 = EDGE_CURVE ( 'NONE', #532, #374, #291, .T. ) ;
#123 = CIRCLE ( 'NONE', #513, 4.500000000000000888 ) ;
#124 =( NAMED_UNIT ( * ) SI_UNIT ( $, .STERADIAN. ) SOLID_ANGLE_UNIT ( ) );
#125 = CARTESIAN_POINT ( 'NONE',  ( -31.00000000000000000, -15.50000000000000000, 1000.000000000000000 ) ) ;
#126 = ORIENTED_EDGE ( 'NONE', *, *, #589, .T. ) ;
#127 = ADVANCED_FACE ( 'NONE', ( #591, #645 ), #556, .T. ) ;
#128 = APPROVAL_ROLE ( '' ) ;
#129 = EDGE_CURVE ( 'NONE', #246, #538, #330, .T. ) ;
#130 = CARTESIAN_POINT ( 'NONE',  ( -31.00000000000000000, 11.00000000000000178, 1000.000000000000000 ) ) ;
#131 = EDGE_LOOP ( 'NONE', ( #436, #368, #420, #20 ) ) ;
#132 = LINE ( 'NONE', #63, #231 ) ;
#133 = ORIENTED_EDGE ( 'NONE', *, *, #5, .T. ) ;
#134 = ORIENTED_EDGE ( 'NONE', *, *, #285, .T. ) ;
#135 = DIRECTION ( 'NONE',  ( -0.000000000000000000, -0.000000000000000000, -1.000000000000000000 ) ) ;
#136 = EDGE_CURVE ( 'NONE', #301, #137, #448, .T. ) ;
#137 = VERTEX_POINT ( 'NONE', #251 ) ;
#138 = CARTESIAN_POINT ( 'NONE',  ( 31.00000000000000000, -11.00000000000000178, 0.000000000000000000 ) ) ;
#139 = ORIENTED_EDGE ( 'NONE', *, *, #351, .T. ) ;
#140 = DIRECTION ( 'NONE',  ( -1.000000000000000000, 0.000000000000000000, 0.000000000000000000 ) ) ;
#141 = MANIFOLD_SOLID_BREP ( 'Boss-Extrude1', #143 ) ;
#142 = ORIENTED_EDGE ( 'NONE', *, *, #612, .T. ) ;
#143 = CLOSED_SHELL ( 'NONE', ( #7, #127, #289, #280, #387, #528, #546, #162, #517, #574, #172, #562, #597, #101, #455, #639, #10, #244 ) ) ;
#144 = DIRECTION ( 'NONE',  ( -0.000000000000000000, -0.000000000000000000, -1.000000000000000000 ) ) ;
#145 = LOCAL_TIME ( 17, 16, 30.00000000000000000, #360 ) ;
#146 = EDGE_CURVE ( 'NONE', #290, #378, #444, .T. ) ;
#147 = ORIENTED_EDGE ( 'NONE', *, *, #424, .T. ) ;
#148 = PRODUCT_DEFINITION ( 'UNKNOWN', '', #580, #24 ) ;
#149 = DIRECTION ( 'NONE',  ( 0.000000000000000000, -0.000000000000000000, 1.000000000000000000 ) ) ;
#150 = DIRECTION ( 'NONE',  ( 0.000000000000000000, 0.000000000000000000, -1.000000000000000000 ) ) ;
#151 = ORIENTED_EDGE ( 'NONE', *, *, #260, .F. ) ;
#152 = LINE ( 'NONE', #346, #615 ) ;
#153 = CARTESIAN_POINT ( 'NONE',  ( 31.00000000000000000, 20.00000000000000355, 0.000000000000000000 ) ) ;
#154 = VECTOR ( 'NONE', #453, 1000.000000000000000 ) ;
#155 = PLANE ( 'NONE',  #402 ) ;
#156 = PRODUCT_RELATED_PRODUCT_CATEGORY ( 'detail', '', ( #584 ) ) ;
#157 = CARTESIAN_POINT ( 'NONE',  ( -31.00000000000000000, 15.50000000000000000, 1000.000000000000000 ) ) ;
#158 = DIRECTION ( 'NONE',  ( 0.000000000000000000, 0.000000000000000000, -1.000000000000000000 ) ) ;
#159 = CARTESIAN_POINT ( 'NONE',  ( -31.00000000000000000, 20.00000000000000355, 1000.000000000000000 ) ) ;
#160 = VECTOR ( 'NONE', #564, 1000.000000000000000 ) ;
#161 = CC_DESIGN_APPROVAL ( #86, ( #445 ) ) ;
#162 = ADVANCED_FACE ( 'NONE', ( #554 ), #336, .F. ) ;
#163 = COORDINATED_UNIVERSAL_TIME_OFFSET ( 2, 0, .AHEAD. ) ;
#164 = LINE ( 'NONE', #215, #561 ) ;
#165 = DIRECTION ( 'NONE',  ( 0.000000000000000000, 0.000000000000000000, 1.000000000000000000 ) ) ;
#166 = CARTESIAN_POINT ( 'NONE',  ( -31.00000000000000000, 11.00000000000000178, 1000.000000000000000 ) ) ;
#167 = ORIENTED_EDGE ( 'NONE', *, *, #53, .F. ) ;
#168 = EDGE_CURVE ( 'NONE', #183, #598, #241, .T. ) ;
#169 = CARTESIAN_POINT ( 'NONE',  ( 40.00000000000000000, -11.00000000000000178, 0.000000000000000000 ) ) ;
#170 = DIRECTION ( 'NONE',  ( -1.000000000000000000, 0.000000000000000000, 0.000000000000000000 ) ) ;
#171 = ORIENTED_EDGE ( 'NONE', *, *, #260, .T. ) ;
#172 = ADVANCED_FACE ( 'NONE', ( #191 ), #90, .F. ) ;
#173 = CARTESIAN_POINT ( 'NONE',  ( 31.00000000000000000, 11.00000000000000178, 1000.000000000000000 ) ) ;
#174 = CIRCLE ( 'NONE', #300, 9.000000000000001776 ) ;
#175 = AXIS2_PLACEMENT_3D ( 'NONE', #50, #461, #214 ) ;
#176 = CARTESIAN_POINT ( 'NONE',  ( 31.00000000000000000, 20.00000000000000355, 1000.000000000000000 ) ) ;
#177 = ORIENTED_EDGE ( 'NONE', *, *, #421, .F. ) ;
#178 = MECHANICAL_CONTEXT ( 'NONE', #492, 'mechanical' ) ;
#179 = DIRECTION ( 'NONE',  ( -0.000000000000000000, -0.000000000000000000, -1.000000000000000000 ) ) ;
#180 = ORIENTED_EDGE ( 'NONE', *, *, #331, .T. ) ;
#181 = ORIENTED_EDGE ( 'NONE', *, *, #122, .F. ) ;
#182 = SHAPE_DEFINITION_REPRESENTATION ( #483, #267 ) ;
#183 = VERTEX_POINT ( 'NONE', #647 ) ;
#184 = DIRECTION ( 'NONE',  ( -1.000000000000000000, 0.000000000000000000, 0.000000000000000000 ) ) ;
#185 = AXIS2_PLACEMENT_3D ( 'NONE', #261, #406, #607 ) ;
#186 = EDGE_CURVE ( 'NONE', #275, #630, #523, .T. ) ;
#187 = VECTOR ( 'NONE', #475, 1000.000000000000000 ) ;
#188 = ORIENTED_EDGE ( 'NONE', *, *, #451, .F. ) ;
#189 = LINE ( 'NONE', #288, #357 ) ;
#190 = ORIENTED_EDGE ( 'NONE', *, *, #589, .F. ) ;
#191 = FACE_OUTER_BOUND ( 'NONE', #287, .T. ) ;
#192 = EDGE_CURVE ( 'NONE', #427, #235, #100, .T. ) ;
#193 = SECURITY_CLASSIFICATION_LEVEL ( 'unclassified' ) ;
#194 = ORIENTED_EDGE ( 'NONE', *, *, #351, .F. ) ;
#195 = CARTESIAN_POINT ( 'NONE',  ( -31.00000000000000000, -15.50000000000000000, 1000.000000000000000 ) ) ;
#196 = AXIS2_PLACEMENT_3D ( 'NONE', #243, #652, #149 ) ;
#197 = EDGE_CURVE ( 'NONE', #379, #43, #459, .T. ) ;
#198 = ORIENTED_EDGE ( 'NONE', *, *, #219, .F. ) ;
#199 = AXIS2_PLACEMENT_3D ( 'NONE', #567, #59, #352 ) ;
#200 = CC_DESIGN_DATE_AND_TIME_ASSIGNMENT ( #474, #73, ( #148 ) ) ;
#201 = DIRECTION ( 'NONE',  ( 0.000000000000000000, 0.000000000000000000, 1.000000000000000000 ) ) ;
#202 = CARTESIAN_POINT ( 'NONE',  ( 35.50000000000000711, -11.00000000000000178, 0.000000000000000000 ) ) ;
#203 = ORIENTED_EDGE ( 'NONE', *, *, #443, .F. ) ;
#204 = DIRECTION ( 'NONE',  ( -0.000000000000000000, -0.000000000000000000, -1.000000000000000000 ) ) ;
#205 = EDGE_LOOP ( 'NONE', ( #279, #400, #76, #134 ) ) ;
#206 = CARTESIAN_POINT ( 'NONE',  ( -35.50000000000000711, -11.00000000000000178, 1000.000000000000000 ) ) ;
#207 = CARTESIAN_POINT ( 'NONE',  ( -40.00000000000000000, 11.00000000000000178, 1000.000000000000000 ) ) ;
#208 = VECTOR ( 'NONE', #452, 1000.000000000000000 ) ;
#209 = CARTESIAN_POINT ( 'NONE',  ( 31.00000000000000000, 11.00000000000000178, 1000.000000000000000 ) ) ;
#210 = CYLINDRICAL_SURFACE ( 'NONE', #185, 9.000000000000001776 ) ;
#211 = CARTESIAN_POINT ( 'NONE',  ( 31.00000000000000000, 15.50000000000000178, 1000.000000000000000 ) ) ;
#212 = CARTESIAN_POINT ( 'NONE',  ( 31.00000000000000000, 11.00000000000000178, 0.000000000000000000 ) ) ;
#213 = EDGE_CURVE ( 'NONE', #532, #37, #350, .T. ) ;
#214 = DIRECTION ( 'NONE',  ( -1.000000000000000000, 0.000000000000000000, 0.000000000000000000 ) ) ;
#215 = CARTESIAN_POINT ( 'NONE',  ( -31.00000000000000000, -20.00000000000000355, 0.000000000000000000 ) ) ;
#216 = VECTOR ( 'NONE', #602, 1000.000000000000000 ) ;
#217 = PERSON_AND_ORGANIZATION_ROLE ( 'creator' ) ;
#218 = CARTESIAN_POINT ( 'NONE',  ( -31.00000000000000000, -20.00000000000000355, 1000.000000000000000 ) ) ;
#219 = EDGE_CURVE ( 'NONE', #538, #237, #121, .T. ) ;
#220 = DIRECTION ( 'NONE',  ( -0.000000000000000000, -0.000000000000000000, -1.000000000000000000 ) ) ;
#221 = EDGE_CURVE ( 'NONE', #43, #538, #309, .T. ) ;
#222 = DIRECTION ( 'NONE',  ( 1.000000000000000000, 0.000000000000000000, 0.000000000000000000 ) ) ;
#223 = EDGE_LOOP ( 'NONE', ( #270, #188, #265, #142 ) ) ;
#224 = CARTESIAN_POINT ( 'NONE',  ( 40.00000000000000000, 11.00000000000000178, 0.000000000000000000 ) ) ;
#225 = PLANE ( 'NONE',  #412 ) ;
#226 = CC_DESIGN_DATE_AND_TIME_ASSIGNMENT ( #236, #87, ( #445 ) ) ;
#227 = LINE ( 'NONE', #586, #187 ) ;
#228 = ORIENTED_EDGE ( 'NONE', *, *, #539, .F. ) ;
#229 = ORIENTED_EDGE ( 'NONE', *, *, #577, .T. ) ;
#230 = AXIS2_PLACEMENT_3D ( 'NONE', #460, #12, #605 ) ;
#231 = VECTOR ( 'NONE', #23, 1000.000000000000000 ) ;
#232 = LINE ( 'NONE', #320, #58 ) ;
#233 = ORIENTED_EDGE ( 'NONE', *, *, #197, .T. ) ;
#234 = PERSON_AND_ORGANIZATION ( #386, #383 ) ;
#235 = VERTEX_POINT ( 'NONE', #207 ) ;
#236 = DATE_AND_TIME ( #34, #458 ) ;
#237 = VERTEX_POINT ( 'NONE', #55 ) ;
#238 = CARTESIAN_POINT ( 'NONE',  ( -31.00000000000000000, -11.00000000000000178, 0.000000000000000000 ) ) ;
#239 = CIRCLE ( 'NONE', #403, 9.000000000000001776 ) ;
#240 = VERTEX_POINT ( 'NONE', #153 ) ;
#241 = LINE ( 'NONE', #437, #27 ) ;
#242 = VERTEX_POINT ( 'NONE', #405 ) ;
#243 = CARTESIAN_POINT ( 'NONE',  ( -31.00000000000000000, -15.50000000000000000, 1000.000000000000000 ) ) ;
#244 = ADVANCED_FACE ( 'NONE', ( #312 ), #103, .T. ) ;
#245 = APPROVAL_STATUS ( 'not_yet_approved' ) ;
#246 = VERTEX_POINT ( 'NONE', #509 ) ;
#247 = CARTESIAN_POINT ( 'NONE',  ( -31.00000000000000000, -20.00000000000000355, 0.000000000000000000 ) ) ;
#248 = AXIS2_PLACEMENT_3D ( 'NONE', #304, #511, #358 ) ;
#249 = FACE_OUTER_BOUND ( 'NONE', #601, .T. ) ;
#250 = ORIENTED_EDGE ( 'NONE', *, *, #551, .T. ) ;
#251 = CARTESIAN_POINT ( 'NONE',  ( 31.00000000000000000, -15.50000000000000355, 1000.000000000000000 ) ) ;
#252 = ORIENTED_EDGE ( 'NONE', *, *, #146, .T. ) ;
#253 = LINE ( 'NONE', #568, #392 ) ;
#254 = DIRECTION ( 'NONE',  ( -0.000000000000000000, -0.000000000000000000, -1.000000000000000000 ) ) ;
#255 = CARTESIAN_POINT ( 'NONE',  ( 40.00000000000000000, 11.00000000000000178, 1000.000000000000000 ) ) ;
#256 = CARTESIAN_POINT ( 'NONE',  ( 31.00000000000000000, -20.00000000000000355, 0.000000000000000000 ) ) ;
#257 = AXIS2_PLACEMENT_3D ( 'NONE', #33, #429, #184 ) ;
#258 = CC_DESIGN_SECURITY_CLASSIFICATION ( #445, ( #580 ) ) ;
#259 = DIRECTION ( 'NONE',  ( -1.000000000000000000, 0.000000000000000000, 0.000000000000000000 ) ) ;
#260 = EDGE_CURVE ( 'NONE', #242, #398, #609, .T. ) ;
#261 = CARTESIAN_POINT ( 'NONE',  ( -31.00000000000000000, -11.00000000000000178, 1000.000000000000000 ) ) ;
#262 = CARTESIAN_POINT ( 'NONE',  ( -31.00000000000000000, -15.50000000000000000, 1000.000000000000000 ) ) ;
#263 = APPROVAL_DATE_TIME ( #268, #434 ) ;
#264 = DIRECTION ( 'NONE',  ( -0.000000000000000000, -0.000000000000000000, -1.000000000000000000 ) ) ;
#265 = ORIENTED_EDGE ( 'NONE', *, *, #116, .F. ) ;
#266 = AXIS2_PLACEMENT_3D ( 'NONE', #354, #565, #505 ) ;
#267 = ADVANCED_BREP_SHAPE_REPRESENTATION ( 'Rectangle - 80.0 X 40.0 X 4.50', ( #141, #649 ), #600 ) ;
#268 = DATE_AND_TIME ( #313, #569 ) ;
#269 = CARTESIAN_POINT ( 'NONE',  ( 31.00000000000000000, 11.00000000000000178, 1000.000000000000000 ) ) ;
#270 = ORIENTED_EDGE ( 'NONE', *, *, #653, .T. ) ;
#271 = PLANE ( 'NONE',  #257 ) ;
#272 = DATE_AND_TIME ( #464, #15 ) ;
#273 = CARTESIAN_POINT ( 'NONE',  ( 35.50000000000000711, -11.00000000000000178, 1000.000000000000000 ) ) ;
#274 = VERTEX_POINT ( 'NONE', #302 ) ;
#275 = VERTEX_POINT ( 'NONE', #256 ) ;
#276 = COORDINATED_UNIVERSAL_TIME_OFFSET ( 2, 0, .AHEAD. ) ;
#277 = APPLICATION_CONTEXT ( 'configuration controlled 3d designs of mechanical parts and assemblies' ) ;
#278 = CARTESIAN_POINT ( 'NONE',  ( 35.50000000000000711, 11.00000000000000178, 0.000000000000000000 ) ) ;
#279 = ORIENTED_EDGE ( 'NONE', *, *, #577, .F. ) ;
#280 = ADVANCED_FACE ( 'NONE', ( #514 ), #155, .F. ) ;
#281 = AXIS2_PLACEMENT_3D ( 'NONE', #173, #120, #473 ) ;
#282 = LOCAL_TIME ( 17, 16, 30.00000000000000000, #634 ) ;
#283 = CYLINDRICAL_SURFACE ( 'NONE', #28, 9.000000000000001776 ) ;
#284 = ORIENTED_EDGE ( 'NONE', *, *, #192, .T. ) ;
#285 = EDGE_CURVE ( 'NONE', #598, #488, #253, .T. ) ;
#286 = EDGE_LOOP ( 'NONE', ( #324, #635, #151, #32 ) ) ;
#287 = EDGE_LOOP ( 'NONE', ( #439, #526, #525, #133 ) ) ;
#288 = CARTESIAN_POINT ( 'NONE',  ( -31.00000000000000000, 15.50000000000000000, 1000.000000000000000 ) ) ;
#289 = ADVANCED_FACE ( 'NONE', ( #6 ), #210, .T. ) ;
#290 = VERTEX_POINT ( 'NONE', #107 ) ;
#291 = LINE ( 'NONE', #494, #216 ) ;
#292 = AXIS2_PLACEMENT_3D ( 'NONE', #507, #14, #109 ) ;
#293 = VECTOR ( 'NONE', #264, 1000.000000000000000 ) ;
#294 = ORIENTED_EDGE ( 'NONE', *, *, #527, .T. ) ;
#295 = CARTESIAN_POINT ( 'NONE',  ( 31.00000000000000000, -11.00000000000000178, 0.000000000000000000 ) ) ;
#296 = ORIENTED_EDGE ( 'NONE', *, *, #285, .F. ) ;
#297 = DIRECTION ( 'NONE',  ( 0.000000000000000000, -1.000000000000000000, 0.000000000000000000 ) ) ;
#298 = ORIENTED_EDGE ( 'NONE', *, *, #219, .T. ) ;
#299 = DIRECTION ( 'NONE',  ( 0.000000000000000000, -0.000000000000000000, -1.000000000000000000 ) ) ;
#300 = AXIS2_PLACEMENT_3D ( 'NONE', #269, #75, #411 ) ;
#301 = VERTEX_POINT ( 'NONE', #262 ) ;
#302 = CARTESIAN_POINT ( 'NONE',  ( -31.00000000000000000, 20.00000000000000355, 0.000000000000000000 ) ) ;
#303 = CARTESIAN_POINT ( 'NONE',  ( 31.00000000000000000, -20.00000000000000355, 1000.000000000000000 ) ) ;
#304 = CARTESIAN_POINT ( 'NONE',  ( -31.00000000000000000, 15.50000000000000000, 1000.000000000000000 ) ) ;
#305 = CARTESIAN_POINT ( 'NONE',  ( -40.00000000000000000, 11.00000000000000178, 1000.000000000000000 ) ) ;
#306 = EDGE_CURVE ( 'NONE', #240, #274, #462, .T. ) ;
#307 = DIRECTION ( 'NONE',  ( -1.000000000000000000, -0.000000000000000000, -0.000000000000000000 ) ) ;
#308 = PLANE ( 'NONE',  #467 ) ;
#309 = LINE ( 'NONE', #206, #512 ) ;
#310 = AXIS2_PLACEMENT_3D ( 'NONE', #130, #377, #19 ) ;
#311 = APPROVAL ( #518, 'UNSPECIFIED' ) ;
#312 = FACE_OUTER_BOUND ( 'NONE', #339, .T. ) ;
#313 = CALENDAR_DATE ( 2026, 16, 4 ) ;
#314 = CYLINDRICAL_SURFACE ( 'NONE', #30, 9.000000000000001776 ) ;
#315 = LINE ( 'NONE', #625, #433 ) ;
#316 = CARTESIAN_POINT ( 'NONE',  ( -40.00000000000000000, -11.00000000000000178, 0.000000000000000000 ) ) ;
#317 = ORIENTED_EDGE ( 'NONE', *, *, #221, .F. ) ;
#318 = AXIS2_PLACEMENT_3D ( 'NONE', #238, #96, #140 ) ;
#319 = VECTOR ( 'NONE', #608, 1000.000000000000000 ) ;
#320 = CARTESIAN_POINT ( 'NONE',  ( -31.00000000000000000, -20.00000000000000355, 1000.000000000000000 ) ) ;
#321 = ORIENTED_EDGE ( 'NONE', *, *, #376, .F. ) ;
#322 = APPLICATION_PROTOCOL_DEFINITION ( 'international standard', 'config_control_design', 1994, #492 ) ;
#323 = CARTESIAN_POINT ( 'NONE',  ( -31.00000000000000000, 15.50000000000000178, 0.000000000000000000 ) ) ;
#324 = ORIENTED_EDGE ( 'NONE', *, *, #496, .T. ) ;
#325 = DIRECTION ( 'NONE',  ( -1.000000000000000000, 0.000000000000000000, 0.000000000000000000 ) ) ;
#326 = ORIENTED_EDGE ( 'NONE', *, *, #500, .F. ) ;
#327 = VECTOR ( 'NONE', #340, 1000.000000000000000 ) ;
#328 = AXIS2_PLACEMENT_3D ( 'NONE', #102, #106, #158 ) ;
#329 = ORIENTED_EDGE ( 'NONE', *, *, #553, .F. ) ;
#330 = LINE ( 'NONE', #540, #627 ) ;
#331 = EDGE_CURVE ( 'NONE', #506, #246, #337, .T. ) ;
#332 = ORIENTED_EDGE ( 'NONE', *, *, #432, .T. ) ;
#333 = CARTESIAN_POINT ( 'NONE',  ( -40.00000000000000000, 11.00000000000000178, 0.000000000000000000 ) ) ;
#334 = EDGE_CURVE ( 'NONE', #43, #301, #590, .T. ) ;
#335 = ORIENTED_EDGE ( 'NONE', *, *, #197, .F. ) ;
#336 = PLANE ( 'NONE',  #48 ) ;
#337 = CIRCLE ( 'NONE', #292, 4.500000000000003553 ) ;
#338 = APPROVAL_PERSON_ORGANIZATION ( #362, #434, #117 ) ;
#339 = EDGE_LOOP ( 'NONE', ( #203, #181, #344, #644 ) ) ;
#340 = DIRECTION ( 'NONE',  ( 1.000000000000000000, 0.000000000000000000, 0.000000000000000000 ) ) ;
#341 = EDGE_LOOP ( 'NONE', ( #95, #604, #233, #558 ) ) ;
#342 = CARTESIAN_POINT ( 'NONE',  ( 31.00000000000000000, -20.00000000000000355, 1000.000000000000000 ) ) ;
#343 = DIRECTION ( 'NONE',  ( -0.000000000000000000, -0.000000000000000000, -1.000000000000000000 ) ) ;
#344 = ORIENTED_EDGE ( 'NONE', *, *, #213, .T. ) ;
#345 = EDGE_CURVE ( 'NONE', #488, #374, #65, .T. ) ;
#346 = CARTESIAN_POINT ( 'NONE',  ( -31.00000000000000000, 20.00000000000000355, 1000.000000000000000 ) ) ;
#347 = CIRCLE ( 'NONE', #394, 9.000000000000001776 ) ;
#348 = DIRECTION ( 'NONE',  ( -1.000000000000000000, 0.000000000000000000, 0.000000000000000000 ) ) ;
#349 = VECTOR ( 'NONE', #408, 1000.000000000000000 ) ;
#350 = LINE ( 'NONE', #157, #38 ) ;
#351 = EDGE_CURVE ( 'NONE', #476, #427, #3, .T. ) ;
#352 = DIRECTION ( 'NONE',  ( -1.000000000000000000, 0.000000000000000000, 0.000000000000000000 ) ) ;
#353 = CARTESIAN_POINT ( 'NONE',  ( -31.00000000000000000, 11.00000000000000178, 1000.000000000000000 ) ) ;
#354 = CARTESIAN_POINT ( 'NONE',  ( 31.00000000000000000, -11.00000000000000178, 1000.000000000000000 ) ) ;
#355 = DIRECTION ( 'NONE',  ( -1.000000000000000000, -0.000000000000000000, -0.000000000000000000 ) ) ;
#356 = DIRECTION ( 'NONE',  ( -0.000000000000000000, -0.000000000000000000, -1.000000000000000000 ) ) ;
#357 = VECTOR ( 'NONE', #135, 1000.000000000000000 ) ;
#358 = DIRECTION ( 'NONE',  ( 0.000000000000000000, -0.000000000000000000, -1.000000000000000000 ) ) ;
#359 = AXIS2_PLACEMENT_3D ( 'NONE', #524, #423, #415 ) ;
#360 = COORDINATED_UNIVERSAL_TIME_OFFSET ( 2, 0, .AHEAD. ) ;
#361 = LINE ( 'NONE', #582, #66 ) ;
#362 = PERSON_AND_ORGANIZATION ( #386, #383 ) ;
#363 = DIRECTION ( 'NONE',  ( -0.000000000000000000, -0.000000000000000000, -1.000000000000000000 ) ) ;
#364 = FACE_BOUND ( 'NONE', #581, .T. ) ;
#365 = DIRECTION ( 'NONE',  ( -1.000000000000000000, 0.000000000000000000, 0.000000000000000000 ) ) ;
#366 = DIRECTION ( 'NONE',  ( 0.000000000000000000, 1.000000000000000000, 0.000000000000000000 ) ) ;
#367 = ORIENTED_EDGE ( 'NONE', *, *, #500, .T. ) ;
#368 = ORIENTED_EDGE ( 'NONE', *, *, #105, .F. ) ;
#369 = AXIS2_PLACEMENT_3D ( 'NONE', #138, #638, #385 ) ;
#370 = EDGE_CURVE ( 'NONE', #427, #274, #152, .T. ) ;
#371 = VECTOR ( 'NONE', #620, 1000.000000000000000 ) ;
#372 = DIRECTION ( 'NONE',  ( 0.000000000000000000, 0.000000000000000000, 1.000000000000000000 ) ) ;
#373 = CYLINDRICAL_SURFACE ( 'NONE', #359, 4.500000000000000888 ) ;
#374 = VERTEX_POINT ( 'NONE', #99 ) ;
#375 =( LENGTH_UNIT ( ) NAMED_UNIT ( * ) SI_UNIT ( .MILLI., .METRE. ) );
#376 = EDGE_CURVE ( 'NONE', #595, #84, #232, .T. ) ;
#377 = DIRECTION ( 'NONE',  ( 0.000000000000000000, 0.000000000000000000, 1.000000000000000000 ) ) ;
#378 = VERTEX_POINT ( 'NONE', #533 ) ;
#379 = VERTEX_POINT ( 'NONE', #632 ) ;
#380 = ORIENTED_EDGE ( 'NONE', *, *, #544, .T. ) ;
#381 = CYLINDRICAL_SURFACE ( 'NONE', #281, 4.500000000000000888 ) ;
#382 = VECTOR ( 'NONE', #144, 1000.000000000000000 ) ;
#383 = ORGANIZATION ( 'UNSPECIFIED', 'UNSPECIFIED', '' ) ;
#384 = ORIENTED_EDGE ( 'NONE', *, *, #544, .F. ) ;
#385 = DIRECTION ( 'NONE',  ( 1.000000000000000000, 0.000000000000000000, 0.000000000000000000 ) ) ;
#386 = PERSON ( 'UNSPECIFIED', 'UNSPECIFIED', 'UNSPECIFIED', ('UNSPECIFIED'), ('UNSPECIFIED'), ('UNSPECIFIED') ) ;
#387 = ADVANCED_FACE ( 'NONE', ( #466 ), #283, .T. ) ;
#388 = ORIENTED_EDGE ( 'NONE', *, *, #168, .F. ) ;
#389 = FACE_OUTER_BOUND ( 'NONE', #633, .T. ) ;
#390 = ORIENTED_EDGE ( 'NONE', *, *, #334, .F. ) ;
#391 = DIRECTION ( 'NONE',  ( -0.000000000000000000, -1.000000000000000000, -0.000000000000000000 ) ) ;
#392 = VECTOR ( 'NONE', #254, 1000.000000000000000 ) ;
#393 = PERSON_AND_ORGANIZATION_ROLE ( 'classification_officer' ) ;
#394 = AXIS2_PLACEMENT_3D ( 'NONE', #498, #543, #85 ) ;
#395 = VECTOR ( 'NONE', #56, 1000.000000000000000 ) ;
#396 = ORIENTED_EDGE ( 'NONE', *, *, #104, .F. ) ;
#397 = DIRECTION ( 'NONE',  ( 1.000000000000000000, 0.000000000000000000, 0.000000000000000000 ) ) ;
#398 = VERTEX_POINT ( 'NONE', #530 ) ;
#399 = DIRECTION ( 'NONE',  ( -1.000000000000000000, -0.000000000000000000, -0.000000000000000000 ) ) ;
#400 = ORIENTED_EDGE ( 'NONE', *, *, #424, .F. ) ;
#401 = CARTESIAN_POINT ( 'NONE',  ( 40.00000000000000000, -11.00000000000000178, 1000.000000000000000 ) ) ;
#402 = AXIS2_PLACEMENT_3D ( 'NONE', #566, #61, #611 ) ;
#403 = AXIS2_PLACEMENT_3D ( 'NONE', #631, #372, #365 ) ;
#404 = EDGE_CURVE ( 'NONE', #398, #476, #174, .T. ) ;
#405 = CARTESIAN_POINT ( 'NONE',  ( 40.00000000000000000, -11.00000000000000178, 1000.000000000000000 ) ) ;
#406 = DIRECTION ( 'NONE',  ( -0.000000000000000000, -0.000000000000000000, -1.000000000000000000 ) ) ;
#407 = CC_DESIGN_PERSON_AND_ORGANIZATION_ASSIGNMENT ( #641, #393, ( #445 ) ) ;
#408 = DIRECTION ( 'NONE',  ( -0.000000000000000000, -0.000000000000000000, -1.000000000000000000 ) ) ;
#409 = DIRECTION ( 'NONE',  ( 0.000000000000000000, 0.000000000000000000, 1.000000000000000000 ) ) ;
#410 = PERSON_AND_ORGANIZATION ( #386, #383 ) ;
#411 = DIRECTION ( 'NONE',  ( -1.000000000000000000, 0.000000000000000000, 0.000000000000000000 ) ) ;
#412 = AXIS2_PLACEMENT_3D ( 'NONE', #478, #26, #165 ) ;
#413 = EDGE_CURVE ( 'NONE', #37, #379, #549, .T. ) ;
#414 = PERSON_AND_ORGANIZATION ( #386, #383 ) ;
#415 = DIRECTION ( 'NONE',  ( -1.000000000000000000, 0.000000000000000000, 0.000000000000000000 ) ) ;
#416 = ORIENTED_EDGE ( 'NONE', *, *, #345, .T. ) ;
#417 = CARTESIAN_POINT ( 'NONE',  ( 0.000000000000000000, 0.000000000000000000, 0.000000000000000000 ) ) ;
#418 = LINE ( 'NONE', #218, #293 ) ;
#419 = ORIENTED_EDGE ( 'NONE', *, *, #472, .T. ) ;
#420 = ORIENTED_EDGE ( 'NONE', *, *, #404, .F. ) ;
#421 = EDGE_CURVE ( 'NONE', #137, #183, #110, .T. ) ;
#422 = FACE_OUTER_BOUND ( 'NONE', #205, .T. ) ;
#423 = DIRECTION ( 'NONE',  ( -0.000000000000000000, -0.000000000000000000, -1.000000000000000000 ) ) ;
#424 = EDGE_CURVE ( 'NONE', #183, #378, #114, .T. ) ;
#425 = ORIENTED_EDGE ( 'NONE', *, *, #496, .F. ) ;
#426 = DIRECTION ( 'NONE',  ( -0.000000000000000000, -1.000000000000000000, -0.000000000000000000 ) ) ;
#427 = VERTEX_POINT ( 'NONE', #519 ) ;
#428 = PERSON_AND_ORGANIZATION ( #386, #383 ) ;
#429 = DIRECTION ( 'NONE',  ( -0.000000000000000000, 0.000000000000000000, -1.000000000000000000 ) ) ;
#430 = ORIENTED_EDGE ( 'NONE', *, *, #413, .F. ) ;
#431 = DIRECTION ( 'NONE',  ( -0.000000000000000000, -1.000000000000000000, -0.000000000000000000 ) ) ;
#432 = EDGE_CURVE ( 'NONE', #237, #290, #227, .T. ) ;
#433 = VECTOR ( 'NONE', #220, 1000.000000000000000 ) ;
#434 = APPROVAL ( #572, 'UNSPECIFIED' ) ;
#435 = CIRCLE ( 'NONE', #199, 9.000000000000001776 ) ;
#436 = ORIENTED_EDGE ( 'NONE', *, *, #104, .T. ) ;
#437 = CARTESIAN_POINT ( 'NONE',  ( 35.50000000000000711, -11.00000000000000178, 1000.000000000000000 ) ) ;
#438 = APPROVAL_DATE_TIME ( #592, #86 ) ;
#439 = ORIENTED_EDGE ( 'NONE', *, *, #331, .F. ) ;
#440 = DIRECTION ( 'NONE',  ( -1.000000000000000000, 0.000000000000000000, 0.000000000000000000 ) ) ;
#441 = VERTEX_POINT ( 'NONE', #316 ) ;
#442 = DIRECTION ( 'NONE',  ( -1.000000000000000000, 0.000000000000000000, 0.000000000000000000 ) ) ;
#443 = EDGE_CURVE ( 'NONE', #374, #506, #132, .T. ) ;
#444 = CIRCLE ( 'NONE', #369, 4.500000000000003553 ) ;
#445 = SECURITY_CLASSIFICATION ( '', '', #193 ) ;
#446 = CARTESIAN_POINT ( 'NONE',  ( -40.00000000000000000, -11.00000000000000178, 1000.000000000000000 ) ) ;
#447 = ORIENTED_EDGE ( 'NONE', *, *, #129, .T. ) ;
#448 = LINE ( 'NONE', #195, #327 ) ;
#449 = DIRECTION ( 'NONE',  ( 0.000000000000000000, 0.000000000000000000, 1.000000000000000000 ) ) ;
#450 = ORIENTED_EDGE ( 'NONE', *, *, #443, .T. ) ;
#451 = EDGE_CURVE ( 'NONE', #595, #82, #418, .T. ) ;
#452 = DIRECTION ( 'NONE',  ( 0.000000000000000000, 1.000000000000000000, 0.000000000000000000 ) ) ;
#453 = DIRECTION ( 'NONE',  ( 0.000000000000000000, 1.000000000000000000, 0.000000000000000000 ) ) ;
#454 = DIRECTION ( 'NONE',  ( 0.000000000000000000, 0.000000000000000000, 1.000000000000000000 ) ) ;
#455 = ADVANCED_FACE ( 'NONE', ( #79 ), #373, .F. ) ;
#456 = VECTOR ( 'NONE', #399, 1000.000000000000000 ) ;
#457 = CYLINDRICAL_SURFACE ( 'NONE', #484, 9.000000000000001776 ) ;
#458 = LOCAL_TIME ( 17, 16, 30.00000000000000000, #489 ) ;
#459 = LINE ( 'NONE', #570, #160 ) ;
#460 = CARTESIAN_POINT ( 'NONE',  ( -31.00000000000000000, -11.00000000000000178, 1000.000000000000000 ) ) ;
#461 = DIRECTION ( 'NONE',  ( -0.000000000000000000, -0.000000000000000000, -1.000000000000000000 ) ) ;
#462 = LINE ( 'NONE', #57, #495 ) ;
#463 = EDGE_CURVE ( 'NONE', #82, #275, #164, .T. ) ;
#464 = CALENDAR_DATE ( 2026, 16, 4 ) ;
#465 = AXIS2_PLACEMENT_3D ( 'NONE', #60, #112, #52 ) ;
#466 = FACE_OUTER_BOUND ( 'NONE', #471, .T. ) ;
#467 = AXIS2_PLACEMENT_3D ( 'NONE', #54, #259, #449 ) ;
#468 = ORIENTED_EDGE ( 'NONE', *, *, #653, .F. ) ;
#469 = LINE ( 'NONE', #22, #78 ) ;
#470 = DIRECTION ( 'NONE',  ( -1.000000000000000000, 0.000000000000000000, 0.000000000000000000 ) ) ;
#471 = EDGE_LOOP ( 'NONE', ( #593, #228, #384, #250 ) ) ;
#472 = EDGE_CURVE ( 'NONE', #598, #532, #123, .T. ) ;
#473 = DIRECTION ( 'NONE',  ( -1.000000000000000000, 0.000000000000000000, 0.000000000000000000 ) ) ;
#474 = DATE_AND_TIME ( #113, #145 ) ;
#475 = DIRECTION ( 'NONE',  ( 1.000000000000000000, 0.000000000000000000, 0.000000000000000000 ) ) ;
#476 = VERTEX_POINT ( 'NONE', #176 ) ;
#477 = CC_DESIGN_PERSON_AND_ORGANIZATION_ASSIGNMENT ( #414, #18, ( #580 ) ) ;
#478 = CARTESIAN_POINT ( 'NONE',  ( 35.50000000000000711, -11.00000000000000178, 1000.000000000000000 ) ) ;
#479 = CC_DESIGN_PERSON_AND_ORGANIZATION_ASSIGNMENT ( #234, #92, ( #580 ) ) ;
#480 = LINE ( 'NONE', #29, #629 ) ;
#481 = AXIS2_PLACEMENT_3D ( 'NONE', #118, #71, #222 ) ;
#482 = ORIENTED_EDGE ( 'NONE', *, *, #376, .T. ) ;
#483 = PRODUCT_DEFINITION_SHAPE ( 'NONE', 'NONE',  #148 ) ;
#484 = AXIS2_PLACEMENT_3D ( 'NONE', #209, #356, #348 ) ;
#485 = APPROVAL_ROLE ( '' ) ;
#486 = DIRECTION ( 'NONE',  ( -0.000000000000000000, -0.000000000000000000, -1.000000000000000000 ) ) ;
#487 = ORIENTED_EDGE ( 'NONE', *, *, #192, .F. ) ;
#488 = VERTEX_POINT ( 'NONE', #278 ) ;
#489 = COORDINATED_UNIVERSAL_TIME_OFFSET ( 2, 0, .AHEAD. ) ;
#490 = ORIENTED_EDGE ( 'NONE', *, *, #122, .T. ) ;
#491 = CARTESIAN_POINT ( 'NONE',  ( -40.00000000000000000, -11.00000000000000178, 1000.000000000000000 ) ) ;
#492 = APPLICATION_CONTEXT ( 'configuration controlled 3d designs of mechanical parts and assemblies' ) ;
#493 = ORIENTED_EDGE ( 'NONE', *, *, #463, .T. ) ;
#494 = CARTESIAN_POINT ( 'NONE',  ( 31.00000000000000000, 15.50000000000000000, 1000.000000000000000 ) ) ;
#495 = VECTOR ( 'NONE', #355, 1000.000000000000000 ) ;
#496 = EDGE_CURVE ( 'NONE', #630, #25, #361, .T. ) ;
#497 = ORIENTED_EDGE ( 'NONE', *, *, #345, .F. ) ;
#498 = CARTESIAN_POINT ( 'NONE',  ( 31.00000000000000000, 11.00000000000000178, 0.000000000000000000 ) ) ;
#499 = ORIENTED_EDGE ( 'NONE', *, *, #53, .T. ) ;
#500 = EDGE_CURVE ( 'NONE', #301, #237, #579, .T. ) ;
#501 = CARTESIAN_POINT ( 'NONE',  ( -31.00000000000000000, 11.00000000000000178, 1000.000000000000000 ) ) ;
#502 = EDGE_LOOP ( 'NONE', ( #2, #482, #380, #171, #552, #139, #284, #88 ) ) ;
#503 = CARTESIAN_POINT ( 'NONE',  ( -35.50000000000000711, -11.00000000000000178, 1000.000000000000000 ) ) ;
#504 = VECTOR ( 'NONE', #391, 1000.000000000000000 ) ;
#505 = DIRECTION ( 'NONE',  ( 1.000000000000000000, 0.000000000000000000, 0.000000000000000000 ) ) ;
#506 = VERTEX_POINT ( 'NONE', #323 ) ;
#507 = CARTESIAN_POINT ( 'NONE',  ( -31.00000000000000000, 11.00000000000000178, 0.000000000000000000 ) ) ;
#508 = LINE ( 'NONE', #202, #154 ) ;
#509 = CARTESIAN_POINT ( 'NONE',  ( -35.50000000000000711, 11.00000000000000000, 0.000000000000000000 ) ) ;
#510 = CARTESIAN_POINT ( 'NONE',  ( -35.50000000000000711, -11.00000000000000178, 0.000000000000000000 ) ) ;
#511 = DIRECTION ( 'NONE',  ( 0.000000000000000000, -1.000000000000000000, 0.000000000000000000 ) ) ;
#512 = VECTOR ( 'NONE', #516, 1000.000000000000000 ) ;
#513 = AXIS2_PLACEMENT_3D ( 'NONE', #623, #628, #170 ) ;
#514 = FACE_OUTER_BOUND ( 'NONE', #542, .T. ) ;
#515 = DIRECTION ( 'NONE',  ( 0.000000000000000000, 0.000000000000000000, 1.000000000000000000 ) ) ;
#516 = DIRECTION ( 'NONE',  ( -0.000000000000000000, -0.000000000000000000, -1.000000000000000000 ) ) ;
#517 = ADVANCED_FACE ( 'NONE', ( #573 ), #314, .T. ) ;
#518 = APPROVAL_STATUS ( 'not_yet_approved' ) ;
#519 = CARTESIAN_POINT ( 'NONE',  ( -31.00000000000000000, 20.00000000000000355, 1000.000000000000000 ) ) ;
#520 = ORIENTED_EDGE ( 'NONE', *, *, #463, .F. ) ;
#521 = VERTEX_POINT ( 'NONE', #575 ) ;
#522 = DIRECTION ( 'NONE',  ( 1.000000000000000000, 0.000000000000000000, 0.000000000000000000 ) ) ;
#523 = CIRCLE ( 'NONE', #578, 9.000000000000001776 ) ;
#524 = CARTESIAN_POINT ( 'NONE',  ( 31.00000000000000000, -11.00000000000000178, 1000.000000000000000 ) ) ;
#525 = ORIENTED_EDGE ( 'NONE', *, *, #413, .T. ) ;
#526 = ORIENTED_EDGE ( 'NONE', *, *, #31, .F. ) ;
#527 = EDGE_CURVE ( 'NONE', #72, #441, #480, .T. ) ;
#528 = ADVANCED_FACE ( 'NONE', ( #535 ), #308, .F. ) ;
#529 = APPLICATION_PROTOCOL_DEFINITION ( 'international standard', 'config_control_design', 1994, #277 ) ;
#530 = CARTESIAN_POINT ( 'NONE',  ( 40.00000000000000000, 11.00000000000000178, 1000.000000000000000 ) ) ;
#531 = EDGE_CURVE ( 'NONE', #398, #25, #1, .T. ) ;
#532 = VERTEX_POINT ( 'NONE', #211 ) ;
#533 = CARTESIAN_POINT ( 'NONE',  ( 35.50000000000000711, -11.00000000000000178, 0.000000000000000000 ) ) ;
#534 = ORIENTED_EDGE ( 'NONE', *, *, #421, .T. ) ;
#535 = FACE_OUTER_BOUND ( 'NONE', #286, .T. ) ;
#536 = AXIS2_PLACEMENT_3D ( 'NONE', #36, #596, #440 ) ;
#537 = FACE_OUTER_BOUND ( 'NONE', #502, .T. ) ;
#538 = VERTEX_POINT ( 'NONE', #510 ) ;
#539 = EDGE_CURVE ( 'NONE', #242, #630, #111, .T. ) ;
#540 = CARTESIAN_POINT ( 'NONE',  ( -35.50000000000000711, -11.00000000000000000, 0.000000000000000000 ) ) ;
#541 = CC_DESIGN_PERSON_AND_ORGANIZATION_ASSIGNMENT ( #410, #617, ( #584 ) ) ;
#542 = EDGE_LOOP ( 'NONE', ( #493, #642, #321, #583 ) ) ;
#543 = DIRECTION ( 'NONE',  ( 0.000000000000000000, 0.000000000000000000, 1.000000000000000000 ) ) ;
#544 = EDGE_CURVE ( 'NONE', #84, #242, #40, .T. ) ;
#545 = CALENDAR_DATE ( 2026, 16, 4 ) ;
#546 = ADVANCED_FACE ( 'NONE', ( #45 ), #457, .T. ) ;
#547 = EDGE_LOOP ( 'NONE', ( #468, #80, #329, #119, #396, #425, #646, #520 ) ) ;
#548 = PLANE ( 'NONE',  #196 ) ;
#549 = CIRCLE ( 'NONE', #310, 4.500000000000003553 ) ;
#550 = APPROVAL_PERSON_ORGANIZATION ( #428, #86, #485 ) ;
#551 = EDGE_CURVE ( 'NONE', #84, #275, #610, .T. ) ;
#552 = ORIENTED_EDGE ( 'NONE', *, *, #404, .T. ) ;
#553 = EDGE_CURVE ( 'NONE', #274, #72, #435, .T. ) ;
#554 = FACE_OUTER_BOUND ( 'NONE', #64, .T. ) ;
#555 = ORIENTED_EDGE ( 'NONE', *, *, #136, .T. ) ;
#556 = PLANE ( 'NONE',  #318 ) ;
#557 = CARTESIAN_POINT ( 'NONE',  ( -31.00000000000000000, -20.00000000000000355, 1000.000000000000000 ) ) ;
#558 = ORIENTED_EDGE ( 'NONE', *, *, #221, .T. ) ;
#559 = DIRECTION ( 'NONE',  ( -0.000000000000000000, -0.000000000000000000, -1.000000000000000000 ) ) ;
#560 = VECTOR ( 'NONE', #179, 1000.000000000000000 ) ;
#561 = VECTOR ( 'NONE', #618, 1000.000000000000000 ) ;
#562 = ADVANCED_FACE ( 'NONE', ( #613 ), #563, .T. ) ;
#563 = PLANE ( 'NONE',  #328 ) ;
#564 = DIRECTION ( 'NONE',  ( -0.000000000000000000, -1.000000000000000000, -0.000000000000000000 ) ) ;
#565 = DIRECTION ( 'NONE',  ( 0.000000000000000000, 0.000000000000000000, 1.000000000000000000 ) ) ;
#566 = CARTESIAN_POINT ( 'NONE',  ( -31.00000000000000000, -20.00000000000000355, 1000.000000000000000 ) ) ;
#567 = CARTESIAN_POINT ( 'NONE',  ( -31.00000000000000000, 11.00000000000000178, 0.000000000000000000 ) ) ;
#568 = CARTESIAN_POINT ( 'NONE',  ( 35.50000000000000711, 11.00000000000000178, 1000.000000000000000 ) ) ;
#569 = LOCAL_TIME ( 17, 16, 30.00000000000000000, #276 ) ;
#570 = CARTESIAN_POINT ( 'NONE',  ( -35.50000000000000711, -11.00000000000000000, 1000.000000000000000 ) ) ;
#571 = CC_DESIGN_PERSON_AND_ORGANIZATION_ASSIGNMENT ( #62, #217, ( #148 ) ) ;
#572 = APPROVAL_STATUS ( 'not_yet_approved' ) ;
#573 = FACE_OUTER_BOUND ( 'NONE', #81, .T. ) ;
#574 = ADVANCED_FACE ( 'NONE', ( #249 ), #108, .F. ) ;
#575 = CARTESIAN_POINT ( 'NONE',  ( -40.00000000000000000, -11.00000000000000178, 1000.000000000000000 ) ) ;
#576 = FACE_OUTER_BOUND ( 'NONE', #35, .T. ) ;
#577 = EDGE_CURVE ( 'NONE', #378, #488, #508, .T. ) ;
#578 = AXIS2_PLACEMENT_3D ( 'NONE', #295, #201, #397 ) ;
#579 = LINE ( 'NONE', #125, #371 ) ;
#580 = PRODUCT_DEFINITION_FORMATION_WITH_SPECIFIED_SOURCE ( 'ANY', '', #584, .NOT_KNOWN. ) ;
#581 = EDGE_LOOP ( 'NONE', ( #430, #51, #622, #388, #177, #588, #390, #335 ) ) ;
#582 = CARTESIAN_POINT ( 'NONE',  ( 40.00000000000000000, -11.00000000000000178, 0.000000000000000000 ) ) ;
#583 = ORIENTED_EDGE ( 'NONE', *, *, #451, .T. ) ;
#584 = PRODUCT ( 'Rectangle - 80.0 X 40.0 X 4.50', 'Rectangle - 80.0 X 40.0 X 4.50', '', ( #178 ) ) ;
#585 = CARTESIAN_POINT ( 'NONE',  ( 35.50000000000000711, 11.00000000000000178, 1000.000000000000000 ) ) ;
#586 = CARTESIAN_POINT ( 'NONE',  ( -31.00000000000000000, -15.50000000000000000, 0.000000000000000000 ) ) ;
#587 = ORIENTED_EDGE ( 'NONE', *, *, #432, .F. ) ;
#588 = ORIENTED_EDGE ( 'NONE', *, *, #136, .F. ) ;
#589 = EDGE_CURVE ( 'NONE', #235, #72, #603, .T. ) ;
#590 = CIRCLE ( 'NONE', #230, 4.500000000000003553 ) ;
#591 = FACE_OUTER_BOUND ( 'NONE', #547, .T. ) ;
#592 = DATE_AND_TIME ( #545, #282 ) ;
#593 = ORIENTED_EDGE ( 'NONE', *, *, #186, .T. ) ;
#594 = DIRECTION ( 'NONE',  ( 0.000000000000000000, 1.000000000000000000, 0.000000000000000000 ) ) ;
#595 = VERTEX_POINT ( 'NONE', #557 ) ;
#596 = DIRECTION ( 'NONE',  ( 0.000000000000000000, 0.000000000000000000, 1.000000000000000000 ) ) ;
#597 = ADVANCED_FACE ( 'NONE', ( #4 ), #97, .F. ) ;
#598 = VERTEX_POINT ( 'NONE', #585 ) ;
#599 = CARTESIAN_POINT ( 'NONE',  ( 31.00000000000000000, -15.50000000000000355, 1000.000000000000000 ) ) ;
#600 =( GEOMETRIC_REPRESENTATION_CONTEXT ( 3 ) GLOBAL_UNCERTAINTY_ASSIGNED_CONTEXT ( ( #13 ) ) GLOBAL_UNIT_ASSIGNED_CONTEXT ( ( #375, #626, #124 ) ) REPRESENTATION_CONTEXT ( 'NONE', 'WORKASPACE' ) );
#601 = EDGE_LOOP ( 'NONE', ( #294, #624, #21, #126 ) ) ;
#602 = DIRECTION ( 'NONE',  ( -0.000000000000000000, -0.000000000000000000, -1.000000000000000000 ) ) ;
#603 = LINE ( 'NONE', #305, #616 ) ;
#604 = ORIENTED_EDGE ( 'NONE', *, *, #5, .F. ) ;
#605 = DIRECTION ( 'NONE',  ( -1.000000000000000000, 0.000000000000000000, 0.000000000000000000 ) ) ;
#606 = CARTESIAN_POINT ( 'NONE',  ( 40.00000000000000000, -11.00000000000000178, 1000.000000000000000 ) ) ;
#607 = DIRECTION ( 'NONE',  ( -1.000000000000000000, 0.000000000000000000, 0.000000000000000000 ) ) ;
#608 = DIRECTION ( 'NONE',  ( -0.000000000000000000, -0.000000000000000000, -1.000000000000000000 ) ) ;
#609 = LINE ( 'NONE', #401, #208 ) ;
#610 = LINE ( 'NONE', #303, #349 ) ;
#611 = DIRECTION ( 'NONE',  ( 0.000000000000000000, -0.000000000000000000, 1.000000000000000000 ) ) ;
#612 = EDGE_CURVE ( 'NONE', #521, #441, #469, .T. ) ;
#613 = FACE_OUTER_BOUND ( 'NONE', #341, .T. ) ;
#614 = DIRECTION ( 'NONE',  ( -1.000000000000000000, 0.000000000000000000, 0.000000000000000000 ) ) ;
#615 = VECTOR ( 'NONE', #559, 1000.000000000000000 ) ;
#616 = VECTOR ( 'NONE', #343, 1000.000000000000000 ) ;
#617 = PERSON_AND_ORGANIZATION_ROLE ( 'design_owner' ) ;
#618 = DIRECTION ( 'NONE',  ( 1.000000000000000000, 0.000000000000000000, 0.000000000000000000 ) ) ;
#619 = DIRECTION ( 'NONE',  ( -0.000000000000000000, -0.000000000000000000, -1.000000000000000000 ) ) ;
#620 = DIRECTION ( 'NONE',  ( -0.000000000000000000, -0.000000000000000000, -1.000000000000000000 ) ) ;
#621 = EDGE_LOOP ( 'NONE', ( #198, #317, #46, #367 ) ) ;
#622 = ORIENTED_EDGE ( 'NONE', *, *, #472, .F. ) ;
#623 = CARTESIAN_POINT ( 'NONE',  ( 31.00000000000000000, 11.00000000000000178, 1000.000000000000000 ) ) ;
#624 = ORIENTED_EDGE ( 'NONE', *, *, #612, .F. ) ;
#625 = CARTESIAN_POINT ( 'NONE',  ( -35.50000000000000711, 11.00000000000000000, 1000.000000000000000 ) ) ;
#626 =( NAMED_UNIT ( * ) PLANE_ANGLE_UNIT ( ) SI_UNIT ( $, .RADIAN. ) );
#627 = VECTOR ( 'NONE', #431, 1000.000000000000000 ) ;
#628 = DIRECTION ( 'NONE',  ( 0.000000000000000000, 0.000000000000000000, 1.000000000000000000 ) ) ;
#629 = VECTOR ( 'NONE', #426, 1000.000000000000000 ) ;
#630 = VERTEX_POINT ( 'NONE', #169 ) ;
#631 = CARTESIAN_POINT ( 'NONE',  ( -31.00000000000000000, -11.00000000000000178, 0.000000000000000000 ) ) ;
#632 = CARTESIAN_POINT ( 'NONE',  ( -35.50000000000000711, 11.00000000000000000, 1000.000000000000000 ) ) ;
#633 = EDGE_LOOP ( 'NONE', ( #587, #326, #555, #499 ) ) ;
#634 = COORDINATED_UNIVERSAL_TIME_OFFSET ( 2, 0, .AHEAD. ) ;
#635 = ORIENTED_EDGE ( 'NONE', *, *, #531, .F. ) ;
#636 = ORIENTED_EDGE ( 'NONE', *, *, #553, .T. ) ;
#637 = VECTOR ( 'NONE', #204, 1000.000000000000000 ) ;
#638 = DIRECTION ( 'NONE',  ( 0.000000000000000000, 0.000000000000000000, 1.000000000000000000 ) ) ;
#639 = ADVANCED_FACE ( 'NONE', ( #422 ), #225, .T. ) ;
#640 = AXIS2_PLACEMENT_3D ( 'NONE', #446, #650, #150 ) ;
#641 = PERSON_AND_ORGANIZATION ( #386, #383 ) ;
#642 = ORIENTED_EDGE ( 'NONE', *, *, #551, .F. ) ;
#643 = CARTESIAN_POINT ( 'NONE',  ( -31.00000000000000000, 20.00000000000000355, 1000.000000000000000 ) ) ;
#644 = ORIENTED_EDGE ( 'NONE', *, *, #31, .T. ) ;
#645 = FACE_BOUND ( 'NONE', #93, .T. ) ;
#646 = ORIENTED_EDGE ( 'NONE', *, *, #186, .F. ) ;
#647 = CARTESIAN_POINT ( 'NONE',  ( 35.50000000000000711, -11.00000000000000178, 1000.000000000000000 ) ) ;
#648 = CIRCLE ( 'NONE', #536, 9.000000000000001776 ) ;
#649 = AXIS2_PLACEMENT_3D ( 'NONE', #417, #515, #522 ) ;
#650 = DIRECTION ( 'NONE',  ( 1.000000000000000000, 0.000000000000000000, 0.000000000000000000 ) ) ;
#651 = ORIENTED_EDGE ( 'NONE', *, *, #306, .T. ) ;
#652 = DIRECTION ( 'NONE',  ( 0.000000000000000000, 1.000000000000000000, 0.000000000000000000 ) ) ;
#653 = EDGE_CURVE ( 'NONE', #441, #82, #239, .T. ) ;
ENDSEC;
END-ISO-10303-21;
