ISO-10303-21;
HEADER;
FILE_DESCRIPTION (( 'STEP AP203' ),
    '1' );
FILE_NAME ('Rectangle - 100.0 X 50.0 X 1.60.step',
    '2026-04-16T14:15:40',
    ( '' ),
    ( '' ),
    'SwSTEP 2.0',
    'SolidWorks 2023',
    '' );
FILE_SCHEMA (( 'CONFIG_CONTROL_DESIGN' ));
ENDSEC;

DATA;
#1 = ORIENTED_EDGE ( 'NONE', *, *, #425, .T. ) ;
#2 = DATE_AND_TIME ( #604, #544 ) ;
#3 = CARTESIAN_POINT ( 'NONE',  ( 46.80000000000000426, -23.40000000000000213, 1000.000000000000000 ) ) ;
#4 = ORIENTED_EDGE ( 'NONE', *, *, #503, .T. ) ;
#5 = CARTESIAN_POINT ( 'NONE',  ( -46.80000000000000426, -24.99999999999999645, 1000.000000000000000 ) ) ;
#6 = ORIENTED_EDGE ( 'NONE', *, *, #247, .F. ) ;
#7 = PERSON_AND_ORGANIZATION ( #121, #227 ) ;
#8 = VECTOR ( 'NONE', #451, 1000.000000000000000 ) ;
#9 = CYLINDRICAL_SURFACE ( 'NONE', #632, 3.199999999999994404 ) ;
#10 = ORIENTED_EDGE ( 'NONE', *, *, #318, .F. ) ;
#11 = DIRECTION ( 'NONE',  ( -1.000000000000000000, 0.000000000000000000, 0.000000000000000000 ) ) ;
#12 = ORIENTED_EDGE ( 'NONE', *, *, #153, .F. ) ;
#13 = CIRCLE ( 'NONE', #380, 3.200000000000001510 ) ;
#14 = DIRECTION ( 'NONE',  ( 0.000000000000000000, 0.000000000000000000, -1.000000000000000000 ) ) ;
#15 = EDGE_LOOP ( 'NONE', ( #472, #426, #497, #1, #548, #88, #179, #551 ) ) ;
#16 = ADVANCED_FACE ( 'NONE', ( #570, #322 ), #524, .T. ) ;
#17 = ORIENTED_EDGE ( 'NONE', *, *, #372, .F. ) ;
#18 = AXIS2_PLACEMENT_3D ( 'NONE', #128, #525, #26 ) ;
#19 = VERTEX_POINT ( 'NONE', #115 ) ;
#20 = MANIFOLD_SOLID_BREP ( 'Boss-Extrude1', #344 ) ;
#21 = DIRECTION ( 'NONE',  ( -1.000000000000000000, 0.000000000000000000, 0.000000000000000000 ) ) ;
#22 = ORIENTED_EDGE ( 'NONE', *, *, #153, .T. ) ;
#23 = CARTESIAN_POINT ( 'NONE',  ( 46.79999999999999716, 25.00000000000000711, 0.000000000000000000 ) ) ;
#24 = EDGE_CURVE ( 'NONE', #120, #147, #70, .T. ) ;
#25 = CARTESIAN_POINT ( 'NONE',  ( -46.80000000000000426, 23.40000000000000568, 1000.000000000000000 ) ) ;
#26 = DIRECTION ( 'NONE',  ( 0.000000000000000000, -0.000000000000000000, -1.000000000000000000 ) ) ;
#27 = CC_DESIGN_APPROVAL ( #550, ( #479 ) ) ;
#28 = VECTOR ( 'NONE', #194, 1000.000000000000000 ) ;
#29 = VECTOR ( 'NONE', #132, 1000.000000000000000 ) ;
#30 = VERTEX_POINT ( 'NONE', #228 ) ;
#31 = CARTESIAN_POINT ( 'NONE',  ( -46.80000000000000426, -23.39999999999999858, 1000.000000000000000 ) ) ;
#32 = CYLINDRICAL_SURFACE ( 'NONE', #589, 3.200000000000001510 ) ;
#33 = LINE ( 'NONE', #237, #187 ) ;
#34 = DIRECTION ( 'NONE',  ( -1.000000000000000000, 0.000000000000000000, 0.000000000000000000 ) ) ;
#35 = EDGE_CURVE ( 'NONE', #162, #477, #483, .T. ) ;
#36 = EDGE_LOOP ( 'NONE', ( #627, #566, #6, #474 ) ) ;
#37 = DIRECTION ( 'NONE',  ( 0.000000000000000000, -0.000000000000000000, -1.000000000000000000 ) ) ;
#38 = DIRECTION ( 'NONE',  ( -0.000000000000000000, -0.000000000000000000, -1.000000000000000000 ) ) ;
#39 = APPROVAL ( #309, 'UNSPECIFIED' ) ;
#40 = LINE ( 'NONE', #291, #242 ) ;
#41 = DIRECTION ( 'NONE',  ( -1.000000000000000000, 0.000000000000000000, 0.000000000000000000 ) ) ;
#42 = EDGE_LOOP ( 'NONE', ( #116, #274, #222, #574 ) ) ;
#43 = EDGE_CURVE ( 'NONE', #597, #256, #188, .T. ) ;
#44 = VECTOR ( 'NONE', #90, 1000.000000000000000 ) ;
#45 = CARTESIAN_POINT ( 'NONE',  ( -46.80000000000000426, -23.39999999999999858, 1000.000000000000000 ) ) ;
#46 = PERSON_AND_ORGANIZATION_ROLE ( 'creator' ) ;
#47 = ORIENTED_EDGE ( 'NONE', *, *, #24, .F. ) ;
#48 = PERSON_AND_ORGANIZATION ( #121, #227 ) ;
#49 = FACE_BOUND ( 'NONE', #463, .T. ) ;
#50 = VERTEX_POINT ( 'NONE', #239 ) ;
#51 = CYLINDRICAL_SURFACE ( 'NONE', #127, 1.599999999999997202 ) ;
#52 = VERTEX_POINT ( 'NONE', #287 ) ;
#53 = PERSON_AND_ORGANIZATION_ROLE ( 'design_owner' ) ;
#54 = PLANE ( 'NONE',  #653 ) ;
#55 = EDGE_CURVE ( 'NONE', #30, #19, #335, .T. ) ;
#56 = ORIENTED_EDGE ( 'NONE', *, *, #492, .T. ) ;
#57 = PERSON_AND_ORGANIZATION ( #121, #227 ) ;
#58 = VECTOR ( 'NONE', #171, 1000.000000000000000 ) ;
#59 = CARTESIAN_POINT ( 'NONE',  ( -50.00000000000000000, 21.80000000000000782, 1000.000000000000000 ) ) ;
#60 = PRODUCT_DEFINITION_SHAPE ( 'NONE', 'NONE',  #479 ) ;
#61 = VERTEX_POINT ( 'NONE', #284 ) ;
#62 = CARTESIAN_POINT ( 'NONE',  ( -46.80000000000000426, -21.80000000000000426, 0.000000000000000000 ) ) ;
#63 = VERTEX_POINT ( 'NONE', #437 ) ;
#64 = EDGE_CURVE ( 'NONE', #468, #494, #113, .T. ) ;
#65 = ORIENTED_EDGE ( 'NONE', *, *, #425, .F. ) ;
#66 = VECTOR ( 'NONE', #136, 1000.000000000000000 ) ;
#67 = EDGE_LOOP ( 'NONE', ( #10, #173, #167, #355 ) ) ;
#68 = LINE ( 'NONE', #478, #248 ) ;
#69 = EDGE_CURVE ( 'NONE', #30, #597, #214, .T. ) ;
#70 = LINE ( 'NONE', #25, #515 ) ;
#71 = DIRECTION ( 'NONE',  ( -1.000000000000000000, 0.000000000000000000, 0.000000000000000000 ) ) ;
#72 = AXIS2_PLACEMENT_3D ( 'NONE', #252, #192, #642 ) ;
#73 = ORIENTED_EDGE ( 'NONE', *, *, #43, .T. ) ;
#74 = CARTESIAN_POINT ( 'NONE',  ( 49.99999999999999289, -21.80000000000000071, 0.000000000000000000 ) ) ;
#75 = APPROVAL_PERSON_ORGANIZATION ( #7, #379, #208 ) ;
#76 = VECTOR ( 'NONE', #235, 1000.000000000000000 ) ;
#77 = DIRECTION ( 'NONE',  ( 1.000000000000000000, 0.000000000000000000, 0.000000000000000000 ) ) ;
#78 = DIRECTION ( 'NONE',  ( 1.591489427501657650E-16, 1.000000000000000000, 0.000000000000000000 ) ) ;
#79 = CARTESIAN_POINT ( 'NONE',  ( -46.80000000000000426, -21.80000000000000426, 1000.000000000000000 ) ) ;
#80 = ADVANCED_FACE ( 'NONE', ( #485 ), #32, .T. ) ;
#81 = FACE_OUTER_BOUND ( 'NONE', #306, .T. ) ;
#82 = DIRECTION ( 'NONE',  ( 1.000000000000000000, 0.000000000000000000, 0.000000000000000000 ) ) ;
#83 = PLANE ( 'NONE',  #72 ) ;
#84 = VERTEX_POINT ( 'NONE', #539 ) ;
#85 = DIRECTION ( 'NONE',  ( -0.000000000000000000, -0.000000000000000000, -1.000000000000000000 ) ) ;
#86 = CARTESIAN_POINT ( 'NONE',  ( -48.40000000000000568, 21.80000000000000782, 0.000000000000000000 ) ) ;
#87 = CARTESIAN_POINT ( 'NONE',  ( -46.80000000000000426, 21.80000000000000782, 1000.000000000000000 ) ) ;
#88 = ORIENTED_EDGE ( 'NONE', *, *, #277, .T. ) ;
#89 = DIRECTION ( 'NONE',  ( 0.000000000000000000, 0.000000000000000000, 1.000000000000000000 ) ) ;
#90 = DIRECTION ( 'NONE',  ( -1.000000000000000000, -0.000000000000000000, -0.000000000000000000 ) ) ;
#91 = AXIS2_PLACEMENT_3D ( 'NONE', #105, #569, #215 ) ;
#92 = ORIENTED_EDGE ( 'NONE', *, *, #484, .T. ) ;
#93 = ADVANCED_FACE ( 'NONE', ( #340 ), #329, .F. ) ;
#94 = FACE_OUTER_BOUND ( 'NONE', #633, .T. ) ;
#95 = VERTEX_POINT ( 'NONE', #86 ) ;
#96 = ORIENTED_EDGE ( 'NONE', *, *, #250, .F. ) ;
#97 = PERSON_AND_ORGANIZATION ( #121, #227 ) ;
#98 = CIRCLE ( 'NONE', #270, 1.599999999999997202 ) ;
#99 = EDGE_LOOP ( 'NONE', ( #388, #96, #348, #92 ) ) ;
#100 = CALENDAR_DATE ( 2026, 16, 4 ) ;
#101 = DIRECTION ( 'NONE',  ( 0.000000000000000000, 0.000000000000000000, 1.000000000000000000 ) ) ;
#102 = EDGE_CURVE ( 'NONE', #95, #205, #432, .T. ) ;
#103 = ORIENTED_EDGE ( 'NONE', *, *, #313, .F. ) ;
#104 = CC_DESIGN_PERSON_AND_ORGANIZATION_ASSIGNMENT ( #163, #460, ( #143 ) ) ;
#105 = CARTESIAN_POINT ( 'NONE',  ( 46.80000000000000426, -21.80000000000000071, 1000.000000000000000 ) ) ;
#106 = VECTOR ( 'NONE', #38, 1000.000000000000000 ) ;
#107 = EDGE_LOOP ( 'NONE', ( #65, #523, #122, #297 ) ) ;
#108 = PERSON_AND_ORGANIZATION ( #121, #227 ) ;
#109 = CIRCLE ( 'NONE', #258, 3.199999999999994404 ) ;
#110 = CYLINDRICAL_SURFACE ( 'NONE', #91, 1.599999999999997202 ) ;
#111 = ORIENTED_EDGE ( 'NONE', *, *, #484, .F. ) ;
#112 = CIRCLE ( 'NONE', #196, 3.200000000000001510 ) ;
#113 = CIRCLE ( 'NONE', #283, 1.599999999999997202 ) ;
#114 = LINE ( 'NONE', #182, #58 ) ;
#115 = CARTESIAN_POINT ( 'NONE',  ( -46.80000000000000426, 25.00000000000001066, 0.000000000000000000 ) ) ;
#116 = ORIENTED_EDGE ( 'NONE', *, *, #209, .F. ) ;
#117 = ADVANCED_FACE ( 'NONE', ( #638 ), #394, .T. ) ;
#118 =( NAMED_UNIT ( * ) SI_UNIT ( $, .STERADIAN. ) SOLID_ANGLE_UNIT ( ) );
#119 = CARTESIAN_POINT ( 'NONE',  ( 50.00000000000000000, 21.80000000000000782, 0.000000000000000000 ) ) ;
#120 = VERTEX_POINT ( 'NONE', #289 ) ;
#121 = PERSON ( 'UNSPECIFIED', 'UNSPECIFIED', 'UNSPECIFIED', ('UNSPECIFIED'), ('UNSPECIFIED'), ('UNSPECIFIED') ) ;
#122 = ORIENTED_EDGE ( 'NONE', *, *, #553, .T. ) ;
#123 = ORIENTED_EDGE ( 'NONE', *, *, #436, .F. ) ;
#124 = ORIENTED_EDGE ( 'NONE', *, *, #628, .F. ) ;
#125 = PRODUCT_RELATED_PRODUCT_CATEGORY ( 'detail', '', ( #469 ) ) ;
#126 = CARTESIAN_POINT ( 'NONE',  ( 49.99999999999999289, -21.80000000000000071, 0.000000000000000000 ) ) ;
#127 = AXIS2_PLACEMENT_3D ( 'NONE', #255, #391, #236 ) ;
#128 = CARTESIAN_POINT ( 'NONE',  ( -46.80000000000000426, 23.40000000000000568, 1000.000000000000000 ) ) ;
#129 = CARTESIAN_POINT ( 'NONE',  ( -46.80000000000000426, 21.80000000000000782, 1000.000000000000000 ) ) ;
#130 = EDGE_CURVE ( 'NONE', #120, #245, #447, .T. ) ;
#131 = AXIS2_PLACEMENT_3D ( 'NONE', #635, #381, #332 ) ;
#132 = DIRECTION ( 'NONE',  ( -0.000000000000000000, -0.000000000000000000, -1.000000000000000000 ) ) ;
#133 = CARTESIAN_POINT ( 'NONE',  ( 48.40000000000000568, -21.80000000000000426, 1000.000000000000000 ) ) ;
#134 = APPLICATION_CONTEXT ( 'configuration controlled 3d designs of mechanical parts and assemblies' ) ;
#135 = UNCERTAINTY_MEASURE_WITH_UNIT (LENGTH_MEASURE( 1.000000000000000082E-05 ), #619, 'distance_accuracy_value', 'NONE');
#136 = DIRECTION ( 'NONE',  ( -1.591489427501657403E-16, 1.000000000000000000, 0.000000000000000000 ) ) ;
#137 = DIRECTION ( 'NONE',  ( -1.000000000000000000, 0.000000000000000000, 0.000000000000000000 ) ) ;
#138 = DIRECTION ( 'NONE',  ( 0.000000000000000000, 0.000000000000000000, 1.000000000000000000 ) ) ;
#139 = CARTESIAN_POINT ( 'NONE',  ( -46.80000000000000426, -21.80000000000000426, 0.000000000000000000 ) ) ;
#140 = DIRECTION ( 'NONE',  ( -0.000000000000000000, -0.000000000000000000, -1.000000000000000000 ) ) ;
#141 = CARTESIAN_POINT ( 'NONE',  ( 46.80000000000000426, -23.40000000000000213, 0.000000000000000000 ) ) ;
#142 = EDGE_CURVE ( 'NONE', #61, #315, #489, .T. ) ;
#143 = PRODUCT_DEFINITION_FORMATION_WITH_SPECIFIED_SOURCE ( 'ANY', '', #469, .NOT_KNOWN. ) ;
#144 = VERTEX_POINT ( 'NONE', #595 ) ;
#145 = CARTESIAN_POINT ( 'NONE',  ( 46.80000000000000426, -21.80000000000000071, 1000.000000000000000 ) ) ;
#146 = CIRCLE ( 'NONE', #399, 3.199999999999994404 ) ;
#147 = VERTEX_POINT ( 'NONE', #641 ) ;
#148 = ORIENTED_EDGE ( 'NONE', *, *, #611, .T. ) ;
#149 = PERSON_AND_ORGANIZATION_ROLE ( 'classification_officer' ) ;
#150 = ADVANCED_BREP_SHAPE_REPRESENTATION ( 'Rectangle - 100.0 X 50.0 X 1.60', ( #20, #278 ), #395 ) ;
#151 = ORIENTED_EDGE ( 'NONE', *, *, #492, .F. ) ;
#152 = DATE_TIME_ROLE ( 'creation_date' ) ;
#153 = EDGE_CURVE ( 'NONE', #254, #217, #33, .T. ) ;
#154 = LINE ( 'NONE', #203, #563 ) ;
#155 = COORDINATED_UNIVERSAL_TIME_OFFSET ( 2, 0, .AHEAD. ) ;
#156 = DIRECTION ( 'NONE',  ( 1.000000000000000000, 0.000000000000000000, 0.000000000000000000 ) ) ;
#157 = EDGE_LOOP ( 'NONE', ( #207, #559, #418, #253 ) ) ;
#158 = PERSON_AND_ORGANIZATION ( #121, #227 ) ;
#159 = DIRECTION ( 'NONE',  ( -1.591489427501657650E-16, -1.000000000000000000, 0.000000000000000000 ) ) ;
#160 = VECTOR ( 'NONE', #546, 1000.000000000000000 ) ;
#161 = EDGE_CURVE ( 'NONE', #511, #95, #648, .T. ) ;
#162 = VERTEX_POINT ( 'NONE', #191 ) ;
#163 = PERSON_AND_ORGANIZATION ( #121, #227 ) ;
#164 = EDGE_CURVE ( 'NONE', #50, #162, #534, .T. ) ;
#165 = CC_DESIGN_APPROVAL ( #39, ( #143 ) ) ;
#166 = DIRECTION ( 'NONE',  ( 0.000000000000000000, 0.000000000000000000, 1.000000000000000000 ) ) ;
#167 = ORIENTED_EDGE ( 'NONE', *, *, #24, .T. ) ;
#168 = ORIENTED_EDGE ( 'NONE', *, *, #396, .T. ) ;
#169 = AXIS2_PLACEMENT_3D ( 'NONE', #373, #231, #636 ) ;
#170 = DIRECTION ( 'NONE',  ( -0.000000000000000000, -0.000000000000000000, -1.000000000000000000 ) ) ;
#171 = DIRECTION ( 'NONE',  ( -0.000000000000000000, -0.000000000000000000, -1.000000000000000000 ) ) ;
#172 = FACE_OUTER_BOUND ( 'NONE', #622, .T. ) ;
#173 = ORIENTED_EDGE ( 'NONE', *, *, #130, .F. ) ;
#174 = ORIENTED_EDGE ( 'NONE', *, *, #456, .T. ) ;
#175 = ORIENTED_EDGE ( 'NONE', *, *, #456, .F. ) ;
#176 = CARTESIAN_POINT ( 'NONE',  ( 46.80000000000000426, 23.40000000000000568, 0.000000000000000000 ) ) ;
#177 = VECTOR ( 'NONE', #328, 1000.000000000000000 ) ;
#178 = ADVANCED_FACE ( 'NONE', ( #94 ), #295, .T. ) ;
#179 = ORIENTED_EDGE ( 'NONE', *, *, #142, .T. ) ;
#180 = LINE ( 'NONE', #184, #471 ) ;
#181 = DIRECTION ( 'NONE',  ( -0.000000000000000000, -0.000000000000000000, -1.000000000000000000 ) ) ;
#182 = CARTESIAN_POINT ( 'NONE',  ( -46.80000000000000426, 23.40000000000000568, 1000.000000000000000 ) ) ;
#183 = DIRECTION ( 'NONE',  ( -1.591489427501657403E-16, 1.000000000000000000, 0.000000000000000000 ) ) ;
#184 = CARTESIAN_POINT ( 'NONE',  ( 46.79999999999999716, -24.99999999999999645, 1000.000000000000000 ) ) ;
#185 = CARTESIAN_POINT ( 'NONE',  ( -46.80000000000000426, -24.99999999999999645, 0.000000000000000000 ) ) ;
#186 = CARTESIAN_POINT ( 'NONE',  ( -46.80000000000000426, 21.80000000000000782, 1000.000000000000000 ) ) ;
#187 = VECTOR ( 'NONE', #140, 1000.000000000000000 ) ;
#188 = LINE ( 'NONE', #600, #29 ) ;
#189 = FACE_OUTER_BOUND ( 'NONE', #42, .T. ) ;
#190 = ADVANCED_FACE ( 'NONE', ( #377 ), #585, .T. ) ;
#191 = CARTESIAN_POINT ( 'NONE',  ( 46.79999999999999716, -24.99999999999999645, 0.000000000000000000 ) ) ;
#192 = DIRECTION ( 'NONE',  ( -0.000000000000000000, 0.000000000000000000, -1.000000000000000000 ) ) ;
#193 = CARTESIAN_POINT ( 'NONE',  ( -46.80000000000000426, 21.80000000000000782, 1000.000000000000000 ) ) ;
#194 = DIRECTION ( 'NONE',  ( -0.000000000000000000, -1.000000000000000000, -0.000000000000000000 ) ) ;
#195 = LOCAL_TIME ( 16, 15, 40.00000000000000000, #155 ) ;
#196 = AXIS2_PLACEMENT_3D ( 'NONE', #264, #415, #624 ) ;
#197 = CC_DESIGN_SECURITY_CLASSIFICATION ( #510, ( #143 ) ) ;
#198 = LINE ( 'NONE', #516, #8 ) ;
#199 = ORIENTED_EDGE ( 'NONE', *, *, #324, .T. ) ;
#200 = APPROVAL_DATE_TIME ( #512, #39 ) ;
#201 = EDGE_CURVE ( 'NONE', #613, #95, #98, .T. ) ;
#202 = COORDINATED_UNIVERSAL_TIME_OFFSET ( 2, 0, .AHEAD. ) ;
#203 = CARTESIAN_POINT ( 'NONE',  ( 50.00000000000000000, 21.80000000000000782, 1000.000000000000000 ) ) ;
#204 = EDGE_CURVE ( 'NONE', #477, #579, #582, .T. ) ;
#205 = VERTEX_POINT ( 'NONE', #531 ) ;
#206 = FACE_OUTER_BOUND ( 'NONE', #211, .T. ) ;
#207 = ORIENTED_EDGE ( 'NONE', *, *, #620, .T. ) ;
#208 = APPROVAL_ROLE ( '' ) ;
#209 = EDGE_CURVE ( 'NONE', #315, #245, #643, .T. ) ;
#210 = DIRECTION ( 'NONE',  ( -0.000000000000000000, -0.000000000000000000, -1.000000000000000000 ) ) ;
#211 = EDGE_LOOP ( 'NONE', ( #4, #342, #423, #398, #403, #308, #271, #571 ) ) ;
#212 = APPLICATION_PROTOCOL_DEFINITION ( 'international standard', 'config_control_design', 1994, #333 ) ;
#213 = CARTESIAN_POINT ( 'NONE',  ( -48.39999999999999858, -21.80000000000000426, 1000.000000000000000 ) ) ;
#214 = CIRCLE ( 'NONE', #637, 3.200000000000001510 ) ;
#215 = DIRECTION ( 'NONE',  ( -1.000000000000000000, 0.000000000000000000, 0.000000000000000000 ) ) ;
#216 = AXIS2_PLACEMENT_3D ( 'NONE', #186, #475, #382 ) ;
#217 = VERTEX_POINT ( 'NONE', #538 ) ;
#218 = LINE ( 'NONE', #213, #450 ) ;
#219 = LINE ( 'NONE', #420, #261 ) ;
#220 = ORIENTED_EDGE ( 'NONE', *, *, #553, .F. ) ;
#221 = AXIS2_PLACEMENT_3D ( 'NONE', #129, #280, #481 ) ;
#222 = ORIENTED_EDGE ( 'NONE', *, *, #372, .T. ) ;
#223 = ADVANCED_FACE ( 'NONE', ( #631 ), #272, .F. ) ;
#224 = ORIENTED_EDGE ( 'NONE', *, *, #226, .F. ) ;
#225 = DIRECTION ( 'NONE',  ( 0.000000000000000000, 0.000000000000000000, 1.000000000000000000 ) ) ;
#226 = EDGE_CURVE ( 'NONE', #263, #371, #378, .T. ) ;
#227 = ORGANIZATION ( 'UNSPECIFIED', 'UNSPECIFIED', '' ) ;
#228 = CARTESIAN_POINT ( 'NONE',  ( -46.80000000000000426, 25.00000000000001066, 1000.000000000000000 ) ) ;
#229 = FACE_OUTER_BOUND ( 'NONE', #325, .T. ) ;
#230 = CARTESIAN_POINT ( 'NONE',  ( 48.40000000000000568, -21.80000000000000426, 0.000000000000000000 ) ) ;
#231 = DIRECTION ( 'NONE',  ( 0.000000000000000000, 0.000000000000000000, 1.000000000000000000 ) ) ;
#232 = DIRECTION ( 'NONE',  ( -0.000000000000000000, -0.000000000000000000, -1.000000000000000000 ) ) ;
#233 = DIRECTION ( 'NONE',  ( -1.000000000000000000, -0.000000000000000000, -0.000000000000000000 ) ) ;
#234 = CYLINDRICAL_SURFACE ( 'NONE', #282, 3.199999999999994404 ) ;
#235 = DIRECTION ( 'NONE',  ( -0.000000000000000000, -0.000000000000000000, -1.000000000000000000 ) ) ;
#236 = DIRECTION ( 'NONE',  ( -1.000000000000000000, 0.000000000000000000, 0.000000000000000000 ) ) ;
#237 = CARTESIAN_POINT ( 'NONE',  ( -49.99999999999999289, -21.80000000000000426, 1000.000000000000000 ) ) ;
#238 = LINE ( 'NONE', #336, #276 ) ;
#239 = CARTESIAN_POINT ( 'NONE',  ( -46.80000000000000426, -24.99999999999999645, 0.000000000000000000 ) ) ;
#240 = LINE ( 'NONE', #602, #514 ) ;
#241 = CC_DESIGN_DATE_AND_TIME_ASSIGNMENT ( #303, #567, ( #510 ) ) ;
#242 = VECTOR ( 'NONE', #85, 1000.000000000000000 ) ;
#243 = CARTESIAN_POINT ( 'NONE',  ( -49.99999999999999289, -21.80000000000000426, 1000.000000000000000 ) ) ;
#244 = LOCAL_TIME ( 16, 15, 40.00000000000000000, #406 ) ;
#245 = VERTEX_POINT ( 'NONE', #176 ) ;
#246 = COORDINATED_UNIVERSAL_TIME_OFFSET ( 2, 0, .AHEAD. ) ;
#247 = EDGE_CURVE ( 'NONE', #508, #144, #501, .T. ) ;
#248 = VECTOR ( 'NONE', #535, 1000.000000000000000 ) ;
#249 = VERTEX_POINT ( 'NONE', #23 ) ;
#250 = EDGE_CURVE ( 'NONE', #508, #162, #180, .T. ) ;
#251 = COORDINATED_UNIVERSAL_TIME_OFFSET ( 2, 0, .AHEAD. ) ;
#252 = CARTESIAN_POINT ( 'NONE',  ( -46.80000000000000426, -21.80000000000000426, 1000.000000000000000 ) ) ;
#253 = ORIENTED_EDGE ( 'NONE', *, *, #334, .T. ) ;
#254 = VERTEX_POINT ( 'NONE', #376 ) ;
#255 = CARTESIAN_POINT ( 'NONE',  ( -46.80000000000000426, -21.80000000000000426, 1000.000000000000000 ) ) ;
#256 = VERTEX_POINT ( 'NONE', #330 ) ;
#257 = DIRECTION ( 'NONE',  ( 0.000000000000000000, 0.000000000000000000, 1.000000000000000000 ) ) ;
#258 = AXIS2_PLACEMENT_3D ( 'NONE', #317, #466, #575 ) ;
#259 = EDGE_CURVE ( 'NONE', #449, #30, #68, .T. ) ;
#260 = FACE_OUTER_BOUND ( 'NONE', #36, .T. ) ;
#261 = VECTOR ( 'NONE', #431, 1000.000000000000000 ) ;
#262 = EDGE_LOOP ( 'NONE', ( #56, #650, #352, #410 ) ) ;
#263 = VERTEX_POINT ( 'NONE', #285 ) ;
#264 = CARTESIAN_POINT ( 'NONE',  ( 46.80000000000000426, 21.80000000000000782, 0.000000000000000000 ) ) ;
#265 = DIRECTION ( 'NONE',  ( 0.000000000000000000, 1.000000000000000000, 0.000000000000000000 ) ) ;
#266 = DIRECTION ( 'NONE',  ( -1.000000000000000000, -0.000000000000000000, -0.000000000000000000 ) ) ;
#267 = ORIENTED_EDGE ( 'NONE', *, *, #69, .F. ) ;
#268 = ADVANCED_FACE ( 'NONE', ( #229 ), #435, .T. ) ;
#269 = DIRECTION ( 'NONE',  ( 0.000000000000000000, 0.000000000000000000, 1.000000000000000000 ) ) ;
#270 = AXIS2_PLACEMENT_3D ( 'NONE', #326, #225, #21 ) ;
#271 = ORIENTED_EDGE ( 'NONE', *, *, #69, .T. ) ;
#272 = CYLINDRICAL_SURFACE ( 'NONE', #221, 1.599999999999997202 ) ;
#273 = ADVANCED_FACE ( 'NONE', ( #639 ), #370, .T. ) ;
#274 = ORIENTED_EDGE ( 'NONE', *, *, #324, .F. ) ;
#275 = DIRECTION ( 'NONE',  ( -0.000000000000000000, -0.000000000000000000, -1.000000000000000000 ) ) ;
#276 = VECTOR ( 'NONE', #540, 1000.000000000000000 ) ;
#277 = EDGE_CURVE ( 'NONE', #294, #61, #649, .T. ) ;
#278 = AXIS2_PLACEMENT_3D ( 'NONE', #356, #257, #300 ) ;
#279 = ORIENTED_EDGE ( 'NONE', *, *, #612, .F. ) ;
#280 = DIRECTION ( 'NONE',  ( -0.000000000000000000, -0.000000000000000000, -1.000000000000000000 ) ) ;
#281 = CARTESIAN_POINT ( 'NONE',  ( 46.79999999999999716, 25.00000000000000711, 1000.000000000000000 ) ) ;
#282 = AXIS2_PLACEMENT_3D ( 'NONE', #79, #181, #383 ) ;
#283 = AXIS2_PLACEMENT_3D ( 'NONE', #145, #89, #82 ) ;
#284 = CARTESIAN_POINT ( 'NONE',  ( 48.40000000000000568, -21.80000000000000426, 0.000000000000000000 ) ) ;
#285 = CARTESIAN_POINT ( 'NONE',  ( -46.80000000000000426, -23.39999999999999858, 1000.000000000000000 ) ) ;
#286 = DIRECTION ( 'NONE',  ( -1.000000000000000000, 0.000000000000000000, 0.000000000000000000 ) ) ;
#287 = CARTESIAN_POINT ( 'NONE',  ( -48.39999999999999858, -21.80000000000000426, 1000.000000000000000 ) ) ;
#288 = DIRECTION ( 'NONE',  ( -0.000000000000000000, -0.000000000000000000, -1.000000000000000000 ) ) ;
#289 = CARTESIAN_POINT ( 'NONE',  ( 46.80000000000000426, 23.40000000000000213, 1000.000000000000000 ) ) ;
#290 = CARTESIAN_POINT ( 'NONE',  ( -46.80000000000000426, -23.39999999999999858, 0.000000000000000000 ) ) ;
#291 = CARTESIAN_POINT ( 'NONE',  ( 48.40000000000000568, -21.80000000000000426, 1000.000000000000000 ) ) ;
#292 = DIRECTION ( 'NONE',  ( -1.000000000000000000, 0.000000000000000000, 0.000000000000000000 ) ) ;
#293 = EDGE_CURVE ( 'NONE', #84, #508, #424, .T. ) ;
#294 = VERTEX_POINT ( 'NONE', #141 ) ;
#295 = PLANE ( 'NONE',  #362 ) ;
#296 = LINE ( 'NONE', #45, #547 ) ;
#297 = ORIENTED_EDGE ( 'NONE', *, *, #226, .T. ) ;
#298 = APPROVAL_STATUS ( 'not_yet_approved' ) ;
#299 = AXIS2_PLACEMENT_3D ( 'NONE', #588, #269, #473 ) ;
#300 = DIRECTION ( 'NONE',  ( 1.000000000000000000, 0.000000000000000000, 0.000000000000000000 ) ) ;
#301 = DIRECTION ( 'NONE',  ( -1.000000000000000000, 0.000000000000000000, 0.000000000000000000 ) ) ;
#302 = VECTOR ( 'NONE', #549, 1000.000000000000000 ) ;
#303 = DATE_AND_TIME ( #100, #195 ) ;
#304 = CARTESIAN_POINT ( 'NONE',  ( 46.80000000000000426, 21.80000000000000782, 1000.000000000000000 ) ) ;
#305 = EDGE_CURVE ( 'NONE', #408, #449, #13, .T. ) ;
#306 = EDGE_LOOP ( 'NONE', ( #369, #111, #554, #22 ) ) ;
#307 = CARTESIAN_POINT ( 'NONE',  ( -49.99999999999999289, -21.80000000000000426, 1000.000000000000000 ) ) ;
#308 = ORIENTED_EDGE ( 'NONE', *, *, #259, .T. ) ;
#309 = APPROVAL_STATUS ( 'not_yet_approved' ) ;
#310 = DIRECTION ( 'NONE',  ( 1.000000000000000000, 0.000000000000000000, 0.000000000000000000 ) ) ;
#311 = CIRCLE ( 'NONE', #343, 1.599999999999997202 ) ;
#312 = AXIS2_PLACEMENT_3D ( 'NONE', #429, #375, #77 ) ;
#313 = EDGE_CURVE ( 'NONE', #147, #511, #618, .T. ) ;
#314 = EDGE_LOOP ( 'NONE', ( #174, #629, #267, #609 ) ) ;
#315 = VERTEX_POINT ( 'NONE', #645 ) ;
#316 = ORIENTED_EDGE ( 'NONE', *, *, #204, .F. ) ;
#317 = CARTESIAN_POINT ( 'NONE',  ( -46.80000000000000426, -21.80000000000000426, 0.000000000000000000 ) ) ;
#318 = EDGE_CURVE ( 'NONE', #245, #613, #608, .T. ) ;
#319 = PLANE ( 'NONE',  #364 ) ;
#320 = ORIENTED_EDGE ( 'NONE', *, *, #201, .F. ) ;
#321 = EDGE_CURVE ( 'NONE', #468, #294, #407, .T. ) ;
#322 = FACE_BOUND ( 'NONE', #15, .T. ) ;
#323 = DIRECTION ( 'NONE',  ( -1.000000000000000000, 0.000000000000000000, 0.000000000000000000 ) ) ;
#324 = EDGE_CURVE ( 'NONE', #63, #315, #488, .T. ) ;
#325 = EDGE_LOOP ( 'NONE', ( #623, #123, #562, #199 ) ) ;
#326 = CARTESIAN_POINT ( 'NONE',  ( -46.80000000000000426, 21.80000000000000782, 0.000000000000000000 ) ) ;
#327 = AXIS2_PLACEMENT_3D ( 'NONE', #87, #438, #301 ) ;
#328 = DIRECTION ( 'NONE',  ( -0.000000000000000000, -0.000000000000000000, -1.000000000000000000 ) ) ;
#329 = PLANE ( 'NONE',  #453 ) ;
#330 = CARTESIAN_POINT ( 'NONE',  ( -50.00000000000000000, 21.80000000000000782, 0.000000000000000000 ) ) ;
#331 = VECTOR ( 'NONE', #434, 1000.000000000000000 ) ;
#332 = DIRECTION ( 'NONE',  ( 0.000000000000000000, -0.000000000000000000, 1.000000000000000000 ) ) ;
#333 = APPLICATION_CONTEXT ( 'configuration controlled 3d designs of mechanical parts and assemblies' ) ;
#334 = EDGE_CURVE ( 'NONE', #408, #579, #154, .T. ) ;
#335 = LINE ( 'NONE', #493, #400 ) ;
#336 = CARTESIAN_POINT ( 'NONE',  ( -48.39999999999999858, -21.80000000000000426, 1000.000000000000000 ) ) ;
#337 = CARTESIAN_POINT ( 'NONE',  ( 46.80000000000000426, -23.40000000000000213, 1000.000000000000000 ) ) ;
#338 = EDGE_LOOP ( 'NONE', ( #363, #581, #480, #577 ) ) ;
#339 = ADVANCED_FACE ( 'NONE', ( #206, #49 ), #83, .F. ) ;
#340 = FACE_OUTER_BOUND ( 'NONE', #262, .T. ) ;
#341 = DIRECTION ( 'NONE',  ( 0.000000000000000000, 0.000000000000000000, 1.000000000000000000 ) ) ;
#342 = ORIENTED_EDGE ( 'NONE', *, *, #293, .T. ) ;
#343 = AXIS2_PLACEMENT_3D ( 'NONE', #626, #522, #417 ) ;
#344 = CLOSED_SHELL ( 'NONE', ( #339, #16, #445, #583, #599, #576, #80, #93, #273, #557, #223, #178, #384, #117, #541, #268, #389, #190 ) ) ;
#345 = CARTESIAN_POINT ( 'NONE',  ( -48.39999999999999858, -21.80000000000000426, 0.000000000000000000 ) ) ;
#346 = ORIENTED_EDGE ( 'NONE', *, *, #161, .T. ) ;
#347 = APPROVAL_ROLE ( '' ) ;
#348 = ORIENTED_EDGE ( 'NONE', *, *, #293, .F. ) ;
#349 = APPROVAL_STATUS ( 'not_yet_approved' ) ;
#350 = LINE ( 'NONE', #610, #448 ) ;
#351 = AXIS2_PLACEMENT_3D ( 'NONE', #433, #527, #71 ) ;
#352 = ORIENTED_EDGE ( 'NONE', *, *, #259, .F. ) ;
#353 = SHAPE_DEFINITION_REPRESENTATION ( #60, #150 ) ;
#354 = DIRECTION ( 'NONE',  ( 0.000000000000000000, -0.000000000000000000, 1.000000000000000000 ) ) ;
#355 = ORIENTED_EDGE ( 'NONE', *, *, #612, .T. ) ;
#356 = CARTESIAN_POINT ( 'NONE',  ( 0.000000000000000000, 0.000000000000000000, 0.000000000000000000 ) ) ;
#357 = AXIS2_PLACEMENT_3D ( 'NONE', #387, #592, #137 ) ;
#358 = CC_DESIGN_PERSON_AND_ORGANIZATION_ASSIGNMENT ( #97, #46, ( #479 ) ) ;
#359 = ORIENTED_EDGE ( 'NONE', *, *, #513, .F. ) ;
#360 = SECURITY_CLASSIFICATION_LEVEL ( 'unclassified' ) ;
#361 = CARTESIAN_POINT ( 'NONE',  ( 46.79999999999999716, -24.99999999999999645, 1000.000000000000000 ) ) ;
#362 = AXIS2_PLACEMENT_3D ( 'NONE', #495, #587, #183 ) ;
#363 = ORIENTED_EDGE ( 'NONE', *, *, #204, .T. ) ;
#364 = AXIS2_PLACEMENT_3D ( 'NONE', #518, #265, #354 ) ;
#365 = ORIENTED_EDGE ( 'NONE', *, *, #102, .F. ) ;
#366 = EDGE_CURVE ( 'NONE', #144, #477, #350, .T. ) ;
#367 = PLANE ( 'NONE',  #374 ) ;
#368 = ORIENTED_EDGE ( 'NONE', *, *, #561, .F. ) ;
#369 = ORIENTED_EDGE ( 'NONE', *, *, #628, .T. ) ;
#370 = CYLINDRICAL_SURFACE ( 'NONE', #216, 3.200000000000001510 ) ;
#371 = VERTEX_POINT ( 'NONE', #290 ) ;
#372 = EDGE_CURVE ( 'NONE', #63, #120, #416, .T. ) ;
#373 = CARTESIAN_POINT ( 'NONE',  ( 46.80000000000000426, -21.80000000000000071, 1000.000000000000000 ) ) ;
#374 = AXIS2_PLACEMENT_3D ( 'NONE', #307, #310, #14 ) ;
#375 = DIRECTION ( 'NONE',  ( 0.000000000000000000, 0.000000000000000000, 1.000000000000000000 ) ) ;
#376 = CARTESIAN_POINT ( 'NONE',  ( -49.99999999999999289, -21.80000000000000426, 1000.000000000000000 ) ) ;
#377 = FACE_OUTER_BOUND ( 'NONE', #67, .T. ) ;
#378 = LINE ( 'NONE', #31, #421 ) ;
#379 = APPROVAL ( #298, 'UNSPECIFIED' ) ;
#380 = AXIS2_PLACEMENT_3D ( 'NONE', #304, #341, #455 ) ;
#381 = DIRECTION ( 'NONE',  ( 0.000000000000000000, 1.000000000000000000, 0.000000000000000000 ) ) ;
#382 = DIRECTION ( 'NONE',  ( -1.000000000000000000, 0.000000000000000000, 0.000000000000000000 ) ) ;
#383 = DIRECTION ( 'NONE',  ( -1.000000000000000000, 0.000000000000000000, 0.000000000000000000 ) ) ;
#384 = ADVANCED_FACE ( 'NONE', ( #506 ), #51, .F. ) ;
#385 = DIRECTION ( 'NONE',  ( -0.000000000000000000, -0.000000000000000000, -1.000000000000000000 ) ) ;
#386 = CARTESIAN_POINT ( 'NONE',  ( -46.80000000000000426, 25.00000000000001066, 1000.000000000000000 ) ) ;
#387 = CARTESIAN_POINT ( 'NONE',  ( 46.80000000000000426, 21.80000000000000782, 1000.000000000000000 ) ) ;
#388 = ORIENTED_EDGE ( 'NONE', *, *, #164, .T. ) ;
#389 = ADVANCED_FACE ( 'NONE', ( #189 ), #596, .F. ) ;
#390 = DIRECTION ( 'NONE',  ( -0.000000000000000000, -0.000000000000000000, -1.000000000000000000 ) ) ;
#391 = DIRECTION ( 'NONE',  ( -0.000000000000000000, -0.000000000000000000, -1.000000000000000000 ) ) ;
#392 = ORIENTED_EDGE ( 'NONE', *, *, #277, .F. ) ;
#393 = AXIS2_PLACEMENT_3D ( 'NONE', #490, #101, #34 ) ;
#394 = PLANE ( 'NONE',  #131 ) ;
#395 =( GEOMETRIC_REPRESENTATION_CONTEXT ( 3 ) GLOBAL_UNCERTAINTY_ASSIGNED_CONTEXT ( ( #135 ) ) GLOBAL_UNIT_ASSIGNED_CONTEXT ( ( #619, #572, #118 ) ) REPRESENTATION_CONTEXT ( 'NONE', 'WORKASPACE' ) );
#396 = EDGE_CURVE ( 'NONE', #511, #52, #238, .T. ) ;
#397 = DIRECTION ( 'NONE',  ( -1.000000000000000000, 0.000000000000000000, 0.000000000000000000 ) ) ;
#398 = ORIENTED_EDGE ( 'NONE', *, *, #603, .T. ) ;
#399 = AXIS2_PLACEMENT_3D ( 'NONE', #560, #166, #11 ) ;
#400 = VECTOR ( 'NONE', #232, 1000.000000000000000 ) ;
#401 = EDGE_LOOP ( 'NONE', ( #392, #465, #413, #405 ) ) ;
#402 = FACE_OUTER_BOUND ( 'NONE', #99, .T. ) ;
#403 = ORIENTED_EDGE ( 'NONE', *, *, #305, .T. ) ;
#404 = PERSON_AND_ORGANIZATION ( #121, #227 ) ;
#405 = ORIENTED_EDGE ( 'NONE', *, *, #436, .T. ) ;
#406 = COORDINATED_UNIVERSAL_TIME_OFFSET ( 2, 0, .AHEAD. ) ;
#407 = LINE ( 'NONE', #3, #106 ) ;
#408 = VERTEX_POINT ( 'NONE', #444 ) ;
#409 = CARTESIAN_POINT ( 'NONE',  ( -46.80000000000000426, 23.40000000000000568, 0.000000000000000000 ) ) ;
#410 = ORIENTED_EDGE ( 'NONE', *, *, #439, .T. ) ;
#411 = CC_DESIGN_PERSON_AND_ORGANIZATION_ASSIGNMENT ( #108, #53, ( #469 ) ) ;
#412 = LINE ( 'NONE', #464, #461 ) ;
#413 = ORIENTED_EDGE ( 'NONE', *, *, #64, .T. ) ;
#414 = CALENDAR_DATE ( 2026, 16, 4 ) ;
#415 = DIRECTION ( 'NONE',  ( 0.000000000000000000, 0.000000000000000000, 1.000000000000000000 ) ) ;
#416 = CIRCLE ( 'NONE', #393, 1.599999999999997202 ) ;
#417 = DIRECTION ( 'NONE',  ( -1.000000000000000000, 0.000000000000000000, 0.000000000000000000 ) ) ;
#418 = ORIENTED_EDGE ( 'NONE', *, *, #305, .F. ) ;
#419 = ORIENTED_EDGE ( 'NONE', *, *, #35, .F. ) ;
#420 = CARTESIAN_POINT ( 'NONE',  ( -49.99999999999999289, -21.80000000000000426, 0.000000000000000000 ) ) ;
#421 = VECTOR ( 'NONE', #275, 1000.000000000000000 ) ;
#422 = ORIENTED_EDGE ( 'NONE', *, *, #64, .F. ) ;
#423 = ORIENTED_EDGE ( 'NONE', *, *, #247, .T. ) ;
#424 = LINE ( 'NONE', #5, #160 ) ;
#425 = EDGE_CURVE ( 'NONE', #205, #371, #498, .T. ) ;
#426 = ORIENTED_EDGE ( 'NONE', *, *, #201, .T. ) ;
#427 = DIRECTION ( 'NONE',  ( -1.000000000000000000, -1.591489427501657403E-16, 0.000000000000000000 ) ) ;
#428 = LOCAL_TIME ( 16, 15, 40.00000000000000000, #202 ) ;
#429 = CARTESIAN_POINT ( 'NONE',  ( 46.80000000000000426, -21.80000000000000071, 0.000000000000000000 ) ) ;
#430 = CIRCLE ( 'NONE', #568, 3.200000000000001510 ) ;
#431 = DIRECTION ( 'NONE',  ( -0.000000000000000000, -1.000000000000000000, -0.000000000000000000 ) ) ;
#432 = LINE ( 'NONE', #345, #331 ) ;
#433 = CARTESIAN_POINT ( 'NONE',  ( 46.80000000000000426, 21.80000000000000782, 0.000000000000000000 ) ) ;
#434 = DIRECTION ( 'NONE',  ( 1.591489427501657403E-16, -1.000000000000000000, -0.000000000000000000 ) ) ;
#435 = PLANE ( 'NONE',  #625 ) ;
#436 = EDGE_CURVE ( 'NONE', #494, #61, #40, .T. ) ;
#437 = CARTESIAN_POINT ( 'NONE',  ( 48.39999999999999858, 21.80000000000000782, 1000.000000000000000 ) ) ;
#438 = DIRECTION ( 'NONE',  ( 0.000000000000000000, 0.000000000000000000, 1.000000000000000000 ) ) ;
#439 = EDGE_CURVE ( 'NONE', #449, #249, #446, .T. ) ;
#440 = CARTESIAN_POINT ( 'NONE',  ( -46.80000000000000426, 21.80000000000000782, 0.000000000000000000 ) ) ;
#441 = ORIENTED_EDGE ( 'NONE', *, *, #396, .F. ) ;
#442 = DIRECTION ( 'NONE',  ( 0.000000000000000000, 0.000000000000000000, 1.000000000000000000 ) ) ;
#443 = DIRECTION ( 'NONE',  ( 0.000000000000000000, -1.000000000000000000, 0.000000000000000000 ) ) ;
#444 = CARTESIAN_POINT ( 'NONE',  ( 50.00000000000000000, 21.80000000000000782, 1000.000000000000000 ) ) ;
#445 = ADVANCED_FACE ( 'NONE', ( #81 ), #234, .T. ) ;
#446 = LINE ( 'NONE', #647, #584 ) ;
#447 = LINE ( 'NONE', #545, #556 ) ;
#448 = VECTOR ( 'NONE', #558, 1000.000000000000000 ) ;
#449 = VERTEX_POINT ( 'NONE', #281 ) ;
#450 = VECTOR ( 'NONE', #170, 1000.000000000000000 ) ;
#451 = DIRECTION ( 'NONE',  ( 1.000000000000000000, 0.000000000000000000, 0.000000000000000000 ) ) ;
#452 = CALENDAR_DATE ( 2026, 16, 4 ) ;
#453 = AXIS2_PLACEMENT_3D ( 'NONE', #386, #443, #37 ) ;
#454 = MECHANICAL_CONTEXT ( 'NONE', #333, 'mechanical' ) ;
#455 = DIRECTION ( 'NONE',  ( -1.000000000000000000, 0.000000000000000000, 0.000000000000000000 ) ) ;
#456 = EDGE_CURVE ( 'NONE', #19, #256, #430, .T. ) ;
#457 = ORIENTED_EDGE ( 'NONE', *, *, #321, .T. ) ;
#458 = CARTESIAN_POINT ( 'NONE',  ( 48.39999999999999858, 21.80000000000000782, 1000.000000000000000 ) ) ;
#459 = ORIENTED_EDGE ( 'NONE', *, *, #313, .T. ) ;
#460 = PERSON_AND_ORGANIZATION_ROLE ( 'design_supplier' ) ;
#461 = VECTOR ( 'NONE', #615, 1000.000000000000000 ) ;
#462 = CARTESIAN_POINT ( 'NONE',  ( 46.80000000000000426, -21.80000000000000071, 1000.000000000000000 ) ) ;
#463 = EDGE_LOOP ( 'NONE', ( #103, #47, #17, #359, #422, #526, #220, #441 ) ) ;
#464 = CARTESIAN_POINT ( 'NONE',  ( 49.99999999999999289, -21.80000000000000071, 1000.000000000000000 ) ) ;
#465 = ORIENTED_EDGE ( 'NONE', *, *, #321, .F. ) ;
#466 = DIRECTION ( 'NONE',  ( 0.000000000000000000, 0.000000000000000000, 1.000000000000000000 ) ) ;
#467 = CARTESIAN_POINT ( 'NONE',  ( 49.99999999999999289, -21.80000000000000071, 1000.000000000000000 ) ) ;
#468 = VERTEX_POINT ( 'NONE', #337 ) ;
#469 = PRODUCT ( 'Rectangle - 100.0 X 50.0 X 1.60', 'Rectangle - 100.0 X 50.0 X 1.60', '', ( #454 ) ) ;
#470 = ORIENTED_EDGE ( 'NONE', *, *, #620, .F. ) ;
#471 = VECTOR ( 'NONE', #586, 1000.000000000000000 ) ;
#472 = ORIENTED_EDGE ( 'NONE', *, *, #318, .T. ) ;
#473 = DIRECTION ( 'NONE',  ( 1.000000000000000000, 0.000000000000000000, 0.000000000000000000 ) ) ;
#474 = ORIENTED_EDGE ( 'NONE', *, *, #250, .T. ) ;
#475 = DIRECTION ( 'NONE',  ( -0.000000000000000000, -0.000000000000000000, -1.000000000000000000 ) ) ;
#476 = VECTOR ( 'NONE', #502, 1000.000000000000000 ) ;
#477 = VERTEX_POINT ( 'NONE', #126 ) ;
#478 = CARTESIAN_POINT ( 'NONE',  ( -46.80000000000000426, 25.00000000000001066, 1000.000000000000000 ) ) ;
#479 = PRODUCT_DEFINITION ( 'UNKNOWN', '', #143, #593 ) ;
#480 = ORIENTED_EDGE ( 'NONE', *, *, #603, .F. ) ;
#481 = DIRECTION ( 'NONE',  ( -1.000000000000000000, 0.000000000000000000, 0.000000000000000000 ) ) ;
#482 = VECTOR ( 'NONE', #233, 1000.000000000000000 ) ;
#483 = CIRCLE ( 'NONE', #312, 3.199999999999994404 ) ;
#484 = EDGE_CURVE ( 'NONE', #84, #50, #542, .T. ) ;
#485 = FACE_OUTER_BOUND ( 'NONE', #157, .T. ) ;
#486 = CARTESIAN_POINT ( 'NONE',  ( -46.80000000000000426, 25.00000000000001066, 0.000000000000000000 ) ) ;
#487 = DIRECTION ( 'NONE',  ( 0.000000000000000000, 0.000000000000000000, 1.000000000000000000 ) ) ;
#488 = LINE ( 'NONE', #458, #476 ) ;
#489 = LINE ( 'NONE', #230, #66 ) ;
#490 = CARTESIAN_POINT ( 'NONE',  ( 46.80000000000000426, 21.80000000000000782, 1000.000000000000000 ) ) ;
#491 = CARTESIAN_POINT ( 'NONE',  ( -46.80000000000000426, -24.99999999999999645, 1000.000000000000000 ) ) ;
#492 = EDGE_CURVE ( 'NONE', #249, #19, #532, .T. ) ;
#493 = CARTESIAN_POINT ( 'NONE',  ( -46.80000000000000426, 25.00000000000001066, 1000.000000000000000 ) ) ;
#494 = VERTEX_POINT ( 'NONE', #640 ) ;
#495 = CARTESIAN_POINT ( 'NONE',  ( -48.39999999999999858, -21.80000000000000426, 1000.000000000000000 ) ) ;
#496 = CARTESIAN_POINT ( 'NONE',  ( -48.40000000000000568, 21.80000000000000782, 1000.000000000000000 ) ) ;
#497 = ORIENTED_EDGE ( 'NONE', *, *, #102, .T. ) ;
#498 = CIRCLE ( 'NONE', #529, 1.599999999999997202 ) ;
#499 = APPROVAL_DATE_TIME ( #552, #550 ) ;
#500 = DATE_AND_TIME ( #452, #651 ) ;
#501 = CIRCLE ( 'NONE', #169, 3.199999999999994404 ) ;
#502 = DIRECTION ( 'NONE',  ( -0.000000000000000000, -0.000000000000000000, -1.000000000000000000 ) ) ;
#503 = EDGE_CURVE ( 'NONE', #254, #84, #146, .T. ) ;
#504 = EDGE_LOOP ( 'NONE', ( #124, #520, #175, #151, #470, #316, #419, #530 ) ) ;
#505 = APPROVAL_DATE_TIME ( #2, #379 ) ;
#506 = FACE_OUTER_BOUND ( 'NONE', #107, .T. ) ;
#507 = CC_DESIGN_PERSON_AND_ORGANIZATION_ASSIGNMENT ( #57, #617, ( #143 ) ) ;
#508 = VERTEX_POINT ( 'NONE', #361 ) ;
#509 = FACE_OUTER_BOUND ( 'NONE', #338, .T. ) ;
#510 = SECURITY_CLASSIFICATION ( '', '', #360 ) ;
#511 = VERTEX_POINT ( 'NONE', #496 ) ;
#512 = DATE_AND_TIME ( #607, #244 ) ;
#513 = EDGE_CURVE ( 'NONE', #494, #63, #240, .T. ) ;
#514 = VECTOR ( 'NONE', #652, 1000.000000000000000 ) ;
#515 = VECTOR ( 'NONE', #266, 1000.000000000000000 ) ;
#516 = CARTESIAN_POINT ( 'NONE',  ( -46.80000000000000426, -23.39999999999999858, 0.000000000000000000 ) ) ;
#517 = ORIENTED_EDGE ( 'NONE', *, *, #161, .F. ) ;
#518 = CARTESIAN_POINT ( 'NONE',  ( -46.80000000000000426, -24.99999999999999645, 1000.000000000000000 ) ) ;
#519 = ORIENTED_EDGE ( 'NONE', *, *, #578, .F. ) ;
#520 = ORIENTED_EDGE ( 'NONE', *, *, #611, .F. ) ;
#521 = CARTESIAN_POINT ( 'NONE',  ( -46.80000000000000426, 23.40000000000000213, 0.000000000000000000 ) ) ;
#522 = DIRECTION ( 'NONE',  ( 0.000000000000000000, 0.000000000000000000, 1.000000000000000000 ) ) ;
#523 = ORIENTED_EDGE ( 'NONE', *, *, #634, .F. ) ;
#524 = PLANE ( 'NONE',  #601 ) ;
#525 = DIRECTION ( 'NONE',  ( 0.000000000000000000, -1.000000000000000000, 0.000000000000000000 ) ) ;
#526 = ORIENTED_EDGE ( 'NONE', *, *, #528, .F. ) ;
#527 = DIRECTION ( 'NONE',  ( 0.000000000000000000, 0.000000000000000000, 1.000000000000000000 ) ) ;
#528 = EDGE_CURVE ( 'NONE', #263, #468, #296, .T. ) ;
#529 = AXIS2_PLACEMENT_3D ( 'NONE', #139, #442, #590 ) ;
#530 = ORIENTED_EDGE ( 'NONE', *, *, #164, .F. ) ;
#531 = CARTESIAN_POINT ( 'NONE',  ( -48.39999999999999858, -21.80000000000000426, 0.000000000000000000 ) ) ;
#532 = LINE ( 'NONE', #486, #482 ) ;
#533 = CC_DESIGN_APPROVAL ( #379, ( #510 ) ) ;
#534 = LINE ( 'NONE', #185, #302 ) ;
#535 = DIRECTION ( 'NONE',  ( -1.000000000000000000, -0.000000000000000000, -0.000000000000000000 ) ) ;
#536 = VECTOR ( 'NONE', #78, 1000.000000000000000 ) ;
#537 = DIRECTION ( 'NONE',  ( -0.000000000000000000, -0.000000000000000000, -1.000000000000000000 ) ) ;
#538 = CARTESIAN_POINT ( 'NONE',  ( -49.99999999999999289, -21.80000000000000426, 0.000000000000000000 ) ) ;
#539 = CARTESIAN_POINT ( 'NONE',  ( -46.80000000000000426, -24.99999999999999645, 1000.000000000000000 ) ) ;
#540 = DIRECTION ( 'NONE',  ( 1.591489427501657403E-16, -1.000000000000000000, -0.000000000000000000 ) ) ;
#541 = ADVANCED_FACE ( 'NONE', ( #564 ), #110, .F. ) ;
#542 = LINE ( 'NONE', #491, #177 ) ;
#543 = EDGE_LOOP ( 'NONE', ( #519, #224, #616, #457 ) ) ;
#544 = LOCAL_TIME ( 16, 15, 40.00000000000000000, #251 ) ;
#545 = CARTESIAN_POINT ( 'NONE',  ( 46.80000000000000426, 23.40000000000000568, 1000.000000000000000 ) ) ;
#546 = DIRECTION ( 'NONE',  ( 1.000000000000000000, 0.000000000000000000, 0.000000000000000000 ) ) ;
#547 = VECTOR ( 'NONE', #156, 1000.000000000000000 ) ;
#548 = ORIENTED_EDGE ( 'NONE', *, *, #578, .T. ) ;
#549 = DIRECTION ( 'NONE',  ( 1.000000000000000000, 0.000000000000000000, 0.000000000000000000 ) ) ;
#550 = APPROVAL ( #349, 'UNSPECIFIED' ) ;
#551 = ORIENTED_EDGE ( 'NONE', *, *, #209, .T. ) ;
#552 = DATE_AND_TIME ( #414, #428 ) ;
#553 = EDGE_CURVE ( 'NONE', #52, #263, #311, .T. ) ;
#554 = ORIENTED_EDGE ( 'NONE', *, *, #503, .F. ) ;
#555 = APPROVAL_ROLE ( '' ) ;
#556 = VECTOR ( 'NONE', #537, 1000.000000000000000 ) ;
#557 = ADVANCED_FACE ( 'NONE', ( #172 ), #367, .F. ) ;
#558 = DIRECTION ( 'NONE',  ( -0.000000000000000000, -0.000000000000000000, -1.000000000000000000 ) ) ;
#559 = ORIENTED_EDGE ( 'NONE', *, *, #439, .F. ) ;
#560 = CARTESIAN_POINT ( 'NONE',  ( -46.80000000000000426, -21.80000000000000426, 1000.000000000000000 ) ) ;
#561 = EDGE_CURVE ( 'NONE', #597, #254, #621, .T. ) ;
#562 = ORIENTED_EDGE ( 'NONE', *, *, #513, .T. ) ;
#563 = VECTOR ( 'NONE', #288, 1000.000000000000000 ) ;
#564 = FACE_OUTER_BOUND ( 'NONE', #401, .T. ) ;
#565 = APPROVAL_PERSON_ORGANIZATION ( #158, #550, #555 ) ;
#566 = ORIENTED_EDGE ( 'NONE', *, *, #366, .F. ) ;
#567 = DATE_TIME_ROLE ( 'classification_date' ) ;
#568 = AXIS2_PLACEMENT_3D ( 'NONE', #440, #138, #286 ) ;
#569 = DIRECTION ( 'NONE',  ( -0.000000000000000000, -0.000000000000000000, -1.000000000000000000 ) ) ;
#570 = FACE_OUTER_BOUND ( 'NONE', #504, .T. ) ;
#571 = ORIENTED_EDGE ( 'NONE', *, *, #561, .T. ) ;
#572 =( NAMED_UNIT ( * ) PLANE_ANGLE_UNIT ( ) SI_UNIT ( $, .RADIAN. ) );
#573 = DIRECTION ( 'NONE',  ( -1.000000000000000000, 1.591489427501657650E-16, 0.000000000000000000 ) ) ;
#574 = ORIENTED_EDGE ( 'NONE', *, *, #130, .T. ) ;
#575 = DIRECTION ( 'NONE',  ( -1.000000000000000000, 0.000000000000000000, 0.000000000000000000 ) ) ;
#576 = ADVANCED_FACE ( 'NONE', ( #509 ), #54, .F. ) ;
#577 = ORIENTED_EDGE ( 'NONE', *, *, #366, .T. ) ;
#578 = EDGE_CURVE ( 'NONE', #371, #294, #198, .T. ) ;
#579 = VERTEX_POINT ( 'NONE', #119 ) ;
#580 = DIRECTION ( 'NONE',  ( 1.591489427501657403E-16, -1.000000000000000000, 0.000000000000000000 ) ) ;
#581 = ORIENTED_EDGE ( 'NONE', *, *, #334, .F. ) ;
#582 = LINE ( 'NONE', #74, #536 ) ;
#583 = ADVANCED_FACE ( 'NONE', ( #402 ), #319, .F. ) ;
#584 = VECTOR ( 'NONE', #385, 1000.000000000000000 ) ;
#585 = PLANE ( 'NONE',  #18 ) ;
#586 = DIRECTION ( 'NONE',  ( -0.000000000000000000, -0.000000000000000000, -1.000000000000000000 ) ) ;
#587 = DIRECTION ( 'NONE',  ( 1.000000000000000000, 1.591489427501657403E-16, -0.000000000000000000 ) ) ;
#588 = CARTESIAN_POINT ( 'NONE',  ( 46.80000000000000426, -21.80000000000000071, 0.000000000000000000 ) ) ;
#589 = AXIS2_PLACEMENT_3D ( 'NONE', #591, #390, #292 ) ;
#590 = DIRECTION ( 'NONE',  ( -1.000000000000000000, 0.000000000000000000, 0.000000000000000000 ) ) ;
#591 = CARTESIAN_POINT ( 'NONE',  ( 46.80000000000000426, 21.80000000000000782, 1000.000000000000000 ) ) ;
#592 = DIRECTION ( 'NONE',  ( -0.000000000000000000, -0.000000000000000000, -1.000000000000000000 ) ) ;
#593 = DESIGN_CONTEXT ( 'detailed design', #134, 'design' ) ;
#594 = ORIENTED_EDGE ( 'NONE', *, *, #634, .T. ) ;
#595 = CARTESIAN_POINT ( 'NONE',  ( 49.99999999999999289, -21.80000000000000071, 1000.000000000000000 ) ) ;
#596 = CYLINDRICAL_SURFACE ( 'NONE', #357, 1.599999999999997202 ) ;
#597 = VERTEX_POINT ( 'NONE', #59 ) ;
#598 = APPROVAL_PERSON_ORGANIZATION ( #48, #39, #347 ) ;
#599 = ADVANCED_FACE ( 'NONE', ( #260 ), #9, .T. ) ;
#600 = CARTESIAN_POINT ( 'NONE',  ( -50.00000000000000000, 21.80000000000000782, 1000.000000000000000 ) ) ;
#601 = AXIS2_PLACEMENT_3D ( 'NONE', #62, #630, #323 ) ;
#602 = CARTESIAN_POINT ( 'NONE',  ( 48.40000000000000568, -21.80000000000000426, 1000.000000000000000 ) ) ;
#603 = EDGE_CURVE ( 'NONE', #144, #408, #412, .T. ) ;
#604 = CALENDAR_DATE ( 2026, 16, 4 ) ;
#605 = CC_DESIGN_DATE_AND_TIME_ASSIGNMENT ( #500, #152, ( #479 ) ) ;
#606 = EDGE_LOOP ( 'NONE', ( #320, #279, #459, #346 ) ) ;
#607 = CALENDAR_DATE ( 2026, 16, 4 ) ;
#608 = LINE ( 'NONE', #409, #44 ) ;
#609 = ORIENTED_EDGE ( 'NONE', *, *, #55, .T. ) ;
#610 = CARTESIAN_POINT ( 'NONE',  ( 49.99999999999999289, -21.80000000000000071, 1000.000000000000000 ) ) ;
#611 = EDGE_CURVE ( 'NONE', #256, #217, #219, .T. ) ;
#612 = EDGE_CURVE ( 'NONE', #147, #613, #114, .T. ) ;
#613 = VERTEX_POINT ( 'NONE', #521 ) ;
#614 = APPLICATION_PROTOCOL_DEFINITION ( 'international standard', 'config_control_design', 1994, #134 ) ;
#615 = DIRECTION ( 'NONE',  ( 1.591489427501657650E-16, 1.000000000000000000, 0.000000000000000000 ) ) ;
#616 = ORIENTED_EDGE ( 'NONE', *, *, #528, .T. ) ;
#617 = PERSON_AND_ORGANIZATION_ROLE ( 'creator' ) ;
#618 = CIRCLE ( 'NONE', #327, 1.599999999999997202 ) ;
#619 =( LENGTH_UNIT ( ) NAMED_UNIT ( * ) SI_UNIT ( .MILLI., .METRE. ) );
#620 = EDGE_CURVE ( 'NONE', #579, #249, #112, .T. ) ;
#621 = LINE ( 'NONE', #243, #28 ) ;
#622 = EDGE_LOOP ( 'NONE', ( #148, #12, #368, #73 ) ) ;
#623 = ORIENTED_EDGE ( 'NONE', *, *, #142, .F. ) ;
#624 = DIRECTION ( 'NONE',  ( -1.000000000000000000, 0.000000000000000000, 0.000000000000000000 ) ) ;
#625 = AXIS2_PLACEMENT_3D ( 'NONE', #133, #427, #580 ) ;
#626 = CARTESIAN_POINT ( 'NONE',  ( -46.80000000000000426, -21.80000000000000426, 1000.000000000000000 ) ) ;
#627 = ORIENTED_EDGE ( 'NONE', *, *, #35, .T. ) ;
#628 = EDGE_CURVE ( 'NONE', #217, #50, #109, .T. ) ;
#629 = ORIENTED_EDGE ( 'NONE', *, *, #43, .F. ) ;
#630 = DIRECTION ( 'NONE',  ( -0.000000000000000000, 0.000000000000000000, -1.000000000000000000 ) ) ;
#631 = FACE_OUTER_BOUND ( 'NONE', #606, .T. ) ;
#632 = AXIS2_PLACEMENT_3D ( 'NONE', #462, #210, #397 ) ;
#633 = EDGE_LOOP ( 'NONE', ( #365, #517, #168, #594 ) ) ;
#634 = EDGE_CURVE ( 'NONE', #52, #205, #218, .T. ) ;
#635 = CARTESIAN_POINT ( 'NONE',  ( -46.80000000000000426, -23.39999999999999858, 1000.000000000000000 ) ) ;
#636 = DIRECTION ( 'NONE',  ( 1.000000000000000000, 0.000000000000000000, 0.000000000000000000 ) ) ;
#637 = AXIS2_PLACEMENT_3D ( 'NONE', #193, #487, #41 ) ;
#638 = FACE_OUTER_BOUND ( 'NONE', #543, .T. ) ;
#639 = FACE_OUTER_BOUND ( 'NONE', #314, .T. ) ;
#640 = CARTESIAN_POINT ( 'NONE',  ( 48.40000000000000568, -21.80000000000000426, 1000.000000000000000 ) ) ;
#641 = CARTESIAN_POINT ( 'NONE',  ( -46.80000000000000426, 23.40000000000000568, 1000.000000000000000 ) ) ;
#642 = DIRECTION ( 'NONE',  ( -1.000000000000000000, 0.000000000000000000, 0.000000000000000000 ) ) ;
#643 = CIRCLE ( 'NONE', #351, 1.599999999999997202 ) ;
#644 = CARTESIAN_POINT ( 'NONE',  ( -48.40000000000000568, 21.80000000000000782, 1000.000000000000000 ) ) ;
#645 = CARTESIAN_POINT ( 'NONE',  ( 48.39999999999999858, 21.80000000000000782, 0.000000000000000000 ) ) ;
#646 = CC_DESIGN_PERSON_AND_ORGANIZATION_ASSIGNMENT ( #404, #149, ( #510 ) ) ;
#647 = CARTESIAN_POINT ( 'NONE',  ( 46.79999999999999716, 25.00000000000000711, 1000.000000000000000 ) ) ;
#648 = LINE ( 'NONE', #644, #76 ) ;
#649 = CIRCLE ( 'NONE', #299, 1.599999999999997202 ) ;
#650 = ORIENTED_EDGE ( 'NONE', *, *, #55, .F. ) ;
#651 = LOCAL_TIME ( 16, 15, 40.00000000000000000, #246 ) ;
#652 = DIRECTION ( 'NONE',  ( -1.591489427501657403E-16, 1.000000000000000000, 0.000000000000000000 ) ) ;
#653 = AXIS2_PLACEMENT_3D ( 'NONE', #467, #573, #159 ) ;
ENDSEC;
END-ISO-10303-21;
