ISO-10303-21;
HEADER;
FILE_DESCRIPTION (( 'STEP AP203' ),
    '1' );
FILE_NAME ('Round - 34.1 X 2.50.step',
    '2026-04-16T12:38:22',
    ( '' ),
    ( '' ),
    'SwSTEP 2.0',
    'SolidWorks 2023',
    '' );
FILE_SCHEMA (( 'CONFIG_CONTROL_DESIGN' ));
ENDSEC;

DATA;
#1 = APPROVAL_PERSON_ORGANIZATION ( #198, #129, #196 ) ;
#2 = PLANE ( 'NONE',  #232 ) ;
#3 = CARTESIAN_POINT ( 'NONE',  ( 14.54999999999999893, 1.781861092759399088E-15, 1000.000000000000000 ) ) ;
#4 = ORIENTED_EDGE ( 'NONE', *, *, #43, .F. ) ;
#5 = VECTOR ( 'NONE', #222, 1000.000000000000000 ) ;
#6 = EDGE_CURVE ( 'NONE', #200, #162, #99, .T. ) ;
#7 = ORIENTED_EDGE ( 'NONE', *, *, #194, .T. ) ;
#8 = DIRECTION ( 'NONE',  ( 0.000000000000000000, 0.000000000000000000, 1.000000000000000000 ) ) ;
#9 = AXIS2_PLACEMENT_3D ( 'NONE', #127, #42, #154 ) ;
#10 = DIRECTION ( 'NONE',  ( -0.000000000000000000, -0.000000000000000000, -1.000000000000000000 ) ) ;
#11 = CARTESIAN_POINT ( 'NONE',  ( 0.000000000000000000, 0.000000000000000000, 1000.000000000000000 ) ) ;
#12 = DATE_AND_TIME ( #93, #78 ) ;
#13 = CARTESIAN_POINT ( 'NONE',  ( 0.000000000000000000, 0.000000000000000000, 1000.000000000000000 ) ) ;
#14 = COORDINATED_UNIVERSAL_TIME_OFFSET ( 2, 0, .AHEAD. ) ;
#15 = ORIENTED_EDGE ( 'NONE', *, *, #136, .T. ) ;
#16 = SHAPE_DEFINITION_REPRESENTATION ( #18, #80 ) ;
#17 = CALENDAR_DATE ( 2026, 16, 4 ) ;
#18 = PRODUCT_DEFINITION_SHAPE ( 'NONE', 'NONE',  #168 ) ;
#19 = AXIS2_PLACEMENT_3D ( 'NONE', #211, #226, #73 ) ;
#20 = COORDINATED_UNIVERSAL_TIME_OFFSET ( 2, 0, .AHEAD. ) ;
#21 = ORIENTED_EDGE ( 'NONE', *, *, #248, .T. ) ;
#22 = CARTESIAN_POINT ( 'NONE',  ( 0.000000000000000000, 0.000000000000000000, 1000.000000000000000 ) ) ;
#23 = MANIFOLD_SOLID_BREP ( 'Boss-Extrude1', #229 ) ;
#24 =( NAMED_UNIT ( * ) SI_UNIT ( $, .STERADIAN. ) SOLID_ANGLE_UNIT ( ) );
#25 = VERTEX_POINT ( 'NONE', #54 ) ;
#26 = EDGE_CURVE ( 'NONE', #108, #200, #32, .T. ) ;
#27 = CARTESIAN_POINT ( 'NONE',  ( 0.000000000000000000, 0.000000000000000000, 0.000000000000000000 ) ) ;
#28 = DIRECTION ( 'NONE',  ( -0.000000000000000000, -0.000000000000000000, -1.000000000000000000 ) ) ;
#29 = CARTESIAN_POINT ( 'NONE',  ( 17.05000000000000071, 2.088022792546237353E-15, 0.000000000000000000 ) ) ;
#30 = DIRECTION ( 'NONE',  ( 0.000000000000000000, 0.000000000000000000, 1.000000000000000000 ) ) ;
#31 = PERSON_AND_ORGANIZATION_ROLE ( 'creator' ) ;
#32 = LINE ( 'NONE', #192, #183 ) ;
#33 = PERSON_AND_ORGANIZATION ( #138, #65 ) ;
#34 = CIRCLE ( 'NONE', #75, 14.54999999999999893 ) ;
#35 = PLANE ( 'NONE',  #178 ) ;
#36 = CC_DESIGN_APPROVAL ( #60, ( #153 ) ) ;
#37 = APPLICATION_PROTOCOL_DEFINITION ( 'international standard', 'config_control_design', 1994, #246 ) ;
#38 = CC_DESIGN_SECURITY_CLASSIFICATION ( #153, ( #238 ) ) ;
#39 = EDGE_LOOP ( 'NONE', ( #106, #15, #86, #131 ) ) ;
#40 = CARTESIAN_POINT ( 'NONE',  ( 0.000000000000000000, 0.000000000000000000, 0.000000000000000000 ) ) ;
#41 = ORIENTED_EDGE ( 'NONE', *, *, #214, .F. ) ;
#42 = DIRECTION ( 'NONE',  ( 0.000000000000000000, 0.000000000000000000, 1.000000000000000000 ) ) ;
#43 = EDGE_CURVE ( 'NONE', #247, #180, #164, .T. ) ;
#44 = EDGE_LOOP ( 'NONE', ( #166, #7 ) ) ;
#45 = EDGE_LOOP ( 'NONE', ( #94, #219, #103, #122 ) ) ;
#46 = LINE ( 'NONE', #173, #158 ) ;
#47 = CARTESIAN_POINT ( 'NONE',  ( -17.05000000000000071, 0.000000000000000000, 1000.000000000000000 ) ) ;
#48 = CC_DESIGN_PERSON_AND_ORGANIZATION_ASSIGNMENT ( #114, #72, ( #238 ) ) ;
#49 = CARTESIAN_POINT ( 'NONE',  ( 0.000000000000000000, 0.000000000000000000, 1000.000000000000000 ) ) ;
#50 = AXIS2_PLACEMENT_3D ( 'NONE', #228, #115, #118 ) ;
#51 = APPROVAL_DATE_TIME ( #56, #60 ) ;
#52 = CARTESIAN_POINT ( 'NONE',  ( 14.54999999999999893, 1.781861092759399088E-15, 0.000000000000000000 ) ) ;
#53 = DATE_TIME_ROLE ( 'creation_date' ) ;
#54 = CARTESIAN_POINT ( 'NONE',  ( 17.05000000000000071, 2.088022792546237353E-15, 1000.000000000000000 ) ) ;
#55 = UNCERTAINTY_MEASURE_WITH_UNIT (LENGTH_MEASURE( 1.000000000000000082E-05 ), #165, 'distance_accuracy_value', 'NONE');
#56 = DATE_AND_TIME ( #137, #199 ) ;
#57 = PERSON_AND_ORGANIZATION ( #138, #65 ) ;
#58 = PRODUCT ( 'Round - 34.1 X 2.50', 'Round - 34.1 X 2.50', '', ( #147 ) ) ;
#59 = APPROVAL_DATE_TIME ( #12, #129 ) ;
#60 = APPROVAL ( #172, 'UNSPECIFIED' ) ;
#61 = CIRCLE ( 'NONE', #9, 17.05000000000000071 ) ;
#62 = EDGE_LOOP ( 'NONE', ( #237, #185, #184, #142 ) ) ;
#63 = EDGE_CURVE ( 'NONE', #182, #82, #193, .T. ) ;
#64 = ORIENTED_EDGE ( 'NONE', *, *, #63, .F. ) ;
#65 = ORGANIZATION ( 'UNSPECIFIED', 'UNSPECIFIED', '' ) ;
#66 = CYLINDRICAL_SURFACE ( 'NONE', #111, 14.54999999999999893 ) ;
#67 =( NAMED_UNIT ( * ) PLANE_ANGLE_UNIT ( ) SI_UNIT ( $, .RADIAN. ) );
#68 = ADVANCED_FACE ( 'NONE', ( #210, #212 ), #35, .T. ) ;
#69 = CIRCLE ( 'NONE', #152, 17.05000000000000071 ) ;
#70 = DIRECTION ( 'NONE',  ( 1.000000000000000000, 0.000000000000000000, 0.000000000000000000 ) ) ;
#71 = DIRECTION ( 'NONE',  ( 1.000000000000000000, 0.000000000000000000, -0.000000000000000000 ) ) ;
#72 = PERSON_AND_ORGANIZATION_ROLE ( 'creator' ) ;
#73 = DIRECTION ( 'NONE',  ( 1.000000000000000000, 0.000000000000000000, 0.000000000000000000 ) ) ;
#74 = DIRECTION ( 'NONE',  ( 1.000000000000000000, 0.000000000000000000, 0.000000000000000000 ) ) ;
#75 = AXIS2_PLACEMENT_3D ( 'NONE', #22, #189, #91 ) ;
#76 = APPROVAL_DATE_TIME ( #119, #161 ) ;
#77 = PERSON_AND_ORGANIZATION ( #138, #65 ) ;
#78 = LOCAL_TIME ( 14, 38, 22.00000000000000000, #20 ) ;
#79 = EDGE_LOOP ( 'NONE', ( #236, #220, #64, #155 ) ) ;
#80 = ADVANCED_BREP_SHAPE_REPRESENTATION ( 'Round - 34.1 X 2.50', ( #23, #101 ), #206 ) ;
#81 = FACE_OUTER_BOUND ( 'NONE', #45, .T. ) ;
#82 = VERTEX_POINT ( 'NONE', #52 ) ;
#83 = DIRECTION ( 'NONE',  ( 0.000000000000000000, 0.000000000000000000, 1.000000000000000000 ) ) ;
#84 = EDGE_CURVE ( 'NONE', #247, #82, #46, .T. ) ;
#85 = EDGE_LOOP ( 'NONE', ( #104, #156 ) ) ;
#86 = ORIENTED_EDGE ( 'NONE', *, *, #102, .T. ) ;
#87 = APPLICATION_CONTEXT ( 'configuration controlled 3d designs of mechanical parts and assemblies' ) ;
#88 = CC_DESIGN_APPROVAL ( #161, ( #168 ) ) ;
#89 = CARTESIAN_POINT ( 'NONE',  ( -14.54999999999999893, 0.000000000000000000, 1000.000000000000000 ) ) ;
#90 = FACE_OUTER_BOUND ( 'NONE', #85, .T. ) ;
#91 = DIRECTION ( 'NONE',  ( 1.000000000000000000, 0.000000000000000000, 0.000000000000000000 ) ) ;
#92 = DIRECTION ( 'NONE',  ( -0.000000000000000000, -0.000000000000000000, -1.000000000000000000 ) ) ;
#93 = CALENDAR_DATE ( 2026, 16, 4 ) ;
#94 = ORIENTED_EDGE ( 'NONE', *, *, #84, .F. ) ;
#95 = PERSON_AND_ORGANIZATION_ROLE ( 'design_owner' ) ;
#96 = DIRECTION ( 'NONE',  ( -0.000000000000000000, -0.000000000000000000, -1.000000000000000000 ) ) ;
#97 = ADVANCED_FACE ( 'NONE', ( #125 ), #171, .T. ) ;
#98 = DATE_AND_TIME ( #159, #120 ) ;
#99 = CIRCLE ( 'NONE', #201, 17.05000000000000071 ) ;
#100 = ADVANCED_FACE ( 'NONE', ( #245 ), #195, .T. ) ;
#101 = AXIS2_PLACEMENT_3D ( 'NONE', #141, #105, #235 ) ;
#102 = EDGE_CURVE ( 'NONE', #162, #200, #69, .T. ) ;
#103 = ORIENTED_EDGE ( 'NONE', *, *, #205, .T. ) ;
#104 = ORIENTED_EDGE ( 'NONE', *, *, #6, .F. ) ;
#105 = DIRECTION ( 'NONE',  ( 0.000000000000000000, 0.000000000000000000, 1.000000000000000000 ) ) ;
#106 = ORIENTED_EDGE ( 'NONE', *, *, #248, .F. ) ;
#107 = CC_DESIGN_PERSON_AND_ORGANIZATION_ASSIGNMENT ( #227, #95, ( #58 ) ) ;
#108 = VERTEX_POINT ( 'NONE', #47 ) ;
#109 = FACE_BOUND ( 'NONE', #44, .T. ) ;
#110 = ADVANCED_FACE ( 'NONE', ( #90, #109 ), #2, .F. ) ;
#111 = AXIS2_PLACEMENT_3D ( 'NONE', #181, #28, #148 ) ;
#112 = DIRECTION ( 'NONE',  ( 1.000000000000000000, 0.000000000000000000, 0.000000000000000000 ) ) ;
#113 = DIRECTION ( 'NONE',  ( 0.000000000000000000, 0.000000000000000000, 1.000000000000000000 ) ) ;
#114 = PERSON_AND_ORGANIZATION ( #138, #65 ) ;
#115 = DIRECTION ( 'NONE',  ( -0.000000000000000000, -0.000000000000000000, -1.000000000000000000 ) ) ;
#116 = CIRCLE ( 'NONE', #215, 17.05000000000000071 ) ;
#117 = COORDINATED_UNIVERSAL_TIME_OFFSET ( 2, 0, .AHEAD. ) ;
#118 = DIRECTION ( 'NONE',  ( -1.000000000000000000, 0.000000000000000000, 0.000000000000000000 ) ) ;
#119 = DATE_AND_TIME ( #17, #134 ) ;
#120 = LOCAL_TIME ( 14, 38, 22.00000000000000000, #231 ) ;
#121 = LINE ( 'NONE', #126, #145 ) ;
#122 = ORIENTED_EDGE ( 'NONE', *, *, #194, .F. ) ;
#123 = CARTESIAN_POINT ( 'NONE',  ( -14.54999999999999893, 0.000000000000000000, 0.000000000000000000 ) ) ;
#124 = PRODUCT_RELATED_PRODUCT_CATEGORY ( 'detail', '', ( #58 ) ) ;
#125 = FACE_OUTER_BOUND ( 'NONE', #62, .T. ) ;
#126 = CARTESIAN_POINT ( 'NONE',  ( -14.54999999999999893, 0.000000000000000000, 1000.000000000000000 ) ) ;
#127 = CARTESIAN_POINT ( 'NONE',  ( 0.000000000000000000, 0.000000000000000000, 1000.000000000000000 ) ) ;
#128 = APPROVAL_PERSON_ORGANIZATION ( #77, #161, #130 ) ;
#129 = APPROVAL ( #179, 'UNSPECIFIED' ) ;
#130 = APPROVAL_ROLE ( '' ) ;
#131 = ORIENTED_EDGE ( 'NONE', *, *, #26, .F. ) ;
#132 = PERSON_AND_ORGANIZATION ( #138, #65 ) ;
#133 = CARTESIAN_POINT ( 'NONE',  ( 0.000000000000000000, 0.000000000000000000, 0.000000000000000000 ) ) ;
#134 = LOCAL_TIME ( 14, 38, 22.00000000000000000, #157 ) ;
#135 = SECURITY_CLASSIFICATION_LEVEL ( 'unclassified' ) ;
#136 = EDGE_CURVE ( 'NONE', #25, #162, #186, .T. ) ;
#137 = CALENDAR_DATE ( 2026, 16, 4 ) ;
#138 = PERSON ( 'UNSPECIFIED', 'UNSPECIFIED', 'UNSPECIFIED', ('UNSPECIFIED'), ('UNSPECIFIED'), ('UNSPECIFIED') ) ;
#139 = EDGE_LOOP ( 'NONE', ( #41, #4 ) ) ;
#140 = CC_DESIGN_DATE_AND_TIME_ASSIGNMENT ( #98, #53, ( #168 ) ) ;
#141 = CARTESIAN_POINT ( 'NONE',  ( 0.000000000000000000, 0.000000000000000000, 0.000000000000000000 ) ) ;
#142 = ORIENTED_EDGE ( 'NONE', *, *, #6, .T. ) ;
#143 = EDGE_LOOP ( 'NONE', ( #144, #21 ) ) ;
#144 = ORIENTED_EDGE ( 'NONE', *, *, #163, .T. ) ;
#145 = VECTOR ( 'NONE', #10, 1000.000000000000000 ) ;
#146 = DIRECTION ( 'NONE',  ( 1.000000000000000000, 0.000000000000000000, 0.000000000000000000 ) ) ;
#147 = MECHANICAL_CONTEXT ( 'NONE', #87, 'mechanical' ) ;
#148 = DIRECTION ( 'NONE',  ( -1.000000000000000000, 0.000000000000000000, 0.000000000000000000 ) ) ;
#149 = CARTESIAN_POINT ( 'NONE',  ( 0.000000000000000000, 0.000000000000000000, 1000.000000000000000 ) ) ;
#150 = CC_DESIGN_PERSON_AND_ORGANIZATION_ASSIGNMENT ( #33, #197, ( #153 ) ) ;
#151 = CIRCLE ( 'NONE', #243, 14.54999999999999893 ) ;
#152 = AXIS2_PLACEMENT_3D ( 'NONE', #40, #223, #112 ) ;
#153 = SECURITY_CLASSIFICATION ( '', '', #135 ) ;
#154 = DIRECTION ( 'NONE',  ( 1.000000000000000000, 0.000000000000000000, 0.000000000000000000 ) ) ;
#155 = ORIENTED_EDGE ( 'NONE', *, *, #205, .F. ) ;
#156 = ORIENTED_EDGE ( 'NONE', *, *, #102, .F. ) ;
#157 = COORDINATED_UNIVERSAL_TIME_OFFSET ( 2, 0, .AHEAD. ) ;
#158 = VECTOR ( 'NONE', #190, 1000.000000000000000 ) ;
#159 = CALENDAR_DATE ( 2026, 16, 4 ) ;
#160 = APPROVAL_PERSON_ORGANIZATION ( #177, #60, #213 ) ;
#161 = APPROVAL ( #174, 'UNSPECIFIED' ) ;
#162 = VERTEX_POINT ( 'NONE', #29 ) ;
#163 = EDGE_CURVE ( 'NONE', #108, #25, #116, .T. ) ;
#164 = CIRCLE ( 'NONE', #19, 14.54999999999999893 ) ;
#165 =( LENGTH_UNIT ( ) NAMED_UNIT ( * ) SI_UNIT ( .MILLI., .METRE. ) );
#166 = ORIENTED_EDGE ( 'NONE', *, *, #63, .T. ) ;
#167 = DIRECTION ( 'NONE',  ( -1.000000000000000000, 0.000000000000000000, 0.000000000000000000 ) ) ;
#168 = PRODUCT_DEFINITION ( 'UNKNOWN', '', #238, #176 ) ;
#169 = CARTESIAN_POINT ( 'NONE',  ( 0.000000000000000000, 0.000000000000000000, 0.000000000000000000 ) ) ;
#170 = FACE_OUTER_BOUND ( 'NONE', #79, .T. ) ;
#171 = CYLINDRICAL_SURFACE ( 'NONE', #50, 17.05000000000000071 ) ;
#172 = APPROVAL_STATUS ( 'not_yet_approved' ) ;
#173 = CARTESIAN_POINT ( 'NONE',  ( 14.54999999999999893, 1.781861092759399088E-15, 1000.000000000000000 ) ) ;
#174 = APPROVAL_STATUS ( 'not_yet_approved' ) ;
#175 = DIRECTION ( 'NONE',  ( 0.000000000000000000, 0.000000000000000000, 1.000000000000000000 ) ) ;
#176 = DESIGN_CONTEXT ( 'detailed design', #246, 'design' ) ;
#177 = PERSON_AND_ORGANIZATION ( #138, #65 ) ;
#178 = AXIS2_PLACEMENT_3D ( 'NONE', #13, #113, #71 ) ;
#179 = APPROVAL_STATUS ( 'not_yet_approved' ) ;
#180 = VERTEX_POINT ( 'NONE', #89 ) ;
#181 = CARTESIAN_POINT ( 'NONE',  ( 0.000000000000000000, 0.000000000000000000, 1000.000000000000000 ) ) ;
#182 = VERTEX_POINT ( 'NONE', #123 ) ;
#183 = VECTOR ( 'NONE', #96, 1000.000000000000000 ) ;
#184 = ORIENTED_EDGE ( 'NONE', *, *, #26, .T. ) ;
#185 = ORIENTED_EDGE ( 'NONE', *, *, #163, .F. ) ;
#186 = LINE ( 'NONE', #203, #5 ) ;
#187 = AXIS2_PLACEMENT_3D ( 'NONE', #221, #175, #146 ) ;
#188 = DIRECTION ( 'NONE',  ( 1.000000000000000000, 0.000000000000000000, 0.000000000000000000 ) ) ;
#189 = DIRECTION ( 'NONE',  ( 0.000000000000000000, 0.000000000000000000, 1.000000000000000000 ) ) ;
#190 = DIRECTION ( 'NONE',  ( -0.000000000000000000, -0.000000000000000000, -1.000000000000000000 ) ) ;
#191 = PERSON_AND_ORGANIZATION_ROLE ( 'design_supplier' ) ;
#192 = CARTESIAN_POINT ( 'NONE',  ( -17.05000000000000071, 0.000000000000000000, 1000.000000000000000 ) ) ;
#193 = CIRCLE ( 'NONE', #187, 14.54999999999999893 ) ;
#194 = EDGE_CURVE ( 'NONE', #82, #182, #151, .T. ) ;
#195 = CYLINDRICAL_SURFACE ( 'NONE', #224, 17.05000000000000071 ) ;
#196 = APPROVAL_ROLE ( '' ) ;
#197 = PERSON_AND_ORGANIZATION_ROLE ( 'classification_officer' ) ;
#198 = PERSON_AND_ORGANIZATION ( #138, #65 ) ;
#199 = LOCAL_TIME ( 14, 38, 22.00000000000000000, #14 ) ;
#200 = VERTEX_POINT ( 'NONE', #240 ) ;
#201 = AXIS2_PLACEMENT_3D ( 'NONE', #133, #30, #74 ) ;
#202 = CC_DESIGN_APPROVAL ( #129, ( #238 ) ) ;
#203 = CARTESIAN_POINT ( 'NONE',  ( 17.05000000000000071, 2.088022792546237353E-15, 1000.000000000000000 ) ) ;
#204 = CC_DESIGN_DATE_AND_TIME_ASSIGNMENT ( #249, #230, ( #153 ) ) ;
#205 = EDGE_CURVE ( 'NONE', #180, #182, #121, .T. ) ;
#206 =( GEOMETRIC_REPRESENTATION_CONTEXT ( 3 ) GLOBAL_UNCERTAINTY_ASSIGNED_CONTEXT ( ( #55 ) ) GLOBAL_UNIT_ASSIGNED_CONTEXT ( ( #165, #67, #24 ) ) REPRESENTATION_CONTEXT ( 'NONE', 'WORKASPACE' ) );
#207 = CC_DESIGN_PERSON_AND_ORGANIZATION_ASSIGNMENT ( #57, #31, ( #168 ) ) ;
#208 = LOCAL_TIME ( 14, 38, 22.00000000000000000, #117 ) ;
#209 = DIRECTION ( 'NONE',  ( 1.000000000000000000, 0.000000000000000000, -0.000000000000000000 ) ) ;
#210 = FACE_OUTER_BOUND ( 'NONE', #143, .T. ) ;
#211 = CARTESIAN_POINT ( 'NONE',  ( 0.000000000000000000, 0.000000000000000000, 1000.000000000000000 ) ) ;
#212 = FACE_BOUND ( 'NONE', #139, .T. ) ;
#213 = APPROVAL_ROLE ( '' ) ;
#214 = EDGE_CURVE ( 'NONE', #180, #247, #34, .T. ) ;
#215 = AXIS2_PLACEMENT_3D ( 'NONE', #49, #8, #188 ) ;
#216 = AXIS2_PLACEMENT_3D ( 'NONE', #149, #242, #167 ) ;
#217 = DIRECTION ( 'NONE',  ( 0.000000000000000000, 0.000000000000000000, 1.000000000000000000 ) ) ;
#218 = CC_DESIGN_PERSON_AND_ORGANIZATION_ASSIGNMENT ( #132, #191, ( #238 ) ) ;
#219 = ORIENTED_EDGE ( 'NONE', *, *, #43, .T. ) ;
#220 = ORIENTED_EDGE ( 'NONE', *, *, #84, .T. ) ;
#221 = CARTESIAN_POINT ( 'NONE',  ( 0.000000000000000000, 0.000000000000000000, 0.000000000000000000 ) ) ;
#222 = DIRECTION ( 'NONE',  ( -0.000000000000000000, -0.000000000000000000, -1.000000000000000000 ) ) ;
#223 = DIRECTION ( 'NONE',  ( 0.000000000000000000, 0.000000000000000000, 1.000000000000000000 ) ) ;
#224 = AXIS2_PLACEMENT_3D ( 'NONE', #11, #92, #244 ) ;
#225 = CALENDAR_DATE ( 2026, 16, 4 ) ;
#226 = DIRECTION ( 'NONE',  ( 0.000000000000000000, 0.000000000000000000, 1.000000000000000000 ) ) ;
#227 = PERSON_AND_ORGANIZATION ( #138, #65 ) ;
#228 = CARTESIAN_POINT ( 'NONE',  ( 0.000000000000000000, 0.000000000000000000, 1000.000000000000000 ) ) ;
#229 = CLOSED_SHELL ( 'NONE', ( #233, #100, #68, #110, #97, #239 ) ) ;
#230 = DATE_TIME_ROLE ( 'classification_date' ) ;
#231 = COORDINATED_UNIVERSAL_TIME_OFFSET ( 2, 0, .AHEAD. ) ;
#232 = AXIS2_PLACEMENT_3D ( 'NONE', #27, #83, #209 ) ;
#233 = ADVANCED_FACE ( 'NONE', ( #170 ), #241, .F. ) ;
#234 = APPLICATION_PROTOCOL_DEFINITION ( 'international standard', 'config_control_design', 1994, #87 ) ;
#235 = DIRECTION ( 'NONE',  ( 1.000000000000000000, 0.000000000000000000, 0.000000000000000000 ) ) ;
#236 = ORIENTED_EDGE ( 'NONE', *, *, #214, .T. ) ;
#237 = ORIENTED_EDGE ( 'NONE', *, *, #136, .F. ) ;
#238 = PRODUCT_DEFINITION_FORMATION_WITH_SPECIFIED_SOURCE ( 'ANY', '', #58, .NOT_KNOWN. ) ;
#239 = ADVANCED_FACE ( 'NONE', ( #81 ), #66, .F. ) ;
#240 = CARTESIAN_POINT ( 'NONE',  ( -17.05000000000000071, 0.000000000000000000, 0.000000000000000000 ) ) ;
#241 = CYLINDRICAL_SURFACE ( 'NONE', #216, 14.54999999999999893 ) ;
#242 = DIRECTION ( 'NONE',  ( -0.000000000000000000, -0.000000000000000000, -1.000000000000000000 ) ) ;
#243 = AXIS2_PLACEMENT_3D ( 'NONE', #169, #217, #70 ) ;
#244 = DIRECTION ( 'NONE',  ( -1.000000000000000000, 0.000000000000000000, 0.000000000000000000 ) ) ;
#245 = FACE_OUTER_BOUND ( 'NONE', #39, .T. ) ;
#246 = APPLICATION_CONTEXT ( 'configuration controlled 3d designs of mechanical parts and assemblies' ) ;
#247 = VERTEX_POINT ( 'NONE', #3 ) ;
#248 = EDGE_CURVE ( 'NONE', #25, #108, #61, .T. ) ;
#249 = DATE_AND_TIME ( #225, #208 ) ;
ENDSEC;
END-ISO-10303-21;
