ISO-10303-21;
HEADER;
FILE_DESCRIPTION (( 'STEP AP203' ),
    '1' );
FILE_NAME ('Round - 34.9 X 1.20.step',
    '2026-04-16T12:39:18',
    ( '' ),
    ( '' ),
    'SwSTEP 2.0',
    'SolidWorks 2023',
    '' );
FILE_SCHEMA (( 'CONFIG_CONTROL_DESIGN' ));
ENDSEC;

DATA;
#1 = DIRECTION ( 'NONE',  ( 1.000000000000000000, 0.000000000000000000, 0.000000000000000000 ) ) ;
#2 = CARTESIAN_POINT ( 'NONE',  ( 0.000000000000000000, 0.000000000000000000, 0.000000000000000000 ) ) ;
#3 = DIRECTION ( 'NONE',  ( 1.000000000000000000, 0.000000000000000000, 0.000000000000000000 ) ) ;
#4 = AXIS2_PLACEMENT_3D ( 'NONE', #42, #53, #95 ) ;
#5 = CARTESIAN_POINT ( 'NONE',  ( -16.26500000000000057, 0.000000000000000000, 0.000000000000000000 ) ) ;
#6 = CALENDAR_DATE ( 2026, 16, 4 ) ;
#7 = CIRCLE ( 'NONE', #52, 16.26500000000000057 ) ;
#8 = APPLICATION_PROTOCOL_DEFINITION ( 'international standard', 'config_control_design', 1994, #236 ) ;
#9 = DIRECTION ( 'NONE',  ( 0.000000000000000000, 0.000000000000000000, 1.000000000000000000 ) ) ;
#10 = AXIS2_PLACEMENT_3D ( 'NONE', #37, #206, #58 ) ;
#11 = EDGE_CURVE ( 'NONE', #141, #163, #73, .T. ) ;
#12 = ORIENTED_EDGE ( 'NONE', *, *, #168, .T. ) ;
#13 = VECTOR ( 'NONE', #20, 1000.000000000000000 ) ;
#14 = DIRECTION ( 'NONE',  ( 1.000000000000000000, 0.000000000000000000, 0.000000000000000000 ) ) ;
#15 = CARTESIAN_POINT ( 'NONE',  ( -16.26500000000000057, 0.000000000000000000, 1000.000000000000000 ) ) ;
#16 = DIRECTION ( 'NONE',  ( 0.000000000000000000, 0.000000000000000000, 1.000000000000000000 ) ) ;
#17 = CARTESIAN_POINT ( 'NONE',  ( -17.46499999999999986, 0.000000000000000000, 1000.000000000000000 ) ) ;
#18 = VECTOR ( 'NONE', #113, 1000.000000000000000 ) ;
#19 = CC_DESIGN_DATE_AND_TIME_ASSIGNMENT ( #219, #126, ( #57 ) ) ;
#20 = DIRECTION ( 'NONE',  ( -0.000000000000000000, -0.000000000000000000, -1.000000000000000000 ) ) ;
#21 = PERSON ( 'UNSPECIFIED', 'UNSPECIFIED', 'UNSPECIFIED', ('UNSPECIFIED'), ('UNSPECIFIED'), ('UNSPECIFIED') ) ;
#22 = APPROVAL_ROLE ( '' ) ;
#23 = PERSON_AND_ORGANIZATION ( #21, #159 ) ;
#24 = EDGE_CURVE ( 'NONE', #163, #141, #92, .T. ) ;
#25 = ORIENTED_EDGE ( 'NONE', *, *, #24, .T. ) ;
#26 = CALENDAR_DATE ( 2026, 16, 4 ) ;
#27 = VERTEX_POINT ( 'NONE', #82 ) ;
#28 = CALENDAR_DATE ( 2026, 16, 4 ) ;
#29 = ORIENTED_EDGE ( 'NONE', *, *, #98, .F. ) ;
#30 = APPROVAL ( #248, 'UNSPECIFIED' ) ;
#31 = AXIS2_PLACEMENT_3D ( 'NONE', #106, #9, #180 ) ;
#32 = CALENDAR_DATE ( 2026, 16, 4 ) ;
#33 = ORIENTED_EDGE ( 'NONE', *, *, #174, .F. ) ;
#34 = PERSON_AND_ORGANIZATION ( #21, #159 ) ;
#35 = DIRECTION ( 'NONE',  ( -1.000000000000000000, 0.000000000000000000, 0.000000000000000000 ) ) ;
#36 = CIRCLE ( 'NONE', #170, 17.46499999999999986 ) ;
#37 = CARTESIAN_POINT ( 'NONE',  ( 0.000000000000000000, 0.000000000000000000, 0.000000000000000000 ) ) ;
#38 = DIRECTION ( 'NONE',  ( -0.000000000000000000, -0.000000000000000000, -1.000000000000000000 ) ) ;
#39 = CARTESIAN_POINT ( 'NONE',  ( 17.46499999999999986, 2.138845634710852534E-15, 1000.000000000000000 ) ) ;
#40 = CC_DESIGN_DATE_AND_TIME_ASSIGNMENT ( #88, #45, ( #60 ) ) ;
#41 = AXIS2_PLACEMENT_3D ( 'NONE', #66, #63, #192 ) ;
#42 = CARTESIAN_POINT ( 'NONE',  ( 0.000000000000000000, 0.000000000000000000, 1000.000000000000000 ) ) ;
#43 = ADVANCED_FACE ( 'NONE', ( #225 ), #129, .F. ) ;
#44 = VECTOR ( 'NONE', #187, 1000.000000000000000 ) ;
#45 = DATE_TIME_ROLE ( 'creation_date' ) ;
#46 =( LENGTH_UNIT ( ) NAMED_UNIT ( * ) SI_UNIT ( .MILLI., .METRE. ) );
#47 = CC_DESIGN_PERSON_AND_ORGANIZATION_ASSIGNMENT ( #211, #172, ( #57 ) ) ;
#48 = APPROVAL_STATUS ( 'not_yet_approved' ) ;
#49 = EDGE_LOOP ( 'NONE', ( #29, #33 ) ) ;
#50 = PERSON_AND_ORGANIZATION ( #21, #159 ) ;
#51 = EDGE_CURVE ( 'NONE', #144, #71, #228, .T. ) ;
#52 = AXIS2_PLACEMENT_3D ( 'NONE', #130, #114, #165 ) ;
#53 = DIRECTION ( 'NONE',  ( -0.000000000000000000, -0.000000000000000000, -1.000000000000000000 ) ) ;
#54 = SHAPE_DEFINITION_REPRESENTATION ( #55, #115 ) ;
#55 = PRODUCT_DEFINITION_SHAPE ( 'NONE', 'NONE',  #60 ) ;
#56 = DIRECTION ( 'NONE',  ( -1.000000000000000000, 0.000000000000000000, 0.000000000000000000 ) ) ;
#57 = SECURITY_CLASSIFICATION ( '', '', #101 ) ;
#58 = DIRECTION ( 'NONE',  ( 1.000000000000000000, 0.000000000000000000, 0.000000000000000000 ) ) ;
#59 = CARTESIAN_POINT ( 'NONE',  ( 16.26500000000000057, 1.991888018813170277E-15, 1000.000000000000000 ) ) ;
#60 = PRODUCT_DEFINITION ( 'UNKNOWN', '', #102, #226 ) ;
#61 = DIRECTION ( 'NONE',  ( 1.000000000000000000, 0.000000000000000000, 0.000000000000000000 ) ) ;
#62 = AXIS2_PLACEMENT_3D ( 'NONE', #94, #16, #61 ) ;
#63 = DIRECTION ( 'NONE',  ( 0.000000000000000000, 0.000000000000000000, 1.000000000000000000 ) ) ;
#64 = AXIS2_PLACEMENT_3D ( 'NONE', #235, #158, #194 ) ;
#65 = EDGE_CURVE ( 'NONE', #144, #27, #36, .T. ) ;
#66 = CARTESIAN_POINT ( 'NONE',  ( 0.000000000000000000, 0.000000000000000000, 1000.000000000000000 ) ) ;
#67 = DIRECTION ( 'NONE',  ( 0.000000000000000000, 0.000000000000000000, 1.000000000000000000 ) ) ;
#68 = ORIENTED_EDGE ( 'NONE', *, *, #118, .T. ) ;
#69 = PERSON_AND_ORGANIZATION ( #21, #159 ) ;
#70 = ORIENTED_EDGE ( 'NONE', *, *, #131, .F. ) ;
#71 = VERTEX_POINT ( 'NONE', #183 ) ;
#72 = ORIENTED_EDGE ( 'NONE', *, *, #65, .F. ) ;
#73 = CIRCLE ( 'NONE', #31, 16.26500000000000057 ) ;
#74 = DATE_AND_TIME ( #32, #83 ) ;
#75 = VERTEX_POINT ( 'NONE', #148 ) ;
#76 = ADVANCED_FACE ( 'NONE', ( #134 ), #229, .F. ) ;
#77 = FACE_OUTER_BOUND ( 'NONE', #213, .T. ) ;
#78 = UNCERTAINTY_MEASURE_WITH_UNIT (LENGTH_MEASURE( 1.000000000000000082E-05 ), #46, 'distance_accuracy_value', 'NONE');
#79 = CARTESIAN_POINT ( 'NONE',  ( 0.000000000000000000, 0.000000000000000000, 1000.000000000000000 ) ) ;
#80 = EDGE_CURVE ( 'NONE', #27, #144, #167, .T. ) ;
#81 = LINE ( 'NONE', #17, #246 ) ;
#82 = CARTESIAN_POINT ( 'NONE',  ( -17.46499999999999986, 0.000000000000000000, 1000.000000000000000 ) ) ;
#83 = LOCAL_TIME ( 14, 39, 18.00000000000000000, #224 ) ;
#84 = DATE_AND_TIME ( #178, #112 ) ;
#85 = PERSON_AND_ORGANIZATION_ROLE ( 'design_owner' ) ;
#86 = CYLINDRICAL_SURFACE ( 'NONE', #64, 17.46499999999999986 ) ;
#87 = PERSON_AND_ORGANIZATION ( #21, #159 ) ;
#88 = DATE_AND_TIME ( #26, #221 ) ;
#89 = APPROVAL_DATE_TIME ( #74, #30 ) ;
#90 = EDGE_LOOP ( 'NONE', ( #238, #181, #68, #199 ) ) ;
#91 = CC_DESIGN_PERSON_AND_ORGANIZATION_ASSIGNMENT ( #23, #85, ( #153 ) ) ;
#92 = CIRCLE ( 'NONE', #119, 16.26500000000000057 ) ;
#93 = CARTESIAN_POINT ( 'NONE',  ( 0.000000000000000000, 0.000000000000000000, 1000.000000000000000 ) ) ;
#94 = CARTESIAN_POINT ( 'NONE',  ( 0.000000000000000000, 0.000000000000000000, 1000.000000000000000 ) ) ;
#95 = DIRECTION ( 'NONE',  ( -1.000000000000000000, 0.000000000000000000, 0.000000000000000000 ) ) ;
#96 = APPROVAL_PERSON_ORGANIZATION ( #69, #231, #142 ) ;
#97 = CARTESIAN_POINT ( 'NONE',  ( 16.26500000000000057, 1.991888018813170277E-15, 1000.000000000000000 ) ) ;
#98 = EDGE_CURVE ( 'NONE', #75, #71, #136, .T. ) ;
#99 = CLOSED_SHELL ( 'NONE', ( #43, #139, #222, #109, #239, #76 ) ) ;
#100 = LINE ( 'NONE', #15, #18 ) ;
#101 = SECURITY_CLASSIFICATION_LEVEL ( 'unclassified' ) ;
#102 = PRODUCT_DEFINITION_FORMATION_WITH_SPECIFIED_SOURCE ( 'ANY', '', #153, .NOT_KNOWN. ) ;
#103 =( NAMED_UNIT ( * ) PLANE_ANGLE_UNIT ( ) SI_UNIT ( $, .RADIAN. ) );
#104 = EDGE_LOOP ( 'NONE', ( #70, #12, #216, #197 ) ) ;
#105 = COORDINATED_UNIVERSAL_TIME_OFFSET ( 2, 0, .AHEAD. ) ;
#106 = CARTESIAN_POINT ( 'NONE',  ( 0.000000000000000000, 0.000000000000000000, 0.000000000000000000 ) ) ;
#107 = CIRCLE ( 'NONE', #234, 16.26500000000000057 ) ;
#108 = ORIENTED_EDGE ( 'NONE', *, *, #65, .T. ) ;
#109 = ADVANCED_FACE ( 'NONE', ( #207, #164 ), #151, .F. ) ;
#110 = ORIENTED_EDGE ( 'NONE', *, *, #51, .T. ) ;
#111 = CARTESIAN_POINT ( 'NONE',  ( 16.26500000000000057, 1.991888018813170277E-15, 0.000000000000000000 ) ) ;
#112 = LOCAL_TIME ( 14, 39, 18.00000000000000000, #105 ) ;
#113 = DIRECTION ( 'NONE',  ( -0.000000000000000000, -0.000000000000000000, -1.000000000000000000 ) ) ;
#114 = DIRECTION ( 'NONE',  ( 0.000000000000000000, 0.000000000000000000, 1.000000000000000000 ) ) ;
#115 = ADVANCED_BREP_SHAPE_REPRESENTATION ( 'Round - 34.9 X 1.20', ( #127, #125 ), #208 ) ;
#116 = CARTESIAN_POINT ( 'NONE',  ( 0.000000000000000000, 0.000000000000000000, 0.000000000000000000 ) ) ;
#117 = DIRECTION ( 'NONE',  ( -0.000000000000000000, -0.000000000000000000, -1.000000000000000000 ) ) ;
#118 = EDGE_CURVE ( 'NONE', #27, #75, #81, .T. ) ;
#119 = AXIS2_PLACEMENT_3D ( 'NONE', #2, #185, #3 ) ;
#120 = VERTEX_POINT ( 'NONE', #249 ) ;
#121 = APPROVAL_DATE_TIME ( #138, #210 ) ;
#122 = ORIENTED_EDGE ( 'NONE', *, *, #80, .T. ) ;
#123 = COORDINATED_UNIVERSAL_TIME_OFFSET ( 2, 0, .AHEAD. ) ;
#124 = ORIENTED_EDGE ( 'NONE', *, *, #174, .T. ) ;
#125 = AXIS2_PLACEMENT_3D ( 'NONE', #175, #67, #140 ) ;
#126 = DATE_TIME_ROLE ( 'classification_date' ) ;
#127 = MANIFOLD_SOLID_BREP ( 'Boss-Extrude1', #99 ) ;
#128 = ORIENTED_EDGE ( 'NONE', *, *, #118, .F. ) ;
#129 = CYLINDRICAL_SURFACE ( 'NONE', #4, 16.26500000000000057 ) ;
#130 = CARTESIAN_POINT ( 'NONE',  ( 0.000000000000000000, 0.000000000000000000, 1000.000000000000000 ) ) ;
#131 = EDGE_CURVE ( 'NONE', #162, #163, #202, .T. ) ;
#132 = CARTESIAN_POINT ( 'NONE',  ( 17.46499999999999986, 2.138845634710852534E-15, 1000.000000000000000 ) ) ;
#133 = CARTESIAN_POINT ( 'NONE',  ( 0.000000000000000000, 0.000000000000000000, 0.000000000000000000 ) ) ;
#134 = FACE_OUTER_BOUND ( 'NONE', #104, .T. ) ;
#135 = EDGE_CURVE ( 'NONE', #120, #141, #100, .T. ) ;
#136 = CIRCLE ( 'NONE', #10, 17.46499999999999986 ) ;
#137 = PERSON_AND_ORGANIZATION_ROLE ( 'creator' ) ;
#138 = DATE_AND_TIME ( #28, #200 ) ;
#139 = ADVANCED_FACE ( 'NONE', ( #77 ), #166, .T. ) ;
#140 = DIRECTION ( 'NONE',  ( 1.000000000000000000, 0.000000000000000000, 0.000000000000000000 ) ) ;
#141 = VERTEX_POINT ( 'NONE', #5 ) ;
#142 = APPROVAL_ROLE ( '' ) ;
#143 = ORIENTED_EDGE ( 'NONE', *, *, #182, .T. ) ;
#144 = VERTEX_POINT ( 'NONE', #39 ) ;
#145 = ORIENTED_EDGE ( 'NONE', *, *, #11, .F. ) ;
#146 = CC_DESIGN_APPROVAL ( #231, ( #102 ) ) ;
#147 = DIRECTION ( 'NONE',  ( 0.000000000000000000, 0.000000000000000000, 1.000000000000000000 ) ) ;
#148 = CARTESIAN_POINT ( 'NONE',  ( -17.46499999999999986, 0.000000000000000000, 0.000000000000000000 ) ) ;
#149 = DIRECTION ( 'NONE',  ( 0.000000000000000000, 0.000000000000000000, 1.000000000000000000 ) ) ;
#150 = CC_DESIGN_SECURITY_CLASSIFICATION ( #57, ( #102 ) ) ;
#151 = PLANE ( 'NONE',  #193 ) ;
#152 = DIRECTION ( 'NONE',  ( -0.000000000000000000, -0.000000000000000000, -1.000000000000000000 ) ) ;
#153 = PRODUCT ( 'Round - 34.9 X 1.20', 'Round - 34.9 X 1.20', '', ( #212 ) ) ;
#154 = APPROVAL_DATE_TIME ( #84, #231 ) ;
#155 = AXIS2_PLACEMENT_3D ( 'NONE', #171, #38, #35 ) ;
#156 = COORDINATED_UNIVERSAL_TIME_OFFSET ( 2, 0, .AHEAD. ) ;
#157 =( NAMED_UNIT ( * ) SI_UNIT ( $, .STERADIAN. ) SOLID_ANGLE_UNIT ( ) );
#158 = DIRECTION ( 'NONE',  ( -0.000000000000000000, -0.000000000000000000, -1.000000000000000000 ) ) ;
#159 = ORGANIZATION ( 'UNSPECIFIED', 'UNSPECIFIED', '' ) ;
#160 = APPLICATION_CONTEXT ( 'configuration controlled 3d designs of mechanical parts and assemblies' ) ;
#161 = EDGE_LOOP ( 'NONE', ( #242, #201 ) ) ;
#162 = VERTEX_POINT ( 'NONE', #97 ) ;
#163 = VERTEX_POINT ( 'NONE', #111 ) ;
#164 = FACE_BOUND ( 'NONE', #195, .T. ) ;
#165 = DIRECTION ( 'NONE',  ( 1.000000000000000000, 0.000000000000000000, 0.000000000000000000 ) ) ;
#166 = CYLINDRICAL_SURFACE ( 'NONE', #155, 17.46499999999999986 ) ;
#167 = CIRCLE ( 'NONE', #62, 17.46499999999999986 ) ;
#168 = EDGE_CURVE ( 'NONE', #162, #120, #7, .T. ) ;
#169 = FACE_BOUND ( 'NONE', #161, .T. ) ;
#170 = AXIS2_PLACEMENT_3D ( 'NONE', #190, #147, #14 ) ;
#171 = CARTESIAN_POINT ( 'NONE',  ( 0.000000000000000000, 0.000000000000000000, 1000.000000000000000 ) ) ;
#172 = PERSON_AND_ORGANIZATION_ROLE ( 'classification_officer' ) ;
#173 = CC_DESIGN_APPROVAL ( #210, ( #60 ) ) ;
#174 = EDGE_CURVE ( 'NONE', #71, #75, #188, .T. ) ;
#175 = CARTESIAN_POINT ( 'NONE',  ( 0.000000000000000000, 0.000000000000000000, 0.000000000000000000 ) ) ;
#176 = EDGE_LOOP ( 'NONE', ( #122, #108 ) ) ;
#177 = CC_DESIGN_PERSON_AND_ORGANIZATION_ASSIGNMENT ( #50, #196, ( #60 ) ) ;
#178 = CALENDAR_DATE ( 2026, 16, 4 ) ;
#179 = APPROVAL_PERSON_ORGANIZATION ( #34, #30, #243 ) ;
#180 = DIRECTION ( 'NONE',  ( 1.000000000000000000, 0.000000000000000000, 0.000000000000000000 ) ) ;
#181 = ORIENTED_EDGE ( 'NONE', *, *, #80, .F. ) ;
#182 = EDGE_CURVE ( 'NONE', #120, #162, #107, .T. ) ;
#183 = CARTESIAN_POINT ( 'NONE',  ( 17.46499999999999986, 2.138845634710852534E-15, 0.000000000000000000 ) ) ;
#184 = APPROVAL_PERSON_ORGANIZATION ( #87, #210, #22 ) ;
#185 = DIRECTION ( 'NONE',  ( 0.000000000000000000, 0.000000000000000000, 1.000000000000000000 ) ) ;
#186 = FACE_OUTER_BOUND ( 'NONE', #176, .T. ) ;
#187 = DIRECTION ( 'NONE',  ( -0.000000000000000000, -0.000000000000000000, -1.000000000000000000 ) ) ;
#188 = CIRCLE ( 'NONE', #230, 17.46499999999999986 ) ;
#189 = LOCAL_TIME ( 14, 39, 18.00000000000000000, #156 ) ;
#190 = CARTESIAN_POINT ( 'NONE',  ( 0.000000000000000000, 0.000000000000000000, 1000.000000000000000 ) ) ;
#191 = PERSON_AND_ORGANIZATION_ROLE ( 'design_supplier' ) ;
#192 = DIRECTION ( 'NONE',  ( 1.000000000000000000, 0.000000000000000000, -0.000000000000000000 ) ) ;
#193 = AXIS2_PLACEMENT_3D ( 'NONE', #133, #223, #204 ) ;
#194 = DIRECTION ( 'NONE',  ( -1.000000000000000000, 0.000000000000000000, 0.000000000000000000 ) ) ;
#195 = EDGE_LOOP ( 'NONE', ( #247, #25 ) ) ;
#196 = PERSON_AND_ORGANIZATION_ROLE ( 'creator' ) ;
#197 = ORIENTED_EDGE ( 'NONE', *, *, #24, .F. ) ;
#198 = APPROVAL_STATUS ( 'not_yet_approved' ) ;
#199 = ORIENTED_EDGE ( 'NONE', *, *, #98, .T. ) ;
#200 = LOCAL_TIME ( 14, 39, 18.00000000000000000, #215 ) ;
#201 = ORIENTED_EDGE ( 'NONE', *, *, #168, .F. ) ;
#202 = LINE ( 'NONE', #59, #13 ) ;
#203 = DIRECTION ( 'NONE',  ( 0.000000000000000000, 0.000000000000000000, 1.000000000000000000 ) ) ;
#204 = DIRECTION ( 'NONE',  ( 1.000000000000000000, 0.000000000000000000, -0.000000000000000000 ) ) ;
#205 = CC_DESIGN_PERSON_AND_ORGANIZATION_ASSIGNMENT ( #209, #191, ( #102 ) ) ;
#206 = DIRECTION ( 'NONE',  ( 0.000000000000000000, 0.000000000000000000, 1.000000000000000000 ) ) ;
#207 = FACE_OUTER_BOUND ( 'NONE', #49, .T. ) ;
#208 =( GEOMETRIC_REPRESENTATION_CONTEXT ( 3 ) GLOBAL_UNCERTAINTY_ASSIGNED_CONTEXT ( ( #78 ) ) GLOBAL_UNIT_ASSIGNED_CONTEXT ( ( #46, #103, #157 ) ) REPRESENTATION_CONTEXT ( 'NONE', 'WORKASPACE' ) );
#209 = PERSON_AND_ORGANIZATION ( #21, #159 ) ;
#210 = APPROVAL ( #48, 'UNSPECIFIED' ) ;
#211 = PERSON_AND_ORGANIZATION ( #21, #159 ) ;
#212 = MECHANICAL_CONTEXT ( 'NONE', #160, 'mechanical' ) ;
#213 = EDGE_LOOP ( 'NONE', ( #72, #110, #124, #128 ) ) ;
#214 = CC_DESIGN_APPROVAL ( #30, ( #57 ) ) ;
#215 = COORDINATED_UNIVERSAL_TIME_OFFSET ( 2, 0, .AHEAD. ) ;
#216 = ORIENTED_EDGE ( 'NONE', *, *, #135, .T. ) ;
#217 = FACE_OUTER_BOUND ( 'NONE', #90, .T. ) ;
#218 = ORIENTED_EDGE ( 'NONE', *, *, #135, .F. ) ;
#219 = DATE_AND_TIME ( #6, #189 ) ;
#220 = EDGE_LOOP ( 'NONE', ( #143, #245, #145, #218 ) ) ;
#221 = LOCAL_TIME ( 14, 39, 18.00000000000000000, #123 ) ;
#222 = ADVANCED_FACE ( 'NONE', ( #186, #169 ), #241, .T. ) ;
#223 = DIRECTION ( 'NONE',  ( 0.000000000000000000, 0.000000000000000000, 1.000000000000000000 ) ) ;
#224 = COORDINATED_UNIVERSAL_TIME_OFFSET ( 2, 0, .AHEAD. ) ;
#225 = FACE_OUTER_BOUND ( 'NONE', #220, .T. ) ;
#226 = DESIGN_CONTEXT ( 'detailed design', #236, 'design' ) ;
#227 = DIRECTION ( 'NONE',  ( 1.000000000000000000, 0.000000000000000000, 0.000000000000000000 ) ) ;
#228 = LINE ( 'NONE', #132, #44 ) ;
#229 = CYLINDRICAL_SURFACE ( 'NONE', #240, 16.26500000000000057 ) ;
#230 = AXIS2_PLACEMENT_3D ( 'NONE', #116, #203, #1 ) ;
#231 = APPROVAL ( #198, 'UNSPECIFIED' ) ;
#232 = PERSON_AND_ORGANIZATION ( #21, #159 ) ;
#233 = PRODUCT_RELATED_PRODUCT_CATEGORY ( 'detail', '', ( #153 ) ) ;
#234 = AXIS2_PLACEMENT_3D ( 'NONE', #79, #149, #227 ) ;
#235 = CARTESIAN_POINT ( 'NONE',  ( 0.000000000000000000, 0.000000000000000000, 1000.000000000000000 ) ) ;
#236 = APPLICATION_CONTEXT ( 'configuration controlled 3d designs of mechanical parts and assemblies' ) ;
#237 = APPLICATION_PROTOCOL_DEFINITION ( 'international standard', 'config_control_design', 1994, #160 ) ;
#238 = ORIENTED_EDGE ( 'NONE', *, *, #51, .F. ) ;
#239 = ADVANCED_FACE ( 'NONE', ( #217 ), #86, .T. ) ;
#240 = AXIS2_PLACEMENT_3D ( 'NONE', #93, #152, #56 ) ;
#241 = PLANE ( 'NONE',  #41 ) ;
#242 = ORIENTED_EDGE ( 'NONE', *, *, #182, .F. ) ;
#243 = APPROVAL_ROLE ( '' ) ;
#244 = CC_DESIGN_PERSON_AND_ORGANIZATION_ASSIGNMENT ( #232, #137, ( #102 ) ) ;
#245 = ORIENTED_EDGE ( 'NONE', *, *, #131, .T. ) ;
#246 = VECTOR ( 'NONE', #117, 1000.000000000000000 ) ;
#247 = ORIENTED_EDGE ( 'NONE', *, *, #11, .T. ) ;
#248 = APPROVAL_STATUS ( 'not_yet_approved' ) ;
#249 = CARTESIAN_POINT ( 'NONE',  ( -16.26500000000000057, 0.000000000000000000, 1000.000000000000000 ) ) ;
ENDSEC;
END-ISO-10303-21;
