ISO-10303-21;
HEADER;
FILE_DESCRIPTION (( 'STEP AP203' ),
    '1' );
FILE_NAME ('Round - 38.1 X 0.90.step',
    '2026-04-16T12:40:01',
    ( '' ),
    ( '' ),
    'SwSTEP 2.0',
    'SolidWorks 2023',
    '' );
FILE_SCHEMA (( 'CONFIG_CONTROL_DESIGN' ));
ENDSEC;

DATA;
#1 = APPROVAL_ROLE ( '' ) ;
#2 = ADVANCED_FACE ( 'NONE', ( #82 ), #101, .F. ) ;
#3 = PERSON_AND_ORGANIZATION ( #117, #147 ) ;
#4 = CIRCLE ( 'NONE', #140, 19.05000000000000071 ) ;
#5 = CIRCLE ( 'NONE', #165, 19.05000000000000071 ) ;
#6 = EDGE_CURVE ( 'NONE', #44, #137, #4, .T. ) ;
#7 = EDGE_LOOP ( 'NONE', ( #163, #221, #42, #11 ) ) ;
#8 = DIRECTION ( 'NONE',  ( -1.000000000000000000, 0.000000000000000000, 0.000000000000000000 ) ) ;
#9 = AXIS2_PLACEMENT_3D ( 'NONE', #89, #205, #228 ) ;
#10 = ORIENTED_EDGE ( 'NONE', *, *, #123, .F. ) ;
#11 = ORIENTED_EDGE ( 'NONE', *, *, #63, .F. ) ;
#12 = UNCERTAINTY_MEASURE_WITH_UNIT (LENGTH_MEASURE( 1.000000000000000082E-05 ), #208, 'distance_accuracy_value', 'NONE');
#13 = DIRECTION ( 'NONE',  ( 1.000000000000000000, 0.000000000000000000, -0.000000000000000000 ) ) ;
#14 = LINE ( 'NONE', #244, #43 ) ;
#15 = LOCAL_TIME ( 14, 40, 1.000000000000000000, #231 ) ;
#16 = DIRECTION ( 'NONE',  ( -1.000000000000000000, 0.000000000000000000, 0.000000000000000000 ) ) ;
#17 = FACE_OUTER_BOUND ( 'NONE', #62, .T. ) ;
#18 = PLANE ( 'NONE',  #176 ) ;
#19 = CALENDAR_DATE ( 2026, 16, 4 ) ;
#20 = CC_DESIGN_DATE_AND_TIME_ASSIGNMENT ( #249, #81, ( #96 ) ) ;
#21 = PERSON_AND_ORGANIZATION ( #117, #147 ) ;
#22 = AXIS2_PLACEMENT_3D ( 'NONE', #71, #201, #242 ) ;
#23 = CALENDAR_DATE ( 2026, 16, 4 ) ;
#24 = CALENDAR_DATE ( 2026, 16, 4 ) ;
#25 = DIRECTION ( 'NONE',  ( -0.000000000000000000, -0.000000000000000000, -1.000000000000000000 ) ) ;
#26 = DIRECTION ( 'NONE',  ( 0.000000000000000000, 0.000000000000000000, 1.000000000000000000 ) ) ;
#27 = LOCAL_TIME ( 14, 40, 1.000000000000000000, #112 ) ;
#28 = ORIENTED_EDGE ( 'NONE', *, *, #123, .T. ) ;
#29 = CARTESIAN_POINT ( 'NONE',  ( 0.000000000000000000, 0.000000000000000000, 1000.000000000000000 ) ) ;
#30 = FACE_OUTER_BOUND ( 'NONE', #7, .T. ) ;
#31 = CARTESIAN_POINT ( 'NONE',  ( 0.000000000000000000, 0.000000000000000000, 1000.000000000000000 ) ) ;
#32 = LOCAL_TIME ( 14, 40, 1.000000000000000000, #229 ) ;
#33 = DIRECTION ( 'NONE',  ( -0.000000000000000000, -0.000000000000000000, -1.000000000000000000 ) ) ;
#34 = ADVANCED_FACE ( 'NONE', ( #45 ), #46, .T. ) ;
#35 = EDGE_CURVE ( 'NONE', #118, #178, #168, .T. ) ;
#36 = CARTESIAN_POINT ( 'NONE',  ( 0.000000000000000000, 0.000000000000000000, 1000.000000000000000 ) ) ;
#37 = DIRECTION ( 'NONE',  ( 0.000000000000000000, 0.000000000000000000, 1.000000000000000000 ) ) ;
#38 = CIRCLE ( 'NONE', #9, 18.14999999999999858 ) ;
#39 = DATE_TIME_ROLE ( 'classification_date' ) ;
#40 = PERSON_AND_ORGANIZATION_ROLE ( 'classification_officer' ) ;
#41 = SECURITY_CLASSIFICATION ( '', '', #56 ) ;
#42 = ORIENTED_EDGE ( 'NONE', *, *, #202, .T. ) ;
#43 = VECTOR ( 'NONE', #222, 1000.000000000000000 ) ;
#44 = VERTEX_POINT ( 'NONE', #92 ) ;
#45 = FACE_OUTER_BOUND ( 'NONE', #68, .T. ) ;
#46 = CYLINDRICAL_SURFACE ( 'NONE', #141, 19.05000000000000071 ) ;
#47 = DIRECTION ( 'NONE',  ( -0.000000000000000000, -0.000000000000000000, -1.000000000000000000 ) ) ;
#48 = DIRECTION ( 'NONE',  ( -0.000000000000000000, -0.000000000000000000, -1.000000000000000000 ) ) ;
#49 = LINE ( 'NONE', #148, #113 ) ;
#50 = AXIS2_PLACEMENT_3D ( 'NONE', #70, #142, #212 ) ;
#51 = DIRECTION ( 'NONE',  ( -1.000000000000000000, 0.000000000000000000, 0.000000000000000000 ) ) ;
#52 = CARTESIAN_POINT ( 'NONE',  ( -19.05000000000000071, 0.000000000000000000, 0.000000000000000000 ) ) ;
#53 = DATE_AND_TIME ( #23, #27 ) ;
#54 = CC_DESIGN_APPROVAL ( #55, ( #96 ) ) ;
#55 = APPROVAL ( #235, 'UNSPECIFIED' ) ;
#56 = SECURITY_CLASSIFICATION_LEVEL ( 'unclassified' ) ;
#57 = PRODUCT_DEFINITION_SHAPE ( 'NONE', 'NONE',  #96 ) ;
#58 = PERSON_AND_ORGANIZATION_ROLE ( 'design_owner' ) ;
#59 = DIRECTION ( 'NONE',  ( 1.000000000000000000, 0.000000000000000000, 0.000000000000000000 ) ) ;
#60 = AXIS2_PLACEMENT_3D ( 'NONE', #243, #145, #186 ) ;
#61 = COORDINATED_UNIVERSAL_TIME_OFFSET ( 2, 0, .AHEAD. ) ;
#62 = EDGE_LOOP ( 'NONE', ( #239, #179 ) ) ;
#63 = EDGE_CURVE ( 'NONE', #178, #86, #226, .T. ) ;
#64 = EDGE_CURVE ( 'NONE', #86, #178, #38, .T. ) ;
#65 = VERTEX_POINT ( 'NONE', #200 ) ;
#66 = APPROVAL_DATE_TIME ( #175, #90 ) ;
#67 = VERTEX_POINT ( 'NONE', #94 ) ;
#68 = EDGE_LOOP ( 'NONE', ( #218, #219, #157, #160 ) ) ;
#69 = APPROVAL_PERSON_ORGANIZATION ( #3, #55, #150 ) ;
#70 = CARTESIAN_POINT ( 'NONE',  ( 0.000000000000000000, 0.000000000000000000, 1000.000000000000000 ) ) ;
#71 = CARTESIAN_POINT ( 'NONE',  ( 0.000000000000000000, 0.000000000000000000, 0.000000000000000000 ) ) ;
#72 = FACE_BOUND ( 'NONE', #139, .T. ) ;
#73 = AXIS2_PLACEMENT_3D ( 'NONE', #36, #143, #204 ) ;
#74 = DIRECTION ( 'NONE',  ( 0.000000000000000000, 0.000000000000000000, 1.000000000000000000 ) ) ;
#75 = DIRECTION ( 'NONE',  ( -0.000000000000000000, -0.000000000000000000, -1.000000000000000000 ) ) ;
#76 = MECHANICAL_CONTEXT ( 'NONE', #206, 'mechanical' ) ;
#77 = CC_DESIGN_PERSON_AND_ORGANIZATION_ASSIGNMENT ( #210, #58, ( #170 ) ) ;
#78 = DATE_AND_TIME ( #24, #32 ) ;
#79 = AXIS2_PLACEMENT_3D ( 'NONE', #31, #33, #16 ) ;
#80 = APPROVAL_STATUS ( 'not_yet_approved' ) ;
#81 = DATE_TIME_ROLE ( 'creation_date' ) ;
#82 = FACE_OUTER_BOUND ( 'NONE', #158, .T. ) ;
#83 = ORIENTED_EDGE ( 'NONE', *, *, #63, .T. ) ;
#84 = CARTESIAN_POINT ( 'NONE',  ( 0.000000000000000000, 0.000000000000000000, 1000.000000000000000 ) ) ;
#85 = CARTESIAN_POINT ( 'NONE',  ( 0.000000000000000000, 0.000000000000000000, 1000.000000000000000 ) ) ;
#86 = VERTEX_POINT ( 'NONE', #107 ) ;
#87 = FACE_OUTER_BOUND ( 'NONE', #214, .T. ) ;
#88 = APPROVAL_PERSON_ORGANIZATION ( #98, #90, #1 ) ;
#89 = CARTESIAN_POINT ( 'NONE',  ( 0.000000000000000000, 0.000000000000000000, 0.000000000000000000 ) ) ;
#90 = APPROVAL ( #172, 'UNSPECIFIED' ) ;
#91 = DIRECTION ( 'NONE',  ( 1.000000000000000000, 0.000000000000000000, 0.000000000000000000 ) ) ;
#92 = CARTESIAN_POINT ( 'NONE',  ( -19.05000000000000071, 0.000000000000000000, 1000.000000000000000 ) ) ;
#93 = CIRCLE ( 'NONE', #131, 19.05000000000000071 ) ;
#94 = CARTESIAN_POINT ( 'NONE',  ( 19.05000000000000071, 2.332952152375708043E-15, 0.000000000000000000 ) ) ;
#95 = DIRECTION ( 'NONE',  ( 1.000000000000000000, 0.000000000000000000, 0.000000000000000000 ) ) ;
#96 = PRODUCT_DEFINITION ( 'UNKNOWN', '', #99, #181 ) ;
#97 = PERSON_AND_ORGANIZATION ( #117, #147 ) ;
#98 = PERSON_AND_ORGANIZATION ( #117, #147 ) ;
#99 = PRODUCT_DEFINITION_FORMATION_WITH_SPECIFIED_SOURCE ( 'ANY', '', #170, .NOT_KNOWN. ) ;
#100 = CC_DESIGN_PERSON_AND_ORGANIZATION_ASSIGNMENT ( #129, #213, ( #99 ) ) ;
#101 = CYLINDRICAL_SURFACE ( 'NONE', #161, 18.14999999999999858 ) ;
#102 = DIRECTION ( 'NONE',  ( 1.000000000000000000, 0.000000000000000000, 0.000000000000000000 ) ) ;
#103 = ORIENTED_EDGE ( 'NONE', *, *, #64, .T. ) ;
#104 = EDGE_LOOP ( 'NONE', ( #10, #217 ) ) ;
#105 = CYLINDRICAL_SURFACE ( 'NONE', #79, 18.14999999999999858 ) ;
#106 = CARTESIAN_POINT ( 'NONE',  ( 19.05000000000000071, 2.332952152375708043E-15, 1000.000000000000000 ) ) ;
#107 = CARTESIAN_POINT ( 'NONE',  ( -18.14999999999999858, 0.000000000000000000, 0.000000000000000000 ) ) ;
#108 = PERSON_AND_ORGANIZATION ( #117, #147 ) ;
#109 = APPLICATION_PROTOCOL_DEFINITION ( 'international standard', 'config_control_design', 1994, #111 ) ;
#110 = ADVANCED_FACE ( 'NONE', ( #17, #72 ), #184, .T. ) ;
#111 = APPLICATION_CONTEXT ( 'configuration controlled 3d designs of mechanical parts and assemblies' ) ;
#112 = COORDINATED_UNIVERSAL_TIME_OFFSET ( 2, 0, .AHEAD. ) ;
#113 = VECTOR ( 'NONE', #47, 1000.000000000000000 ) ;
#114 = ADVANCED_FACE ( 'NONE', ( #30 ), #105, .F. ) ;
#115 = EDGE_LOOP ( 'NONE', ( #103, #83 ) ) ;
#116 = VERTEX_POINT ( 'NONE', #52 ) ;
#117 = PERSON ( 'UNSPECIFIED', 'UNSPECIFIED', 'UNSPECIFIED', ('UNSPECIFIED'), ('UNSPECIFIED'), ('UNSPECIFIED') ) ;
#118 = VERTEX_POINT ( 'NONE', #164 ) ;
#119 = PRODUCT_RELATED_PRODUCT_CATEGORY ( 'detail', '', ( #170 ) ) ;
#120 = CARTESIAN_POINT ( 'NONE',  ( 0.000000000000000000, 0.000000000000000000, 1000.000000000000000 ) ) ;
#121 = DIRECTION ( 'NONE',  ( -0.000000000000000000, -0.000000000000000000, -1.000000000000000000 ) ) ;
#122 = DIRECTION ( 'NONE',  ( 1.000000000000000000, 0.000000000000000000, 0.000000000000000000 ) ) ;
#123 = EDGE_CURVE ( 'NONE', #116, #67, #162, .T. ) ;
#124 = LINE ( 'NONE', #182, #241 ) ;
#125 = AXIS2_PLACEMENT_3D ( 'NONE', #225, #185, #122 ) ;
#126 = PERSON_AND_ORGANIZATION_ROLE ( 'design_supplier' ) ;
#127 = CC_DESIGN_DATE_AND_TIME_ASSIGNMENT ( #53, #39, ( #41 ) ) ;
#128 = COORDINATED_UNIVERSAL_TIME_OFFSET ( 2, 0, .AHEAD. ) ;
#129 = PERSON_AND_ORGANIZATION ( #117, #147 ) ;
#130 = DIRECTION ( 'NONE',  ( 0.000000000000000000, 0.000000000000000000, 1.000000000000000000 ) ) ;
#131 = AXIS2_PLACEMENT_3D ( 'NONE', #120, #74, #166 ) ;
#132 = APPROVAL_ROLE ( '' ) ;
#133 = EDGE_CURVE ( 'NONE', #137, #67, #124, .T. ) ;
#134 = ORIENTED_EDGE ( 'NONE', *, *, #197, .T. ) ;
#135 = ORIENTED_EDGE ( 'NONE', *, *, #6, .F. ) ;
#136 = CC_DESIGN_PERSON_AND_ORGANIZATION_ASSIGNMENT ( #97, #126, ( #99 ) ) ;
#137 = VERTEX_POINT ( 'NONE', #106 ) ;
#138 = ORIENTED_EDGE ( 'NONE', *, *, #64, .F. ) ;
#139 = EDGE_LOOP ( 'NONE', ( #236, #199 ) ) ;
#140 = AXIS2_PLACEMENT_3D ( 'NONE', #84, #26, #102 ) ;
#141 = AXIS2_PLACEMENT_3D ( 'NONE', #29, #121, #51 ) ;
#142 = DIRECTION ( 'NONE',  ( -0.000000000000000000, -0.000000000000000000, -1.000000000000000000 ) ) ;
#143 = DIRECTION ( 'NONE',  ( 0.000000000000000000, 0.000000000000000000, 1.000000000000000000 ) ) ;
#144 = MANIFOLD_SOLID_BREP ( 'Boss-Extrude1', #203 ) ;
#145 = DIRECTION ( 'NONE',  ( 0.000000000000000000, 0.000000000000000000, 1.000000000000000000 ) ) ;
#146 = ADVANCED_BREP_SHAPE_REPRESENTATION ( 'Round - 38.1 X 0.90', ( #144, #207 ), #183 ) ;
#147 = ORGANIZATION ( 'UNSPECIFIED', 'UNSPECIFIED', '' ) ;
#148 = CARTESIAN_POINT ( 'NONE',  ( -18.14999999999999858, 0.000000000000000000, 1000.000000000000000 ) ) ;
#149 = CARTESIAN_POINT ( 'NONE',  ( 18.14999999999999858, 2.222733940452445858E-15, 1000.000000000000000 ) ) ;
#150 = APPROVAL_ROLE ( '' ) ;
#151 = LOCAL_TIME ( 14, 40, 1.000000000000000000, #128 ) ;
#152 = DATE_AND_TIME ( #247, #151 ) ;
#153 = PERSON_AND_ORGANIZATION ( #117, #147 ) ;
#154 = LOCAL_TIME ( 14, 40, 1.000000000000000000, #61 ) ;
#155 = EDGE_CURVE ( 'NONE', #44, #116, #14, .T. ) ;
#156 = SHAPE_DEFINITION_REPRESENTATION ( #57, #146 ) ;
#157 = ORIENTED_EDGE ( 'NONE', *, *, #248, .T. ) ;
#158 = EDGE_LOOP ( 'NONE', ( #134, #198, #138, #238 ) ) ;
#159 = APPROVAL ( #80, 'UNSPECIFIED' ) ;
#160 = ORIENTED_EDGE ( 'NONE', *, *, #155, .F. ) ;
#161 = AXIS2_PLACEMENT_3D ( 'NONE', #85, #25, #8 ) ;
#162 = CIRCLE ( 'NONE', #234, 19.05000000000000071 ) ;
#163 = ORIENTED_EDGE ( 'NONE', *, *, #35, .F. ) ;
#164 = CARTESIAN_POINT ( 'NONE',  ( 18.14999999999999858, 2.222733940452445858E-15, 1000.000000000000000 ) ) ;
#165 = AXIS2_PLACEMENT_3D ( 'NONE', #233, #130, #59 ) ;
#166 = DIRECTION ( 'NONE',  ( 1.000000000000000000, 0.000000000000000000, 0.000000000000000000 ) ) ;
#167 = CARTESIAN_POINT ( 'NONE',  ( 18.14999999999999858, 2.222733940452445858E-15, 0.000000000000000000 ) ) ;
#168 = LINE ( 'NONE', #149, #174 ) ;
#169 = FACE_BOUND ( 'NONE', #115, .T. ) ;
#170 = PRODUCT ( 'Round - 38.1 X 0.90', 'Round - 38.1 X 0.90', '', ( #76 ) ) ;
#171 = APPLICATION_PROTOCOL_DEFINITION ( 'international standard', 'config_control_design', 1994, #206 ) ;
#172 = APPROVAL_STATUS ( 'not_yet_approved' ) ;
#173 = PERSON_AND_ORGANIZATION_ROLE ( 'creator' ) ;
#174 = VECTOR ( 'NONE', #75, 1000.000000000000000 ) ;
#175 = DATE_AND_TIME ( #215, #154 ) ;
#176 = AXIS2_PLACEMENT_3D ( 'NONE', #245, #37, #13 ) ;
#177 = EDGE_CURVE ( 'NONE', #137, #44, #93, .T. ) ;
#178 = VERTEX_POINT ( 'NONE', #167 ) ;
#179 = ORIENTED_EDGE ( 'NONE', *, *, #177, .T. ) ;
#180 = CARTESIAN_POINT ( 'NONE',  ( 0.000000000000000000, 0.000000000000000000, 0.000000000000000000 ) ) ;
#181 = DESIGN_CONTEXT ( 'detailed design', #111, 'design' ) ;
#182 = CARTESIAN_POINT ( 'NONE',  ( 19.05000000000000071, 2.332952152375708043E-15, 1000.000000000000000 ) ) ;
#183 =( GEOMETRIC_REPRESENTATION_CONTEXT ( 3 ) GLOBAL_UNCERTAINTY_ASSIGNED_CONTEXT ( ( #12 ) ) GLOBAL_UNIT_ASSIGNED_CONTEXT ( ( #208, #190, #246 ) ) REPRESENTATION_CONTEXT ( 'NONE', 'WORKASPACE' ) );
#184 = PLANE ( 'NONE',  #73 ) ;
#185 = DIRECTION ( 'NONE',  ( 0.000000000000000000, 0.000000000000000000, 1.000000000000000000 ) ) ;
#186 = DIRECTION ( 'NONE',  ( 1.000000000000000000, 0.000000000000000000, 0.000000000000000000 ) ) ;
#187 = CC_DESIGN_APPROVAL ( #159, ( #99 ) ) ;
#188 = DIRECTION ( 'NONE',  ( 0.000000000000000000, 0.000000000000000000, 1.000000000000000000 ) ) ;
#189 = APPROVAL_DATE_TIME ( #78, #55 ) ;
#190 =( NAMED_UNIT ( * ) PLANE_ANGLE_UNIT ( ) SI_UNIT ( $, .RADIAN. ) );
#191 = EDGE_CURVE ( 'NONE', #118, #65, #194, .T. ) ;
#192 = CC_DESIGN_PERSON_AND_ORGANIZATION_ASSIGNMENT ( #108, #40, ( #41 ) ) ;
#193 = CARTESIAN_POINT ( 'NONE',  ( 0.000000000000000000, 0.000000000000000000, 0.000000000000000000 ) ) ;
#194 = CIRCLE ( 'NONE', #60, 18.14999999999999858 ) ;
#195 = ORIENTED_EDGE ( 'NONE', *, *, #133, .F. ) ;
#196 = ORIENTED_EDGE ( 'NONE', *, *, #155, .T. ) ;
#197 = EDGE_CURVE ( 'NONE', #65, #118, #211, .T. ) ;
#198 = ORIENTED_EDGE ( 'NONE', *, *, #35, .T. ) ;
#199 = ORIENTED_EDGE ( 'NONE', *, *, #191, .F. ) ;
#200 = CARTESIAN_POINT ( 'NONE',  ( -18.14999999999999858, 0.000000000000000000, 1000.000000000000000 ) ) ;
#201 = DIRECTION ( 'NONE',  ( 0.000000000000000000, 0.000000000000000000, 1.000000000000000000 ) ) ;
#202 = EDGE_CURVE ( 'NONE', #65, #86, #49, .T. ) ;
#203 = CLOSED_SHELL ( 'NONE', ( #2, #34, #110, #223, #232, #114 ) ) ;
#204 = DIRECTION ( 'NONE',  ( 1.000000000000000000, 0.000000000000000000, -0.000000000000000000 ) ) ;
#205 = DIRECTION ( 'NONE',  ( 0.000000000000000000, 0.000000000000000000, 1.000000000000000000 ) ) ;
#206 = APPLICATION_CONTEXT ( 'configuration controlled 3d designs of mechanical parts and assemblies' ) ;
#207 = AXIS2_PLACEMENT_3D ( 'NONE', #193, #188, #95 ) ;
#208 =( LENGTH_UNIT ( ) NAMED_UNIT ( * ) SI_UNIT ( .MILLI., .METRE. ) );
#209 = APPROVAL_DATE_TIME ( #152, #159 ) ;
#210 = PERSON_AND_ORGANIZATION ( #117, #147 ) ;
#211 = CIRCLE ( 'NONE', #125, 18.14999999999999858 ) ;
#212 = DIRECTION ( 'NONE',  ( -1.000000000000000000, 0.000000000000000000, 0.000000000000000000 ) ) ;
#213 = PERSON_AND_ORGANIZATION_ROLE ( 'creator' ) ;
#214 = EDGE_LOOP ( 'NONE', ( #195, #135, #196, #28 ) ) ;
#215 = CALENDAR_DATE ( 2026, 16, 4 ) ;
#216 = CC_DESIGN_SECURITY_CLASSIFICATION ( #41, ( #99 ) ) ;
#217 = ORIENTED_EDGE ( 'NONE', *, *, #248, .F. ) ;
#218 = ORIENTED_EDGE ( 'NONE', *, *, #177, .F. ) ;
#219 = ORIENTED_EDGE ( 'NONE', *, *, #133, .T. ) ;
#220 = CC_DESIGN_PERSON_AND_ORGANIZATION_ASSIGNMENT ( #21, #173, ( #96 ) ) ;
#221 = ORIENTED_EDGE ( 'NONE', *, *, #191, .T. ) ;
#222 = DIRECTION ( 'NONE',  ( -0.000000000000000000, -0.000000000000000000, -1.000000000000000000 ) ) ;
#223 = ADVANCED_FACE ( 'NONE', ( #227, #169 ), #18, .F. ) ;
#224 = DIRECTION ( 'NONE',  ( 0.000000000000000000, 0.000000000000000000, 1.000000000000000000 ) ) ;
#225 = CARTESIAN_POINT ( 'NONE',  ( 0.000000000000000000, 0.000000000000000000, 1000.000000000000000 ) ) ;
#226 = CIRCLE ( 'NONE', #22, 18.14999999999999858 ) ;
#227 = FACE_OUTER_BOUND ( 'NONE', #104, .T. ) ;
#228 = DIRECTION ( 'NONE',  ( 1.000000000000000000, 0.000000000000000000, 0.000000000000000000 ) ) ;
#229 = COORDINATED_UNIVERSAL_TIME_OFFSET ( 2, 0, .AHEAD. ) ;
#230 = CC_DESIGN_APPROVAL ( #90, ( #41 ) ) ;
#231 = COORDINATED_UNIVERSAL_TIME_OFFSET ( 2, 0, .AHEAD. ) ;
#232 = ADVANCED_FACE ( 'NONE', ( #87 ), #240, .T. ) ;
#233 = CARTESIAN_POINT ( 'NONE',  ( 0.000000000000000000, 0.000000000000000000, 0.000000000000000000 ) ) ;
#234 = AXIS2_PLACEMENT_3D ( 'NONE', #180, #224, #91 ) ;
#235 = APPROVAL_STATUS ( 'not_yet_approved' ) ;
#236 = ORIENTED_EDGE ( 'NONE', *, *, #197, .F. ) ;
#237 = APPROVAL_PERSON_ORGANIZATION ( #153, #159, #132 ) ;
#238 = ORIENTED_EDGE ( 'NONE', *, *, #202, .F. ) ;
#239 = ORIENTED_EDGE ( 'NONE', *, *, #6, .T. ) ;
#240 = CYLINDRICAL_SURFACE ( 'NONE', #50, 19.05000000000000071 ) ;
#241 = VECTOR ( 'NONE', #48, 1000.000000000000000 ) ;
#242 = DIRECTION ( 'NONE',  ( 1.000000000000000000, 0.000000000000000000, 0.000000000000000000 ) ) ;
#243 = CARTESIAN_POINT ( 'NONE',  ( 0.000000000000000000, 0.000000000000000000, 1000.000000000000000 ) ) ;
#244 = CARTESIAN_POINT ( 'NONE',  ( -19.05000000000000071, 0.000000000000000000, 1000.000000000000000 ) ) ;
#245 = CARTESIAN_POINT ( 'NONE',  ( 0.000000000000000000, 0.000000000000000000, 0.000000000000000000 ) ) ;
#246 =( NAMED_UNIT ( * ) SI_UNIT ( $, .STERADIAN. ) SOLID_ANGLE_UNIT ( ) );
#247 = CALENDAR_DATE ( 2026, 16, 4 ) ;
#248 = EDGE_CURVE ( 'NONE', #67, #116, #5, .T. ) ;
#249 = DATE_AND_TIME ( #19, #15 ) ;
ENDSEC;
END-ISO-10303-21;
