ISO-10303-21;
HEADER;
FILE_DESCRIPTION (( 'STEP AP203' ),
    '1' );
FILE_NAME ('Square - 100.0 X 100.0 X 6.00.step',
    '2026-04-16T13:43:13',
    ( '' ),
    ( '' ),
    'SwSTEP 2.0',
    'SolidWorks 2023',
    '' );
FILE_SCHEMA (( 'CONFIG_CONTROL_DESIGN' ));
ENDSEC;

DATA;
#1 = PERSON_AND_ORGANIZATION_ROLE ( 'design_owner' ) ;
#2 = DIRECTION ( 'NONE',  ( 9.130123557772667102E-17, -1.000000000000000000, 0.000000000000000000 ) ) ;
#3 = ORIENTED_EDGE ( 'NONE', *, *, #312, .T. ) ;
#4 = COORDINATED_UNIVERSAL_TIME_OFFSET ( 2, 0, .AHEAD. ) ;
#5 = FACE_OUTER_BOUND ( 'NONE', #573, .T. ) ;
#6 = VECTOR ( 'NONE', #125, 1000.000000000000000 ) ;
#7 = ORIENTED_EDGE ( 'NONE', *, *, #524, .T. ) ;
#8 = APPLICATION_PROTOCOL_DEFINITION ( 'international standard', 'config_control_design', 1994, #559 ) ;
#9 = DIRECTION ( 'NONE',  ( -0.000000000000000000, -1.000000000000000000, -0.000000000000000000 ) ) ;
#10 = ORIENTED_EDGE ( 'NONE', *, *, #174, .T. ) ;
#11 = CARTESIAN_POINT ( 'NONE',  ( 44.00000000000000711, -38.00000000000000711, 1000.000000000000000 ) ) ;
#12 = APPROVAL ( #263, 'UNSPECIFIED' ) ;
#13 = CARTESIAN_POINT ( 'NONE',  ( 38.00000000000000711, 50.00000000000000000, 1000.000000000000000 ) ) ;
#14 = VERTEX_POINT ( 'NONE', #88 ) ;
#15 = DIRECTION ( 'NONE',  ( -1.000000000000000000, 0.000000000000000000, 0.000000000000000000 ) ) ;
#16 = VERTEX_POINT ( 'NONE', #483 ) ;
#17 = CIRCLE ( 'NONE', #75, 11.99999999999999645 ) ;
#18 = EDGE_CURVE ( 'NONE', #480, #28, #35, .T. ) ;
#19 = AXIS2_PLACEMENT_3D ( 'NONE', #629, #275, #232 ) ;
#20 = SECURITY_CLASSIFICATION ( '', '', #161 ) ;
#21 = CARTESIAN_POINT ( 'NONE',  ( -44.00000000000000711, -38.00000000000000711, 1000.000000000000000 ) ) ;
#22 = ORIENTED_EDGE ( 'NONE', *, *, #349, .F. ) ;
#23 = COORDINATED_UNIVERSAL_TIME_OFFSET ( 2, 0, .AHEAD. ) ;
#24 = PRODUCT_DEFINITION_SHAPE ( 'NONE', 'NONE',  #392 ) ;
#25 = CARTESIAN_POINT ( 'NONE',  ( 38.00000000000000711, 44.00000000000000711, 1000.000000000000000 ) ) ;
#26 = EDGE_LOOP ( 'NONE', ( #424, #139, #529, #384 ) ) ;
#27 = DIRECTION ( 'NONE',  ( 0.000000000000000000, 0.000000000000000000, 1.000000000000000000 ) ) ;
#28 = VERTEX_POINT ( 'NONE', #643 ) ;
#29 = VECTOR ( 'NONE', #223, 1000.000000000000000 ) ;
#30 = ADVANCED_FACE ( 'NONE', ( #291 ), #101, .T. ) ;
#31 = DIRECTION ( 'NONE',  ( -0.000000000000000000, -0.000000000000000000, -1.000000000000000000 ) ) ;
#32 = ORIENTED_EDGE ( 'NONE', *, *, #595, .T. ) ;
#33 = FACE_OUTER_BOUND ( 'NONE', #256, .T. ) ;
#34 = ADVANCED_FACE ( 'NONE', ( #651 ), #306, .T. ) ;
#35 = LINE ( 'NONE', #434, #616 ) ;
#36 = DIRECTION ( 'NONE',  ( 0.000000000000000000, -0.000000000000000000, 1.000000000000000000 ) ) ;
#37 = ORIENTED_EDGE ( 'NONE', *, *, #64, .F. ) ;
#38 = AXIS2_PLACEMENT_3D ( 'NONE', #497, #600, #448 ) ;
#39 = CARTESIAN_POINT ( 'NONE',  ( -38.00000000000000711, -44.00000000000001421, 1000.000000000000000 ) ) ;
#40 = CARTESIAN_POINT ( 'NONE',  ( -38.00000000000000711, -38.00000000000000711, 1000.000000000000000 ) ) ;
#41 = APPLICATION_CONTEXT ( 'configuration controlled 3d designs of mechanical parts and assemblies' ) ;
#42 = DIRECTION ( 'NONE',  ( -1.000000000000000000, -0.000000000000000000, -0.000000000000000000 ) ) ;
#43 = UNCERTAINTY_MEASURE_WITH_UNIT (LENGTH_MEASURE( 1.000000000000000082E-05 ), #457, 'distance_accuracy_value', 'NONE');
#44 = CARTESIAN_POINT ( 'NONE',  ( 44.00000000000000711, -38.00000000000000711, 1000.000000000000000 ) ) ;
#45 = ORIENTED_EDGE ( 'NONE', *, *, #610, .F. ) ;
#46 = CARTESIAN_POINT ( 'NONE',  ( 50.00000000000000000, -38.00000000000000711, 1000.000000000000000 ) ) ;
#47 = DIRECTION ( 'NONE',  ( 0.000000000000000000, 0.000000000000000000, 1.000000000000000000 ) ) ;
#48 = VECTOR ( 'NONE', #449, 1000.000000000000000 ) ;
#49 = CARTESIAN_POINT ( 'NONE',  ( 50.00000000000000000, 38.00000000000000711, 0.000000000000000000 ) ) ;
#50 = AXIS2_PLACEMENT_3D ( 'NONE', #142, #447, #36 ) ;
#51 = EDGE_CURVE ( 'NONE', #308, #57, #176, .T. ) ;
#52 = CARTESIAN_POINT ( 'NONE',  ( 44.00000000000000711, -38.00000000000000711, 0.000000000000000000 ) ) ;
#53 = ORIENTED_EDGE ( 'NONE', *, *, #137, .F. ) ;
#54 = PLANE ( 'NONE',  #603 ) ;
#55 = CC_DESIGN_PERSON_AND_ORGANIZATION_ASSIGNMENT ( #363, #460, ( #20 ) ) ;
#56 = DIRECTION ( 'NONE',  ( 0.000000000000000000, 1.000000000000000000, 0.000000000000000000 ) ) ;
#57 = VERTEX_POINT ( 'NONE', #52 ) ;
#58 = ADVANCED_FACE ( 'NONE', ( #551, #200 ), #192, .T. ) ;
#59 = DATE_AND_TIME ( #515, #467 ) ;
#60 = CARTESIAN_POINT ( 'NONE',  ( 38.00000000000000711, 38.00000000000000711, 1000.000000000000000 ) ) ;
#61 = VECTOR ( 'NONE', #195, 1000.000000000000000 ) ;
#62 = APPROVAL_PERSON_ORGANIZATION ( #507, #12, #164 ) ;
#63 = ORIENTED_EDGE ( 'NONE', *, *, #571, .T. ) ;
#64 = EDGE_CURVE ( 'NONE', #378, #562, #633, .T. ) ;
#65 = DIRECTION ( 'NONE',  ( -1.000000000000000000, 0.000000000000000000, 0.000000000000000000 ) ) ;
#66 = CARTESIAN_POINT ( 'NONE',  ( -38.00000000000000711, 44.00000000000000000, 1000.000000000000000 ) ) ;
#67 = ORIENTED_EDGE ( 'NONE', *, *, #82, .F. ) ;
#68 = DIRECTION ( 'NONE',  ( 0.000000000000000000, 0.000000000000000000, 1.000000000000000000 ) ) ;
#69 = ADVANCED_FACE ( 'NONE', ( #106, #197 ), #143, .F. ) ;
#70 = DIRECTION ( 'NONE',  ( 0.000000000000000000, 0.000000000000000000, 1.000000000000000000 ) ) ;
#71 = ORIENTED_EDGE ( 'NONE', *, *, #110, .F. ) ;
#72 = APPROVAL_ROLE ( '' ) ;
#73 = CARTESIAN_POINT ( 'NONE',  ( -38.00000000000000711, 50.00000000000000000, 1000.000000000000000 ) ) ;
#74 = ORIENTED_EDGE ( 'NONE', *, *, #451, .T. ) ;
#75 = AXIS2_PLACEMENT_3D ( 'NONE', #60, #70, #416 ) ;
#76 = VECTOR ( 'NONE', #100, 1000.000000000000000 ) ;
#77 = PLANE ( 'NONE',  #388 ) ;
#78 = ORIENTED_EDGE ( 'NONE', *, *, #566, .T. ) ;
#79 = CALENDAR_DATE ( 2026, 16, 4 ) ;
#80 = CARTESIAN_POINT ( 'NONE',  ( 38.00000000000000711, 38.00000000000000711, 1000.000000000000000 ) ) ;
#81 = ORIENTED_EDGE ( 'NONE', *, *, #274, .F. ) ;
#82 = EDGE_CURVE ( 'NONE', #630, #229, #238, .T. ) ;
#83 = LINE ( 'NONE', #479, #533 ) ;
#84 = ORIENTED_EDGE ( 'NONE', *, *, #18, .F. ) ;
#85 = VECTOR ( 'NONE', #433, 1000.000000000000000 ) ;
#86 = LOCAL_TIME ( 15, 43, 13.00000000000000000, #108 ) ;
#87 = DIRECTION ( 'NONE',  ( 0.000000000000000000, 0.000000000000000000, 1.000000000000000000 ) ) ;
#88 = CARTESIAN_POINT ( 'NONE',  ( -38.00000000000000711, -44.00000000000001421, 1000.000000000000000 ) ) ;
#89 = CARTESIAN_POINT ( 'NONE',  ( -38.00000000000000711, -38.00000000000000711, 0.000000000000000000 ) ) ;
#90 = EDGE_CURVE ( 'NONE', #517, #480, #257, .T. ) ;
#91 = ORIENTED_EDGE ( 'NONE', *, *, #473, .T. ) ;
#92 = DIRECTION ( 'NONE',  ( 0.000000000000000000, 0.000000000000000000, 1.000000000000000000 ) ) ;
#93 = DIRECTION ( 'NONE',  ( 0.000000000000000000, 0.000000000000000000, 1.000000000000000000 ) ) ;
#94 = AXIS2_PLACEMENT_3D ( 'NONE', #89, #92, #97 ) ;
#95 = FACE_OUTER_BOUND ( 'NONE', #188, .T. ) ;
#96 = DIRECTION ( 'NONE',  ( -1.000000000000000000, 0.000000000000000000, 0.000000000000000000 ) ) ;
#97 = DIRECTION ( 'NONE',  ( -1.000000000000000000, 0.000000000000000000, 0.000000000000000000 ) ) ;
#98 = LINE ( 'NONE', #298, #624 ) ;
#99 = EDGE_CURVE ( 'NONE', #509, #506, #386, .T. ) ;
#100 = DIRECTION ( 'NONE',  ( -0.000000000000000000, -0.000000000000000000, -1.000000000000000000 ) ) ;
#101 = PLANE ( 'NONE',  #38 ) ;
#102 = EDGE_LOOP ( 'NONE', ( #554, #644, #3, #327 ) ) ;
#103 = AXIS2_PLACEMENT_3D ( 'NONE', #394, #47, #592 ) ;
#104 =( NAMED_UNIT ( * ) SI_UNIT ( $, .STERADIAN. ) SOLID_ANGLE_UNIT ( ) );
#105 = AXIS2_PLACEMENT_3D ( 'NONE', #249, #246, #642 ) ;
#106 = FACE_OUTER_BOUND ( 'NONE', #570, .T. ) ;
#107 = EDGE_LOOP ( 'NONE', ( #470, #628, #611, #492, #426, #582, #185, #233 ) ) ;
#108 = COORDINATED_UNIVERSAL_TIME_OFFSET ( 2, 0, .AHEAD. ) ;
#109 = CARTESIAN_POINT ( 'NONE',  ( -50.00000000000000000, 38.00000000000000000, 0.000000000000000000 ) ) ;
#110 = EDGE_CURVE ( 'NONE', #630, #57, #639, .T. ) ;
#111 = ORIENTED_EDGE ( 'NONE', *, *, #370, .T. ) ;
#112 = DATE_AND_TIME ( #419, #86 ) ;
#113 = DIRECTION ( 'NONE',  ( -0.000000000000000000, -0.000000000000000000, -1.000000000000000000 ) ) ;
#114 = EDGE_CURVE ( 'NONE', #336, #332, #353, .T. ) ;
#115 = ORIENTED_EDGE ( 'NONE', *, *, #549, .T. ) ;
#116 = DIRECTION ( 'NONE',  ( 1.000000000000000000, 0.000000000000000000, 0.000000000000000000 ) ) ;
#117 = AXIS2_PLACEMENT_3D ( 'NONE', #475, #27, #373 ) ;
#118 = ORIENTED_EDGE ( 'NONE', *, *, #242, .T. ) ;
#119 = PERSON_AND_ORGANIZATION ( #530, #456 ) ;
#120 = CARTESIAN_POINT ( 'NONE',  ( -44.00000000000000711, -38.00000000000000711, 1000.000000000000000 ) ) ;
#121 = ORIENTED_EDGE ( 'NONE', *, *, #566, .F. ) ;
#122 = EDGE_CURVE ( 'NONE', #459, #222, #445, .T. ) ;
#123 = FACE_OUTER_BOUND ( 'NONE', #26, .T. ) ;
#124 = ORIENTED_EDGE ( 'NONE', *, *, #514, .T. ) ;
#125 = DIRECTION ( 'NONE',  ( 9.130123557772667102E-17, -1.000000000000000000, -0.000000000000000000 ) ) ;
#126 = VERTEX_POINT ( 'NONE', #491 ) ;
#127 = AXIS2_PLACEMENT_3D ( 'NONE', #201, #335, #635 ) ;
#128 = LINE ( 'NONE', #25, #85 ) ;
#129 = EDGE_LOOP ( 'NONE', ( #348, #282, #121, #203, #432, #67, #296, #362 ) ) ;
#130 = ADVANCED_FACE ( 'NONE', ( #244 ), #594, .T. ) ;
#131 = DIRECTION ( 'NONE',  ( -1.000000000000000000, 0.000000000000000000, 0.000000000000000000 ) ) ;
#132 = ORIENTED_EDGE ( 'NONE', *, *, #518, .T. ) ;
#133 = CARTESIAN_POINT ( 'NONE',  ( -38.00000000000000711, -38.00000000000000711, 0.000000000000000000 ) ) ;
#134 = ORIENTED_EDGE ( 'NONE', *, *, #293, .F. ) ;
#135 = VECTOR ( 'NONE', #234, 1000.000000000000000 ) ;
#136 = CC_DESIGN_SECURITY_CLASSIFICATION ( #20, ( #576 ) ) ;
#137 = EDGE_CURVE ( 'NONE', #126, #517, #98, .T. ) ;
#138 = CARTESIAN_POINT ( 'NONE',  ( -44.00000000000000711, -38.00000000000000711, 1000.000000000000000 ) ) ;
#139 = ORIENTED_EDGE ( 'NONE', *, *, #451, .F. ) ;
#140 = DIRECTION ( 'NONE',  ( -1.000000000000000000, 0.000000000000000000, 0.000000000000000000 ) ) ;
#141 = DIRECTION ( 'NONE',  ( -1.000000000000000000, 0.000000000000000000, 0.000000000000000000 ) ) ;
#142 = CARTESIAN_POINT ( 'NONE',  ( -38.00000000000000711, -50.00000000000000711, 1000.000000000000000 ) ) ;
#143 = PLANE ( 'NONE',  #487 ) ;
#144 = CARTESIAN_POINT ( 'NONE',  ( -49.99999999999999289, -38.00000000000000711, 1000.000000000000000 ) ) ;
#145 = CARTESIAN_POINT ( 'NONE',  ( -38.00000000000000711, 38.00000000000000000, 1000.000000000000000 ) ) ;
#146 = EDGE_CURVE ( 'NONE', #607, #152, #477, .T. ) ;
#147 = LINE ( 'NONE', #490, #155 ) ;
#148 = CARTESIAN_POINT ( 'NONE',  ( -38.00000000000000711, -50.00000000000000711, 1000.000000000000000 ) ) ;
#149 = EDGE_LOOP ( 'NONE', ( #10, #53, #417, #74 ) ) ;
#150 = CARTESIAN_POINT ( 'NONE',  ( 0.000000000000000000, 0.000000000000000000, 0.000000000000000000 ) ) ;
#151 = DIRECTION ( 'NONE',  ( -1.000000000000000000, -9.130123557772669567E-17, 0.000000000000000000 ) ) ;
#152 = VERTEX_POINT ( 'NONE', #148 ) ;
#153 = EDGE_CURVE ( 'NONE', #607, #615, #548, .T. ) ;
#154 = PERSON_AND_ORGANIZATION ( #530, #456 ) ;
#155 = VECTOR ( 'NONE', #545, 1000.000000000000000 ) ;
#156 = CARTESIAN_POINT ( 'NONE',  ( -38.00000000000000711, 50.00000000000000000, 1000.000000000000000 ) ) ;
#157 = ORIENTED_EDGE ( 'NONE', *, *, #370, .F. ) ;
#158 = PERSON_AND_ORGANIZATION ( #530, #456 ) ;
#159 = CARTESIAN_POINT ( 'NONE',  ( 44.00000000000000711, 38.00000000000000711, 1000.000000000000000 ) ) ;
#160 = ORIENTED_EDGE ( 'NONE', *, *, #204, .T. ) ;
#161 = SECURITY_CLASSIFICATION_LEVEL ( 'unclassified' ) ;
#162 = FACE_OUTER_BOUND ( 'NONE', #262, .T. ) ;
#163 = ORIENTED_EDGE ( 'NONE', *, *, #469, .F. ) ;
#164 = APPROVAL_ROLE ( '' ) ;
#165 = AXIS2_PLACEMENT_3D ( 'NONE', #371, #264, #255 ) ;
#166 = LINE ( 'NONE', #561, #542 ) ;
#167 = CIRCLE ( 'NONE', #117, 12.00000000000001066 ) ;
#168 = VERTEX_POINT ( 'NONE', #109 ) ;
#169 = EDGE_CURVE ( 'NONE', #315, #302, #504, .T. ) ;
#170 = CARTESIAN_POINT ( 'NONE',  ( -44.00000000000000711, 38.00000000000000000, 0.000000000000000000 ) ) ;
#171 = ORIENTED_EDGE ( 'NONE', *, *, #174, .F. ) ;
#172 = DIRECTION ( 'NONE',  ( -0.000000000000000000, -0.000000000000000000, -1.000000000000000000 ) ) ;
#173 = ORIENTED_EDGE ( 'NONE', *, *, #182, .F. ) ;
#174 = EDGE_CURVE ( 'NONE', #450, #517, #602, .T. ) ;
#175 = CARTESIAN_POINT ( 'NONE',  ( 38.00000000000000711, 44.00000000000000711, 0.000000000000000000 ) ) ;
#176 = CIRCLE ( 'NONE', #397, 6.000000000000005329 ) ;
#177 = EDGE_LOOP ( 'NONE', ( #352, #81, #365, #442 ) ) ;
#178 = CIRCLE ( 'NONE', #94, 6.000000000000005329 ) ;
#179 = VECTOR ( 'NONE', #300, 1000.000000000000000 ) ;
#180 = LOCAL_TIME ( 15, 43, 13.00000000000000000, #415 ) ;
#181 = CARTESIAN_POINT ( 'NONE',  ( -38.00000000000000711, 50.00000000000000000, 1000.000000000000000 ) ) ;
#182 = EDGE_CURVE ( 'NONE', #57, #336, #516, .T. ) ;
#183 = ORIENTED_EDGE ( 'NONE', *, *, #405, .F. ) ;
#184 = CARTESIAN_POINT ( 'NONE',  ( -38.00000000000000711, 44.00000000000000000, 1000.000000000000000 ) ) ;
#185 = ORIENTED_EDGE ( 'NONE', *, *, #349, .T. ) ;
#186 = ADVANCED_FACE ( 'NONE', ( #162 ), #407, .F. ) ;
#187 = CARTESIAN_POINT ( 'NONE',  ( -38.00000000000000711, -44.00000000000001421, 0.000000000000000000 ) ) ;
#188 = EDGE_LOOP ( 'NONE', ( #462, #276, #78, #623 ) ) ;
#189 = VECTOR ( 'NONE', #194, 1000.000000000000000 ) ;
#190 = VECTOR ( 'NONE', #243, 1000.000000000000000 ) ;
#191 = LINE ( 'NONE', #390, #190 ) ;
#192 = PLANE ( 'NONE',  #292 ) ;
#193 = PLANE ( 'NONE',  #50 ) ;
#194 = DIRECTION ( 'NONE',  ( -0.000000000000000000, -0.000000000000000000, -1.000000000000000000 ) ) ;
#195 = DIRECTION ( 'NONE',  ( -0.000000000000000000, -0.000000000000000000, -1.000000000000000000 ) ) ;
#196 = ADVANCED_FACE ( 'NONE', ( #464 ), #260, .F. ) ;
#197 = FACE_BOUND ( 'NONE', #129, .T. ) ;
#198 = AXIS2_PLACEMENT_3D ( 'NONE', #649, #400, #597 ) ;
#199 = CARTESIAN_POINT ( 'NONE',  ( 38.00000000000000711, 50.00000000000000000, 0.000000000000000000 ) ) ;
#200 = FACE_BOUND ( 'NONE', #107, .T. ) ;
#201 = CARTESIAN_POINT ( 'NONE',  ( -38.00000000000000711, 38.00000000000000000, 0.000000000000000000 ) ) ;
#202 = CARTESIAN_POINT ( 'NONE',  ( -38.00000000000000711, -38.00000000000000711, 0.000000000000000000 ) ) ;
#203 = ORIENTED_EDGE ( 'NONE', *, *, #444, .F. ) ;
#204 = EDGE_CURVE ( 'NONE', #126, #273, #17, .T. ) ;
#205 = APPROVAL_DATE_TIME ( #59, #641 ) ;
#206 = CARTESIAN_POINT ( 'NONE',  ( 44.00000000000000711, -38.00000000000000711, 0.000000000000000000 ) ) ;
#207 = DATE_TIME_ROLE ( 'creation_date' ) ;
#208 = VECTOR ( 'NONE', #431, 1000.000000000000000 ) ;
#209 = FACE_OUTER_BOUND ( 'NONE', #149, .T. ) ;
#210 = ORIENTED_EDGE ( 'NONE', *, *, #64, .T. ) ;
#211 = MECHANICAL_CONTEXT ( 'NONE', #559, 'mechanical' ) ;
#212 = DIRECTION ( 'NONE',  ( 0.000000000000000000, 0.000000000000000000, 1.000000000000000000 ) ) ;
#213 = EDGE_LOOP ( 'NONE', ( #358, #325, #91, #580 ) ) ;
#214 = DESIGN_CONTEXT ( 'detailed design', #41, 'design' ) ;
#215 = CARTESIAN_POINT ( 'NONE',  ( -49.99999999999999289, -38.00000000000000711, 1000.000000000000000 ) ) ;
#216 = EDGE_LOOP ( 'NONE', ( #173, #71, #422, #520 ) ) ;
#217 =( NAMED_UNIT ( * ) PLANE_ANGLE_UNIT ( ) SI_UNIT ( $, .RADIAN. ) );
#218 = CLOSED_SHELL ( 'NONE', ( #69, #58, #236, #544, #299, #251, #361, #196, #130, #319, #591, #34, #637, #30, #186, #225, #503, #338 ) ) ;
#219 = CARTESIAN_POINT ( 'NONE',  ( -38.00000000000000711, -50.00000000000000711, 0.000000000000000000 ) ) ;
#220 = AXIS2_PLACEMENT_3D ( 'NONE', #486, #650, #588 ) ;
#221 = CC_DESIGN_DATE_AND_TIME_ASSIGNMENT ( #277, #231, ( #20 ) ) ;
#222 = VERTEX_POINT ( 'NONE', #606 ) ;
#223 = DIRECTION ( 'NONE',  ( -0.000000000000000000, -0.000000000000000000, -1.000000000000000000 ) ) ;
#224 = ORIENTED_EDGE ( 'NONE', *, *, #122, .T. ) ;
#225 = ADVANCED_FACE ( 'NONE', ( #5 ), #54, .T. ) ;
#226 = DIRECTION ( 'NONE',  ( 0.000000000000000000, 0.000000000000000000, 1.000000000000000000 ) ) ;
#227 = ORIENTED_EDGE ( 'NONE', *, *, #274, .T. ) ;
#228 = CARTESIAN_POINT ( 'NONE',  ( 37.99999999999999289, -50.00000000000000711, 0.000000000000000000 ) ) ;
#229 = VERTEX_POINT ( 'NONE', #159 ) ;
#230 = VECTOR ( 'NONE', #116, 1000.000000000000000 ) ;
#231 = DATE_TIME_ROLE ( 'classification_date' ) ;
#232 = DIRECTION ( 'NONE',  ( 1.000000000000000000, 0.000000000000000000, 0.000000000000000000 ) ) ;
#233 = ORIENTED_EDGE ( 'NONE', *, *, #381, .T. ) ;
#234 = DIRECTION ( 'NONE',  ( -0.000000000000000000, -0.000000000000000000, -1.000000000000000000 ) ) ;
#235 = ORIENTED_EDGE ( 'NONE', *, *, #428, .F. ) ;
#236 = ADVANCED_FACE ( 'NONE', ( #563 ), #252, .T. ) ;
#237 = DIRECTION ( 'NONE',  ( -0.000000000000000000, -0.000000000000000000, -1.000000000000000000 ) ) ;
#238 = LINE ( 'NONE', #391, #583 ) ;
#239 = AXIS2_PLACEMENT_3D ( 'NONE', #496, #68, #65 ) ;
#240 = CARTESIAN_POINT ( 'NONE',  ( -38.00000000000000711, -38.00000000000000711, 1000.000000000000000 ) ) ;
#241 = DIRECTION ( 'NONE',  ( -0.000000000000000000, 0.000000000000000000, -1.000000000000000000 ) ) ;
#242 = EDGE_CURVE ( 'NONE', #621, #380, #617, .T. ) ;
#243 = DIRECTION ( 'NONE',  ( -0.000000000000000000, -0.000000000000000000, -1.000000000000000000 ) ) ;
#244 = FACE_OUTER_BOUND ( 'NONE', #513, .T. ) ;
#245 = ORIENTED_EDGE ( 'NONE', *, *, #444, .T. ) ;
#246 = DIRECTION ( 'NONE',  ( -0.000000000000000000, -0.000000000000000000, -1.000000000000000000 ) ) ;
#247 = DIRECTION ( 'NONE',  ( 0.000000000000000000, 0.000000000000000000, 1.000000000000000000 ) ) ;
#248 = CIRCLE ( 'NONE', #478, 6.000000000000005329 ) ;
#249 = CARTESIAN_POINT ( 'NONE',  ( -38.00000000000000711, 38.00000000000000000, 1000.000000000000000 ) ) ;
#250 = DIRECTION ( 'NONE',  ( -1.000000000000000000, 0.000000000000000000, 0.000000000000000000 ) ) ;
#251 = ADVANCED_FACE ( 'NONE', ( #209 ), #613, .F. ) ;
#252 = CYLINDRICAL_SURFACE ( 'NONE', #584, 11.99999999999999645 ) ;
#253 = VERTEX_POINT ( 'NONE', #170 ) ;
#254 = DIRECTION ( 'NONE',  ( 0.000000000000000000, 0.000000000000000000, 1.000000000000000000 ) ) ;
#255 = DIRECTION ( 'NONE',  ( -1.000000000000000000, 0.000000000000000000, 0.000000000000000000 ) ) ;
#256 = EDGE_LOOP ( 'NONE', ( #286, #578, #318, #411 ) ) ;
#257 = CIRCLE ( 'NONE', #375, 11.99999999999999645 ) ;
#258 = AXIS2_PLACEMENT_3D ( 'NONE', #376, #481, #572 ) ;
#259 = PERSON_AND_ORGANIZATION ( #530, #456 ) ;
#260 = PLANE ( 'NONE',  #303 ) ;
#261 = CC_DESIGN_APPROVAL ( #641, ( #392 ) ) ;
#262 = EDGE_LOOP ( 'NONE', ( #558, #45, #537, #111 ) ) ;
#263 = APPROVAL_STATUS ( 'not_yet_approved' ) ;
#264 = DIRECTION ( 'NONE',  ( -0.000000000000000000, -0.000000000000000000, -1.000000000000000000 ) ) ;
#265 = ORIENTED_EDGE ( 'NONE', *, *, #401, .F. ) ;
#266 = DATE_AND_TIME ( #409, #355 ) ;
#267 = CARTESIAN_POINT ( 'NONE',  ( -38.00000000000000711, -50.00000000000000711, 1000.000000000000000 ) ) ;
#268 = ORIENTED_EDGE ( 'NONE', *, *, #242, .F. ) ;
#269 = DATE_AND_TIME ( #79, #343 ) ;
#270 = VECTOR ( 'NONE', #56, 1000.000000000000000 ) ;
#271 = DIRECTION ( 'NONE',  ( -0.000000000000000000, -0.000000000000000000, -1.000000000000000000 ) ) ;
#272 = VECTOR ( 'NONE', #42, 1000.000000000000000 ) ;
#273 = VERTEX_POINT ( 'NONE', #13 ) ;
#274 = EDGE_CURVE ( 'NONE', #152, #621, #320, .T. ) ;
#275 = DIRECTION ( 'NONE',  ( 0.000000000000000000, 0.000000000000000000, 1.000000000000000000 ) ) ;
#276 = ORIENTED_EDGE ( 'NONE', *, *, #122, .F. ) ;
#277 = DATE_AND_TIME ( #463, #180 ) ;
#278 = LINE ( 'NONE', #21, #29 ) ;
#279 = ORIENTED_EDGE ( 'NONE', *, *, #305, .T. ) ;
#280 = LINE ( 'NONE', #525, #333 ) ;
#281 = ADVANCED_BREP_SHAPE_REPRESENTATION ( 'Square - 100.0 X 100.0 X 6.00', ( #645, #377 ), #575 ) ;
#282 = ORIENTED_EDGE ( 'NONE', *, *, #169, .F. ) ;
#283 = CIRCLE ( 'NONE', #239, 5.999999999999998224 ) ;
#284 = EDGE_CURVE ( 'NONE', #315, #253, #166, .T. ) ;
#285 = CYLINDRICAL_SURFACE ( 'NONE', #313, 11.99999999999999645 ) ;
#286 = ORIENTED_EDGE ( 'NONE', *, *, #90, .T. ) ;
#287 = CYLINDRICAL_SURFACE ( 'NONE', #437, 6.000000000000005329 ) ;
#288 = CC_DESIGN_PERSON_AND_ORGANIZATION_ASSIGNMENT ( #154, #1, ( #500 ) ) ;
#289 = ORIENTED_EDGE ( 'NONE', *, *, #305, .F. ) ;
#290 = CARTESIAN_POINT ( 'NONE',  ( -38.00000000000000711, 50.00000000000000000, 1000.000000000000000 ) ) ;
#291 = FACE_OUTER_BOUND ( 'NONE', #216, .T. ) ;
#292 = AXIS2_PLACEMENT_3D ( 'NONE', #202, #347, #250 ) ;
#293 = EDGE_CURVE ( 'NONE', #253, #16, #458, .T. ) ;
#294 = LINE ( 'NONE', #39, #61 ) ;
#295 = DIRECTION ( 'NONE',  ( -0.000000000000000000, -0.000000000000000000, -1.000000000000000000 ) ) ;
#296 = ORIENTED_EDGE ( 'NONE', *, *, #312, .F. ) ;
#297 = DIRECTION ( 'NONE',  ( -1.000000000000000000, 0.000000000000000000, 0.000000000000000000 ) ) ;
#298 = CARTESIAN_POINT ( 'NONE',  ( 50.00000000000000000, 38.00000000000000711, 1000.000000000000000 ) ) ;
#299 = ADVANCED_FACE ( 'NONE', ( #123 ), #609, .T. ) ;
#300 = DIRECTION ( 'NONE',  ( 0.000000000000000000, 1.000000000000000000, 0.000000000000000000 ) ) ;
#301 = DIRECTION ( 'NONE',  ( -1.000000000000000000, -0.000000000000000000, -0.000000000000000000 ) ) ;
#302 = VERTEX_POINT ( 'NONE', #120 ) ;
#303 = AXIS2_PLACEMENT_3D ( 'NONE', #156, #364, #453 ) ;
#304 = VECTOR ( 'NONE', #360, 1000.000000000000000 ) ;
#305 = EDGE_CURVE ( 'NONE', #168, #615, #421, .T. ) ;
#306 = PLANE ( 'NONE',  #574 ) ;
#307 = DIRECTION ( 'NONE',  ( -0.000000000000000000, -0.000000000000000000, -1.000000000000000000 ) ) ;
#308 = VERTEX_POINT ( 'NONE', #534 ) ;
#309 = PERSON_AND_ORGANIZATION_ROLE ( 'creator' ) ;
#310 = CARTESIAN_POINT ( 'NONE',  ( -44.00000000000000711, -38.00000000000000711, 1000.000000000000000 ) ) ;
#311 = ORIENTED_EDGE ( 'NONE', *, *, #595, .F. ) ;
#312 = EDGE_CURVE ( 'NONE', #387, #630, #398, .T. ) ;
#313 = AXIS2_PLACEMENT_3D ( 'NONE', #80, #271, #131 ) ;
#314 = CARTESIAN_POINT ( 'NONE',  ( 37.99999999999999289, -38.00000000000000711, 1000.000000000000000 ) ) ;
#315 = VERTEX_POINT ( 'NONE', #622 ) ;
#316 = APPROVAL ( #474, 'UNSPECIFIED' ) ;
#317 = CARTESIAN_POINT ( 'NONE',  ( -38.00000000000000711, -38.00000000000000711, 1000.000000000000000 ) ) ;
#318 = ORIENTED_EDGE ( 'NONE', *, *, #204, .F. ) ;
#319 = ADVANCED_FACE ( 'NONE', ( #627 ), #322, .F. ) ;
#320 = LINE ( 'NONE', #267, #304 ) ;
#321 = EDGE_LOOP ( 'NONE', ( #640, #618, #454, #499 ) ) ;
#322 = PLANE ( 'NONE',  #258 ) ;
#323 = EDGE_LOOP ( 'NONE', ( #465, #183, #124, #63 ) ) ;
#324 = CARTESIAN_POINT ( 'NONE',  ( 44.00000000000000711, 38.00000000000000711, 0.000000000000000000 ) ) ;
#325 = ORIENTED_EDGE ( 'NONE', *, *, #571, .F. ) ;
#326 = LINE ( 'NONE', #528, #208 ) ;
#327 = ORIENTED_EDGE ( 'NONE', *, *, #110, .T. ) ;
#328 = EDGE_CURVE ( 'NONE', #378, #28, #522, .T. ) ;
#329 = PERSON_AND_ORGANIZATION ( #530, #456 ) ;
#330 = CARTESIAN_POINT ( 'NONE',  ( 50.00000000000000000, -38.00000000000000711, 0.000000000000000000 ) ) ;
#331 = AXIS2_PLACEMENT_3D ( 'NONE', #396, #341, #441 ) ;
#332 = VERTEX_POINT ( 'NONE', #175 ) ;
#333 = VECTOR ( 'NONE', #425, 1000.000000000000000 ) ;
#334 = CC_DESIGN_PERSON_AND_ORGANIZATION_ASSIGNMENT ( #158, #309, ( #576 ) ) ;
#335 = DIRECTION ( 'NONE',  ( 0.000000000000000000, 0.000000000000000000, 1.000000000000000000 ) ) ;
#336 = VERTEX_POINT ( 'NONE', #324 ) ;
#337 = DIRECTION ( 'NONE',  ( -0.000000000000000000, -0.000000000000000000, -1.000000000000000000 ) ) ;
#338 = ADVANCED_FACE ( 'NONE', ( #631 ), #77, .T. ) ;
#339 = CARTESIAN_POINT ( 'NONE',  ( 37.99999999999999289, -38.00000000000000711, 1000.000000000000000 ) ) ;
#340 = DIRECTION ( 'NONE',  ( -1.000000000000000000, 0.000000000000000000, 0.000000000000000000 ) ) ;
#341 = DIRECTION ( 'NONE',  ( 0.000000000000000000, 0.000000000000000000, 1.000000000000000000 ) ) ;
#342 = VECTOR ( 'NONE', #440, 1000.000000000000000 ) ;
#343 = LOCAL_TIME ( 15, 43, 13.00000000000000000, #23 ) ;
#344 = LINE ( 'NONE', #647, #179 ) ;
#345 = DIRECTION ( 'NONE',  ( -0.000000000000000000, -0.000000000000000000, -1.000000000000000000 ) ) ;
#346 = CARTESIAN_POINT ( 'NONE',  ( -49.99999999999999289, -38.00000000000000711, 0.000000000000000000 ) ) ;
#347 = DIRECTION ( 'NONE',  ( -0.000000000000000000, 0.000000000000000000, -1.000000000000000000 ) ) ;
#348 = ORIENTED_EDGE ( 'NONE', *, *, #514, .F. ) ;
#349 = EDGE_CURVE ( 'NONE', #332, #222, #423, .T. ) ;
#350 = DIRECTION ( 'NONE',  ( 1.000000000000000000, 0.000000000000000000, 0.000000000000000000 ) ) ;
#351 = DIRECTION ( 'NONE',  ( -9.130123557772669567E-17, 1.000000000000000000, 0.000000000000000000 ) ) ;
#352 = ORIENTED_EDGE ( 'NONE', *, *, #469, .T. ) ;
#353 = CIRCLE ( 'NONE', #103, 5.999999999999998224 ) ;
#354 = CIRCLE ( 'NONE', #521, 11.99999999999999645 ) ;
#355 = LOCAL_TIME ( 15, 43, 13.00000000000000000, #608 ) ;
#356 = APPROVAL_STATUS ( 'not_yet_approved' ) ;
#357 = DIRECTION ( 'NONE',  ( -0.000000000000000000, -0.000000000000000000, -1.000000000000000000 ) ) ;
#358 = ORIENTED_EDGE ( 'NONE', *, *, #389, .F. ) ;
#359 = FACE_OUTER_BOUND ( 'NONE', #102, .T. ) ;
#360 = DIRECTION ( 'NONE',  ( -0.000000000000000000, -0.000000000000000000, -1.000000000000000000 ) ) ;
#361 = ADVANCED_FACE ( 'NONE', ( #33 ), #285, .T. ) ;
#362 = ORIENTED_EDGE ( 'NONE', *, *, #473, .F. ) ;
#363 = PERSON_AND_ORGANIZATION ( #530, #456 ) ;
#364 = DIRECTION ( 'NONE',  ( 0.000000000000000000, -1.000000000000000000, 0.000000000000000000 ) ) ;
#365 = ORIENTED_EDGE ( 'NONE', *, *, #146, .F. ) ;
#366 = AXIS2_PLACEMENT_3D ( 'NONE', #461, #15, #212 ) ;
#367 = DIRECTION ( 'NONE',  ( -0.000000000000000000, -0.000000000000000000, -1.000000000000000000 ) ) ;
#368 = DIRECTION ( 'NONE',  ( -1.000000000000000000, 0.000000000000000000, 0.000000000000000000 ) ) ;
#369 = ORIENTED_EDGE ( 'NONE', *, *, #524, .F. ) ;
#370 = EDGE_CURVE ( 'NONE', #485, #332, #128, .T. ) ;
#371 = CARTESIAN_POINT ( 'NONE',  ( 38.00000000000000711, 38.00000000000000711, 1000.000000000000000 ) ) ;
#372 = EDGE_LOOP ( 'NONE', ( #134, #374, #601, #476 ) ) ;
#373 = DIRECTION ( 'NONE',  ( 1.000000000000000000, 0.000000000000000000, 0.000000000000000000 ) ) ;
#374 = ORIENTED_EDGE ( 'NONE', *, *, #284, .F. ) ;
#375 = AXIS2_PLACEMENT_3D ( 'NONE', #439, #247, #141 ) ;
#376 = CARTESIAN_POINT ( 'NONE',  ( -49.99999999999999289, -38.00000000000000711, 1000.000000000000000 ) ) ;
#377 = AXIS2_PLACEMENT_3D ( 'NONE', #150, #254, #350 ) ;
#378 = VERTEX_POINT ( 'NONE', #73 ) ;
#379 = CARTESIAN_POINT ( 'NONE',  ( -38.00000000000000711, -50.00000000000000711, 1000.000000000000000 ) ) ;
#380 = VERTEX_POINT ( 'NONE', #228 ) ;
#381 = EDGE_CURVE ( 'NONE', #222, #253, #625, .T. ) ;
#382 = APPROVAL_DATE_TIME ( #269, #316 ) ;
#383 = DIRECTION ( 'NONE',  ( -1.000000000000000000, -9.130123557772667102E-17, -0.000000000000000000 ) ) ;
#384 = ORIENTED_EDGE ( 'NONE', *, *, #401, .T. ) ;
#385 = CARTESIAN_POINT ( 'NONE',  ( 37.99999999999999289, -44.00000000000001421, 1000.000000000000000 ) ) ;
#386 = CIRCLE ( 'NONE', #466, 12.00000000000001066 ) ;
#387 = VERTEX_POINT ( 'NONE', #385 ) ;
#388 = AXIS2_PLACEMENT_3D ( 'NONE', #138, #577, #585 ) ;
#389 = EDGE_CURVE ( 'NONE', #430, #308, #280, .T. ) ;
#390 = CARTESIAN_POINT ( 'NONE',  ( 38.00000000000000711, 50.00000000000000000, 1000.000000000000000 ) ) ;
#391 = CARTESIAN_POINT ( 'NONE',  ( 44.00000000000000711, -38.00000000000000711, 1000.000000000000000 ) ) ;
#392 = PRODUCT_DEFINITION ( 'UNKNOWN', '', #576, #214 ) ;
#393 = CARTESIAN_POINT ( 'NONE',  ( -38.00000000000000711, -38.00000000000000711, 1000.000000000000000 ) ) ;
#394 = CARTESIAN_POINT ( 'NONE',  ( 38.00000000000000711, 38.00000000000000711, 0.000000000000000000 ) ) ;
#395 = DIRECTION ( 'NONE',  ( 9.130123557772667102E-17, -1.000000000000000000, -0.000000000000000000 ) ) ;
#396 = CARTESIAN_POINT ( 'NONE',  ( -38.00000000000000711, 38.00000000000000000, 1000.000000000000000 ) ) ;
#397 = AXIS2_PLACEMENT_3D ( 'NONE', #636, #93, #502 ) ;
#398 = CIRCLE ( 'NONE', #19, 6.000000000000005329 ) ;
#399 = LINE ( 'NONE', #590, #76 ) ;
#400 = DIRECTION ( 'NONE',  ( 0.000000000000000000, 0.000000000000000000, 1.000000000000000000 ) ) ;
#401 = EDGE_CURVE ( 'NONE', #509, #380, #471, .T. ) ;
#402 = CARTESIAN_POINT ( 'NONE',  ( -49.99999999999999289, -38.00000000000000711, 1000.000000000000000 ) ) ;
#403 = DIRECTION ( 'NONE',  ( 0.000000000000000000, 1.000000000000000000, 0.000000000000000000 ) ) ;
#404 = ORIENTED_EDGE ( 'NONE', *, *, #99, .T. ) ;
#405 = EDGE_CURVE ( 'NONE', #302, #16, #278, .T. ) ;
#406 = PERSON_AND_ORGANIZATION_ROLE ( 'creator' ) ;
#407 = CYLINDRICAL_SURFACE ( 'NONE', #165, 5.999999999999998224 ) ;
#408 = VECTOR ( 'NONE', #337, 1000.000000000000000 ) ;
#409 = CALENDAR_DATE ( 2026, 16, 4 ) ;
#410 = DIRECTION ( 'NONE',  ( -0.000000000000000000, -1.000000000000000000, -0.000000000000000000 ) ) ;
#411 = ORIENTED_EDGE ( 'NONE', *, *, #137, .T. ) ;
#412 = PERSON_AND_ORGANIZATION_ROLE ( 'design_supplier' ) ;
#413 = CARTESIAN_POINT ( 'NONE',  ( -44.00000000000000711, -38.00000000000000711, 0.000000000000000000 ) ) ;
#414 = EDGE_LOOP ( 'NONE', ( #279, #472, #311, #7 ) ) ;
#415 = COORDINATED_UNIVERSAL_TIME_OFFSET ( 2, 0, .AHEAD. ) ;
#416 = DIRECTION ( 'NONE',  ( -1.000000000000000000, 0.000000000000000000, 0.000000000000000000 ) ) ;
#417 = ORIENTED_EDGE ( 'NONE', *, *, #549, .F. ) ;
#418 = CIRCLE ( 'NONE', #127, 11.99999999999999645 ) ;
#419 = CALENDAR_DATE ( 2026, 16, 4 ) ;
#420 = CC_DESIGN_APPROVAL ( #316, ( #20 ) ) ;
#421 = LINE ( 'NONE', #569, #6 ) ;
#422 = ORIENTED_EDGE ( 'NONE', *, *, #82, .T. ) ;
#423 = LINE ( 'NONE', #519, #648 ) ;
#424 = ORIENTED_EDGE ( 'NONE', *, *, #428, .T. ) ;
#425 = DIRECTION ( 'NONE',  ( 1.000000000000000000, 9.130123557772669567E-17, 0.000000000000000000 ) ) ;
#426 = ORIENTED_EDGE ( 'NONE', *, *, #182, .T. ) ;
#427 = VECTOR ( 'NONE', #395, 1000.000000000000000 ) ;
#428 = EDGE_CURVE ( 'NONE', #380, #450, #167, .T. ) ;
#429 = LINE ( 'NONE', #379, #565 ) ;
#430 = VERTEX_POINT ( 'NONE', #187 ) ;
#431 = DIRECTION ( 'NONE',  ( -1.000000000000000000, -9.130123557772667102E-17, -0.000000000000000000 ) ) ;
#432 = ORIENTED_EDGE ( 'NONE', *, *, #619, .F. ) ;
#433 = DIRECTION ( 'NONE',  ( -0.000000000000000000, -0.000000000000000000, -1.000000000000000000 ) ) ;
#434 = CARTESIAN_POINT ( 'NONE',  ( -38.00000000000000711, 50.00000000000000000, 0.000000000000000000 ) ) ;
#435 = EDGE_CURVE ( 'NONE', #152, #509, #429, .T. ) ;
#436 = LINE ( 'NONE', #547, #342 ) ;
#437 = AXIS2_PLACEMENT_3D ( 'NONE', #393, #237, #340 ) ;
#438 = CARTESIAN_POINT ( 'NONE',  ( -50.00000000000000000, 38.00000000000000000, 1000.000000000000000 ) ) ;
#439 = CARTESIAN_POINT ( 'NONE',  ( 38.00000000000000711, 38.00000000000000711, 0.000000000000000000 ) ) ;
#440 = DIRECTION ( 'NONE',  ( 1.000000000000000000, 9.130123557772669567E-17, 0.000000000000000000 ) ) ;
#441 = DIRECTION ( 'NONE',  ( -1.000000000000000000, 0.000000000000000000, 0.000000000000000000 ) ) ;
#442 = ORIENTED_EDGE ( 'NONE', *, *, #153, .T. ) ;
#443 = LINE ( 'NONE', #438, #408 ) ;
#444 = EDGE_CURVE ( 'NONE', #485, #459, #326, .T. ) ;
#445 = LINE ( 'NONE', #543, #552 ) ;
#446 = AXIS2_PLACEMENT_3D ( 'NONE', #468, #226, #620 ) ;
#447 = DIRECTION ( 'NONE',  ( 0.000000000000000000, 1.000000000000000000, 0.000000000000000000 ) ) ;
#448 = DIRECTION ( 'NONE',  ( 0.000000000000000000, 0.000000000000000000, 1.000000000000000000 ) ) ;
#449 = DIRECTION ( 'NONE',  ( 0.000000000000000000, 1.000000000000000000, 0.000000000000000000 ) ) ;
#450 = VERTEX_POINT ( 'NONE', #330 ) ;
#451 = EDGE_CURVE ( 'NONE', #506, #450, #83, .T. ) ;
#452 = PERSON_AND_ORGANIZATION ( #530, #456 ) ;
#453 = DIRECTION ( 'NONE',  ( 0.000000000000000000, -0.000000000000000000, -1.000000000000000000 ) ) ;
#454 = ORIENTED_EDGE ( 'NONE', *, *, #518, .F. ) ;
#455 = AXIS2_PLACEMENT_3D ( 'NONE', #314, #512, #368 ) ;
#456 = ORGANIZATION ( 'UNSPECIFIED', 'UNSPECIFIED', '' ) ;
#457 =( LENGTH_UNIT ( ) NAMED_UNIT ( * ) SI_UNIT ( .MILLI., .METRE. ) );
#458 = LINE ( 'NONE', #413, #498 ) ;
#459 = VERTEX_POINT ( 'NONE', #184 ) ;
#460 = PERSON_AND_ORGANIZATION_ROLE ( 'classification_officer' ) ;
#461 = CARTESIAN_POINT ( 'NONE',  ( 50.00000000000000000, -38.00000000000000711, 1000.000000000000000 ) ) ;
#462 = ORIENTED_EDGE ( 'NONE', *, *, #381, .F. ) ;
#463 = CALENDAR_DATE ( 2026, 16, 4 ) ;
#464 = FACE_OUTER_BOUND ( 'NONE', #321, .T. ) ;
#465 = ORIENTED_EDGE ( 'NONE', *, *, #493, .F. ) ;
#466 = AXIS2_PLACEMENT_3D ( 'NONE', #339, #589, #539 ) ;
#467 = LOCAL_TIME ( 15, 43, 13.00000000000000000, #4 ) ;
#468 = CARTESIAN_POINT ( 'NONE',  ( -38.00000000000000711, 38.00000000000000000, 0.000000000000000000 ) ) ;
#469 = EDGE_CURVE ( 'NONE', #615, #621, #354, .T. ) ;
#470 = ORIENTED_EDGE ( 'NONE', *, *, #293, .T. ) ;
#471 = LINE ( 'NONE', #581, #553 ) ;
#472 = ORIENTED_EDGE ( 'NONE', *, *, #153, .F. ) ;
#473 = EDGE_CURVE ( 'NONE', #14, #387, #436, .T. ) ;
#474 = APPROVAL_STATUS ( 'not_yet_approved' ) ;
#475 = CARTESIAN_POINT ( 'NONE',  ( 37.99999999999999289, -38.00000000000000711, 0.000000000000000000 ) ) ;
#476 = ORIENTED_EDGE ( 'NONE', *, *, #405, .T. ) ;
#477 = CIRCLE ( 'NONE', #198, 11.99999999999999645 ) ;
#478 = AXIS2_PLACEMENT_3D ( 'NONE', #240, #541, #297 ) ;
#479 = CARTESIAN_POINT ( 'NONE',  ( 50.00000000000000000, -38.00000000000000711, 1000.000000000000000 ) ) ;
#480 = VERTEX_POINT ( 'NONE', #199 ) ;
#481 = DIRECTION ( 'NONE',  ( 1.000000000000000000, 9.130123557772667102E-17, -0.000000000000000000 ) ) ;
#482 = EDGE_CURVE ( 'NONE', #387, #308, #399, .T. ) ;
#483 = CARTESIAN_POINT ( 'NONE',  ( -44.00000000000000711, -38.00000000000000711, 0.000000000000000000 ) ) ;
#484 = CARTESIAN_POINT ( 'NONE',  ( 37.99999999999999289, -50.00000000000000711, 1000.000000000000000 ) ) ;
#485 = VERTEX_POINT ( 'NONE', #638 ) ;
#486 = CARTESIAN_POINT ( 'NONE',  ( -38.00000000000000711, 38.00000000000000000, 1000.000000000000000 ) ) ;
#487 = AXIS2_PLACEMENT_3D ( 'NONE', #40, #241, #96 ) ;
#488 = CARTESIAN_POINT ( 'NONE',  ( -38.00000000000000711, -44.00000000000001421, 1000.000000000000000 ) ) ;
#489 = APPROVAL_PERSON_ORGANIZATION ( #329, #316, #72 ) ;
#490 = CARTESIAN_POINT ( 'NONE',  ( 44.00000000000000711, 38.00000000000000711, 1000.000000000000000 ) ) ;
#491 = CARTESIAN_POINT ( 'NONE',  ( 50.00000000000000000, 38.00000000000000711, 1000.000000000000000 ) ) ;
#492 = ORIENTED_EDGE ( 'NONE', *, *, #51, .T. ) ;
#493 = EDGE_CURVE ( 'NONE', #16, #430, #178, .T. ) ;
#494 = LINE ( 'NONE', #290, #272 ) ;
#495 = DIRECTION ( 'NONE',  ( -0.000000000000000000, -0.000000000000000000, -1.000000000000000000 ) ) ;
#496 = CARTESIAN_POINT ( 'NONE',  ( 38.00000000000000711, 38.00000000000000711, 1000.000000000000000 ) ) ;
#497 = CARTESIAN_POINT ( 'NONE',  ( 44.00000000000000711, -38.00000000000000711, 1000.000000000000000 ) ) ;
#498 = VECTOR ( 'NONE', #410, 1000.000000000000000 ) ;
#499 = ORIENTED_EDGE ( 'NONE', *, *, #598, .T. ) ;
#500 = PRODUCT ( 'Square - 100.0 X 100.0 X 6.00', 'Square - 100.0 X 100.0 X 6.00', '', ( #211 ) ) ;
#501 = CARTESIAN_POINT ( 'NONE',  ( 37.99999999999999289, -38.00000000000000711, 1000.000000000000000 ) ) ;
#502 = DIRECTION ( 'NONE',  ( 1.000000000000000000, 0.000000000000000000, 0.000000000000000000 ) ) ;
#503 = ADVANCED_FACE ( 'NONE', ( #95 ), #599, .F. ) ;
#504 = LINE ( 'NONE', #310, #532 ) ;
#505 = CC_DESIGN_DATE_AND_TIME_ASSIGNMENT ( #112, #207, ( #392 ) ) ;
#506 = VERTEX_POINT ( 'NONE', #46 ) ;
#507 = PERSON_AND_ORGANIZATION ( #530, #456 ) ;
#508 = CARTESIAN_POINT ( 'NONE',  ( 50.00000000000000000, -38.00000000000000711, 0.000000000000000000 ) ) ;
#509 = VERTEX_POINT ( 'NONE', #484 ) ;
#510 = AXIS2_PLACEMENT_3D ( 'NONE', #501, #367, #560 ) ;
#511 = APPLICATION_PROTOCOL_DEFINITION ( 'international standard', 'config_control_design', 1994, #41 ) ;
#512 = DIRECTION ( 'NONE',  ( -0.000000000000000000, -0.000000000000000000, -1.000000000000000000 ) ) ;
#513 = EDGE_LOOP ( 'NONE', ( #568, #369, #37, #564 ) ) ;
#514 = EDGE_CURVE ( 'NONE', #302, #14, #248, .T. ) ;
#515 = CALENDAR_DATE ( 2026, 16, 4 ) ;
#516 = LINE ( 'NONE', #206, #270 ) ;
#517 = VERTEX_POINT ( 'NONE', #49 ) ;
#518 = EDGE_CURVE ( 'NONE', #273, #378, #494, .T. ) ;
#519 = CARTESIAN_POINT ( 'NONE',  ( -38.00000000000000711, 44.00000000000000000, 0.000000000000000000 ) ) ;
#520 = ORIENTED_EDGE ( 'NONE', *, *, #610, .T. ) ;
#521 = AXIS2_PLACEMENT_3D ( 'NONE', #133, #87, #140 ) ;
#522 = LINE ( 'NONE', #181, #135 ) ;
#523 = EDGE_LOOP ( 'NONE', ( #163, #289, #632, #84, #535, #171, #235, #268 ) ) ;
#524 = EDGE_CURVE ( 'NONE', #562, #168, #443, .T. ) ;
#525 = CARTESIAN_POINT ( 'NONE',  ( -38.00000000000000711, -44.00000000000001421, 0.000000000000000000 ) ) ;
#526 = ORIENTED_EDGE ( 'NONE', *, *, #146, .T. ) ;
#527 = PRODUCT_RELATED_PRODUCT_CATEGORY ( 'detail', '', ( #500 ) ) ;
#528 = CARTESIAN_POINT ( 'NONE',  ( -38.00000000000000711, 44.00000000000000000, 1000.000000000000000 ) ) ;
#529 = ORIENTED_EDGE ( 'NONE', *, *, #99, .F. ) ;
#530 = PERSON ( 'UNSPECIFIED', 'UNSPECIFIED', 'UNSPECIFIED', ('UNSPECIFIED'), ('UNSPECIFIED'), ('UNSPECIFIED') ) ;
#531 = SHAPE_DEFINITION_REPRESENTATION ( #24, #281 ) ;
#532 = VECTOR ( 'NONE', #9, 1000.000000000000000 ) ;
#533 = VECTOR ( 'NONE', #31, 1000.000000000000000 ) ;
#534 = CARTESIAN_POINT ( 'NONE',  ( 37.99999999999999289, -44.00000000000001421, 0.000000000000000000 ) ) ;
#535 = ORIENTED_EDGE ( 'NONE', *, *, #90, .F. ) ;
#536 = FACE_OUTER_BOUND ( 'NONE', #323, .T. ) ;
#537 = ORIENTED_EDGE ( 'NONE', *, *, #619, .T. ) ;
#538 = FACE_OUTER_BOUND ( 'NONE', #653, .T. ) ;
#539 = DIRECTION ( 'NONE',  ( 1.000000000000000000, 0.000000000000000000, 0.000000000000000000 ) ) ;
#540 = AXIS2_PLACEMENT_3D ( 'NONE', #145, #345, #546 ) ;
#541 = DIRECTION ( 'NONE',  ( 0.000000000000000000, 0.000000000000000000, 1.000000000000000000 ) ) ;
#542 = VECTOR ( 'NONE', #113, 1000.000000000000000 ) ;
#543 = CARTESIAN_POINT ( 'NONE',  ( -38.00000000000000711, 44.00000000000000000, 1000.000000000000000 ) ) ;
#544 = ADVANCED_FACE ( 'NONE', ( #538 ), #193, .F. ) ;
#545 = DIRECTION ( 'NONE',  ( -0.000000000000000000, -0.000000000000000000, -1.000000000000000000 ) ) ;
#546 = DIRECTION ( 'NONE',  ( -1.000000000000000000, 0.000000000000000000, 0.000000000000000000 ) ) ;
#547 = CARTESIAN_POINT ( 'NONE',  ( -38.00000000000000711, -44.00000000000001421, 1000.000000000000000 ) ) ;
#548 = LINE ( 'NONE', #215, #646 ) ;
#549 = EDGE_CURVE ( 'NONE', #506, #126, #344, .T. ) ;
#550 = CYLINDRICAL_SURFACE ( 'NONE', #510, 6.000000000000005329 ) ;
#551 = FACE_OUTER_BOUND ( 'NONE', #523, .T. ) ;
#552 = VECTOR ( 'NONE', #295, 1000.000000000000000 ) ;
#553 = VECTOR ( 'NONE', #172, 1000.000000000000000 ) ;
#554 = ORIENTED_EDGE ( 'NONE', *, *, #51, .F. ) ;
#555 = CC_DESIGN_APPROVAL ( #12, ( #576 ) ) ;
#556 = APPROVAL_ROLE ( '' ) ;
#557 = DIRECTION ( 'NONE',  ( -1.000000000000000000, 0.000000000000000000, 0.000000000000000000 ) ) ;
#558 = ORIENTED_EDGE ( 'NONE', *, *, #114, .F. ) ;
#559 = APPLICATION_CONTEXT ( 'configuration controlled 3d designs of mechanical parts and assemblies' ) ;
#560 = DIRECTION ( 'NONE',  ( -1.000000000000000000, 0.000000000000000000, 0.000000000000000000 ) ) ;
#561 = CARTESIAN_POINT ( 'NONE',  ( -44.00000000000000711, 38.00000000000000000, 1000.000000000000000 ) ) ;
#562 = VERTEX_POINT ( 'NONE', #593 ) ;
#563 = FACE_OUTER_BOUND ( 'NONE', #177, .T. ) ;
#564 = ORIENTED_EDGE ( 'NONE', *, *, #328, .T. ) ;
#565 = VECTOR ( 'NONE', #579, 1000.000000000000000 ) ;
#566 = EDGE_CURVE ( 'NONE', #459, #315, #634, .T. ) ;
#567 = DIRECTION ( 'NONE',  ( 1.000000000000000000, 9.130123557772667102E-17, 0.000000000000000000 ) ) ;
#568 = ORIENTED_EDGE ( 'NONE', *, *, #587, .T. ) ;
#569 = CARTESIAN_POINT ( 'NONE',  ( -49.99999999999999289, -38.00000000000000711, 0.000000000000000000 ) ) ;
#570 = EDGE_LOOP ( 'NONE', ( #526, #604, #404, #115, #160, #132, #210, #32 ) ) ;
#571 = EDGE_CURVE ( 'NONE', #14, #430, #294, .T. ) ;
#572 = DIRECTION ( 'NONE',  ( -9.130123557772667102E-17, 1.000000000000000000, 0.000000000000000000 ) ) ;
#573 = EDGE_LOOP ( 'NONE', ( #22, #157, #245, #224 ) ) ;
#574 = AXIS2_PLACEMENT_3D ( 'NONE', #488, #351, #151 ) ;
#575 =( GEOMETRIC_REPRESENTATION_CONTEXT ( 3 ) GLOBAL_UNCERTAINTY_ASSIGNED_CONTEXT ( ( #43 ) ) GLOBAL_UNIT_ASSIGNED_CONTEXT ( ( #457, #217, #104 ) ) REPRESENTATION_CONTEXT ( 'NONE', 'WORKASPACE' ) );
#576 = PRODUCT_DEFINITION_FORMATION_WITH_SPECIFIED_SOURCE ( 'ANY', '', #500, .NOT_KNOWN. ) ;
#577 = DIRECTION ( 'NONE',  ( 1.000000000000000000, 0.000000000000000000, 0.000000000000000000 ) ) ;
#578 = ORIENTED_EDGE ( 'NONE', *, *, #598, .F. ) ;
#579 = DIRECTION ( 'NONE',  ( 1.000000000000000000, 0.000000000000000000, 0.000000000000000000 ) ) ;
#580 = ORIENTED_EDGE ( 'NONE', *, *, #482, .T. ) ;
#581 = CARTESIAN_POINT ( 'NONE',  ( 37.99999999999999289, -50.00000000000000711, 1000.000000000000000 ) ) ;
#582 = ORIENTED_EDGE ( 'NONE', *, *, #114, .T. ) ;
#583 = VECTOR ( 'NONE', #403, 1000.000000000000000 ) ;
#584 = AXIS2_PLACEMENT_3D ( 'NONE', #317, #357, #557 ) ;
#585 = DIRECTION ( 'NONE',  ( 0.000000000000000000, 0.000000000000000000, -1.000000000000000000 ) ) ;
#586 = ORIENTED_EDGE ( 'NONE', *, *, #435, .F. ) ;
#587 = EDGE_CURVE ( 'NONE', #28, #168, #418, .T. ) ;
#588 = DIRECTION ( 'NONE',  ( -1.000000000000000000, 0.000000000000000000, 0.000000000000000000 ) ) ;
#589 = DIRECTION ( 'NONE',  ( 0.000000000000000000, 0.000000000000000000, 1.000000000000000000 ) ) ;
#590 = CARTESIAN_POINT ( 'NONE',  ( 37.99999999999999289, -44.00000000000001421, 1000.000000000000000 ) ) ;
#591 = ADVANCED_FACE ( 'NONE', ( #536 ), #287, .F. ) ;
#592 = DIRECTION ( 'NONE',  ( -1.000000000000000000, 0.000000000000000000, 0.000000000000000000 ) ) ;
#593 = CARTESIAN_POINT ( 'NONE',  ( -50.00000000000000000, 38.00000000000000000, 1000.000000000000000 ) ) ;
#594 = CYLINDRICAL_SURFACE ( 'NONE', #540, 11.99999999999999645 ) ;
#595 = EDGE_CURVE ( 'NONE', #562, #607, #596, .T. ) ;
#596 = LINE ( 'NONE', #402, #427 ) ;
#597 = DIRECTION ( 'NONE',  ( -1.000000000000000000, 0.000000000000000000, 0.000000000000000000 ) ) ;
#598 = EDGE_CURVE ( 'NONE', #273, #480, #191, .T. ) ;
#599 = CYLINDRICAL_SURFACE ( 'NONE', #105, 5.999999999999998224 ) ;
#600 = DIRECTION ( 'NONE',  ( -1.000000000000000000, 0.000000000000000000, 0.000000000000000000 ) ) ;
#601 = ORIENTED_EDGE ( 'NONE', *, *, #169, .T. ) ;
#602 = LINE ( 'NONE', #508, #48 ) ;
#603 = AXIS2_PLACEMENT_3D ( 'NONE', #66, #2, #567 ) ;
#604 = ORIENTED_EDGE ( 'NONE', *, *, #435, .T. ) ;
#605 = APPROVAL_DATE_TIME ( #266, #12 ) ;
#606 = CARTESIAN_POINT ( 'NONE',  ( -38.00000000000000711, 44.00000000000000000, 0.000000000000000000 ) ) ;
#607 = VERTEX_POINT ( 'NONE', #144 ) ;
#608 = COORDINATED_UNIVERSAL_TIME_OFFSET ( 2, 0, .AHEAD. ) ;
#609 = CYLINDRICAL_SURFACE ( 'NONE', #455, 12.00000000000000711 ) ;
#610 = EDGE_CURVE ( 'NONE', #229, #336, #147, .T. ) ;
#611 = ORIENTED_EDGE ( 'NONE', *, *, #389, .T. ) ;
#612 = CARTESIAN_POINT ( 'NONE',  ( -38.00000000000000711, -50.00000000000000711, 0.000000000000000000 ) ) ;
#613 = PLANE ( 'NONE',  #366 ) ;
#614 = CC_DESIGN_PERSON_AND_ORGANIZATION_ASSIGNMENT ( #452, #406, ( #392 ) ) ;
#615 = VERTEX_POINT ( 'NONE', #346 ) ;
#616 = VECTOR ( 'NONE', #301, 1000.000000000000000 ) ;
#617 = LINE ( 'NONE', #219, #230 ) ;
#618 = ORIENTED_EDGE ( 'NONE', *, *, #328, .F. ) ;
#619 = EDGE_CURVE ( 'NONE', #229, #485, #283, .T. ) ;
#620 = DIRECTION ( 'NONE',  ( -1.000000000000000000, 0.000000000000000000, 0.000000000000000000 ) ) ;
#621 = VERTEX_POINT ( 'NONE', #612 ) ;
#622 = CARTESIAN_POINT ( 'NONE',  ( -44.00000000000000711, 38.00000000000000711, 1000.000000000000000 ) ) ;
#623 = ORIENTED_EDGE ( 'NONE', *, *, #284, .T. ) ;
#624 = VECTOR ( 'NONE', #495, 1000.000000000000000 ) ;
#625 = CIRCLE ( 'NONE', #446, 5.999999999999998224 ) ;
#626 = APPROVAL_PERSON_ORGANIZATION ( #119, #641, #556 ) ;
#627 = FACE_OUTER_BOUND ( 'NONE', #414, .T. ) ;
#628 = ORIENTED_EDGE ( 'NONE', *, *, #493, .T. ) ;
#629 = CARTESIAN_POINT ( 'NONE',  ( 37.99999999999999289, -38.00000000000000711, 1000.000000000000000 ) ) ;
#630 = VERTEX_POINT ( 'NONE', #11 ) ;
#631 = FACE_OUTER_BOUND ( 'NONE', #372, .T. ) ;
#632 = ORIENTED_EDGE ( 'NONE', *, *, #587, .F. ) ;
#633 = CIRCLE ( 'NONE', #331, 11.99999999999999645 ) ;
#634 = CIRCLE ( 'NONE', #220, 5.999999999999998224 ) ;
#635 = DIRECTION ( 'NONE',  ( -1.000000000000000000, 0.000000000000000000, 0.000000000000000000 ) ) ;
#636 = CARTESIAN_POINT ( 'NONE',  ( 37.99999999999999289, -38.00000000000000711, 0.000000000000000000 ) ) ;
#637 = ADVANCED_FACE ( 'NONE', ( #359 ), #550, .F. ) ;
#638 = CARTESIAN_POINT ( 'NONE',  ( 38.00000000000000711, 44.00000000000000711, 1000.000000000000000 ) ) ;
#639 = LINE ( 'NONE', #44, #189 ) ;
#640 = ORIENTED_EDGE ( 'NONE', *, *, #18, .T. ) ;
#641 = APPROVAL ( #356, 'UNSPECIFIED' ) ;
#642 = DIRECTION ( 'NONE',  ( -1.000000000000000000, 0.000000000000000000, 0.000000000000000000 ) ) ;
#643 = CARTESIAN_POINT ( 'NONE',  ( -38.00000000000000711, 50.00000000000000000, 0.000000000000000000 ) ) ;
#644 = ORIENTED_EDGE ( 'NONE', *, *, #482, .F. ) ;
#645 = MANIFOLD_SOLID_BREP ( 'Boss-Extrude1', #218 ) ;
#646 = VECTOR ( 'NONE', #307, 1000.000000000000000 ) ;
#647 = CARTESIAN_POINT ( 'NONE',  ( 50.00000000000000000, -38.00000000000000711, 1000.000000000000000 ) ) ;
#648 = VECTOR ( 'NONE', #383, 1000.000000000000000 ) ;
#649 = CARTESIAN_POINT ( 'NONE',  ( -38.00000000000000711, -38.00000000000000711, 1000.000000000000000 ) ) ;
#650 = DIRECTION ( 'NONE',  ( 0.000000000000000000, 0.000000000000000000, 1.000000000000000000 ) ) ;
#651 = FACE_OUTER_BOUND ( 'NONE', #213, .T. ) ;
#652 = CC_DESIGN_PERSON_AND_ORGANIZATION_ASSIGNMENT ( #259, #412, ( #576 ) ) ;
#653 = EDGE_LOOP ( 'NONE', ( #118, #265, #586, #227 ) ) ;
ENDSEC;
END-ISO-10303-21;
