ISO-10303-21;
HEADER;
FILE_DESCRIPTION (( 'STEP AP203' ),
    '1' );
FILE_NAME ('Square - 100.0 X 100.0 X 2.50.step',
    '2026-04-16T13:43:02',
    ( '' ),
    ( '' ),
    'SwSTEP 2.0',
    'SolidWorks 2023',
    '' );
FILE_SCHEMA (( 'CONFIG_CONTROL_DESIGN' ));
ENDSEC;

DATA;
#1 = CARTESIAN_POINT ( 'NONE',  ( 45.00000000000000000, -45.00000000000000711, 0.000000000000000000 ) ) ;
#2 = EDGE_CURVE ( 'NONE', #390, #314, #553, .T. ) ;
#3 = LINE ( 'NONE', #406, #379 ) ;
#4 = DIRECTION ( 'NONE',  ( -0.000000000000000000, -1.000000000000000000, -0.000000000000000000 ) ) ;
#5 = CARTESIAN_POINT ( 'NONE',  ( 45.00000000000000000, 50.00000000000000000, 1000.000000000000000 ) ) ;
#6 = ORIENTED_EDGE ( 'NONE', *, *, #35, .F. ) ;
#7 = AXIS2_PLACEMENT_3D ( 'NONE', #260, #165, #9 ) ;
#8 = LINE ( 'NONE', #454, #42 ) ;
#9 = DIRECTION ( 'NONE',  ( -1.000000000000000000, 0.000000000000000000, 0.000000000000000000 ) ) ;
#10 = EDGE_CURVE ( 'NONE', #539, #522, #641, .T. ) ;
#11 = VERTEX_POINT ( 'NONE', #337 ) ;
#12 = FACE_OUTER_BOUND ( 'NONE', #633, .T. ) ;
#13 = CARTESIAN_POINT ( 'NONE',  ( -45.00000000000001421, 50.00000000000000000, 0.000000000000000000 ) ) ;
#14 = ORIENTED_EDGE ( 'NONE', *, *, #103, .F. ) ;
#15 = DIRECTION ( 'NONE',  ( -0.000000000000000000, -0.000000000000000000, -1.000000000000000000 ) ) ;
#16 = DIRECTION ( 'NONE',  ( -1.000000000000000000, 7.709882115452475701E-17, 0.000000000000000000 ) ) ;
#17 = ORIENTED_EDGE ( 'NONE', *, *, #343, .T. ) ;
#18 = LINE ( 'NONE', #584, #240 ) ;
#19 = AXIS2_PLACEMENT_3D ( 'NONE', #349, #404, #107 ) ;
#20 = DIRECTION ( 'NONE',  ( -1.000000000000000000, -0.000000000000000000, -0.000000000000000000 ) ) ;
#21 = ORIENTED_EDGE ( 'NONE', *, *, #261, .T. ) ;
#22 = CARTESIAN_POINT ( 'NONE',  ( 45.00000000000000000, 45.00000000000000711, 1000.000000000000000 ) ) ;
#23 = EDGE_CURVE ( 'NONE', #476, #11, #74, .T. ) ;
#24 = FACE_OUTER_BOUND ( 'NONE', #242, .T. ) ;
#25 = ORIENTED_EDGE ( 'NONE', *, *, #374, .F. ) ;
#26 = UNCERTAINTY_MEASURE_WITH_UNIT (LENGTH_MEASURE( 1.000000000000000082E-05 ), #174, 'distance_accuracy_value', 'NONE');
#27 = DIRECTION ( 'NONE',  ( -1.000000000000000000, 0.000000000000000000, 0.000000000000000000 ) ) ;
#28 = DIRECTION ( 'NONE',  ( 0.000000000000000000, 0.000000000000000000, 1.000000000000000000 ) ) ;
#29 = EDGE_CURVE ( 'NONE', #426, #610, #518, .T. ) ;
#30 = ORIENTED_EDGE ( 'NONE', *, *, #183, .F. ) ;
#31 = VECTOR ( 'NONE', #20, 1000.000000000000000 ) ;
#32 = VECTOR ( 'NONE', #266, 1000.000000000000000 ) ;
#33 = CARTESIAN_POINT ( 'NONE',  ( 47.49999999999999289, -45.00000000000000711, 1000.000000000000000 ) ) ;
#34 = VERTEX_POINT ( 'NONE', #648 ) ;
#35 = EDGE_CURVE ( 'NONE', #94, #511, #145, .T. ) ;
#36 = DIRECTION ( 'NONE',  ( -0.000000000000000000, -0.000000000000000000, -1.000000000000000000 ) ) ;
#37 = CARTESIAN_POINT ( 'NONE',  ( 47.49999999999999289, -45.00000000000000711, 1000.000000000000000 ) ) ;
#38 = ORIENTED_EDGE ( 'NONE', *, *, #475, .T. ) ;
#39 = DATE_AND_TIME ( #71, #578 ) ;
#40 = LINE ( 'NONE', #330, #651 ) ;
#41 = ORIENTED_EDGE ( 'NONE', *, *, #468, .F. ) ;
#42 = VECTOR ( 'NONE', #248, 1000.000000000000000 ) ;
#43 = CARTESIAN_POINT ( 'NONE',  ( -45.00000000000001421, -47.50000000000000000, 1000.000000000000000 ) ) ;
#44 = EDGE_CURVE ( 'NONE', #46, #60, #397, .T. ) ;
#45 = LINE ( 'NONE', #150, #154 ) ;
#46 = VERTEX_POINT ( 'NONE', #43 ) ;
#47 = CARTESIAN_POINT ( 'NONE',  ( -45.00000000000001421, 45.00000000000000711, 0.000000000000000000 ) ) ;
#48 = COORDINATED_UNIVERSAL_TIME_OFFSET ( 2, 0, .AHEAD. ) ;
#49 = DIRECTION ( 'NONE',  ( -1.000000000000000000, 0.000000000000000000, 0.000000000000000000 ) ) ;
#50 = VECTOR ( 'NONE', #203, 1000.000000000000000 ) ;
#51 = EDGE_CURVE ( 'NONE', #339, #476, #3, .T. ) ;
#52 = DIRECTION ( 'NONE',  ( 1.000000000000000000, 0.000000000000000000, 0.000000000000000000 ) ) ;
#53 = DIRECTION ( 'NONE',  ( 0.000000000000000000, 0.000000000000000000, 1.000000000000000000 ) ) ;
#54 = CARTESIAN_POINT ( 'NONE',  ( -47.50000000000000711, -45.00000000000000711, 1000.000000000000000 ) ) ;
#55 = PRODUCT ( 'Square - 100.0 X 100.0 X 2.50', 'Square - 100.0 X 100.0 X 2.50', '', ( #88 ) ) ;
#56 = CARTESIAN_POINT ( 'NONE',  ( 45.00000000000000000, 47.50000000000000000, 1000.000000000000000 ) ) ;
#57 = EDGE_LOOP ( 'NONE', ( #262, #517, #131, #287 ) ) ;
#58 = CYLINDRICAL_SURFACE ( 'NONE', #19, 4.999999999999990230 ) ;
#59 = LINE ( 'NONE', #68, #281 ) ;
#60 = VERTEX_POINT ( 'NONE', #597 ) ;
#61 = AXIS2_PLACEMENT_3D ( 'NONE', #63, #149, #565 ) ;
#62 = CIRCLE ( 'NONE', #323, 2.499999999999995115 ) ;
#63 = CARTESIAN_POINT ( 'NONE',  ( 45.00000000000000000, -45.00000000000000711, 1000.000000000000000 ) ) ;
#64 = LINE ( 'NONE', #5, #450 ) ;
#65 = EDGE_CURVE ( 'NONE', #438, #94, #650, .T. ) ;
#66 = VERTEX_POINT ( 'NONE', #488 ) ;
#67 = LINE ( 'NONE', #463, #89 ) ;
#68 = CARTESIAN_POINT ( 'NONE',  ( 47.49999999999999289, -45.00000000000000711, 0.000000000000000000 ) ) ;
#69 = CC_DESIGN_PERSON_AND_ORGANIZATION_ASSIGNMENT ( #391, #289, ( #482 ) ) ;
#70 = ORIENTED_EDGE ( 'NONE', *, *, #51, .T. ) ;
#71 = CALENDAR_DATE ( 2026, 16, 4 ) ;
#72 = DIRECTION ( 'NONE',  ( -0.000000000000000000, -0.000000000000000000, -1.000000000000000000 ) ) ;
#73 = ORIENTED_EDGE ( 'NONE', *, *, #626, .T. ) ;
#74 = CIRCLE ( 'NONE', #152, 2.499999999999995115 ) ;
#75 = FACE_BOUND ( 'NONE', #243, .T. ) ;
#76 = ADVANCED_FACE ( 'NONE', ( #199 ), #193, .T. ) ;
#77 = AXIS2_PLACEMENT_3D ( 'NONE', #334, #639, #484 ) ;
#78 = ORGANIZATION ( 'UNSPECIFIED', 'UNSPECIFIED', '' ) ;
#79 = CARTESIAN_POINT ( 'NONE',  ( 45.00000000000000000, 45.00000000000000711, 0.000000000000000000 ) ) ;
#80 = ORIENTED_EDGE ( 'NONE', *, *, #638, .F. ) ;
#81 = APPROVAL ( #146, 'UNSPECIFIED' ) ;
#82 = DIRECTION ( 'NONE',  ( -0.000000000000000000, -0.000000000000000000, -1.000000000000000000 ) ) ;
#83 = EDGE_LOOP ( 'NONE', ( #613, #371, #25, #73 ) ) ;
#84 = APPLICATION_PROTOCOL_DEFINITION ( 'international standard', 'config_control_design', 1994, #405 ) ;
#85 = CARTESIAN_POINT ( 'NONE',  ( -45.00000000000001421, -50.00000000000000000, 1000.000000000000000 ) ) ;
#86 = EDGE_CURVE ( 'NONE', #458, #46, #508, .T. ) ;
#87 = VERTEX_POINT ( 'NONE', #347 ) ;
#88 = MECHANICAL_CONTEXT ( 'NONE', #348, 'mechanical' ) ;
#89 = VECTOR ( 'NONE', #118, 1000.000000000000000 ) ;
#90 = PLANE ( 'NONE',  #533 ) ;
#91 = CC_DESIGN_PERSON_AND_ORGANIZATION_ASSIGNMENT ( #141, #544, ( #482 ) ) ;
#92 = ORIENTED_EDGE ( 'NONE', *, *, #65, .F. ) ;
#93 = LINE ( 'NONE', #327, #543 ) ;
#94 = VERTEX_POINT ( 'NONE', #452 ) ;
#95 = PERSON_AND_ORGANIZATION ( #191, #78 ) ;
#96 = DIRECTION ( 'NONE',  ( 0.000000000000000000, 0.000000000000000000, 1.000000000000000000 ) ) ;
#97 = SECURITY_CLASSIFICATION_LEVEL ( 'unclassified' ) ;
#98 = EDGE_CURVE ( 'NONE', #522, #423, #595, .T. ) ;
#99 = DIRECTION ( 'NONE',  ( -1.000000000000000000, -0.000000000000000000, -0.000000000000000000 ) ) ;
#100 = PERSON_AND_ORGANIZATION ( #191, #78 ) ;
#101 = ORIENTED_EDGE ( 'NONE', *, *, #600, .T. ) ;
#102 = ORIENTED_EDGE ( 'NONE', *, *, #558, .F. ) ;
#103 = EDGE_CURVE ( 'NONE', #60, #433, #142, .T. ) ;
#104 = CARTESIAN_POINT ( 'NONE',  ( 45.00000000000000000, 50.00000000000000000, 0.000000000000000000 ) ) ;
#105 = CARTESIAN_POINT ( 'NONE',  ( -45.00000000000001421, 45.00000000000000711, 1000.000000000000000 ) ) ;
#106 = VECTOR ( 'NONE', #415, 1000.000000000000000 ) ;
#107 = DIRECTION ( 'NONE',  ( -1.000000000000000000, 0.000000000000000000, 0.000000000000000000 ) ) ;
#108 = CARTESIAN_POINT ( 'NONE',  ( -45.00000000000001421, 47.50000000000000000, 1000.000000000000000 ) ) ;
#109 = LINE ( 'NONE', #253, #333 ) ;
#110 = DIRECTION ( 'NONE',  ( 1.000000000000000000, 0.000000000000000000, 0.000000000000000000 ) ) ;
#111 = ORIENTED_EDGE ( 'NONE', *, *, #124, .T. ) ;
#112 = FACE_OUTER_BOUND ( 'NONE', #173, .T. ) ;
#113 = EDGE_CURVE ( 'NONE', #375, #284, #45, .T. ) ;
#114 = LINE ( 'NONE', #13, #31 ) ;
#115 = ORIENTED_EDGE ( 'NONE', *, *, #514, .F. ) ;
#116 = VECTOR ( 'NONE', #560, 1000.000000000000000 ) ;
#117 = CIRCLE ( 'NONE', #366, 2.500000000000002220 ) ;
#118 = DIRECTION ( 'NONE',  ( 1.000000000000000000, 0.000000000000000000, 0.000000000000000000 ) ) ;
#119 = FACE_OUTER_BOUND ( 'NONE', #206, .T. ) ;
#120 = EDGE_CURVE ( 'NONE', #571, #458, #550, .T. ) ;
#121 = ORIENTED_EDGE ( 'NONE', *, *, #183, .T. ) ;
#122 = PERSON_AND_ORGANIZATION_ROLE ( 'creator' ) ;
#123 = DIRECTION ( 'NONE',  ( -0.000000000000000000, -0.000000000000000000, -1.000000000000000000 ) ) ;
#124 = EDGE_CURVE ( 'NONE', #34, #511, #255, .T. ) ;
#125 = EDGE_LOOP ( 'NONE', ( #621, #583, #368, #392, #589, #38, #534, #526 ) ) ;
#126 = CARTESIAN_POINT ( 'NONE',  ( 49.99999999999998579, -45.00000000000000711, 1000.000000000000000 ) ) ;
#127 = EDGE_LOOP ( 'NONE', ( #14, #416, #499, #481 ) ) ;
#128 = PRODUCT_DEFINITION ( 'UNKNOWN', '', #482, #523 ) ;
#129 = CARTESIAN_POINT ( 'NONE',  ( -45.00000000000001421, -50.00000000000000000, 1000.000000000000000 ) ) ;
#130 = FACE_OUTER_BOUND ( 'NONE', #158, .T. ) ;
#131 = ORIENTED_EDGE ( 'NONE', *, *, #244, .F. ) ;
#132 = CARTESIAN_POINT ( 'NONE',  ( 49.99999999999998579, -45.00000000000000711, 1000.000000000000000 ) ) ;
#133 = VERTEX_POINT ( 'NONE', #612 ) ;
#134 = PERSON_AND_ORGANIZATION ( #191, #78 ) ;
#135 = DIRECTION ( 'NONE',  ( 0.000000000000000000, -0.000000000000000000, -1.000000000000000000 ) ) ;
#136 = ORIENTED_EDGE ( 'NONE', *, *, #29, .F. ) ;
#137 = ORIENTED_EDGE ( 'NONE', *, *, #514, .T. ) ;
#138 = AXIS2_PLACEMENT_3D ( 'NONE', #153, #457, #264 ) ;
#139 = AXIS2_PLACEMENT_3D ( 'NONE', #54, #156, #359 ) ;
#140 = DIRECTION ( 'NONE',  ( 0.000000000000000000, -1.000000000000000000, 0.000000000000000000 ) ) ;
#141 = PERSON_AND_ORGANIZATION ( #191, #78 ) ;
#142 = LINE ( 'NONE', #340, #598 ) ;
#143 = CALENDAR_DATE ( 2026, 16, 4 ) ;
#144 = VECTOR ( 'NONE', #228, 1000.000000000000000 ) ;
#145 = LINE ( 'NONE', #448, #388 ) ;
#146 = APPROVAL_STATUS ( 'not_yet_approved' ) ;
#147 = EDGE_CURVE ( 'NONE', #299, #522, #251, .T. ) ;
#148 = DIRECTION ( 'NONE',  ( 1.000000000000000000, 0.000000000000000000, 0.000000000000000000 ) ) ;
#149 = DIRECTION ( 'NONE',  ( -0.000000000000000000, -0.000000000000000000, -1.000000000000000000 ) ) ;
#150 = CARTESIAN_POINT ( 'NONE',  ( -45.00000000000001421, 47.50000000000000000, 1000.000000000000000 ) ) ;
#151 = LINE ( 'NONE', #551, #50 ) ;
#152 = AXIS2_PLACEMENT_3D ( 'NONE', #47, #602, #49 ) ;
#153 = CARTESIAN_POINT ( 'NONE',  ( -45.00000000000001421, -45.00000000000000711, 1000.000000000000000 ) ) ;
#154 = VECTOR ( 'NONE', #99, 1000.000000000000000 ) ;
#155 = AXIS2_PLACEMENT_3D ( 'NONE', #329, #182, #477 ) ;
#156 = DIRECTION ( 'NONE',  ( 1.000000000000000000, 0.000000000000000000, 0.000000000000000000 ) ) ;
#157 = FACE_OUTER_BOUND ( 'NONE', #125, .T. ) ;
#158 = EDGE_LOOP ( 'NONE', ( #111, #6, #92, #429 ) ) ;
#159 = ADVANCED_FACE ( 'NONE', ( #509 ), #620, .F. ) ;
#160 = FACE_OUTER_BOUND ( 'NONE', #274, .T. ) ;
#161 = DIRECTION ( 'NONE',  ( -0.000000000000000000, -0.000000000000000000, -1.000000000000000000 ) ) ;
#162 = ORIENTED_EDGE ( 'NONE', *, *, #235, .F. ) ;
#163 = EDGE_CURVE ( 'NONE', #133, #438, #619, .T. ) ;
#164 = DIRECTION ( 'NONE',  ( -1.000000000000000000, 0.000000000000000000, 0.000000000000000000 ) ) ;
#165 = DIRECTION ( 'NONE',  ( 0.000000000000000000, 0.000000000000000000, 1.000000000000000000 ) ) ;
#166 = ORIENTED_EDGE ( 'NONE', *, *, #558, .T. ) ;
#167 = AXIS2_PLACEMENT_3D ( 'NONE', #427, #377, #283 ) ;
#168 = AXIS2_PLACEMENT_3D ( 'NONE', #22, #471, #424 ) ;
#169 = DATE_AND_TIME ( #431, #344 ) ;
#170 = FACE_BOUND ( 'NONE', #269, .T. ) ;
#171 = EDGE_LOOP ( 'NONE', ( #321, #336, #564, #17 ) ) ;
#172 = CARTESIAN_POINT ( 'NONE',  ( -45.00000000000001421, 50.00000000000000000, 1000.000000000000000 ) ) ;
#173 = EDGE_LOOP ( 'NONE', ( #225, #115, #383, #305 ) ) ;
#174 =( LENGTH_UNIT ( ) NAMED_UNIT ( * ) SI_UNIT ( .MILLI., .METRE. ) );
#175 = CARTESIAN_POINT ( 'NONE',  ( 45.00000000000000000, -47.50000000000000000, 0.000000000000000000 ) ) ;
#176 = ORIENTED_EDGE ( 'NONE', *, *, #23, .T. ) ;
#177 = DIRECTION ( 'NONE',  ( -1.000000000000000000, 0.000000000000000000, 0.000000000000000000 ) ) ;
#178 = AXIS2_PLACEMENT_3D ( 'NONE', #582, #140, #135 ) ;
#179 =( GEOMETRIC_REPRESENTATION_CONTEXT ( 3 ) GLOBAL_UNCERTAINTY_ASSIGNED_CONTEXT ( ( #26 ) ) GLOBAL_UNIT_ASSIGNED_CONTEXT ( ( #174, #524, #230 ) ) REPRESENTATION_CONTEXT ( 'NONE', 'WORKASPACE' ) );
#180 = CYLINDRICAL_SURFACE ( 'NONE', #77, 4.999999999999997335 ) ;
#181 = ORIENTED_EDGE ( 'NONE', *, *, #652, .T. ) ;
#182 = DIRECTION ( 'NONE',  ( -0.000000000000000000, 0.000000000000000000, -1.000000000000000000 ) ) ;
#183 = EDGE_CURVE ( 'NONE', #571, #11, #516, .T. ) ;
#184 = DIRECTION ( 'NONE',  ( 0.000000000000000000, 0.000000000000000000, 1.000000000000000000 ) ) ;
#185 = PLANE ( 'NONE',  #642 ) ;
#186 = ORIENTED_EDGE ( 'NONE', *, *, #402, .T. ) ;
#187 = DATE_TIME_ROLE ( 'classification_date' ) ;
#188 = VECTOR ( 'NONE', #490, 1000.000000000000000 ) ;
#189 = EDGE_LOOP ( 'NONE', ( #574, #470, #473, #506 ) ) ;
#190 = COORDINATED_UNIVERSAL_TIME_OFFSET ( 2, 0, .AHEAD. ) ;
#191 = PERSON ( 'UNSPECIFIED', 'UNSPECIFIED', 'UNSPECIFIED', ('UNSPECIFIED'), ('UNSPECIFIED'), ('UNSPECIFIED') ) ;
#192 = CC_DESIGN_PERSON_AND_ORGANIZATION_ASSIGNMENT ( #95, #238, ( #535 ) ) ;
#193 = PLANE ( 'NONE',  #256 ) ;
#194 = APPROVAL_STATUS ( 'not_yet_approved' ) ;
#195 = DIRECTION ( 'NONE',  ( -0.000000000000000000, -0.000000000000000000, -1.000000000000000000 ) ) ;
#196 = ADVANCED_FACE ( 'NONE', ( #157, #170 ), #469, .F. ) ;
#197 = VECTOR ( 'NONE', #525, 1000.000000000000000 ) ;
#198 = CC_DESIGN_SECURITY_CLASSIFICATION ( #535, ( #482 ) ) ;
#199 = FACE_OUTER_BOUND ( 'NONE', #127, .T. ) ;
#200 = CARTESIAN_POINT ( 'NONE',  ( -47.50000000000000711, -45.00000000000000711, 1000.000000000000000 ) ) ;
#201 = DIRECTION ( 'NONE',  ( 1.000000000000000000, 0.000000000000000000, 0.000000000000000000 ) ) ;
#202 = ORIENTED_EDGE ( 'NONE', *, *, #23, .F. ) ;
#203 = DIRECTION ( 'NONE',  ( -0.000000000000000000, -0.000000000000000000, -1.000000000000000000 ) ) ;
#204 = DIRECTION ( 'NONE',  ( -1.000000000000000000, 0.000000000000000000, 0.000000000000000000 ) ) ;
#205 = EDGE_CURVE ( 'NONE', #445, #492, #64, .T. ) ;
#206 = EDGE_LOOP ( 'NONE', ( #491, #162, #462, #237 ) ) ;
#207 = CYLINDRICAL_SURFACE ( 'NONE', #519, 2.499999999999995115 ) ;
#208 = ORIENTED_EDGE ( 'NONE', *, *, #120, .T. ) ;
#209 = DIRECTION ( 'NONE',  ( 0.000000000000000000, 0.000000000000000000, 1.000000000000000000 ) ) ;
#210 = DIRECTION ( 'NONE',  ( -0.000000000000000000, -0.000000000000000000, -1.000000000000000000 ) ) ;
#211 = ORIENTED_EDGE ( 'NONE', *, *, #300, .F. ) ;
#212 = CYLINDRICAL_SURFACE ( 'NONE', #61, 2.499999999999995115 ) ;
#213 = EDGE_CURVE ( 'NONE', #436, #375, #354, .T. ) ;
#214 = DIRECTION ( 'NONE',  ( -1.000000000000000000, 0.000000000000000000, 0.000000000000000000 ) ) ;
#215 = EDGE_LOOP ( 'NONE', ( #265, #485, #186, #137 ) ) ;
#216 = VECTOR ( 'NONE', #273, 1000.000000000000000 ) ;
#217 = AXIS2_PLACEMENT_3D ( 'NONE', #628, #282, #580 ) ;
#218 = CARTESIAN_POINT ( 'NONE',  ( -50.00000000000000711, 45.00000000000000711, 1000.000000000000000 ) ) ;
#219 = CARTESIAN_POINT ( 'NONE',  ( -50.00000000000000711, -45.00000000000000711, 1000.000000000000000 ) ) ;
#220 = ORIENTED_EDGE ( 'NONE', *, *, #402, .F. ) ;
#221 = CARTESIAN_POINT ( 'NONE',  ( -45.00000000000001421, -45.00000000000000711, 0.000000000000000000 ) ) ;
#222 = CARTESIAN_POINT ( 'NONE',  ( 45.00000000000000000, 47.50000000000000000, 0.000000000000000000 ) ) ;
#223 = ORIENTED_EDGE ( 'NONE', *, *, #124, .F. ) ;
#224 = CARTESIAN_POINT ( 'NONE',  ( -50.00000000000000711, 45.00000000000000711, 1000.000000000000000 ) ) ;
#225 = ORIENTED_EDGE ( 'NONE', *, *, #600, .F. ) ;
#226 = AXIS2_PLACEMENT_3D ( 'NONE', #616, #563, #204 ) ;
#227 = COORDINATED_UNIVERSAL_TIME_OFFSET ( 2, 0, .AHEAD. ) ;
#228 = DIRECTION ( 'NONE',  ( -0.000000000000000000, -1.000000000000000000, -0.000000000000000000 ) ) ;
#229 = ORIENTED_EDGE ( 'NONE', *, *, #351, .F. ) ;
#230 =( NAMED_UNIT ( * ) SI_UNIT ( $, .STERADIAN. ) SOLID_ANGLE_UNIT ( ) );
#231 = EDGE_CURVE ( 'NONE', #492, #548, #114, .T. ) ;
#232 = EDGE_LOOP ( 'NONE', ( #202, #623, #387, #121 ) ) ;
#233 = LINE ( 'NONE', #224, #197 ) ;
#234 = EDGE_LOOP ( 'NONE', ( #249, #561, #136, #358 ) ) ;
#235 = EDGE_CURVE ( 'NONE', #458, #593, #409, .T. ) ;
#236 = CARTESIAN_POINT ( 'NONE',  ( -47.50000000000000711, -45.00000000000000711, 1000.000000000000000 ) ) ;
#237 = ORIENTED_EDGE ( 'NONE', *, *, #44, .T. ) ;
#238 = PERSON_AND_ORGANIZATION_ROLE ( 'classification_officer' ) ;
#239 = VECTOR ( 'NONE', #313, 1000.000000000000000 ) ;
#240 = VECTOR ( 'NONE', #36, 1000.000000000000000 ) ;
#241 = CARTESIAN_POINT ( 'NONE',  ( -45.00000000000001421, -47.50000000000000000, 1000.000000000000000 ) ) ;
#242 = EDGE_LOOP ( 'NONE', ( #350, #41, #627, #487 ) ) ;
#243 = EDGE_LOOP ( 'NONE', ( #403, #181, #636, #378, #21, #101, #70, #176 ) ) ;
#244 = EDGE_CURVE ( 'NONE', #94, #445, #576, .T. ) ;
#245 = DIRECTION ( 'NONE',  ( -1.000000000000000000, 0.000000000000000000, 0.000000000000000000 ) ) ;
#246 = VECTOR ( 'NONE', #123, 1000.000000000000000 ) ;
#247 = DIRECTION ( 'NONE',  ( -1.000000000000000000, 0.000000000000000000, 0.000000000000000000 ) ) ;
#248 = DIRECTION ( 'NONE',  ( -0.000000000000000000, -0.000000000000000000, -1.000000000000000000 ) ) ;
#249 = ORIENTED_EDGE ( 'NONE', *, *, #307, .T. ) ;
#250 = CARTESIAN_POINT ( 'NONE',  ( 45.00000000000000000, -47.50000000000000000, 1000.000000000000000 ) ) ;
#251 = LINE ( 'NONE', #461, #116 ) ;
#252 = ORIENTED_EDGE ( 'NONE', *, *, #213, .F. ) ;
#253 = CARTESIAN_POINT ( 'NONE',  ( -50.00000000000000711, -45.00000000000000711, 0.000000000000000000 ) ) ;
#254 = VECTOR ( 'NONE', #352, 1000.000000000000000 ) ;
#255 = LINE ( 'NONE', #412, #106 ) ;
#256 = AXIS2_PLACEMENT_3D ( 'NONE', #241, #345, #401 ) ;
#257 = EDGE_CURVE ( 'NONE', #284, #476, #316, .T. ) ;
#258 = ORIENTED_EDGE ( 'NONE', *, *, #351, .T. ) ;
#259 = CARTESIAN_POINT ( 'NONE',  ( -45.00000000000001421, 50.00000000000000000, 1000.000000000000000 ) ) ;
#260 = CARTESIAN_POINT ( 'NONE',  ( 45.00000000000000000, 45.00000000000000711, 1000.000000000000000 ) ) ;
#261 = EDGE_CURVE ( 'NONE', #465, #66, #59, .T. ) ;
#262 = ORIENTED_EDGE ( 'NONE', *, *, #449, .T. ) ;
#263 = CARTESIAN_POINT ( 'NONE',  ( 49.99999999999998579, 45.00000000000000711, 0.000000000000000000 ) ) ;
#264 = DIRECTION ( 'NONE',  ( -1.000000000000000000, 0.000000000000000000, 0.000000000000000000 ) ) ;
#265 = ORIENTED_EDGE ( 'NONE', *, *, #261, .F. ) ;
#266 = DIRECTION ( 'NONE',  ( 1.000000000000000000, 0.000000000000000000, 0.000000000000000000 ) ) ;
#267 = DIRECTION ( 'NONE',  ( 0.000000000000000000, 0.000000000000000000, 1.000000000000000000 ) ) ;
#268 = AXIS2_PLACEMENT_3D ( 'NONE', #447, #294, #148 ) ;
#269 = EDGE_LOOP ( 'NONE', ( #361, #437, #331, #410, #252, #220, #546, #325 ) ) ;
#270 = AXIS2_PLACEMENT_3D ( 'NONE', #443, #645, #394 ) ;
#271 = CC_DESIGN_APPROVAL ( #634, ( #128 ) ) ;
#272 = DIRECTION ( 'NONE',  ( -0.000000000000000000, -0.000000000000000000, -1.000000000000000000 ) ) ;
#273 = DIRECTION ( 'NONE',  ( -0.000000000000000000, -0.000000000000000000, -1.000000000000000000 ) ) ;
#274 = EDGE_LOOP ( 'NONE', ( #389, #30, #208, #290 ) ) ;
#275 = DIRECTION ( 'NONE',  ( 1.000000000000000000, 0.000000000000000000, 0.000000000000000000 ) ) ;
#276 = ORIENTED_EDGE ( 'NONE', *, *, #449, .F. ) ;
#277 = CARTESIAN_POINT ( 'NONE',  ( -47.50000000000000711, -45.00000000000000711, 0.000000000000000000 ) ) ;
#278 = DIRECTION ( 'NONE',  ( 0.000000000000000000, 1.000000000000000000, 0.000000000000000000 ) ) ;
#279 = ADVANCED_FACE ( 'NONE', ( #119 ), #207, .F. ) ;
#280 = ORIENTED_EDGE ( 'NONE', *, *, #163, .F. ) ;
#281 = VECTOR ( 'NONE', #370, 1000.000000000000000 ) ;
#282 = DIRECTION ( 'NONE',  ( 0.000000000000000000, 0.000000000000000000, 1.000000000000000000 ) ) ;
#283 = DIRECTION ( 'NONE',  ( -1.000000000000000000, 0.000000000000000000, 0.000000000000000000 ) ) ;
#284 = VERTEX_POINT ( 'NONE', #108 ) ;
#285 = EDGE_CURVE ( 'NONE', #610, #311, #567, .T. ) ;
#286 = DIRECTION ( 'NONE',  ( 0.000000000000000000, 0.000000000000000000, 1.000000000000000000 ) ) ;
#287 = ORIENTED_EDGE ( 'NONE', *, *, #35, .T. ) ;
#288 = CARTESIAN_POINT ( 'NONE',  ( 49.99999999999998579, -45.00000000000000711, 1000.000000000000000 ) ) ;
#289 = PERSON_AND_ORGANIZATION_ROLE ( 'design_supplier' ) ;
#290 = ORIENTED_EDGE ( 'NONE', *, *, #235, .T. ) ;
#291 = AXIS2_PLACEMENT_3D ( 'NONE', #505, #286, #384 ) ;
#292 = CARTESIAN_POINT ( 'NONE',  ( -45.00000000000001421, -50.00000000000000000, 0.000000000000000000 ) ) ;
#293 = ADVANCED_FACE ( 'NONE', ( #608 ), #357, .T. ) ;
#294 = DIRECTION ( 'NONE',  ( 0.000000000000000000, 0.000000000000000000, 1.000000000000000000 ) ) ;
#295 = CARTESIAN_POINT ( 'NONE',  ( -45.00000000000001421, -47.50000000000000000, 1000.000000000000000 ) ) ;
#296 = DIRECTION ( 'NONE',  ( -1.000000000000000000, 0.000000000000000000, 0.000000000000000000 ) ) ;
#297 = VECTOR ( 'NONE', #455, 1000.000000000000000 ) ;
#298 = APPROVAL_PERSON_ORGANIZATION ( #100, #453, #398 ) ;
#299 = VERTEX_POINT ( 'NONE', #302 ) ;
#300 = EDGE_CURVE ( 'NONE', #375, #339, #501, .T. ) ;
#301 = CYLINDRICAL_SURFACE ( 'NONE', #607, 4.999999999999997335 ) ;
#302 = CARTESIAN_POINT ( 'NONE',  ( -45.00000000000001421, -50.00000000000000000, 1000.000000000000000 ) ) ;
#303 = CC_DESIGN_PERSON_AND_ORGANIZATION_ASSIGNMENT ( #326, #372, ( #55 ) ) ;
#304 = DIRECTION ( 'NONE',  ( -0.000000000000000000, -0.000000000000000000, -1.000000000000000000 ) ) ;
#305 = ORIENTED_EDGE ( 'NONE', *, *, #300, .T. ) ;
#306 = CARTESIAN_POINT ( 'NONE',  ( -45.00000000000001421, -50.00000000000000000, 0.000000000000000000 ) ) ;
#307 = EDGE_CURVE ( 'NONE', #548, #87, #308, .T. ) ;
#308 = CIRCLE ( 'NONE', #291, 4.999999999999997335 ) ;
#309 = CARTESIAN_POINT ( 'NONE',  ( -45.00000000000001421, 45.00000000000000711, 1000.000000000000000 ) ) ;
#310 = AXIS2_PLACEMENT_3D ( 'NONE', #1, #362, #201 ) ;
#311 = VERTEX_POINT ( 'NONE', #425 ) ;
#312 = FACE_OUTER_BOUND ( 'NONE', #83, .T. ) ;
#313 = DIRECTION ( 'NONE',  ( -0.000000000000000000, -1.000000000000000000, -0.000000000000000000 ) ) ;
#314 = VERTEX_POINT ( 'NONE', #37 ) ;
#315 = COORDINATED_UNIVERSAL_TIME_OFFSET ( 2, 0, .AHEAD. ) ;
#316 = LINE ( 'NONE', #365, #479 ) ;
#317 = ORIENTED_EDGE ( 'NONE', *, *, #307, .F. ) ;
#318 = APPROVAL_STATUS ( 'not_yet_approved' ) ;
#319 = DIRECTION ( 'NONE',  ( -1.000000000000000000, 0.000000000000000000, 0.000000000000000000 ) ) ;
#320 = AXIS2_PLACEMENT_3D ( 'NONE', #105, #53, #247 ) ;
#321 = ORIENTED_EDGE ( 'NONE', *, *, #510, .T. ) ;
#322 = AXIS2_PLACEMENT_3D ( 'NONE', #79, #184, #531 ) ;
#323 = AXIS2_PLACEMENT_3D ( 'NONE', #221, #624, #27 ) ;
#324 = CARTESIAN_POINT ( 'NONE',  ( -47.50000000000000711, -45.00000000000000711, 0.000000000000000000 ) ) ;
#325 = ORIENTED_EDGE ( 'NONE', *, *, #480, .F. ) ;
#326 = PERSON_AND_ORGANIZATION ( #191, #78 ) ;
#327 = CARTESIAN_POINT ( 'NONE',  ( 45.00000000000000000, -50.00000000000000000, 1000.000000000000000 ) ) ;
#328 = ORIENTED_EDGE ( 'NONE', *, *, #113, .T. ) ;
#329 = CARTESIAN_POINT ( 'NONE',  ( -45.00000000000001421, -45.00000000000000711, 0.000000000000000000 ) ) ;
#330 = CARTESIAN_POINT ( 'NONE',  ( 47.49999999999999289, -45.00000000000000711, 1000.000000000000000 ) ) ;
#331 = ORIENTED_EDGE ( 'NONE', *, *, #536, .F. ) ;
#332 = CLOSED_SHELL ( 'NONE', ( #196, #615, #540, #434, #532, #442, #588, #335, #395, #413, #279, #76, #527, #293, #504, #338, #159, #581 ) ) ;
#333 = VECTOR ( 'NONE', #4, 1000.000000000000000 ) ;
#334 = CARTESIAN_POINT ( 'NONE',  ( -45.00000000000001421, 45.00000000000000711, 1000.000000000000000 ) ) ;
#335 = ADVANCED_FACE ( 'NONE', ( #24 ), #90, .F. ) ;
#336 = ORIENTED_EDGE ( 'NONE', *, *, #626, .F. ) ;
#337 = CARTESIAN_POINT ( 'NONE',  ( -47.50000000000000711, 45.00000000000000711, 0.000000000000000000 ) ) ;
#338 = ADVANCED_FACE ( 'NONE', ( #435 ), #587, .T. ) ;
#339 = VERTEX_POINT ( 'NONE', #222 ) ;
#340 = CARTESIAN_POINT ( 'NONE',  ( -45.00000000000001421, -47.50000000000000000, 0.000000000000000000 ) ) ;
#341 = COORDINATED_UNIVERSAL_TIME_OFFSET ( 2, 0, .AHEAD. ) ;
#342 = AXIS2_PLACEMENT_3D ( 'NONE', #559, #15, #418 ) ;
#343 = EDGE_CURVE ( 'NONE', #610, #87, #233, .T. ) ;
#344 = LOCAL_TIME ( 15, 43, 2.000000000000000000, #227 ) ;
#345 = DIRECTION ( 'NONE',  ( 0.000000000000000000, 1.000000000000000000, 0.000000000000000000 ) ) ;
#346 = APPROVAL_ROLE ( '' ) ;
#347 = CARTESIAN_POINT ( 'NONE',  ( -50.00000000000000711, 45.00000000000000711, 0.000000000000000000 ) ) ;
#348 = APPLICATION_CONTEXT ( 'configuration controlled 3d designs of mechanical parts and assemblies' ) ;
#349 = CARTESIAN_POINT ( 'NONE',  ( 45.00000000000000000, -45.00000000000000711, 1000.000000000000000 ) ) ;
#350 = ORIENTED_EDGE ( 'NONE', *, *, #231, .T. ) ;
#351 = EDGE_CURVE ( 'NONE', #133, #423, #93, .T. ) ;
#352 = DIRECTION ( 'NONE',  ( -1.000000000000000000, -0.000000000000000000, -0.000000000000000000 ) ) ;
#353 = AXIS2_PLACEMENT_3D ( 'NONE', #552, #96, #245 ) ;
#354 = CIRCLE ( 'NONE', #226, 2.500000000000002220 ) ;
#355 = CARTESIAN_POINT ( 'NONE',  ( 45.00000000000000000, -45.00000000000000711, 1000.000000000000000 ) ) ;
#356 = FACE_OUTER_BOUND ( 'NONE', #57, .T. ) ;
#357 = PLANE ( 'NONE',  #400 ) ;
#358 = ORIENTED_EDGE ( 'NONE', *, *, #468, .T. ) ;
#359 = DIRECTION ( 'NONE',  ( 0.000000000000000000, 0.000000000000000000, -1.000000000000000000 ) ) ;
#360 = DIRECTION ( 'NONE',  ( -0.000000000000000000, -0.000000000000000000, -1.000000000000000000 ) ) ;
#361 = ORIENTED_EDGE ( 'NONE', *, *, #86, .F. ) ;
#362 = DIRECTION ( 'NONE',  ( 0.000000000000000000, 0.000000000000000000, 1.000000000000000000 ) ) ;
#363 = EDGE_CURVE ( 'NONE', #11, #593, #486, .T. ) ;
#364 = CIRCLE ( 'NONE', #322, 4.999999999999990230 ) ;
#365 = CARTESIAN_POINT ( 'NONE',  ( -45.00000000000001421, 47.50000000000000000, 1000.000000000000000 ) ) ;
#366 = AXIS2_PLACEMENT_3D ( 'NONE', #572, #483, #177 ) ;
#367 = PRODUCT_DEFINITION_SHAPE ( 'NONE', 'NONE',  #128 ) ;
#368 = ORIENTED_EDGE ( 'NONE', *, *, #163, .T. ) ;
#369 = PERSON_AND_ORGANIZATION ( #191, #78 ) ;
#370 = DIRECTION ( 'NONE',  ( 7.709882115452475701E-17, 1.000000000000000000, 0.000000000000000000 ) ) ;
#371 = ORIENTED_EDGE ( 'NONE', *, *, #147, .F. ) ;
#372 = PERSON_AND_ORGANIZATION_ROLE ( 'design_owner' ) ;
#373 = CARTESIAN_POINT ( 'NONE',  ( 47.50000000000000000, 45.00000000000000711, 1000.000000000000000 ) ) ;
#374 = EDGE_CURVE ( 'NONE', #311, #299, #566, .T. ) ;
#375 = VERTEX_POINT ( 'NONE', #422 ) ;
#376 = PLANE ( 'NONE',  #155 ) ;
#377 = DIRECTION ( 'NONE',  ( 0.000000000000000000, 0.000000000000000000, 1.000000000000000000 ) ) ;
#378 = ORIENTED_EDGE ( 'NONE', *, *, #549, .T. ) ;
#379 = VECTOR ( 'NONE', #541, 1000.000000000000000 ) ;
#380 = CIRCLE ( 'NONE', #591, 2.499999999999995115 ) ;
#381 = APPLICATION_PROTOCOL_DEFINITION ( 'international standard', 'config_control_design', 1994, #348 ) ;
#382 = DIRECTION ( 'NONE',  ( 0.000000000000000000, -0.000000000000000000, 1.000000000000000000 ) ) ;
#383 = ORIENTED_EDGE ( 'NONE', *, *, #213, .T. ) ;
#384 = DIRECTION ( 'NONE',  ( -1.000000000000000000, 0.000000000000000000, 0.000000000000000000 ) ) ;
#385 = ORIENTED_EDGE ( 'NONE', *, *, #98, .F. ) ;
#386 = DIRECTION ( 'NONE',  ( 0.000000000000000000, 0.000000000000000000, -1.000000000000000000 ) ) ;
#387 = ORIENTED_EDGE ( 'NONE', *, *, #536, .T. ) ;
#388 = VECTOR ( 'NONE', #195, 1000.000000000000000 ) ;
#389 = ORIENTED_EDGE ( 'NONE', *, *, #363, .F. ) ;
#390 = VERTEX_POINT ( 'NONE', #472 ) ;
#391 = PERSON_AND_ORGANIZATION ( #191, #78 ) ;
#392 = ORIENTED_EDGE ( 'NONE', *, *, #65, .T. ) ;
#393 = CARTESIAN_POINT ( 'NONE',  ( 47.49999999999999289, -45.00000000000000711, 0.000000000000000000 ) ) ;
#394 = DIRECTION ( 'NONE',  ( -1.000000000000000000, 0.000000000000000000, 0.000000000000000000 ) ) ;
#395 = ADVANCED_FACE ( 'NONE', ( #520 ), #180, .T. ) ;
#396 = DATE_AND_TIME ( #143, #430 ) ;
#397 = LINE ( 'NONE', #295, #297 ) ;
#398 = APPROVAL_ROLE ( '' ) ;
#399 = CC_DESIGN_DATE_AND_TIME_ASSIGNMENT ( #39, #440, ( #128 ) ) ;
#400 = AXIS2_PLACEMENT_3D ( 'NONE', #604, #16, #420 ) ;
#401 = DIRECTION ( 'NONE',  ( 0.000000000000000000, -0.000000000000000000, 1.000000000000000000 ) ) ;
#402 = EDGE_CURVE ( 'NONE', #314, #436, #40, .T. ) ;
#403 = ORIENTED_EDGE ( 'NONE', *, *, #363, .T. ) ;
#404 = DIRECTION ( 'NONE',  ( -0.000000000000000000, -0.000000000000000000, -1.000000000000000000 ) ) ;
#405 = APPLICATION_CONTEXT ( 'configuration controlled 3d designs of mechanical parts and assemblies' ) ;
#406 = CARTESIAN_POINT ( 'NONE',  ( -45.00000000000001421, 47.50000000000000000, 0.000000000000000000 ) ) ;
#407 = PLANE ( 'NONE',  #139 ) ;
#408 = VECTOR ( 'NONE', #606, 1000.000000000000000 ) ;
#409 = LINE ( 'NONE', #464, #496 ) ;
#410 = ORIENTED_EDGE ( 'NONE', *, *, #113, .F. ) ;
#411 = DIRECTION ( 'NONE',  ( 0.000000000000000000, 0.000000000000000000, 1.000000000000000000 ) ) ;
#412 = CARTESIAN_POINT ( 'NONE',  ( 49.99999999999998579, -45.00000000000000711, 0.000000000000000000 ) ) ;
#413 = ADVANCED_FACE ( 'NONE', ( #622 ), #185, .F. ) ;
#414 = CARTESIAN_POINT ( 'NONE',  ( -45.00000000000001421, 45.00000000000000711, 1000.000000000000000 ) ) ;
#415 = DIRECTION ( 'NONE',  ( 0.000000000000000000, 1.000000000000000000, 0.000000000000000000 ) ) ;
#416 = ORIENTED_EDGE ( 'NONE', *, *, #44, .F. ) ;
#417 = CC_DESIGN_DATE_AND_TIME_ASSIGNMENT ( #494, #187, ( #535 ) ) ;
#418 = DIRECTION ( 'NONE',  ( -1.000000000000000000, 0.000000000000000000, 0.000000000000000000 ) ) ;
#419 = VECTOR ( 'NONE', #495, 1000.000000000000000 ) ;
#420 = DIRECTION ( 'NONE',  ( -7.709882115452475701E-17, -1.000000000000000000, 0.000000000000000000 ) ) ;
#421 = ORIENTED_EDGE ( 'NONE', *, *, #51, .F. ) ;
#422 = CARTESIAN_POINT ( 'NONE',  ( 45.00000000000000000, 47.50000000000000000, 1000.000000000000000 ) ) ;
#423 = VERTEX_POINT ( 'NONE', #625 ) ;
#424 = DIRECTION ( 'NONE',  ( -1.000000000000000000, 0.000000000000000000, 0.000000000000000000 ) ) ;
#425 = CARTESIAN_POINT ( 'NONE',  ( -50.00000000000000711, -45.00000000000000711, 1000.000000000000000 ) ) ;
#426 = VERTEX_POINT ( 'NONE', #172 ) ;
#427 = CARTESIAN_POINT ( 'NONE',  ( -45.00000000000001421, -45.00000000000000711, 1000.000000000000000 ) ) ;
#428 = AXIS2_PLACEMENT_3D ( 'NONE', #309, #360, #214 ) ;
#429 = ORIENTED_EDGE ( 'NONE', *, *, #638, .T. ) ;
#430 = LOCAL_TIME ( 15, 43, 2.000000000000000000, #341 ) ;
#431 = CALENDAR_DATE ( 2026, 16, 4 ) ;
#432 = DIRECTION ( 'NONE',  ( 7.709882115452475701E-17, 1.000000000000000000, 0.000000000000000000 ) ) ;
#433 = VERTEX_POINT ( 'NONE', #175 ) ;
#434 = ADVANCED_FACE ( 'NONE', ( #631 ), #577, .F. ) ;
#435 = FACE_OUTER_BOUND ( 'NONE', #586, .T. ) ;
#436 = VERTEX_POINT ( 'NONE', #373 ) ;
#437 = ORIENTED_EDGE ( 'NONE', *, *, #120, .F. ) ;
#438 = VERTEX_POINT ( 'NONE', #126 ) ;
#439 = AXIS2_PLACEMENT_3D ( 'NONE', #132, #319, #28 ) ;
#440 = DATE_TIME_ROLE ( 'creation_date' ) ;
#441 = LOCAL_TIME ( 15, 43, 2.000000000000000000, #48 ) ;
#442 = ADVANCED_FACE ( 'NONE', ( #130 ), #573, .F. ) ;
#443 = CARTESIAN_POINT ( 'NONE',  ( -45.00000000000001421, -45.00000000000000711, 1000.000000000000000 ) ) ;
#444 = ADVANCED_BREP_SHAPE_REPRESENTATION ( 'Square - 100.0 X 100.0 X 2.50', ( #590, #217 ), #179 ) ;
#445 = VERTEX_POINT ( 'NONE', #635 ) ;
#446 = EDGE_CURVE ( 'NONE', #314, #465, #478, .T. ) ;
#447 = CARTESIAN_POINT ( 'NONE',  ( 45.00000000000000000, -45.00000000000000711, 1000.000000000000000 ) ) ;
#448 = CARTESIAN_POINT ( 'NONE',  ( 49.99999999999998579, 45.00000000000000711, 1000.000000000000000 ) ) ;
#449 = EDGE_CURVE ( 'NONE', #511, #492, #364, .T. ) ;
#450 = VECTOR ( 'NONE', #161, 1000.000000000000000 ) ;
#451 = AXIS2_PLACEMENT_3D ( 'NONE', #414, #209, #296 ) ;
#452 = CARTESIAN_POINT ( 'NONE',  ( 49.99999999999998579, 45.00000000000000711, 1000.000000000000000 ) ) ;
#453 = APPROVAL ( #194, 'UNSPECIFIED' ) ;
#454 = CARTESIAN_POINT ( 'NONE',  ( -45.00000000000001421, 50.00000000000000000, 1000.000000000000000 ) ) ;
#455 = DIRECTION ( 'NONE',  ( -0.000000000000000000, -0.000000000000000000, -1.000000000000000000 ) ) ;
#456 = LINE ( 'NONE', #250, #408 ) ;
#457 = DIRECTION ( 'NONE',  ( -0.000000000000000000, 0.000000000000000000, -1.000000000000000000 ) ) ;
#458 = VERTEX_POINT ( 'NONE', #236 ) ;
#459 = CARTESIAN_POINT ( 'NONE',  ( -45.00000000000001421, -45.00000000000000711, 1000.000000000000000 ) ) ;
#460 = VECTOR ( 'NONE', #304, 1000.000000000000000 ) ;
#461 = CARTESIAN_POINT ( 'NONE',  ( -45.00000000000001421, -50.00000000000000000, 1000.000000000000000 ) ) ;
#462 = ORIENTED_EDGE ( 'NONE', *, *, #86, .T. ) ;
#463 = CARTESIAN_POINT ( 'NONE',  ( -45.00000000000001421, -47.50000000000000000, 1000.000000000000000 ) ) ;
#464 = CARTESIAN_POINT ( 'NONE',  ( -47.50000000000000711, -45.00000000000000711, 1000.000000000000000 ) ) ;
#465 = VERTEX_POINT ( 'NONE', #393 ) ;
#466 = DIRECTION ( 'NONE',  ( -1.000000000000000000, 0.000000000000000000, 0.000000000000000000 ) ) ;
#467 = FACE_OUTER_BOUND ( 'NONE', #617, .T. ) ;
#468 = EDGE_CURVE ( 'NONE', #426, #548, #8, .T. ) ;
#469 = PLANE ( 'NONE',  #138 ) ;
#470 = ORIENTED_EDGE ( 'NONE', *, *, #493, .F. ) ;
#471 = DIRECTION ( 'NONE',  ( -0.000000000000000000, -0.000000000000000000, -1.000000000000000000 ) ) ;
#472 = CARTESIAN_POINT ( 'NONE',  ( 45.00000000000000000, -47.50000000000000000, 1000.000000000000000 ) ) ;
#473 = ORIENTED_EDGE ( 'NONE', *, *, #2, .T. ) ;
#474 = CARTESIAN_POINT ( 'NONE',  ( -45.00000000000001421, 50.00000000000000000, 1000.000000000000000 ) ) ;
#475 = EDGE_CURVE ( 'NONE', #445, #426, #503, .T. ) ;
#476 = VERTEX_POINT ( 'NONE', #555 ) ;
#477 = DIRECTION ( 'NONE',  ( -1.000000000000000000, 0.000000000000000000, 0.000000000000000000 ) ) ;
#478 = LINE ( 'NONE', #33, #216 ) ;
#479 = VECTOR ( 'NONE', #557, 1000.000000000000000 ) ;
#480 = EDGE_CURVE ( 'NONE', #46, #390, #67, .T. ) ;
#481 = ORIENTED_EDGE ( 'NONE', *, *, #493, .T. ) ;
#482 = PRODUCT_DEFINITION_FORMATION_WITH_SPECIFIED_SOURCE ( 'ANY', '', #55, .NOT_KNOWN. ) ;
#483 = DIRECTION ( 'NONE',  ( 0.000000000000000000, 0.000000000000000000, 1.000000000000000000 ) ) ;
#484 = DIRECTION ( 'NONE',  ( -1.000000000000000000, 0.000000000000000000, 0.000000000000000000 ) ) ;
#485 = ORIENTED_EDGE ( 'NONE', *, *, #446, .F. ) ;
#486 = LINE ( 'NONE', #324, #144 ) ;
#487 = ORIENTED_EDGE ( 'NONE', *, *, #205, .T. ) ;
#488 = CARTESIAN_POINT ( 'NONE',  ( 47.50000000000000000, 45.00000000000000711, 0.000000000000000000 ) ) ;
#489 = VECTOR ( 'NONE', #653, 1000.000000000000000 ) ;
#490 = DIRECTION ( 'NONE',  ( -0.000000000000000000, -1.000000000000000000, -0.000000000000000000 ) ) ;
#491 = ORIENTED_EDGE ( 'NONE', *, *, #652, .F. ) ;
#492 = VERTEX_POINT ( 'NONE', #104 ) ;
#493 = EDGE_CURVE ( 'NONE', #390, #433, #456, .T. ) ;
#494 = DATE_AND_TIME ( #596, #441 ) ;
#495 = DIRECTION ( 'NONE',  ( 0.000000000000000000, 1.000000000000000000, 0.000000000000000000 ) ) ;
#496 = VECTOR ( 'NONE', #210, 1000.000000000000000 ) ;
#497 = CARTESIAN_POINT ( 'NONE',  ( 45.00000000000000000, -45.00000000000000711, 0.000000000000000000 ) ) ;
#498 = APPROVAL_PERSON_ORGANIZATION ( #134, #634, #618 ) ;
#499 = ORIENTED_EDGE ( 'NONE', *, *, #480, .T. ) ;
#500 = CARTESIAN_POINT ( 'NONE',  ( -47.50000000000000711, 45.00000000000000711, 1000.000000000000000 ) ) ;
#501 = LINE ( 'NONE', #56, #460 ) ;
#502 = ORIENTED_EDGE ( 'NONE', *, *, #10, .F. ) ;
#503 = LINE ( 'NONE', #259, #254 ) ;
#504 = ADVANCED_FACE ( 'NONE', ( #112 ), #507, .F. ) ;
#505 = CARTESIAN_POINT ( 'NONE',  ( -45.00000000000001421, 45.00000000000000711, 0.000000000000000000 ) ) ;
#506 = ORIENTED_EDGE ( 'NONE', *, *, #446, .T. ) ;
#507 = CYLINDRICAL_SURFACE ( 'NONE', #342, 2.500000000000002220 ) ;
#508 = CIRCLE ( 'NONE', #270, 2.499999999999995115 ) ;
#509 = FACE_OUTER_BOUND ( 'NONE', #232, .T. ) ;
#510 = EDGE_CURVE ( 'NONE', #87, #539, #109, .T. ) ;
#511 = VERTEX_POINT ( 'NONE', #263 ) ;
#512 = CARTESIAN_POINT ( 'NONE',  ( -45.00000000000001421, 50.00000000000000000, 0.000000000000000000 ) ) ;
#513 = CARTESIAN_POINT ( 'NONE',  ( -47.50000000000000711, 45.00000000000000711, 1000.000000000000000 ) ) ;
#514 = EDGE_CURVE ( 'NONE', #436, #66, #151, .T. ) ;
#515 = APPROVAL_DATE_TIME ( #169, #634 ) ;
#516 = LINE ( 'NONE', #513, #246 ) ;
#517 = ORIENTED_EDGE ( 'NONE', *, *, #205, .F. ) ;
#518 = CIRCLE ( 'NONE', #320, 4.999999999999997335 ) ;
#519 = AXIS2_PLACEMENT_3D ( 'NONE', #570, #72, #466 ) ;
#520 = FACE_OUTER_BOUND ( 'NONE', #234, .T. ) ;
#521 = LOCAL_TIME ( 15, 43, 2.000000000000000000, #190 ) ;
#522 = VERTEX_POINT ( 'NONE', #306 ) ;
#523 = DESIGN_CONTEXT ( 'detailed design', #405, 'design' ) ;
#524 =( NAMED_UNIT ( * ) PLANE_ANGLE_UNIT ( ) SI_UNIT ( $, .RADIAN. ) );
#525 = DIRECTION ( 'NONE',  ( -0.000000000000000000, -0.000000000000000000, -1.000000000000000000 ) ) ;
#526 = ORIENTED_EDGE ( 'NONE', *, *, #285, .T. ) ;
#527 = ADVANCED_FACE ( 'NONE', ( #611 ), #212, .F. ) ;
#528 = DIRECTION ( 'NONE',  ( 0.000000000000000000, -0.000000000000000000, -1.000000000000000000 ) ) ;
#529 = ORIENTED_EDGE ( 'NONE', *, *, #646, .F. ) ;
#530 = LINE ( 'NONE', #575, #632 ) ;
#531 = DIRECTION ( 'NONE',  ( -1.000000000000000000, 0.000000000000000000, 0.000000000000000000 ) ) ;
#532 = ADVANCED_FACE ( 'NONE', ( #12 ), #58, .T. ) ;
#533 = AXIS2_PLACEMENT_3D ( 'NONE', #474, #585, #528 ) ;
#534 = ORIENTED_EDGE ( 'NONE', *, *, #29, .T. ) ;
#535 = SECURITY_CLASSIFICATION ( '', '', #97 ) ;
#536 = EDGE_CURVE ( 'NONE', #284, #571, #629, .T. ) ;
#537 = APPROVAL_DATE_TIME ( #396, #453 ) ;
#538 = CARTESIAN_POINT ( 'NONE',  ( -50.00000000000000711, -45.00000000000000711, 1000.000000000000000 ) ) ;
#539 = VERTEX_POINT ( 'NONE', #603 ) ;
#540 = ADVANCED_FACE ( 'NONE', ( #312 ), #301, .T. ) ;
#541 = DIRECTION ( 'NONE',  ( -1.000000000000000000, -0.000000000000000000, -0.000000000000000000 ) ) ;
#542 = DIRECTION ( 'NONE',  ( 1.000000000000000000, 0.000000000000000000, 0.000000000000000000 ) ) ;
#543 = VECTOR ( 'NONE', #82, 1000.000000000000000 ) ;
#544 = PERSON_AND_ORGANIZATION_ROLE ( 'creator' ) ;
#545 = CIRCLE ( 'NONE', #310, 4.999999999999990230 ) ;
#546 = ORIENTED_EDGE ( 'NONE', *, *, #2, .F. ) ;
#547 = CALENDAR_DATE ( 2026, 16, 4 ) ;
#548 = VERTEX_POINT ( 'NONE', #512 ) ;
#549 = EDGE_CURVE ( 'NONE', #433, #465, #380, .T. ) ;
#550 = LINE ( 'NONE', #200, #188 ) ;
#551 = CARTESIAN_POINT ( 'NONE',  ( 47.50000000000000000, 45.00000000000000711, 1000.000000000000000 ) ) ;
#552 = CARTESIAN_POINT ( 'NONE',  ( -45.00000000000001421, -45.00000000000000711, 0.000000000000000000 ) ) ;
#553 = CIRCLE ( 'NONE', #268, 2.499999999999995115 ) ;
#554 = AXIS2_PLACEMENT_3D ( 'NONE', #355, #267, #110 ) ;
#555 = CARTESIAN_POINT ( 'NONE',  ( -45.00000000000001421, 47.50000000000000000, 0.000000000000000000 ) ) ;
#556 = CC_DESIGN_APPROVAL ( #81, ( #482 ) ) ;
#557 = DIRECTION ( 'NONE',  ( -0.000000000000000000, -0.000000000000000000, -1.000000000000000000 ) ) ;
#558 = EDGE_CURVE ( 'NONE', #423, #34, #545, .T. ) ;
#559 = CARTESIAN_POINT ( 'NONE',  ( 45.00000000000000000, 45.00000000000000711, 1000.000000000000000 ) ) ;
#560 = DIRECTION ( 'NONE',  ( -0.000000000000000000, -0.000000000000000000, -1.000000000000000000 ) ) ;
#561 = ORIENTED_EDGE ( 'NONE', *, *, #343, .F. ) ;
#562 = CYLINDRICAL_SURFACE ( 'NONE', #168, 4.999999999999990230 ) ;
#563 = DIRECTION ( 'NONE',  ( 0.000000000000000000, 0.000000000000000000, 1.000000000000000000 ) ) ;
#564 = ORIENTED_EDGE ( 'NONE', *, *, #285, .F. ) ;
#565 = DIRECTION ( 'NONE',  ( -1.000000000000000000, 0.000000000000000000, 0.000000000000000000 ) ) ;
#566 = CIRCLE ( 'NONE', #167, 4.999999999999997335 ) ;
#567 = LINE ( 'NONE', #219, #239 ) ;
#568 = ORIENTED_EDGE ( 'NONE', *, *, #98, .T. ) ;
#569 = LINE ( 'NONE', #129, #32 ) ;
#570 = CARTESIAN_POINT ( 'NONE',  ( -45.00000000000001421, -45.00000000000000711, 1000.000000000000000 ) ) ;
#571 = VERTEX_POINT ( 'NONE', #500 ) ;
#572 = CARTESIAN_POINT ( 'NONE',  ( 45.00000000000000000, 45.00000000000000711, 0.000000000000000000 ) ) ;
#573 = PLANE ( 'NONE',  #439 ) ;
#574 = ORIENTED_EDGE ( 'NONE', *, *, #549, .F. ) ;
#575 = CARTESIAN_POINT ( 'NONE',  ( -50.00000000000000711, -45.00000000000000711, 1000.000000000000000 ) ) ;
#576 = CIRCLE ( 'NONE', #7, 4.999999999999990230 ) ;
#577 = PLANE ( 'NONE',  #605 ) ;
#578 = LOCAL_TIME ( 15, 43, 2.000000000000000000, #315 ) ;
#579 = ORIENTED_EDGE ( 'NONE', *, *, #257, .T. ) ;
#580 = DIRECTION ( 'NONE',  ( 1.000000000000000000, 0.000000000000000000, 0.000000000000000000 ) ) ;
#581 = ADVANCED_FACE ( 'NONE', ( #160 ), #407, .T. ) ;
#582 = CARTESIAN_POINT ( 'NONE',  ( -45.00000000000001421, 47.50000000000000000, 1000.000000000000000 ) ) ;
#583 = ORIENTED_EDGE ( 'NONE', *, *, #646, .T. ) ;
#584 = CARTESIAN_POINT ( 'NONE',  ( 49.99999999999998579, -45.00000000000000711, 1000.000000000000000 ) ) ;
#585 = DIRECTION ( 'NONE',  ( 0.000000000000000000, -1.000000000000000000, 0.000000000000000000 ) ) ;
#586 = EDGE_LOOP ( 'NONE', ( #421, #211, #328, #579 ) ) ;
#587 = PLANE ( 'NONE',  #178 ) ;
#588 = ADVANCED_FACE ( 'NONE', ( #356 ), #562, .T. ) ;
#589 = ORIENTED_EDGE ( 'NONE', *, *, #244, .T. ) ;
#590 = MANIFOLD_SOLID_BREP ( 'Boss-Extrude1', #332 ) ;
#591 = AXIS2_PLACEMENT_3D ( 'NONE', #497, #411, #52 ) ;
#592 = CC_DESIGN_PERSON_AND_ORGANIZATION_ASSIGNMENT ( #369, #122, ( #128 ) ) ;
#593 = VERTEX_POINT ( 'NONE', #277 ) ;
#594 = SHAPE_DEFINITION_REPRESENTATION ( #367, #444 ) ;
#595 = LINE ( 'NONE', #292, #489 ) ;
#596 = CALENDAR_DATE ( 2026, 16, 4 ) ;
#597 = CARTESIAN_POINT ( 'NONE',  ( -45.00000000000001421, -47.50000000000000000, 0.000000000000000000 ) ) ;
#598 = VECTOR ( 'NONE', #542, 1000.000000000000000 ) ;
#599 = PERSON_AND_ORGANIZATION ( #191, #78 ) ;
#600 = EDGE_CURVE ( 'NONE', #66, #339, #117, .T. ) ;
#601 = EDGE_LOOP ( 'NONE', ( #568, #229, #529, #637 ) ) ;
#602 = DIRECTION ( 'NONE',  ( 0.000000000000000000, 0.000000000000000000, 1.000000000000000000 ) ) ;
#603 = CARTESIAN_POINT ( 'NONE',  ( -50.00000000000000711, -45.00000000000000711, 0.000000000000000000 ) ) ;
#604 = CARTESIAN_POINT ( 'NONE',  ( 47.49999999999999289, -45.00000000000000711, 1000.000000000000000 ) ) ;
#605 = AXIS2_PLACEMENT_3D ( 'NONE', #85, #278, #382 ) ;
#606 = DIRECTION ( 'NONE',  ( -0.000000000000000000, -0.000000000000000000, -1.000000000000000000 ) ) ;
#607 = AXIS2_PLACEMENT_3D ( 'NONE', #459, #614, #164 ) ;
#608 = FACE_OUTER_BOUND ( 'NONE', #215, .T. ) ;
#609 = PRODUCT_RELATED_PRODUCT_CATEGORY ( 'detail', '', ( #55 ) ) ;
#610 = VERTEX_POINT ( 'NONE', #218 ) ;
#611 = FACE_OUTER_BOUND ( 'NONE', #189, .T. ) ;
#612 = CARTESIAN_POINT ( 'NONE',  ( 45.00000000000000000, -50.00000000000000000, 1000.000000000000000 ) ) ;
#613 = ORIENTED_EDGE ( 'NONE', *, *, #10, .T. ) ;
#614 = DIRECTION ( 'NONE',  ( -0.000000000000000000, -0.000000000000000000, -1.000000000000000000 ) ) ;
#615 = ADVANCED_FACE ( 'NONE', ( #467, #75 ), #376, .T. ) ;
#616 = CARTESIAN_POINT ( 'NONE',  ( 45.00000000000000000, 45.00000000000000711, 1000.000000000000000 ) ) ;
#617 = EDGE_LOOP ( 'NONE', ( #502, #640, #317, #643, #276, #223, #102, #385 ) ) ;
#618 = APPROVAL_ROLE ( '' ) ;
#619 = CIRCLE ( 'NONE', #554, 4.999999999999990230 ) ;
#620 = CYLINDRICAL_SURFACE ( 'NONE', #428, 2.499999999999995115 ) ;
#621 = ORIENTED_EDGE ( 'NONE', *, *, #374, .T. ) ;
#622 = FACE_OUTER_BOUND ( 'NONE', #171, .T. ) ;
#623 = ORIENTED_EDGE ( 'NONE', *, *, #257, .F. ) ;
#624 = DIRECTION ( 'NONE',  ( 0.000000000000000000, 0.000000000000000000, 1.000000000000000000 ) ) ;
#625 = CARTESIAN_POINT ( 'NONE',  ( 45.00000000000000000, -50.00000000000000000, 0.000000000000000000 ) ) ;
#626 = EDGE_CURVE ( 'NONE', #311, #539, #530, .T. ) ;
#627 = ORIENTED_EDGE ( 'NONE', *, *, #475, .F. ) ;
#628 = CARTESIAN_POINT ( 'NONE',  ( 0.000000000000000000, 0.000000000000000000, 0.000000000000000000 ) ) ;
#629 = CIRCLE ( 'NONE', #451, 2.499999999999995115 ) ;
#630 = APPROVAL_PERSON_ORGANIZATION ( #599, #81, #346 ) ;
#631 = FACE_OUTER_BOUND ( 'NONE', #601, .T. ) ;
#632 = VECTOR ( 'NONE', #272, 1000.000000000000000 ) ;
#633 = EDGE_LOOP ( 'NONE', ( #166, #80, #280, #258 ) ) ;
#634 = APPROVAL ( #318, 'UNSPECIFIED' ) ;
#635 = CARTESIAN_POINT ( 'NONE',  ( 45.00000000000000000, 50.00000000000000000, 1000.000000000000000 ) ) ;
#636 = ORIENTED_EDGE ( 'NONE', *, *, #103, .T. ) ;
#637 = ORIENTED_EDGE ( 'NONE', *, *, #147, .T. ) ;
#638 = EDGE_CURVE ( 'NONE', #438, #34, #18, .T. ) ;
#639 = DIRECTION ( 'NONE',  ( -0.000000000000000000, -0.000000000000000000, -1.000000000000000000 ) ) ;
#640 = ORIENTED_EDGE ( 'NONE', *, *, #510, .F. ) ;
#641 = CIRCLE ( 'NONE', #353, 4.999999999999997335 ) ;
#642 = AXIS2_PLACEMENT_3D ( 'NONE', #538, #275, #386 ) ;
#643 = ORIENTED_EDGE ( 'NONE', *, *, #231, .F. ) ;
#644 = CC_DESIGN_APPROVAL ( #453, ( #535 ) ) ;
#645 = DIRECTION ( 'NONE',  ( 0.000000000000000000, 0.000000000000000000, 1.000000000000000000 ) ) ;
#646 = EDGE_CURVE ( 'NONE', #299, #133, #569, .T. ) ;
#647 = DATE_AND_TIME ( #547, #521 ) ;
#648 = CARTESIAN_POINT ( 'NONE',  ( 49.99999999999998579, -45.00000000000000711, 0.000000000000000000 ) ) ;
#649 = APPROVAL_DATE_TIME ( #647, #81 ) ;
#650 = LINE ( 'NONE', #288, #419 ) ;
#651 = VECTOR ( 'NONE', #432, 1000.000000000000000 ) ;
#652 = EDGE_CURVE ( 'NONE', #593, #60, #62, .T. ) ;
#653 = DIRECTION ( 'NONE',  ( 1.000000000000000000, 0.000000000000000000, 0.000000000000000000 ) ) ;
ENDSEC;
END-ISO-10303-21;
