ISO-10303-21;
HEADER;
FILE_DESCRIPTION (( 'STEP AP203' ),
    '1' );
FILE_NAME ('Square - 70.0 X 70.0 X 2.00.step',
    '2026-04-16T14:02:01',
    ( '' ),
    ( '' ),
    'SwSTEP 2.0',
    'SolidWorks 2023',
    '' );
FILE_SCHEMA (( 'CONFIG_CONTROL_DESIGN' ));
ENDSEC;

DATA;
#1 = LOCAL_TIME ( 16, 2, 1.000000000000000000, #406 ) ;
#2 = VECTOR ( 'NONE', #49, 1000.000000000000000 ) ;
#3 = FACE_OUTER_BOUND ( 'NONE', #85, .T. ) ;
#4 = ORIENTED_EDGE ( 'NONE', *, *, #651, .F. ) ;
#5 = CALENDAR_DATE ( 2026, 16, 4 ) ;
#6 = VERTEX_POINT ( 'NONE', #309 ) ;
#7 = ORIENTED_EDGE ( 'NONE', *, *, #230, .F. ) ;
#8 = EDGE_CURVE ( 'NONE', #372, #71, #55, .T. ) ;
#9 = VERTEX_POINT ( 'NONE', #632 ) ;
#10 = ORIENTED_EDGE ( 'NONE', *, *, #506, .F. ) ;
#11 = ORIENTED_EDGE ( 'NONE', *, *, #138, .F. ) ;
#12 = CARTESIAN_POINT ( 'NONE',  ( -31.00000000000000355, 30.99999999999999645, 0.000000000000000000 ) ) ;
#13 = VERTEX_POINT ( 'NONE', #79 ) ;
#14 = VERTEX_POINT ( 'NONE', #374 ) ;
#15 = CIRCLE ( 'NONE', #595, 2.000000000000001776 ) ;
#16 = CIRCLE ( 'NONE', #464, 4.000000000000003553 ) ;
#17 = ORIENTED_EDGE ( 'NONE', *, *, #430, .F. ) ;
#18 = ORIENTED_EDGE ( 'NONE', *, *, #92, .T. ) ;
#19 = DIRECTION ( 'NONE',  ( -0.000000000000000000, -0.000000000000000000, -1.000000000000000000 ) ) ;
#20 = EDGE_CURVE ( 'NONE', #594, #592, #341, .T. ) ;
#21 = ORIENTED_EDGE ( 'NONE', *, *, #152, .T. ) ;
#22 = PERSON_AND_ORGANIZATION ( #442, #630 ) ;
#23 = CARTESIAN_POINT ( 'NONE',  ( 31.00000000000000000, -31.00000000000000000, 1000.000000000000000 ) ) ;
#24 = CARTESIAN_POINT ( 'NONE',  ( -31.00000000000000355, 32.99999999999999289, 0.000000000000000000 ) ) ;
#25 = ADVANCED_FACE ( 'NONE', ( #180, #337 ), #545, .T. ) ;
#26 = DIRECTION ( 'NONE',  ( -1.000000000000000000, -0.000000000000000000, -0.000000000000000000 ) ) ;
#27 = VERTEX_POINT ( 'NONE', #541 ) ;
#28 = PLANE ( 'NONE',  #237 ) ;
#29 = VECTOR ( 'NONE', #43, 1000.000000000000000 ) ;
#30 = PRODUCT_DEFINITION_FORMATION_WITH_SPECIFIED_SOURCE ( 'ANY', '', #636, .NOT_KNOWN. ) ;
#31 = DIRECTION ( 'NONE',  ( 1.000000000000000000, 0.000000000000000000, 0.000000000000000000 ) ) ;
#32 = EDGE_LOOP ( 'NONE', ( #618, #153, #478, #141 ) ) ;
#33 = DIRECTION ( 'NONE',  ( 0.000000000000000000, 0.000000000000000000, 1.000000000000000000 ) ) ;
#34 = CARTESIAN_POINT ( 'NONE',  ( -31.00000000000000355, 32.99999999999999289, 1000.000000000000000 ) ) ;
#35 = CARTESIAN_POINT ( 'NONE',  ( -31.00000000000000000, -33.00000000000000000, 1000.000000000000000 ) ) ;
#36 = EDGE_CURVE ( 'NONE', #592, #210, #579, .T. ) ;
#37 = AXIS2_PLACEMENT_3D ( 'NONE', #23, #259, #215 ) ;
#38 = DIRECTION ( 'NONE',  ( 0.000000000000000000, 1.000000000000000000, 0.000000000000000000 ) ) ;
#39 = DIRECTION ( 'NONE',  ( -1.000000000000000000, 0.000000000000000000, 0.000000000000000000 ) ) ;
#40 = APPROVAL ( #301, 'UNSPECIFIED' ) ;
#41 = CARTESIAN_POINT ( 'NONE',  ( 30.99999999999999645, 32.99999999999999289, 0.000000000000000000 ) ) ;
#42 = ORIENTED_EDGE ( 'NONE', *, *, #625, .F. ) ;
#43 = DIRECTION ( 'NONE',  ( -0.000000000000000000, -0.000000000000000000, -1.000000000000000000 ) ) ;
#44 = DIRECTION ( 'NONE',  ( -1.000000000000000000, -0.000000000000000000, -0.000000000000000000 ) ) ;
#45 = AXIS2_PLACEMENT_3D ( 'NONE', #228, #216, #162 ) ;
#46 = CARTESIAN_POINT ( 'NONE',  ( -31.00000000000000000, -31.00000000000000355, 0.000000000000000000 ) ) ;
#47 = AXIS2_PLACEMENT_3D ( 'NONE', #384, #87, #291 ) ;
#48 = ADVANCED_FACE ( 'NONE', ( #382 ), #168, .T. ) ;
#49 = DIRECTION ( 'NONE',  ( 0.000000000000000000, 1.000000000000000000, 0.000000000000000000 ) ) ;
#50 = ADVANCED_FACE ( 'NONE', ( #136 ), #288, .F. ) ;
#51 = EDGE_CURVE ( 'NONE', #607, #13, #129, .T. ) ;
#52 = AXIS2_PLACEMENT_3D ( 'NONE', #224, #178, #418 ) ;
#53 = CARTESIAN_POINT ( 'NONE',  ( 31.00000000000000000, 30.99999999999999645, 0.000000000000000000 ) ) ;
#54 = APPROVAL_PERSON_ORGANIZATION ( #158, #452, #201 ) ;
#55 = LINE ( 'NONE', #516, #333 ) ;
#56 = VERTEX_POINT ( 'NONE', #298 ) ;
#57 = APPROVAL_ROLE ( '' ) ;
#58 = VERTEX_POINT ( 'NONE', #256 ) ;
#59 = ADVANCED_FACE ( 'NONE', ( #203, #567 ), #357, .F. ) ;
#60 = COORDINATED_UNIVERSAL_TIME_OFFSET ( 2, 0, .AHEAD. ) ;
#61 = DIRECTION ( 'NONE',  ( -1.119176436114069085E-16, -1.000000000000000000, -0.000000000000000000 ) ) ;
#62 = ORIENTED_EDGE ( 'NONE', *, *, #252, .F. ) ;
#63 = DIRECTION ( 'NONE',  ( -1.000000000000000000, 0.000000000000000000, 0.000000000000000000 ) ) ;
#64 = ORIENTED_EDGE ( 'NONE', *, *, #588, .T. ) ;
#65 = CARTESIAN_POINT ( 'NONE',  ( 31.00000000000000000, -35.00000000000000711, 0.000000000000000000 ) ) ;
#66 = PLANE ( 'NONE',  #646 ) ;
#67 = AXIS2_PLACEMENT_3D ( 'NONE', #501, #362, #308 ) ;
#68 = VECTOR ( 'NONE', #74, 1000.000000000000000 ) ;
#69 = COORDINATED_UNIVERSAL_TIME_OFFSET ( 2, 0, .AHEAD. ) ;
#70 = DIRECTION ( 'NONE',  ( -1.000000000000000000, 0.000000000000000000, 0.000000000000000000 ) ) ;
#71 = VERTEX_POINT ( 'NONE', #449 ) ;
#72 = CARTESIAN_POINT ( 'NONE',  ( -33.00000000000000000, -31.00000000000000355, 0.000000000000000000 ) ) ;
#73 = ADVANCED_FACE ( 'NONE', ( #3 ), #157, .F. ) ;
#74 = DIRECTION ( 'NONE',  ( 1.000000000000000000, -1.119176436114069085E-16, 0.000000000000000000 ) ) ;
#75 = CARTESIAN_POINT ( 'NONE',  ( 35.00000000000000711, -31.00000000000000000, 1000.000000000000000 ) ) ;
#76 = FACE_OUTER_BOUND ( 'NONE', #318, .T. ) ;
#77 = ORIENTED_EDGE ( 'NONE', *, *, #634, .T. ) ;
#78 = DIRECTION ( 'NONE',  ( 1.000000000000000000, 0.000000000000000000, 0.000000000000000000 ) ) ;
#79 = CARTESIAN_POINT ( 'NONE',  ( 35.00000000000000711, 30.99999999999999645, 0.000000000000000000 ) ) ;
#80 = AXIS2_PLACEMENT_3D ( 'NONE', #46, #124, #336 ) ;
#81 = DIRECTION ( 'NONE',  ( 0.000000000000000000, 0.000000000000000000, 1.000000000000000000 ) ) ;
#82 = FACE_OUTER_BOUND ( 'NONE', #303, .T. ) ;
#83 = LINE ( 'NONE', #647, #183 ) ;
#84 = ADVANCED_BREP_SHAPE_REPRESENTATION ( 'Square - 70.0 X 70.0 X 2.00', ( #502, #248 ), #598 ) ;
#85 = EDGE_LOOP ( 'NONE', ( #560, #4, #317, #232 ) ) ;
#86 = DIRECTION ( 'NONE',  ( 1.119176436114069085E-16, 1.000000000000000000, -0.000000000000000000 ) ) ;
#87 = DIRECTION ( 'NONE',  ( 0.000000000000000000, 1.000000000000000000, 0.000000000000000000 ) ) ;
#88 = VECTOR ( 'NONE', #370, 1000.000000000000000 ) ;
#89 = ORIENTED_EDGE ( 'NONE', *, *, #491, .F. ) ;
#90 = ORIENTED_EDGE ( 'NONE', *, *, #358, .F. ) ;
#91 = DIRECTION ( 'NONE',  ( -1.000000000000000000, 0.000000000000000000, 0.000000000000000000 ) ) ;
#92 = EDGE_CURVE ( 'NONE', #375, #602, #130, .T. ) ;
#93 = LINE ( 'NONE', #480, #547 ) ;
#94 = ADVANCED_FACE ( 'NONE', ( #200 ), #410, .T. ) ;
#95 = DIRECTION ( 'NONE',  ( 0.000000000000000000, -0.000000000000000000, -1.000000000000000000 ) ) ;
#96 = EDGE_CURVE ( 'NONE', #71, #375, #608, .T. ) ;
#97 = AXIS2_PLACEMENT_3D ( 'NONE', #108, #312, #63 ) ;
#98 = AXIS2_PLACEMENT_3D ( 'NONE', #589, #441, #95 ) ;
#99 = EDGE_LOOP ( 'NONE', ( #612, #199, #10, #351 ) ) ;
#100 = CC_DESIGN_PERSON_AND_ORGANIZATION_ASSIGNMENT ( #400, #321, ( #495 ) ) ;
#101 = DIRECTION ( 'NONE',  ( 0.000000000000000000, 0.000000000000000000, 1.000000000000000000 ) ) ;
#102 = VECTOR ( 'NONE', #597, 1000.000000000000000 ) ;
#103 = ORIENTED_EDGE ( 'NONE', *, *, #591, .F. ) ;
#104 = LOCAL_TIME ( 16, 2, 1.000000000000000000, #508 ) ;
#105 = ORIENTED_EDGE ( 'NONE', *, *, #620, .F. ) ;
#106 = APPROVAL_ROLE ( '' ) ;
#107 = ORIENTED_EDGE ( 'NONE', *, *, #392, .T. ) ;
#108 = CARTESIAN_POINT ( 'NONE',  ( 31.00000000000000000, 30.99999999999999645, 1000.000000000000000 ) ) ;
#109 = DIRECTION ( 'NONE',  ( 0.000000000000000000, 0.000000000000000000, 1.000000000000000000 ) ) ;
#110 = COORDINATED_UNIVERSAL_TIME_OFFSET ( 2, 0, .AHEAD. ) ;
#111 = LINE ( 'NONE', #316, #68 ) ;
#112 = ORIENTED_EDGE ( 'NONE', *, *, #8, .F. ) ;
#113 = APPROVAL_STATUS ( 'not_yet_approved' ) ;
#114 = CARTESIAN_POINT ( 'NONE',  ( 33.00000000000000000, 30.99999999999999645, 1000.000000000000000 ) ) ;
#115 = DIRECTION ( 'NONE',  ( -0.000000000000000000, -1.000000000000000000, -0.000000000000000000 ) ) ;
#116 = CARTESIAN_POINT ( 'NONE',  ( 31.00000000000000000, -31.00000000000000000, 1000.000000000000000 ) ) ;
#117 = ORIENTED_EDGE ( 'NONE', *, *, #252, .T. ) ;
#118 = LINE ( 'NONE', #535, #562 ) ;
#119 = CARTESIAN_POINT ( 'NONE',  ( -31.00000000000000355, 32.99999999999999289, 1000.000000000000000 ) ) ;
#120 = CARTESIAN_POINT ( 'NONE',  ( -31.00000000000000000, -35.00000000000000000, 1000.000000000000000 ) ) ;
#121 = DIRECTION ( 'NONE',  ( 0.000000000000000000, 0.000000000000000000, 1.000000000000000000 ) ) ;
#122 = CLOSED_SHELL ( 'NONE', ( #59, #25, #606, #327, #242, #212, #94, #421, #446, #239, #352, #601, #574, #202, #73, #48, #50, #142 ) ) ;
#123 = VECTOR ( 'NONE', #492, 1000.000000000000000 ) ;
#124 = DIRECTION ( 'NONE',  ( 0.000000000000000000, 0.000000000000000000, 1.000000000000000000 ) ) ;
#125 = CARTESIAN_POINT ( 'NONE',  ( -31.00000000000000355, 34.99999999999999289, 1000.000000000000000 ) ) ;
#126 = DIRECTION ( 'NONE',  ( 0.000000000000000000, 0.000000000000000000, 1.000000000000000000 ) ) ;
#127 = DIRECTION ( 'NONE',  ( 0.000000000000000000, -1.000000000000000000, 0.000000000000000000 ) ) ;
#128 = CARTESIAN_POINT ( 'NONE',  ( 33.00000000000000000, -31.00000000000000000, 1000.000000000000000 ) ) ;
#129 = LINE ( 'NONE', #150, #484 ) ;
#130 = CIRCLE ( 'NONE', #462, 2.000000000000001776 ) ;
#131 = VECTOR ( 'NONE', #26, 1000.000000000000000 ) ;
#132 = LINE ( 'NONE', #344, #151 ) ;
#133 = DIRECTION ( 'NONE',  ( 0.000000000000000000, -0.000000000000000000, -1.000000000000000000 ) ) ;
#134 = EDGE_LOOP ( 'NONE', ( #401, #112, #266, #244 ) ) ;
#135 = CYLINDRICAL_SURFACE ( 'NONE', #465, 4.000000000000000000 ) ;
#136 = FACE_OUTER_BOUND ( 'NONE', #402, .T. ) ;
#137 = EDGE_LOOP ( 'NONE', ( #623, #457, #320, #304 ) ) ;
#138 = EDGE_CURVE ( 'NONE', #613, #539, #512, .T. ) ;
#139 = AXIS2_PLACEMENT_3D ( 'NONE', #578, #329, #631 ) ;
#140 = VECTOR ( 'NONE', #44, 1000.000000000000000 ) ;
#141 = ORIENTED_EDGE ( 'NONE', *, *, #339, .T. ) ;
#142 = ADVANCED_FACE ( 'NONE', ( #531 ), #471, .T. ) ;
#143 = VERTEX_POINT ( 'NONE', #414 ) ;
#144 = APPROVAL_DATE_TIME ( #609, #40 ) ;
#145 = ORIENTED_EDGE ( 'NONE', *, *, #330, .F. ) ;
#146 = PERSON_AND_ORGANIZATION ( #442, #630 ) ;
#147 = CARTESIAN_POINT ( 'NONE',  ( -35.00000000000000711, -31.00000000000000355, 0.000000000000000000 ) ) ;
#148 = AXIS2_PLACEMENT_3D ( 'NONE', #583, #176, #575 ) ;
#149 = ORIENTED_EDGE ( 'NONE', *, *, #405, .T. ) ;
#150 = CARTESIAN_POINT ( 'NONE',  ( 35.00000000000000711, 30.99999999999999645, 1000.000000000000000 ) ) ;
#151 = VECTOR ( 'NONE', #287, 1000.000000000000000 ) ;
#152 = EDGE_CURVE ( 'NONE', #210, #174, #220, .T. ) ;
#153 = ORIENTED_EDGE ( 'NONE', *, *, #553, .F. ) ;
#154 = SHAPE_DEFINITION_REPRESENTATION ( #367, #84 ) ;
#155 = CARTESIAN_POINT ( 'NONE',  ( -31.00000000000000355, 32.99999999999999289, 1000.000000000000000 ) ) ;
#156 = ORIENTED_EDGE ( 'NONE', *, *, #138, .T. ) ;
#157 = CYLINDRICAL_SURFACE ( 'NONE', #97, 2.000000000000001776 ) ;
#158 = PERSON_AND_ORGANIZATION ( #442, #630 ) ;
#159 = LINE ( 'NONE', #573, #342 ) ;
#160 = ORIENTED_EDGE ( 'NONE', *, *, #8, .T. ) ;
#161 = ORIENTED_EDGE ( 'NONE', *, *, #273, .F. ) ;
#162 = DIRECTION ( 'NONE',  ( -1.000000000000000000, 0.000000000000000000, 0.000000000000000000 ) ) ;
#163 = DATE_AND_TIME ( #5, #513 ) ;
#164 = DIRECTION ( 'NONE',  ( 0.000000000000000000, 0.000000000000000000, 1.000000000000000000 ) ) ;
#165 = EDGE_CURVE ( 'NONE', #9, #71, #15, .T. ) ;
#166 = CARTESIAN_POINT ( 'NONE',  ( 35.00000000000000711, -31.00000000000000000, 0.000000000000000000 ) ) ;
#167 = VECTOR ( 'NONE', #326, 1000.000000000000000 ) ;
#168 = PLANE ( 'NONE',  #584 ) ;
#169 = VECTOR ( 'NONE', #533, 1000.000000000000000 ) ;
#170 = LINE ( 'NONE', #181, #169 ) ;
#171 = DIRECTION ( 'NONE',  ( -0.000000000000000000, -0.000000000000000000, -1.000000000000000000 ) ) ;
#172 = ORIENTED_EDGE ( 'NONE', *, *, #448, .T. ) ;
#173 = CARTESIAN_POINT ( 'NONE',  ( 35.00000000000000711, -31.00000000000000000, 1000.000000000000000 ) ) ;
#174 = VERTEX_POINT ( 'NONE', #638 ) ;
#175 = ORIENTED_EDGE ( 'NONE', *, *, #435, .F. ) ;
#176 = DIRECTION ( 'NONE',  ( 0.000000000000000000, 0.000000000000000000, 1.000000000000000000 ) ) ;
#177 = EDGE_CURVE ( 'NONE', #174, #445, #624, .T. ) ;
#178 = DIRECTION ( 'NONE',  ( 0.000000000000000000, 0.000000000000000000, 1.000000000000000000 ) ) ;
#179 = DIRECTION ( 'NONE',  ( 1.000000000000000000, 0.000000000000000000, 0.000000000000000000 ) ) ;
#180 = FACE_OUTER_BOUND ( 'NONE', #225, .T. ) ;
#181 = CARTESIAN_POINT ( 'NONE',  ( 33.00000000000000000, 30.99999999999999645, 1000.000000000000000 ) ) ;
#182 = AXIS2_PLACEMENT_3D ( 'NONE', #236, #126, #443 ) ;
#183 = VECTOR ( 'NONE', #391, 1000.000000000000000 ) ;
#184 = DIRECTION ( 'NONE',  ( 0.000000000000000000, 0.000000000000000000, 1.000000000000000000 ) ) ;
#185 = LINE ( 'NONE', #649, #614 ) ;
#186 = CARTESIAN_POINT ( 'NONE',  ( -31.00000000000000000, -31.00000000000000355, 1000.000000000000000 ) ) ;
#187 = AXIS2_PLACEMENT_3D ( 'NONE', #558, #610, #515 ) ;
#188 = CC_DESIGN_APPROVAL ( #40, ( #30 ) ) ;
#189 = CARTESIAN_POINT ( 'NONE',  ( 35.00000000000000711, -31.00000000000000000, 0.000000000000000000 ) ) ;
#190 = DIRECTION ( 'NONE',  ( -0.000000000000000000, -0.000000000000000000, -1.000000000000000000 ) ) ;
#191 = ORIENTED_EDGE ( 'NONE', *, *, #230, .T. ) ;
#192 = DIRECTION ( 'NONE',  ( -0.000000000000000000, -0.000000000000000000, -1.000000000000000000 ) ) ;
#193 = EDGE_CURVE ( 'NONE', #174, #627, #332, .T. ) ;
#194 = DIRECTION ( 'NONE',  ( -1.000000000000000000, 0.000000000000000000, 0.000000000000000000 ) ) ;
#195 = VECTOR ( 'NONE', #637, 1000.000000000000000 ) ;
#196 = DIRECTION ( 'NONE',  ( -1.000000000000000000, 0.000000000000000000, 0.000000000000000000 ) ) ;
#197 = EDGE_LOOP ( 'NONE', ( #246, #7, #260, #149 ) ) ;
#198 = APPROVAL_DATE_TIME ( #163, #452 ) ;
#199 = ORIENTED_EDGE ( 'NONE', *, *, #588, .F. ) ;
#200 = FACE_OUTER_BOUND ( 'NONE', #461, .T. ) ;
#201 = APPROVAL_ROLE ( '' ) ;
#202 = ADVANCED_FACE ( 'NONE', ( #538 ), #479, .T. ) ;
#203 = FACE_OUTER_BOUND ( 'NONE', #241, .T. ) ;
#204 = PERSON_AND_ORGANIZATION ( #442, #630 ) ;
#205 = DIRECTION ( 'NONE',  ( 0.000000000000000000, 0.000000000000000000, 1.000000000000000000 ) ) ;
#206 = AXIS2_PLACEMENT_3D ( 'NONE', #120, #86, #283 ) ;
#207 = ORIENTED_EDGE ( 'NONE', *, *, #427, .F. ) ;
#208 = CIRCLE ( 'NONE', #182, 2.000000000000001776 ) ;
#209 = LINE ( 'NONE', #577, #131 ) ;
#210 = VERTEX_POINT ( 'NONE', #540 ) ;
#211 = FACE_OUTER_BOUND ( 'NONE', #197, .T. ) ;
#212 = ADVANCED_FACE ( 'NONE', ( #635 ), #66, .F. ) ;
#213 = CARTESIAN_POINT ( 'NONE',  ( -31.00000000000000000, -31.00000000000000355, 0.000000000000000000 ) ) ;
#214 = CALENDAR_DATE ( 2026, 16, 4 ) ;
#215 = DIRECTION ( 'NONE',  ( -1.000000000000000000, 0.000000000000000000, 0.000000000000000000 ) ) ;
#216 = DIRECTION ( 'NONE',  ( -0.000000000000000000, -0.000000000000000000, -1.000000000000000000 ) ) ;
#217 = CC_DESIGN_PERSON_AND_ORGANIZATION_ASSIGNMENT ( #146, #527, ( #636 ) ) ;
#218 = ORIENTED_EDGE ( 'NONE', *, *, #51, .T. ) ;
#219 = CARTESIAN_POINT ( 'NONE',  ( 31.00000000000000000, -31.00000000000000000, 1000.000000000000000 ) ) ;
#220 = CIRCLE ( 'NONE', #148, 1.999999999999998224 ) ;
#221 = CC_DESIGN_APPROVAL ( #452, ( #495 ) ) ;
#222 = PLANE ( 'NONE',  #47 ) ;
#223 = DIRECTION ( 'NONE',  ( 1.000000000000000000, 0.000000000000000000, 0.000000000000000000 ) ) ;
#224 = CARTESIAN_POINT ( 'NONE',  ( 31.00000000000000000, 30.99999999999999645, 1000.000000000000000 ) ) ;
#225 = EDGE_LOOP ( 'NONE', ( #271, #440, #89, #90, #568, #525, #422, #633 ) ) ;
#226 = ORIENTED_EDGE ( 'NONE', *, *, #51, .F. ) ;
#227 = EDGE_CURVE ( 'NONE', #530, #437, #526, .T. ) ;
#228 = CARTESIAN_POINT ( 'NONE',  ( 31.00000000000000000, -31.00000000000000000, 1000.000000000000000 ) ) ;
#229 = CARTESIAN_POINT ( 'NONE',  ( -31.00000000000000355, 30.99999999999999645, 1000.000000000000000 ) ) ;
#230 = EDGE_CURVE ( 'NONE', #613, #466, #319, .T. ) ;
#231 = VECTOR ( 'NONE', #528, 1000.000000000000000 ) ;
#232 = ORIENTED_EDGE ( 'NONE', *, *, #639, .T. ) ;
#233 = LINE ( 'NONE', #292, #433 ) ;
#234 = DIRECTION ( 'NONE',  ( -0.000000000000000000, -0.000000000000000000, -1.000000000000000000 ) ) ;
#235 = EDGE_LOOP ( 'NONE', ( #331, #396, #521, #354 ) ) ;
#236 = CARTESIAN_POINT ( 'NONE',  ( -31.00000000000000000, -31.00000000000000355, 1000.000000000000000 ) ) ;
#237 = AXIS2_PLACEMENT_3D ( 'NONE', #277, #268, #469 ) ;
#238 = CIRCLE ( 'NONE', #347, 4.000000000000010658 ) ;
#239 = ADVANCED_FACE ( 'NONE', ( #211 ), #28, .F. ) ;
#240 = DIRECTION ( 'NONE',  ( -1.000000000000000000, 0.000000000000000000, 0.000000000000000000 ) ) ;
#241 = EDGE_LOOP ( 'NONE', ( #156, #566, #247, #299, #361, #276, #349, #570 ) ) ;
#242 = ADVANCED_FACE ( 'NONE', ( #467 ), #476, .T. ) ;
#243 = CARTESIAN_POINT ( 'NONE',  ( 33.00000000000000000, -31.00000000000000000, 0.000000000000000000 ) ) ;
#244 = ORIENTED_EDGE ( 'NONE', *, *, #651, .T. ) ;
#245 = CARTESIAN_POINT ( 'NONE',  ( -31.00000000000000000, -31.00000000000000355, 1000.000000000000000 ) ) ;
#246 = ORIENTED_EDGE ( 'NONE', *, *, #510, .T. ) ;
#247 = ORIENTED_EDGE ( 'NONE', *, *, #506, .T. ) ;
#248 = AXIS2_PLACEMENT_3D ( 'NONE', #415, #101, #315 ) ;
#249 = ORIENTED_EDGE ( 'NONE', *, *, #620, .T. ) ;
#250 = DIRECTION ( 'NONE',  ( -1.000000000000000000, 0.000000000000000000, 0.000000000000000000 ) ) ;
#251 = VERTEX_POINT ( 'NONE', #364 ) ;
#252 = EDGE_CURVE ( 'NONE', #445, #617, #428, .T. ) ;
#253 = CALENDAR_DATE ( 2026, 16, 4 ) ;
#254 = ORIENTED_EDGE ( 'NONE', *, *, #553, .T. ) ;
#255 = ORIENTED_EDGE ( 'NONE', *, *, #165, .T. ) ;
#256 = CARTESIAN_POINT ( 'NONE',  ( -31.00000000000000000, -35.00000000000000000, 0.000000000000000000 ) ) ;
#257 = EDGE_LOOP ( 'NONE', ( #582, #507, #482, #160 ) ) ;
#258 = APPROVAL_STATUS ( 'not_yet_approved' ) ;
#259 = DIRECTION ( 'NONE',  ( -0.000000000000000000, -0.000000000000000000, -1.000000000000000000 ) ) ;
#260 = ORIENTED_EDGE ( 'NONE', *, *, #557, .F. ) ;
#261 = DIRECTION ( 'NONE',  ( 0.000000000000000000, 0.000000000000000000, 1.000000000000000000 ) ) ;
#262 = VERTEX_POINT ( 'NONE', #24 ) ;
#263 = DIRECTION ( 'NONE',  ( -0.000000000000000000, -0.000000000000000000, -1.000000000000000000 ) ) ;
#264 = VECTOR ( 'NONE', #115, 1000.000000000000000 ) ;
#265 = VECTOR ( 'NONE', #38, 1000.000000000000000 ) ;
#266 = ORIENTED_EDGE ( 'NONE', *, *, #477, .T. ) ;
#267 = EDGE_CURVE ( 'NONE', #437, #13, #417, .T. ) ;
#268 = DIRECTION ( 'NONE',  ( 1.000000000000000000, -1.119176436114069085E-16, 0.000000000000000000 ) ) ;
#269 = ORIENTED_EDGE ( 'NONE', *, *, #587, .T. ) ;
#270 = CARTESIAN_POINT ( 'NONE',  ( -33.00000000000000000, -31.00000000000000355, 1000.000000000000000 ) ) ;
#271 = ORIENTED_EDGE ( 'NONE', *, *, #448, .F. ) ;
#272 = DIRECTION ( 'NONE',  ( -0.000000000000000000, -1.000000000000000000, -0.000000000000000000 ) ) ;
#273 = EDGE_CURVE ( 'NONE', #143, #9, #118, .T. ) ;
#274 = DIRECTION ( 'NONE',  ( 1.000000000000000000, 0.000000000000000000, 0.000000000000000000 ) ) ;
#275 = CYLINDRICAL_SURFACE ( 'NONE', #409, 4.000000000000003553 ) ;
#276 = ORIENTED_EDGE ( 'NONE', *, *, #427, .T. ) ;
#277 = CARTESIAN_POINT ( 'NONE',  ( -35.00000000000000711, -31.00000000000000355, 1000.000000000000000 ) ) ;
#278 = VECTOR ( 'NONE', #363, 1000.000000000000000 ) ;
#279 = ORIENTED_EDGE ( 'NONE', *, *, #605, .T. ) ;
#280 = CARTESIAN_POINT ( 'NONE',  ( 31.00000000000000000, -31.00000000000000000, 0.000000000000000000 ) ) ;
#281 = DIRECTION ( 'NONE',  ( -0.000000000000000000, 0.000000000000000000, -1.000000000000000000 ) ) ;
#282 = APPROVAL ( #258, 'UNSPECIFIED' ) ;
#283 = DIRECTION ( 'NONE',  ( -1.000000000000000000, 1.119176436114069085E-16, 0.000000000000000000 ) ) ;
#284 = DIRECTION ( 'NONE',  ( -0.000000000000000000, -0.000000000000000000, -1.000000000000000000 ) ) ;
#285 = LINE ( 'NONE', #328, #195 ) ;
#286 = VERTEX_POINT ( 'NONE', #75 ) ;
#287 = DIRECTION ( 'NONE',  ( -1.000000000000000000, -0.000000000000000000, -0.000000000000000000 ) ) ;
#288 = CYLINDRICAL_SURFACE ( 'NONE', #554, 1.999999999999998224 ) ;
#289 = AXIS2_PLACEMENT_3D ( 'NONE', #429, #274, #524 ) ;
#290 = CIRCLE ( 'NONE', #486, 4.000000000000003553 ) ;
#291 = DIRECTION ( 'NONE',  ( 0.000000000000000000, -0.000000000000000000, 1.000000000000000000 ) ) ;
#292 = CARTESIAN_POINT ( 'NONE',  ( -35.00000000000000000, 30.99999999999999645, 1000.000000000000000 ) ) ;
#293 = ORIENTED_EDGE ( 'NONE', *, *, #477, .F. ) ;
#294 = DIRECTION ( 'NONE',  ( -1.000000000000000000, 0.000000000000000000, 0.000000000000000000 ) ) ;
#295 = DIRECTION ( 'NONE',  ( -0.000000000000000000, -0.000000000000000000, -1.000000000000000000 ) ) ;
#296 = AXIS2_PLACEMENT_3D ( 'NONE', #340, #438, #548 ) ;
#297 = CARTESIAN_POINT ( 'NONE',  ( -35.00000000000000711, -31.00000000000000355, 1000.000000000000000 ) ) ;
#298 = CARTESIAN_POINT ( 'NONE',  ( -31.00000000000000000, -33.00000000000000000, 1000.000000000000000 ) ) ;
#299 = ORIENTED_EDGE ( 'NONE', *, *, #330, .T. ) ;
#300 = LINE ( 'NONE', #439, #123 ) ;
#301 = APPROVAL_STATUS ( 'not_yet_approved' ) ;
#302 = APPLICATION_CONTEXT ( 'configuration controlled 3d designs of mechanical parts and assemblies' ) ;
#303 = EDGE_LOOP ( 'NONE', ( #161, #307, #249, #279 ) ) ;
#304 = ORIENTED_EDGE ( 'NONE', *, *, #591, .T. ) ;
#305 = SECURITY_CLASSIFICATION_LEVEL ( 'unclassified' ) ;
#306 = LOCAL_TIME ( 16, 2, 1.000000000000000000, #69 ) ;
#307 = ORIENTED_EDGE ( 'NONE', *, *, #339, .F. ) ;
#308 = DIRECTION ( 'NONE',  ( -1.000000000000000000, 0.000000000000000000, 0.000000000000000000 ) ) ;
#309 = CARTESIAN_POINT ( 'NONE',  ( -35.00000000000000000, 30.99999999999999645, 1000.000000000000000 ) ) ;
#310 = CC_DESIGN_DATE_AND_TIME_ASSIGNMENT ( #611, #565, ( #563 ) ) ;
#311 = CALENDAR_DATE ( 2026, 16, 4 ) ;
#312 = DIRECTION ( 'NONE',  ( -0.000000000000000000, -0.000000000000000000, -1.000000000000000000 ) ) ;
#313 = ORIENTED_EDGE ( 'NONE', *, *, #500, .T. ) ;
#314 = EDGE_CURVE ( 'NONE', #27, #372, #497, .T. ) ;
#315 = DIRECTION ( 'NONE',  ( 1.000000000000000000, 0.000000000000000000, 0.000000000000000000 ) ) ;
#316 = CARTESIAN_POINT ( 'NONE',  ( -31.00000000000000000, -35.00000000000000000, 0.000000000000000000 ) ) ;
#317 = ORIENTED_EDGE ( 'NONE', *, *, #20, .T. ) ;
#318 = EDGE_LOOP ( 'NONE', ( #172, #385, #11, #191 ) ) ;
#319 = LINE ( 'NONE', #628, #167 ) ;
#320 = ORIENTED_EDGE ( 'NONE', *, *, #36, .T. ) ;
#321 = PERSON_AND_ORGANIZATION_ROLE ( 'creator' ) ;
#322 = DIRECTION ( 'NONE',  ( 0.000000000000000000, 0.000000000000000000, 1.000000000000000000 ) ) ;
#323 = VECTOR ( 'NONE', #263, 1000.000000000000000 ) ;
#324 = CARTESIAN_POINT ( 'NONE',  ( -33.00000000000000000, -31.00000000000000355, 1000.000000000000000 ) ) ;
#325 = FACE_OUTER_BOUND ( 'NONE', #257, .T. ) ;
#326 = DIRECTION ( 'NONE',  ( -0.000000000000000000, -0.000000000000000000, -1.000000000000000000 ) ) ;
#327 = ADVANCED_FACE ( 'NONE', ( #373 ), #581, .F. ) ;
#328 = CARTESIAN_POINT ( 'NONE',  ( -31.00000000000000000, -35.00000000000000000, 1000.000000000000000 ) ) ;
#329 = DIRECTION ( 'NONE',  ( -1.000000000000000000, 0.000000000000000000, 0.000000000000000000 ) ) ;
#330 = EDGE_CURVE ( 'NONE', #286, #607, #93, .T. ) ;
#331 = ORIENTED_EDGE ( 'NONE', *, *, #491, .T. ) ;
#332 = LINE ( 'NONE', #324, #264 ) ;
#333 = VECTOR ( 'NONE', #284, 1000.000000000000000 ) ;
#334 = AXIS2_PLACEMENT_3D ( 'NONE', #12, #205, #416 ) ;
#335 = CC_DESIGN_PERSON_AND_ORGANIZATION_ASSIGNMENT ( #404, #522, ( #30 ) ) ;
#336 = DIRECTION ( 'NONE',  ( -1.000000000000000000, 0.000000000000000000, 0.000000000000000000 ) ) ;
#337 = FACE_BOUND ( 'NONE', #456, .T. ) ;
#338 = CARTESIAN_POINT ( 'NONE',  ( -35.00000000000000711, -31.00000000000000355, 0.000000000000000000 ) ) ;
#339 = EDGE_CURVE ( 'NONE', #56, #143, #550, .T. ) ;
#340 = CARTESIAN_POINT ( 'NONE',  ( -31.00000000000000000, -31.00000000000000355, 0.000000000000000000 ) ) ;
#341 = CIRCLE ( 'NONE', #52, 2.000000000000001776 ) ;
#342 = VECTOR ( 'NONE', #407, 1000.000000000000000 ) ;
#343 = CARTESIAN_POINT ( 'NONE',  ( 31.00000000000000000, -35.00000000000000711, 1000.000000000000000 ) ) ;
#344 = CARTESIAN_POINT ( 'NONE',  ( -31.00000000000000355, 34.99999999999999289, 0.000000000000000000 ) ) ;
#345 = CARTESIAN_POINT ( 'NONE',  ( -31.00000000000000355, 30.99999999999999645, 1000.000000000000000 ) ) ;
#346 = EDGE_CURVE ( 'NONE', #539, #425, #432, .T. ) ;
#347 = AXIS2_PLACEMENT_3D ( 'NONE', #116, #322, #397 ) ;
#348 = EDGE_LOOP ( 'NONE', ( #569, #523, #511, #77 ) ) ;
#349 = ORIENTED_EDGE ( 'NONE', *, *, #395, .T. ) ;
#350 = PERSON_AND_ORGANIZATION_ROLE ( 'creator' ) ;
#351 = ORIENTED_EDGE ( 'NONE', *, *, #366, .T. ) ;
#352 = ADVANCED_FACE ( 'NONE', ( #642 ), #389, .F. ) ;
#353 = ORIENTED_EDGE ( 'NONE', *, *, #177, .F. ) ;
#354 = ORIENTED_EDGE ( 'NONE', *, *, #596, .T. ) ;
#355 = DATE_AND_TIME ( #214, #306 ) ;
#356 = APPROVAL_PERSON_ORGANIZATION ( #204, #282, #106 ) ;
#357 = PLANE ( 'NONE',  #431 ) ;
#358 = EDGE_CURVE ( 'NONE', #413, #14, #132, .T. ) ;
#359 = EDGE_LOOP ( 'NONE', ( #455, #519, #207, #499 ) ) ;
#360 = PERSON_AND_ORGANIZATION ( #442, #630 ) ;
#361 = ORIENTED_EDGE ( 'NONE', *, *, #625, .T. ) ;
#362 = DIRECTION ( 'NONE',  ( -0.000000000000000000, -0.000000000000000000, -1.000000000000000000 ) ) ;
#363 = DIRECTION ( 'NONE',  ( -1.119176436114069085E-16, -1.000000000000000000, -0.000000000000000000 ) ) ;
#364 = CARTESIAN_POINT ( 'NONE',  ( -35.00000000000000000, 30.99999999999999645, 0.000000000000000000 ) ) ;
#365 = LINE ( 'NONE', #518, #604 ) ;
#366 = EDGE_CURVE ( 'NONE', #425, #530, #185, .T. ) ;
#367 = PRODUCT_DEFINITION_SHAPE ( 'NONE', 'NONE',  #495 ) ;
#368 = AXIS2_PLACEMENT_3D ( 'NONE', #585, #121, #78 ) ;
#369 = VECTOR ( 'NONE', #436, 1000.000000000000000 ) ;
#370 = DIRECTION ( 'NONE',  ( 0.000000000000000000, 1.000000000000000000, 0.000000000000000000 ) ) ;
#371 = ORIENTED_EDGE ( 'NONE', *, *, #273, .T. ) ;
#372 = VERTEX_POINT ( 'NONE', #128 ) ;
#373 = FACE_OUTER_BOUND ( 'NONE', #348, .T. ) ;
#374 = CARTESIAN_POINT ( 'NONE',  ( -31.00000000000000355, 34.99999999999999289, 0.000000000000000000 ) ) ;
#375 = VERTEX_POINT ( 'NONE', #593 ) ;
#376 = EDGE_LOOP ( 'NONE', ( #17, #403, #571, #537, #564, #293, #561, #105 ) ) ;
#377 = DIRECTION ( 'NONE',  ( -1.000000000000000000, 0.000000000000000000, 0.000000000000000000 ) ) ;
#378 = CC_DESIGN_PERSON_AND_ORGANIZATION_ASSIGNMENT ( #360, #514, ( #563 ) ) ;
#379 = DIRECTION ( 'NONE',  ( -1.000000000000000000, 0.000000000000000000, 0.000000000000000000 ) ) ;
#380 = VECTOR ( 'NONE', #19, 1000.000000000000000 ) ;
#381 = CARTESIAN_POINT ( 'NONE',  ( -33.00000000000000000, 30.99999999999999645, 1000.000000000000000 ) ) ;
#382 = FACE_OUTER_BOUND ( 'NONE', #137, .T. ) ;
#383 = AXIS2_PLACEMENT_3D ( 'NONE', #229, #184, #91 ) ;
#384 = CARTESIAN_POINT ( 'NONE',  ( -31.00000000000000000, -33.00000000000000000, 1000.000000000000000 ) ) ;
#385 = ORIENTED_EDGE ( 'NONE', *, *, #634, .F. ) ;
#386 = PLANE ( 'NONE',  #98 ) ;
#387 = ORIENTED_EDGE ( 'NONE', *, *, #96, .T. ) ;
#388 = CARTESIAN_POINT ( 'NONE',  ( -31.00000000000000000, -35.00000000000000000, 1000.000000000000000 ) ) ;
#389 = CYLINDRICAL_SURFACE ( 'NONE', #498, 2.000000000000001776 ) ;
#390 = APPROVAL_PERSON_ORGANIZATION ( #22, #40, #57 ) ;
#391 = DIRECTION ( 'NONE',  ( -0.000000000000000000, -0.000000000000000000, -1.000000000000000000 ) ) ;
#392 = EDGE_CURVE ( 'NONE', #617, #143, #453, .T. ) ;
#393 = CARTESIAN_POINT ( 'NONE',  ( 35.00000000000000711, 30.99999999999999645, 1000.000000000000000 ) ) ;
#394 = FACE_OUTER_BOUND ( 'NONE', #359, .T. ) ;
#395 = EDGE_CURVE ( 'NONE', #580, #6, #424, .T. ) ;
#396 = ORIENTED_EDGE ( 'NONE', *, *, #405, .F. ) ;
#397 = DIRECTION ( 'NONE',  ( 1.000000000000000000, 0.000000000000000000, 0.000000000000000000 ) ) ;
#398 = VECTOR ( 'NONE', #532, 1000.000000000000000 ) ;
#399 = VECTOR ( 'NONE', #171, 1000.000000000000000 ) ;
#400 = PERSON_AND_ORGANIZATION ( #442, #630 ) ;
#401 = ORIENTED_EDGE ( 'NONE', *, *, #96, .F. ) ;
#402 = EDGE_LOOP ( 'NONE', ( #556, #103, #21, #460 ) ) ;
#403 = ORIENTED_EDGE ( 'NONE', *, *, #193, .F. ) ;
#404 = PERSON_AND_ORGANIZATION ( #442, #630 ) ;
#405 = EDGE_CURVE ( 'NONE', #6, #251, #233, .T. ) ;
#406 = COORDINATED_UNIVERSAL_TIME_OFFSET ( 2, 0, .AHEAD. ) ;
#407 = DIRECTION ( 'NONE',  ( -0.000000000000000000, -0.000000000000000000, -1.000000000000000000 ) ) ;
#408 = VECTOR ( 'NONE', #272, 1000.000000000000000 ) ;
#409 = AXIS2_PLACEMENT_3D ( 'NONE', #473, #190, #549 ) ;
#410 = CYLINDRICAL_SURFACE ( 'NONE', #67, 4.000000000000003553 ) ;
#411 = APPLICATION_PROTOCOL_DEFINITION ( 'international standard', 'config_control_design', 1994, #470 ) ;
#412 = CARTESIAN_POINT ( 'NONE',  ( -31.00000000000000355, 30.99999999999999645, 0.000000000000000000 ) ) ;
#413 = VERTEX_POINT ( 'NONE', #490 ) ;
#414 = CARTESIAN_POINT ( 'NONE',  ( -31.00000000000000000, -33.00000000000000000, 0.000000000000000000 ) ) ;
#415 = CARTESIAN_POINT ( 'NONE',  ( 0.000000000000000000, 0.000000000000000000, 0.000000000000000000 ) ) ;
#416 = DIRECTION ( 'NONE',  ( -1.000000000000000000, 0.000000000000000000, 0.000000000000000000 ) ) ;
#417 = LINE ( 'NONE', #166, #88 ) ;
#418 = DIRECTION ( 'NONE',  ( -1.000000000000000000, 0.000000000000000000, 0.000000000000000000 ) ) ;
#419 = CARTESIAN_POINT ( 'NONE',  ( -33.00000000000000000, -31.00000000000000355, 1000.000000000000000 ) ) ;
#420 = LINE ( 'NONE', #629, #399 ) ;
#421 = ADVANCED_FACE ( 'NONE', ( #394 ), #386, .F. ) ;
#422 = ORIENTED_EDGE ( 'NONE', *, *, #227, .F. ) ;
#423 = AXIS2_PLACEMENT_3D ( 'NONE', #213, #281, #379 ) ;
#424 = CIRCLE ( 'NONE', #383, 4.000000000000000000 ) ;
#425 = VERTEX_POINT ( 'NONE', #343 ) ;
#426 = DIRECTION ( 'NONE',  ( 0.000000000000000000, 0.000000000000000000, 1.000000000000000000 ) ) ;
#427 = EDGE_CURVE ( 'NONE', #450, #580, #494, .T. ) ;
#428 = LINE ( 'NONE', #72, #408 ) ;
#429 = CARTESIAN_POINT ( 'NONE',  ( -33.00000000000000000, -31.00000000000000355, 1000.000000000000000 ) ) ;
#430 = EDGE_CURVE ( 'NONE', #627, #56, #208, .T. ) ;
#431 = AXIS2_PLACEMENT_3D ( 'NONE', #245, #520, #250 ) ;
#432 = LINE ( 'NONE', #388, #102 ) ;
#433 = VECTOR ( 'NONE', #234, 1000.000000000000000 ) ;
#434 =( NAMED_UNIT ( * ) PLANE_ANGLE_UNIT ( ) SI_UNIT ( $, .RADIAN. ) );
#435 = EDGE_CURVE ( 'NONE', #450, #413, #83, .T. ) ;
#436 = DIRECTION ( 'NONE',  ( -0.000000000000000000, -0.000000000000000000, -1.000000000000000000 ) ) ;
#437 = VERTEX_POINT ( 'NONE', #189 ) ;
#438 = DIRECTION ( 'NONE',  ( 0.000000000000000000, 0.000000000000000000, 1.000000000000000000 ) ) ;
#439 = CARTESIAN_POINT ( 'NONE',  ( -31.00000000000000000, -33.00000000000000000, 1000.000000000000000 ) ) ;
#440 = ORIENTED_EDGE ( 'NONE', *, *, #510, .F. ) ;
#441 = DIRECTION ( 'NONE',  ( 0.000000000000000000, -1.000000000000000000, 0.000000000000000000 ) ) ;
#442 = PERSON ( 'UNSPECIFIED', 'UNSPECIFIED', 'UNSPECIFIED', ('UNSPECIFIED'), ('UNSPECIFIED'), ('UNSPECIFIED') ) ;
#443 = DIRECTION ( 'NONE',  ( -1.000000000000000000, 0.000000000000000000, 0.000000000000000000 ) ) ;
#444 = CIRCLE ( 'NONE', #334, 1.999999999999998224 ) ;
#445 = VERTEX_POINT ( 'NONE', #599 ) ;
#446 = ADVANCED_FACE ( 'NONE', ( #496 ), #135, .T. ) ;
#447 = DIRECTION ( 'NONE',  ( -0.000000000000000000, -0.000000000000000000, -1.000000000000000000 ) ) ;
#448 = EDGE_CURVE ( 'NONE', #466, #58, #555, .T. ) ;
#449 = CARTESIAN_POINT ( 'NONE',  ( 33.00000000000000000, -31.00000000000000000, 0.000000000000000000 ) ) ;
#450 = VERTEX_POINT ( 'NONE', #544 ) ;
#451 = AXIS2_PLACEMENT_3D ( 'NONE', #219, #426, #223 ) ;
#452 = APPROVAL ( #113, 'UNSPECIFIED' ) ;
#453 = CIRCLE ( 'NONE', #296, 2.000000000000001776 ) ;
#454 = DESIGN_CONTEXT ( 'detailed design', #302, 'design' ) ;
#455 = ORIENTED_EDGE ( 'NONE', *, *, #358, .T. ) ;
#456 = EDGE_LOOP ( 'NONE', ( #117, #107, #371, #255, #387, #18, #619, #269 ) ) ;
#457 = ORIENTED_EDGE ( 'NONE', *, *, #639, .F. ) ;
#458 = CARTESIAN_POINT ( 'NONE',  ( 31.00000000000000000, 30.99999999999999645, 1000.000000000000000 ) ) ;
#459 = CARTESIAN_POINT ( 'NONE',  ( -31.00000000000000355, 34.99999999999999289, 1000.000000000000000 ) ) ;
#460 = ORIENTED_EDGE ( 'NONE', *, *, #177, .T. ) ;
#461 = EDGE_LOOP ( 'NONE', ( #313, #175, #42, #218 ) ) ;
#462 = AXIS2_PLACEMENT_3D ( 'NONE', #53, #261, #196 ) ;
#463 = PERSON_AND_ORGANIZATION ( #442, #630 ) ;
#464 = AXIS2_PLACEMENT_3D ( 'NONE', #652, #603, #194 ) ;
#465 = AXIS2_PLACEMENT_3D ( 'NONE', #552, #295, #240 ) ;
#466 = VERTEX_POINT ( 'NONE', #338 ) ;
#467 = FACE_OUTER_BOUND ( 'NONE', #99, .T. ) ;
#468 = LINE ( 'NONE', #147, #278 ) ;
#469 = DIRECTION ( 'NONE',  ( 1.119176436114069085E-16, 1.000000000000000000, 0.000000000000000000 ) ) ;
#470 = APPLICATION_CONTEXT ( 'configuration controlled 3d designs of mechanical parts and assemblies' ) ;
#471 = PLANE ( 'NONE',  #289 ) ;
#472 = CC_DESIGN_DATE_AND_TIME_ASSIGNMENT ( #355, #576, ( #495 ) ) ;
#473 = CARTESIAN_POINT ( 'NONE',  ( -31.00000000000000000, -31.00000000000000355, 1000.000000000000000 ) ) ;
#474 = CC_DESIGN_SECURITY_CLASSIFICATION ( #563, ( #30 ) ) ;
#475 = VECTOR ( 'NONE', #481, 1000.000000000000000 ) ;
#476 = CYLINDRICAL_SURFACE ( 'NONE', #45, 4.000000000000010658 ) ;
#477 = EDGE_CURVE ( 'NONE', #372, #594, #546, .T. ) ;
#478 = ORIENTED_EDGE ( 'NONE', *, *, #430, .T. ) ;
#479 = PLANE ( 'NONE',  #139 ) ;
#480 = CARTESIAN_POINT ( 'NONE',  ( 35.00000000000000711, -31.00000000000000000, 1000.000000000000000 ) ) ;
#481 = DIRECTION ( 'NONE',  ( -0.000000000000000000, -0.000000000000000000, -1.000000000000000000 ) ) ;
#482 = ORIENTED_EDGE ( 'NONE', *, *, #314, .T. ) ;
#483 = CC_DESIGN_APPROVAL ( #282, ( #563 ) ) ;
#484 = VECTOR ( 'NONE', #509, 1000.000000000000000 ) ;
#485 = CARTESIAN_POINT ( 'NONE',  ( 33.00000000000000000, -31.00000000000000000, 1000.000000000000000 ) ) ;
#486 = AXIS2_PLACEMENT_3D ( 'NONE', #458, #109, #586 ) ;
#487 = CC_DESIGN_PERSON_AND_ORGANIZATION_ASSIGNMENT ( #463, #350, ( #30 ) ) ;
#488 = DIRECTION ( 'NONE',  ( -0.000000000000000000, -0.000000000000000000, -1.000000000000000000 ) ) ;
#489 = LINE ( 'NONE', #125, #369 ) ;
#490 = CARTESIAN_POINT ( 'NONE',  ( 31.00000000000000000, 34.99999999999999289, 0.000000000000000000 ) ) ;
#491 = EDGE_CURVE ( 'NONE', #14, #251, #641, .T. ) ;
#492 = DIRECTION ( 'NONE',  ( 1.000000000000000000, 0.000000000000000000, 0.000000000000000000 ) ) ;
#493 = EDGE_LOOP ( 'NONE', ( #645, #226, #145, #64 ) ) ;
#494 = LINE ( 'NONE', #644, #140 ) ;
#495 = PRODUCT_DEFINITION ( 'UNKNOWN', '', #30, #454 ) ;
#496 = FACE_OUTER_BOUND ( 'NONE', #235, .T. ) ;
#497 = CIRCLE ( 'NONE', #451, 2.000000000000001776 ) ;
#498 = AXIS2_PLACEMENT_3D ( 'NONE', #186, #447, #294 ) ;
#499 = ORIENTED_EDGE ( 'NONE', *, *, #435, .T. ) ;
#500 = EDGE_CURVE ( 'NONE', #13, #413, #16, .T. ) ;
#501 = CARTESIAN_POINT ( 'NONE',  ( 31.00000000000000000, 30.99999999999999645, 1000.000000000000000 ) ) ;
#502 = MANIFOLD_SOLID_BREP ( 'Boss-Extrude1', #122 ) ;
#503 = CARTESIAN_POINT ( 'NONE',  ( -33.00000000000000000, -31.00000000000000355, 0.000000000000000000 ) ) ;
#504 = EDGE_LOOP ( 'NONE', ( #62, #353, #653, #254 ) ) ;
#505 = EDGE_CURVE ( 'NONE', #602, #262, #209, .T. ) ;
#506 = EDGE_CURVE ( 'NONE', #425, #286, #238, .T. ) ;
#507 = ORIENTED_EDGE ( 'NONE', *, *, #605, .F. ) ;
#508 = COORDINATED_UNIVERSAL_TIME_OFFSET ( 2, 0, .AHEAD. ) ;
#509 = DIRECTION ( 'NONE',  ( -0.000000000000000000, -0.000000000000000000, -1.000000000000000000 ) ) ;
#510 = EDGE_CURVE ( 'NONE', #251, #466, #468, .T. ) ;
#511 = ORIENTED_EDGE ( 'NONE', *, *, #346, .F. ) ;
#512 = CIRCLE ( 'NONE', #187, 4.000000000000003553 ) ;
#513 = LOCAL_TIME ( 16, 2, 1.000000000000000000, #110 ) ;
#514 = PERSON_AND_ORGANIZATION_ROLE ( 'classification_officer' ) ;
#515 = DIRECTION ( 'NONE',  ( -1.000000000000000000, 0.000000000000000000, 0.000000000000000000 ) ) ;
#516 = CARTESIAN_POINT ( 'NONE',  ( 33.00000000000000000, -31.00000000000000000, 1000.000000000000000 ) ) ;
#517 = DATE_AND_TIME ( #311, #1 ) ;
#518 = CARTESIAN_POINT ( 'NONE',  ( -35.00000000000000711, -31.00000000000000355, 1000.000000000000000 ) ) ;
#519 = ORIENTED_EDGE ( 'NONE', *, *, #596, .F. ) ;
#520 = DIRECTION ( 'NONE',  ( -0.000000000000000000, 0.000000000000000000, -1.000000000000000000 ) ) ;
#521 = ORIENTED_EDGE ( 'NONE', *, *, #395, .F. ) ;
#522 = PERSON_AND_ORGANIZATION_ROLE ( 'design_supplier' ) ;
#523 = ORIENTED_EDGE ( 'NONE', *, *, #366, .F. ) ;
#524 = DIRECTION ( 'NONE',  ( 0.000000000000000000, 0.000000000000000000, -1.000000000000000000 ) ) ;
#525 = ORIENTED_EDGE ( 'NONE', *, *, #267, .F. ) ;
#526 = CIRCLE ( 'NONE', #368, 4.000000000000010658 ) ;
#527 = PERSON_AND_ORGANIZATION_ROLE ( 'design_owner' ) ;
#528 = DIRECTION ( 'NONE',  ( -0.000000000000000000, -0.000000000000000000, -1.000000000000000000 ) ) ;
#529 = AXIS2_PLACEMENT_3D ( 'NONE', #412, #164, #70 ) ;
#530 = VERTEX_POINT ( 'NONE', #65 ) ;
#531 = FACE_OUTER_BOUND ( 'NONE', #504, .T. ) ;
#532 = DIRECTION ( 'NONE',  ( -1.000000000000000000, -0.000000000000000000, -0.000000000000000000 ) ) ;
#533 = DIRECTION ( 'NONE',  ( -0.000000000000000000, -0.000000000000000000, -1.000000000000000000 ) ) ;
#534 = CYLINDRICAL_SURFACE ( 'NONE', #37, 2.000000000000001776 ) ;
#535 = CARTESIAN_POINT ( 'NONE',  ( -31.00000000000000000, -33.00000000000000000, 0.000000000000000000 ) ) ;
#536 =( NAMED_UNIT ( * ) SI_UNIT ( $, .STERADIAN. ) SOLID_ANGLE_UNIT ( ) );
#537 = ORIENTED_EDGE ( 'NONE', *, *, #36, .F. ) ;
#538 = FACE_OUTER_BOUND ( 'NONE', #134, .T. ) ;
#539 = VERTEX_POINT ( 'NONE', #626 ) ;
#540 = CARTESIAN_POINT ( 'NONE',  ( -31.00000000000000355, 32.99999999999999289, 1000.000000000000000 ) ) ;
#541 = CARTESIAN_POINT ( 'NONE',  ( 31.00000000000000000, -33.00000000000000000, 1000.000000000000000 ) ) ;
#542 = CARTESIAN_POINT ( 'NONE',  ( 30.99999999999999645, 32.99999999999999289, 1000.000000000000000 ) ) ;
#543 = EDGE_CURVE ( 'NONE', #58, #530, #111, .T. ) ;
#544 = CARTESIAN_POINT ( 'NONE',  ( 31.00000000000000000, 34.99999999999999289, 1000.000000000000000 ) ) ;
#545 = PLANE ( 'NONE',  #423 ) ;
#546 = LINE ( 'NONE', #485, #265 ) ;
#547 = VECTOR ( 'NONE', #643, 1000.000000000000000 ) ;
#548 = DIRECTION ( 'NONE',  ( -1.000000000000000000, 0.000000000000000000, 0.000000000000000000 ) ) ;
#549 = DIRECTION ( 'NONE',  ( -1.000000000000000000, 0.000000000000000000, 0.000000000000000000 ) ) ;
#550 = LINE ( 'NONE', #35, #29 ) ;
#551 = PRODUCT_RELATED_PRODUCT_CATEGORY ( 'detail', '', ( #636 ) ) ;
#552 = CARTESIAN_POINT ( 'NONE',  ( -31.00000000000000355, 30.99999999999999645, 1000.000000000000000 ) ) ;
#553 = EDGE_CURVE ( 'NONE', #627, #617, #600, .T. ) ;
#554 = AXIS2_PLACEMENT_3D ( 'NONE', #345, #488, #39 ) ;
#555 = CIRCLE ( 'NONE', #80, 4.000000000000003553 ) ;
#556 = ORIENTED_EDGE ( 'NONE', *, *, #587, .F. ) ;
#557 = EDGE_CURVE ( 'NONE', #6, #613, #365, .T. ) ;
#558 = CARTESIAN_POINT ( 'NONE',  ( -31.00000000000000000, -31.00000000000000355, 1000.000000000000000 ) ) ;
#559 = CALENDAR_DATE ( 2026, 16, 4 ) ;
#560 = ORIENTED_EDGE ( 'NONE', *, *, #92, .F. ) ;
#561 = ORIENTED_EDGE ( 'NONE', *, *, #314, .F. ) ;
#562 = VECTOR ( 'NONE', #31, 1000.000000000000000 ) ;
#563 = SECURITY_CLASSIFICATION ( '', '', #305 ) ;
#564 = ORIENTED_EDGE ( 'NONE', *, *, #20, .F. ) ;
#565 = DATE_TIME_ROLE ( 'classification_date' ) ;
#566 = ORIENTED_EDGE ( 'NONE', *, *, #346, .T. ) ;
#567 = FACE_BOUND ( 'NONE', #376, .T. ) ;
#568 = ORIENTED_EDGE ( 'NONE', *, *, #500, .F. ) ;
#569 = ORIENTED_EDGE ( 'NONE', *, *, #543, .T. ) ;
#570 = ORIENTED_EDGE ( 'NONE', *, *, #557, .T. ) ;
#571 = ORIENTED_EDGE ( 'NONE', *, *, #152, .F. ) ;
#572 = MECHANICAL_CONTEXT ( 'NONE', #470, 'mechanical' ) ;
#573 = CARTESIAN_POINT ( 'NONE',  ( 35.00000000000000711, -31.00000000000000000, 1000.000000000000000 ) ) ;
#574 = ADVANCED_FACE ( 'NONE', ( #325 ), #534, .F. ) ;
#575 = DIRECTION ( 'NONE',  ( -1.000000000000000000, 0.000000000000000000, 0.000000000000000000 ) ) ;
#576 = DATE_TIME_ROLE ( 'creation_date' ) ;
#577 = CARTESIAN_POINT ( 'NONE',  ( -31.00000000000000355, 32.99999999999999289, 0.000000000000000000 ) ) ;
#578 = CARTESIAN_POINT ( 'NONE',  ( 33.00000000000000000, -31.00000000000000000, 1000.000000000000000 ) ) ;
#579 = LINE ( 'NONE', #34, #398 ) ;
#580 = VERTEX_POINT ( 'NONE', #459 ) ;
#581 = PLANE ( 'NONE',  #206 ) ;
#582 = ORIENTED_EDGE ( 'NONE', *, *, #165, .F. ) ;
#583 = CARTESIAN_POINT ( 'NONE',  ( -31.00000000000000355, 30.99999999999999645, 1000.000000000000000 ) ) ;
#584 = AXIS2_PLACEMENT_3D ( 'NONE', #119, #127, #133 ) ;
#585 = CARTESIAN_POINT ( 'NONE',  ( 31.00000000000000000, -31.00000000000000000, 0.000000000000000000 ) ) ;
#586 = DIRECTION ( 'NONE',  ( -1.000000000000000000, 0.000000000000000000, 0.000000000000000000 ) ) ;
#587 = EDGE_CURVE ( 'NONE', #262, #445, #444, .T. ) ;
#588 = EDGE_CURVE ( 'NONE', #286, #437, #159, .T. ) ;
#589 = CARTESIAN_POINT ( 'NONE',  ( -31.00000000000000355, 34.99999999999999289, 1000.000000000000000 ) ) ;
#590 = LINE ( 'NONE', #542, #475 ) ;
#591 = EDGE_CURVE ( 'NONE', #210, #262, #616, .T. ) ;
#592 = VERTEX_POINT ( 'NONE', #622 ) ;
#593 = CARTESIAN_POINT ( 'NONE',  ( 33.00000000000000000, 30.99999999999999645, 0.000000000000000000 ) ) ;
#594 = VERTEX_POINT ( 'NONE', #114 ) ;
#595 = AXIS2_PLACEMENT_3D ( 'NONE', #280, #81, #179 ) ;
#596 = EDGE_CURVE ( 'NONE', #580, #14, #489, .T. ) ;
#597 = DIRECTION ( 'NONE',  ( 1.000000000000000000, -1.119176436114069085E-16, 0.000000000000000000 ) ) ;
#598 =( GEOMETRIC_REPRESENTATION_CONTEXT ( 3 ) GLOBAL_UNCERTAINTY_ASSIGNED_CONTEXT ( ( #650 ) ) GLOBAL_UNIT_ASSIGNED_CONTEXT ( ( #640, #434, #536 ) ) REPRESENTATION_CONTEXT ( 'NONE', 'WORKASPACE' ) );
#599 = CARTESIAN_POINT ( 'NONE',  ( -33.00000000000000000, 30.99999999999999645, 0.000000000000000000 ) ) ;
#600 = LINE ( 'NONE', #270, #231 ) ;
#601 = ADVANCED_FACE ( 'NONE', ( #82 ), #222, .T. ) ;
#602 = VERTEX_POINT ( 'NONE', #41 ) ;
#603 = DIRECTION ( 'NONE',  ( 0.000000000000000000, 0.000000000000000000, 1.000000000000000000 ) ) ;
#604 = VECTOR ( 'NONE', #61, 1000.000000000000000 ) ;
#605 = EDGE_CURVE ( 'NONE', #27, #9, #420, .T. ) ;
#606 = ADVANCED_FACE ( 'NONE', ( #76 ), #275, .T. ) ;
#607 = VERTEX_POINT ( 'NONE', #393 ) ;
#608 = LINE ( 'NONE', #243, #2 ) ;
#609 = DATE_AND_TIME ( #559, #104 ) ;
#610 = DIRECTION ( 'NONE',  ( 0.000000000000000000, 0.000000000000000000, 1.000000000000000000 ) ) ;
#611 = DATE_AND_TIME ( #253, #648 ) ;
#612 = ORIENTED_EDGE ( 'NONE', *, *, #227, .T. ) ;
#613 = VERTEX_POINT ( 'NONE', #297 ) ;
#614 = VECTOR ( 'NONE', #192, 1000.000000000000000 ) ;
#615 = APPROVAL_DATE_TIME ( #517, #282 ) ;
#616 = LINE ( 'NONE', #155, #323 ) ;
#617 = VERTEX_POINT ( 'NONE', #503 ) ;
#618 = ORIENTED_EDGE ( 'NONE', *, *, #392, .F. ) ;
#619 = ORIENTED_EDGE ( 'NONE', *, *, #505, .T. ) ;
#620 = EDGE_CURVE ( 'NONE', #56, #27, #300, .T. ) ;
#621 = APPLICATION_PROTOCOL_DEFINITION ( 'international standard', 'config_control_design', 1994, #302 ) ;
#622 = CARTESIAN_POINT ( 'NONE',  ( 30.99999999999999645, 32.99999999999999289, 1000.000000000000000 ) ) ;
#623 = ORIENTED_EDGE ( 'NONE', *, *, #505, .F. ) ;
#624 = LINE ( 'NONE', #381, #380 ) ;
#625 = EDGE_CURVE ( 'NONE', #607, #450, #290, .T. ) ;
#626 = CARTESIAN_POINT ( 'NONE',  ( -31.00000000000000000, -35.00000000000000000, 1000.000000000000000 ) ) ;
#627 = VERTEX_POINT ( 'NONE', #419 ) ;
#628 = CARTESIAN_POINT ( 'NONE',  ( -35.00000000000000711, -31.00000000000000355, 1000.000000000000000 ) ) ;
#629 = CARTESIAN_POINT ( 'NONE',  ( 31.00000000000000000, -33.00000000000000000, 1000.000000000000000 ) ) ;
#630 = ORGANIZATION ( 'UNSPECIFIED', 'UNSPECIFIED', '' ) ;
#631 = DIRECTION ( 'NONE',  ( 0.000000000000000000, 0.000000000000000000, 1.000000000000000000 ) ) ;
#632 = CARTESIAN_POINT ( 'NONE',  ( 31.00000000000000000, -33.00000000000000000, 0.000000000000000000 ) ) ;
#633 = ORIENTED_EDGE ( 'NONE', *, *, #543, .F. ) ;
#634 = EDGE_CURVE ( 'NONE', #539, #58, #285, .T. ) ;
#635 = FACE_OUTER_BOUND ( 'NONE', #493, .T. ) ;
#636 = PRODUCT ( 'Square - 70.0 X 70.0 X 2.00', 'Square - 70.0 X 70.0 X 2.00', '', ( #572 ) ) ;
#637 = DIRECTION ( 'NONE',  ( -0.000000000000000000, -0.000000000000000000, -1.000000000000000000 ) ) ;
#638 = CARTESIAN_POINT ( 'NONE',  ( -33.00000000000000000, 30.99999999999999645, 1000.000000000000000 ) ) ;
#639 = EDGE_CURVE ( 'NONE', #592, #602, #590, .T. ) ;
#640 =( LENGTH_UNIT ( ) NAMED_UNIT ( * ) SI_UNIT ( .MILLI., .METRE. ) );
#641 = CIRCLE ( 'NONE', #529, 4.000000000000000000 ) ;
#642 = FACE_OUTER_BOUND ( 'NONE', #32, .T. ) ;
#643 = DIRECTION ( 'NONE',  ( 0.000000000000000000, 1.000000000000000000, 0.000000000000000000 ) ) ;
#644 = CARTESIAN_POINT ( 'NONE',  ( -31.00000000000000355, 34.99999999999999289, 1000.000000000000000 ) ) ;
#645 = ORIENTED_EDGE ( 'NONE', *, *, #267, .T. ) ;
#646 = AXIS2_PLACEMENT_3D ( 'NONE', #173, #377, #33 ) ;
#647 = CARTESIAN_POINT ( 'NONE',  ( 31.00000000000000000, 34.99999999999999289, 1000.000000000000000 ) ) ;
#648 = LOCAL_TIME ( 16, 2, 1.000000000000000000, #60 ) ;
#649 = CARTESIAN_POINT ( 'NONE',  ( 31.00000000000000000, -35.00000000000000711, 1000.000000000000000 ) ) ;
#650 = UNCERTAINTY_MEASURE_WITH_UNIT (LENGTH_MEASURE( 1.000000000000000082E-05 ), #640, 'distance_accuracy_value', 'NONE');
#651 = EDGE_CURVE ( 'NONE', #594, #375, #170, .T. ) ;
#652 = CARTESIAN_POINT ( 'NONE',  ( 31.00000000000000000, 30.99999999999999645, 0.000000000000000000 ) ) ;
#653 = ORIENTED_EDGE ( 'NONE', *, *, #193, .T. ) ;
ENDSEC;
END-ISO-10303-21;
