ISO-10303-21;
HEADER;
FILE_DESCRIPTION (( 'STEP AP203' ),
    '1' );
FILE_NAME ('Square - 75.0 X 75.0 X 5.00.step',
    '2026-04-16T14:03:54',
    ( '' ),
    ( '' ),
    'SwSTEP 2.0',
    'SolidWorks 2023',
    '' );
FILE_SCHEMA (( 'CONFIG_CONTROL_DESIGN' ));
ENDSEC;

DATA;
#1 = CARTESIAN_POINT ( 'NONE',  ( -27.49999999999998934, 27.49999999999999289, 1000.000000000000000 ) ) ;
#2 = ORIENTED_EDGE ( 'NONE', *, *, #181, .F. ) ;
#3 = AXIS2_PLACEMENT_3D ( 'NONE', #220, #377, #480 ) ;
#4 = VERTEX_POINT ( 'NONE', #262 ) ;
#5 = CARTESIAN_POINT ( 'NONE',  ( -32.49999999999999289, -27.49999999999999645, 1000.000000000000000 ) ) ;
#6 = ORIENTED_EDGE ( 'NONE', *, *, #558, .T. ) ;
#7 = CARTESIAN_POINT ( 'NONE',  ( -27.49999999999998934, 37.49999999999999289, 1000.000000000000000 ) ) ;
#8 = FACE_OUTER_BOUND ( 'NONE', #247, .T. ) ;
#9 = FACE_OUTER_BOUND ( 'NONE', #274, .T. ) ;
#10 = DIRECTION ( 'NONE',  ( -0.000000000000000000, -0.000000000000000000, -1.000000000000000000 ) ) ;
#11 = VECTOR ( 'NONE', #52, 1000.000000000000000 ) ;
#12 = CARTESIAN_POINT ( 'NONE',  ( -37.49999999999999289, 27.49999999999999289, 1000.000000000000000 ) ) ;
#13 = EDGE_CURVE ( 'NONE', #200, #264, #366, .T. ) ;
#14 = ORIENTED_EDGE ( 'NONE', *, *, #327, .F. ) ;
#15 = PLANE ( 'NONE',  #388 ) ;
#16 = DIRECTION ( 'NONE',  ( -1.000000000000000000, 0.000000000000000000, 0.000000000000000000 ) ) ;
#17 = FACE_OUTER_BOUND ( 'NONE', #343, .T. ) ;
#18 = DIRECTION ( 'NONE',  ( 0.000000000000000000, 0.000000000000000000, 1.000000000000000000 ) ) ;
#19 = APPROVAL ( #584, 'UNSPECIFIED' ) ;
#20 = ORIENTED_EDGE ( 'NONE', *, *, #292, .T. ) ;
#21 = DIRECTION ( 'NONE',  ( -1.000000000000000000, 0.000000000000000000, 0.000000000000000000 ) ) ;
#22 = EDGE_CURVE ( 'NONE', #564, #593, #516, .T. ) ;
#23 = CIRCLE ( 'NONE', #225, 5.000000000000004441 ) ;
#24 = AXIS2_PLACEMENT_3D ( 'NONE', #515, #376, #524 ) ;
#25 = DIRECTION ( 'NONE',  ( 0.000000000000000000, 0.000000000000000000, 1.000000000000000000 ) ) ;
#26 = CARTESIAN_POINT ( 'NONE',  ( -32.49999999999999289, -27.49999999999999645, 1000.000000000000000 ) ) ;
#27 = DIRECTION ( 'NONE',  ( -0.000000000000000000, -0.000000000000000000, -1.000000000000000000 ) ) ;
#28 = EDGE_LOOP ( 'NONE', ( #503, #313, #100, #597 ) ) ;
#29 = DIRECTION ( 'NONE',  ( 1.000000000000000000, 0.000000000000000000, 0.000000000000000000 ) ) ;
#30 = EDGE_LOOP ( 'NONE', ( #97, #453, #206, #401 ) ) ;
#31 = CARTESIAN_POINT ( 'NONE',  ( 0.000000000000000000, 0.000000000000000000, 0.000000000000000000 ) ) ;
#32 = AXIS2_PLACEMENT_3D ( 'NONE', #569, #119, #21 ) ;
#33 = ORIENTED_EDGE ( 'NONE', *, *, #101, .T. ) ;
#34 = DIRECTION ( 'NONE',  ( -0.000000000000000000, -0.000000000000000000, -1.000000000000000000 ) ) ;
#35 = ORIENTED_EDGE ( 'NONE', *, *, #418, .T. ) ;
#36 = DIRECTION ( 'NONE',  ( 0.000000000000000000, 0.000000000000000000, 1.000000000000000000 ) ) ;
#37 = DIRECTION ( 'NONE',  ( -1.000000000000000000, -0.000000000000000000, -0.000000000000000000 ) ) ;
#38 = CALENDAR_DATE ( 2026, 16, 4 ) ;
#39 = CARTESIAN_POINT ( 'NONE',  ( -27.49999999999998934, -27.49999999999999645, 1000.000000000000000 ) ) ;
#40 = PERSON_AND_ORGANIZATION_ROLE ( 'design_owner' ) ;
#41 = ORIENTED_EDGE ( 'NONE', *, *, #418, .F. ) ;
#42 = DIRECTION ( 'NONE',  ( -0.000000000000000000, -0.000000000000000000, -1.000000000000000000 ) ) ;
#43 = CIRCLE ( 'NONE', #644, 10.00000000000000178 ) ;
#44 = APPROVAL_PERSON_ORGANIZATION ( #46, #267, #345 ) ;
#45 = ORIENTED_EDGE ( 'NONE', *, *, #95, .F. ) ;
#46 = PERSON_AND_ORGANIZATION ( #442, #325 ) ;
#47 = CARTESIAN_POINT ( 'NONE',  ( 37.50000000000000711, -27.50000000000000355, 1000.000000000000000 ) ) ;
#48 = ORIENTED_EDGE ( 'NONE', *, *, #482, .F. ) ;
#49 = ORIENTED_EDGE ( 'NONE', *, *, #276, .T. ) ;
#50 = CALENDAR_DATE ( 2026, 16, 4 ) ;
#51 = ADVANCED_FACE ( 'NONE', ( #8 ), #213, .F. ) ;
#52 = DIRECTION ( 'NONE',  ( -0.000000000000000000, -0.000000000000000000, -1.000000000000000000 ) ) ;
#53 = VERTEX_POINT ( 'NONE', #310 ) ;
#54 = ORIENTED_EDGE ( 'NONE', *, *, #194, .T. ) ;
#55 = CC_DESIGN_PERSON_AND_ORGANIZATION_ASSIGNMENT ( #142, #211, ( #122 ) ) ;
#56 = COORDINATED_UNIVERSAL_TIME_OFFSET ( 2, 0, .AHEAD. ) ;
#57 = DIRECTION ( 'NONE',  ( -1.000000000000000000, -0.000000000000000000, -0.000000000000000000 ) ) ;
#58 = VECTOR ( 'NONE', #10, 1000.000000000000000 ) ;
#59 = ORIENTED_EDGE ( 'NONE', *, *, #276, .F. ) ;
#60 = VECTOR ( 'NONE', #326, 1000.000000000000000 ) ;
#61 = DIRECTION ( 'NONE',  ( 0.000000000000000000, -0.000000000000000000, -1.000000000000000000 ) ) ;
#62 = EDGE_LOOP ( 'NONE', ( #236, #536, #586, #397 ) ) ;
#63 = ADVANCED_FACE ( 'NONE', ( #167 ), #128, .F. ) ;
#64 = CARTESIAN_POINT ( 'NONE',  ( -27.49999999999998934, 27.49999999999999289, 0.000000000000000000 ) ) ;
#65 = ADVANCED_FACE ( 'NONE', ( #17 ), #15, .T. ) ;
#66 = ORIENTED_EDGE ( 'NONE', *, *, #392, .F. ) ;
#67 = EDGE_CURVE ( 'NONE', #209, #305, #365, .T. ) ;
#68 = CYLINDRICAL_SURFACE ( 'NONE', #175, 5.000000000000004441 ) ;
#69 = LINE ( 'NONE', #526, #542 ) ;
#70 = VECTOR ( 'NONE', #383, 1000.000000000000000 ) ;
#71 = AXIS2_PLACEMENT_3D ( 'NONE', #179, #575, #309 ) ;
#72 = CARTESIAN_POINT ( 'NONE',  ( -27.49999999999998934, 37.49999999999999289, 1000.000000000000000 ) ) ;
#73 = CARTESIAN_POINT ( 'NONE',  ( -32.49999999999999289, 27.49999999999999645, 1000.000000000000000 ) ) ;
#74 = DIRECTION ( 'NONE',  ( -1.000000000000000000, -1.261617073437677999E-16, 0.000000000000000000 ) ) ;
#75 = ORIENTED_EDGE ( 'NONE', *, *, #357, .T. ) ;
#76 = CARTESIAN_POINT ( 'NONE',  ( 27.50000000000000355, -27.50000000000000355, 1000.000000000000000 ) ) ;
#77 = CYLINDRICAL_SURFACE ( 'NONE', #481, 5.000000000000000888 ) ;
#78 = LINE ( 'NONE', #73, #500 ) ;
#79 = CIRCLE ( 'NONE', #446, 10.00000000000000178 ) ;
#80 = VECTOR ( 'NONE', #571, 1000.000000000000000 ) ;
#81 = EDGE_LOOP ( 'NONE', ( #41, #548, #75, #328 ) ) ;
#82 = DIRECTION ( 'NONE',  ( 0.000000000000000000, 0.000000000000000000, -1.000000000000000000 ) ) ;
#83 = CARTESIAN_POINT ( 'NONE',  ( -27.49999999999998934, -37.50000000000000000, 0.000000000000000000 ) ) ;
#84 = ADVANCED_FACE ( 'NONE', ( #323 ), #625, .T. ) ;
#85 = ORIENTED_EDGE ( 'NONE', *, *, #13, .F. ) ;
#86 = CARTESIAN_POINT ( 'NONE',  ( -32.49999999999999289, 27.49999999999999645, 0.000000000000000000 ) ) ;
#87 = ORIENTED_EDGE ( 'NONE', *, *, #558, .F. ) ;
#88 = CARTESIAN_POINT ( 'NONE',  ( -27.49999999999998934, 32.49999999999999289, 0.000000000000000000 ) ) ;
#89 = VECTOR ( 'NONE', #248, 1000.000000000000000 ) ;
#90 = VECTOR ( 'NONE', #518, 1000.000000000000000 ) ;
#91 = DIRECTION ( 'NONE',  ( 0.000000000000000000, 0.000000000000000000, 1.000000000000000000 ) ) ;
#92 = EDGE_CURVE ( 'NONE', #638, #430, #344, .T. ) ;
#93 = DATE_AND_TIME ( #38, #111 ) ;
#94 = CARTESIAN_POINT ( 'NONE',  ( 37.50000000000000711, -27.50000000000000355, 1000.000000000000000 ) ) ;
#95 = EDGE_CURVE ( 'NONE', #132, #103, #43, .T. ) ;
#96 = CARTESIAN_POINT ( 'NONE',  ( -27.49999999999998934, -27.49999999999999645, 0.000000000000000000 ) ) ;
#97 = ORIENTED_EDGE ( 'NONE', *, *, #405, .F. ) ;
#98 = CYLINDRICAL_SURFACE ( 'NONE', #235, 10.00000000000000178 ) ;
#99 = AXIS2_PLACEMENT_3D ( 'NONE', #183, #378, #352 ) ;
#100 = ORIENTED_EDGE ( 'NONE', *, *, #92, .T. ) ;
#101 = EDGE_CURVE ( 'NONE', #432, #291, #69, .T. ) ;
#102 = CARTESIAN_POINT ( 'NONE',  ( 27.50000000000000355, -27.50000000000000355, 0.000000000000000000 ) ) ;
#103 = VERTEX_POINT ( 'NONE', #523 ) ;
#104 = ORIENTED_EDGE ( 'NONE', *, *, #607, .F. ) ;
#105 = DIRECTION ( 'NONE',  ( 0.000000000000000000, 0.000000000000000000, 1.000000000000000000 ) ) ;
#106 = ORIENTED_EDGE ( 'NONE', *, *, #259, .T. ) ;
#107 = DIRECTION ( 'NONE',  ( 0.000000000000000000, -1.000000000000000000, 0.000000000000000000 ) ) ;
#108 = EDGE_CURVE ( 'NONE', #152, #652, #78, .T. ) ;
#109 = VERTEX_POINT ( 'NONE', #471 ) ;
#110 = VECTOR ( 'NONE', #27, 1000.000000000000000 ) ;
#111 = LOCAL_TIME ( 16, 3, 54.00000000000000000, #237 ) ;
#112 = EDGE_CURVE ( 'NONE', #331, #469, #570, .T. ) ;
#113 = FACE_OUTER_BOUND ( 'NONE', #189, .T. ) ;
#114 = VERTEX_POINT ( 'NONE', #177 ) ;
#115 = DIRECTION ( 'NONE',  ( -0.000000000000000000, 0.000000000000000000, -1.000000000000000000 ) ) ;
#116 = DIRECTION ( 'NONE',  ( -1.000000000000000000, 0.000000000000000000, 0.000000000000000000 ) ) ;
#117 = DIRECTION ( 'NONE',  ( -1.000000000000000000, 0.000000000000000000, 0.000000000000000000 ) ) ;
#118 = ORIENTED_EDGE ( 'NONE', *, *, #67, .T. ) ;
#119 = DIRECTION ( 'NONE',  ( 0.000000000000000000, 0.000000000000000000, 1.000000000000000000 ) ) ;
#120 = VECTOR ( 'NONE', #188, 1000.000000000000000 ) ;
#121 = EDGE_CURVE ( 'NONE', #348, #514, #422, .T. ) ;
#122 = PRODUCT_DEFINITION_FORMATION_WITH_SPECIFIED_SOURCE ( 'ANY', '', #258, .NOT_KNOWN. ) ;
#123 = CYLINDRICAL_SURFACE ( 'NONE', #217, 5.000000000000004441 ) ;
#124 = DIRECTION ( 'NONE',  ( 0.000000000000000000, -0.000000000000000000, -1.000000000000000000 ) ) ;
#125 = ORIENTED_EDGE ( 'NONE', *, *, #371, .T. ) ;
#126 = CARTESIAN_POINT ( 'NONE',  ( 27.50000000000000355, 32.49999999999999289, 1000.000000000000000 ) ) ;
#127 = FACE_OUTER_BOUND ( 'NONE', #350, .T. ) ;
#128 = PLANE ( 'NONE',  #302 ) ;
#129 = VECTOR ( 'NONE', #141, 1000.000000000000000 ) ;
#130 = VECTOR ( 'NONE', #420, 1000.000000000000000 ) ;
#131 = DIRECTION ( 'NONE',  ( 0.000000000000000000, 1.000000000000000000, 0.000000000000000000 ) ) ;
#132 = VERTEX_POINT ( 'NONE', #222 ) ;
#133 = CALENDAR_DATE ( 2026, 16, 4 ) ;
#134 = CARTESIAN_POINT ( 'NONE',  ( -37.49999999999999289, -27.49999999999999645, 1000.000000000000000 ) ) ;
#135 = ORIENTED_EDGE ( 'NONE', *, *, #646, .F. ) ;
#136 = ORIENTED_EDGE ( 'NONE', *, *, #292, .F. ) ;
#137 = CARTESIAN_POINT ( 'NONE',  ( 27.50000000000000355, -32.50000000000000000, 0.000000000000000000 ) ) ;
#138 = CC_DESIGN_PERSON_AND_ORGANIZATION_ASSIGNMENT ( #642, #242, ( #617 ) ) ;
#139 = AXIS2_PLACEMENT_3D ( 'NONE', #76, #271, #577 ) ;
#140 =( GEOMETRIC_REPRESENTATION_CONTEXT ( 3 ) GLOBAL_UNCERTAINTY_ASSIGNED_CONTEXT ( ( #289 ) ) GLOBAL_UNIT_ASSIGNED_CONTEXT ( ( #587, #396, #537 ) ) REPRESENTATION_CONTEXT ( 'NONE', 'WORKASPACE' ) );
#141 = DIRECTION ( 'NONE',  ( 1.000000000000000000, 0.000000000000000000, 0.000000000000000000 ) ) ;
#142 = PERSON_AND_ORGANIZATION ( #442, #325 ) ;
#143 = CARTESIAN_POINT ( 'NONE',  ( -27.49999999999998934, 32.49999999999999289, 1000.000000000000000 ) ) ;
#144 = VERTEX_POINT ( 'NONE', #627 ) ;
#145 = MECHANICAL_CONTEXT ( 'NONE', #612, 'mechanical' ) ;
#146 = DIRECTION ( 'NONE',  ( -0.000000000000000000, -0.000000000000000000, -1.000000000000000000 ) ) ;
#147 = DIRECTION ( 'NONE',  ( 0.000000000000000000, 1.000000000000000000, 0.000000000000000000 ) ) ;
#148 = APPROVAL_STATUS ( 'not_yet_approved' ) ;
#149 = LINE ( 'NONE', #157, #11 ) ;
#150 = PRODUCT_RELATED_PRODUCT_CATEGORY ( 'detail', '', ( #258 ) ) ;
#151 = AXIS2_PLACEMENT_3D ( 'NONE', #214, #115, #16 ) ;
#152 = VERTEX_POINT ( 'NONE', #619 ) ;
#153 = ORIENTED_EDGE ( 'NONE', *, *, #319, .T. ) ;
#154 = DIRECTION ( 'NONE',  ( -1.000000000000000000, 0.000000000000000000, 0.000000000000000000 ) ) ;
#155 = VERTEX_POINT ( 'NONE', #474 ) ;
#156 = ORIENTED_EDGE ( 'NONE', *, *, #284, .T. ) ;
#157 = CARTESIAN_POINT ( 'NONE',  ( -27.49999999999998934, -37.50000000000000000, 1000.000000000000000 ) ) ;
#158 = ORIENTED_EDGE ( 'NONE', *, *, #226, .F. ) ;
#159 = EDGE_CURVE ( 'NONE', #53, #652, #490, .T. ) ;
#160 = EDGE_CURVE ( 'NONE', #322, #4, #230, .T. ) ;
#161 = DIRECTION ( 'NONE',  ( -1.000000000000000000, 0.000000000000000000, 0.000000000000000000 ) ) ;
#162 = CARTESIAN_POINT ( 'NONE',  ( -27.49999999999998934, -37.50000000000000000, 1000.000000000000000 ) ) ;
#163 = AXIS2_PLACEMENT_3D ( 'NONE', #316, #533, #82 ) ;
#164 = CC_DESIGN_SECURITY_CLASSIFICATION ( #522, ( #122 ) ) ;
#165 = DATE_AND_TIME ( #501, #459 ) ;
#166 = CARTESIAN_POINT ( 'NONE',  ( -27.49999999999998934, -37.50000000000000000, 1000.000000000000000 ) ) ;
#167 = FACE_OUTER_BOUND ( 'NONE', #421, .T. ) ;
#168 = FACE_BOUND ( 'NONE', #448, .T. ) ;
#169 = DIRECTION ( 'NONE',  ( 0.000000000000000000, 0.000000000000000000, 1.000000000000000000 ) ) ;
#170 = EDGE_CURVE ( 'NONE', #298, #233, #479, .T. ) ;
#171 = DIRECTION ( 'NONE',  ( 1.261617073437677999E-16, -1.000000000000000000, 0.000000000000000000 ) ) ;
#172 = CC_DESIGN_PERSON_AND_ORGANIZATION_ASSIGNMENT ( #191, #40, ( #258 ) ) ;
#173 = FACE_OUTER_BOUND ( 'NONE', #28, .T. ) ;
#174 = AXIS2_PLACEMENT_3D ( 'NONE', #304, #610, #161 ) ;
#175 = AXIS2_PLACEMENT_3D ( 'NONE', #620, #567, #117 ) ;
#176 = LINE ( 'NONE', #373, #417 ) ;
#177 = CARTESIAN_POINT ( 'NONE',  ( -27.49999999999998934, -32.50000000000000000, 1000.000000000000000 ) ) ;
#178 = ADVANCED_FACE ( 'NONE', ( #173 ), #370, .F. ) ;
#179 = CARTESIAN_POINT ( 'NONE',  ( -27.49999999999998934, -32.50000000000000000, 1000.000000000000000 ) ) ;
#180 = CARTESIAN_POINT ( 'NONE',  ( 27.50000000000000355, -27.50000000000000355, 1000.000000000000000 ) ) ;
#181 = EDGE_CURVE ( 'NONE', #109, #407, #477, .T. ) ;
#182 = EDGE_LOOP ( 'NONE', ( #576, #49, #118, #358, #187, #35, #106, #254 ) ) ;
#183 = CARTESIAN_POINT ( 'NONE',  ( 27.50000000000000355, 27.49999999999998934, 1000.000000000000000 ) ) ;
#184 = VECTOR ( 'NONE', #57, 1000.000000000000000 ) ;
#185 = VERTEX_POINT ( 'NONE', #126 ) ;
#186 = DATE_TIME_ROLE ( 'creation_date' ) ;
#187 = ORIENTED_EDGE ( 'NONE', *, *, #181, .T. ) ;
#188 = DIRECTION ( 'NONE',  ( -0.000000000000000000, -0.000000000000000000, -1.000000000000000000 ) ) ;
#189 = EDGE_LOOP ( 'NONE', ( #462, #48, #353, #20 ) ) ;
#190 = ORIENTED_EDGE ( 'NONE', *, *, #473, .F. ) ;
#191 = PERSON_AND_ORGANIZATION ( #442, #325 ) ;
#192 = CARTESIAN_POINT ( 'NONE',  ( 27.50000000000000355, -37.50000000000000000, 1000.000000000000000 ) ) ;
#193 = CARTESIAN_POINT ( 'NONE',  ( -27.49999999999998934, -32.50000000000000000, 1000.000000000000000 ) ) ;
#194 = EDGE_CURVE ( 'NONE', #103, #432, #629, .T. ) ;
#195 = EDGE_LOOP ( 'NONE', ( #512, #308, #487, #508 ) ) ;
#196 = AXIS2_PLACEMENT_3D ( 'NONE', #180, #572, #622 ) ;
#197 = ORIENTED_EDGE ( 'NONE', *, *, #394, .T. ) ;
#198 = LINE ( 'NONE', #88, #379 ) ;
#199 = LINE ( 'NONE', #600, #89 ) ;
#200 = VERTEX_POINT ( 'NONE', #290 ) ;
#201 = DIRECTION ( 'NONE',  ( -0.000000000000000000, -0.000000000000000000, -1.000000000000000000 ) ) ;
#202 = EDGE_LOOP ( 'NONE', ( #33, #87, #301, #54 ) ) ;
#203 = APPROVAL_DATE_TIME ( #454, #267 ) ;
#204 = DIRECTION ( 'NONE',  ( 0.000000000000000000, 0.000000000000000000, 1.000000000000000000 ) ) ;
#205 = ORIENTED_EDGE ( 'NONE', *, *, #231, .F. ) ;
#206 = ORIENTED_EDGE ( 'NONE', *, *, #463, .T. ) ;
#207 = CARTESIAN_POINT ( 'NONE',  ( -27.49999999999998934, -37.50000000000000000, 1000.000000000000000 ) ) ;
#208 = EDGE_CURVE ( 'NONE', #638, #305, #234, .T. ) ;
#209 = VERTEX_POINT ( 'NONE', #581 ) ;
#210 = ADVANCED_FACE ( 'NONE', ( #545 ), #590, .F. ) ;
#211 = PERSON_AND_ORGANIZATION_ROLE ( 'creator' ) ;
#212 = FACE_OUTER_BOUND ( 'NONE', #280, .T. ) ;
#213 = PLANE ( 'NONE',  #425 ) ;
#214 = CARTESIAN_POINT ( 'NONE',  ( -27.49999999999998934, -27.49999999999999645, 1000.000000000000000 ) ) ;
#215 = ORIENTED_EDGE ( 'NONE', *, *, #231, .T. ) ;
#216 = CIRCLE ( 'NONE', #99, 5.000000000000000888 ) ;
#217 = AXIS2_PLACEMENT_3D ( 'NONE', #361, #624, #615 ) ;
#218 = FACE_OUTER_BOUND ( 'NONE', #546, .T. ) ;
#219 = ORIENTED_EDGE ( 'NONE', *, *, #194, .F. ) ;
#220 = CARTESIAN_POINT ( 'NONE',  ( -27.49999999999998934, -27.49999999999999645, 1000.000000000000000 ) ) ;
#221 = PLANE ( 'NONE',  #71 ) ;
#222 = CARTESIAN_POINT ( 'NONE',  ( 37.50000000000000711, 27.49999999999998934, 1000.000000000000000 ) ) ;
#223 = FACE_OUTER_BOUND ( 'NONE', #81, .T. ) ;
#224 = DIRECTION ( 'NONE',  ( -1.000000000000000000, 0.000000000000000000, 0.000000000000000000 ) ) ;
#225 = AXIS2_PLACEMENT_3D ( 'NONE', #342, #507, #297 ) ;
#226 = EDGE_CURVE ( 'NONE', #233, #132, #538, .T. ) ;
#227 = VECTOR ( 'NONE', #249, 1000.000000000000000 ) ;
#228 = CARTESIAN_POINT ( 'NONE',  ( -37.49999999999999289, -27.49999999999999645, 1000.000000000000000 ) ) ;
#229 = ORIENTED_EDGE ( 'NONE', *, *, #646, .T. ) ;
#230 = LINE ( 'NONE', #431, #458 ) ;
#231 = EDGE_CURVE ( 'NONE', #185, #155, #596, .T. ) ;
#232 = DIRECTION ( 'NONE',  ( -0.000000000000000000, -1.000000000000000000, -0.000000000000000000 ) ) ;
#233 = VERTEX_POINT ( 'NONE', #288 ) ;
#234 = LINE ( 'NONE', #433, #402 ) ;
#235 = AXIS2_PLACEMENT_3D ( 'NONE', #300, #261, #356 ) ;
#236 = ORIENTED_EDGE ( 'NONE', *, *, #67, .F. ) ;
#237 = COORDINATED_UNIVERSAL_TIME_OFFSET ( 2, 0, .AHEAD. ) ;
#238 = CARTESIAN_POINT ( 'NONE',  ( 27.50000000000000355, -37.50000000000000000, 1000.000000000000000 ) ) ;
#239 = CC_DESIGN_PERSON_AND_ORGANIZATION_ASSIGNMENT ( #354, #413, ( #122 ) ) ;
#240 = COORDINATED_UNIVERSAL_TIME_OFFSET ( 2, 0, .AHEAD. ) ;
#241 = CARTESIAN_POINT ( 'NONE',  ( 27.50000000000000355, -27.50000000000000355, 0.000000000000000000 ) ) ;
#242 = PERSON_AND_ORGANIZATION_ROLE ( 'creator' ) ;
#243 = CARTESIAN_POINT ( 'NONE',  ( -27.49999999999998934, 37.49999999999999289, 0.000000000000000000 ) ) ;
#244 = AXIS2_PLACEMENT_3D ( 'NONE', #1, #204, #154 ) ;
#245 = CALENDAR_DATE ( 2026, 16, 4 ) ;
#246 = CC_DESIGN_APPROVAL ( #19, ( #122 ) ) ;
#247 = EDGE_LOOP ( 'NONE', ( #197, #136, #495, #125 ) ) ;
#248 = DIRECTION ( 'NONE',  ( -0.000000000000000000, -0.000000000000000000, -1.000000000000000000 ) ) ;
#249 = DIRECTION ( 'NONE',  ( -0.000000000000000000, -0.000000000000000000, -1.000000000000000000 ) ) ;
#250 = ORIENTED_EDGE ( 'NONE', *, *, #595, .F. ) ;
#251 = MANIFOLD_SOLID_BREP ( 'Boss-Extrude1', #283 ) ;
#252 = CARTESIAN_POINT ( 'NONE',  ( 27.50000000000000355, 27.49999999999998934, 1000.000000000000000 ) ) ;
#253 = ORIENTED_EDGE ( 'NONE', *, *, #410, .F. ) ;
#254 = ORIENTED_EDGE ( 'NONE', *, *, #159, .T. ) ;
#255 = EDGE_CURVE ( 'NONE', #305, #109, #368, .T. ) ;
#256 = AXIS2_PLACEMENT_3D ( 'NONE', #241, #541, #29 ) ;
#257 = DIRECTION ( 'NONE',  ( -1.000000000000000000, 0.000000000000000000, 0.000000000000000000 ) ) ;
#258 = PRODUCT ( 'Square - 75.0 X 75.0 X 5.00', 'Square - 75.0 X 75.0 X 5.00', '', ( #145 ) ) ;
#259 = EDGE_CURVE ( 'NONE', #491, #53, #198, .T. ) ;
#260 = ORIENTED_EDGE ( 'NONE', *, *, #259, .F. ) ;
#261 = DIRECTION ( 'NONE',  ( -0.000000000000000000, -0.000000000000000000, -1.000000000000000000 ) ) ;
#262 = CARTESIAN_POINT ( 'NONE',  ( 37.50000000000000711, 27.49999999999998934, 0.000000000000000000 ) ) ;
#263 = LINE ( 'NONE', #72, #550 ) ;
#264 = VERTEX_POINT ( 'NONE', #83 ) ;
#265 = DIRECTION ( 'NONE',  ( -0.000000000000000000, -0.000000000000000000, -1.000000000000000000 ) ) ;
#266 = CIRCLE ( 'NONE', #632, 10.00000000000000178 ) ;
#267 = APPROVAL ( #148, 'UNSPECIFIED' ) ;
#268 = CARTESIAN_POINT ( 'NONE',  ( 32.50000000000000711, -27.50000000000000355, 1000.000000000000000 ) ) ;
#269 = DIRECTION ( 'NONE',  ( 0.000000000000000000, -0.000000000000000000, 1.000000000000000000 ) ) ;
#270 = DIRECTION ( 'NONE',  ( -1.261617073437677999E-16, 1.000000000000000000, 0.000000000000000000 ) ) ;
#271 = DIRECTION ( 'NONE',  ( -0.000000000000000000, -0.000000000000000000, -1.000000000000000000 ) ) ;
#272 = CARTESIAN_POINT ( 'NONE',  ( 27.50000000000000355, 32.49999999999999289, 0.000000000000000000 ) ) ;
#273 = EDGE_CURVE ( 'NONE', #155, #53, #643, .T. ) ;
#274 = EDGE_LOOP ( 'NONE', ( #583, #554, #488, #601, #633, #287, #347, #153 ) ) ;
#275 = DIRECTION ( 'NONE',  ( -1.000000000000000000, -0.000000000000000000, -0.000000000000000000 ) ) ;
#276 = EDGE_CURVE ( 'NONE', #514, #209, #334, .T. ) ;
#277 = AXIS2_PLACEMENT_3D ( 'NONE', #96, #385, #496 ) ;
#278 = CC_DESIGN_APPROVAL ( #267, ( #522 ) ) ;
#279 = CARTESIAN_POINT ( 'NONE',  ( -37.49999999999999289, -27.49999999999999645, 1000.000000000000000 ) ) ;
#280 = EDGE_LOOP ( 'NONE', ( #332, #219, #45, #374 ) ) ;
#281 = ADVANCED_FACE ( 'NONE', ( #499 ), #588, .T. ) ;
#282 = DIRECTION ( 'NONE',  ( -1.000000000000000000, -0.000000000000000000, -0.000000000000000000 ) ) ;
#283 = CLOSED_SHELL ( 'NONE', ( #568, #510, #281, #51, #372, #63, #436, #414, #441, #210, #578, #519, #178, #589, #647, #65, #530, #84 ) ) ;
#284 = EDGE_CURVE ( 'NONE', #580, #407, #634, .T. ) ;
#285 = AXIS2_PLACEMENT_3D ( 'NONE', #252, #42, #257 ) ;
#286 = DIRECTION ( 'NONE',  ( -1.000000000000000000, 0.000000000000000000, 0.000000000000000000 ) ) ;
#287 = ORIENTED_EDGE ( 'NONE', *, *, #400, .T. ) ;
#288 = CARTESIAN_POINT ( 'NONE',  ( 37.50000000000000711, -27.50000000000000355, 1000.000000000000000 ) ) ;
#289 = UNCERTAINTY_MEASURE_WITH_UNIT (LENGTH_MEASURE( 1.000000000000000082E-05 ), #587, 'distance_accuracy_value', 'NONE');
#290 = CARTESIAN_POINT ( 'NONE',  ( -37.49999999999999289, -27.49999999999999645, 0.000000000000000000 ) ) ;
#291 = VERTEX_POINT ( 'NONE', #243 ) ;
#292 = EDGE_CURVE ( 'NONE', #298, #641, #440, .T. ) ;
#293 = VECTOR ( 'NONE', #602, 1000.000000000000000 ) ;
#294 = AXIS2_PLACEMENT_3D ( 'NONE', #475, #18, #527 ) ;
#295 = PLANE ( 'NONE',  #591 ) ;
#296 = ORIENTED_EDGE ( 'NONE', *, *, #394, .F. ) ;
#297 = DIRECTION ( 'NONE',  ( -1.000000000000000000, 0.000000000000000000, 0.000000000000000000 ) ) ;
#298 = VERTEX_POINT ( 'NONE', #238 ) ;
#299 = ORIENTED_EDGE ( 'NONE', *, *, #121, .F. ) ;
#300 = CARTESIAN_POINT ( 'NONE',  ( -27.49999999999998934, 27.49999999999999289, 1000.000000000000000 ) ) ;
#301 = ORIENTED_EDGE ( 'NONE', *, *, #400, .F. ) ;
#302 = AXIS2_PLACEMENT_3D ( 'NONE', #362, #224, #169 ) ;
#303 = VECTOR ( 'NONE', #547, 1000.000000000000000 ) ;
#304 = CARTESIAN_POINT ( 'NONE',  ( 27.50000000000000355, 27.49999999999998934, 0.000000000000000000 ) ) ;
#305 = VERTEX_POINT ( 'NONE', #137 ) ;
#306 = PERSON_AND_ORGANIZATION ( #442, #325 ) ;
#307 = LINE ( 'NONE', #556, #613 ) ;
#308 = ORIENTED_EDGE ( 'NONE', *, *, #493, .F. ) ;
#309 = DIRECTION ( 'NONE',  ( 0.000000000000000000, -0.000000000000000000, 1.000000000000000000 ) ) ;
#310 = CARTESIAN_POINT ( 'NONE',  ( -27.49999999999998934, 32.49999999999999289, 0.000000000000000000 ) ) ;
#311 = EDGE_CURVE ( 'NONE', #4, #432, #79, .T. ) ;
#312 = PLANE ( 'NONE',  #24 ) ;
#313 = ORIENTED_EDGE ( 'NONE', *, *, #208, .F. ) ;
#314 = DIRECTION ( 'NONE',  ( 0.000000000000000000, 0.000000000000000000, 1.000000000000000000 ) ) ;
#315 = DIRECTION ( 'NONE',  ( 1.000000000000000000, 0.000000000000000000, 0.000000000000000000 ) ) ;
#316 = CARTESIAN_POINT ( 'NONE',  ( -32.49999999999999289, -27.49999999999999645, 1000.000000000000000 ) ) ;
#317 = ADVANCED_BREP_SHAPE_REPRESENTATION ( 'Square - 75.0 X 75.0 X 5.00', ( #251, #447 ), #140 ) ;
#318 = CARTESIAN_POINT ( 'NONE',  ( 27.50000000000000355, -37.50000000000000000, 0.000000000000000000 ) ) ;
#319 = EDGE_CURVE ( 'NONE', #564, #331, #492, .T. ) ;
#320 = ORIENTED_EDGE ( 'NONE', *, *, #392, .T. ) ;
#321 = CARTESIAN_POINT ( 'NONE',  ( 27.50000000000000355, 27.49999999999998934, 1000.000000000000000 ) ) ;
#322 = VERTEX_POINT ( 'NONE', #395 ) ;
#323 = FACE_OUTER_BOUND ( 'NONE', #30, .T. ) ;
#324 = AXIS2_PLACEMENT_3D ( 'NONE', #134, #435, #489 ) ;
#325 = ORGANIZATION ( 'UNSPECIFIED', 'UNSPECIFIED', '' ) ;
#326 = DIRECTION ( 'NONE',  ( -0.000000000000000000, -0.000000000000000000, -1.000000000000000000 ) ) ;
#327 = EDGE_CURVE ( 'NONE', #114, #638, #640, .T. ) ;
#328 = ORIENTED_EDGE ( 'NONE', *, *, #381, .T. ) ;
#329 = APPLICATION_PROTOCOL_DEFINITION ( 'international standard', 'config_control_design', 1994, #612 ) ;
#330 = CARTESIAN_POINT ( 'NONE',  ( -27.49999999999998934, 32.49999999999999289, 1000.000000000000000 ) ) ;
#331 = VERTEX_POINT ( 'NONE', #585 ) ;
#332 = ORIENTED_EDGE ( 'NONE', *, *, #311, .T. ) ;
#333 = CARTESIAN_POINT ( 'NONE',  ( 27.50000000000000355, 27.49999999999998934, 0.000000000000000000 ) ) ;
#334 = CIRCLE ( 'NONE', #277, 5.000000000000004441 ) ;
#335 = APPROVAL_PERSON_ORGANIZATION ( #594, #351, #434 ) ;
#336 = EDGE_CURVE ( 'NONE', #593, #200, #486, .T. ) ;
#337 = DIRECTION ( 'NONE',  ( -0.000000000000000000, -0.000000000000000000, -1.000000000000000000 ) ) ;
#338 = EDGE_LOOP ( 'NONE', ( #445, #505, #648, #6 ) ) ;
#339 = CARTESIAN_POINT ( 'NONE',  ( -32.49999999999999289, -27.49999999999999645, 1000.000000000000000 ) ) ;
#340 = DESIGN_CONTEXT ( 'detailed design', #467, 'design' ) ;
#341 = CARTESIAN_POINT ( 'NONE',  ( 27.50000000000000355, 27.49999999999998934, 1000.000000000000000 ) ) ;
#342 = CARTESIAN_POINT ( 'NONE',  ( -27.49999999999998934, 27.49999999999999289, 1000.000000000000000 ) ) ;
#343 = EDGE_LOOP ( 'NONE', ( #260, #506, #215, #450 ) ) ;
#344 = CIRCLE ( 'NONE', #390, 4.999999999999997335 ) ;
#345 = APPROVAL_ROLE ( '' ) ;
#346 = CYLINDRICAL_SURFACE ( 'NONE', #579, 9.999999999999998224 ) ;
#347 = ORIENTED_EDGE ( 'NONE', *, *, #389, .T. ) ;
#348 = VERTEX_POINT ( 'NONE', #339 ) ;
#349 = LINE ( 'NONE', #449, #427 ) ;
#350 = EDGE_LOOP ( 'NONE', ( #409, #525, #320, #406 ) ) ;
#351 = APPROVAL ( #599, 'UNSPECIFIED' ) ;
#352 = DIRECTION ( 'NONE',  ( -1.000000000000000000, 0.000000000000000000, 0.000000000000000000 ) ) ;
#353 = ORIENTED_EDGE ( 'NONE', *, *, #170, .F. ) ;
#354 = PERSON_AND_ORGANIZATION ( #442, #325 ) ;
#355 = AXIS2_PLACEMENT_3D ( 'NONE', #39, #438, #535 ) ;
#356 = DIRECTION ( 'NONE',  ( -1.000000000000000000, 0.000000000000000000, 0.000000000000000000 ) ) ;
#357 = EDGE_CURVE ( 'NONE', #580, #185, #216, .T. ) ;
#358 = ORIENTED_EDGE ( 'NONE', *, *, #255, .T. ) ;
#359 = DATE_TIME_ROLE ( 'classification_date' ) ;
#360 = CC_DESIGN_DATE_AND_TIME_ASSIGNMENT ( #165, #359, ( #522 ) ) ;
#361 = CARTESIAN_POINT ( 'NONE',  ( -27.49999999999998934, 27.49999999999999289, 1000.000000000000000 ) ) ;
#362 = CARTESIAN_POINT ( 'NONE',  ( 37.50000000000000711, -27.50000000000000355, 1000.000000000000000 ) ) ;
#363 = PLANE ( 'NONE',  #534 ) ;
#364 = ORIENTED_EDGE ( 'NONE', *, *, #607, .T. ) ;
#365 = LINE ( 'NONE', #483, #90 ) ;
#366 = CIRCLE ( 'NONE', #540, 10.00000000000000178 ) ;
#367 = CARTESIAN_POINT ( 'NONE',  ( 32.50000000000000711, -27.50000000000000355, 1000.000000000000000 ) ) ;
#368 = CIRCLE ( 'NONE', #256, 4.999999999999997335 ) ;
#369 = EDGE_LOOP ( 'NONE', ( #557, #485, #476, #603 ) ) ;
#370 = CYLINDRICAL_SURFACE ( 'NONE', #139, 5.000000000000000888 ) ;
#371 = EDGE_CURVE ( 'NONE', #469, #264, #149, .T. ) ;
#372 = ADVANCED_FACE ( 'NONE', ( #113 ), #346, .T. ) ;
#373 = CARTESIAN_POINT ( 'NONE',  ( 32.50000000000000711, -27.50000000000000355, 1000.000000000000000 ) ) ;
#374 = ORIENTED_EDGE ( 'NONE', *, *, #473, .T. ) ;
#375 = CARTESIAN_POINT ( 'NONE',  ( 32.50000000000000711, -27.50000000000000355, 0.000000000000000000 ) ) ;
#376 = DIRECTION ( 'NONE',  ( -0.000000000000000000, 0.000000000000000000, -1.000000000000000000 ) ) ;
#377 = DIRECTION ( 'NONE',  ( 0.000000000000000000, 0.000000000000000000, 1.000000000000000000 ) ) ;
#378 = DIRECTION ( 'NONE',  ( 0.000000000000000000, 0.000000000000000000, 1.000000000000000000 ) ) ;
#379 = VECTOR ( 'NONE', #282, 1000.000000000000000 ) ;
#380 = CC_DESIGN_APPROVAL ( #351, ( #617 ) ) ;
#381 = EDGE_CURVE ( 'NONE', #185, #491, #349, .T. ) ;
#382 = PERSON_AND_ORGANIZATION ( #442, #325 ) ;
#383 = DIRECTION ( 'NONE',  ( -0.000000000000000000, -1.000000000000000000, -0.000000000000000000 ) ) ;
#384 = APPROVAL_DATE_TIME ( #93, #351 ) ;
#385 = DIRECTION ( 'NONE',  ( 0.000000000000000000, 0.000000000000000000, 1.000000000000000000 ) ) ;
#386 = DIRECTION ( 'NONE',  ( -0.000000000000000000, -0.000000000000000000, -1.000000000000000000 ) ) ;
#387 = DIRECTION ( 'NONE',  ( -0.000000000000000000, -0.000000000000000000, -1.000000000000000000 ) ) ;
#388 = AXIS2_PLACEMENT_3D ( 'NONE', #529, #428, #124 ) ;
#389 = EDGE_CURVE ( 'NONE', #144, #564, #549, .T. ) ;
#390 = AXIS2_PLACEMENT_3D ( 'NONE', #566, #419, #616 ) ;
#391 = AXIS2_PLACEMENT_3D ( 'NONE', #64, #25, #618 ) ;
#392 = EDGE_CURVE ( 'NONE', #155, #152, #23, .T. ) ;
#393 = APPROVAL_DATE_TIME ( #639, #19 ) ;
#394 = EDGE_CURVE ( 'NONE', #264, #641, #307, .T. ) ;
#395 = CARTESIAN_POINT ( 'NONE',  ( 37.50000000000000711, -27.50000000000000355, 0.000000000000000000 ) ) ;
#396 =( NAMED_UNIT ( * ) PLANE_ANGLE_UNIT ( ) SI_UNIT ( $, .RADIAN. ) );
#397 = ORIENTED_EDGE ( 'NONE', *, *, #208, .T. ) ;
#398 = CARTESIAN_POINT ( 'NONE',  ( 32.50000000000000711, -27.50000000000000355, 1000.000000000000000 ) ) ;
#399 = CYLINDRICAL_SURFACE ( 'NONE', #285, 10.00000000000000178 ) ;
#400 = EDGE_CURVE ( 'NONE', #103, #144, #559, .T. ) ;
#401 = ORIENTED_EDGE ( 'NONE', *, *, #121, .T. ) ;
#402 = VECTOR ( 'NONE', #387, 1000.000000000000000 ) ;
#403 = SHAPE_DEFINITION_REPRESENTATION ( #630, #317 ) ;
#404 = CARTESIAN_POINT ( 'NONE',  ( 27.50000000000000355, -27.50000000000000355, 1000.000000000000000 ) ) ;
#405 = EDGE_CURVE ( 'NONE', #652, #514, #464, .T. ) ;
#406 = ORIENTED_EDGE ( 'NONE', *, *, #108, .T. ) ;
#407 = VERTEX_POINT ( 'NONE', #553 ) ;
#408 = CARTESIAN_POINT ( 'NONE',  ( 37.50000000000000711, 27.49999999999998934, 1000.000000000000000 ) ) ;
#409 = ORIENTED_EDGE ( 'NONE', *, *, #159, .F. ) ;
#410 = EDGE_CURVE ( 'NONE', #641, #322, #266, .T. ) ;
#411 = CARTESIAN_POINT ( 'NONE',  ( -32.49999999999999289, -27.49999999999999645, 0.000000000000000000 ) ) ;
#412 = DIRECTION ( 'NONE',  ( -1.000000000000000000, 0.000000000000000000, 0.000000000000000000 ) ) ;
#413 = PERSON_AND_ORGANIZATION_ROLE ( 'design_supplier' ) ;
#414 = ADVANCED_FACE ( 'NONE', ( #504 ), #295, .F. ) ;
#415 = VECTOR ( 'NONE', #34, 1000.000000000000000 ) ;
#416 = FACE_OUTER_BOUND ( 'NONE', #497, .T. ) ;
#417 = VECTOR ( 'NONE', #270, 1000.000000000000000 ) ;
#418 = EDGE_CURVE ( 'NONE', #407, #491, #437, .T. ) ;
#419 = DIRECTION ( 'NONE',  ( 0.000000000000000000, 0.000000000000000000, 1.000000000000000000 ) ) ;
#420 = DIRECTION ( 'NONE',  ( -0.000000000000000000, -0.000000000000000000, -1.000000000000000000 ) ) ;
#421 = EDGE_LOOP ( 'NONE', ( #635, #190, #158, #555 ) ) ;
#422 = LINE ( 'NONE', #26, #110 ) ;
#423 = LINE ( 'NONE', #367, #80 ) ;
#424 = DIRECTION ( 'NONE',  ( 0.000000000000000000, 1.000000000000000000, 0.000000000000000000 ) ) ;
#425 = AXIS2_PLACEMENT_3D ( 'NONE', #162, #147, #269 ) ;
#426 = FACE_OUTER_BOUND ( 'NONE', #62, .T. ) ;
#427 = VECTOR ( 'NONE', #146, 1000.000000000000000 ) ;
#428 = DIRECTION ( 'NONE',  ( 0.000000000000000000, -1.000000000000000000, 0.000000000000000000 ) ) ;
#429 = FACE_BOUND ( 'NONE', #182, .T. ) ;
#430 = VERTEX_POINT ( 'NONE', #398 ) ;
#431 = CARTESIAN_POINT ( 'NONE',  ( 37.50000000000000711, -27.50000000000000355, 0.000000000000000000 ) ) ;
#432 = VERTEX_POINT ( 'NONE', #649 ) ;
#433 = CARTESIAN_POINT ( 'NONE',  ( 27.50000000000000355, -32.50000000000000000, 1000.000000000000000 ) ) ;
#434 = APPROVAL_ROLE ( '' ) ;
#435 = DIRECTION ( 'NONE',  ( 1.000000000000000000, 0.000000000000000000, 0.000000000000000000 ) ) ;
#436 = ADVANCED_FACE ( 'NONE', ( #212 ), #399, .T. ) ;
#437 = CIRCLE ( 'NONE', #174, 5.000000000000000888 ) ;
#438 = DIRECTION ( 'NONE',  ( -0.000000000000000000, -0.000000000000000000, -1.000000000000000000 ) ) ;
#439 = APPROVAL_ROLE ( '' ) ;
#440 = LINE ( 'NONE', #192, #120 ) ;
#441 = ADVANCED_FACE ( 'NONE', ( #455 ), #98, .T. ) ;
#442 = PERSON ( 'UNSPECIFIED', 'UNSPECIFIED', 'UNSPECIFIED', ('UNSPECIFIED'), ('UNSPECIFIED'), ('UNSPECIFIED') ) ;
#443 = COORDINATED_UNIVERSAL_TIME_OFFSET ( 2, 0, .AHEAD. ) ;
#444 = CARTESIAN_POINT ( 'NONE',  ( -37.49999999999999289, -27.49999999999999645, 0.000000000000000000 ) ) ;
#445 = ORIENTED_EDGE ( 'NONE', *, *, #539, .T. ) ;
#446 = AXIS2_PLACEMENT_3D ( 'NONE', #333, #91, #286 ) ;
#447 = AXIS2_PLACEMENT_3D ( 'NONE', #31, #36, #636 ) ;
#448 = EDGE_LOOP ( 'NONE', ( #135, #560, #66, #205, #628, #104, #451, #14 ) ) ;
#449 = CARTESIAN_POINT ( 'NONE',  ( 27.50000000000000355, 32.49999999999999289, 1000.000000000000000 ) ) ;
#450 = ORIENTED_EDGE ( 'NONE', *, *, #273, .T. ) ;
#451 = ORIENTED_EDGE ( 'NONE', *, *, #92, .F. ) ;
#452 = CARTESIAN_POINT ( 'NONE',  ( -27.49999999999998934, 37.49999999999999289, 1000.000000000000000 ) ) ;
#453 = ORIENTED_EDGE ( 'NONE', *, *, #108, .F. ) ;
#454 = DATE_AND_TIME ( #50, #614 ) ;
#455 = FACE_OUTER_BOUND ( 'NONE', #338, .T. ) ;
#456 = ORIENTED_EDGE ( 'NONE', *, *, #160, .F. ) ;
#457 = ORIENTED_EDGE ( 'NONE', *, *, #336, .F. ) ;
#458 = VECTOR ( 'NONE', #424, 1000.000000000000000 ) ;
#459 = LOCAL_TIME ( 16, 3, 54.00000000000000000, #56 ) ;
#460 = APPROVAL_PERSON_ORGANIZATION ( #382, #19, #439 ) ;
#461 = LINE ( 'NONE', #5, #520 ) ;
#462 = ORIENTED_EDGE ( 'NONE', *, *, #410, .T. ) ;
#463 = EDGE_CURVE ( 'NONE', #152, #348, #461, .T. ) ;
#464 = LINE ( 'NONE', #411, #293 ) ;
#465 = EDGE_CURVE ( 'NONE', #114, #209, #199, .T. ) ;
#466 = DIRECTION ( 'NONE',  ( 0.000000000000000000, 0.000000000000000000, 1.000000000000000000 ) ) ;
#467 = APPLICATION_CONTEXT ( 'configuration controlled 3d designs of mechanical parts and assemblies' ) ;
#468 = DIRECTION ( 'NONE',  ( -0.000000000000000000, -0.000000000000000000, -1.000000000000000000 ) ) ;
#469 = VERTEX_POINT ( 'NONE', #207 ) ;
#470 = LINE ( 'NONE', #166, #582 ) ;
#471 = CARTESIAN_POINT ( 'NONE',  ( 32.50000000000000711, -27.50000000000000355, 0.000000000000000000 ) ) ;
#472 = CARTESIAN_POINT ( 'NONE',  ( -37.49999999999999289, 27.49999999999999289, 0.000000000000000000 ) ) ;
#473 = EDGE_CURVE ( 'NONE', #132, #4, #563, .T. ) ;
#474 = CARTESIAN_POINT ( 'NONE',  ( -27.49999999999998934, 32.49999999999999289, 1000.000000000000000 ) ) ;
#475 = CARTESIAN_POINT ( 'NONE',  ( -27.49999999999998934, -27.49999999999999645, 1000.000000000000000 ) ) ;
#476 = ORIENTED_EDGE ( 'NONE', *, *, #112, .F. ) ;
#477 = LINE ( 'NONE', #375, #509 ) ;
#478 = LINE ( 'NONE', #228, #130 ) ;
#479 = CIRCLE ( 'NONE', #196, 10.00000000000000178 ) ;
#480 = DIRECTION ( 'NONE',  ( -1.000000000000000000, 0.000000000000000000, 0.000000000000000000 ) ) ;
#481 = AXIS2_PLACEMENT_3D ( 'NONE', #341, #386, #498 ) ;
#482 = EDGE_CURVE ( 'NONE', #233, #322, #502, .T. ) ;
#483 = CARTESIAN_POINT ( 'NONE',  ( -27.49999999999998934, -32.50000000000000000, 0.000000000000000000 ) ) ;
#484 = CC_DESIGN_PERSON_AND_ORGANIZATION_ASSIGNMENT ( #306, #513, ( #522 ) ) ;
#485 = ORIENTED_EDGE ( 'NONE', *, *, #371, .F. ) ;
#486 = LINE ( 'NONE', #444, #531 ) ;
#487 = ORIENTED_EDGE ( 'NONE', *, *, #319, .F. ) ;
#488 = ORIENTED_EDGE ( 'NONE', *, *, #170, .T. ) ;
#489 = DIRECTION ( 'NONE',  ( 0.000000000000000000, 0.000000000000000000, -1.000000000000000000 ) ) ;
#490 = CIRCLE ( 'NONE', #32, 5.000000000000004441 ) ;
#491 = VERTEX_POINT ( 'NONE', #272 ) ;
#492 = LINE ( 'NONE', #279, #70 ) ;
#493 = EDGE_CURVE ( 'NONE', #331, #200, #478, .T. ) ;
#494 = APPLICATION_PROTOCOL_DEFINITION ( 'international standard', 'config_control_design', 1994, #467 ) ;
#495 = ORIENTED_EDGE ( 'NONE', *, *, #551, .F. ) ;
#496 = DIRECTION ( 'NONE',  ( -1.000000000000000000, 0.000000000000000000, 0.000000000000000000 ) ) ;
#497 = EDGE_LOOP ( 'NONE', ( #85, #457, #528, #621, #609, #456, #253, #296 ) ) ;
#498 = DIRECTION ( 'NONE',  ( -1.000000000000000000, 0.000000000000000000, 0.000000000000000000 ) ) ;
#499 = FACE_OUTER_BOUND ( 'NONE', #369, .T. ) ;
#500 = VECTOR ( 'NONE', #265, 1000.000000000000000 ) ;
#501 = CALENDAR_DATE ( 2026, 16, 4 ) ;
#502 = LINE ( 'NONE', #47, #227 ) ;
#503 = ORIENTED_EDGE ( 'NONE', *, *, #255, .F. ) ;
#504 = FACE_OUTER_BOUND ( 'NONE', #202, .T. ) ;
#505 = ORIENTED_EDGE ( 'NONE', *, *, #22, .F. ) ;
#506 = ORIENTED_EDGE ( 'NONE', *, *, #381, .F. ) ;
#507 = DIRECTION ( 'NONE',  ( 0.000000000000000000, 0.000000000000000000, 1.000000000000000000 ) ) ;
#508 = ORIENTED_EDGE ( 'NONE', *, *, #22, .T. ) ;
#509 = VECTOR ( 'NONE', #574, 1000.000000000000000 ) ;
#510 = ADVANCED_FACE ( 'NONE', ( #416, #429 ), #312, .T. ) ;
#511 = DIRECTION ( 'NONE',  ( -0.000000000000000000, -1.000000000000000000, -0.000000000000000000 ) ) ;
#512 = ORIENTED_EDGE ( 'NONE', *, *, #336, .T. ) ;
#513 = PERSON_AND_ORGANIZATION_ROLE ( 'classification_officer' ) ;
#514 = VERTEX_POINT ( 'NONE', #626 ) ;
#515 = CARTESIAN_POINT ( 'NONE',  ( -27.49999999999998934, -27.49999999999999645, 0.000000000000000000 ) ) ;
#516 = LINE ( 'NONE', #611, #58 ) ;
#517 = FACE_OUTER_BOUND ( 'NONE', #653, .T. ) ;
#518 = DIRECTION ( 'NONE',  ( 1.000000000000000000, 0.000000000000000000, 0.000000000000000000 ) ) ;
#519 = ADVANCED_FACE ( 'NONE', ( #426 ), #221, .T. ) ;
#520 = VECTOR ( 'NONE', #511, 1000.000000000000000 ) ;
#521 = CARTESIAN_POINT ( 'NONE',  ( 32.50000000000000000, 27.49999999999998934, 1000.000000000000000 ) ) ;
#522 = SECURITY_CLASSIFICATION ( '', '', #650 ) ;
#523 = CARTESIAN_POINT ( 'NONE',  ( 27.50000000000000355, 37.49999999999999289, 1000.000000000000000 ) ) ;
#524 = DIRECTION ( 'NONE',  ( -1.000000000000000000, 0.000000000000000000, 0.000000000000000000 ) ) ;
#525 = ORIENTED_EDGE ( 'NONE', *, *, #273, .F. ) ;
#526 = CARTESIAN_POINT ( 'NONE',  ( -27.49999999999998934, 37.49999999999999289, 0.000000000000000000 ) ) ;
#527 = DIRECTION ( 'NONE',  ( -1.000000000000000000, 0.000000000000000000, 0.000000000000000000 ) ) ;
#528 = ORIENTED_EDGE ( 'NONE', *, *, #539, .F. ) ;
#529 = CARTESIAN_POINT ( 'NONE',  ( -27.49999999999998934, 32.49999999999999289, 1000.000000000000000 ) ) ;
#530 = ADVANCED_FACE ( 'NONE', ( #127 ), #123, .F. ) ;
#531 = VECTOR ( 'NONE', #232, 1000.000000000000000 ) ;
#532 = ORIENTED_EDGE ( 'NONE', *, *, #465, .T. ) ;
#533 = DIRECTION ( 'NONE',  ( 1.000000000000000000, 0.000000000000000000, 0.000000000000000000 ) ) ;
#534 = AXIS2_PLACEMENT_3D ( 'NONE', #268, #74, #171 ) ;
#535 = DIRECTION ( 'NONE',  ( -1.000000000000000000, 0.000000000000000000, 0.000000000000000000 ) ) ;
#536 = ORIENTED_EDGE ( 'NONE', *, *, #465, .F. ) ;
#537 =( NAMED_UNIT ( * ) SI_UNIT ( $, .STERADIAN. ) SOLID_ANGLE_UNIT ( ) );
#538 = LINE ( 'NONE', #94, #604 ) ;
#539 = EDGE_CURVE ( 'NONE', #291, #593, #645, .T. ) ;
#540 = AXIS2_PLACEMENT_3D ( 'NONE', #606, #466, #412 ) ;
#541 = DIRECTION ( 'NONE',  ( 0.000000000000000000, 0.000000000000000000, 1.000000000000000000 ) ) ;
#542 = VECTOR ( 'NONE', #275, 1000.000000000000000 ) ;
#543 = LOCAL_TIME ( 16, 3, 54.00000000000000000, #443 ) ;
#544 = CARTESIAN_POINT ( 'NONE',  ( 27.50000000000000355, 37.49999999999999289, 1000.000000000000000 ) ) ;
#545 = FACE_OUTER_BOUND ( 'NONE', #195, .T. ) ;
#546 = EDGE_LOOP ( 'NONE', ( #2, #250, #364, #156 ) ) ;
#547 = DIRECTION ( 'NONE',  ( -0.000000000000000000, -0.000000000000000000, -1.000000000000000000 ) ) ;
#548 = ORIENTED_EDGE ( 'NONE', *, *, #284, .F. ) ;
#549 = CIRCLE ( 'NONE', #244, 10.00000000000000178 ) ;
#550 = VECTOR ( 'NONE', #468, 1000.000000000000000 ) ;
#551 = EDGE_CURVE ( 'NONE', #469, #298, #470, .T. ) ;
#552 = COORDINATED_UNIVERSAL_TIME_OFFSET ( 2, 0, .AHEAD. ) ;
#553 = CARTESIAN_POINT ( 'NONE',  ( 32.50000000000000000, 27.49999999999998934, 0.000000000000000000 ) ) ;
#554 = ORIENTED_EDGE ( 'NONE', *, *, #551, .T. ) ;
#555 = ORIENTED_EDGE ( 'NONE', *, *, #482, .T. ) ;
#556 = CARTESIAN_POINT ( 'NONE',  ( -27.49999999999998934, -37.50000000000000000, 0.000000000000000000 ) ) ;
#557 = ORIENTED_EDGE ( 'NONE', *, *, #13, .T. ) ;
#558 = EDGE_CURVE ( 'NONE', #144, #291, #263, .T. ) ;
#559 = LINE ( 'NONE', #452, #184 ) ;
#560 = ORIENTED_EDGE ( 'NONE', *, *, #463, .F. ) ;
#561 = VECTOR ( 'NONE', #337, 1000.000000000000000 ) ;
#562 = LOCAL_TIME ( 16, 3, 54.00000000000000000, #240 ) ;
#563 = LINE ( 'NONE', #408, #303 ) ;
#564 = VERTEX_POINT ( 'NONE', #12 ) ;
#565 = PLANE ( 'NONE',  #151 ) ;
#566 = CARTESIAN_POINT ( 'NONE',  ( 27.50000000000000355, -27.50000000000000355, 1000.000000000000000 ) ) ;
#567 = DIRECTION ( 'NONE',  ( -0.000000000000000000, -0.000000000000000000, -1.000000000000000000 ) ) ;
#568 = ADVANCED_FACE ( 'NONE', ( #9, #168 ), #565, .F. ) ;
#569 = CARTESIAN_POINT ( 'NONE',  ( -27.49999999999998934, 27.49999999999999289, 0.000000000000000000 ) ) ;
#570 = CIRCLE ( 'NONE', #3, 10.00000000000000178 ) ;
#571 = DIRECTION ( 'NONE',  ( -0.000000000000000000, -0.000000000000000000, -1.000000000000000000 ) ) ;
#572 = DIRECTION ( 'NONE',  ( 0.000000000000000000, 0.000000000000000000, 1.000000000000000000 ) ) ;
#573 = CARTESIAN_POINT ( 'NONE',  ( 27.50000000000000355, -32.50000000000000000, 1000.000000000000000 ) ) ;
#574 = DIRECTION ( 'NONE',  ( -1.261617073437677999E-16, 1.000000000000000000, 0.000000000000000000 ) ) ;
#575 = DIRECTION ( 'NONE',  ( 0.000000000000000000, 1.000000000000000000, 0.000000000000000000 ) ) ;
#576 = ORIENTED_EDGE ( 'NONE', *, *, #405, .T. ) ;
#577 = DIRECTION ( 'NONE',  ( -1.000000000000000000, 0.000000000000000000, 0.000000000000000000 ) ) ;
#578 = ADVANCED_FACE ( 'NONE', ( #517 ), #68, .F. ) ;
#579 = AXIS2_PLACEMENT_3D ( 'NONE', #404, #201, #605 ) ;
#580 = VERTEX_POINT ( 'NONE', #521 ) ;
#581 = CARTESIAN_POINT ( 'NONE',  ( -27.49999999999998934, -32.50000000000000000, 0.000000000000000000 ) ) ;
#582 = VECTOR ( 'NONE', #315, 1000.000000000000000 ) ;
#583 = ORIENTED_EDGE ( 'NONE', *, *, #112, .T. ) ;
#584 = APPROVAL_STATUS ( 'not_yet_approved' ) ;
#585 = CARTESIAN_POINT ( 'NONE',  ( -37.49999999999999289, -27.49999999999999645, 1000.000000000000000 ) ) ;
#586 = ORIENTED_EDGE ( 'NONE', *, *, #327, .T. ) ;
#587 =( LENGTH_UNIT ( ) NAMED_UNIT ( * ) SI_UNIT ( .MILLI., .METRE. ) );
#588 = CYLINDRICAL_SURFACE ( 'NONE', #355, 10.00000000000000178 ) ;
#589 = ADVANCED_FACE ( 'NONE', ( #218 ), #363, .T. ) ;
#590 = PLANE ( 'NONE',  #324 ) ;
#591 = AXIS2_PLACEMENT_3D ( 'NONE', #7, #107, #61 ) ;
#592 = CIRCLE ( 'NONE', #294, 5.000000000000004441 ) ;
#593 = VERTEX_POINT ( 'NONE', #472 ) ;
#594 = PERSON_AND_ORGANIZATION ( #442, #325 ) ;
#595 = EDGE_CURVE ( 'NONE', #430, #109, #423, .T. ) ;
#596 = LINE ( 'NONE', #330, #623 ) ;
#597 = ORIENTED_EDGE ( 'NONE', *, *, #595, .T. ) ;
#598 = CC_DESIGN_DATE_AND_TIME_ASSIGNMENT ( #631, #186, ( #617 ) ) ;
#599 = APPROVAL_STATUS ( 'not_yet_approved' ) ;
#600 = CARTESIAN_POINT ( 'NONE',  ( -27.49999999999998934, -32.50000000000000000, 1000.000000000000000 ) ) ;
#601 = ORIENTED_EDGE ( 'NONE', *, *, #226, .T. ) ;
#602 = DIRECTION ( 'NONE',  ( -0.000000000000000000, -1.000000000000000000, -0.000000000000000000 ) ) ;
#603 = ORIENTED_EDGE ( 'NONE', *, *, #493, .T. ) ;
#604 = VECTOR ( 'NONE', #131, 1000.000000000000000 ) ;
#605 = DIRECTION ( 'NONE',  ( -1.000000000000000000, 0.000000000000000000, 0.000000000000000000 ) ) ;
#606 = CARTESIAN_POINT ( 'NONE',  ( -27.49999999999998934, -27.49999999999999645, 0.000000000000000000 ) ) ;
#607 = EDGE_CURVE ( 'NONE', #430, #580, #176, .T. ) ;
#608 = DIRECTION ( 'NONE',  ( 1.000000000000000000, 0.000000000000000000, 0.000000000000000000 ) ) ;
#609 = ORIENTED_EDGE ( 'NONE', *, *, #311, .F. ) ;
#610 = DIRECTION ( 'NONE',  ( 0.000000000000000000, 0.000000000000000000, 1.000000000000000000 ) ) ;
#611 = CARTESIAN_POINT ( 'NONE',  ( -37.49999999999999289, 27.49999999999999289, 1000.000000000000000 ) ) ;
#612 = APPLICATION_CONTEXT ( 'configuration controlled 3d designs of mechanical parts and assemblies' ) ;
#613 = VECTOR ( 'NONE', #608, 1000.000000000000000 ) ;
#614 = LOCAL_TIME ( 16, 3, 54.00000000000000000, #552 ) ;
#615 = DIRECTION ( 'NONE',  ( -1.000000000000000000, 0.000000000000000000, 0.000000000000000000 ) ) ;
#616 = DIRECTION ( 'NONE',  ( 1.000000000000000000, 0.000000000000000000, 0.000000000000000000 ) ) ;
#617 = PRODUCT_DEFINITION ( 'UNKNOWN', '', #122, #340 ) ;
#618 = DIRECTION ( 'NONE',  ( -1.000000000000000000, 0.000000000000000000, 0.000000000000000000 ) ) ;
#619 = CARTESIAN_POINT ( 'NONE',  ( -32.49999999999999289, 27.49999999999999645, 1000.000000000000000 ) ) ;
#620 = CARTESIAN_POINT ( 'NONE',  ( -27.49999999999998934, -27.49999999999999645, 1000.000000000000000 ) ) ;
#621 = ORIENTED_EDGE ( 'NONE', *, *, #101, .F. ) ;
#622 = DIRECTION ( 'NONE',  ( 1.000000000000000000, 0.000000000000000000, 0.000000000000000000 ) ) ;
#623 = VECTOR ( 'NONE', #37, 1000.000000000000000 ) ;
#624 = DIRECTION ( 'NONE',  ( -0.000000000000000000, -0.000000000000000000, -1.000000000000000000 ) ) ;
#625 = PLANE ( 'NONE',  #163 ) ;
#626 = CARTESIAN_POINT ( 'NONE',  ( -32.49999999999999289, -27.49999999999999645, 0.000000000000000000 ) ) ;
#627 = CARTESIAN_POINT ( 'NONE',  ( -27.49999999999998934, 37.49999999999999289, 1000.000000000000000 ) ) ;
#628 = ORIENTED_EDGE ( 'NONE', *, *, #357, .F. ) ;
#629 = LINE ( 'NONE', #544, #561 ) ;
#630 = PRODUCT_DEFINITION_SHAPE ( 'NONE', 'NONE',  #617 ) ;
#631 = DATE_AND_TIME ( #245, #543 ) ;
#632 = AXIS2_PLACEMENT_3D ( 'NONE', #102, #105, #651 ) ;
#633 = ORIENTED_EDGE ( 'NONE', *, *, #95, .T. ) ;
#634 = LINE ( 'NONE', #637, #60 ) ;
#635 = ORIENTED_EDGE ( 'NONE', *, *, #160, .T. ) ;
#636 = DIRECTION ( 'NONE',  ( 1.000000000000000000, 0.000000000000000000, 0.000000000000000000 ) ) ;
#637 = CARTESIAN_POINT ( 'NONE',  ( 32.50000000000000000, 27.49999999999998934, 1000.000000000000000 ) ) ;
#638 = VERTEX_POINT ( 'NONE', #573 ) ;
#639 = DATE_AND_TIME ( #133, #562 ) ;
#640 = LINE ( 'NONE', #193, #129 ) ;
#641 = VERTEX_POINT ( 'NONE', #318 ) ;
#642 = PERSON_AND_ORGANIZATION ( #442, #325 ) ;
#643 = LINE ( 'NONE', #143, #415 ) ;
#644 = AXIS2_PLACEMENT_3D ( 'NONE', #321, #314, #116 ) ;
#645 = CIRCLE ( 'NONE', #391, 10.00000000000000178 ) ;
#646 = EDGE_CURVE ( 'NONE', #348, #114, #592, .T. ) ;
#647 = ADVANCED_FACE ( 'NONE', ( #223 ), #77, .F. ) ;
#648 = ORIENTED_EDGE ( 'NONE', *, *, #389, .F. ) ;
#649 = CARTESIAN_POINT ( 'NONE',  ( 27.50000000000000355, 37.49999999999999289, 0.000000000000000000 ) ) ;
#650 = SECURITY_CLASSIFICATION_LEVEL ( 'unclassified' ) ;
#651 = DIRECTION ( 'NONE',  ( 1.000000000000000000, 0.000000000000000000, 0.000000000000000000 ) ) ;
#652 = VERTEX_POINT ( 'NONE', #86 ) ;
#653 = EDGE_LOOP ( 'NONE', ( #59, #299, #229, #532 ) ) ;
ENDSEC;
END-ISO-10303-21;
