solid base_rail_x_5m
  facet normal 0 0 -1
    outer loop
      vertex -2.6 -0.07 -0.07
      vertex 2.6 0.07 -0.07
      vertex 2.6 -0.07 -0.07
    endloop
  endfacet
  facet normal 0 0 -1
    outer loop
      vertex -2.6 -0.07 -0.07
      vertex -2.6 0.07 -0.07
      vertex 2.6 0.07 -0.07
    endloop
  endfacet
  facet normal 0 0 1
    outer loop
      vertex -2.6 -0.07 0.07
      vertex 2.6 -0.07 0.07
      vertex 2.6 0.07 0.07
    endloop
  endfacet
  facet normal 0 0 1
    outer loop
      vertex -2.6 -0.07 0.07
      vertex 2.6 0.07 0.07
      vertex -2.6 0.07 0.07
    endloop
  endfacet
  facet normal 0 -1 0
    outer loop
      vertex -2.6 -0.07 -0.07
      vertex 2.6 -0.07 -0.07
      vertex 2.6 -0.07 0.07
    endloop
  endfacet
  facet normal 0 -1 0
    outer loop
      vertex -2.6 -0.07 -0.07
      vertex 2.6 -0.07 0.07
      vertex -2.6 -0.07 0.07
    endloop
  endfacet
  facet normal 1 0 0
    outer loop
      vertex 2.6 -0.07 -0.07
      vertex 2.6 0.07 -0.07
      vertex 2.6 0.07 0.07
    endloop
  endfacet
  facet normal 1 0 0
    outer loop
      vertex 2.6 -0.07 -0.07
      vertex 2.6 0.07 0.07
      vertex 2.6 -0.07 0.07
    endloop
  endfacet
  facet normal 0 1 0
    outer loop
      vertex 2.6 0.07 -0.07
      vertex -2.6 0.07 -0.07
      vertex -2.6 0.07 0.07
    endloop
  endfacet
  facet normal 0 1 -0
    outer loop
      vertex 2.6 0.07 -0.07
      vertex -2.6 0.07 0.07
      vertex 2.6 0.07 0.07
    endloop
  endfacet
  facet normal -1 0 0
    outer loop
      vertex -2.6 0.07 -0.07
      vertex -2.6 -0.07 -0.07
      vertex -2.6 -0.07 0.07
    endloop
  endfacet
  facet normal -1 0 0
    outer loop
      vertex -2.6 0.07 -0.07
      vertex -2.6 -0.07 0.07
      vertex -2.6 0.07 0.07
    endloop
  endfacet
endsolid base_rail_x_5m
