solid gantry_column
  facet normal 0 0 -1
    outer loop
      vertex -0.11 -0.11 -1.225
      vertex 0.11 0.11 -1.225
      vertex 0.11 -0.11 -1.225
    endloop
  endfacet
  facet normal 0 0 -1
    outer loop
      vertex -0.11 -0.11 -1.225
      vertex -0.11 0.11 -1.225
      vertex 0.11 0.11 -1.225
    endloop
  endfacet
  facet normal 0 0 1
    outer loop
      vertex -0.11 -0.11 1.225
      vertex 0.11 -0.11 1.225
      vertex 0.11 0.11 1.225
    endloop
  endfacet
  facet normal 0 0 1
    outer loop
      vertex -0.11 -0.11 1.225
      vertex 0.11 0.11 1.225
      vertex -0.11 0.11 1.225
    endloop
  endfacet
  facet normal 0 -1 0
    outer loop
      vertex -0.11 -0.11 -1.225
      vertex 0.11 -0.11 -1.225
      vertex 0.11 -0.11 1.225
    endloop
  endfacet
  facet normal 0 -1 0
    outer loop
      vertex -0.11 -0.11 -1.225
      vertex 0.11 -0.11 1.225
      vertex -0.11 -0.11 1.225
    endloop
  endfacet
  facet normal 1 0 0
    outer loop
      vertex 0.11 -0.11 -1.225
      vertex 0.11 0.11 -1.225
      vertex 0.11 0.11 1.225
    endloop
  endfacet
  facet normal 1 0 0
    outer loop
      vertex 0.11 -0.11 -1.225
      vertex 0.11 0.11 1.225
      vertex 0.11 -0.11 1.225
    endloop
  endfacet
  facet normal 0 1 0
    outer loop
      vertex 0.11 0.11 -1.225
      vertex -0.11 0.11 -1.225
      vertex -0.11 0.11 1.225
    endloop
  endfacet
  facet normal 0 1 -0
    outer loop
      vertex 0.11 0.11 -1.225
      vertex -0.11 0.11 1.225
      vertex 0.11 0.11 1.225
    endloop
  endfacet
  facet normal -1 0 0
    outer loop
      vertex -0.11 0.11 -1.225
      vertex -0.11 -0.11 -1.225
      vertex -0.11 -0.11 1.225
    endloop
  endfacet
  facet normal -1 0 0
    outer loop
      vertex -0.11 0.11 -1.225
      vertex -0.11 -0.11 1.225
      vertex -0.11 0.11 1.225
    endloop
  endfacet
endsolid gantry_column
