solid laser_head_body
  facet normal 0 0 -1
    outer loop
      vertex -0.09 -0.09 -0.18
      vertex 0.09 0.09 -0.18
      vertex 0.09 -0.09 -0.18
    endloop
  endfacet
  facet normal 0 0 -1
    outer loop
      vertex -0.09 -0.09 -0.18
      vertex -0.09 0.09 -0.18
      vertex 0.09 0.09 -0.18
    endloop
  endfacet
  facet normal 0 0 1
    outer loop
      vertex -0.09 -0.09 0.18
      vertex 0.09 -0.09 0.18
      vertex 0.09 0.09 0.18
    endloop
  endfacet
  facet normal 0 0 1
    outer loop
      vertex -0.09 -0.09 0.18
      vertex 0.09 0.09 0.18
      vertex -0.09 0.09 0.18
    endloop
  endfacet
  facet normal 0 -1 0
    outer loop
      vertex -0.09 -0.09 -0.18
      vertex 0.09 -0.09 -0.18
      vertex 0.09 -0.09 0.18
    endloop
  endfacet
  facet normal 0 -1 0
    outer loop
      vertex -0.09 -0.09 -0.18
      vertex 0.09 -0.09 0.18
      vertex -0.09 -0.09 0.18
    endloop
  endfacet
  facet normal 1 0 0
    outer loop
      vertex 0.09 -0.09 -0.18
      vertex 0.09 0.09 -0.18
      vertex 0.09 0.09 0.18
    endloop
  endfacet
  facet normal 1 0 0
    outer loop
      vertex 0.09 -0.09 -0.18
      vertex 0.09 0.09 0.18
      vertex 0.09 -0.09 0.18
    endloop
  endfacet
  facet normal 0 1 0
    outer loop
      vertex 0.09 0.09 -0.18
      vertex -0.09 0.09 -0.18
      vertex -0.09 0.09 0.18
    endloop
  endfacet
  facet normal 0 1 -0
    outer loop
      vertex 0.09 0.09 -0.18
      vertex -0.09 0.09 0.18
      vertex 0.09 0.09 0.18
    endloop
  endfacet
  facet normal -1 0 0
    outer loop
      vertex -0.09 0.09 -0.18
      vertex -0.09 -0.09 -0.18
      vertex -0.09 -0.09 0.18
    endloop
  endfacet
  facet normal -1 0 0
    outer loop
      vertex -0.09 0.09 -0.18
      vertex -0.09 -0.09 0.18
      vertex -0.09 0.09 0.18
    endloop
  endfacet
endsolid laser_head_body
