solid work_table
  facet normal 0 0 -1
    outer loop
      vertex -2.5 -1.4 -0.03
      vertex 2.5 1.4 -0.03
      vertex 2.5 -1.4 -0.03
    endloop
  endfacet
  facet normal 0 0 -1
    outer loop
      vertex -2.5 -1.4 -0.03
      vertex -2.5 1.4 -0.03
      vertex 2.5 1.4 -0.03
    endloop
  endfacet
  facet normal 0 0 1
    outer loop
      vertex -2.5 -1.4 0.03
      vertex 2.5 -1.4 0.03
      vertex 2.5 1.4 0.03
    endloop
  endfacet
  facet normal 0 0 1
    outer loop
      vertex -2.5 -1.4 0.03
      vertex 2.5 1.4 0.03
      vertex -2.5 1.4 0.03
    endloop
  endfacet
  facet normal 0 -1 0
    outer loop
      vertex -2.5 -1.4 -0.03
      vertex 2.5 -1.4 -0.03
      vertex 2.5 -1.4 0.03
    endloop
  endfacet
  facet normal 0 -1 0
    outer loop
      vertex -2.5 -1.4 -0.03
      vertex 2.5 -1.4 0.03
      vertex -2.5 -1.4 0.03
    endloop
  endfacet
  facet normal 1 0 0
    outer loop
      vertex 2.5 -1.4 -0.03
      vertex 2.5 1.4 -0.03
      vertex 2.5 1.4 0.03
    endloop
  endfacet
  facet normal 1 0 0
    outer loop
      vertex 2.5 -1.4 -0.03
      vertex 2.5 1.4 0.03
      vertex 2.5 -1.4 0.03
    endloop
  endfacet
  facet normal 0 1 0
    outer loop
      vertex 2.5 1.4 -0.03
      vertex -2.5 1.4 -0.03
      vertex -2.5 1.4 0.03
    endloop
  endfacet
  facet normal 0 1 -0
    outer loop
      vertex 2.5 1.4 -0.03
      vertex -2.5 1.4 0.03
      vertex 2.5 1.4 0.03
    endloop
  endfacet
  facet normal -1 0 0
    outer loop
      vertex -2.5 1.4 -0.03
      vertex -2.5 -1.4 -0.03
      vertex -2.5 -1.4 0.03
    endloop
  endfacet
  facet normal -1 0 0
    outer loop
      vertex -2.5 1.4 -0.03
      vertex -2.5 -1.4 0.03
      vertex -2.5 1.4 0.03
    endloop
  endfacet
endsolid work_table
