solid y_carriage
  facet normal 0 0 -1
    outer loop
      vertex -0.26 -0.21 -0.16
      vertex 0.26 0.21 -0.16
      vertex 0.26 -0.21 -0.16
    endloop
  endfacet
  facet normal 0 0 -1
    outer loop
      vertex -0.26 -0.21 -0.16
      vertex -0.26 0.21 -0.16
      vertex 0.26 0.21 -0.16
    endloop
  endfacet
  facet normal 0 0 1
    outer loop
      vertex -0.26 -0.21 0.16
      vertex 0.26 -0.21 0.16
      vertex 0.26 0.21 0.16
    endloop
  endfacet
  facet normal 0 0 1
    outer loop
      vertex -0.26 -0.21 0.16
      vertex 0.26 0.21 0.16
      vertex -0.26 0.21 0.16
    endloop
  endfacet
  facet normal 0 -1 0
    outer loop
      vertex -0.26 -0.21 -0.16
      vertex 0.26 -0.21 -0.16
      vertex 0.26 -0.21 0.16
    endloop
  endfacet
  facet normal 0 -1 0
    outer loop
      vertex -0.26 -0.21 -0.16
      vertex 0.26 -0.21 0.16
      vertex -0.26 -0.21 0.16
    endloop
  endfacet
  facet normal 1 0 0
    outer loop
      vertex 0.26 -0.21 -0.16
      vertex 0.26 0.21 -0.16
      vertex 0.26 0.21 0.16
    endloop
  endfacet
  facet normal 1 0 0
    outer loop
      vertex 0.26 -0.21 -0.16
      vertex 0.26 0.21 0.16
      vertex 0.26 -0.21 0.16
    endloop
  endfacet
  facet normal 0 1 0
    outer loop
      vertex 0.26 0.21 -0.16
      vertex -0.26 0.21 -0.16
      vertex -0.26 0.21 0.16
    endloop
  endfacet
  facet normal 0 1 -0
    outer loop
      vertex 0.26 0.21 -0.16
      vertex -0.26 0.21 0.16
      vertex 0.26 0.21 0.16
    endloop
  endfacet
  facet normal -1 0 0
    outer loop
      vertex -0.26 0.21 -0.16
      vertex -0.26 -0.21 -0.16
      vertex -0.26 -0.21 0.16
    endloop
  endfacet
  facet normal -1 0 0
    outer loop
      vertex -0.26 0.21 -0.16
      vertex -0.26 -0.21 0.16
      vertex -0.26 0.21 0.16
    endloop
  endfacet
endsolid y_carriage
