solid z_slide
  facet normal 0 0 -1
    outer loop
      vertex -0.1 -0.1 -0.575
      vertex 0.1 0.1 -0.575
      vertex 0.1 -0.1 -0.575
    endloop
  endfacet
  facet normal 0 0 -1
    outer loop
      vertex -0.1 -0.1 -0.575
      vertex -0.1 0.1 -0.575
      vertex 0.1 0.1 -0.575
    endloop
  endfacet
  facet normal 0 0 1
    outer loop
      vertex -0.1 -0.1 0.575
      vertex 0.1 -0.1 0.575
      vertex 0.1 0.1 0.575
    endloop
  endfacet
  facet normal 0 0 1
    outer loop
      vertex -0.1 -0.1 0.575
      vertex 0.1 0.1 0.575
      vertex -0.1 0.1 0.575
    endloop
  endfacet
  facet normal 0 -1 0
    outer loop
      vertex -0.1 -0.1 -0.575
      vertex 0.1 -0.1 -0.575
      vertex 0.1 -0.1 0.575
    endloop
  endfacet
  facet normal 0 -1 0
    outer loop
      vertex -0.1 -0.1 -0.575
      vertex 0.1 -0.1 0.575
      vertex -0.1 -0.1 0.575
    endloop
  endfacet
  facet normal 1 0 0
    outer loop
      vertex 0.1 -0.1 -0.575
      vertex 0.1 0.1 -0.575
      vertex 0.1 0.1 0.575
    endloop
  endfacet
  facet normal 1 0 0
    outer loop
      vertex 0.1 -0.1 -0.575
      vertex 0.1 0.1 0.575
      vertex 0.1 -0.1 0.575
    endloop
  endfacet
  facet normal 0 1 0
    outer loop
      vertex 0.1 0.1 -0.575
      vertex -0.1 0.1 -0.575
      vertex -0.1 0.1 0.575
    endloop
  endfacet
  facet normal 0 1 -0
    outer loop
      vertex 0.1 0.1 -0.575
      vertex -0.1 0.1 0.575
      vertex 0.1 0.1 0.575
    endloop
  endfacet
  facet normal -1 0 0
    outer loop
      vertex -0.1 0.1 -0.575
      vertex -0.1 -0.1 -0.575
      vertex -0.1 -0.1 0.575
    endloop
  endfacet
  facet normal -1 0 0
    outer loop
      vertex -0.1 0.1 -0.575
      vertex -0.1 -0.1 0.575
      vertex -0.1 0.1 0.575
    endloop
  endfacet
endsolid z_slide
