<svg xmlns="http://www.w3.org/2000/svg" viewBox="0 0 100 100" fill="none" stroke="currentColor" stroke-linecap="round" stroke-linejoin="round" color="#16867b"><style>.guardrail-rail{fill:none;stroke:#2f8f86;stroke-width:2.4}.guardrail-post{fill:none;stroke:#4aa29a;stroke-width:2.8}.guardrail-large-post{stroke:#197c73;stroke-width:4.4}.guardrail-infill{fill:none;stroke:#70b8b0;stroke-width:1.05}.guardrail-base{fill:none;stroke:#5ca69f;stroke-width:1.8}.guardrail-panel{fill:rgba(113,175,181,.48);stroke:#5eaaa8;stroke-width:1.2}.guardrail-glass{fill:rgba(113,194,223,.22);stroke:#4a9db4;stroke-width:.8}.guardrail-spear{fill:#4aa29a;stroke:#4aa29a;stroke-width:.6}.guardrail-post-cap{fill:#8ac8c2;stroke:#4f9d95;stroke-width:.5}</style><g class="guardrail-schematic"><line class="guardrail-infill" x1="14.92" y1="61.00" x2="14.92" y2="23.00" /><line class="guardrail-infill" x1="17.84" y1="64.99" x2="17.84" y2="26.99" /><line class="guardrail-infill" x1="20.76" y1="68.99" x2="20.76" y2="30.99" /><line class="guardrail-infill" x1="23.68" y1="72.99" x2="23.68" y2="34.99" /><line class="guardrail-infill" x1="26.60" y1="76.98" x2="26.60" y2="38.98" /><line class="guardrail-rail" x1="12.00" y1="57.00" x2="29.52" y2="80.98" /><line class="guardrail-rail" x1="12.00" y1="19.00" x2="29.52" y2="42.98" /><line class="guardrail-infill" x1="37.70" y1="81.20" x2="37.70" y2="43.20" /><line class="guardrail-infill" x1="41.99" y1="80.04" x2="41.99" y2="42.04" /><line class="guardrail-infill" x1="46.28" y1="78.89" x2="46.28" y2="40.89" /><line class="guardrail-infill" x1="50.57" y1="77.73" x2="50.57" y2="39.73" /><line class="guardrail-infill" x1="54.86" y1="76.58" x2="54.86" y2="38.58" /><line class="guardrail-infill" x1="59.14" y1="75.42" x2="59.14" y2="37.42" /><line class="guardrail-infill" x1="63.43" y1="74.27" x2="63.43" y2="36.27" /><line class="guardrail-infill" x1="67.72" y1="73.11" x2="67.72" y2="35.11" /><line class="guardrail-infill" x1="72.01" y1="71.96" x2="72.01" y2="33.96" /><line class="guardrail-infill" x1="76.30" y1="70.80" x2="76.30" y2="32.80" /><line class="guardrail-rail" x1="33.41" y1="82.35" x2="80.59" y2="69.65" /><line class="guardrail-rail" x1="33.41" y1="44.35" x2="80.59" y2="31.65" /><line class="guardrail-infill" x1="84.67" y1="62.31" x2="84.67" y2="24.31" /><line class="guardrail-infill" x1="85.74" y1="58.05" x2="85.74" y2="20.05" /><line class="guardrail-infill" x1="86.80" y1="53.79" x2="86.80" y2="15.79" /><line class="guardrail-infill" x1="87.87" y1="49.52" x2="87.87" y2="11.52" /><line class="guardrail-infill" x1="88.93" y1="45.26" x2="88.93" y2="7.26" /><line class="guardrail-rail" x1="83.61" y1="66.57" x2="90.00" y2="41.00" /><line class="guardrail-rail" x1="83.61" y1="28.57" x2="90.00" y2="3.00" /><line class="guardrail-post" x1="12.00" y1="62.00" x2="12.00" y2="19.00" /><line class="guardrail-base" x1="10.00" y1="62.00" x2="14.00" y2="62.00" /><line class="guardrail-post" x1="29.52" y1="85.98" x2="29.52" y2="42.98" /><line class="guardrail-base" x1="27.52" y1="85.98" x2="31.52" y2="85.98" /><line class="guardrail-post" x1="33.41" y1="87.35" x2="33.41" y2="44.35" /><line class="guardrail-base" x1="31.41" y1="87.35" x2="35.41" y2="87.35" /><line class="guardrail-post" x1="80.59" y1="74.65" x2="80.59" y2="31.65" /><line class="guardrail-base" x1="78.59" y1="74.65" x2="82.59" y2="74.65" /><line class="guardrail-post" x1="57.00" y1="81.00" x2="57.00" y2="38.00" /><line class="guardrail-base" x1="55.00" y1="81.00" x2="59.00" y2="81.00" /><line class="guardrail-post" x1="83.61" y1="71.57" x2="83.61" y2="28.57" /><line class="guardrail-base" x1="81.61" y1="71.57" x2="85.61" y2="71.57" /><line class="guardrail-post" x1="90.00" y1="46.00" x2="90.00" y2="3.00" /><line class="guardrail-base" x1="88.00" y1="46.00" x2="92.00" y2="46.00" /></g></svg>
