<svg xmlns="http://www.w3.org/2000/svg" width="1200" height="820" viewBox="0 0 1200 820">
<defs>
  <marker id="arrow" markerWidth="10" markerHeight="10" refX="8" refY="3" orient="auto" markerUnits="strokeWidth">
    <path d="M0,0 L0,6 L9,3 z" fill="#d33"/>
  </marker>
  <marker id="arrowBlue" markerWidth="10" markerHeight="10" refX="8" refY="3" orient="auto" markerUnits="strokeWidth">
    <path d="M0,0 L0,6 L9,3 z" fill="#2d6ca2"/>
  </marker>
</defs>
<rect width="100%" height="100%" fill="white"/>
<text x="600" y="48" text-anchor="middle" font-size="32" font-weight="700" fill="#123f73">07 平开式防盗窗 / 带逃生门（参数化模板）</text>
<rect x="90" y="130" width="700" height="500" rx="0" fill="none" stroke="#123f73" stroke-width="5"/><line x1="145" y1="150" x2="145" y2="610" stroke="#222" stroke-width="6"/><line x1="215" y1="150" x2="215" y2="610" stroke="#222" stroke-width="6"/><line x1="285" y1="150" x2="285" y2="610" stroke="#222" stroke-width="6"/><line x1="355" y1="150" x2="355" y2="610" stroke="#222" stroke-width="6"/><line x1="425" y1="150" x2="425" y2="610" stroke="#222" stroke-width="6"/><line x1="495" y1="150" x2="495" y2="610" stroke="#222" stroke-width="6"/><line x1="110" y1="290" x2="525" y2="290" stroke="#222" stroke-width="6"/><line x1="110" y1="440" x2="525" y2="440" stroke="#222" stroke-width="6"/><rect x="558" y="138" width="224" height="484" rx="0" fill="none" stroke="#2d6ca2" stroke-width="4"/><line x1="605" y1="150" x2="605" y2="610" stroke="#222" stroke-width="5"/><line x1="660" y1="150" x2="660" y2="610" stroke="#222" stroke-width="5"/><line x1="715" y1="150" x2="715" y2="610" stroke="#222" stroke-width="5"/><line x1="570" y1="350" x2="770" y2="350" stroke="#222" stroke-width="5"/><text x="590" y="210" font-size="16" fill="#2d6ca2" text-anchor="start" font-weight="700">AccessPanel</text><circle cx="772" cy="290" r="8" fill="#d33"/><circle cx="772" cy="470" r="8" fill="#d33"/><line x1="90" y1="95" x2="790" y2="95" stroke="#d33" stroke-width="1.8"/><line x1="90" y1="95" x2="91" y2="95" stroke="#d33" stroke-width="1.8" marker-end="url(#arrow)"/><line x1="790" y1="95" x2="789" y2="95" stroke="#d33" stroke-width="1.8" marker-end="url(#arrow)"/><text x="440.0" y="77" font-size="18" fill="#d33" text-anchor="middle" font-weight="700">W 总宽</text><line x1="60" y1="130" x2="60" y2="630" stroke="#d33" stroke-width="1.8"/><line x1="60" y1="130" x2="60" y2="131" stroke="#d33" stroke-width="1.8" marker-end="url(#arrow)"/><line x1="60" y1="630" x2="60" y2="629" stroke="#d33" stroke-width="1.8" marker-end="url(#arrow)"/><text x="50" y="380.0" font-size="18" fill="#d33" text-anchor="middle" font-weight="700" transform="rotate(-90 50 380.0)">H 总高</text><line x1="558" y1="660" x2="782" y2="660" stroke="#d33" stroke-width="1.8"/><line x1="558" y1="660" x2="559" y2="660" stroke="#d33" stroke-width="1.8" marker-end="url(#arrow)"/><line x1="782" y1="660" x2="781" y2="660" stroke="#d33" stroke-width="1.8" marker-end="url(#arrow)"/><text x="670.0" y="682" font-size="18" fill="#d33" text-anchor="middle" font-weight="700">Wa 逃生门宽</text><line x1="815" y1="138" x2="815" y2="622" stroke="#d33" stroke-width="1.8"/><line x1="815" y1="138" x2="815" y2="139" stroke="#d33" stroke-width="1.8" marker-end="url(#arrow)"/><line x1="815" y1="622" x2="815" y2="621" stroke="#d33" stroke-width="1.8" marker-end="url(#arrow)"/><text x="851" y="380.0" font-size="18" fill="#d33" text-anchor="middle" font-weight="700" transform="rotate(-90 851 380.0)">Ha 逃生门高</text><rect x="830" y="300" width="335" height="236" rx="8" fill="#eef5fb" stroke="#123f73" stroke-width="1.5"/><text x="997.5" y="324" font-size="21" fill="#123f73" text-anchor="middle" font-weight="700">参数说明</text><line x1="838" y1="335" x2="1157" y2="335" stroke="#c7d5e3" stroke-width="1"/><text x="844" y="354" font-size="15" fill="#d33" text-anchor="start" font-weight="700">W/H</text><text x="940" y="354" font-size="14" fill="#222" text-anchor="start" font-weight="400">总宽 / 总高</text><line x1="838" y1="363" x2="1157" y2="363" stroke="#c7d5e3" stroke-width="1"/><text x="844" y="382" font-size="15" fill="#d33" text-anchor="start" font-weight="700">Wa/Ha</text><text x="940" y="382" font-size="14" fill="#222" text-anchor="start" font-weight="400">逃生门宽 / 高</text><line x1="838" y1="391" x2="1157" y2="391" stroke="#c7d5e3" stroke-width="1"/><text x="844" y="410" font-size="15" fill="#d33" text-anchor="start" font-weight="700">g</text><text x="940" y="410" font-size="14" fill="#222" text-anchor="start" font-weight="400">门扇与固定框间隙</text><line x1="838" y1="419" x2="1157" y2="419" stroke="#c7d5e3" stroke-width="1"/><text x="844" y="438" font-size="15" fill="#d33" text-anchor="start" font-weight="700">HingeSide</text><text x="940" y="438" font-size="14" fill="#222" text-anchor="start" font-weight="400">合页侧 Left / Right</text><line x1="838" y1="447" x2="1157" y2="447" stroke="#c7d5e3" stroke-width="1"/><text x="844" y="466" font-size="15" fill="#d33" text-anchor="start" font-weight="700">FrameProfile</text><text x="940" y="466" font-size="14" fill="#222" text-anchor="start" font-weight="400">固定框型材</text><line x1="838" y1="475" x2="1157" y2="475" stroke="#c7d5e3" stroke-width="1"/><text x="844" y="494" font-size="15" fill="#d33" text-anchor="start" font-weight="700">AccessFrameProfile</text><text x="940" y="494" font-size="14" fill="#222" text-anchor="start" font-weight="400">逃生门框型材</text><line x1="838" y1="503" x2="1157" y2="503" stroke="#c7d5e3" stroke-width="1"/><text x="844" y="522" font-size="15" fill="#d33" text-anchor="start" font-weight="700">Pv/Ph</text><text x="940" y="522" font-size="14" fill="#222" text-anchor="start" font-weight="400">格栅节距</text></svg>