<svg xmlns="http://www.w3.org/2000/svg" width="1200" height="820" viewBox="0 0 1200 820">
<defs>
  <marker id="arrow" markerWidth="10" markerHeight="10" refX="8" refY="3" orient="auto" markerUnits="strokeWidth">
    <path d="M0,0 L0,6 L9,3 z" fill="#d33"/>
  </marker>
  <marker id="arrowBlue" markerWidth="10" markerHeight="10" refX="8" refY="3" orient="auto" markerUnits="strokeWidth">
    <path d="M0,0 L0,6 L9,3 z" fill="#2d6ca2"/>
  </marker>
</defs>
<rect width="100%" height="100%" fill="white"/>
<text x="600" y="48" text-anchor="middle" font-size="32" font-weight="700" fill="#123f73">08 推拉式防盗窗（参数化模板）</text>
<rect x="95" y="130" width="700" height="470" rx="0" fill="none" stroke="#123f73" stroke-width="5"/><rect x="115" y="150" width="362.5" height="430" rx="0" fill="none" stroke="#2d6ca2" stroke-width="4"/><rect x="412.5" y="150" width="362.5" height="430" rx="0" fill="none" stroke="#2d6ca2" stroke-width="4"/><line x1="160.0" y1="165" x2="160.0" y2="565" stroke="#222" stroke-width="4"/><line x1="228.125" y1="165" x2="228.125" y2="565" stroke="#222" stroke-width="4"/><line x1="296.25" y1="165" x2="296.25" y2="565" stroke="#222" stroke-width="4"/><line x1="364.375" y1="165" x2="364.375" y2="565" stroke="#222" stroke-width="4"/><line x1="432.5" y1="165" x2="432.5" y2="565" stroke="#222" stroke-width="4"/><line x1="130" y1="290" x2="462.5" y2="290" stroke="#222" stroke-width="4"/><line x1="130" y1="430" x2="462.5" y2="430" stroke="#222" stroke-width="4"/><line x1="457.5" y1="165" x2="457.5" y2="565" stroke="#222" stroke-width="4"/><line x1="525.625" y1="165" x2="525.625" y2="565" stroke="#222" stroke-width="4"/><line x1="593.75" y1="165" x2="593.75" y2="565" stroke="#222" stroke-width="4"/><line x1="661.875" y1="165" x2="661.875" y2="565" stroke="#222" stroke-width="4"/><line x1="730.0" y1="165" x2="730.0" y2="565" stroke="#222" stroke-width="4"/><line x1="427.5" y1="290" x2="760.0" y2="290" stroke="#222" stroke-width="4"/><line x1="427.5" y1="430" x2="760.0" y2="430" stroke="#222" stroke-width="4"/><line x1="95" y1="95" x2="795" y2="95" stroke="#d33" stroke-width="1.8"/><line x1="95" y1="95" x2="96" y2="95" stroke="#d33" stroke-width="1.8" marker-end="url(#arrow)"/><line x1="795" y1="95" x2="794" y2="95" stroke="#d33" stroke-width="1.8" marker-end="url(#arrow)"/><text x="445.0" y="77" font-size="18" fill="#d33" text-anchor="middle" font-weight="700">W 总宽</text><line x1="65" y1="130" x2="65" y2="600" stroke="#d33" stroke-width="1.8"/><line x1="65" y1="130" x2="65" y2="131" stroke="#d33" stroke-width="1.8" marker-end="url(#arrow)"/><line x1="65" y1="600" x2="65" y2="599" stroke="#d33" stroke-width="1.8" marker-end="url(#arrow)"/><text x="55" y="365.0" font-size="18" fill="#d33" text-anchor="middle" font-weight="700" transform="rotate(-90 55 365.0)">H 总高</text><line x1="115" y1="630" x2="477.5" y2="630" stroke="#d33" stroke-width="1.8"/><line x1="115" y1="630" x2="116" y2="630" stroke="#d33" stroke-width="1.8" marker-end="url(#arrow)"/><line x1="477.5" y1="630" x2="476.5" y2="630" stroke="#d33" stroke-width="1.8" marker-end="url(#arrow)"/><text x="296.25" y="652" font-size="18" fill="#d33" text-anchor="middle" font-weight="700">W1 / W2 扇宽</text><line x1="412.5" y1="665" x2="477.5" y2="665" stroke="#d33" stroke-width="1.8"/><line x1="412.5" y1="665" x2="413.5" y2="665" stroke="#d33" stroke-width="1.8" marker-end="url(#arrow)"/><line x1="477.5" y1="665" x2="476.5" y2="665" stroke="#d33" stroke-width="1.8" marker-end="url(#arrow)"/><text x="445.0" y="687" font-size="18" fill="#d33" text-anchor="middle" font-weight="700">Ov 搭接量</text><text x="860" y="135" font-size="18" fill="#123f73" text-anchor="start" font-weight="700">俯视轨道关系</text><line x1="860" y1="175" x2="1110" y2="175" stroke="#222" stroke-width="5"/><line x1="860" y1="230" x2="1110" y2="230" stroke="#222" stroke-width="5"/><rect x="885" y="160" width="135" height="18" rx="0" fill="#cfe0f2" stroke="#2d6ca2" stroke-width="2"/><rect x="955" y="215" width="135" height="18" rx="0" fill="#cfe0f2" stroke="#2d6ca2" stroke-width="2"/><line x1="1135" y1="175" x2="1135" y2="230" stroke="#d33" stroke-width="1.8"/><line x1="1135" y1="175" x2="1135" y2="176" stroke="#d33" stroke-width="1.8" marker-end="url(#arrow)"/><line x1="1135" y1="230" x2="1135" y2="229" stroke="#d33" stroke-width="1.8" marker-end="url(#arrow)"/><text x="1163" y="202.5" font-size="18" fill="#d33" text-anchor="middle" font-weight="700" transform="rotate(-90 1163 202.5)">Ts 轨道间距</text><rect x="815" y="300" width="350" height="264" rx="8" fill="#eef5fb" stroke="#123f73" stroke-width="1.5"/><text x="990.0" y="324" font-size="21" fill="#123f73" text-anchor="middle" font-weight="700">参数说明</text><line x1="823" y1="335" x2="1157" y2="335" stroke="#c7d5e3" stroke-width="1"/><text x="829" y="354" font-size="15" fill="#d33" text-anchor="start" font-weight="700">W/H</text><text x="925" y="354" font-size="14" fill="#222" text-anchor="start" font-weight="400">总宽 / 总高</text><line x1="823" y1="363" x2="1157" y2="363" stroke="#c7d5e3" stroke-width="1"/><text x="829" y="382" font-size="15" fill="#d33" text-anchor="start" font-weight="700">W1/W2</text><text x="925" y="382" font-size="14" fill="#222" text-anchor="start" font-weight="400">左右扇宽</text><line x1="823" y1="391" x2="1157" y2="391" stroke="#c7d5e3" stroke-width="1"/><text x="829" y="410" font-size="15" fill="#d33" text-anchor="start" font-weight="700">Ov</text><text x="925" y="410" font-size="14" fill="#222" text-anchor="start" font-weight="400">两扇搭接量</text><line x1="823" y1="419" x2="1157" y2="419" stroke="#c7d5e3" stroke-width="1"/><text x="829" y="438" font-size="15" fill="#d33" text-anchor="start" font-weight="700">Ts</text><text x="925" y="438" font-size="14" fill="#222" text-anchor="start" font-weight="400">轨道间距</text><line x1="823" y1="447" x2="1157" y2="447" stroke="#c7d5e3" stroke-width="1"/><text x="829" y="466" font-size="15" fill="#d33" text-anchor="start" font-weight="700">PanelCount</text><text x="925" y="466" font-size="14" fill="#222" text-anchor="start" font-weight="400">扇数</text><line x1="823" y1="475" x2="1157" y2="475" stroke="#c7d5e3" stroke-width="1"/><text x="829" y="494" font-size="15" fill="#d33" text-anchor="start" font-weight="700">FrameProfile</text><text x="925" y="494" font-size="14" fill="#222" text-anchor="start" font-weight="400">外框型材</text><line x1="823" y1="503" x2="1157" y2="503" stroke="#c7d5e3" stroke-width="1"/><text x="829" y="522" font-size="15" fill="#d33" text-anchor="start" font-weight="700">PanelFrame</text><text x="925" y="522" font-size="14" fill="#222" text-anchor="start" font-weight="400">扇框型材</text><line x1="823" y1="531" x2="1157" y2="531" stroke="#c7d5e3" stroke-width="1"/><text x="829" y="550" font-size="15" fill="#d33" text-anchor="start" font-weight="700">Pv/Ph</text><text x="925" y="550" font-size="14" fill="#222" text-anchor="start" font-weight="400">格栅中心距</text></svg>