<svg xmlns="http://www.w3.org/2000/svg" viewBox="0 0 100 100" fill="none" stroke-linecap="round" stroke-linejoin="round" color="#16867b"><style>.security-frame{fill:none;stroke:#2f8f86;stroke-width:2.4}.security-rail{fill:none;stroke:#5ca69f;stroke-width:1.5}.security-rod{fill:none;stroke:#70b8b0;stroke-width:1.25}.multi-face-fill{fill:rgba(88,168,160,.14);stroke:none}.multi-face-fill:nth-of-type(even){fill:rgba(88,168,160,.22)}.multi-face-frame{fill:none;stroke:#2f8f86;stroke-width:2.4}.multi-face-corner{stroke:#177b71;stroke-width:3.6}.multi-face-rail{fill:none;stroke:#5ca69f;stroke-width:1.5}.multi-face-rod{fill:none;stroke:#70b8b0;stroke-width:1.25}.multi-face-door-frame{fill:rgba(227,168,63,.18);stroke:#d58a2c;stroke-width:2.5}.multi-face-door-leaf{fill:rgba(42,74,82,.42);stroke:#e4ad4c;stroke-width:1.4}</style><polygon class="multi-face-fill face-1" points="7,13 28,25 28,89 7,77" /><polygon class="multi-face-fill face-2" points="28,25 72,25 72,89 28,89" /><polygon class="multi-face-fill face-3" points="72,25 93,13 93,77 72,89" /><line class="multi-face-rail" x1="7" y1="32.2" x2="28" y2="44.2" /><line class="multi-face-rail" x1="7" y1="48.2" x2="28" y2="60.2" /><line class="multi-face-rail" x1="7" y1="64.2" x2="28" y2="76.2" /><line class="multi-face-rod" x1="17.5" y1="19" x2="17.5" y2="83" /><line class="multi-face-rail" x1="28" y1="44.2" x2="72" y2="44.2" /><line class="multi-face-rail" x1="28" y1="60.2" x2="72" y2="60.2" /><line class="multi-face-rail" x1="28" y1="76.2" x2="72" y2="76.2" /><line class="multi-face-rod" x1="42.67" y1="25" x2="42.67" y2="89" /><line class="multi-face-rod" x1="57.33" y1="25" x2="57.33" y2="89" /><line class="multi-face-rail" x1="72" y1="44.2" x2="93" y2="32.2" /><line class="multi-face-rail" x1="72" y1="60.2" x2="93" y2="48.2" /><line class="multi-face-rail" x1="72" y1="76.2" x2="93" y2="64.2" /><line class="multi-face-rod" x1="82.5" y1="19" x2="82.5" y2="83" /><line class="multi-face-frame" x1="7" y1="13" x2="28" y2="25" /><line class="multi-face-frame" x1="7" y1="77" x2="28" y2="89" /><line class="multi-face-frame" x1="28" y1="25" x2="72" y2="25" /><line class="multi-face-frame" x1="28" y1="89" x2="72" y2="89" /><line class="multi-face-frame" x1="72" y1="25" x2="93" y2="13" /><line class="multi-face-frame" x1="72" y1="89" x2="93" y2="77" /><line class="multi-face-frame" x1="7" y1="13" x2="7" y2="77" /><line class="multi-face-frame multi-face-corner" x1="28" y1="25" x2="28" y2="89" /><line class="multi-face-frame multi-face-corner" x1="72" y1="25" x2="72" y2="89" /><line class="multi-face-frame" x1="93" y1="13" x2="93" y2="77" /><polygon class="multi-face-door-frame" points="33.5,76.56 65.77,76.56 65.77,39.22 33.5,39.22" /><polygon class="multi-face-door-leaf" points="35.04,74.32 64.23,74.32 64.23,41.46 35.04,41.46" /></svg>
