<svg xmlns="http://www.w3.org/2000/svg" viewBox="0 0 100 100" fill="none" stroke="currentColor" stroke-linecap="round" stroke-linejoin="round" color="#16867b"><style>.guardrail-rail{fill:none;stroke:#2f8f86;stroke-width:2.4}.guardrail-post{fill:none;stroke:#4aa29a;stroke-width:2.8}.guardrail-large-post{stroke:#197c73;stroke-width:4.4}.guardrail-infill{fill:none;stroke:#70b8b0;stroke-width:1.05}.guardrail-base{fill:none;stroke:#5ca69f;stroke-width:1.8}.guardrail-panel{fill:rgba(113,175,181,.48);stroke:#5eaaa8;stroke-width:1.2}.guardrail-glass{fill:rgba(113,194,223,.22);stroke:#4a9db4;stroke-width:.8}.guardrail-spear{fill:#4aa29a;stroke:#4aa29a;stroke-width:.6}.guardrail-post-cap{fill:#8ac8c2;stroke:#4f9d95;stroke-width:.5}</style><g class="guardrail-schematic"><line class="guardrail-infill" x1="12.51" y1="64.90" x2="12.51" y2="26.90" /><line class="guardrail-infill" x1="16.02" y1="67.80" x2="16.02" y2="29.80" /><line class="guardrail-infill" x1="19.54" y1="70.70" x2="19.54" y2="32.70" /><line class="guardrail-infill" x1="23.05" y1="73.61" x2="23.05" y2="35.61" /><line class="guardrail-infill" x1="26.56" y1="76.51" x2="26.56" y2="38.51" /><line class="guardrail-rail" x1="9.00" y1="62.00" x2="30.07" y2="79.41" /><line class="guardrail-rail" x1="9.00" y1="24.00" x2="30.07" y2="41.41" /><line class="guardrail-infill" x1="39.13" y1="79.07" x2="39.13" y2="41.07" /><line class="guardrail-infill" x1="43.84" y1="77.79" x2="43.84" y2="39.79" /><line class="guardrail-infill" x1="48.56" y1="76.51" x2="48.56" y2="38.51" /><line class="guardrail-infill" x1="53.28" y1="75.23" x2="53.28" y2="37.23" /><line class="guardrail-infill" x1="57.99" y1="73.95" x2="57.99" y2="35.95" /><line class="guardrail-infill" x1="62.71" y1="72.67" x2="62.71" y2="34.67" /><line class="guardrail-infill" x1="67.42" y1="71.39" x2="67.42" y2="33.39" /><line class="guardrail-infill" x1="72.14" y1="70.12" x2="72.14" y2="32.12" /><line class="guardrail-infill" x1="76.85" y1="68.84" x2="76.85" y2="30.84" /><line class="guardrail-infill" x1="81.57" y1="67.56" x2="81.57" y2="29.56" /><line class="guardrail-infill" x1="86.28" y1="66.28" x2="86.28" y2="28.28" /><line class="guardrail-rail" x1="34.41" y1="80.35" x2="91.00" y2="65.00" /><line class="guardrail-rail" x1="34.41" y1="42.35" x2="91.00" y2="27.00" /><line class="guardrail-post" x1="9.00" y1="67.00" x2="9.00" y2="24.00" /><line class="guardrail-base" x1="7.00" y1="67.00" x2="11.00" y2="67.00" /><line class="guardrail-post" x1="30.07" y1="84.41" x2="30.07" y2="41.41" /><line class="guardrail-base" x1="28.07" y1="84.41" x2="32.07" y2="84.41" /><line class="guardrail-post" x1="34.41" y1="85.35" x2="34.41" y2="42.35" /><line class="guardrail-base" x1="32.41" y1="85.35" x2="36.41" y2="85.35" /><line class="guardrail-post" x1="91.00" y1="70.00" x2="91.00" y2="27.00" /><line class="guardrail-base" x1="89.00" y1="70.00" x2="93.00" y2="70.00" /><line class="guardrail-post" x1="61.50" y1="78.00" x2="61.50" y2="35.00" /><line class="guardrail-base" x1="59.50" y1="78.00" x2="63.50" y2="78.00" /></g></svg>
