ISO-10303-21;
HEADER;
FILE_DESCRIPTION (( 'STEP AP214' ),
    '1' );
FILE_NAME ('WCP-1142.step',
    '2024-03-05T22:29:47',
    ( '' ),
    ( '' ),
    'SwSTEP 2.0',
    'SolidWorks 2022',
    '' );
FILE_SCHEMA (( 'AUTOMOTIVE_DESIGN' ));
ENDSEC;

DATA;
#1 = EDGE_LOOP ( 'NONE', ( #262, #1031 ) ) ;
#2 = CARTESIAN_POINT ( 'NONE',  ( 18.00000000000000000, 0.1569197096049775031, -0.2302070902552250664 ) ) ;
#3 = VECTOR ( 'NONE', #436, 39.37007874015748143 ) ;
#4 = CARTESIAN_POINT ( 'NONE',  ( 18.00000000000000000, -0.1449149175665961076, 0.2509999999999999454 ) ) ;
#5 = EDGE_CURVE ( 'NONE', #137, #655, #822, .T. ) ;
#6 = CARTESIAN_POINT ( 'NONE',  ( -18.00000000000000000, -0.2948727872638026160, 0.03063542942980236605 ) ) ;
#7 = AXIS2_PLACEMENT_3D ( 'NONE', #300, #622, #402 ) ;
#8 = VERTEX_POINT ( 'NONE', #742 ) ;
#9 = LINE ( 'NONE', #177, #133 ) ;
#10 =( NAMED_UNIT ( * ) PLANE_ANGLE_UNIT ( ) SI_UNIT ( $, .RADIAN. ) );
#11 = CIRCLE ( 'NONE', #1009, 0.01968503937007873988 ) ;
#12 = AXIS2_PLACEMENT_3D ( 'NONE', #455, #431, #752 ) ;
#13 = DIRECTION ( 'NONE',  ( 0.000000000000000000, -5.204170427930421283E-15, -1.000000000000000000 ) ) ;
#14 = VERTEX_POINT ( 'NONE', #416 ) ;
#15 = CARTESIAN_POINT ( 'NONE',  ( 18.00000000000000000, -0.2778250430947846739, -0.02079290974482008239 ) ) ;
#16 =( LENGTH_UNIT ( ) NAMED_UNIT ( * ) SI_UNIT ( $, .METRE. ) );
#17 = CARTESIAN_POINT ( 'NONE',  ( -18.00000000000000000, 0.1350723978815499271, 0.2339522558310113409 ) ) ;
#18 = EDGE_LOOP ( 'NONE', ( #488, #672, #603, #935 ) ) ;
#19 = FACE_OUTER_BOUND ( 'NONE', #321, .T. ) ;
#20 = EDGE_CURVE ( 'NONE', #954, #909, #875, .T. ) ;
#21 = VECTOR ( 'NONE', #882, 39.37007874015748143 ) ;
#22 = DIRECTION ( 'NONE',  ( 0.000000000000000000, -0.4999999999999998335, -0.8660254037844385966 ) ) ;
#23 = ORIENTED_EDGE ( 'NONE', *, *, #707, .T. ) ;
#24 = DIRECTION ( 'NONE',  ( 0.000000000000000000, 0.000000000000000000, 1.000000000000000000 ) ) ;
#25 = DIRECTION ( 'NONE',  ( 1.000000000000000000, -0.000000000000000000, -0.000000000000000000 ) ) ;
#26 = EDGE_LOOP ( 'NONE', ( #386, #966, #624, #931, #1025, #446, #464, #114, #443, #800, #142, #559, #849, #499, #840, #77, #91, #714, #283, #797, #210, #571, #880, #452, #763, #845 ) ) ;
#27 = CARTESIAN_POINT ( 'NONE',  ( -18.00000000000000000, -0.1739674537739568649, -0.2400496099402741057 ) ) ;
#28 = DIRECTION ( 'NONE',  ( 0.000000000000000000, 0.000000000000000000, -1.000000000000000000 ) ) ;
#29 = AXIS2_PLACEMENT_3D ( 'NONE', #539, #198, #122 ) ;
#30 = EDGE_CURVE ( 'NONE', #401, #128, #558, .T. ) ;
#31 = CARTESIAN_POINT ( 'NONE',  ( 18.00000000000000000, 0.2778250430948241423, 0.02079290974475184184 ) ) ;
#32 = EDGE_LOOP ( 'NONE', ( #466, #808, #694, #942, #206, #661, #552, #777, #687, #274, #803, #23, #458, #982, #360, #233, #712, #203, #512, #85, #439, #1045, #586, #308, #1018, #639 ) ) ;
#33 = CARTESIAN_POINT ( 'NONE',  ( -18.00000000000000000, 0.2825087915134612548, -0.01531771471489568048 ) ) ;
#34 = AXIS2_PLACEMENT_3D ( 'NONE', #27, #936, #204 ) ;
#35 = FACE_OUTER_BOUND ( 'NONE', #235, .T. ) ;
#36 = EDGE_CURVE ( 'NONE', #620, #920, #245, .T. ) ;
#37 = ORIENTED_EDGE ( 'NONE', *, *, #61, .F. ) ;
#38 = DIRECTION ( 'NONE',  ( 0.000000000000000000, 1.734723475976805714E-15, -1.000000000000000000 ) ) ;
#39 = CARTESIAN_POINT ( 'NONE',  ( -18.00000000000000000, -0.1739674537739773486, 0.2400496099402387173 ) ) ;
#40 = AXIS2_PLACEMENT_3D ( 'NONE', #823, #171, #342 ) ;
#41 = EDGE_LOOP ( 'NONE', ( #224, #292, #862, #872 ) ) ;
#42 = EDGE_CURVE ( 'NONE', #650, #401, #736, .T. ) ;
#43 = LINE ( 'NONE', #692, #519 ) ;
#44 = VERTEX_POINT ( 'NONE', #409 ) ;
#45 = CARTESIAN_POINT ( 'NONE',  ( 18.00000000000000000, 0.2948727872638089997, -0.03063542942979136444 ) ) ;
#46 = CARTESIAN_POINT ( 'NONE',  ( -18.00000000000000000, 0.1449149175665961631, -0.2509999999999999454 ) ) ;
#47 = EDGE_CURVE ( 'NONE', #655, #500, #186, .T. ) ;
#48 = FACE_OUTER_BOUND ( 'NONE', #74, .T. ) ;
#49 = VERTEX_POINT ( 'NONE', #976 ) ;
#50 = ORIENTED_EDGE ( 'NONE', *, *, #415, .F. ) ;
#51 = CARTESIAN_POINT ( 'NONE',  ( 18.00000000000000000, -0.1569197096049923246, 0.2302070902551993370 ) ) ;
#52 = AXIS2_PLACEMENT_3D ( 'NONE', #1012, #372, #765 ) ;
#53 = CARTESIAN_POINT ( 'NONE',  ( -18.00000000000000000, -0.1279888656856705553, -0.2523186476005573886 ) ) ;
#54 = AXIS2_PLACEMENT_3D ( 'NONE', #322, #242, #230 ) ;
#55 = AXIS2_PLACEMENT_3D ( 'NONE', #306, #362, #758 ) ;
#56 = EDGE_LOOP ( 'NONE', ( #396, #141, #784, #783 ) ) ;
#57 = DIRECTION ( 'NONE',  ( -1.000000000000000000, -0.000000000000000000, -0.000000000000000000 ) ) ;
#58 = VECTOR ( 'NONE', #272, 39.37007874015748143 ) ;
#59 = AXIS2_PLACEMENT_3D ( 'NONE', #996, #509, #826 ) ;
#60 = LINE ( 'NONE', #4, #1017 ) ;
#61 = EDGE_CURVE ( 'NONE', #49, #165, #925, .T. ) ;
#62 = ORIENTED_EDGE ( 'NONE', *, *, #265, .F. ) ;
#63 = ORIENTED_EDGE ( 'NONE', *, *, #382, .T. ) ;
#64 = CARTESIAN_POINT ( 'NONE',  ( -18.00000000000000000, 0.1739674537739625548, -0.2400496099402644468 ) ) ;
#65 = DIRECTION ( 'NONE',  ( 0.000000000000000000, 0.000000000000000000, -1.000000000000000000 ) ) ;
#66 = VERTEX_POINT ( 'NONE', #970 ) ;
#67 = ADVANCED_FACE ( 'NONE', ( #644, #964 ), #817, .F. ) ;
#68 = EDGE_LOOP ( 'NONE', ( #522, #530, #1040, #635 ) ) ;
#69 = DIRECTION ( 'NONE',  ( 1.000000000000000000, -0.000000000000000000, -0.000000000000000000 ) ) ;
#70 = DIRECTION ( 'NONE',  ( 1.000000000000000000, -0.000000000000000000, -0.000000000000000000 ) ) ;
#71 = DIRECTION ( 'NONE',  ( 0.000000000000000000, 0.8660254037844387076, -0.4999999999999998890 ) ) ;
#72 = SURFACE_STYLE_USAGE ( .BOTH. , #240 ) ;
#73 = CIRCLE ( 'NONE', #670, 0.01968503937009513996 ) ;
#74 = EDGE_LOOP ( 'NONE', ( #344, #108, #217, #945 ) ) ;
#75 = DIRECTION ( 'NONE',  ( 1.000000000000000000, 0.000000000000000000, 0.000000000000000000 ) ) ;
#76 = CARTESIAN_POINT ( 'NONE',  ( 18.00000000000000000, 0.1209053334898498172, -0.2706850393700787061 ) ) ;
#77 = ORIENTED_EDGE ( 'NONE', *, *, #693, .T. ) ;
#78 = AXIS2_PLACEMENT_3D ( 'NONE', #578, #501, #894 ) ;
#79 = ORIENTED_EDGE ( 'NONE', *, *, #376, .F. ) ;
#80 = DIRECTION ( 'NONE',  ( 0.000000000000000000, 0.000000000000000000, -1.000000000000000000 ) ) ;
#81 = CIRCLE ( 'NONE', #861, 0.01968503937007875723 ) ;
#82 = DIRECTION ( 'NONE',  ( 0.000000000000000000, -0.8660254037844387076, 0.4999999999999998890 ) ) ;
#83 = EDGE_CURVE ( 'NONE', #538, #516, #11, .T. ) ;
#84 = FACE_OUTER_BOUND ( 'NONE', #884, .T. ) ;
#85 = ORIENTED_EDGE ( 'NONE', *, *, #376, .T. ) ;
#86 = CARTESIAN_POINT ( 'NONE',  ( -18.00000000000000000, 0.2778250430948241423, 0.02079290974475183490 ) ) ;
#87 = VECTOR ( 'NONE', #218, 39.37007874015748143 ) ;
#88 = CARTESIAN_POINT ( 'NONE',  ( -18.00000000000000000, -0.2948727872637696978, -0.03063542942985944886 ) ) ;
#89 = CARTESIAN_POINT ( 'NONE',  ( 18.00000000000000000, -0.1545199258277585308, -0.2370009328856511055 ) ) ;
#90 = CIRCLE ( 'NONE', #686, 0.01968503937007875723 ) ;
#91 = ORIENTED_EDGE ( 'NONE', *, *, #756, .F. ) ;
#92 = CARTESIAN_POINT ( 'NONE',  ( -18.00000000000000000, 0.1279888656856923712, 0.2523186476005491730 ) ) ;
#93 = FACE_OUTER_BOUND ( 'NONE', #349, .T. ) ;
#94 = AXIS2_PLACEMENT_3D ( 'NONE', #256, #575, #260 ) ;
#95 = DIRECTION ( 'NONE',  ( 0.000000000000000000, 0.000000000000000000, -1.000000000000000000 ) ) ;
#96 = EDGE_CURVE ( 'NONE', #124, #8, #470, .T. ) ;
#97 = VERTEX_POINT ( 'NONE', #505 ) ;
#98 = DIRECTION ( 'NONE',  ( 0.000000000000000000, 0.000000000000000000, -1.000000000000000000 ) ) ;
#99 = DIRECTION ( 'NONE',  ( -1.000000000000000000, -0.000000000000000000, -0.000000000000000000 ) ) ;
#100 = DIRECTION ( 'NONE',  ( -1.000000000000000000, -0.000000000000000000, -0.000000000000000000 ) ) ;
#101 = ADVANCED_FACE ( 'NONE', ( #590 ), #724, .F. ) ;
#102 = ORIENTED_EDGE ( 'NONE', *, *, #435, .F. ) ;
#103 = CYLINDRICAL_SURFACE ( 'NONE', #810, 0.01968503937008111299 ) ;
#104 = AXIS2_PLACEMENT_3D ( 'NONE', #957, #70, #573 ) ;
#105 = DIRECTION ( 'NONE',  ( 0.000000000000000000, 0.000000000000000000, -1.000000000000000000 ) ) ;
#106 = LINE ( 'NONE', #31, #58 ) ;
#107 = CIRCLE ( 'NONE', #7, 0.01968503937008900251 ) ;
#108 = ORIENTED_EDGE ( 'NONE', *, *, #902, .T. ) ;
#109 = LINE ( 'NONE', #357, #113 ) ;
#110 = ADVANCED_FACE ( 'NONE', ( #585 ), #581, .T. ) ;
#111 = VECTOR ( 'NONE', #962, 39.37007874015748143 ) ;
#112 = DIRECTION ( 'NONE',  ( 0.000000000000000000, 0.000000000000000000, -1.000000000000000000 ) ) ;
#113 = VECTOR ( 'NONE', #502, 39.37007874015748143 ) ;
#114 = ORIENTED_EDGE ( 'NONE', *, *, #669, .F. ) ;
#115 = DIRECTION ( 'NONE',  ( -1.000000000000000000, -0.000000000000000000, -0.000000000000000000 ) ) ;
#116 = CYLINDRICAL_SURFACE ( 'NONE', #52, 0.01968503937008900251 ) ;
#117 = AXIS2_PLACEMENT_3D ( 'NONE', #846, #1002, #365 ) ;
#118 = EDGE_CURVE ( 'NONE', #893, #378, #987, .T. ) ;
#119 = DIMENSIONAL_EXPONENTS ( 1.000000000000000000, 0.000000000000000000, 0.000000000000000000, 0.000000000000000000, 0.000000000000000000, 0.000000000000000000, 0.000000000000000000 ) ;
#120 = DIRECTION ( 'NONE',  ( -1.000000000000000000, 0.000000000000000000, 0.000000000000000000 ) ) ;
#121 = ORIENTED_EDGE ( 'NONE', *, *, #689, .F. ) ;
#122 = DIRECTION ( 'NONE',  ( 0.000000000000000000, 0.000000000000000000, -1.000000000000000000 ) ) ;
#123 = CARTESIAN_POINT ( 'NONE',  ( -18.00000000000000000, 0.1545199258277550058, 0.2370009328856482744 ) ) ;
#124 = VERTEX_POINT ( 'NONE', #89 ) ;
#125 = CARTESIAN_POINT ( 'NONE',  ( 18.00000000000000000, -0.1545199258277779875, 0.2370009328856223230 ) ) ;
#126 = DIRECTION ( 'NONE',  ( 1.000000000000000000, -0.000000000000000000, -0.000000000000000000 ) ) ;
#127 = VECTOR ( 'NONE', #720, 39.37007874015748143 ) ;
#128 = VERTEX_POINT ( 'NONE', #731 ) ;
#129 = ADVANCED_FACE ( 'NONE', ( #84 ), #1051, .T. ) ;
#130 = DIRECTION ( 'NONE',  ( 0.000000000000000000, 0.000000000000000000, -1.000000000000000000 ) ) ;
#131 = LINE ( 'NONE', #46, #969 ) ;
#132 = PRODUCT ( 'WCP-1142', 'WCP-1142', '', ( #1030 ) ) ;
#133 = VECTOR ( 'NONE', #662, 39.37007874015748143 ) ;
#134 = CIRCLE ( 'NONE', #597, 0.01968503937008111299 ) ;
#135 = ORIENTED_EDGE ( 'NONE', *, *, #619, .T. ) ;
#136 = STYLED_ITEM ( 'NONE', ( #821 ), #467 ) ;
#137 = VERTEX_POINT ( 'NONE', #388 ) ;
#138 = DIRECTION ( 'NONE',  ( -0.000000000000000000, 0.8660254037844387076, 0.4999999999999999445 ) ) ;
#139 = CARTESIAN_POINT ( 'NONE',  ( -18.00000000000000000, -0.1739674537739568649, -0.2400496099402741057 ) ) ;
#140 = AXIS2_PLACEMENT_3D ( 'NONE', #200, #843, #769 ) ;
#141 = ORIENTED_EDGE ( 'NONE', *, *, #389, .T. ) ;
#142 = ORIENTED_EDGE ( 'NONE', *, *, #986, .F. ) ;
#143 = CARTESIAN_POINT ( 'NONE',  ( 18.00000000000000000, 0.1739674537739513971, 0.2400496099402838202 ) ) ;
#144 = CARTESIAN_POINT ( 'NONE',  ( 18.00000000000000000, 0.2898298351331922151, 6.818817212230785777E-17 ) ) ;
#145 = EDGE_CURVE ( 'NONE', #978, #506, #220, .T. ) ;
#146 = ORIENTED_EDGE ( 'NONE', *, *, #199, .F. ) ;
#147 = DIRECTION ( 'NONE',  ( 1.000000000000000000, 0.000000000000000000, 0.000000000000000000 ) ) ;
#148 = VECTOR ( 'NONE', #660, 39.37007874015748143 ) ;
#149 = ORIENTED_EDGE ( 'NONE', *, *, #589, .F. ) ;
#150 = CARTESIAN_POINT ( 'NONE',  ( 18.00000000000000000, -0.2825087915134467109, -0.01531771471494373926 ) ) ;
#151 = CARTESIAN_POINT ( 'NONE',  ( -18.00000000000000000, 0.2778250430948239758, -0.02079290974475204654 ) ) ;
#152 = EDGE_CURVE ( 'NONE', #124, #994, #606, .T. ) ;
#153 = EDGE_LOOP ( 'NONE', ( #191, #718, #215, #702 ) ) ;
#154 = ORIENTED_EDGE ( 'NONE', *, *, #532, .T. ) ;
#155 = DIRECTION ( 'NONE',  ( 1.000000000000000000, -0.000000000000000000, -0.000000000000000000 ) ) ;
#156 = DIRECTION ( 'NONE',  ( 0.000000000000000000, -0.4999999999999998335, -0.8660254037844385966 ) ) ;
#157 = AXIS2_PLACEMENT_3D ( 'NONE', #1038, #727, #887 ) ;
#158 = ORIENTED_EDGE ( 'NONE', *, *, #42, .F. ) ;
#159 = COLOUR_RGB ( '',0.2980392156862745057, 0.2980392156862745057, 0.2980392156862745057 ) ;
#160 = EDGE_CURVE ( 'NONE', #500, #939, #285, .T. ) ;
#161 = ORIENTED_EDGE ( 'NONE', *, *, #986, .T. ) ;
#162 = DIRECTION ( 'NONE',  ( 0.000000000000000000, 0.000000000000000000, -1.000000000000000000 ) ) ;
#163 = FACE_OUTER_BOUND ( 'NONE', #267, .T. ) ;
#164 = UNCERTAINTY_MEASURE_WITH_UNIT (LENGTH_MEASURE( 1.000000000000000082E-05 ), #425, 'distance_accuracy_value', 'NONE');
#165 = VERTEX_POINT ( 'NONE', #681 ) ;
#166 = AXIS2_PLACEMENT_3D ( 'NONE', #806, #723, #65 ) ;
#167 = EDGE_CURVE ( 'NONE', #691, #97, #463, .T. ) ;
#168 = ORIENTED_EDGE ( 'NONE', *, *, #36, .F. ) ;
#169 = CARTESIAN_POINT ( 'NONE',  ( 18.00000000000000000, -0.1449149175665961076, -0.2509999999999999454 ) ) ;
#170 = LINE ( 'NONE', #711, #302 ) ;
#171 = DIRECTION ( 'NONE',  ( 1.000000000000000000, 0.000000000000000000, 0.000000000000000000 ) ) ;
#172 = ORIENTED_EDGE ( 'NONE', *, *, #209, .T. ) ;
#173 = DIRECTION ( 'NONE',  ( 1.000000000000000000, 0.000000000000000000, 0.000000000000000000 ) ) ;
#174 = CIRCLE ( 'NONE', #312, 0.01968503937007873988 ) ;
#175 = CARTESIAN_POINT ( 'NONE',  ( -18.00000000000000000, 0.2825087915134613104, 0.01531771471489561977 ) ) ;
#176 = EDGE_LOOP ( 'NONE', ( #795, #608, #427, #892 ) ) ;
#177 = CARTESIAN_POINT ( 'NONE',  ( -18.00000000000000000, 0.1209053334898498172, -0.2509999999999999454 ) ) ;
#178 = CARTESIAN_POINT ( 'NONE',  ( -18.00000000000000000, 0.000000000000000000, 0.3744999999999999996 ) ) ;
#179 = ADVANCED_FACE ( 'NONE', ( #699 ), #671, .T. ) ;
#180 = CARTESIAN_POINT ( 'NONE',  ( -18.00000000000000000, 0.000000000000000000, 0.000000000000000000 ) ) ;
#181 = ORIENTED_EDGE ( 'NONE', *, *, #42, .T. ) ;
#182 = CARTESIAN_POINT ( 'NONE',  ( -18.00000000000000000, 0.1545199258277550058, 0.2370009328856482744 ) ) ;
#183 = FACE_OUTER_BOUND ( 'NONE', #494, .T. ) ;
#184 = AXIS2_PLACEMENT_3D ( 'NONE', #180, #266, #335 ) ;
#185 = EDGE_CURVE ( 'NONE', #909, #314, #90, .T. ) ;
#186 = LINE ( 'NONE', #175, #148 ) ;
#187 = ORIENTED_EDGE ( 'NONE', *, *, #992, .F. ) ;
#188 = PLANE ( 'NONE',  #269 ) ;
#189 = DIRECTION ( 'NONE',  ( 0.000000000000000000, 0.000000000000000000, -1.000000000000000000 ) ) ;
#190 = DIRECTION ( 'NONE',  ( 1.000000000000000000, -0.000000000000000000, -0.000000000000000000 ) ) ;
#191 = ORIENTED_EDGE ( 'NONE', *, *, #244, .F. ) ;
#192 = CARTESIAN_POINT ( 'NONE',  ( -18.00000000000000000, -0.1350723978815500659, -0.2536372952011154980 ) ) ;
#193 = CARTESIAN_POINT ( 'NONE',  ( 18.00000000000000000, -0.2948727872637696978, -0.03063542942985944886 ) ) ;
#194 = DIRECTION ( 'NONE',  ( 0.000000000000000000, 1.734723475976805517E-14, -1.000000000000000000 ) ) ;
#195 = VECTOR ( 'NONE', #380, 39.37007874015748143 ) ;
#196 = CIRCLE ( 'NONE', #971, 0.01968503937007875723 ) ;
#197 = ORIENTED_EDGE ( 'NONE', *, *, #721, .F. ) ;
#198 = DIRECTION ( 'NONE',  ( 1.000000000000000000, 0.000000000000000000, 0.000000000000000000 ) ) ;
#199 = EDGE_CURVE ( 'NONE', #666, #229, #529, .T. ) ;
#200 = CARTESIAN_POINT ( 'NONE',  ( 18.00000000000000000, 0.000000000000000000, 0.000000000000000000 ) ) ;
#201 = DIRECTION ( 'NONE',  ( 1.000000000000000000, -0.000000000000000000, -0.000000000000000000 ) ) ;
#202 = CIRCLE ( 'NONE', #790, 0.01968503937008111299 ) ;
#203 = ORIENTED_EDGE ( 'NONE', *, *, #648, .T. ) ;
#204 = DIRECTION ( 'NONE',  ( 0.000000000000000000, -2.081668171172166620E-14, -1.000000000000000000 ) ) ;
#205 = CARTESIAN_POINT ( 'NONE',  ( 18.00000000000000000, -0.2825087915134631422, 0.01531771471489994270 ) ) ;
#206 = ORIENTED_EDGE ( 'NONE', *, *, #30, .T. ) ;
#207 = CARTESIAN_POINT ( 'NONE',  ( 18.00000000000000000, -0.1279888656856705553, -0.2523186476005573331 ) ) ;
#208 = CARTESIAN_POINT ( 'NONE',  ( 18.00000000000000000, -0.1279888656857056384, 0.2523186476005483403 ) ) ;
#209 = EDGE_CURVE ( 'NONE', #516, #229, #941, .T. ) ;
#210 = ORIENTED_EDGE ( 'NONE', *, *, #676, .F. ) ;
#211 = LINE ( 'NONE', #33, #948 ) ;
#212 = FACE_OUTER_BOUND ( 'NONE', #483, .T. ) ;
#213 = CIRCLE ( 'NONE', #356, 0.3744999999999999996 ) ;
#214 = UNCERTAINTY_MEASURE_WITH_UNIT (LENGTH_MEASURE( 1.000000000000000082E-05 ), #523, 'distance_accuracy_value', 'NONE');
#215 = ORIENTED_EDGE ( 'NONE', *, *, #185, .F. ) ;
#216 =( NAMED_UNIT ( * ) SI_UNIT ( $, .STERADIAN. ) SOLID_ANGLE_UNIT ( ) );
#217 = ORIENTED_EDGE ( 'NONE', *, *, #669, .T. ) ;
#218 = DIRECTION ( 'NONE',  ( 1.000000000000000000, -0.000000000000000000, -0.000000000000000000 ) ) ;
#219 = PRODUCT_DEFINITION_SHAPE ( 'NONE', 'NONE',  #963 ) ;
#220 = LINE ( 'NONE', #53, #554 ) ;
#221 = VERTEX_POINT ( 'NONE', #919 ) ;
#222 = DIRECTION ( 'NONE',  ( 0.000000000000000000, 0.000000000000000000, 1.000000000000000000 ) ) ;
#223 = EDGE_CURVE ( 'NONE', #916, #221, #839, .T. ) ;
#224 = ORIENTED_EDGE ( 'NONE', *, *, #958, .F. ) ;
#225 = DIRECTION ( 'NONE',  ( 0.000000000000000000, 0.000000000000000000, -1.000000000000000000 ) ) ;
#226 = AXIS2_PLACEMENT_3D ( 'NONE', #679, #850, #293 ) ;
#227 = CARTESIAN_POINT ( 'NONE',  ( 18.00000000000000000, 0.2898298351331922151, 6.818817212230785777E-17 ) ) ;
#228 = ORIENTED_EDGE ( 'NONE', *, *, #1016, .F. ) ;
#229 = VERTEX_POINT ( 'NONE', #627 ) ;
#230 = DIRECTION ( 'NONE',  ( 0.000000000000000000, 0.000000000000000000, -1.000000000000000000 ) ) ;
#231 = ADVANCED_FACE ( 'NONE', ( #761 ), #827, .T. ) ;
#232 = CARTESIAN_POINT ( 'NONE',  ( 18.00000000000000000, -0.2778250430947846739, -0.02079290974482007545 ) ) ;
#233 = ORIENTED_EDGE ( 'NONE', *, *, #199, .T. ) ;
#234 = AXIS2_PLACEMENT_3D ( 'NONE', #510, #71, #888 ) ;
#235 = EDGE_LOOP ( 'NONE', ( #953, #241, #121, #149 ) ) ;
#236 = DIRECTION ( 'NONE',  ( 0.000000000000000000, 0.000000000000000000, -1.000000000000000000 ) ) ;
#237 = CARTESIAN_POINT ( 'NONE',  ( -18.00000000000000000, 4.586302262806837466E-17, -0.3744999999999999996 ) ) ;
#238 = ADVANCED_FACE ( 'NONE', ( #48 ), #924, .F. ) ;
#239 = VERTEX_POINT ( 'NONE', #832 ) ;
#240 = SURFACE_SIDE_STYLE ('',( #565 ) ) ;
#241 = ORIENTED_EDGE ( 'NONE', *, *, #421, .F. ) ;
#242 = DIRECTION ( 'NONE',  ( 1.000000000000000000, 0.000000000000000000, 0.000000000000000000 ) ) ;
#243 = DIRECTION ( 'NONE',  ( 0.000000000000000000, 0.4999999999999998890, -0.8660254037844385966 ) ) ;
#244 = EDGE_CURVE ( 'NONE', #66, #44, #391, .T. ) ;
#245 = LINE ( 'NONE', #665, #786 ) ;
#246 = ORIENTED_EDGE ( 'NONE', *, *, #526, .T. ) ;
#247 = DIRECTION ( 'NONE',  ( 1.000000000000000000, 0.000000000000000000, 0.000000000000000000 ) ) ;
#248 = FACE_OUTER_BOUND ( 'NONE', #640, .T. ) ;
#249 = AXIS2_PLACEMENT_3D ( 'NONE', #851, #138, #387 ) ;
#250 = CARTESIAN_POINT ( 'NONE',  ( 18.00000000000000000, -0.2948727872638026160, 0.03063542942980236605 ) ) ;
#251 = VECTOR ( 'NONE', #794, 39.37007874015748143 ) ;
#252 = ORIENTED_EDGE ( 'NONE', *, *, #760, .F. ) ;
#253 = CYLINDRICAL_SURFACE ( 'NONE', #78, 0.01968503937009513996 ) ;
#254 = DIRECTION ( 'NONE',  ( 1.000000000000000000, -0.000000000000000000, -0.000000000000000000 ) ) ;
#255 = AXIS2_PLACEMENT_3D ( 'NONE', #984, #254, #746 ) ;
#256 = CARTESIAN_POINT ( 'NONE',  ( -18.00000000000000000, -0.1350723978815634163, 0.2339522558310035694 ) ) ;
#257 = ORIENTED_EDGE ( 'NONE', *, *, #152, .T. ) ;
#258 = PLANE ( 'NONE',  #629 ) ;
#259 = ADVANCED_FACE ( 'NONE', ( #844 ), #993, .T. ) ;
#260 = DIRECTION ( 'NONE',  ( 0.000000000000000000, 0.000000000000000000, -1.000000000000000000 ) ) ;
#261 = STYLED_ITEM ( 'NONE', ( #965 ), #315 ) ;
#262 = ORIENTED_EDGE ( 'NONE', *, *, #296, .F. ) ;
#263 = LINE ( 'NONE', #995, #594 ) ;
#264 = SURFACE_STYLE_USAGE ( .BOTH. , #831 ) ;
#265 = EDGE_CURVE ( 'NONE', #939, #137, #106, .T. ) ;
#266 = DIRECTION ( 'NONE',  ( 1.000000000000000000, 0.000000000000000000, 0.000000000000000000 ) ) ;
#267 = EDGE_LOOP ( 'NONE', ( #395, #354, #50, #631 ) ) ;
#268 = DIRECTION ( 'NONE',  ( 0.000000000000000000, 0.000000000000000000, -1.000000000000000000 ) ) ;
#269 = AXIS2_PLACEMENT_3D ( 'NONE', #673, #910, #350 ) ;
#270 = DIRECTION ( 'NONE',  ( 0.000000000000000000, 0.000000000000000000, -1.000000000000000000 ) ) ;
#271 = EDGE_CURVE ( 'NONE', #920, #650, #438, .T. ) ;
#272 = DIRECTION ( 'NONE',  ( 1.000000000000000000, -0.000000000000000000, -0.000000000000000000 ) ) ;
#273 = CIRCLE ( 'NONE', #675, 0.01968503937008900251 ) ;
#274 = ORIENTED_EDGE ( 'NONE', *, *, #20, .T. ) ;
#275 = DIRECTION ( 'NONE',  ( 1.000000000000000000, -0.000000000000000000, -0.000000000000000000 ) ) ;
#276 = COLOUR_RGB ( '',0.2980392156862745057, 0.2980392156862745057, 0.2980392156862745057 ) ;
#277 = DIRECTION ( 'NONE',  ( 0.000000000000000000, 0.5000000000000001110, -0.8660254037844385966 ) ) ;
#278 = EDGE_CURVE ( 'NONE', #506, #916, #928, .T. ) ;
#279 = ORIENTED_EDGE ( 'NONE', *, *, #61, .T. ) ;
#280 = CARTESIAN_POINT ( 'NONE',  ( 18.00000000000000000, 0.1545199258277550058, 0.2370009328856482744 ) ) ;
#281 = DIRECTION ( 'NONE',  ( 0.000000000000000000, 0.000000000000000000, -1.000000000000000000 ) ) ;
#282 = CARTESIAN_POINT ( 'NONE',  ( 18.00000000000000000, 0.1449149175665961631, -0.2509999999999999454 ) ) ;
#283 = ORIENTED_EDGE ( 'NONE', *, *, #543, .F. ) ;
#284 = DIRECTION ( 'NONE',  ( -1.000000000000000000, -0.000000000000000000, -0.000000000000000000 ) ) ;
#285 = CIRCLE ( 'NONE', #820, 0.01968503937007873988 ) ;
#286 = DIRECTION ( 'NONE',  ( 0.000000000000000000, -1.000000000000000000, -1.178212032764343639E-16 ) ) ;
#287 = CLOSED_SHELL ( 'NONE', ( #238, #883, #563, #852, #67, #829, #110, #630, #848, #336, #179, #944, #101, #498, #291, #788, #609, #930, #1035, #1050, #358, #259, #449, #129, #637, #877, #428, #615, #324, #231 ) ) ;
#288 = VERTEX_POINT ( 'NONE', #677 ) ;
#289 = DIRECTION ( 'NONE',  ( 0.000000000000000000, 0.000000000000000000, -1.000000000000000000 ) ) ;
#290 = LINE ( 'NONE', #775, #195 ) ;
#291 = ADVANCED_FACE ( 'NONE', ( #163 ), #975, .F. ) ;
#292 = ORIENTED_EDGE ( 'NONE', *, *, #907, .F. ) ;
#293 = DIRECTION ( 'NONE',  ( 0.000000000000000000, 0.000000000000000000, -1.000000000000000000 ) ) ;
#294 = CARTESIAN_POINT ( 'NONE',  ( -18.00000000000000000, -0.2701447957631134544, -1.525670419079881123E-14 ) ) ;
#295 = AXIS2_PLACEMENT_3D ( 'NONE', #394, #787, #486 ) ;
#296 = EDGE_CURVE ( 'NONE', #478, #330, #432, .T. ) ;
#297 =( GEOMETRIC_REPRESENTATION_CONTEXT ( 3 ) GLOBAL_UNCERTAINTY_ASSIGNED_CONTEXT ( ( #857 ) ) GLOBAL_UNIT_ASSIGNED_CONTEXT ( ( #459, #879, #792 ) ) REPRESENTATION_CONTEXT ( 'NONE', 'WORKASPACE' ) );
#298 = VERTEX_POINT ( 'NONE', #491 ) ;
#299 = DIRECTION ( 'NONE',  ( 0.000000000000000000, 0.4999999999999998890, -0.8660254037844385966 ) ) ;
#300 = CARTESIAN_POINT ( 'NONE',  ( 18.00000000000000000, -0.1350723978815500659, -0.2339522558310264677 ) ) ;
#301 = CARTESIAN_POINT ( 'NONE',  ( -18.00000000000000000, -0.1350723978815500659, -0.2339522558310264677 ) ) ;
#302 = VECTOR ( 'NONE', #243, 39.37007874015748854 ) ;
#303 = EDGE_LOOP ( 'NONE', ( #759, #1028, #197, #433 ) ) ;
#304 = EDGE_LOOP ( 'NONE', ( #1001, #399, #859, #418 ) ) ;
#305 = DIRECTION ( 'NONE',  ( 0.000000000000000000, 0.000000000000000000, -1.000000000000000000 ) ) ;
#306 = CARTESIAN_POINT ( 'NONE',  ( 18.00000000000000000, -0.1350723978815500659, -0.2339522558310264677 ) ) ;
#307 = CIRCLE ( 'NONE', #492, 0.01968503937007872254 ) ;
#308 = ORIENTED_EDGE ( 'NONE', *, *, #278, .T. ) ;
#309 = EDGE_CURVE ( 'NONE', #97, #378, #885, .T. ) ;
#310 = VERTEX_POINT ( 'NONE', #638 ) ;
#311 = CARTESIAN_POINT ( 'NONE',  ( -18.00000000000000000, -0.1279888656857056384, 0.2523186476005482848 ) ) ;
#312 = AXIS2_PLACEMENT_3D ( 'NONE', #45, #932, #130 ) ;
#313 = CARTESIAN_POINT ( 'NONE',  ( -18.00000000000000000, 0.2701447957631134544, 0.000000000000000000 ) ) ;
#314 = VERTEX_POINT ( 'NONE', #811 ) ;
#315 = ADVANCED_BREP_SHAPE_REPRESENTATION ( 'WCP-1142', ( #467, #535 ), #482 ) ;
#316 = EDGE_LOOP ( 'NONE', ( #555, #172, #146, #450 ) ) ;
#317 = CYLINDRICAL_SURFACE ( 'NONE', #805, 0.3744999999999999996 ) ;
#318 = EDGE_CURVE ( 'NONE', #1034, #548, #633, .T. ) ;
#319 = CYLINDRICAL_SURFACE ( 'NONE', #104, 0.01968503937007873988 ) ;
#320 = EDGE_LOOP ( 'NONE', ( #833, #62, #560, #814 ) ) ;
#321 = EDGE_LOOP ( 'NONE', ( #683, #279 ) ) ;
#322 = CARTESIAN_POINT ( 'NONE',  ( 18.00000000000000000, -0.1739674537739773486, 0.2400496099402387173 ) ) ;
#323 = DIRECTION ( 'NONE',  ( 0.000000000000000000, 0.000000000000000000, -1.000000000000000000 ) ) ;
#324 = ADVANCED_FACE ( 'NONE', ( #647 ), #319, .T. ) ;
#325 = ORIENTED_EDGE ( 'NONE', *, *, #118, .T. ) ;
#326 = VECTOR ( 'NONE', #22, 39.37007874015748854 ) ;
#327 = LINE ( 'NONE', #626, #127 ) ;
#328 = CARTESIAN_POINT ( 'NONE',  ( -18.00000000000000000, 0.2898298351331922151, 6.818817212230785777E-17 ) ) ;
#329 = DIRECTION ( 'NONE',  ( 1.000000000000000000, 0.000000000000000000, 0.000000000000000000 ) ) ;
#330 = VERTEX_POINT ( 'NONE', #237 ) ;
#331 = FACE_OUTER_BOUND ( 'NONE', #56, .T. ) ;
#332 = DIRECTION ( 'NONE',  ( -1.000000000000000000, 0.000000000000000000, 0.000000000000000000 ) ) ;
#333 = CIRCLE ( 'NONE', #923, 0.01968503937009412341 ) ;
#334 = VECTOR ( 'NONE', #190, 39.37007874015748143 ) ;
#335 = DIRECTION ( 'NONE',  ( 0.000000000000000000, 0.000000000000000000, -1.000000000000000000 ) ) ;
#336 = ADVANCED_FACE ( 'NONE', ( #248 ), #480, .T. ) ;
#337 = ORIENTED_EDGE ( 'NONE', *, *, #619, .F. ) ;
#338 = AXIS2_PLACEMENT_3D ( 'NONE', #404, #487, #1044 ) ;
#339 = DIRECTION ( 'NONE',  ( 0.000000000000000000, 0.000000000000000000, -1.000000000000000000 ) ) ;
#340 = CARTESIAN_POINT ( 'NONE',  ( -18.00000000000000000, -0.1350723978815500659, -0.2339522558310264677 ) ) ;
#341 = VECTOR ( 'NONE', #359, 39.37007874015748854 ) ;
#342 = DIRECTION ( 'NONE',  ( 0.000000000000000000, 0.000000000000000000, -1.000000000000000000 ) ) ;
#343 = EDGE_CURVE ( 'NONE', #939, #973, #968, .T. ) ;
#344 = ORIENTED_EDGE ( 'NONE', *, *, #934, .F. ) ;
#345 = LINE ( 'NONE', #815, #497 ) ;
#346 = CYLINDRICAL_SURFACE ( 'NONE', #255, 0.01968503937008753493 ) ;
#347 = DIMENSIONAL_EXPONENTS ( 1.000000000000000000, 0.000000000000000000, 0.000000000000000000, 0.000000000000000000, 0.000000000000000000, 0.000000000000000000, 0.000000000000000000 ) ;
#348 = DIRECTION ( 'NONE',  ( -1.000000000000000000, -0.000000000000000000, -0.000000000000000000 ) ) ;
#349 = EDGE_LOOP ( 'NONE', ( #899, #708, #472, #854 ) ) ;
#350 = DIRECTION ( 'NONE',  ( 0.000000000000000000, 0.000000000000000000, -1.000000000000000000 ) ) ;
#351 = DIRECTION ( 'NONE',  ( 0.000000000000000000, 0.000000000000000000, -1.000000000000000000 ) ) ;
#352 = EDGE_CURVE ( 'NONE', #628, #516, #60, .T. ) ;
#353 = DIRECTION ( 'NONE',  ( 1.000000000000000000, -0.000000000000000000, -0.000000000000000000 ) ) ;
#354 = ORIENTED_EDGE ( 'NONE', *, *, #47, .T. ) ;
#355 = DIRECTION ( 'NONE',  ( 1.000000000000000000, 0.000000000000000000, -0.000000000000000000 ) ) ;
#356 = AXIS2_PLACEMENT_3D ( 'NONE', #961, #881, #305 ) ;
#357 = CARTESIAN_POINT ( 'NONE',  ( 18.00000000000000000, -0.1209053334897947224, -0.2509999999999999454 ) ) ;
#358 = ADVANCED_FACE ( 'NONE', ( #403 ), #891, .T. ) ;
#359 = DIRECTION ( 'NONE',  ( 0.000000000000000000, 0.4999999999999998335, 0.8660254037844385966 ) ) ;
#360 = ORIENTED_EDGE ( 'NONE', *, *, #576, .T. ) ;
#361 = CYLINDRICAL_SURFACE ( 'NONE', #915, 0.01968503937007875723 ) ;
#362 = DIRECTION ( 'NONE',  ( 1.000000000000000000, 0.000000000000000000, 0.000000000000000000 ) ) ;
#363 = CIRCLE ( 'NONE', #226, 0.01968503937007874682 ) ;
#364 = ORIENTED_EDGE ( 'NONE', *, *, #318, .F. ) ;
#365 = DIRECTION ( 'NONE',  ( 0.000000000000000000, 0.000000000000000000, -1.000000000000000000 ) ) ;
#366 = MECHANICAL_DESIGN_GEOMETRIC_PRESENTATION_REPRESENTATION (  '', ( #261 ), #297 ) ;
#367 = CYLINDRICAL_SURFACE ( 'NONE', #700, 0.01968503937007875723 ) ;
#368 = VERTEX_POINT ( 'NONE', #653 ) ;
#369 = EDGE_CURVE ( 'NONE', #97, #868, #574, .T. ) ;
#370 = FACE_OUTER_BOUND ( 'NONE', #41, .T. ) ;
#371 = AXIS2_PLACEMENT_3D ( 'NONE', #6, #353, #947 ) ;
#372 = DIRECTION ( 'NONE',  ( 1.000000000000000000, -0.000000000000000000, -0.000000000000000000 ) ) ;
#373 = VECTOR ( 'NONE', #426, 39.37007874015748143 ) ;
#374 = VERTEX_POINT ( 'NONE', #398 ) ;
#375 = CARTESIAN_POINT ( 'NONE',  ( -18.00000000000000000, -0.1209053334898533560, 0.2706850393700787061 ) ) ;
#376 = EDGE_CURVE ( 'NONE', #596, #1024, #170, .T. ) ;
#377 = CARTESIAN_POINT ( 'NONE',  ( 18.00000000000000000, 0.1449149175665961076, 0.2510000000000000009 ) ) ;
#378 = VERTEX_POINT ( 'NONE', #414 ) ;
#379 = CARTESIAN_POINT ( 'NONE',  ( 18.00000000000000000, -0.1350723978815500659, -0.2536372952011154980 ) ) ;
#380 = DIRECTION ( 'NONE',  ( -1.000000000000000000, -0.000000000000000000, -0.000000000000000000 ) ) ;
#381 = CARTESIAN_POINT ( 'NONE',  ( 18.00000000000000000, 0.1209053334898379933, 0.2706850393700787616 ) ) ;
#382 = EDGE_CURVE ( 'NONE', #596, #904, #734, .T. ) ;
#383 = EDGE_LOOP ( 'NONE', ( #542, #252, #613, #364 ) ) ;
#384 = AXIS2_PLACEMENT_3D ( 'NONE', #294, #779, #618 ) ;
#385 = AXIS2_PLACEMENT_3D ( 'NONE', #636, #556, #225 ) ;
#386 = ORIENTED_EDGE ( 'NONE', *, *, #271, .F. ) ;
#387 = DIRECTION ( 'NONE',  ( 0.000000000000000000, -0.4999999999999998890, 0.8660254037844385966 ) ) ;
#388 = CARTESIAN_POINT ( 'NONE',  ( 18.00000000000000000, 0.2778250430948241423, 0.02079290974475183490 ) ) ;
#389 = EDGE_CURVE ( 'NONE', #732, #725, #568, .T. ) ;
#390 = ORIENTED_EDGE ( 'NONE', *, *, #604, .F. ) ;
#391 = CIRCLE ( 'NONE', #527, 0.01968503937007875723 ) ;
#392 = AXIS2_PLACEMENT_3D ( 'NONE', #755, #990, #105 ) ;
#393 = CARTESIAN_POINT ( 'NONE',  ( -18.00000000000000000, 0.1279888656857061935, -0.2523186476005498946 ) ) ;
#394 = CARTESIAN_POINT ( 'NONE',  ( -18.00000000000000000, 0.000000000000000000, 0.000000000000000000 ) ) ;
#395 = ORIENTED_EDGE ( 'NONE', *, *, #972, .T. ) ;
#396 = ORIENTED_EDGE ( 'NONE', *, *, #860, .T. ) ;
#397 = LINE ( 'NONE', #1026, #998 ) ;
#398 = CARTESIAN_POINT ( 'NONE',  ( -18.00000000000000000, -0.1279888656857056384, 0.2523186476005483403 ) ) ;
#399 = ORIENTED_EDGE ( 'NONE', *, *, #490, .F. ) ;
#400 = EDGE_CURVE ( 'NONE', #137, #625, #407, .T. ) ;
#401 = VERTEX_POINT ( 'NONE', #151 ) ;
#402 = DIRECTION ( 'NONE',  ( 0.000000000000000000, 0.000000000000000000, -1.000000000000000000 ) ) ;
#403 = FACE_OUTER_BOUND ( 'NONE', #304, .T. ) ;
#404 = CARTESIAN_POINT ( 'NONE',  ( 18.00000000000000000, 0.2948727872638092218, 0.03063542942979122913 ) ) ;
#405 = ORIENTED_EDGE ( 'NONE', *, *, #938, .T. ) ;
#406 = CARTESIAN_POINT ( 'NONE',  ( 18.00000000000000000, -0.1569197096049923246, 0.2302070902551993370 ) ) ;
#407 = LINE ( 'NONE', #144, #757 ) ;
#408 = VECTOR ( 'NONE', #667, 39.37007874015748143 ) ;
#409 = CARTESIAN_POINT ( 'NONE',  ( 18.00000000000000000, 0.1279888656856923712, 0.2523186476005491730 ) ) ;
#410 = AXIS2_PLACEMENT_3D ( 'NONE', #64, #726, #572 ) ;
#411 = EDGE_LOOP ( 'NONE', ( #960, #645, #818, #709 ) ) ;
#412 = CARTESIAN_POINT ( 'NONE',  ( -18.00000000000000000, 0.1279888656856923712, 0.2523186476005491730 ) ) ;
#413 = MECHANICAL_DESIGN_GEOMETRIC_PRESENTATION_REPRESENTATION (  '', ( #136 ), #579 ) ;
#414 = CARTESIAN_POINT ( 'NONE',  ( 18.00000000000000000, 0.1350723978815634163, -0.2536372952010999549 ) ) ;
#415 = EDGE_CURVE ( 'NONE', #128, #500, #440, .T. ) ;
#416 = CARTESIAN_POINT ( 'NONE',  ( 18.00000000000000000, 0.2825087915134612548, -0.01531771471489567528 ) ) ;
#417 = AXIS2_PLACEMENT_3D ( 'NONE', #193, #445, #1003 ) ;
#418 = ORIENTED_EDGE ( 'NONE', *, *, #145, .F. ) ;
#419 = DIRECTION ( 'NONE',  ( 1.000000000000000000, 0.000000000000000000, 0.000000000000000000 ) ) ;
#420 = CARTESIAN_POINT ( 'NONE',  ( -18.00000000000000000, -0.1279888656856705553, -0.2523186476005573331 ) ) ;
#421 = EDGE_CURVE ( 'NONE', #625, #973, #1033, .T. ) ;
#422 = CARTESIAN_POINT ( 'NONE',  ( -18.00000000000000000, 0.2778250430948239758, -0.02079290974475198409 ) ) ;
#423 = ORIENTED_EDGE ( 'NONE', *, *, #96, .F. ) ;
#424 = FACE_OUTER_BOUND ( 'NONE', #865, .T. ) ;
#425 =( CONVERSION_BASED_UNIT ( 'INCH', #980 ) LENGTH_UNIT ( ) NAMED_UNIT ( #119 ) );
#426 = DIRECTION ( 'NONE',  ( -1.000000000000000000, 0.000000000000000000, 0.000000000000000000 ) ) ;
#427 = ORIENTED_EDGE ( 'NONE', *, *, #870, .F. ) ;
#428 = ADVANCED_FACE ( 'NONE', ( #674 ), #361, .T. ) ;
#429 = CARTESIAN_POINT ( 'NONE',  ( 18.00000000000000000, 0.1449149175665961076, 0.2510000000000000009 ) ) ;
#430 = CARTESIAN_POINT ( 'NONE',  ( 18.00000000000000000, 0.1350723978815634163, -0.2339522558310188349 ) ) ;
#431 = DIRECTION ( 'NONE',  ( -1.000000000000000000, -0.000000000000000000, -0.000000000000000000 ) ) ;
#432 = CIRCLE ( 'NONE', #295, 0.3744999999999999996 ) ;
#433 = ORIENTED_EDGE ( 'NONE', *, *, #835, .T. ) ;
#434 = DIRECTION ( 'NONE',  ( 0.000000000000000000, 0.000000000000000000, -1.000000000000000000 ) ) ;
#435 = EDGE_CURVE ( 'NONE', #310, #298, #730, .T. ) ;
#436 = DIRECTION ( 'NONE',  ( 1.000000000000000000, -0.000000000000000000, -0.000000000000000000 ) ) ;
#437 = DIMENSIONAL_EXPONENTS ( 1.000000000000000000, 0.000000000000000000, 0.000000000000000000, 0.000000000000000000, 0.000000000000000000, 0.000000000000000000, 0.000000000000000000 ) ;
#438 = LINE ( 'NONE', #282, #341 ) ;
#439 = ORIENTED_EDGE ( 'NONE', *, *, #977, .T. ) ;
#440 = CIRCLE ( 'NONE', #1023, 0.01968503937007874682 ) ;
#441 = DIRECTION ( 'NONE',  ( 1.000000000000000000, -0.000000000000000000, -0.000000000000000000 ) ) ;
#442 = CARTESIAN_POINT ( 'NONE',  ( -18.00000000000000000, 0.1279888656857061935, -0.2523186476005498946 ) ) ;
#443 = ORIENTED_EDGE ( 'NONE', *, *, #152, .F. ) ;
#444 = AXIS2_PLACEMENT_3D ( 'NONE', #855, #115, #38 ) ;
#445 = DIRECTION ( 'NONE',  ( 1.000000000000000000, 0.000000000000000000, 0.000000000000000000 ) ) ;
#446 = ORIENTED_EDGE ( 'NONE', *, *, #713, .F. ) ;
#447 = CARTESIAN_POINT ( 'NONE',  ( 18.00000000000000000, -0.1209053334897947224, -0.2509999999999999454 ) ) ;
#448 = CYLINDRICAL_SURFACE ( 'NONE', #836, 0.01968503937007872254 ) ;
#449 = ADVANCED_FACE ( 'NONE', ( #183 ), #600, .T. ) ;
#450 = ORIENTED_EDGE ( 'NONE', *, *, #760, .T. ) ;
#451 = DIRECTION ( 'NONE',  ( 0.000000000000000000, 0.000000000000000000, -1.000000000000000000 ) ) ;
#452 = ORIENTED_EDGE ( 'NONE', *, *, #5, .T. ) ;
#453 = LINE ( 'NONE', #764, #813 ) ;
#454 = CARTESIAN_POINT ( 'NONE',  ( -18.00000000000000000, -0.2778250430947846739, -0.02079290974482008239 ) ) ;
#455 = CARTESIAN_POINT ( 'NONE',  ( -18.00000000000000000, -0.1209053334897947224, -0.2706850393700787061 ) ) ;
#456 = CIRCLE ( 'NONE', #410, 0.01968503937007872254 ) ;
#457 = VECTOR ( 'NONE', #780, 39.37007874015748143 ) ;
#458 = ORIENTED_EDGE ( 'NONE', *, *, #1042, .T. ) ;
#459 =( CONVERSION_BASED_UNIT ( 'INCH', #553 ) LENGTH_UNIT ( ) NAMED_UNIT ( #437 ) );
#460 = ORIENTED_EDGE ( 'NONE', *, *, #475, .F. ) ;
#461 = FACE_OUTER_BOUND ( 'NONE', #383, .T. ) ;
#462 = CIRCLE ( 'NONE', #867, 0.01968503937008111299 ) ;
#463 = LINE ( 'NONE', #442, #334 ) ;
#464 = ORIENTED_EDGE ( 'NONE', *, *, #743, .T. ) ;
#465 = CIRCLE ( 'NONE', #385, 0.01968503937008753493 ) ;
#466 = ORIENTED_EDGE ( 'NONE', *, *, #604, .T. ) ;
#467 = MANIFOLD_SOLID_BREP ( 'Fillet3', #287 ) ;
#468 = CARTESIAN_POINT ( 'NONE',  ( -18.00000000000000000, 0.1350723978815634163, -0.2339522558310188349 ) ) ;
#469 = DIRECTION ( 'NONE',  ( 0.000000000000000000, 0.000000000000000000, -1.000000000000000000 ) ) ;
#470 = CIRCLE ( 'NONE', #610, 0.01968503937007875723 ) ;
#471 = ORIENTED_EDGE ( 'NONE', *, *, #271, .T. ) ;
#472 = ORIENTED_EDGE ( 'NONE', *, *, #20, .F. ) ;
#473 = LINE ( 'NONE', #406, #911 ) ;
#474 = DIRECTION ( 'NONE',  ( 1.000000000000000000, -0.000000000000000000, -0.000000000000000000 ) ) ;
#475 = EDGE_CURVE ( 'NONE', #920, #476, #528, .T. ) ;
#476 = VERTEX_POINT ( 'NONE', #901 ) ;
#477 = APPLICATION_PROTOCOL_DEFINITION ( 'draft international standard', 'automotive_design', 1998, #716 ) ;
#478 = VERTEX_POINT ( 'NONE', #178 ) ;
#479 = CARTESIAN_POINT ( 'NONE',  ( 18.00000000000000000, 0.000000000000000000, 0.000000000000000000 ) ) ;
#480 = PLANE ( 'NONE',  #481 ) ;
#481 = AXIS2_PLACEMENT_3D ( 'NONE', #562, #82, #642 ) ;
#482 =( GEOMETRIC_REPRESENTATION_CONTEXT ( 3 ) GLOBAL_UNCERTAINTY_ASSIGNED_CONTEXT ( ( #214 ) ) GLOBAL_UNIT_ASSIGNED_CONTEXT ( ( #523, #841, #216 ) ) REPRESENTATION_CONTEXT ( 'NONE', 'WORKASPACE' ) );
#483 = EDGE_LOOP ( 'NONE', ( #744, #102, #154, #257 ) ) ;
#484 = ORIENTED_EDGE ( 'NONE', *, *, #977, .F. ) ;
#485 = DIRECTION ( 'NONE',  ( 1.000000000000000000, 0.000000000000000000, 0.000000000000000000 ) ) ;
#486 = DIRECTION ( 'NONE',  ( 0.000000000000000000, 0.000000000000000000, -1.000000000000000000 ) ) ;
#487 = DIRECTION ( 'NONE',  ( 1.000000000000000000, 0.000000000000000000, 0.000000000000000000 ) ) ;
#488 = ORIENTED_EDGE ( 'NONE', *, *, #400, .T. ) ;
#489 = DIRECTION ( 'NONE',  ( 0.000000000000000000, 0.000000000000000000, -1.000000000000000000 ) ) ;
#490 = EDGE_CURVE ( 'NONE', #916, #959, #109, .T. ) ;
#491 = CARTESIAN_POINT ( 'NONE',  ( -18.00000000000000000, -0.1350723978815500659, -0.2536372952011154980 ) ) ;
#492 = AXIS2_PLACEMENT_3D ( 'NONE', #375, #284, #695 ) ;
#493 = DIRECTION ( 'NONE',  ( 1.000000000000000000, 0.000000000000000000, 0.000000000000000000 ) ) ;
#494 = EDGE_LOOP ( 'NONE', ( #1013, #566, #616, #988 ) ) ;
#495 = DIRECTION ( 'NONE',  ( 1.000000000000000000, -0.000000000000000000, -0.000000000000000000 ) ) ;
#496 = CARTESIAN_POINT ( 'NONE',  ( -18.00000000000000000, -0.1545199258277585308, -0.2370009328856511055 ) ) ;
#497 = VECTOR ( 'NONE', #905, 39.37007874015748143 ) ;
#498 = ADVANCED_FACE ( 'NONE', ( #93 ), #346, .F. ) ;
#499 = ORIENTED_EDGE ( 'NONE', *, *, #83, .T. ) ;
#500 = VERTEX_POINT ( 'NONE', #580 ) ;
#501 = DIRECTION ( 'NONE',  ( 1.000000000000000000, -0.000000000000000000, -0.000000000000000000 ) ) ;
#502 = DIRECTION ( 'NONE',  ( 1.000000000000000000, -0.000000000000000000, -0.000000000000000000 ) ) ;
#503 = PRODUCT_DEFINITION_CONTEXT ( 'detailed design', #716, 'design' ) ;
#504 = EDGE_CURVE ( 'NONE', #229, #288, #842, .T. ) ;
#505 = CARTESIAN_POINT ( 'NONE',  ( 18.00000000000000000, 0.1279888656857061935, -0.2523186476005498946 ) ) ;
#506 = VERTEX_POINT ( 'NONE', #420 ) ;
#507 = AXIS2_PLACEMENT_3D ( 'NONE', #903, #348, #13 ) ;
#508 = CARTESIAN_POINT ( 'NONE',  ( -18.00000000000000000, 0.1209053334898498172, -0.2706850393700787061 ) ) ;
#509 = DIRECTION ( 'NONE',  ( -1.000000000000000000, -0.000000000000000000, -0.000000000000000000 ) ) ;
#510 = CARTESIAN_POINT ( 'NONE',  ( 18.00000000000000000, -0.1449149175665961076, 0.2509999999999999454 ) ) ;
#511 = EDGE_CURVE ( 'NONE', #725, #596, #658, .T. ) ;
#512 = ORIENTED_EDGE ( 'NONE', *, *, #511, .T. ) ;
#513 = FACE_BOUND ( 'NONE', #26, .T. ) ;
#514 = LINE ( 'NONE', #496, #3 ) ;
#515 = CARTESIAN_POINT ( 'NONE',  ( -18.00000000000000000, -0.2778250430948175920, 0.02079290974476300652 ) ) ;
#516 = VERTEX_POINT ( 'NONE', #740 ) ;
#517 = CYLINDRICAL_SURFACE ( 'NONE', #997, 0.01968503937007872254 ) ;
#518 = DIRECTION ( 'NONE',  ( 1.000000000000000000, -0.000000000000000000, -0.000000000000000000 ) ) ;
#519 = VECTOR ( 'NONE', #1015, 39.37007874015748143 ) ;
#520 = CIRCLE ( 'NONE', #54, 0.01968503937007872254 ) ;
#521 = CARTESIAN_POINT ( 'NONE',  ( -18.00000000000000000, 0.1209053334898379933, 0.2706850393700787616 ) ) ;
#522 = ORIENTED_EDGE ( 'NONE', *, *, #713, .T. ) ;
#523 =( CONVERSION_BASED_UNIT ( 'INCH', #534 ) LENGTH_UNIT ( ) NAMED_UNIT ( #347 ) );
#524 = APPLICATION_CONTEXT ( 'automotive_design' ) ;
#525 = FACE_OUTER_BOUND ( 'NONE', #582, .T. ) ;
#526 = EDGE_CURVE ( 'NONE', #378, #476, #202, .T. ) ;
#527 = AXIS2_PLACEMENT_3D ( 'NONE', #381, #864, #623 ) ;
#528 = CIRCLE ( 'NONE', #392, 0.01968503937007872254 ) ;
#529 = LINE ( 'NONE', #1005, #326 ) ;
#530 = ORIENTED_EDGE ( 'NONE', *, *, #907, .T. ) ;
#531 = LINE ( 'NONE', #377, #1004 ) ;
#532 = EDGE_CURVE ( 'NONE', #310, #124, #514, .T. ) ;
#533 = ORIENTED_EDGE ( 'NONE', *, *, #504, .F. ) ;
#534 = LENGTH_MEASURE_WITH_UNIT ( LENGTH_MEASURE( 0.02539999999999999897 ), #684 );
#535 = AXIS2_PLACEMENT_3D ( 'NONE', #873, #222, #147 ) ;
#536 = CARTESIAN_POINT ( 'NONE',  ( -18.00000000000000000, -0.1739674537739773486, 0.2400496099402387173 ) ) ;
#537 = EDGE_CURVE ( 'NONE', #904, #732, #602, .T. ) ;
#538 = VERTEX_POINT ( 'NONE', #205 ) ;
#539 = CARTESIAN_POINT ( 'NONE',  ( 18.00000000000000000, 0.000000000000000000, 0.000000000000000000 ) ) ;
#540 = AXIS2_PLACEMENT_3D ( 'NONE', #583, #24, #355 ) ;
#541 = CARTESIAN_POINT ( 'NONE',  ( -18.00000000000000000, 0.1545199258277641652, -0.2370009328856418074 ) ) ;
#542 = ORIENTED_EDGE ( 'NONE', *, *, #693, .F. ) ;
#543 = EDGE_CURVE ( 'NONE', #66, #368, #531, .T. ) ;
#544 = EDGE_LOOP ( 'NONE', ( #949, #158, #187, #1039 ) ) ;
#545 = CARTESIAN_POINT ( 'NONE',  ( -18.00000000000000000, 0.1569197096049775031, -0.2302070902552250664 ) ) ;
#546 = DIRECTION ( 'NONE',  ( -1.000000000000000000, -0.000000000000000000, -0.000000000000000000 ) ) ;
#547 = AXIS2_PLACEMENT_3D ( 'NONE', #955, #155, #236 ) ;
#548 = VERTEX_POINT ( 'NONE', #922 ) ;
#549 = ORIENTED_EDGE ( 'NONE', *, *, #816, .T. ) ;
#550 = LINE ( 'NONE', #169, #782 ) ;
#551 = CARTESIAN_POINT ( 'NONE',  ( -18.00000000000000000, -0.2825087915134467109, -0.01531771471494373926 ) ) ;
#552 = ORIENTED_EDGE ( 'NONE', *, *, #160, .T. ) ;
#553 = LENGTH_MEASURE_WITH_UNIT ( LENGTH_MEASURE( 0.02539999999999999897 ), #801 );
#554 = VECTOR ( 'NONE', #120, 39.37007874015748143 ) ;
#555 = ORIENTED_EDGE ( 'NONE', *, *, #352, .T. ) ;
#556 = DIRECTION ( 'NONE',  ( 1.000000000000000000, 0.000000000000000000, 0.000000000000000000 ) ) ;
#557 = DIRECTION ( 'NONE',  ( 1.000000000000000000, 0.000000000000000000, 0.000000000000000000 ) ) ;
#558 = CIRCLE ( 'NONE', #507, 0.01968503937007873988 ) ;
#559 = ORIENTED_EDGE ( 'NONE', *, *, #537, .T. ) ;
#560 = ORIENTED_EDGE ( 'NONE', *, *, #160, .F. ) ;
#561 = DIRECTION ( 'NONE',  ( 1.000000000000000000, 0.000000000000000000, 0.000000000000000000 ) ) ;
#562 = CARTESIAN_POINT ( 'NONE',  ( 18.00000000000000000, 0.1449149175665961631, -0.2509999999999999454 ) ) ;
#563 = ADVANCED_FACE ( 'NONE', ( #525 ), #605, .T. ) ;
#564 = ORIENTED_EDGE ( 'NONE', *, *, #938, .F. ) ;
#565 = SURFACE_STYLE_FILL_AREA ( #921 ) ;
#566 = ORIENTED_EDGE ( 'NONE', *, *, #382, .F. ) ;
#567 = FACE_OUTER_BOUND ( 'NONE', #68, .T. ) ;
#568 = LINE ( 'NONE', #551, #703 ) ;
#569 = DIRECTION ( 'NONE',  ( 1.000000000000000000, -0.000000000000000000, -0.000000000000000000 ) ) ;
#570 = CIRCLE ( 'NONE', #384, 0.01968503937009513996 ) ;
#571 = ORIENTED_EDGE ( 'NONE', *, *, #689, .T. ) ;
#572 = DIRECTION ( 'NONE',  ( 0.000000000000000000, 3.469446951953617344E-15, -1.000000000000000000 ) ) ;
#573 = DIRECTION ( 'NONE',  ( 0.000000000000000000, 0.000000000000000000, -1.000000000000000000 ) ) ;
#574 = CIRCLE ( 'NONE', #838, 0.01968503937007875723 ) ;
#575 = DIRECTION ( 'NONE',  ( 1.000000000000000000, -0.000000000000000000, -0.000000000000000000 ) ) ;
#576 = EDGE_CURVE ( 'NONE', #548, #666, #735, .T. ) ;
#577 = ORIENTED_EDGE ( 'NONE', *, *, #816, .F. ) ;
#578 = CARTESIAN_POINT ( 'NONE',  ( -18.00000000000000000, -0.2701447957631134544, -1.525670419079881123E-14 ) ) ;
#579 =( GEOMETRIC_REPRESENTATION_CONTEXT ( 3 ) GLOBAL_UNCERTAINTY_ASSIGNED_CONTEXT ( ( #164 ) ) GLOBAL_UNIT_ASSIGNED_CONTEXT ( ( #425, #10, #584 ) ) REPRESENTATION_CONTEXT ( 'NONE', 'WORKASPACE' ) );
#580 = CARTESIAN_POINT ( 'NONE',  ( -18.00000000000000000, 0.2825087915134613104, 0.01531771471489561977 ) ) ;
#581 = PLANE ( 'NONE',  #234 ) ;
#582 = EDGE_LOOP ( 'NONE', ( #37, #135, #778, #577 ) ) ;
#583 = CARTESIAN_POINT ( 'NONE',  ( 18.00000000000000000, -0.1449149175665961076, -0.2509999999999999454 ) ) ;
#584 =( NAMED_UNIT ( * ) SI_UNIT ( $, .STERADIAN. ) SOLID_ANGLE_UNIT ( ) );
#585 = FACE_OUTER_BOUND ( 'NONE', #316, .T. ) ;
#586 = ORIENTED_EDGE ( 'NONE', *, *, #934, .T. ) ;
#587 = DIRECTION ( 'NONE',  ( 0.000000000000000000, 1.000000000000000000, 1.178212032764343639E-16 ) ) ;
#588 = DIRECTION ( 'NONE',  ( 0.000000000000000000, 0.000000000000000000, -1.000000000000000000 ) ) ;
#589 = EDGE_CURVE ( 'NONE', #954, #1010, #1008, .T. ) ;
#590 = FACE_OUTER_BOUND ( 'NONE', #303, .T. ) ;
#591 = ORIENTED_EDGE ( 'NONE', *, *, #663, .F. ) ;
#592 = FACE_OUTER_BOUND ( 'NONE', #176, .T. ) ;
#593 = FILL_AREA_STYLE ('',( #668 ) ) ;
#594 = VECTOR ( 'NONE', #275, 39.37007874015748143 ) ;
#595 = CARTESIAN_POINT ( 'NONE',  ( -18.00000000000000000, 0.2948727872638089997, -0.03063542942979136444 ) ) ;
#596 = VERTEX_POINT ( 'NONE', #454 ) ;
#597 = AXIS2_PLACEMENT_3D ( 'NONE', #468, #946, #785 ) ;
#598 = CARTESIAN_POINT ( 'NONE',  ( -18.00000000000000000, -0.1209053334898533560, 0.2706850393700787061 ) ) ;
#599 = PRESENTATION_LAYER_ASSIGNMENT (  '', '', ( #136 ) ) ;
#600 = CYLINDRICAL_SURFACE ( 'NONE', #1049, 0.01968503937007873988 ) ;
#601 = DIRECTION ( 'NONE',  ( 0.000000000000000000, -0.8660254037844385966, -0.5000000000000001110 ) ) ;
#602 = CIRCLE ( 'NONE', #417, 0.01968503937007873988 ) ;
#603 = ORIENTED_EDGE ( 'NONE', *, *, #343, .F. ) ;
#604 = EDGE_CURVE ( 'NONE', #691, #893, #462, .T. ) ;
#605 = CYLINDRICAL_SURFACE ( 'NONE', #140, 0.3744999999999999996 ) ;
#606 = CIRCLE ( 'NONE', #55, 0.01968503937008900251 ) ;
#607 = DIRECTION ( 'NONE',  ( 0.000000000000000000, 0.000000000000000000, -1.000000000000000000 ) ) ;
#608 = ORIENTED_EDGE ( 'NONE', *, *, #682, .F. ) ;
#609 = ADVANCED_FACE ( 'NONE', ( #212 ), #116, .F. ) ;
#610 = AXIS2_PLACEMENT_3D ( 'NONE', #747, #493, #981 ) ;
#611 = DIRECTION ( 'NONE',  ( 1.000000000000000000, -0.000000000000000000, -0.000000000000000000 ) ) ;
#612 = AXIS2_PLACEMENT_3D ( 'NONE', #595, #25, #607 ) ;
#613 = ORIENTED_EDGE ( 'NONE', *, *, #576, .F. ) ;
#614 = CARTESIAN_POINT ( 'NONE',  ( 18.00000000000000000, 0.1569197096049663731, 0.2302070902552443565 ) ) ;
#615 = ADVANCED_FACE ( 'NONE', ( #35 ), #367, .T. ) ;
#616 = ORIENTED_EDGE ( 'NONE', *, *, #511, .F. ) ;
#617 = FACE_OUTER_BOUND ( 'NONE', #889, .T. ) ;
#618 = DIRECTION ( 'NONE',  ( 0.000000000000000000, 0.000000000000000000, -1.000000000000000000 ) ) ;
#619 = EDGE_CURVE ( 'NONE', #49, #330, #290, .T. ) ;
#620 = VERTEX_POINT ( 'NONE', #545 ) ;
#621 = CARTESIAN_POINT ( 'NONE',  ( -18.00000000000000000, 0.1209053334898498172, -0.2706850393700787061 ) ) ;
#622 = DIRECTION ( 'NONE',  ( 1.000000000000000000, 0.000000000000000000, 0.000000000000000000 ) ) ;
#623 = DIRECTION ( 'NONE',  ( 0.000000000000000000, 0.000000000000000000, -1.000000000000000000 ) ) ;
#624 = ORIENTED_EDGE ( 'NONE', *, *, #526, .F. ) ;
#625 = VERTEX_POINT ( 'NONE', #614 ) ;
#626 = CARTESIAN_POINT ( 'NONE',  ( 18.00000000000000000, 0.000000000000000000, 0.3744999999999999996 ) ) ;
#627 = CARTESIAN_POINT ( 'NONE',  ( -18.00000000000000000, -0.2778250430948175920, 0.02079290974476300652 ) ) ;
#628 = VERTEX_POINT ( 'NONE', #51 ) ;
#629 = AXIS2_PLACEMENT_3D ( 'NONE', #429, #983, #587 ) ;
#630 = ADVANCED_FACE ( 'NONE', ( #929 ), #933, .T. ) ;
#631 = ORIENTED_EDGE ( 'NONE', *, *, #1007, .T. ) ;
#632 = DIRECTION ( 'NONE',  ( 1.000000000000000000, -0.000000000000000000, -0.000000000000000000 ) ) ;
#633 = LINE ( 'NONE', #799, #751 ) ;
#634 = VERTEX_POINT ( 'NONE', #208 ) ;
#635 = ORIENTED_EDGE ( 'NONE', *, *, #490, .T. ) ;
#636 = CARTESIAN_POINT ( 'NONE',  ( 18.00000000000000000, 0.1350723978815499271, 0.2339522558310113409 ) ) ;
#637 = ADVANCED_FACE ( 'NONE', ( #461 ), #448, .T. ) ;
#638 = CARTESIAN_POINT ( 'NONE',  ( -18.00000000000000000, -0.1545199258277585308, -0.2370009328856511055 ) ) ;
#639 = ORIENTED_EDGE ( 'NONE', *, *, #958, .T. ) ;
#640 = EDGE_LOOP ( 'NONE', ( #591, #748, #471, #181 ) ) ;
#641 = CARTESIAN_POINT ( 'NONE',  ( -18.00000000000000000, 0.1449149175665961076, 0.2510000000000000009 ) ) ;
#642 = DIRECTION ( 'NONE',  ( 0.000000000000000000, -0.4999999999999998335, -0.8660254037844385966 ) ) ;
#643 = EDGE_CURVE ( 'NONE', #8, #1024, #43, .T. ) ;
#644 = FACE_OUTER_BOUND ( 'NONE', #1, .T. ) ;
#645 = ORIENTED_EDGE ( 'NONE', *, *, #682, .T. ) ;
#646 = CARTESIAN_POINT ( 'NONE',  ( -18.00000000000000000, -0.2825087915134467109, -0.01531771471494373926 ) ) ;
#647 = FACE_OUTER_BOUND ( 'NONE', #320, .T. ) ;
#648 = EDGE_CURVE ( 'NONE', #288, #725, #570, .T. ) ;
#649 = VERTEX_POINT ( 'NONE', #541 ) ;
#650 = VERTEX_POINT ( 'NONE', #863 ) ;
#651 = LINE ( 'NONE', #192, #858 ) ;
#652 = VECTOR ( 'NONE', #804, 39.37007874015748143 ) ;
#653 = CARTESIAN_POINT ( 'NONE',  ( 18.00000000000000000, -0.1209053334898532728, 0.2509999999999999454 ) ) ;
#654 = DIRECTION ( 'NONE',  ( 0.000000000000000000, 0.000000000000000000, -1.000000000000000000 ) ) ;
#655 = VERTEX_POINT ( 'NONE', #856 ) ;
#656 = FACE_OUTER_BOUND ( 'NONE', #411, .T. ) ;
#657 = AXIS2_PLACEMENT_3D ( 'NONE', #301, #201, #1021 ) ;
#658 = CIRCLE ( 'NONE', #706, 0.01968503937007873988 ) ;
#659 = SURFACE_STYLE_FILL_AREA ( #593 ) ;
#660 = DIRECTION ( 'NONE',  ( -1.000000000000000000, 0.000000000000000000, 0.000000000000000000 ) ) ;
#661 = ORIENTED_EDGE ( 'NONE', *, *, #415, .T. ) ;
#662 = DIRECTION ( 'NONE',  ( -1.000000000000000000, 0.000000000000000000, 0.000000000000000000 ) ) ;
#663 = EDGE_CURVE ( 'NONE', #620, #401, #131, .T. ) ;
#664 = DIRECTION ( 'NONE',  ( 1.000000000000000000, 0.000000000000000000, 0.000000000000000000 ) ) ;
#665 = CARTESIAN_POINT ( 'NONE',  ( 18.00000000000000000, 0.1569197096049775031, -0.2302070902552250664 ) ) ;
#666 = VERTEX_POINT ( 'NONE', #1020 ) ;
#667 = DIRECTION ( 'NONE',  ( -1.000000000000000000, 0.000000000000000000, 0.000000000000000000 ) ) ;
#668 = FILL_AREA_STYLE_COLOUR ( '', #276 ) ;
#669 = EDGE_CURVE ( 'NONE', #994, #978, #107, .T. ) ;
#670 = AXIS2_PLACEMENT_3D ( 'NONE', #830, #917, #268 ) ;
#671 = PLANE ( 'NONE',  #739 ) ;
#672 = ORIENTED_EDGE ( 'NONE', *, *, #421, .T. ) ;
#673 = CARTESIAN_POINT ( 'NONE',  ( 18.00000000000000000, 0.000000000000000000, 0.000000000000000000 ) ) ;
#674 = FACE_OUTER_BOUND ( 'NONE', #153, .T. ) ;
#675 = AXIS2_PLACEMENT_3D ( 'NONE', #979, #173, #339 ) ;
#676 = EDGE_CURVE ( 'NONE', #1010, #44, #465, .T. ) ;
#677 = CARTESIAN_POINT ( 'NONE',  ( -18.00000000000000000, -0.2825087915134631422, 0.01531771471489994270 ) ) ;
#678 = ORIENTED_EDGE ( 'NONE', *, *, #781, .F. ) ;
#679 = CARTESIAN_POINT ( 'NONE',  ( 18.00000000000000000, 0.2701447957631134544, 0.000000000000000000 ) ) ;
#680 = CIRCLE ( 'NONE', #898, 0.01968503937007875723 ) ;
#681 = CARTESIAN_POINT ( 'NONE',  ( 18.00000000000000000, 0.000000000000000000, 0.3744999999999999996 ) ) ;
#682 = EDGE_CURVE ( 'NONE', #368, #239, #967, .T. ) ;
#683 = ORIENTED_EDGE ( 'NONE', *, *, #1016, .T. ) ;
#684 =( LENGTH_UNIT ( ) NAMED_UNIT ( * ) SI_UNIT ( $, .METRE. ) );
#685 = CARTESIAN_POINT ( 'NONE',  ( -18.00000000000000000, 0.1739674537739513971, 0.2400496099402838202 ) ) ;
#686 = AXIS2_PLACEMENT_3D ( 'NONE', #521, #546, #194 ) ;
#687 = ORIENTED_EDGE ( 'NONE', *, *, #1022, .T. ) ;
#688 = CARTESIAN_POINT ( 'NONE',  ( -18.00000000000000000, 0.1569197096049663731, 0.2302070902552443565 ) ) ;
#689 = EDGE_CURVE ( 'NONE', #1010, #625, #196, .T. ) ;
#690 = DIRECTION ( 'NONE',  ( 0.000000000000000000, 0.000000000000000000, -1.000000000000000000 ) ) ;
#691 = VERTEX_POINT ( 'NONE', #393 ) ;
#692 = CARTESIAN_POINT ( 'NONE',  ( -18.00000000000000000, -0.1569197096049718965, -0.2302070902552347809 ) ) ;
#693 = EDGE_CURVE ( 'NONE', #628, #1034, #520, .T. ) ;
#694 = ORIENTED_EDGE ( 'NONE', *, *, #781, .T. ) ;
#695 = DIRECTION ( 'NONE',  ( 0.000000000000000000, 0.000000000000000000, -1.000000000000000000 ) ) ;
#696 = AXIS2_PLACEMENT_3D ( 'NONE', #313, #474, #323 ) ;
#697 = DIRECTION ( 'NONE',  ( 0.000000000000000000, 0.4999999999999998335, 0.8660254037844385966 ) ) ;
#698 = PRODUCT_RELATED_PRODUCT_CATEGORY ( 'part', '', ( #132 ) ) ;
#699 = FACE_OUTER_BOUND ( 'NONE', #18, .T. ) ;
#700 = AXIS2_PLACEMENT_3D ( 'NONE', #685, #611, #690 ) ;
#701 = ORIENTED_EDGE ( 'NONE', *, *, #643, .T. ) ;
#702 = ORIENTED_EDGE ( 'NONE', *, *, #914, .F. ) ;
#703 = VECTOR ( 'NONE', #871, 39.37007874015748143 ) ;
#704 = CYLINDRICAL_SURFACE ( 'NONE', #547, 0.01968503937008111299 ) ;
#705 = CARTESIAN_POINT ( 'NONE',  ( -18.00000000000000000, -0.1449149175665961076, -0.2509999999999999454 ) ) ;
#706 = AXIS2_PLACEMENT_3D ( 'NONE', #88, #99, #189 ) ;
#707 = EDGE_CURVE ( 'NONE', #314, #239, #869, .T. ) ;
#708 = ORIENTED_EDGE ( 'NONE', *, *, #914, .T. ) ;
#709 = ORIENTED_EDGE ( 'NONE', *, *, #895, .T. ) ;
#710 = LINE ( 'NONE', #311, #722 ) ;
#711 = CARTESIAN_POINT ( 'NONE',  ( -18.00000000000000000, -0.2898298351331921041, 5.568265911832620183E-20 ) ) ;
#712 = ORIENTED_EDGE ( 'NONE', *, *, #504, .T. ) ;
#713 = EDGE_CURVE ( 'NONE', #959, #868, #550, .T. ) ;
#714 = ORIENTED_EDGE ( 'NONE', *, *, #870, .T. ) ;
#715 = CARTESIAN_POINT ( 'NONE',  ( 18.00000000000000000, -0.1350723978815634163, 0.2339522558310035694 ) ) ;
#716 = APPLICATION_CONTEXT ( 'automotive_design' ) ;
#717 = DIRECTION ( 'NONE',  ( 0.000000000000000000, -0.5000000000000001110, 0.8660254037844385966 ) ) ;
#718 = ORIENTED_EDGE ( 'NONE', *, *, #895, .F. ) ;
#719 = EDGE_LOOP ( 'NONE', ( #337, #228, #549, #1036 ) ) ;
#720 = DIRECTION ( 'NONE',  ( -1.000000000000000000, -0.000000000000000000, -0.000000000000000000 ) ) ;
#721 = EDGE_CURVE ( 'NONE', #374, #548, #333, .T. ) ;
#722 = VECTOR ( 'NONE', #632, 39.37007874015748143 ) ;
#723 = DIRECTION ( 'NONE',  ( 1.000000000000000000, -0.000000000000000000, -0.000000000000000000 ) ) ;
#724 = CYLINDRICAL_SURFACE ( 'NONE', #94, 0.01968503937009412341 ) ;
#725 = VERTEX_POINT ( 'NONE', #646 ) ;
#726 = DIRECTION ( 'NONE',  ( -1.000000000000000000, -0.000000000000000000, -0.000000000000000000 ) ) ;
#727 = DIRECTION ( 'NONE',  ( 1.000000000000000000, 0.000000000000000000, 0.000000000000000000 ) ) ;
#728 = EDGE_CURVE ( 'NONE', #893, #649, #134, .T. ) ;
#729 = AXIS2_PLACEMENT_3D ( 'NONE', #715, #561, #80 ) ;
#730 = CIRCLE ( 'NONE', #1000, 0.01968503937008900251 ) ;
#731 = CARTESIAN_POINT ( 'NONE',  ( -18.00000000000000000, 0.2825087915134612548, -0.01531771471489567528 ) ) ;
#732 = VERTEX_POINT ( 'NONE', #150 ) ;
#733 = LINE ( 'NONE', #92, #408 ) ;
#734 = LINE ( 'NONE', #232, #111 ) ;
#735 = CIRCLE ( 'NONE', #918, 0.01968503937007872254 ) ;
#736 = LINE ( 'NONE', #422, #373 ) ;
#737 = ORIENTED_EDGE ( 'NONE', *, *, #83, .F. ) ;
#738 = CARTESIAN_POINT ( 'NONE',  ( 18.00000000000000000, -0.1209053334898533560, 0.2706850393700787061 ) ) ;
#739 = AXIS2_PLACEMENT_3D ( 'NONE', #227, #601, #277 ) ;
#740 = CARTESIAN_POINT ( 'NONE',  ( 18.00000000000000000, -0.2778250430948175920, 0.02079290974476300652 ) ) ;
#741 = AXIS2_PLACEMENT_3D ( 'NONE', #17, #897, #95 ) ;
#742 = CARTESIAN_POINT ( 'NONE',  ( 18.00000000000000000, -0.1569197096049718410, -0.2302070902552348086 ) ) ;
#743 = EDGE_CURVE ( 'NONE', #959, #978, #81, .T. ) ;
#744 = ORIENTED_EDGE ( 'NONE', *, *, #902, .F. ) ;
#745 = CARTESIAN_POINT ( 'NONE',  ( -18.00000000000000000, 0.1350723978815634163, -0.2536372952010999549 ) ) ;
#746 = DIRECTION ( 'NONE',  ( 0.000000000000000000, 0.000000000000000000, -1.000000000000000000 ) ) ;
#747 = CARTESIAN_POINT ( 'NONE',  ( 18.00000000000000000, -0.1739674537739568649, -0.2400496099402741057 ) ) ;
#748 = ORIENTED_EDGE ( 'NONE', *, *, #36, .T. ) ;
#749 = DIRECTION ( 'NONE',  ( 1.000000000000000000, -0.000000000000000000, -0.000000000000000000 ) ) ;
#750 = DIRECTION ( 'NONE',  ( 1.000000000000000000, 0.000000000000000000, 0.000000000000000000 ) ) ;
#751 = VECTOR ( 'NONE', #332, 39.37007874015748143 ) ;
#752 = DIRECTION ( 'NONE',  ( 0.000000000000000000, 6.938893903907222856E-15, -1.000000000000000000 ) ) ;
#753 = ORIENTED_EDGE ( 'NONE', *, *, #209, .F. ) ;
#754 = DIRECTION ( 'NONE',  ( 0.000000000000000000, 0.000000000000000000, -1.000000000000000000 ) ) ;
#755 = CARTESIAN_POINT ( 'NONE',  ( 18.00000000000000000, 0.1739674537739625548, -0.2400496099402644468 ) ) ;
#756 = EDGE_CURVE ( 'NONE', #634, #1034, #1047, .T. ) ;
#757 = VECTOR ( 'NONE', #717, 39.37007874015748143 ) ;
#758 = DIRECTION ( 'NONE',  ( 0.000000000000000000, 0.000000000000000000, -1.000000000000000000 ) ) ;
#759 = ORIENTED_EDGE ( 'NONE', *, *, #756, .T. ) ;
#760 = EDGE_CURVE ( 'NONE', #666, #628, #473, .T. ) ;
#761 = FACE_OUTER_BOUND ( 'NONE', #544, .T. ) ;
#762 = AXIS2_PLACEMENT_3D ( 'NONE', #621, #1011, #289 ) ;
#763 = ORIENTED_EDGE ( 'NONE', *, *, #972, .F. ) ;
#764 = CARTESIAN_POINT ( 'NONE',  ( 18.00000000000000000, -0.2898298351331921041, 5.568265911832620183E-20 ) ) ;
#765 = DIRECTION ( 'NONE',  ( 0.000000000000000000, 0.000000000000000000, -1.000000000000000000 ) ) ;
#766 = CIRCLE ( 'NONE', #34, 0.01968503937007875723 ) ;
#767 = ORIENTED_EDGE ( 'NONE', *, *, #118, .F. ) ;
#768 = DIRECTION ( 'NONE',  ( 1.000000000000000000, -0.000000000000000000, -0.000000000000000000 ) ) ;
#769 = DIRECTION ( 'NONE',  ( 0.000000000000000000, 0.000000000000000000, 1.000000000000000000 ) ) ;
#770 = EDGE_LOOP ( 'NONE', ( #161, #701, #79, #63 ) ) ;
#771 = APPLICATION_PROTOCOL_DEFINITION ( 'draft international standard', 'automotive_design', 1998, #524 ) ;
#772 = DIRECTION ( 'NONE',  ( 0.000000000000000000, -3.469446951953617344E-15, -1.000000000000000000 ) ) ;
#773 = ORIENTED_EDGE ( 'NONE', *, *, #167, .T. ) ;
#774 = CYLINDRICAL_SURFACE ( 'NONE', #117, 0.01968503937007872254 ) ;
#775 = CARTESIAN_POINT ( 'NONE',  ( 18.00000000000000000, 4.586302262806837466E-17, -0.3744999999999999996 ) ) ;
#776 = CARTESIAN_POINT ( 'NONE',  ( -18.00000000000000000, 0.2948727872638092218, 0.03063542942979122913 ) ) ;
#777 = ORIENTED_EDGE ( 'NONE', *, *, #343, .T. ) ;
#778 = ORIENTED_EDGE ( 'NONE', *, *, #802, .T. ) ;
#779 = DIRECTION ( 'NONE',  ( 1.000000000000000000, 0.000000000000000000, 0.000000000000000000 ) ) ;
#780 = DIRECTION ( 'NONE',  ( 0.000000000000000000, 1.000000000000000000, 0.000000000000000000 ) ) ;
#781 = EDGE_CURVE ( 'NONE', #649, #620, #456, .T. ) ;
#782 = VECTOR ( 'NONE', #809, 39.37007874015748143 ) ;
#783 = ORIENTED_EDGE ( 'NONE', *, *, #796, .T. ) ;
#784 = ORIENTED_EDGE ( 'NONE', *, *, #648, .F. ) ;
#785 = DIRECTION ( 'NONE',  ( 0.000000000000000000, 0.000000000000000000, -1.000000000000000000 ) ) ;
#786 = VECTOR ( 'NONE', #807, 39.37007874015748143 ) ;
#787 = DIRECTION ( 'NONE',  ( 1.000000000000000000, 0.000000000000000000, 0.000000000000000000 ) ) ;
#788 = ADVANCED_FACE ( 'NONE', ( #793 ), #704, .F. ) ;
#789 = AXIS2_PLACEMENT_3D ( 'NONE', #139, #999, #112 ) ;
#790 = AXIS2_PLACEMENT_3D ( 'NONE', #430, #750, #270 ) ;
#791 = ORIENTED_EDGE ( 'NONE', *, *, #309, .T. ) ;
#792 =( NAMED_UNIT ( * ) SI_UNIT ( $, .STERADIAN. ) SOLID_ANGLE_UNIT ( ) );
#793 = FACE_OUTER_BOUND ( 'NONE', #926, .T. ) ;
#794 = DIRECTION ( 'NONE',  ( -1.000000000000000000, 0.000000000000000000, 0.000000000000000000 ) ) ;
#795 = ORIENTED_EDGE ( 'NONE', *, *, #1042, .F. ) ;
#796 = EDGE_CURVE ( 'NONE', #288, #538, #397, .T. ) ;
#797 = ORIENTED_EDGE ( 'NONE', *, *, #244, .T. ) ;
#798 = CARTESIAN_POINT ( 'NONE',  ( 18.00000000000000000, -0.1209053334897947224, -0.2706850393700787061 ) ) ;
#799 = CARTESIAN_POINT ( 'NONE',  ( -18.00000000000000000, -0.1545199258277779875, 0.2370009328856223230 ) ) ;
#800 = ORIENTED_EDGE ( 'NONE', *, *, #96, .T. ) ;
#801 =( LENGTH_UNIT ( ) NAMED_UNIT ( * ) SI_UNIT ( $, .METRE. ) );
#802 = EDGE_CURVE ( 'NONE', #330, #478, #213, .T. ) ;
#803 = ORIENTED_EDGE ( 'NONE', *, *, #185, .T. ) ;
#804 = DIRECTION ( 'NONE',  ( 0.000000000000000000, -1.000000000000000000, -1.178212032764343639E-16 ) ) ;
#805 = AXIS2_PLACEMENT_3D ( 'NONE', #479, #57, #1032 ) ;
#806 = CARTESIAN_POINT ( 'NONE',  ( -18.00000000000000000, -0.1209053334897947224, -0.2706850393700787061 ) ) ;
#807 = DIRECTION ( 'NONE',  ( 1.000000000000000000, -0.000000000000000000, -0.000000000000000000 ) ) ;
#808 = ORIENTED_EDGE ( 'NONE', *, *, #728, .T. ) ;
#809 = DIRECTION ( 'NONE',  ( 0.000000000000000000, 1.000000000000000000, 0.000000000000000000 ) ) ;
#810 = AXIS2_PLACEMENT_3D ( 'NONE', #834, #749, #754 ) ;
#811 = CARTESIAN_POINT ( 'NONE',  ( -18.00000000000000000, 0.1209053334898379933, 0.2510000000000000009 ) ) ;
#812 = CARTESIAN_POINT ( 'NONE',  ( -18.00000000000000000, 0.1350723978815634163, -0.2536372952010999549 ) ) ;
#813 = VECTOR ( 'NONE', #299, 39.37007874015748854 ) ;
#814 = ORIENTED_EDGE ( 'NONE', *, *, #47, .F. ) ;
#815 = CARTESIAN_POINT ( 'NONE',  ( -18.00000000000000000, 0.1545199258277641652, -0.2370009328856418074 ) ) ;
#816 = EDGE_CURVE ( 'NONE', #165, #478, #327, .T. ) ;
#817 = PLANE ( 'NONE',  #184 ) ;
#818 = ORIENTED_EDGE ( 'NONE', *, *, #707, .F. ) ;
#819 = CARTESIAN_POINT ( 'NONE',  ( -18.00000000000000000, -0.1209053334897947224, -0.2509999999999999454 ) ) ;
#820 = AXIS2_PLACEMENT_3D ( 'NONE', #776, #100, #912 ) ;
#821 = PRESENTATION_STYLE_ASSIGNMENT (( #264 ) ) ;
#822 = CIRCLE ( 'NONE', #338, 0.01968503937007873988 ) ;
#823 = CARTESIAN_POINT ( 'NONE',  ( 18.00000000000000000, 0.000000000000000000, 0.000000000000000000 ) ) ;
#824 = ORIENTED_EDGE ( 'NONE', *, *, #532, .F. ) ;
#825 = DIRECTION ( 'NONE',  ( -1.000000000000000000, -0.000000000000000000, -0.000000000000000000 ) ) ;
#826 = DIRECTION ( 'NONE',  ( 0.000000000000000000, -1.040834085586084257E-14, -1.000000000000000000 ) ) ;
#827 = CYLINDRICAL_SURFACE ( 'NONE', #612, 0.01968503937007873988 ) ;
#828 = EDGE_LOOP ( 'NONE', ( #484, #908, #423, #824 ) ) ;
#829 = ADVANCED_FACE ( 'NONE', ( #1037 ), #317, .T. ) ;
#830 = CARTESIAN_POINT ( 'NONE',  ( 18.00000000000000000, -0.2701447957631134544, -1.525670419079881123E-14 ) ) ;
#831 = SURFACE_SIDE_STYLE ('',( #659 ) ) ;
#832 = CARTESIAN_POINT ( 'NONE',  ( -18.00000000000000000, -0.1209053334898532728, 0.2509999999999999454 ) ) ;
#833 = ORIENTED_EDGE ( 'NONE', *, *, #5, .F. ) ;
#834 = CARTESIAN_POINT ( 'NONE',  ( -18.00000000000000000, 0.1350723978815634163, -0.2339522558310188349 ) ) ;
#835 = EDGE_CURVE ( 'NONE', #374, #634, #710, .T. ) ;
#836 = AXIS2_PLACEMENT_3D ( 'NONE', #536, #126, #451 ) ;
#837 = VECTOR ( 'NONE', #1041, 39.37007874015748143 ) ;
#838 = AXIS2_PLACEMENT_3D ( 'NONE', #76, #952, #1043 ) ;
#839 = LINE ( 'NONE', #705, #457 ) ;
#840 = ORIENTED_EDGE ( 'NONE', *, *, #352, .F. ) ;
#841 =( NAMED_UNIT ( * ) PLANE_ANGLE_UNIT ( ) SI_UNIT ( $, .RADIAN. ) );
#842 = CIRCLE ( 'NONE', #59, 0.01968503937007873988 ) ;
#843 = DIRECTION ( 'NONE',  ( -1.000000000000000000, -0.000000000000000000, -0.000000000000000000 ) ) ;
#844 = FACE_OUTER_BOUND ( 'NONE', #828, .T. ) ;
#845 = ORIENTED_EDGE ( 'NONE', *, *, #992, .T. ) ;
#846 = CARTESIAN_POINT ( 'NONE',  ( -18.00000000000000000, 0.1739674537739625548, -0.2400496099402644468 ) ) ;
#847 = CARTESIAN_POINT ( 'NONE',  ( -18.00000000000000000, 0.1350723978815634163, -0.2339522558310188349 ) ) ;
#848 = ADVANCED_FACE ( 'NONE', ( #567 ), #886, .T. ) ;
#849 = ORIENTED_EDGE ( 'NONE', *, *, #860, .F. ) ;
#850 = DIRECTION ( 'NONE',  ( 1.000000000000000000, 0.000000000000000000, 0.000000000000000000 ) ) ;
#851 = CARTESIAN_POINT ( 'NONE',  ( 18.00000000000000000, -0.2898298351331921041, 5.568265911832620183E-20 ) ) ;
#852 = ADVANCED_FACE ( 'NONE', ( #513, #19 ), #188, .T. ) ;
#853 = AXIS2_PLACEMENT_3D ( 'NONE', #738, #419, #434 ) ;
#854 = ORIENTED_EDGE ( 'NONE', *, *, #589, .T. ) ;
#855 = CARTESIAN_POINT ( 'NONE',  ( -18.00000000000000000, 0.1739674537739513971, 0.2400496099402838202 ) ) ;
#856 = CARTESIAN_POINT ( 'NONE',  ( 18.00000000000000000, 0.2825087915134613104, 0.01531771471489561977 ) ) ;
#857 = UNCERTAINTY_MEASURE_WITH_UNIT (LENGTH_MEASURE( 1.000000000000000082E-05 ), #459, 'distance_accuracy_value', 'NONE');
#858 = VECTOR ( 'NONE', #900, 39.37007874015748143 ) ;
#859 = ORIENTED_EDGE ( 'NONE', *, *, #278, .F. ) ;
#860 = EDGE_CURVE ( 'NONE', #538, #732, #73, .T. ) ;
#861 = AXIS2_PLACEMENT_3D ( 'NONE', #798, #75, #890 ) ;
#862 = ORIENTED_EDGE ( 'NONE', *, *, #369, .F. ) ;
#863 = CARTESIAN_POINT ( 'NONE',  ( 18.00000000000000000, 0.2778250430948239758, -0.02079290974475204654 ) ) ;
#864 = DIRECTION ( 'NONE',  ( 1.000000000000000000, 0.000000000000000000, 0.000000000000000000 ) ) ;
#865 = EDGE_LOOP ( 'NONE', ( #1006, #325, #246, #405 ) ) ;
#866 = SHAPE_DEFINITION_REPRESENTATION ( #219, #315 ) ;
#867 = AXIS2_PLACEMENT_3D ( 'NONE', #847, #937, #281 ) ;
#868 = VERTEX_POINT ( 'NONE', #974 ) ;
#869 = LINE ( 'NONE', #641, #652 ) ;
#870 = EDGE_CURVE ( 'NONE', #634, #368, #991, .T. ) ;
#871 = DIRECTION ( 'NONE',  ( -1.000000000000000000, 0.000000000000000000, 0.000000000000000000 ) ) ;
#872 = ORIENTED_EDGE ( 'NONE', *, *, #167, .F. ) ;
#873 = CARTESIAN_POINT ( 'NONE',  ( 0.000000000000000000, 0.000000000000000000, 0.000000000000000000 ) ) ;
#874 = CARTESIAN_POINT ( 'NONE',  ( -18.00000000000000000, -0.1350723978815634163, 0.2339522558310035694 ) ) ;
#875 = CIRCLE ( 'NONE', #741, 0.01968503937008753493 ) ;
#876 = CARTESIAN_POINT ( 'NONE',  ( -18.00000000000000000, 0.1569197096049663454, 0.2302070902552444120 ) ) ;
#877 = ADVANCED_FACE ( 'NONE', ( #592 ), #517, .T. ) ;
#878 = ORIENTED_EDGE ( 'NONE', *, *, #796, .F. ) ;
#879 =( NAMED_UNIT ( * ) PLANE_ANGLE_UNIT ( ) SI_UNIT ( $, .RADIAN. ) );
#880 = ORIENTED_EDGE ( 'NONE', *, *, #400, .F. ) ;
#881 = DIRECTION ( 'NONE',  ( 1.000000000000000000, 0.000000000000000000, 0.000000000000000000 ) ) ;
#882 = DIRECTION ( 'NONE',  ( 0.000000000000000000, -0.5000000000000001110, 0.8660254037844385966 ) ) ;
#883 = ADVANCED_FACE ( 'NONE', ( #424 ), #103, .F. ) ;
#884 = EDGE_LOOP ( 'NONE', ( #533, #753, #737, #878 ) ) ;
#885 = CIRCLE ( 'NONE', #157, 0.01968503937008111299 ) ;
#886 = PLANE ( 'NONE',  #540 ) ;
#887 = DIRECTION ( 'NONE',  ( 0.000000000000000000, 0.000000000000000000, -1.000000000000000000 ) ) ;
#888 = DIRECTION ( 'NONE',  ( 0.000000000000000000, 0.4999999999999998335, 0.8660254037844385966 ) ) ;
#889 = EDGE_LOOP ( 'NONE', ( #460, #168, #678, #564 ) ) ;
#890 = DIRECTION ( 'NONE',  ( 0.000000000000000000, 0.000000000000000000, -1.000000000000000000 ) ) ;
#891 = CYLINDRICAL_SURFACE ( 'NONE', #166, 0.01968503937007875723 ) ;
#892 = ORIENTED_EDGE ( 'NONE', *, *, #835, .F. ) ;
#893 = VERTEX_POINT ( 'NONE', #745 ) ;
#894 = DIRECTION ( 'NONE',  ( 0.000000000000000000, 0.000000000000000000, -1.000000000000000000 ) ) ;
#895 = EDGE_CURVE ( 'NONE', #314, #66, #263, .T. ) ;
#896 = CARTESIAN_POINT ( 'NONE',  ( -18.00000000000000000, -0.2948727872637696978, -0.03063542942985944886 ) ) ;
#897 = DIRECTION ( 'NONE',  ( 1.000000000000000000, 0.000000000000000000, 0.000000000000000000 ) ) ;
#898 = AXIS2_PLACEMENT_3D ( 'NONE', #508, #825, #98 ) ;
#899 = ORIENTED_EDGE ( 'NONE', *, *, #676, .T. ) ;
#900 = DIRECTION ( 'NONE',  ( 1.000000000000000000, -0.000000000000000000, -0.000000000000000000 ) ) ;
#901 = CARTESIAN_POINT ( 'NONE',  ( 18.00000000000000000, 0.1545199258277641652, -0.2370009328856418074 ) ) ;
#902 = EDGE_CURVE ( 'NONE', #298, #994, #651, .T. ) ;
#903 = CARTESIAN_POINT ( 'NONE',  ( -18.00000000000000000, 0.2948727872638089997, -0.03063542942979136444 ) ) ;
#904 = VERTEX_POINT ( 'NONE', #15 ) ;
#905 = DIRECTION ( 'NONE',  ( -1.000000000000000000, 0.000000000000000000, 0.000000000000000000 ) ) ;
#906 = CARTESIAN_POINT ( 'NONE',  ( -18.00000000000000000, 0.1209053334898379933, 0.2706850393700787616 ) ) ;
#907 = EDGE_CURVE ( 'NONE', #868, #221, #9, .T. ) ;
#908 = ORIENTED_EDGE ( 'NONE', *, *, #643, .F. ) ;
#909 = VERTEX_POINT ( 'NONE', #412 ) ;
#910 = DIRECTION ( 'NONE',  ( 1.000000000000000000, 0.000000000000000000, 0.000000000000000000 ) ) ;
#911 = VECTOR ( 'NONE', #69, 39.37007874015748143 ) ;
#912 = DIRECTION ( 'NONE',  ( 0.000000000000000000, -1.734723475976807094E-15, -1.000000000000000000 ) ) ;
#913 = VECTOR ( 'NONE', #1027, 39.37007874015748143 ) ;
#914 = EDGE_CURVE ( 'NONE', #44, #909, #733, .T. ) ;
#915 = AXIS2_PLACEMENT_3D ( 'NONE', #906, #518, #588 ) ;
#916 = VERTEX_POINT ( 'NONE', #819 ) ;
#917 = DIRECTION ( 'NONE',  ( 1.000000000000000000, 0.000000000000000000, 0.000000000000000000 ) ) ;
#918 = AXIS2_PLACEMENT_3D ( 'NONE', #39, #940, #772 ) ;
#919 = CARTESIAN_POINT ( 'NONE',  ( -18.00000000000000000, 0.1209053334898498172, -0.2509999999999999454 ) ) ;
#920 = VERTEX_POINT ( 'NONE', #2 ) ;
#921 = FILL_AREA_STYLE ('',( #1014 ) ) ;
#922 = CARTESIAN_POINT ( 'NONE',  ( -18.00000000000000000, -0.1545199258277779875, 0.2370009328856223230 ) ) ;
#923 = AXIS2_PLACEMENT_3D ( 'NONE', #874, #485, #489 ) ;
#924 = CYLINDRICAL_SURFACE ( 'NONE', #657, 0.01968503937008900251 ) ;
#925 = CIRCLE ( 'NONE', #40, 0.3744999999999999996 ) ;
#926 = EDGE_LOOP ( 'NONE', ( #767, #390, #773, #791 ) ) ;
#927 = CARTESIAN_POINT ( 'NONE',  ( -18.00000000000000000, -0.1569197096049718410, -0.2302070902552348086 ) ) ;
#928 = CIRCLE ( 'NONE', #12, 0.01968503937007875723 ) ;
#929 = FACE_OUTER_BOUND ( 'NONE', #770, .T. ) ;
#930 = ADVANCED_FACE ( 'NONE', ( #331 ), #253, .F. ) ;
#931 = ORIENTED_EDGE ( 'NONE', *, *, #309, .F. ) ;
#932 = DIRECTION ( 'NONE',  ( 1.000000000000000000, 0.000000000000000000, 0.000000000000000000 ) ) ;
#933 = PLANE ( 'NONE',  #249 ) ;
#934 = EDGE_CURVE ( 'NONE', #298, #506, #273, .T. ) ;
#935 = ORIENTED_EDGE ( 'NONE', *, *, #265, .T. ) ;
#936 = DIRECTION ( 'NONE',  ( -1.000000000000000000, -0.000000000000000000, -0.000000000000000000 ) ) ;
#937 = DIRECTION ( 'NONE',  ( 1.000000000000000000, 0.000000000000000000, 0.000000000000000000 ) ) ;
#938 = EDGE_CURVE ( 'NONE', #476, #649, #345, .T. ) ;
#939 = VERTEX_POINT ( 'NONE', #86 ) ;
#940 = DIRECTION ( 'NONE',  ( -1.000000000000000000, -0.000000000000000000, -0.000000000000000000 ) ) ;
#941 = LINE ( 'NONE', #515, #913 ) ;
#942 = ORIENTED_EDGE ( 'NONE', *, *, #663, .T. ) ;
#943 = CIRCLE ( 'NONE', #29, 0.3744999999999999996 ) ;
#944 = ADVANCED_FACE ( 'NONE', ( #656 ), #258, .T. ) ;
#945 = ORIENTED_EDGE ( 'NONE', *, *, #145, .T. ) ;
#946 = DIRECTION ( 'NONE',  ( 1.000000000000000000, 0.000000000000000000, 0.000000000000000000 ) ) ;
#947 = DIRECTION ( 'NONE',  ( 0.000000000000000000, 0.000000000000000000, -1.000000000000000000 ) ) ;
#948 = VECTOR ( 'NONE', #768, 39.37007874015748143 ) ;
#949 = ORIENTED_EDGE ( 'NONE', *, *, #30, .F. ) ;
#950 = PRODUCT_DEFINITION_FORMATION_WITH_SPECIFIED_SOURCE ( 'ANY', '', #132, .NOT_KNOWN. ) ;
#951 = CARTESIAN_POINT ( 'NONE',  ( -18.00000000000000000, -0.1209053334898533560, 0.2509999999999999454 ) ) ;
#952 = DIRECTION ( 'NONE',  ( 1.000000000000000000, 0.000000000000000000, 0.000000000000000000 ) ) ;
#953 = ORIENTED_EDGE ( 'NONE', *, *, #1022, .F. ) ;
#954 = VERTEX_POINT ( 'NONE', #182 ) ;
#955 = CARTESIAN_POINT ( 'NONE',  ( -18.00000000000000000, 0.1350723978815634163, -0.2339522558310188349 ) ) ;
#956 = VECTOR ( 'NONE', #569, 39.37007874015748143 ) ;
#957 = CARTESIAN_POINT ( 'NONE',  ( -18.00000000000000000, 0.2948727872638092218, 0.03063542942979122913 ) ) ;
#958 = EDGE_CURVE ( 'NONE', #221, #691, #680, .T. ) ;
#959 = VERTEX_POINT ( 'NONE', #447 ) ;
#960 = ORIENTED_EDGE ( 'NONE', *, *, #543, .T. ) ;
#961 = CARTESIAN_POINT ( 'NONE',  ( -18.00000000000000000, 0.000000000000000000, 0.000000000000000000 ) ) ;
#962 = DIRECTION ( 'NONE',  ( 1.000000000000000000, -0.000000000000000000, -0.000000000000000000 ) ) ;
#963 = PRODUCT_DEFINITION ( 'UNKNOWN', '', #950, #503 ) ;
#964 = FACE_BOUND ( 'NONE', #32, .T. ) ;
#965 = PRESENTATION_STYLE_ASSIGNMENT (( #72 ) ) ;
#966 = ORIENTED_EDGE ( 'NONE', *, *, #475, .T. ) ;
#967 = LINE ( 'NONE', #951, #837 ) ;
#968 = LINE ( 'NONE', #328, #21 ) ;
#969 = VECTOR ( 'NONE', #697, 39.37007874015748854 ) ;
#970 = CARTESIAN_POINT ( 'NONE',  ( 18.00000000000000000, 0.1209053334898379933, 0.2510000000000000009 ) ) ;
#971 = AXIS2_PLACEMENT_3D ( 'NONE', #143, #247, #162 ) ;
#972 = EDGE_CURVE ( 'NONE', #14, #655, #363, .T. ) ;
#973 = VERTEX_POINT ( 'NONE', #688 ) ;
#974 = CARTESIAN_POINT ( 'NONE',  ( 18.00000000000000000, 0.1209053334898498172, -0.2509999999999999454 ) ) ;
#975 = CYLINDRICAL_SURFACE ( 'NONE', #696, 0.01968503937007874682 ) ;
#976 = CARTESIAN_POINT ( 'NONE',  ( 18.00000000000000000, 4.586302262806837466E-17, -0.3744999999999999996 ) ) ;
#977 = EDGE_CURVE ( 'NONE', #1024, #310, #766, .T. ) ;
#978 = VERTEX_POINT ( 'NONE', #207 ) ;
#979 = CARTESIAN_POINT ( 'NONE',  ( -18.00000000000000000, -0.1350723978815500659, -0.2339522558310264677 ) ) ;
#980 = LENGTH_MEASURE_WITH_UNIT ( LENGTH_MEASURE( 0.02539999999999999897 ), #16 );
#981 = DIRECTION ( 'NONE',  ( 0.000000000000000000, 0.000000000000000000, -1.000000000000000000 ) ) ;
#982 = ORIENTED_EDGE ( 'NONE', *, *, #721, .T. ) ;
#983 = DIRECTION ( 'NONE',  ( 0.000000000000000000, 1.178212032764343639E-16, -1.000000000000000000 ) ) ;
#984 = CARTESIAN_POINT ( 'NONE',  ( -18.00000000000000000, 0.1350723978815499271, 0.2339522558310113409 ) ) ;
#985 = PRESENTATION_LAYER_ASSIGNMENT (  '', '', ( #261 ) ) ;
#986 = EDGE_CURVE ( 'NONE', #904, #8, #453, .T. ) ;
#987 = LINE ( 'NONE', #812, #956 ) ;
#988 = ORIENTED_EDGE ( 'NONE', *, *, #389, .F. ) ;
#989 = DIRECTION ( 'NONE',  ( 0.000000000000000000, 0.000000000000000000, -1.000000000000000000 ) ) ;
#990 = DIRECTION ( 'NONE',  ( 1.000000000000000000, 0.000000000000000000, 0.000000000000000000 ) ) ;
#991 = CIRCLE ( 'NONE', #853, 0.01968503937007872254 ) ;
#992 = EDGE_CURVE ( 'NONE', #14, #650, #174, .T. ) ;
#993 = CYLINDRICAL_SURFACE ( 'NONE', #789, 0.01968503937007875723 ) ;
#994 = VERTEX_POINT ( 'NONE', #379 ) ;
#995 = CARTESIAN_POINT ( 'NONE',  ( 18.00000000000000000, 0.1209053334898379933, 0.2510000000000000009 ) ) ;
#996 = CARTESIAN_POINT ( 'NONE',  ( -18.00000000000000000, -0.2948727872638026160, 0.03063542942980236605 ) ) ;
#997 = AXIS2_PLACEMENT_3D ( 'NONE', #598, #495, #989 ) ;
#998 = VECTOR ( 'NONE', #1046, 39.37007874015748143 ) ;
#999 = DIRECTION ( 'NONE',  ( 1.000000000000000000, -0.000000000000000000, -0.000000000000000000 ) ) ;
#1000 = AXIS2_PLACEMENT_3D ( 'NONE', #340, #664, #28 ) ;
#1001 = ORIENTED_EDGE ( 'NONE', *, *, #743, .F. ) ;
#1002 = DIRECTION ( 'NONE',  ( 1.000000000000000000, -0.000000000000000000, -0.000000000000000000 ) ) ;
#1003 = DIRECTION ( 'NONE',  ( 0.000000000000000000, 0.000000000000000000, -1.000000000000000000 ) ) ;
#1004 = VECTOR ( 'NONE', #286, 39.37007874015748143 ) ;
#1005 = CARTESIAN_POINT ( 'NONE',  ( -18.00000000000000000, -0.1449149175665961076, 0.2509999999999999454 ) ) ;
#1006 = ORIENTED_EDGE ( 'NONE', *, *, #728, .F. ) ;
#1007 = EDGE_CURVE ( 'NONE', #128, #14, #211, .T. ) ;
#1008 = LINE ( 'NONE', #123, #87 ) ;
#1009 = AXIS2_PLACEMENT_3D ( 'NONE', #250, #329, #654 ) ;
#1010 = VERTEX_POINT ( 'NONE', #280 ) ;
#1011 = DIRECTION ( 'NONE',  ( 1.000000000000000000, -0.000000000000000000, -0.000000000000000000 ) ) ;
#1012 = CARTESIAN_POINT ( 'NONE',  ( -18.00000000000000000, -0.1350723978815500659, -0.2339522558310264677 ) ) ;
#1013 = ORIENTED_EDGE ( 'NONE', *, *, #537, .F. ) ;
#1014 = FILL_AREA_STYLE_COLOUR ( '', #159 ) ;
#1015 = DIRECTION ( 'NONE',  ( -1.000000000000000000, 0.000000000000000000, 0.000000000000000000 ) ) ;
#1016 = EDGE_CURVE ( 'NONE', #165, #49, #943, .T. ) ;
#1017 = VECTOR ( 'NONE', #156, 39.37007874015748854 ) ;
#1018 = ORIENTED_EDGE ( 'NONE', *, *, #223, .T. ) ;
#1019 = CYLINDRICAL_SURFACE ( 'NONE', #762, 0.01968503937007875723 ) ;
#1020 = CARTESIAN_POINT ( 'NONE',  ( -18.00000000000000000, -0.1569197096049923246, 0.2302070902551993370 ) ) ;
#1021 = DIRECTION ( 'NONE',  ( 0.000000000000000000, 0.000000000000000000, -1.000000000000000000 ) ) ;
#1022 = EDGE_CURVE ( 'NONE', #973, #954, #1029, .T. ) ;
#1023 = AXIS2_PLACEMENT_3D ( 'NONE', #1048, #557, #469 ) ;
#1024 = VERTEX_POINT ( 'NONE', #927 ) ;
#1025 = ORIENTED_EDGE ( 'NONE', *, *, #369, .T. ) ;
#1026 = CARTESIAN_POINT ( 'NONE',  ( -18.00000000000000000, -0.2825087915134631422, 0.01531771471489994270 ) ) ;
#1027 = DIRECTION ( 'NONE',  ( -1.000000000000000000, 0.000000000000000000, 0.000000000000000000 ) ) ;
#1028 = ORIENTED_EDGE ( 'NONE', *, *, #318, .T. ) ;
#1029 = CIRCLE ( 'NONE', #444, 0.01968503937007875723 ) ;
#1030 = PRODUCT_CONTEXT ( 'NONE', #524, 'mechanical' ) ;
#1031 = ORIENTED_EDGE ( 'NONE', *, *, #802, .F. ) ;
#1032 = DIRECTION ( 'NONE',  ( 0.000000000000000000, 0.000000000000000000, 1.000000000000000000 ) ) ;
#1033 = LINE ( 'NONE', #876, #251 ) ;
#1034 = VERTEX_POINT ( 'NONE', #125 ) ;
#1035 = ADVANCED_FACE ( 'NONE', ( #617 ), #774, .T. ) ;
#1036 = ORIENTED_EDGE ( 'NONE', *, *, #296, .T. ) ;
#1037 = FACE_OUTER_BOUND ( 'NONE', #719, .T. ) ;
#1038 = CARTESIAN_POINT ( 'NONE',  ( 18.00000000000000000, 0.1350723978815634163, -0.2339522558310188349 ) ) ;
#1039 = ORIENTED_EDGE ( 'NONE', *, *, #1007, .F. ) ;
#1040 = ORIENTED_EDGE ( 'NONE', *, *, #223, .F. ) ;
#1041 = DIRECTION ( 'NONE',  ( -1.000000000000000000, 0.000000000000000000, 0.000000000000000000 ) ) ;
#1042 = EDGE_CURVE ( 'NONE', #239, #374, #307, .T. ) ;
#1043 = DIRECTION ( 'NONE',  ( 0.000000000000000000, 0.000000000000000000, -1.000000000000000000 ) ) ;
#1044 = DIRECTION ( 'NONE',  ( 0.000000000000000000, 0.000000000000000000, -1.000000000000000000 ) ) ;
#1045 = ORIENTED_EDGE ( 'NONE', *, *, #435, .T. ) ;
#1046 = DIRECTION ( 'NONE',  ( 1.000000000000000000, -0.000000000000000000, -0.000000000000000000 ) ) ;
#1047 = CIRCLE ( 'NONE', #729, 0.01968503937009412341 ) ;
#1048 = CARTESIAN_POINT ( 'NONE',  ( -18.00000000000000000, 0.2701447957631134544, 0.000000000000000000 ) ) ;
#1049 = AXIS2_PLACEMENT_3D ( 'NONE', #896, #441, #351 ) ;
#1050 = ADVANCED_FACE ( 'NONE', ( #370 ), #1019, .T. ) ;
#1051 = CYLINDRICAL_SURFACE ( 'NONE', #371, 0.01968503937007873988 ) ;
ENDSEC;
END-ISO-10303-21;
